<svg xmlns="http://www.w3.org/2000/svg" width="1000" height="1000" id="assidents"><g><path d="M470.95801594 662.55570007c-1.53538393 4.93562797-6.66872416 7.72305303-11.45844177 6.22852153L173.552248 579.53887723c-4.79585437-1.49445247-7.43241115-6.7105319-5.8939646-11.64618462 1.54155223-4.94195285 6.67182985-7.72935317 11.4646056-6.23172358l285.94729226 89.24534465c4.78972444 1.49765425 7.42321845 6.71377808 5.88783468 11.6493864" fill="#5184b3"/><path d="M419.55422033 585.29100452l-39.7836436-78.70451948s-71.19491895-22.21866746-99.90886987-31.17962104c-39.47631102-12.32371018-82.77813618 8.65836674-104.6913271 78.93544352 62.8075777 19.6001699 231.50581038 72.24811208 231.50581038 72.24811208l12.8780302-41.29941508z" fill="#2ac9de"/><path d="M386.02086847 566.55460086l-25.70006688-50.81534332-89.5743954-27.95792068s-29.03735284-8.77612837-56.90758547 37.68075757C289.0440449 548.9333274 392.5933511 581.2491482 392.5933511 581.2491482l-6.57248263-14.69454734z" fill="#f4f4f6"/><path d="M300.9149965 558.4117956l-14.65349153-4.57233 18.83333313-60.41834664 14.65956684 4.57543318-18.83940843 60.41524345z" fill="#2ac9de"/><path d="M469.5533055 652.30999156l3.8490947-12.32812782c6.36508676-20.4291934-4.53666445-42.01017952-24.36198145-48.19332754L224.7116386 521.77281082c-19.81911472-6.189483-41.06084428 5.35860772-47.4258381 25.77838285l-3.84604802 12.33124566 296.11355303 92.42755223z" fill="#2ac9de"/><path d="M451.98121652 592.88041356l-10.61461906 34.05184442 32.77005875 10.22890057c4.33175338-18.51197233-5.08917327-37.3149934-22.15543968-44.280745" fill="#ffdc2e"/><path d="M444.03652865 654.14860554c5.40983962-17.36449917-3.86187398-35.70373274-20.70694622-40.95899418-16.85421235-5.2646051-34.90878257 4.55487756-40.32166886 21.9162589-5.41290898 17.36139135 3.8649365 35.70371782 20.7130555 40.96208727 16.8480916 5.26153176 34.8995449-4.5516605 40.31555958-21.919352" fill="#546670"/><path d="M433.2695561 650.7899812c3.50244852-11.23199336-2.4999608-23.10037594-13.40289397-26.50914332-10.89685138-3.40250216-22.58318043 2.950396-26.0887187 14.18554695-3.49941307 11.23510146 2.50296885 23.10664635 13.40289405 26.5091335 10.90605042 3.40243767 22.5862702-2.95355358 26.08871862-14.18553713" fill="#244065"/><path d="M254.4001444 594.96143257c5.4159602-17.36140617-3.855776-35.70063956-20.70691897-40.96213684-16.8481191-5.25835963-34.90267337 4.55798047-40.31555503 21.91621933-5.41600346 17.36770123 3.8587955 35.70689023 20.7068871 40.968422 16.85117032 5.2583448 34.90266208-4.5579804 40.3155869-21.9225045" fill="#546670"/><path d="M243.63652864 591.60274184c3.50244843-11.23198354-2.49687568-23.10039106-13.40292138-26.50598102-10.90294927-3.40560516-22.5831418 2.94724342-26.0917427 14.1824191-3.4963232 11.23193407 2.50299628 23.10348406 13.4059727 26.50595638 10.90294927 3.40560516 22.58624287-2.9504011 26.08869138-14.18239446" fill="#244065"/><path d="M326.9726129 560.11903472l-24.22984855-7.56452102-3.65366732 11.70760586 24.2298644 7.56138828 3.65365147-11.70447312z" fill="#5184b3"/><g><path d="M774.88682 566.642297c1.85163456 5.63061787-1.3486348 11.7921882-7.1446632 13.7649758-5.79861248 1.97366714-11.99912393-.9881701-13.8507585-6.61878797-1.85163455-5.63061787 1.34863482-11.7921882 7.14724728-13.76585534 5.7960284-1.9727876 11.99653986.98904963 13.84817442 6.6196675" fill="#fff"/><path d="M521.61304 513.801717c2.30381626 7.0056529-1.67575565 14.67683275-8.8930126 17.1333623-7.21725696 2.45652956-14.935688-1.23301432-17.23950426-8.23866722-2.30381626-7.0056529 1.67751455-14.68022147 8.8947715-17.13675102 7.21725696-2.45652955 14.9339291 1.23640304 17.23774536 8.24205594" fill="#a02c2c"/><path d="M832.78042 546.937947l-253.54975 86.30045-59.58813-181.20101 253.54974-86.30045 59.58814 181.20101z" fill="#fff"/><path d="M728.55398 467.264697c9.94469683 30.24073378-7.24071737 63.35441446-38.38887898 73.95627884-31.14557755 10.60098485-64.45253747-5.3266638-74.3972343-35.56739758-9.94552198-30.24324296 7.23472412-63.35516458 38.38030167-73.95614943 31.1481616-10.6018644 64.46028962 5.3240252 74.4058116 35.56726817" fill="#c83737"/><path d="M689.1469 513.698617l-14.0159 4.7706-19.53211-59.39501 14.01591-4.77059 19.5321 59.39499z" fill="#fffeff"/><path d="M639.33536 490.063367l61.16969-20.82024 4.47645 13.61233-61.16968 20.82025-4.47644-13.61233z" fill="#fffeff"/><path d="M487.83671 664.343527l92.29974982-31.415961-41.1229552-125.05040236-60.04819805 20.43853696s-9.8585561 52.17850902-8.51211675 70.29632968C471.70391556 615.44273848 487.83671 664.343527 487.83671 664.343527" fill="#fff"/><path d="M479.24401 593.660747l68.20863395-23.21609526-15.80243022-48.0534594-45.59559578 15.51932115L479.24401 593.660747z" fill="#2ad4ff"/><path d="M825.92552 526.091467l-344.76667 116.7633-2.23462-7.66393 344.33729-117.19887z" fill="#c83737"/><path d="M562.51019 641.551427c5.00205378 15.21069766-3.64284492 31.8578435-19.30219944 37.18780022-15.66193856 5.33083624-32.41310193-2.67228082-37.4151557-17.88297847-5.00122865-15.20818847 3.6428449-31.8578435 19.30478348-37.18867975 15.6593545-5.3299567 32.41134303 2.67566953 37.41257166 17.883858M794.07212 562.081207c5.00205378 15.21069766-3.64284492 31.8578435-19.30219944 37.18780022-15.66193856 5.33083624-32.41051788-2.67316035-37.41257166-17.883858-5.00122864-15.20818847 3.64026087-31.85696398 19.30219944-37.18780022 15.6593545-5.3299567 32.41134303 2.67566953 37.41257166 17.883858" fill="#005975"/><path d="M554.46315 644.666187c3.78904404 10.82725736-2.2315365 22.51647306-13.4407583 26.11390502-11.21421923 3.5990358-23.37426685-2.2553794-27.1633109-13.08263677-3.78904403-10.82725736 2.2315365-22.51647306 13.44575574-26.11550887 11.2092218-3.59743196 23.36926942 2.25698326 27.15831346 13.08424062M786.16382 565.370997c3.78904404 10.82725736-2.2315365 22.51647306-13.4407583 26.11390502-11.21421923 3.5990358-23.37426685-2.2553794-27.1633109-13.08263677-3.78904403-10.82725736 2.2315365-22.51647306 13.44575574-26.11550887 11.2092218-3.59743196 23.36926942 2.25698326 27.15831346 13.08424062" fill="#ccc"/></g><path d="M441.96272 323.060637c-27.9521-.20347-48.50985 32.56463-37.40387 57.91119 4.78227 12.33843 15.74831 22.35922 28.81012 25.08881-8.9201 6.56485 6.10813 29.7679-11.42074 20.41512-24.74292-4.11171-48.93347 18.28131-47.46566 43.19401.34289 21.36164 19.6621 42.57209 41.83685 39.9565 2.2159 7.0859-10.38337 16.96853-4.86951 26.7701 3.28285 13.21292 17.74596 21.13939 30.67846 20.9147.11645 12.01868 18.30733 19.16147 9.19188 32.11255.0173 14.72732 22.33471 19.45071 28.11327 5.732 8.19282-12.3998-17.4535-25.87307-5.78116-34.08849 11.28446 4.24304 24.76691-.1108 31.30865-10.4886 8.96653-12.06268 6.70836-32.47349-7.52752-39.45275-11.7362-3.50695-6.16467-18.33106-2.4362-26.32836 11.2025-1.63758 15.54071-19.4165 28.55376-14.44072 24.16332-2.16209 37.91766-34.01711 23.49229-53.37362-6.69545-9.96506-19.24669-15.9266-31.20562-13.98494 12.30253-13.28537-1.17004-32.27561-9.10309-38.96255 6.63917-14.87986-14.05928-29.66223-25.56663-17.21746-8.24317-8.647-18.29591-23.70084-34.04725-23.54765l-2.57115-.19364-2.58688-.0162zm32.21875 67.84375c6.70925 7.92444-14.2894 11.24997-2.55873 2.99396.92451-.93589 1.71614-1.98649 2.55873-2.99396zm-27.1875 50.46875c8.08824-2.08272 4.72864 11.72837 0 0zm8.6875 31.90625c2.45254.88701-2.59977 2.64765 0 0zm-10.125 22.5625c3.56839 7.90017-.27934 9.58715-7.26905 6.76924 1.52125-2.91453 6.14468-3.4241 7.26905-6.76924zm14.875 20.875c2.78528-.71899-.60001 2.93689 0 0zm2.8125 88.28125c-19.70256 5.08961 11.09069 25.18813 6.25037 3.86236-1.15641-2.29978-3.62317-3.99357-6.25037-3.86236z" fill="#f9f9f9" stroke="#c87137" stroke-width="6.9000001"/></g></svg>