<svg xmlns="http://www.w3.org/2000/svg" width="1000" height="1000"><defs><clipPath id="a"><path d="M614.122 517.006h43.394v-96.81h-43.394v96.81z"/></clipPath></defs><path d="M607.72 611.153H295.355v-327.02H607.72v327.02z" fill="#fea"/><path d="M607.72 368.97H295.355v-84.84H607.72v84.837z" fill="#f95"/><path d="M295.378 422.687h312.415" fill="none" stroke="#5390c6" stroke-width="1.777" stroke-miterlimit="10"/><path d="M313.05 398.557c0-1.198-.205-2.178-.604-2.886-.414-.7-1.133-1.41-2.156-2.1-2.103-1.13-3.68-2.41-4.727-3.87-1.06-1.43-1.578-3.453-1.578-6.06 0-2.58.608-4.662 1.833-6.29 1.22-1.62 2.78-2.42 4.677-2.42 1.928 0 3.495.903 4.697 2.708 1.205 1.8 1.787 4.078 1.753 6.82l-.027.125h-3.84c0-1.434-.233-2.602-.693-3.487-.46-.884-1.11-1.344-1.955-1.344-.79 0-1.4.377-1.84 1.12-.445.756-.666 1.66-.666 2.79 0 1.034.244 1.89.738 2.557.498.66 1.342 1.41 2.563 2.223 1.91 1.01 3.35 2.29 4.32 3.823.97 1.553 1.457 3.624 1.457 6.273 0 2.71-.586 4.832-1.75 6.366-1.17 1.552-2.722 2.313-4.658 2.313-1.928 0-3.594-.874-5.005-2.62-1.42-1.74-2.11-4.243-2.06-7.518l.027-.12h3.85c0 1.935.26 3.333.8 4.177.522.843 1.32 1.27 2.382 1.27.836 0 1.456-.344 1.855-1.035.4-.695.6-1.616.6-2.813m38.585-22.22l3.625 23.05h.083L359 376.337h5.153v31.395h-3.93v-9.122l.335-12.21-.084-.01-3.86 21.343h-2.628l-3.822-21.178-.075.024.34 12.03v9.12h-3.927v-31.39h5.124zm59.345 3.93h-4.556v26.495h-3.944V380.27h-4.532v-4.902h13.03v4.902zm46.883 15.133h.084l2.19-20.038h3.83l-3.91 31.403h-3.677l-2.842-19.25h-.088l-2.82 19.25h-3.67l-3.897-31.404h3.834l2.183 20.038h.08l2.916-20.038h2.84l2.95 20.038zm45.586-14.162h-4.56v26.496h-3.94v-26.5h-4.525v-4.902h13.024v4.902zm43.12 13.445h-6.86v13.052h-3.96v-31.4h12.03v4.905h-8.07v8.55h6.86v4.89zm48.897 4.84c0-1.197-.203-2.177-.606-2.885-.42-.7-1.135-1.415-2.16-2.1-2.108-1.13-3.68-2.413-4.728-3.87-1.05-1.434-1.58-3.458-1.58-6.06 0-2.58.61-4.668 1.834-6.29 1.22-1.623 2.784-2.425 4.682-2.425 1.922 0 3.49.902 4.694 2.708 1.202 1.8 1.784 4.077 1.746 6.82l-.026.125h-3.833c0-1.435-.227-2.603-.69-3.49-.47-.882-1.123-1.343-1.96-1.343-.79 0-1.403.378-1.836 1.122-.445.753-.666 1.656-.666 2.79 0 1.03.248 1.89.74 2.554.48.66 1.344 1.41 2.56 2.226 1.914 1.01 3.355 2.29 4.32 3.823.96 1.552 1.45 3.623 1.45 6.272 0 2.71-.583 4.834-1.747 6.368-1.163 1.552-2.72 2.313-4.65 2.313-1.93 0-3.606-.872-5.017-2.62-1.41-1.74-2.09-4.242-2.042-7.516l.024-.12h3.847c0 1.936.26 3.334.795 4.178.522.844 1.32 1.27 2.39 1.27.83 0 1.444-.343 1.85-1.034.404-.694.606-1.615.606-2.812" fill="#d45500"/><path d="M404.274 457.273h-2.498v-15.216l-3.523.232v-1.59l6.02-1.115v17.682zm46.816-.027h-10.1v-1.636l4.952-6.375c.792-1.105 1.357-2.017 1.675-2.747.31-.727.474-1.434.474-2.12 0-.924-.2-1.693-.592-2.27-.41-.592-.954-.887-1.652-.887-.89 0-1.55.328-1.99.97-.44.66-.655 1.548-.655 2.67h-2.41l-.03-.063c-.03-1.527.41-2.81 1.323-3.863.918-1.05 2.17-1.58 3.765-1.58 1.458 0 2.626.45 3.475 1.374.856.9 1.28 2.104 1.28 3.598 0 1.017-.26 2.01-.786 2.995-.525.98-1.287 2.077-2.278 3.285l-3.403 4.79h6.96v1.866zm37.167-9.916h1.72c.832 0 1.445-.275 1.827-.82.38-.554.572-1.287.572-2.22 0-.956-.2-1.716-.602-2.256-.4-.555-.978-.823-1.75-.823-.697 0-1.273.28-1.723.83-.44.553-.67 1.273-.67 2.166h-2.38l-.037-.062c-.034-1.373.396-2.512 1.31-3.424.9-.914 2.057-1.375 3.458-1.375 1.487 0 2.675.438 3.565 1.307.89.873 1.34 2.094 1.34 3.684 0 .78-.217 1.534-.637 2.248-.415.718-1.018 1.265-1.79 1.633.904.33 1.578.87 2.014 1.602.44.75.657 1.595.657 2.564 0 1.603-.484 2.855-1.44 3.767-.963.914-2.195 1.36-3.688 1.36-1.405 0-2.59-.43-3.558-1.31-.976-.862-1.44-2.076-1.405-3.626l.04-.07h2.395c0 .926.24 1.683.71 2.267.467.585 1.086.87 1.848.87.81 0 1.447-.28 1.9-.84.46-.56.688-1.353.688-2.39 0-1.097-.213-1.904-.656-2.43-.436-.516-1.096-.78-1.976-.78h-1.72v-1.863zm44.33 3.892h4.143v-8.06l-.075-.017-.243.51-3.825 7.567zm6.637 0h1.936v1.865h-1.936v4.158h-2.494v-4.158h-6.543l-.067-1.37 6.535-12.12h2.57v11.625zm43.104-1.902l.863-9.724h8.078v2.025h-5.98l-.475 5.24c.305-.31.664-.56 1.063-.76.4-.19.868-.3 1.39-.32 1.414-.013 2.527.5 3.333 1.55.81 1.04 1.214 2.478 1.214 4.28 0 1.76-.422 3.176-1.27 4.265-.845 1.094-2.077 1.638-3.7 1.638-1.355 0-2.49-.424-3.413-1.267-.923-.84-1.37-2.042-1.336-3.628l.025-.057 2.36-.045c0 1 .215 1.77.645 2.32.438.536 1.007.8 1.718.8.82 0 1.425-.343 1.84-1.054.417-.712.624-1.69.624-2.945 0-1.17-.22-2.12-.642-2.84-.435-.716-1.047-1.07-1.846-1.07-.715 0-1.243.152-1.59.447-.35.3-.594.754-.74 1.358l-2.155-.206zm-272.185 32.152c-.632 0-1.177.15-1.634.45-.467.296-.82.704-1.05 1.222v1.613c0 1.586.26 2.814.78 3.697s1.19 1.324 2 1.324c.74 0 1.33-.415 1.763-1.23.44-.818.664-1.823.664-3.014 0-1.195-.23-2.167-.677-2.924-.453-.76-1.065-1.138-1.85-1.138m.684-7.992c.545 0 1.066.07 1.567.203.5.136.96.328 1.376.56l-.484 1.803c-.37-.213-.75-.375-1.122-.49-.383-.114-.82-.177-1.324-.177-1.005 0-1.82.472-2.443 1.42-.622.96-.934 2.227-.934 3.814v.497c.41-.457.893-.816 1.46-1.075.56-.255 1.173-.378 1.84-.378 1.36 0 2.43.55 3.222 1.65.78 1.097 1.18 2.507 1.18 4.226 0 1.785-.45 3.235-1.36 4.38-.91 1.15-2.098 1.715-3.56 1.715-1.547 0-2.806-.614-3.797-1.85-.99-1.24-1.48-2.965-1.48-5.165v-3.825c0-2.186.556-3.955 1.666-5.306 1.113-1.337 2.51-2.008 4.193-2.008m49.506 2.142c-1.717 2.252-2.9 4.4-3.54 6.45-.64 2.064-1.094 4.603-1.355 7.626l-.162 1.687h-2.498l.15-1.69c.273-2.84.81-5.4 1.623-7.69.814-2.283 1.927-4.414 3.345-6.41h-8.07v-1.867h10.507v1.89zm44.51 4.04c0-.805-.2-1.458-.605-1.977-.406-.51-.934-.763-1.584-.763-.655 0-1.183.244-1.576.745-.392.492-.59 1.163-.59 1.994 0 .83.204 1.492.597 1.984.397.493.928.735 1.59.735.658 0 1.183-.24 1.575-.732.4-.492.593-1.154.593-1.985m.397 7.374c0-.872-.24-1.58-.728-2.13-.486-.56-1.1-.83-1.857-.83-.755 0-1.375.27-1.85.814-.472.55-.71 1.267-.71 2.146 0 .917.23 1.63.7 2.147.465.51 1.09.774 1.88.774.754 0 1.367-.265 1.844-.783.48-.52.715-1.232.715-2.14m2.13-7.415c0 .847-.23 1.587-.684 2.214-.45.632-1.07 1.103-1.843 1.403.88.333 1.584.837 2.112 1.523.52.68.78 1.465.78 2.353 0 1.465-.463 2.58-1.404 3.354-.93.783-2.15 1.166-3.655 1.166-1.52 0-2.75-.382-3.686-1.165-.94-.774-1.408-1.89-1.408-3.355 0-.89.26-1.683.783-2.37.515-.68 1.22-1.187 2.11-1.514-.773-.31-1.386-.777-1.826-1.412-.445-.627-.67-1.358-.67-2.198 0-1.394.43-2.477 1.29-3.235.85-.77 1.985-1.152 3.382-1.152 1.39 0 2.525.38 3.395 1.155.88.76 1.316 1.84 1.316 3.236m38.26 4.346c.648 0 1.193-.176 1.643-.537.447-.366.793-.82 1.023-1.39v-2.053c0-1.516-.23-2.668-.69-3.454-.47-.793-1.11-1.184-1.934-1.184-.7 0-1.283.422-1.75 1.27-.464.85-.7 1.896-.7 3.134 0 1.256.213 2.26.64 3.038.425.79 1.014 1.177 1.77 1.177m-.4 5.81c.907 0 1.648-.415 2.217-1.244.56-.846.845-2.034.845-3.597v-.877c-.346.584-.776 1.03-1.28 1.33-.498.3-1.046.44-1.64.44-1.434 0-2.57-.54-3.407-1.63-.836-1.087-1.256-2.554-1.256-4.42 0-1.8.47-3.304 1.417-4.502.94-1.2 2.11-1.8 3.5-1.8 1.56 0 2.815.586 3.76 1.744.94 1.17 1.417 2.848 1.417 5.03v4.61c0 2.15-.527 3.814-1.56 5-1.04 1.185-2.38 1.775-4.017 1.775-.518 0-1.05-.063-1.61-.185-.563-.122-1.084-.305-1.555-.54l.324-1.796c.44.24.88.403 1.335.506.448.105.945.158 1.504.158m46.62 1.633h-2.496v-15.22l-3.53.236v-1.586l6.02-1.115v17.688zm13.242-11.2c0-1.6-.214-2.82-.65-3.64-.43-.808-1.053-1.22-1.86-1.22-.813 0-1.433.412-1.85 1.23-.43.83-.64 2.036-.64 3.63v4.685c0 1.6.218 2.82.648 3.645.433.826 1.053 1.24 1.86 1.24.804 0 1.413-.414 1.846-1.24.43-.81.642-2.035.642-3.644v-4.685zm2.494 4.353c0 2.285-.448 4.034-1.338 5.252-.9 1.216-2.11 1.82-3.645 1.82-1.545 0-2.763-.604-3.664-1.83-.903-1.213-1.353-2.96-1.353-5.242v-3.992c0-2.273.45-4.012 1.344-5.243.898-1.23 2.12-1.845 3.653-1.845 1.53 0 2.744.615 3.648 1.846.905 1.23 1.356 2.97 1.356 5.244v3.993zm29.627 6.847H534.7v-15.22l-3.528.235v-1.586l6.02-1.116v17.688zm12.338 0h-2.497v-15.22l-3.523.235v-1.586l6.02-1.116v17.688zm38.833 0h-2.495v-15.22l-3.525.235v-1.586l6.02-1.116v17.688zm15.905-.022H594.18v-1.642l4.948-6.38c.788-1.104 1.354-2.013 1.675-2.747.31-.73.47-1.43.47-2.11 0-.94-.195-1.69-.597-2.28-.4-.587-.95-.88-1.65-.88-.882 0-1.545.326-1.99.973-.435.65-.66 1.54-.66 2.656h-2.41l-.022-.063c-.033-1.527.414-2.815 1.32-3.87.918-1.045 2.17-1.57 3.764-1.57 1.466 0 2.627.46 3.487 1.36.85.913 1.273 2.108 1.273 3.608 0 1.01-.264 2.008-.782 2.99-.523.98-1.285 2.074-2.283 3.29l-3.403 4.79h6.97v1.87zM311.43 525.54h-2.497v-15.21l-3.52.233v-1.586l6.018-1.115v17.678zm8.755-9.94h1.72c.828 0 1.438-.275 1.82-.82.383-.547.58-1.28.58-2.216 0-.956-.2-1.716-.6-2.26-.403-.544-.985-.82-1.757-.82-.7 0-1.27.276-1.72.82-.453.554-.673 1.28-.673 2.174h-2.393l-.03-.07c-.03-1.367.403-2.51 1.31-3.418.907-.92 2.058-1.367 3.462-1.367 1.48 0 2.667.424 3.56 1.3.89.873 1.334 2.095 1.334 3.684 0 .787-.21 1.53-.63 2.243-.42.72-1.015 1.265-1.79 1.64.904.325 1.578.863 2.01 1.603.437.743.657 1.593.657 2.558 0 1.61-.48 2.86-1.44 3.77-.963.91-2.19 1.364-3.69 1.364-1.398 0-2.583-.44-3.558-1.3-.968-.87-1.432-2.08-1.398-3.638l.04-.07h2.39c0 .93.235 1.684.71 2.268.463.58 1.083.873 1.844.873.81 0 1.445-.28 1.902-.842.46-.56.686-1.353.686-2.39 0-1.097-.22-1.896-.656-2.417-.436-.522-1.093-.785-1.976-.785h-1.72v-1.88zm36.612 9.94H354.3v-15.21l-3.524.233v-1.586l6.02-1.115v17.678zm7.71-6.047h4.146v-8.054l-.07-.017-.255.507-3.82 7.558zm6.64 0h1.93v1.87h-1.93v4.156h-2.494v-4.16h-6.546l-.07-1.378 6.545-12.116h2.565v11.622zm33.127 6.047h-2.498v-15.21l-3.523.233v-1.586l6.02-1.115v17.678zm6.28-7.946l.863-9.724h8.076v2.025h-5.984l-.48 5.24c.304-.312.663-.558 1.07-.764.4-.19.86-.29 1.38-.312 1.42-.013 2.532.494 3.34 1.546.81 1.05 1.21 2.48 1.21 4.28 0 1.767-.42 3.18-1.267 4.266-.842 1.087-2.078 1.635-3.706 1.635-1.35 0-2.48-.42-3.405-1.263-.927-.84-1.374-2.047-1.343-3.62l.026-.07 2.366-.046c0 1.003.213 1.783.646 2.32.432.538 1.004.81 1.71.81.817 0 1.433-.352 1.843-1.06.417-.705.624-1.68.624-2.94 0-1.177-.22-2.126-.648-2.843-.426-.716-1.042-1.074-1.84-1.074-.708 0-1.243.152-1.595.46-.35.302-.59.753-.734 1.35l-2.16-.208zm36.98 7.946h-2.495v-15.21l-3.53.233v-1.586l6.02-1.115v17.678zm11.053-9.94c-.633 0-1.184.156-1.634.452-.467.305-.813.713-1.05 1.224v1.626c0 1.58.26 2.81.78 3.694.517.873 1.183 1.314 2.006 1.314.732 0 1.32-.405 1.76-1.228.437-.82.65-1.815.65-3.006 0-1.195-.223-2.177-.666-2.927-.455-.76-1.07-1.15-1.853-1.15m.678-7.98c.545 0 1.07.06 1.574.2.498.14.955.325 1.37.56l-.487 1.81c-.365-.23-.74-.38-1.116-.5-.386-.117-.826-.17-1.327-.17-1.01 0-1.818.48-2.444 1.43-.62.95-.93 2.213-.93 3.81v.5c.41-.468.9-.826 1.463-1.075.555-.26 1.17-.392 1.84-.392 1.358 0 2.427.554 3.213 1.65.79 1.105 1.183 2.515 1.183 4.237 0 1.777-.45 3.24-1.358 4.385-.91 1.145-2.095 1.713-3.557 1.713-1.548 0-2.81-.62-3.802-1.854-.985-1.24-1.482-2.964-1.482-5.17v-3.834c0-2.18.56-3.945 1.666-5.293 1.114-1.34 2.512-2.008 4.194-2.008m32.58 17.915h-2.49v-15.21l-3.53.232v-1.586l6.02-1.114v17.68zm15.88-15.78c-1.725 2.253-2.903 4.397-3.543 6.46-.636 2.052-1.09 4.594-1.35 7.617l-.166 1.683h-2.49l.14-1.68c.276-2.84.818-5.402 1.63-7.692.81-2.29 1.926-4.42 3.35-6.408h-8.08v-1.866h10.51v1.887zm29.49 15.78h-2.492v-15.21l-3.527.232v-1.586l6.02-1.114v17.68zm12.91-13.016c0-.9-.207-1.62-.607-2.188-.402-.567-.93-.853-1.583-.853-.657 0-1.185.275-1.578.82-.387.543-.584 1.29-.584 2.22 0 .92.197 1.652.59 2.196.395.54.93.81 1.6.81.647 0 1.17-.27 1.567-.81.39-.543.596-1.277.596-2.196m.39 8.158c0-.97-.24-1.76-.723-2.362-.487-.62-1.103-.925-1.855-.925-.76 0-1.37.307-1.85.914-.475.6-.705 1.4-.705 2.372 0 1.02.23 1.8.697 2.372.466.576 1.09.855 1.887.855.748 0 1.36-.28 1.84-.856.475-.58.716-1.36.716-2.374m2.13-8.207c0 .94-.227 1.745-.68 2.44-.448.712-1.07 1.223-1.842 1.565.885.36 1.58.933 2.11 1.683.52.747.78 1.623.78 2.605 0 1.623-.465 2.864-1.4 3.717-.93.852-2.15 1.293-3.65 1.293-1.53 0-2.756-.443-3.693-1.296-.937-.852-1.407-2.093-1.407-3.716 0-.992.26-1.865.784-2.625.514-.75 1.225-1.31 2.112-1.68-.776-.337-1.38-.855-1.83-1.555-.45-.697-.676-1.507-.676-2.433 0-1.535.438-2.737 1.298-3.586.854-.846 1.984-1.268 3.385-1.268 1.397 0 2.53.42 3.4 1.267.877.85 1.314 2.05 1.314 3.586m35.737 13.067h-2.494v-15.21l-3.527.233v-1.587l6.02-1.115v17.677zm10.44-7.438c.64 0 1.185-.187 1.635-.54.45-.36.79-.816 1.023-1.38v-2.05c0-1.52-.233-2.685-.69-3.465-.467-.794-1.114-1.186-1.936-1.186-.7 0-1.283.426-1.747 1.272-.462.85-.692 1.903-.692 3.137 0 1.246.215 2.26.63 3.035.43.79 1.02 1.17 1.78 1.17m-.405 5.81c.906 0 1.65-.413 2.216-1.246.56-.84.848-2.034.848-3.597v-.87c-.348.586-.775 1.027-1.272 1.33-.507.294-1.05.44-1.644.44-1.438 0-2.57-.544-3.408-1.626-.837-1.09-1.257-2.56-1.257-4.42 0-1.796.467-3.302 1.415-4.497.94-1.208 2.11-1.8 3.506-1.8 1.553 0 2.802.58 3.75 1.744.944 1.16 1.414 2.845 1.414 5.03v4.61c0 2.148-.52 3.817-1.56 4.996-1.032 1.187-2.376 1.777-4.01 1.777-.515 0-1.053-.064-1.612-.187-.562-.12-1.086-.304-1.553-.533l.33-1.805c.437.245.874.405 1.327.508.45.097.948.15 1.506.15M315 559.646h-10.1v-1.633l4.942-6.382c.8-1.1 1.357-2.02 1.676-2.745.318-.73.477-1.43.477-2.115 0-.933-.2-1.69-.6-2.274-.402-.59-.95-.89-1.648-.89-.886 0-1.55.33-1.986.976-.446.654-.662 1.544-.662 2.665h-2.41l-.026-.06c-.03-1.527.41-2.818 1.317-3.877.92-1.035 2.17-1.566 3.767-1.566 1.465 0 2.626.458 3.48 1.364.852.907 1.275 2.115 1.275 3.61 0 1-.265 2-.783 2.988-.527.985-1.29 2.073-2.28 3.29l-3.4 4.786H315v1.87zm9.68-11.18c0-1.6-.217-2.81-.647-3.63-.432-.818-1.055-1.233-1.864-1.233-.804 0-1.427.415-1.85 1.23-.423.828-.633 2.036-.633 3.632v4.69c0 1.59.21 2.812.65 3.642.43.826 1.05 1.234 1.86 1.234.79 0 1.41-.41 1.84-1.23.423-.827.64-2.04.64-3.648v-4.687zm2.498 4.353c0 2.284-.447 4.036-1.344 5.254-.894 1.22-2.105 1.82-3.635 1.82-1.54 0-2.768-.606-3.668-1.83-.903-1.215-1.356-2.97-1.356-5.247v-3.992c0-2.266.453-4.015 1.354-5.243.894-1.23 2.11-1.845 3.64-1.845 1.54 0 2.757.614 3.654 1.845.905 1.228 1.36 2.977 1.36 5.244v3.993zm33.192 6.825h-10.11v-1.633l4.937-6.382c.802-1.1 1.36-2.02 1.68-2.746.317-.73.483-1.43.483-2.115 0-.934-.207-1.69-.606-2.275-.4-.59-.954-.89-1.655-.89-.88 0-1.54.33-1.98.976-.45.655-.666 1.545-.666 2.666h-2.414l-.023-.06c-.035-1.527.405-2.818 1.32-3.877.916-1.036 2.172-1.567 3.756-1.567 1.468 0 2.636.458 3.482 1.364.852.907 1.285 2.115 1.285 3.61 0 1-.266 2-.79 2.988-.522.985-1.28 2.073-2.28 3.29l-3.4 4.786h6.965v1.87zm8.772.02h-2.5v-15.21l-3.528.225v-1.59l6.028-1.107v17.685zm38.704-.02H397.74v-1.633l4.943-6.382c.8-1.1 1.357-2.02 1.675-2.746.318-.73.48-1.43.48-2.115 0-.934-.202-1.69-.598-2.275-.403-.59-.955-.89-1.655-.89-.88 0-1.54.33-1.98.976-.447.655-.67 1.545-.67 2.666h-2.41l-.023-.06c-.035-1.527.405-2.818 1.322-3.877.916-1.036 2.17-1.567 3.756-1.567 1.464 0 2.63.458 3.482 1.364.85.907 1.28 2.115 1.28 3.61 0 1-.266 2-.787 2.988-.527.985-1.282 2.073-2.28 3.29l-3.402 4.786h6.965v1.87zm12.332 0h-10.1v-1.633l4.95-6.382c.798-1.1 1.353-2.02 1.67-2.746.32-.73.478-1.43.478-2.115 0-.934-.196-1.69-.6-2.275-.4-.59-.953-.89-1.65-.89-.887 0-1.544.33-1.984.976-.44.655-.663 1.545-.663 2.666h-2.41l-.026-.06c-.03-1.527.406-2.818 1.323-3.877.917-1.036 2.172-1.567 3.76-1.567 1.47 0 2.63.458 3.482 1.364.846.907 1.276 2.115 1.276 3.61 0 1-.26 2-.79 2.988-.525.985-1.276 2.073-2.28 3.29l-3.396 4.786h6.958v1.87zm30.92 0h-10.1v-1.633l4.952-6.382c.792-1.1 1.357-2.02 1.675-2.746.31-.73.474-1.43.474-2.115 0-.934-.204-1.69-.597-2.275-.41-.59-.954-.89-1.652-.89-.89 0-1.55.33-1.99.976-.44.655-.654 1.545-.654 2.666h-2.41l-.03-.06c-.03-1.527.41-2.818 1.323-3.877.917-1.036 2.17-1.567 3.764-1.567 1.458 0 2.626.458 3.475 1.364.855.907 1.28 2.115 1.28 3.61 0 1-.26 2-.787 2.988-.525.985-1.287 2.073-2.278 3.29l-3.402 4.786h6.96v1.87zm5.194-9.92h1.72c.835 0 1.44-.27 1.823-.814.386-.56.576-1.3.576-2.235 0-.955-.2-1.702-.6-2.25-.4-.55-.98-.825-1.75-.825-.7 0-1.28.28-1.724.825-.447.547-.67 1.278-.67 2.17h-2.393l-.033-.073c-.03-1.363.4-2.51 1.32-3.42.902-.91 2.053-1.367 3.454-1.367 1.486 0 2.67.44 3.56 1.303.894.878 1.34 2.093 1.34 3.686 0 .775-.212 1.535-.632 2.24-.42.73-1.018 1.27-1.793 1.635.9.333 1.574.86 2.014 1.6.434.737.657 1.597.657 2.573 0 1.596-.482 2.847-1.443 3.76-.96.902-2.19 1.357-3.69 1.357-1.4 0-2.587-.432-3.56-1.3-.97-.867-1.43-2.08-1.397-3.632l.037-.08h2.396c0 .94.234 1.69.708 2.277.475.577 1.088.87 1.85.87.81 0 1.44-.277 1.9-.838.455-.565.69-1.358.69-2.397 0-1.096-.22-1.905-.65-2.426-.446-.52-1.1-.78-1.986-.78h-1.72v-1.868zm39.122 9.92h-10.1v-1.633l4.945-6.382c.793-1.1 1.355-2.02 1.673-2.746.315-.73.474-1.43.474-2.115 0-.934-.197-1.69-.593-2.275-.41-.59-.954-.89-1.655-.89-.883 0-1.547.33-1.983.976-.447.655-.657 1.545-.657 2.666h-2.42l-.02-.06c-.03-1.527.41-2.818 1.32-3.877.918-1.036 2.17-1.567 3.76-1.567 1.466 0 2.63.458 3.487 1.364.85.907 1.273 2.115 1.273 3.61 0 1-.263 2-.784 2.988-.528.985-1.283 2.073-2.285 3.29l-3.395 4.786h6.962v1.87zm4.156-6.025h4.143v-8.07l-.077-.006-.247.51-3.82 7.57zm6.638 0h1.93v1.866h-1.93v4.158h-2.495v-4.155h-6.54l-.076-1.37 6.54-12.125h2.572v11.63zm34.573 6.026h-10.1v-1.633l4.946-6.382c.8-1.1 1.357-2.02 1.68-2.745.31-.73.47-1.43.47-2.115 0-.933-.197-1.69-.603-2.274-.392-.59-.947-.89-1.65-.89-.874 0-1.54.33-1.984.976-.44.654-.66 1.544-.66 2.665h-2.41l-.028-.06c-.03-1.527.413-2.818 1.323-3.877.917-1.035 2.17-1.566 3.76-1.566 1.47 0 2.63.458 3.483 1.364.85.907 1.273 2.115 1.273 3.61 0 1-.26 2-.78 2.988-.526.985-1.29 2.073-2.283 3.29l-3.4 4.786h6.962v1.87zm2.718-7.937l.864-9.72h8.077v2.026h-5.99l-.467 5.23c.306-.302.66-.55 1.064-.757.403-.19.867-.307 1.384-.317 1.416-.018 2.533.497 3.34 1.546.81 1.045 1.214 2.47 1.214 4.287 0 1.748-.422 3.172-1.272 4.257-.842 1.086-2.07 1.63-3.702 1.63-1.35 0-2.487-.42-3.414-1.257-.917-.844-1.363-2.046-1.34-3.63l.03-.062 2.36-.045c0 1.004.223 1.77.656 2.31.428.543.997.815 1.707.815.817 0 1.43-.345 1.836-1.055.423-.71.626-1.69.626-2.948 0-1.172-.212-2.12-.645-2.84-.422-.718-1.04-1.073-1.844-1.073-.7 0-1.227.15-1.583.445-.355.306-.592.76-.734 1.362l-2.163-.217zm48.45 7.935H581.85v-1.633l4.947-6.382c.795-1.1 1.357-2.02 1.675-2.746.31-.73.475-1.43.475-2.115 0-.934-.2-1.69-.605-2.275-.396-.59-.955-.89-1.652-.89-.88 0-1.54.33-1.983.976-.443.655-.66 1.545-.66 2.666h-2.413l-.02-.06c-.037-1.527.406-2.818 1.32-3.877.914-1.036 2.173-1.567 3.757-1.567 1.47 0 2.63.458 3.487 1.364.854.907 1.277 2.115 1.277 3.61 0 1-.26 2-.782 2.988-.523.985-1.29 2.073-2.283 3.29l-3.4 4.786h6.96v1.87zm7.497-9.92c-.636 0-1.184.155-1.638.454-.46.3-.808.706-1.05 1.217v1.62c0 1.596.26 2.82.78 3.69.518.892 1.184 1.324 2.003 1.324.74 0 1.326-.41 1.763-1.233.442-.817.652-1.82.652-3.014 0-1.19-.22-2.164-.67-2.918-.45-.766-1.064-1.145-1.846-1.145m.675-7.987c.546 0 1.067.07 1.575.2.5.14.96.33 1.375.56l-.485 1.812c-.38-.222-.75-.38-1.13-.49-.38-.12-.817-.173-1.32-.173-1.01 0-1.82.478-2.44 1.427-.628.942-.936 2.22-.936 3.8v.5c.41-.46.895-.82 1.46-1.07.56-.257 1.175-.386 1.84-.386 1.36 0 2.43.55 3.22 1.65.79 1.098 1.188 2.505 1.188 4.227 0 1.78-.457 3.24-1.364 4.384-.91 1.148-2.098 1.716-3.56 1.716-1.547 0-2.81-.62-3.798-1.856-.988-1.242-1.486-2.955-1.486-5.168v-3.827c0-2.186.56-3.958 1.67-5.306 1.12-1.33 2.507-2.008 4.192-2.008m-285.12 52.046h-10.1v-1.64l4.942-6.378c.8-1.098 1.357-2.017 1.676-2.744.318-.726.477-1.426.477-2.11 0-.94-.2-1.692-.6-2.283-.4-.584-.95-.88-1.645-.88-.886 0-1.55.32-1.986.976-.448.654-.664 1.543-.664 2.655h-2.41l-.026-.057c-.03-1.522.41-2.816 1.315-3.864.92-1.05 2.17-1.57 3.768-1.57 1.465 0 2.626.447 3.48 1.362.852.906 1.275 2.104 1.275 3.6 0 1.013-.264 2.01-.782 2.99-.526.984-1.29 2.08-2.28 3.293l-3.4 4.79h6.96v1.864zm12.316-15.754c-1.727 2.243-2.908 4.4-3.544 6.45-.636 2.055-1.09 4.597-1.357 7.617l-.153 1.686h-2.5l.15-1.685c.27-2.84.816-5.403 1.625-7.686.81-2.29 1.924-4.42 3.345-6.41H316.8v-1.87h10.514v1.9zm33.054 15.753H350.26v-1.64l4.937-6.377c.802-1.098 1.36-2.017 1.68-2.744.317-.727.483-1.427.483-2.11 0-.94-.207-1.693-.606-2.284-.4-.584-.954-.88-1.655-.88-.88 0-1.54.32-1.98.976-.45.654-.666 1.543-.666 2.655h-2.414l-.023-.057c-.035-1.523.405-2.817 1.32-3.865.916-1.05 2.172-1.57 3.756-1.57 1.468 0 2.636.447 3.482 1.362.852.906 1.285 2.104 1.285 3.6 0 1.013-.266 2.01-.79 2.99-.522.984-1.28 2.08-2.28 3.293l-3.4 4.79h6.965v1.863zm9.335-12.995c0-.892-.193-1.622-.6-2.187-.4-.57-.926-.85-1.583-.85-.654 0-1.182.27-1.574.83-.385.54-.59 1.272-.59 2.21 0 .91.205 1.643.6 2.19.397.545.928.814 1.595.814.652 0 1.174-.27 1.573-.815.394-.55.586-1.28.586-2.196m.4 8.16c0-.973-.237-1.76-.728-2.37-.492-.61-1.104-.913-1.86-.913-.754 0-1.37.303-1.847.907-.47.61-.706 1.404-.706 2.38 0 1.012.23 1.795.698 2.376.465.566 1.09.855 1.886.855.75 0 1.364-.29 1.845-.87.478-.574.715-1.36.715-2.363m2.13-8.213c0 .937-.225 1.75-.688 2.45-.45.697-1.06 1.208-1.845 1.553.886.362 1.59.926 2.115 1.682.52.757.78 1.623.78 2.612 0 1.615-.463 2.856-1.398 3.71-.938.862-2.157 1.294-3.656 1.294-1.523 0-2.755-.43-3.692-1.294-.93-.855-1.402-2.096-1.402-3.71 0-.99.26-1.874.78-2.63.52-.754 1.22-1.314 2.114-1.68-.772-.335-1.388-.856-1.834-1.556-.44-.693-.664-1.51-.664-2.436 0-1.538.43-2.736 1.285-3.586.857-.854 1.984-1.268 3.385-1.268 1.396 0 2.537.414 3.407 1.267.874.85 1.31 2.048 1.31 3.584m35.61 13.056h-10.1v-1.64l4.94-6.378c.8-1.098 1.358-2.017 1.676-2.744.32-.728.48-1.428.48-2.11 0-.94-.2-1.694-.597-2.285-.403-.585-.955-.88-1.655-.88-.88 0-1.54.32-1.98.975-.447.654-.67 1.543-.67 2.655h-2.41l-.023-.056c-.035-1.524.405-2.818 1.322-3.866.916-1.05 2.17-1.57 3.756-1.57 1.464 0 2.63.447 3.482 1.362.85.907 1.28 2.105 1.28 3.602 0 1.01-.266 2.006-.787 2.99-.527.98-1.282 2.08-2.28 3.29l-3.402 4.79h6.966v1.864zm6.87-7.418c.644 0 1.19-.18 1.635-.54.457-.36.8-.82 1.026-1.39v-2.046c0-1.513-.226-2.672-.693-3.465-.456-.787-1.1-1.18-1.925-1.18-.697 0-1.283.423-1.75 1.27-.464.85-.7 1.9-.7 3.138 0 1.247.213 2.26.643 3.036.42.79 1.013 1.176 1.77 1.176m-.412 5.813c.92 0 1.658-.42 2.223-1.26.567-.83.848-2.02.848-3.593v-.86c-.342.58-.772 1.024-1.276 1.32-.496.308-1.047.44-1.643.44-1.436 0-2.566-.533-3.406-1.625-.836-1.088-1.26-2.56-1.26-4.417 0-1.803.48-3.306 1.423-4.508.947-1.197 2.108-1.79 3.503-1.79 1.552 0 2.81.574 3.75 1.738.95 1.163 1.417 2.845 1.417 5.03v4.612c0 2.145-.515 3.81-1.554 4.996-1.04 1.184-2.38 1.778-4.026 1.778-.505 0-1.04-.07-1.6-.19-.563-.12-1.084-.303-1.56-.535l.334-1.8c.44.242.886.405 1.33.504.45.102.95.16 1.5.16m29.65-8.31h1.72c.827 0 1.437-.274 1.822-.82.386-.55.572-1.292.572-2.222 0-.956-.2-1.702-.6-2.25-.4-.554-.98-.826-1.744-.826-.704 0-1.28.282-1.726.83-.452.544-.672 1.264-.672 2.16h-2.386l-.036-.07c-.037-1.36.4-2.51 1.31-3.41.907-.924 2.06-1.372 3.462-1.372 1.486 0 2.667.436 3.56 1.295.89.87 1.338 2.102 1.338 3.682 0 .784-.214 1.54-.63 2.25-.423.716-1.022 1.26-1.797 1.635.904.327 1.577.862 2.017 1.605.437.74.657 1.596.657 2.56 0 1.605-.483 2.846-1.44 3.76-.962.91-2.194 1.363-3.69 1.363-1.408 0-2.59-.428-3.558-1.3-.97-.874-1.436-2.08-1.4-3.638l.032-.063h2.4c0 .92.23 1.674.705 2.255.47.59 1.087.887 1.855.887.81 0 1.435-.283 1.895-.85.457-.555.684-1.348.684-2.393 0-1.1-.215-1.903-.65-2.42-.445-.528-1.1-.78-1.98-.78h-1.72v-1.87zm16.826-1.263c0-1.6-.217-2.817-.65-3.637-.43-.81-1.053-1.22-1.862-1.22-.804 0-1.42.41-1.85 1.227-.42.833-.633 2.037-.633 3.63v4.68c0 1.61.22 2.83.65 3.653.433.823 1.053 1.24 1.865 1.24.796 0 1.41-.417 1.84-1.233.427-.82.644-2.044.644-3.66v-4.68zm2.498 4.354c0 2.29-.45 4.04-1.34 5.258-.897 1.214-2.11 1.825-3.64 1.825-1.545 0-2.767-.61-3.664-1.83-.907-1.223-1.36-2.972-1.36-5.25v-3.988c0-2.27.45-4.027 1.35-5.255.894-1.22 2.116-1.832 3.645-1.832 1.538 0 2.756.61 3.657 1.833.9 1.23 1.353 2.984 1.353 5.254v3.99z" fill="#70706e"/><path d="M343.706 314.71c.92.146 2.647.395 6.91.395 1.587 0 2.34-.198 2.34-1.185 0-.96-.363-1.207-2.007-1.207h-1.76c-3.595 0-6.27-.566-6.27-5.79 0-5.03 4.347-5.695 8.805-5.695 2.925 0 6.35.37 8.08.592v5.225c-1.868-.123-3.9-.37-6.465-.37-2.31 0-2.953.32-2.953 1.232 0 .666.39 1.06 2.09 1.06 6.02 0 7.94.667 7.94 5.03 0 5.05-3.426 5.716-8.357 5.716-2.757 0-5.6-.2-8.36-.495v-4.51zm22.254-13.038h16.245v5.126h-8.583v1.874h8.583v4.115h-8.583v1.874h8.583v4.61H365.96v-17.593zm30.086 8.578h2.23c1.838 0 2.702-.57 2.702-2.022 0-1.38-.753-1.947-2.257-1.947h-2.67v3.97zm-7.66-8.58h12.87c4.57 0 7.19 1.037 7.19 6.213 0 4.09-2.23 6.483-7.385 6.483h-5.01v4.903h-7.66v-17.6zm30.334 5.818h-5.24v-5.815h18.138v5.815h-5.238v11.78h-7.66v-11.78zm18.16-5.816h16.244v5.126h-8.583v1.874h8.59v4.115h-8.584v1.874h8.584v4.61h-16.25v-17.593zm22.422 0h9.555l3.038 9.045h.055l3.234-9.045h9.333v17.596h-6.827l.28-10.596h-.056l-4.012 10.596h-3.984l-4.012-10.596h-.056l.277 10.596h-6.825v-17.596zm38.664 13.48h3.455c1.73 0 2.48-.296 2.48-1.405 0-.91-.5-1.428-2.06-1.428h-3.87v2.83zm0-6.26h3.818c1.17 0 1.922-.615 1.922-1.38 0-1.01-.698-1.404-1.977-1.404h-3.77v2.785zm-7.27-7.22h14.6c3.175 0 5.487.715 5.487 4.435 0 2.91-1.952 3.944-5.322 4.29v.05c3.57.047 5.52.985 5.52 4.238 0 3.722-2.59 4.585-7.55 4.585H490.7v-17.598zm26.014 0h16.245v5.126h-8.583v1.874h8.583v4.115h-8.583v1.874h8.583v4.61H516.71v-17.593zm30.086 8.258h2.395c1.51 0 2.71-.248 2.71-1.975 0-1.134-.613-1.675-2.313-1.675H546.8v3.65zm-7.66-8.258h13.26c3.9 0 7.16.74 7.16 5.075 0 3.33-1.784 4.982-5.628 5.055l6.38 7.466h-8.86l-4.57-6.16h-.082v6.16h-7.66v-17.596zm-7.576 414.196V525.796l45.9-45.484h128.05v235.556H531.56z" fill="#fff"/><path d="M577.462 525.796H531.56l45.902-45.483v45.483z" fill="#15b0bf"/><path d="M531.56 525.796h45.9l-45.9 45.478v-45.478z" fill="#d1ecfb"/><g clip-path="url(#a)" opacity=".1" transform="matrix(2 0 0 -2 -699.36 1507.02)"><path d="M637.023 517.006l-22.9-22.903v-73.908h43.392v96.81h-20.492z"/></g><path d="M435.103 663.63V473.557l-.69-46.094 174.64.61V663.63z" fill="#fff"/><path d="M477.373 612.947v-29.69c-14.666.962-26.3 13.03-26.3 27.82 0 15.428 12.626 27.927 28.188 27.927 14.93 0 27.12-11.52 28.08-26.057H477.38z" fill="#2c5871"/><path d="M505.98 605.934c0-11.53-9.424-20.873-21.056-20.873v20.88h21.056z" fill="#f99b1c"/><path d="M491.104 526.745c-.563 1.722-1.467 3.27-2.682 4.565l9.15 12.656c4.624-3.946 7.945-9.34 9.204-15.5l-15.672-1.72z" fill="#a6dae9"/><path d="M481.767 510.692c5.33 1.1 9.37 5.557 9.9 11.018l15.65 1.712c0-.175.022-.344.022-.525 0-14.532-11.24-26.457-25.578-27.742v15.537z" fill="#f99b1c"/><path d="M469.947 514.542c1.743-1.913 4.05-3.303 6.71-3.85v-15.538c-8.354.744-15.618 5.107-20.264 11.482l13.554 7.906z" fill="#15b0bf"/><path d="M484.283 534.274c-1.556.69-3.267 1.083-5.075 1.083-6.944 0-12.572-5.583-12.572-12.46 0-1.408.287-2.73.718-3.987l-13.554-7.912c-1.72 3.616-2.726 7.634-2.726 11.9 0 15.394 12.594 27.867 28.134 27.867 5.187 0 10.03-1.406 14.202-3.845l-9.127-12.646z" fill="#2c5871"/><path d="M520.583 502.055h67.808v-6.9H520.59v6.9z" fill="#15b0bf"/><path d="M520.583 523.71h67.808v-6.894H520.59v6.895zm0 21.662h67.808v-6.89H520.59v6.89z" fill="#a6dae9"/><path d="M520.583 590.152h47.18v-6.895h-47.18v6.895z" fill="#15b0bf"/><path d="M520.583 611.826h67.808v-6.9H520.59v6.9zm0 21.654h67.808v-6.893H520.59v6.894z" fill="#a6dae9"/><path d="M662.76 666.244l-.007-147.275c-2.255.53-4.03 3.24-4.312 6.64v140.623l4.32.006z" fill="#f9a818"/><path d="M648.168 666.236l10.273.002V525.614c0-.027-.01-.04-.01-.073 0 .038 0 .067-.004.1-.31-3.81-2.477-6.76-5.114-6.77-2.64.01-4.807 2.96-5.12 6.77 0-.034 0-.063-.002-.095 0 .033-.012.047-.012.074h-.004v140.62z" fill="#f5e6b6"/><path d="M648.168 525.615c-.282-3.403-2.052-6.116-4.317-6.646l.008 147.27 4.315-.008v-140.62z" fill="#f9a818"/><path d="M643.845 518.97c2.26.522 4.042 3.24 4.323 6.646h.004c0-.03.012-.044.012-.074.004.03.004.06.004.096.31-3.81 2.477-6.76 5.117-6.772 2.638.012 4.805 2.96 5.115 6.772.006-.036.006-.066.006-.096.004.03.008.044.014.074.283-3.406 2.06-6.12 4.33-6.645l-9.467-17.93-9.458 17.93z" fill="#f0b16c"/><path d="M657.952 509.837l-4.65-8.802-4.645 8.802c1.496.536 3.047.834 4.646.83 1.602 0 3.157-.294 4.65-.83" fill="#103754"/><path d="M662.76 666.348h-4.32v8.486l4.313-.004.006-8.482z" fill="#c62229"/><path d="M658.44 666.348h-10.27l-.002 8.482 10.275.004v-8.486z" fill="#f85a68"/><path d="M648.168 666.348h-4.317v8.486l4.32-.004v-8.482z" fill="#c62229"/></svg>