<?xml version="1.0" encoding="UTF-8" standalone="no"?>
<!-- Created with Inkscape (http://www.inkscape.org/) -->

<svg
   xmlns:dc="http://purl.org/dc/elements/1.1/"
   xmlns:cc="http://creativecommons.org/ns#"
   xmlns:rdf="http://www.w3.org/1999/02/22-rdf-syntax-ns#"
   xmlns:svg="http://www.w3.org/2000/svg"
   xmlns="http://www.w3.org/2000/svg"
   xmlns:sodipodi="http://sodipodi.sourceforge.net/DTD/sodipodi-0.dtd"
   xmlns:inkscape="http://www.inkscape.org/namespaces/inkscape"
   width="435"
   height="435"
   id="svg7874"
   version="1.1"
   inkscape:version="0.48.4 r9939"
   sodipodi:docname="divisionalDailyManagment.svg">
  <defs
     id="defs7876">
    <clipPath
       clipPathUnits="userSpaceOnUse"
       id="clipPath406">
      <path
         inkscape:connector-curvature="0"
         d="m 108.626,582.448 162.242,0 0,-132.802 -162.242,0 0,132.802 z"
         id="path408" />
    </clipPath>
    <clipPath
       clipPathUnits="userSpaceOnUse"
       id="clipPath410">
      <path
         inkscape:connector-curvature="0"
         d="m 124.219,571.705 146.649,0 0,-122.059 -146.649,0 0,122.059 z"
         id="path412" />
    </clipPath>
    <clipPath
       clipPathUnits="userSpaceOnUse"
       id="clipPath414">
      <path
         inkscape:connector-curvature="0"
         d="m 122.801,572.681 146.65,0 0,-122.058 -146.65,0 0,122.058 z"
         id="path416" />
    </clipPath>
    <clipPath
       clipPathUnits="userSpaceOnUse"
       id="clipPath418">
      <path
         inkscape:connector-curvature="0"
         d="m 121.384,573.658 146.649,0 0,-122.058 -146.649,0 0,122.058 z"
         id="path420" />
    </clipPath>
    <clipPath
       clipPathUnits="userSpaceOnUse"
       id="clipPath422">
      <path
         inkscape:connector-curvature="0"
         d="m 119.966,574.635 146.65,0 0,-122.058 -146.65,0 0,122.058 z"
         id="path424" />
    </clipPath>
    <clipPath
       clipPathUnits="userSpaceOnUse"
       id="clipPath426">
      <path
         inkscape:connector-curvature="0"
         d="m 118.549,575.611 146.649,0 0,-122.058 -146.649,0 0,122.058 z"
         id="path428" />
    </clipPath>
    <clipPath
       clipPathUnits="userSpaceOnUse"
       id="clipPath430">
      <path
         inkscape:connector-curvature="0"
         d="m 117.131,576.588 146.65,0 0,-122.058 -146.65,0 0,122.058 z"
         id="path432" />
    </clipPath>
    <clipPath
       clipPathUnits="userSpaceOnUse"
       id="clipPath434">
      <path
         inkscape:connector-curvature="0"
         d="m 115.713,577.564 146.65,0 0,-122.058 -146.65,0 0,122.058 z"
         id="path436" />
    </clipPath>
    <clipPath
       clipPathUnits="userSpaceOnUse"
       id="clipPath438">
      <path
         inkscape:connector-curvature="0"
         d="m 114.296,578.541 146.649,0 0,-122.058 -146.649,0 0,122.058 z"
         id="path440" />
    </clipPath>
    <clipPath
       clipPathUnits="userSpaceOnUse"
       id="clipPath442">
      <path
         inkscape:connector-curvature="0"
         d="m 112.878,579.518 146.65,0 0,-122.059 -146.65,0 0,122.059 z"
         id="path444" />
    </clipPath>
    <clipPath
       clipPathUnits="userSpaceOnUse"
       id="clipPath446">
      <path
         inkscape:connector-curvature="0"
         d="m 111.461,580.495 146.649,0 0,-122.058 -146.649,0 0,122.058 z"
         id="path448" />
    </clipPath>
    <clipPath
       clipPathUnits="userSpaceOnUse"
       id="clipPath450">
      <path
         inkscape:connector-curvature="0"
         d="m 110.043,581.471 146.65,0 0,-122.058 -146.65,0 0,122.058 z"
         id="path452" />
    </clipPath>
    <clipPath
       clipPathUnits="userSpaceOnUse"
       id="clipPath2608">
      <path
         inkscape:connector-curvature="0"
         d="m 614.122,517.006 43.394,0 0,-96.81 -43.394,0 0,96.81 z"
         id="path2610" />
    </clipPath>
    <clipPath
       clipPathUnits="userSpaceOnUse"
       id="clipPath176">
      <path
         inkscape:connector-curvature="0"
         d="m 0,2400 2400,0 L 2400,0 0,0 0,2400 z"
         id="path178" />
    </clipPath>
    <clipPath
       clipPathUnits="userSpaceOnUse"
       id="clipPath2608-9">
      <path
         inkscape:connector-curvature="0"
         d="m 614.122,517.006 43.394,0 0,-96.81 -43.394,0 0,96.81 z"
         id="path2610-2" />
    </clipPath>
  </defs>
  <sodipodi:namedview
     id="base"
     pagecolor="#ffffff"
     bordercolor="#666666"
     borderopacity="1.0"
     inkscape:pageopacity="0.0"
     inkscape:pageshadow="2"
     inkscape:zoom="0.70000001"
     inkscape:cx="-79.494104"
     inkscape:cy="235.85226"
     inkscape:document-units="px"
     inkscape:current-layer="layer1"
     showgrid="false"
     inkscape:window-width="1855"
     inkscape:window-height="1176"
     inkscape:window-x="65"
     inkscape:window-y="24"
     inkscape:window-maximized="1"
     fit-margin-top="0"
     fit-margin-left="0"
     fit-margin-right="0"
     fit-margin-bottom="0">
    <inkscape:grid
       type="xygrid"
       id="grid9787"
       empspacing="5"
       visible="true"
       enabled="true"
       snapvisiblegridlinesonly="true"
       originx="-294.49022px"
       originy="-284.1319px" />
  </sodipodi:namedview>
  <metadata
     id="metadata7879">
    <rdf:RDF>
      <cc:Work
         rdf:about="">
        <dc:format>image/svg+xml</dc:format>
        <dc:type
           rdf:resource="http://purl.org/dc/dcmitype/StillImage" />
        <dc:title />
      </cc:Work>
    </rdf:RDF>
  </metadata>
  <g
     inkscape:label="Layer 1"
     inkscape:groupmode="layer"
     id="layer1"
     transform="translate(-294.49022,-333.23029)">
    <g
       id="g4397"
       transform="translate(37.704529,7.6538313)">
      <path
         inkscape:connector-curvature="0"
         id="path1234"
         style="fill:#ffeeaa;fill-opacity:1;fill-rule:nonzero;stroke:none"
         d="m 582.00574,654.22933 -312.36473,0 0,-327.02097 312.36473,0 0,327.02097 z" />
      <path
         inkscape:connector-curvature="0"
         id="path1236"
         style="fill:#ff9955;fill-opacity:1;fill-rule:nonzero;stroke:none"
         d="m 582.00574,412.04577 -312.36473,0 0,-84.83741 312.36473,0 0,84.83741 z" />
      <path
         d="m 269.66418,465.7633 312.41495,0"
         style="fill:none;stroke:#5390c6;stroke-width:1.77654445;stroke-linecap:butt;stroke-linejoin:miter;stroke-miterlimit:10;stroke-opacity:1;stroke-dasharray:none"
         id="path1240"
         inkscape:connector-curvature="0" />
      <g
         style="fill:#d45500"
         transform="matrix(1.1760241,0,0,1.5235372,43.499072,-173.13309)"
         id="g4144">
        <path
           inkscape:connector-curvature="0"
           id="path1244"
           style="fill:#d45500;fill-opacity:1;fill-rule:nonzero;stroke:none"
           d="m 207.34041,403.51251 c 0,-0.78621 -0.17462,-1.42912 -0.51415,-1.89389 -0.35248,-0.46088 -0.96365,-0.9295 -1.83352,-1.37877 -1.78824,-0.74361 -3.13022,-1.58405 -4.0195,-2.54067 -0.90221,-0.94114 -1.34199,-2.26956 -1.34199,-3.97755 0,-1.69249 0.5174,-3.06352 1.55866,-4.12859 1.03801,-1.06506 2.36384,-1.5918 3.97745,-1.5918 1.63949,0 2.97178,0.59257 3.99363,1.7777 1.02508,1.18126 1.51983,2.67623 1.49074,4.47716 l -0.0227,0.0813 -3.26604,0 c 0,-0.94113 -0.19726,-1.70797 -0.58854,-2.28892 -0.39129,-0.58095 -0.94425,-0.88304 -1.66212,-0.88304 -0.67261,0 -1.19001,0.24787 -1.56512,0.73587 -0.37834,0.49574 -0.56589,1.0883 -0.56589,1.83192 0,0.67776 0.20695,1.23934 0.62733,1.67699 0.42361,0.43378 1.1415,0.92564 2.17952,1.46011 1.62331,0.66228 2.84889,1.50271 3.67349,2.50968 0.82459,1.0186 1.2385,2.37802 1.2385,4.11698 0,1.77769 -0.49798,3.17197 -1.4875,4.17894 -0.99598,1.01859 -2.31533,1.51821 -3.96128,1.51821 -1.6395,0 -3.05585,-0.57321 -4.25557,-1.7196 -1.20293,-1.14253 -1.78823,-2.78467 -1.74619,-4.93418 l 0.0227,-0.0775 3.27251,0 c 0,1.27034 0.22313,2.18824 0.67908,2.74208 0.44625,0.55383 1.12209,0.83268 2.02753,0.83268 0.71141,0 1.23851,-0.22463 1.57805,-0.67776 0.33954,-0.45702 0.51092,-1.06121 0.51092,-1.84742" />
        <path
           inkscape:connector-curvature="0"
           id="path1248"
           style="fill:#d45500;fill-opacity:1;fill-rule:nonzero;stroke:none"
           d="m 240.15061,388.92942 3.08172,15.13171 0.0712,0 3.11406,-15.13171 4.38168,0 0,20.6081 -3.34043,0 0,-5.98762 0.28458,-8.01319 -0.0712,-0.008 -3.28221,14.00856 -2.23449,0 -3.24987,-13.90011 -0.0647,0.0155 0.2878,7.897 0,5.98762 -3.33718,0 0,-20.6081 4.35903,0 z" />
        <path
           inkscape:connector-curvature="0"
           id="path1252"
           style="fill:#d45500;fill-opacity:1;fill-rule:nonzero;stroke:none"
           d="m 290.6131,391.51173 -3.87399,0 0,17.38966 -3.35335,0 0,-17.38966 -3.85457,0 0,-3.21844 11.08191,0 0,3.21844 z" />
        <path
           inkscape:connector-curvature="0"
           id="path1256"
           style="fill:#d45500;fill-opacity:1;fill-rule:nonzero;stroke:none"
           d="m 330.47872,401.44396 0.0712,0 1.86262,-13.15263 3.25634,0 -3.32425,20.61198 -3.12699,0 -2.41881,-12.63365 -0.0744,0 -2.39616,12.63365 -3.12054,0 -3.31454,-20.61198 3.25958,0 1.85614,13.15263 0.0679,0 2.48025,-13.15263 2.41234,0 2.50935,13.15263 z" />
        <path
           inkscape:connector-curvature="0"
           id="path1260"
           style="fill:#d45500;fill-opacity:1;fill-rule:nonzero;stroke:none"
           d="m 369.24192,392.14826 -3.87722,0 0,17.38965 -3.35011,0 0,-17.38965 -3.84811,0 0,-3.21844 11.07544,0 0,3.21844 z" />
        <path
           inkscape:connector-curvature="0"
           id="path1264"
           style="fill:#d45500;fill-opacity:1;fill-rule:nonzero;stroke:none"
           d="m 405.90902,400.97204 -5.8336,0 0,8.56702 -3.36629,0 0,-20.6081 10.22821,0 0,3.21844 -6.86192,0 0,5.61195 5.8336,0 0,3.21069 z" />
        <path
           inkscape:connector-curvature="0"
           id="path1268"
           style="fill:#d45500;fill-opacity:1;fill-rule:nonzero;stroke:none"
           d="m 447.48643,404.14905 c 0,-0.78621 -0.17462,-1.42913 -0.51739,-1.89389 -0.35571,-0.46088 -0.96365,-0.92951 -1.83675,-1.37877 -1.79147,-0.74362 -3.12699,-1.58405 -4.01949,-2.54068 -0.89251,-0.94113 -1.342,-2.26956 -1.342,-3.97755 0,-1.69248 0.5174,-3.06351 1.55866,-4.12859 1.03801,-1.06506 2.36707,-1.59179 3.98068,-1.59179 1.63626,0 2.96854,0.59257 3.99363,1.77769 1.02185,1.18127 1.5166,2.67624 1.48427,4.47716 l -0.0227,0.0814 -3.25957,0 c 0,-0.94113 -0.19402,-1.70798 -0.58854,-2.28892 -0.39774,-0.58095 -0.95394,-0.88304 -1.66535,-0.88304 -0.67262,0 -1.19325,0.24787 -1.56188,0.73586 -0.37835,0.49575 -0.5659,1.08831 -0.5659,1.83192 0,0.67777 0.21019,1.23935 0.62733,1.677 0.41068,0.43377 1.14474,0.92564 2.17629,1.46011 1.62978,0.66228 2.85535,1.50271 3.67672,2.50968 0.81813,1.0186 1.23204,2.37802 1.23204,4.11698 0,1.77769 -0.49475,3.17197 -1.48427,4.17894 -0.98952,1.01859 -2.3121,1.51821 -3.95481,1.51821 -1.6395,0 -3.06556,-0.57321 -4.26527,-1.71961 -1.1997,-1.14252 -1.77854,-2.78466 -1.73649,-4.93417 l 0.0193,-0.0775 3.27251,0 c 0,1.27034 0.2199,2.18824 0.67585,2.74207 0.44625,0.55384 1.12209,0.83269 2.034,0.83269 0.70494,0 1.22881,-0.22463 1.57158,-0.67777 0.34601,-0.45701 0.51739,-1.0612 0.51739,-1.84741" />
      </g>
      <g
         transform="matrix(1.1414089,0,0,1.2264965,53.498681,-81.231188)"
         id="g4091">
        <path
           inkscape:connector-curvature="0"
           id="path1272"
           style="fill:#70706e;fill-opacity:1;fill-rule:nonzero;stroke:none"
           d="m 284.78908,474.18022 -2.18837,0 0,-12.40584 -3.08683,0.1894 0,-1.29063 5.2752,-0.90913 0,14.4162 z" />
        <path
           inkscape:connector-curvature="0"
           id="path1276"
           style="fill:#70706e;fill-opacity:1;fill-rule:nonzero;stroke:none"
           d="m 325.80606,474.15879 -8.85132,0 0,-1.33393 4.33818,-5.19773 c 0.69387,-0.90101 1.18908,-1.6451 1.46781,-2.24035 0.27281,-0.59256 0.41514,-1.16889 0.41514,-1.72897 0,-0.7522 -0.17792,-1.37994 -0.52189,-1.85074 -0.35879,-0.48162 -0.8362,-0.72242 -1.44704,-0.72242 -0.77987,0 -1.35809,0.26245 -1.74358,0.79007 -0.38549,0.53574 -0.57526,1.25816 -0.57526,2.17542 l -2.11128,0 -0.0266,-0.0541 c -0.0267,-1.24463 0.35879,-2.29176 1.15941,-3.14948 0.80359,-0.85501 1.90073,-1.28794 3.29738,-1.28794 1.27802,0 2.30105,0.36798 3.04532,1.12018 0.75021,0.73326 1.12088,1.71545 1.12088,2.93303 0,0.82795 -0.22833,1.63698 -0.68794,2.44058 -0.45962,0.8009 -1.12681,1.6938 -1.99563,2.67869 l -2.98009,3.90708 6.09658,0 0,1.52064 z" />
        <path
           inkscape:connector-curvature="0"
           id="path1280"
           style="fill:#70706e;fill-opacity:1;fill-rule:nonzero;stroke:none"
           d="m 358.36775,466.0736 1.50635,0 c 0.72946,0 1.26617,-0.22457 1.60125,-0.66831 0.33211,-0.45187 0.50112,-1.04984 0.50112,-1.81014 0,-0.77926 -0.17494,-1.39888 -0.52782,-1.83992 -0.3499,-0.45185 -0.85696,-0.67102 -1.53303,-0.67102 -0.61084,0 -1.11494,0.22728 -1.50932,0.67102 -0.39141,0.45187 -0.59009,1.03901 -0.59009,1.76686 l -2.08755,0 -0.0327,-0.0514 c -0.0296,-1.12018 0.34694,-2.04825 1.14756,-2.79233 0.78876,-0.74408 1.80288,-1.12018 3.0305,-1.12018 1.30176,0 2.34257,0.35716 3.12243,1.06607 0.77689,0.71161 1.17128,1.70732 1.17128,3.00338 0,0.63584 -0.18978,1.25004 -0.55747,1.83179 -0.36472,0.58443 -0.89254,1.03088 -1.56863,1.33121 0.79173,0.27058 1.38181,0.70891 1.76434,1.30688 0.38549,0.6115 0.57526,1.30146 0.57526,2.09154 0,1.30688 -0.42404,2.32694 -1.26321,3.07102 -0.84213,0.74408 -1.92148,1.10936 -3.22917,1.10936 -1.23058,0 -2.26842,-0.35175 -3.11649,-1.06877 -0.854,-0.7035 -1.26024,-1.6938 -1.23058,-2.95738 l 0.0355,-0.0568 2.09939,0 c 0,0.7549 0.20757,1.37181 0.61974,1.84802 0.40921,0.47622 0.95186,0.70891 1.61905,0.70891 0.70869,0 1.26617,-0.22728 1.66351,-0.68456 0.40327,-0.45727 0.60195,-1.10394 0.60195,-1.94813 0,-0.89561 -0.18681,-1.5531 -0.57526,-1.9806 -0.38253,-0.4221 -0.96075,-0.63585 -1.73172,-0.63585 l -1.50636,0 0,-1.52063 z" />
        <path
           inkscape:connector-curvature="0"
           id="path1284"
           style="fill:#70706e;fill-opacity:1;fill-rule:nonzero;stroke:none"
           d="m 397.20559,469.2469 3.62948,0 0,-6.57225 -0.0652,-0.0136 -0.21349,0.41669 -3.35075,6.16909 z m 5.81488,0 1.69614,0 0,1.52064 -1.69614,0 0,3.39029 -2.1854,0 0,-3.39029 -5.73185,0 -0.0593,-1.11748 5.72592,-9.88138 2.25064,0 0,9.47822 z" />
        <path
           inkscape:connector-curvature="0"
           id="path1288"
           style="fill:#70706e;fill-opacity:1;fill-rule:nonzero;stroke:none"
           d="m 440.78383,467.69598 0.75613,-7.92782 7.07217,0 0,1.6505 -5.23963,0 -0.41513,4.27237 c 0.26686,-0.25706 0.58119,-0.45728 0.93109,-0.62233 0.34991,-0.15693 0.7591,-0.24622 1.21576,-0.26245 1.23948,-0.0108 2.21505,0.40856 2.92079,1.26629 0.71165,0.8496 1.06453,2.01847 1.06453,3.4877 0,1.43404 -0.37066,2.5894 -1.11199,3.47688 -0.74131,0.89018 -1.82066,1.33393 -3.24399,1.33393 -1.1861,0 -2.17947,-0.34634 -2.98899,-1.03359 -0.80952,-0.68456 -1.20093,-1.66404 -1.17127,-2.95738 l 0.0237,-0.046 2.06679,-0.0379 c 0,0.81713 0.18978,1.44487 0.56636,1.89131 0.38253,0.43833 0.88068,0.65479 1.50339,0.65479 0.7176,0 1.24839,-0.28139 1.6131,-0.86043 0.36473,-0.58173 0.54562,-1.37722 0.54562,-2.40269 0,-0.95243 -0.19274,-1.72627 -0.5634,-2.31342 -0.37956,-0.58444 -0.91627,-0.87396 -1.61607,-0.87396 -0.62568,0 -1.08826,0.12447 -1.39368,0.36529 -0.30542,0.24622 -0.51891,0.61419 -0.64643,1.10664 l -1.88887,-0.16775 z" />
        <path
           inkscape:connector-curvature="0"
           id="path1292"
           style="fill:#70706e;fill-opacity:1;fill-rule:nonzero;stroke:none"
           d="m 202.32055,493.91029 c -0.5545,0 -1.0319,0.12175 -1.43222,0.36798 -0.40327,0.24081 -0.71167,0.57362 -0.91924,0.99572 l 0,1.31499 c 0,1.29334 0.23129,2.29447 0.68498,3.0142 0.45666,0.71972 1.04377,1.07958 1.75544,1.07958 0.64939,0 1.16535,-0.33821 1.5449,-1.00382 0.38549,-0.66562 0.58119,-1.48546 0.58119,-2.45682 0,-0.97407 -0.20163,-1.76685 -0.59304,-2.38376 -0.39736,-0.61962 -0.93407,-0.92807 -1.62201,-0.92807 m 0.59898,-6.51543 c 0.47741,0 0.93407,0.0568 1.37293,0.16505 0.43886,0.11093 0.83916,0.26787 1.20389,0.45727 l -0.42403,1.46921 c -0.32321,-0.17316 -0.65829,-0.30574 -0.98447,-0.40044 -0.33507,-0.092 -0.71759,-0.1434 -1.15941,-0.1434 -0.88069,0 -1.59532,0.38962 -2.14093,1.16346 -0.54561,0.78197 -0.81842,1.81555 -0.81842,3.10891 l 0,0.40585 c 0.36177,-0.37338 0.78581,-0.66561 1.281,-0.87666 0.49223,-0.20834 1.02895,-0.30845 1.61311,-0.30845 1.18906,0 2.12906,0.44916 2.82293,1.34475 0.68201,0.89561 1.03488,2.04555 1.03488,3.44712 0,1.45569 -0.39735,2.6381 -1.19203,3.57158 -0.79766,0.93619 -1.83847,1.39888 -3.11947,1.39888 -1.35512,0 -2.4582,-0.50057 -3.32703,-1.50982 -0.86585,-1.00923 -1.29581,-2.41622 -1.29581,-4.21013 l 0,-3.11972 c 0,-1.78308 0.4863,-3.22525 1.4589,-4.32648 0.97557,-1.09042 2.20024,-1.63698 3.67396,-1.63698" />
        <path
           inkscape:connector-curvature="0"
           id="path1296"
           style="fill:#70706e;fill-opacity:1;fill-rule:nonzero;stroke:none"
           d="m 246.29141,489.14082 c -1.50339,1.8372 -2.54123,3.58782 -3.10167,5.25997 -0.56043,1.68296 -0.95778,3.75286 -1.1861,6.21779 l -0.14233,1.37722 -2.18837,0 0.13046,-1.37722 c 0.2402,-2.31612 0.71167,-4.40495 1.42333,-6.27191 0.71167,-1.86155 1.68724,-3.59863 2.92968,-5.2275 l -7.06918,0 0,-1.52062 9.20418,0 0,1.54227 z" />
        <path
           inkscape:connector-curvature="0"
           id="path1300"
           style="fill:#70706e;fill-opacity:1;fill-rule:nonzero;stroke:none"
           d="m 285.28585,492.43486 c 0,-0.65515 -0.17495,-1.18809 -0.52782,-1.611 -0.35583,-0.41559 -0.81842,-0.62338 -1.38774,-0.62338 -0.57526,0 -1.03784,0.20046 -1.38181,0.6087 -0.34398,0.40093 -0.51596,0.94853 -0.51596,1.62568 0,0.67716 0.17791,1.21742 0.52188,1.61834 0.34694,0.40093 0.81248,0.59895 1.39368,0.59895 0.57527,0 1.03487,-0.19802 1.37884,-0.59895 0.34991,-0.40092 0.51893,-0.94118 0.51893,-1.61834 m 0.34694,6.01134 c 0,-0.71139 -0.21054,-1.28832 -0.63754,-1.73812 -0.42403,-0.45471 -0.9637,-0.67717 -1.62496,-0.67717 -0.66126,0 -1.2039,0.22246 -1.61903,0.66493 -0.41514,0.44982 -0.62271,1.03408 -0.62271,1.75036 0,0.74805 0.20163,1.32988 0.6138,1.75035 0.40625,0.41804 0.95483,0.63315 1.64573,0.63315 0.66125,0 1.19797,-0.21511 1.61607,-0.63804 0.42403,-0.42536 0.62864,-1.00474 0.62864,-1.74546 m 1.86515,-6.04556 c 0,0.68938 -0.19868,1.2932 -0.59602,1.80414 -0.39438,0.51581 -0.93703,0.89962 -1.61607,1.14408 0.77096,0.27135 1.38774,0.68205 1.85032,1.24187 0.45666,0.55493 0.68498,1.19542 0.68498,1.91902 0,1.19544 -0.40624,2.10484 -1.23059,2.73554 -0.81544,0.63805 -1.88294,0.95096 -3.20248,0.95096 -1.3314,0 -2.4078,-0.31291 -3.22917,-0.95096 -0.82138,-0.6307 -1.23059,-1.5401 -1.23059,-2.73554 0,-0.72604 0.22832,-1.37143 0.68498,-1.93125 0.45071,-0.55492 1.06749,-0.96807 1.84736,-1.23453 -0.67608,-0.2518 -1.21279,-0.63316 -1.59828,-1.15142 -0.38845,-0.51093 -0.58713,-1.10742 -0.58713,-1.79191 0,-1.13675 0.37956,-2.01926 1.12977,-2.63775 0.74725,-0.63071 1.74062,-0.94119 2.96527,-0.94119 1.21872,0 2.21209,0.31048 2.97416,0.94119 0.77097,0.61849 1.15349,1.501 1.15349,2.63775" />
        <path
           inkscape:connector-curvature="0"
           id="path1304"
           style="fill:#70706e;fill-opacity:1;fill-rule:nonzero;stroke:none"
           d="m 321.01655,495.94502 c 0.56636,0 1.04377,-0.1434 1.43815,-0.43833 0.39142,-0.29764 0.69387,-0.66832 0.89551,-1.13371 l 0,-1.67214 c 0,-1.23654 -0.20164,-2.17543 -0.60491,-2.81669 -0.41217,-0.64667 -0.97261,-0.96595 -1.69317,-0.96595 -0.61381,0 -1.12383,0.34634 -1.53304,1.0363 -0.40624,0.69268 -0.61381,1.54769 -0.61381,2.55693 0,1.02277 0.18681,1.84261 0.56044,2.47575 0.37362,0.64398 0.88957,0.95784 1.55083,0.95784 m -0.3499,4.73775 c 0.79469,0 1.44408,-0.33821 1.94225,-1.01465 0.49223,-0.68996 0.74131,-1.65862 0.74131,-2.93302 l 0,-0.71432 c -0.30245,0.47621 -0.67904,0.83877 -1.12087,1.085 -0.4359,0.24352 -0.91626,0.35987 -1.43519,0.35987 -1.25727,0 -2.25359,-0.44105 -2.98602,-1.33123 -0.73242,-0.88477 -1.10011,-2.08072 -1.10011,-3.60135 0,-1.46921 0.41217,-2.69492 1.24245,-3.67169 0.82434,-0.97677 1.84735,-1.46651 3.06608,-1.46651 1.36698,0 2.46414,0.47621 3.29441,1.42052 0.82137,0.95241 1.23947,2.32152 1.23947,4.1019 l 0,3.75828 c 0,1.75332 -0.4596,3.1089 -1.36698,4.07484 -0.90737,0.96596 -2.08458,1.44758 -3.5168,1.44758 -0.45369,0 -0.91923,-0.0514 -1.41146,-0.15152 -0.49224,-0.1001 -0.9489,-0.24893 -1.36107,-0.44103 l 0.28467,-1.46382 c 0.38549,0.19752 0.77097,0.3301 1.17128,0.41398 0.39142,0.0838 0.8273,0.12717 1.31658,0.12717" />
        <path
           inkscape:connector-curvature="0"
           id="path1308"
           style="fill:#70706e;fill-opacity:1;fill-rule:nonzero;stroke:none"
           d="m 361.50975,502.01454 -2.1854,0 0,-12.41124 -3.08981,0.19211 0,-1.29335 5.27521,-0.90912 0,14.4216 z" />
        <path
           inkscape:connector-curvature="0"
           id="path1312"
           style="fill:#70706e;fill-opacity:1;fill-rule:nonzero;stroke:none"
           d="m 373.11269,492.87995 c 0,-1.30417 -0.18681,-2.29988 -0.56933,-2.9682 -0.37659,-0.65749 -0.9222,-0.99301 -1.62793,-0.99301 -0.71166,0 -1.25431,0.33552 -1.61903,1.00113 -0.3766,0.67643 -0.56044,1.66133 -0.56044,2.96008 l 0,3.8205 c 0,1.30418 0.18978,2.29989 0.56637,2.97091 0.37955,0.67374 0.92219,1.01195 1.6309,1.01195 0.70276,0 1.2365,-0.33821 1.61606,-1.01195 0.37659,-0.6602 0.5634,-1.65862 0.5634,-2.97091 l 0,-3.8205 z m 2.1854,3.54994 c 0,1.86425 -0.39141,3.29018 -1.17128,4.28319 -0.78876,0.9903 -1.84736,1.48274 -3.19358,1.48274 -1.35217,0 -2.41966,-0.49244 -3.20843,-1.49086 -0.79172,-0.9903 -1.1861,-2.41352 -1.1861,-4.27507 l 0,-3.25501 c 0,-1.85344 0.39438,-3.27125 1.17721,-4.27508 0.78579,-1.00383 1.85626,-1.50439 3.19952,-1.50439 1.3403,0 2.40483,0.50056 3.19655,1.50439 0.79173,1.00383 1.18611,2.42164 1.18611,4.27508 l 0,3.25501 z" />
        <path
           inkscape:connector-curvature="0"
           id="path1316"
           style="fill:#70706e;fill-opacity:1;fill-rule:nonzero;stroke:none"
           d="m 401.25686,502.01454 -2.18539,0 0,-12.41124 -3.08981,0.19211 0,-1.29335 5.2752,-0.90912 0,14.4216 z" />
        <path
           inkscape:connector-curvature="0"
           id="path1320"
           style="fill:#70706e;fill-opacity:1;fill-rule:nonzero;stroke:none"
           d="m 412.06537,502.01454 -2.18837,0 0,-12.41124 -3.08683,0.19211 0,-1.29335 5.2752,-0.90912 0,14.4216 z" />
        <path
           inkscape:connector-curvature="0"
           id="path1324"
           style="fill:#70706e;fill-opacity:1;fill-rule:nonzero;stroke:none"
           d="m 446.08619,502.01454 -2.18539,0 0,-12.41124 -3.08981,0.19211 0,-1.29335 5.2752,-0.90912 0,14.4216 z" />
        <path
           inkscape:connector-curvature="0"
           id="path1328"
           style="fill:#70706e;fill-opacity:1;fill-rule:nonzero;stroke:none"
           d="m 460.02058,501.9957 -8.85132,0 0,-1.33935 4.33522,-5.20044 c 0.69091,-0.90101 1.1861,-1.64238 1.46781,-2.24036 0.26983,-0.59255 0.41216,-1.16346 0.41216,-1.72084 0,-0.76302 -0.17198,-1.37723 -0.52484,-1.85614 -0.3499,-0.47892 -0.83324,-0.71973 -1.44409,-0.71973 -0.77393,0 -1.35513,0.26786 -1.74358,0.79549 -0.38251,0.53032 -0.57823,1.25817 -0.57823,2.1673 l -2.11126,0 -0.0207,-0.0514 c -0.0296,-1.24465 0.36177,-2.29447 1.15647,-3.15489 0.80357,-0.85231 1.90073,-1.27982 3.29736,-1.27982 1.28396,0 2.30105,0.37339 3.05423,1.10935 0.74428,0.74408 1.11494,1.71815 1.11494,2.94115 0,0.82525 -0.2313,1.63697 -0.68497,2.43787 -0.45962,0.79819 -1.12681,1.69109 -2.00156,2.6841 l -2.98306,3.90438 6.10548,0 0,1.52334 z" />
        <path
           inkscape:connector-curvature="0"
           id="path1332"
           style="fill:#70706e;fill-opacity:1;fill-rule:nonzero;stroke:none"
           d="m 203.44856,529.84063 -2.18837,0 0,-12.40043 -3.08388,0.1894 0,-1.29334 5.27225,-0.90913 0,14.4135 z" />
        <path
           inkscape:connector-curvature="0"
           id="path1336"
           style="fill:#70706e;fill-opacity:1;fill-rule:nonzero;stroke:none"
           d="m 211.11791,521.73659 1.50635,0 c 0.7265,0 1.26024,-0.22457 1.59531,-0.66831 0.33508,-0.44646 0.50706,-1.04443 0.50706,-1.80744 0,-0.77926 -0.17494,-1.39887 -0.52485,-1.84262 -0.35287,-0.44374 -0.86289,-0.66832 -1.53897,-0.66832 -0.61381,0 -1.11198,0.22458 -1.50636,0.66832 -0.39734,0.45186 -0.59008,1.04441 -0.59008,1.77226 l -2.09644,0 -0.0267,-0.0568 c -0.0266,-1.11477 0.35287,-2.04555 1.14756,-2.78692 0.7947,-0.74949 1.80288,-1.11476 3.03347,-1.11476 1.29582,0 2.33663,0.34633 3.11946,1.06064 0.77986,0.71161 1.16831,1.70733 1.16831,3.00338 0,0.64126 -0.18385,1.24734 -0.55153,1.82909 -0.3677,0.58714 -0.88959,1.03088 -1.56863,1.33663 0.79172,0.26516 1.3818,0.70349 1.76136,1.30687 0.38252,0.60609 0.57527,1.29877 0.57527,2.08613 0,1.31229 -0.42107,2.32694 -1.26321,3.06831 -0.84213,0.74409 -1.91852,1.11207 -3.23214,1.11207 -1.22465,0 -2.26249,-0.35716 -3.11649,-1.06066 -0.84807,-0.7089 -1.25431,-1.69379 -1.22465,-2.96549 l 0.0355,-0.0568 2.0994,0 c 0,0.75762 0.20461,1.37181 0.61973,1.84802 0.40625,0.47351 0.9489,0.71161 1.61607,0.71161 0.7087,0 1.26617,-0.22728 1.66649,-0.68726 0.40327,-0.45726 0.60195,-1.10394 0.60195,-1.94813 0,-0.8956 -0.19274,-1.54768 -0.57526,-1.97249 -0.38253,-0.42479 -0.95779,-0.63855 -1.73172,-0.63855 l -1.50635,0 0,-1.52875 z" />
        <path
           inkscape:connector-curvature="0"
           id="path1340"
           style="fill:#70706e;fill-opacity:1;fill-rule:nonzero;stroke:none"
           d="m 243.19448,529.84063 -2.18837,0 0,-12.40043 -3.08684,0.1894 0,-1.29334 5.27521,-0.90913 0,14.4135 z" />
        <path
           inkscape:connector-curvature="0"
           id="path1344"
           style="fill:#70706e;fill-opacity:1;fill-rule:nonzero;stroke:none"
           d="m 249.94864,524.91011 3.63245,0 0,-6.56685 -0.0623,-0.009 -0.2224,0.41398 -3.34778,6.16098 z m 5.81785,0 1.69021,0 0,1.52604 -1.69021,0 0,3.38758 -2.1854,0 0,-3.38758 -5.73482,0 -0.0623,-1.12289 5.73482,-9.87867 2.24767,0 0,9.47552 z" />
        <path
           inkscape:connector-curvature="0"
           id="path1348"
           style="fill:#70706e;fill-opacity:1;fill-rule:nonzero;stroke:none"
           d="m 284.78908,529.84063 -2.18837,0 0,-12.40043 -3.08683,0.1894 0,-1.29334 5.2752,-0.90913 0,14.4135 z" />
        <path
           inkscape:connector-curvature="0"
           id="path1352"
           style="fill:#70706e;fill-opacity:1;fill-rule:nonzero;stroke:none"
           d="m 290.2912,523.36177 0.75613,-7.92783 7.07513,0 0,1.6505 -5.24259,0 -0.41513,4.27237 c 0.26686,-0.25433 0.58119,-0.45457 0.93701,-0.62232 0.34991,-0.15694 0.75318,-0.24081 1.20984,-0.25975 1.24244,-0.0108 2.21801,0.40315 2.92672,1.26088 0.7087,0.85772 1.0586,2.02118 1.0586,3.4904 0,1.43946 -0.3677,2.59211 -1.10901,3.47689 -0.73835,0.88748 -1.82068,1.33393 -3.24697,1.33393 -1.18314,0 -2.17354,-0.34363 -2.98305,-1.03089 -0.81249,-0.68455 -1.20391,-1.66945 -1.17721,-2.95197 l 0.0237,-0.0568 2.07272,-0.0379 c 0,0.81714 0.18681,1.45299 0.56637,1.89132 0.37955,0.43833 0.88068,0.6602 1.49745,0.6602 0.7176,0 1.25728,-0.28681 1.61608,-0.86314 0.36472,-0.57632 0.5456,-1.37181 0.5456,-2.39728 0,-0.96054 -0.19274,-1.73438 -0.56636,-2.31883 -0.37363,-0.58444 -0.9133,-0.87666 -1.6131,-0.87666 -0.61975,0 -1.08825,0.12447 -1.39665,0.3734 -0.30542,0.24892 -0.51595,0.6169 -0.64346,1.10123 l -1.89184,-0.16775 z" />
        <path
           inkscape:connector-curvature="0"
           id="path1356"
           style="fill:#70706e;fill-opacity:1;fill-rule:nonzero;stroke:none"
           d="m 322.68896,529.84063 -2.18539,0 0,-12.40043 -3.08981,0.1894 0,-1.29334 5.2752,-0.90913 0,14.4135 z" />
        <path
           inkscape:connector-curvature="0"
           id="path1360"
           style="fill:#70706e;fill-opacity:1;fill-rule:nonzero;stroke:none"
           d="m 332.37375,521.73659 c -0.5545,0 -1.03784,0.12717 -1.43222,0.36798 -0.40921,0.24893 -0.71167,0.58174 -0.91924,0.99842 l 0,1.32581 c 0,1.28794 0.22833,2.29177 0.68202,3.01149 0.45368,0.71162 1.03784,1.07148 1.7584,1.07148 0.64643,0 1.16238,-0.3301 1.54787,-1.00112 0.38252,-0.66833 0.56933,-1.48004 0.56933,-2.45141 0,-0.97406 -0.19571,-1.77496 -0.58416,-2.38646 -0.39735,-0.61961 -0.93702,-0.93619 -1.622,-0.93619 m 0.59306,-6.5046 c 0.47741,0 0.93701,0.0487 1.37885,0.16233 0.43588,0.11636 0.8362,0.26787 1.20093,0.45728 l -0.42701,1.47463 c -0.32025,-0.184 -0.64939,-0.30845 -0.97853,-0.40587 -0.33804,-0.0947 -0.72353,-0.14069 -1.16239,-0.14069 -0.88364,0 -1.59235,0.38962 -2.14091,1.16618 -0.54561,0.77384 -0.81546,1.80472 -0.81546,3.10619 l 0,0.40586 c 0.35881,-0.37881 0.78876,-0.67103 1.281,-0.87396 0.48631,-0.21105 1.02598,-0.31928 1.61311,-0.31928 1.18906,0 2.12609,0.45187 2.81403,1.34476 0.69388,0.90101 1.03785,2.05095 1.03785,3.45523 0,1.44757 -0.39438,2.64081 -1.18908,3.57429 -0.79766,0.93348 -1.83549,1.39617 -3.11649,1.39617 -1.35513,0 -2.46117,-0.50327 -3.32999,-1.50981 -0.8629,-1.01195 -1.29879,-2.41622 -1.29879,-4.21555 l 0,-3.12513 c 0,-1.77767 0.48926,-3.21714 1.45892,-4.31567 0.97556,-1.09312 2.20022,-1.63696 3.67396,-1.63696" />
        <path
           inkscape:connector-curvature="0"
           id="path1364"
           style="fill:#70706e;fill-opacity:1;fill-rule:nonzero;stroke:none"
           d="m 361.50975,529.84063 -2.1854,0 0,-12.40043 -3.08981,0.1894 0,-1.29334 5.27521,-0.90913 0,14.4135 z" />
        <path
           inkscape:connector-curvature="0"
           id="path1368"
           style="fill:#70706e;fill-opacity:1;fill-rule:nonzero;stroke:none"
           d="m 375.41945,516.97535 c -1.51228,1.8372 -2.54419,3.58511 -3.10463,5.26538 -0.55746,1.67485 -0.95482,3.74745 -1.18313,6.21239 l -0.14531,1.37181 -2.18243,0 0.12454,-1.37181 c 0.24018,-2.31613 0.71463,-4.40496 1.42629,-6.27192 0.71167,-1.86696 1.68724,-3.60405 2.93561,-5.22479 l -7.07809,0 0,-1.52062 9.20715,0 0,1.53956 z" />
        <path
           inkscape:connector-curvature="0"
           id="path1372"
           style="fill:#70706e;fill-opacity:1;fill-rule:nonzero;stroke:none"
           d="m 401.25686,529.84063 -2.18539,0 0,-12.40043 -3.08981,0.1894 0,-1.29334 5.2752,-0.90913 0,14.4135 z" />
        <path
           inkscape:connector-curvature="0"
           id="path1376"
           style="fill:#70706e;fill-opacity:1;fill-rule:nonzero;stroke:none"
           d="m 412.56471,519.22913 c 0,-0.73326 -0.18088,-1.3204 -0.53078,-1.78309 -0.35287,-0.46268 -0.81545,-0.69537 -1.38774,-0.69537 -0.57527,0 -1.03785,0.22457 -1.38182,0.66831 -0.34101,0.44374 -0.51299,1.05253 -0.51299,1.81015 0,0.74948 0.17198,1.34745 0.51596,1.79119 0.34693,0.43833 0.81545,0.6602 1.40257,0.6602 0.56637,0 1.02598,-0.22187 1.37292,-0.6602 0.341,-0.44374 0.52188,-1.04171 0.52188,-1.79119 m 0.34397,6.65072 c 0,-0.79279 -0.21053,-1.43406 -0.63752,-1.9265 -0.42701,-0.50327 -0.96668,-0.75219 -1.62497,-0.75219 -0.66719,0 -1.20094,0.24892 -1.622,0.74407 -0.41514,0.48975 -0.61678,1.14183 -0.61678,1.93462 0,0.83066 0.20164,1.46921 0.61085,1.9346 0.40624,0.4708 0.95481,0.69808 1.65165,0.69808 0.65533,0 1.19204,-0.22728 1.6131,-0.69808 0.41514,-0.47351 0.62567,-1.10935 0.62567,-1.9346 m 1.86515,-6.69131 c 0,0.76572 -0.19867,1.42322 -0.59602,1.98872 -0.39141,0.58173 -0.93701,0.99843 -1.6131,1.27711 0.77394,0.29222 1.38478,0.76032 1.84736,1.37182 0.45665,0.60879 0.68498,1.3231 0.68498,2.124 0,1.32311 -0.40921,2.33506 -1.22762,3.03044 -0.81544,0.69537 -1.88295,1.05524 -3.19952,1.05524 -1.3403,0 -2.41372,-0.35987 -3.2351,-1.05524 -0.82139,-0.69538 -1.23356,-1.70733 -1.23356,-3.03044 0,-0.80901 0.22833,-1.52062 0.68794,-2.14024 0.45073,-0.6115 1.07343,-1.06877 1.85034,-1.36911 -0.67905,-0.27598 -1.20984,-0.69808 -1.60422,-1.26899 -0.39141,-0.56821 -0.59009,-1.22841 -0.59009,-1.98331 0,-1.25276 0.38253,-2.23224 1.13571,-2.92491 0.74724,-0.68996 1.73764,-1.03359 2.96526,-1.03359 1.22168,0 2.21505,0.34363 2.97712,1.03359 0.768,0.69267 1.15052,1.67215 1.15052,2.92491" />
        <path
           inkscape:connector-curvature="0"
           id="path1380"
           style="fill:#70706e;fill-opacity:1;fill-rule:nonzero;stroke:none"
           d="m 446.08619,529.84063 -2.18539,0 0,-12.40043 -3.08981,0.1894 0,-1.29334 5.2752,-0.90913 0,14.4135 z" />
        <path
           inkscape:connector-curvature="0"
           id="path1384"
           style="fill:#70706e;fill-opacity:1;fill-rule:nonzero;stroke:none"
           d="m 455.2325,523.77651 c 0.56043,0 1.03784,-0.15153 1.43222,-0.44103 0.39438,-0.29223 0.69091,-0.66291 0.89551,-1.12559 l 0,-1.66945 c 0,-1.23923 -0.2046,-2.18894 -0.60491,-2.82479 -0.40921,-0.64668 -0.97557,-0.96596 -1.69613,-0.96596 -0.61381,0 -1.12383,0.34904 -1.53008,1.03901 -0.40624,0.69267 -0.60787,1.55039 -0.60787,2.55693 0,1.01736 0.18681,1.84261 0.55154,2.47575 0.37658,0.64397 0.89253,0.95513 1.55972,0.95513 m -0.35583,4.73505 c 0.79469,0 1.44704,-0.33551 1.94225,-1.01465 0.48927,-0.68455 0.74131,-1.65863 0.74131,-2.93303 l 0,-0.7089 c -0.30542,0.47621 -0.67904,0.83607 -1.11493,1.085 -0.4448,0.2381 -0.91924,0.35716 -1.44113,0.35716 -1.25726,0 -2.25063,-0.44375 -2.98305,-1.32582 -0.73242,-0.89018 -1.10012,-2.08883 -1.10012,-3.60676 0,-1.4638 0.40921,-2.69221 1.23949,-3.66627 0.82434,-0.98489 1.84736,-1.46652 3.07201,-1.46652 1.36106,0 2.45524,0.4708 3.28552,1.42052 0.8273,0.9443 1.23947,2.31882 1.23947,4.10191 l 0,3.75827 c 0,1.75062 -0.45664,3.1116 -1.36698,4.07215 -0.90441,0.96865 -2.08162,1.45027 -3.51384,1.45027 -0.45072,0 -0.9222,-0.0514 -1.41146,-0.15152 -0.49224,-0.1001 -0.95186,-0.24892 -1.36106,-0.43562 l 0.29059,-1.47193 c 0.38253,0.20023 0.76504,0.3301 1.16239,0.41398 0.39438,0.0784 0.83028,0.12176 1.31954,0.12176" />
        <path
           inkscape:connector-curvature="0"
           id="path1388"
           style="fill:#70706e;fill-opacity:1;fill-rule:nonzero;stroke:none"
           d="m 206.56871,557.66194 -8.84835,0 0,-1.33123 4.32929,-5.20315 c 0.69979,-0.8983 1.18906,-1.64779 1.4678,-2.24035 0.27873,-0.59526 0.4181,-1.16618 0.4181,-1.72626 0,-0.76032 -0.17495,-1.37723 -0.52485,-1.85344 -0.35287,-0.48162 -0.83324,-0.72514 -1.44409,-0.72514 -0.77392,0 -1.35809,0.26787 -1.73764,0.7955 -0.39141,0.53302 -0.58119,1.25816 -0.58119,2.17271 l -2.11127,0 -0.0237,-0.0514 c -0.0266,-1.24464 0.3588,-2.29718 1.15349,-3.16031 0.80358,-0.84419 1.90074,-1.27711 3.30033,-1.27711 1.28397,0 2.30105,0.37339 3.0483,1.11206 0.74725,0.73867 1.11791,1.72356 1.11791,2.94384 0,0.81444 -0.2313,1.62887 -0.68498,2.43518 -0.46258,0.8036 -1.12977,1.69109 -1.99859,2.68139 l -2.98009,3.90438 6.09955,0 0,1.52334 z" />
        <path
           inkscape:connector-curvature="0"
           id="path1392"
           style="fill:#70706e;fill-opacity:1;fill-rule:nonzero;stroke:none"
           d="m 215.0489,548.54574 c 0,-1.30418 -0.18978,-2.29177 -0.56637,-2.96009 -0.37955,-0.66561 -0.92516,-1.00383 -1.63386,-1.00383 -0.70277,0 -1.24838,0.33822 -1.61904,1.00383 -0.37065,0.67374 -0.5545,1.65862 -0.5545,2.96009 l 0,3.82322 c 0,1.29875 0.18385,2.29446 0.56933,2.9709 0.37955,0.67373 0.91923,1.00654 1.63089,1.00654 0.69387,0 1.23356,-0.33281 1.61311,-1.00384 0.37066,-0.67372 0.56044,-1.66133 0.56044,-2.9736 l 0,-3.82322 z m 2.18836,3.54994 c 0,1.86425 -0.39142,3.29288 -1.17721,4.28589 -0.78283,0.99571 -1.8444,1.48545 -3.1847,1.48545 -1.35215,0 -2.42558,-0.49515 -3.21434,-1.49357 -0.79172,-0.9903 -1.18908,-2.42164 -1.18908,-4.27777 l 0,-3.25502 c 0,-1.84802 0.39736,-3.27395 1.18612,-4.27507 0.78283,-1.00383 1.85032,-1.50439 3.19062,-1.50439 1.34622,0 2.41373,0.50056 3.19952,1.50439 0.79172,1.00112 1.18907,2.42705 1.18907,4.27507 l 0,3.25502 z" />
        <path
           inkscape:connector-curvature="0"
           id="path1396"
           style="fill:#70706e;fill-opacity:1;fill-rule:nonzero;stroke:none"
           d="m 246.31752,557.66194 -8.85132,0 0,-1.33123 4.32633,-5.20315 c 0.70276,-0.8983 1.19203,-1.64779 1.47076,-2.24035 0.27875,-0.59526 0.42404,-1.16618 0.42404,-1.72626 0,-0.76032 -0.18088,-1.37723 -0.53078,-1.85344 -0.3499,-0.48162 -0.8362,-0.72514 -1.45002,-0.72514 -0.768,0 -1.34326,0.26787 -1.73171,0.7955 -0.39142,0.53302 -0.58119,1.25816 -0.58119,2.17271 l -2.11424,0 -0.0207,-0.0514 c -0.0296,-1.24464 0.35583,-2.29718 1.15646,-3.16031 0.80358,-0.84419 1.90369,-1.27711 3.29143,-1.27711 1.28693,0 2.30995,0.37339 3.05127,1.11206 0.74724,0.73867 1.1268,1.72356 1.1268,2.94384 0,0.81444 -0.23427,1.62887 -0.69091,2.43518 -0.45961,0.8036 -1.12384,1.69109 -1.99859,2.68139 l -2.98009,3.90438 6.10251,0 0,1.52334 z" />
        <path
           inkscape:connector-curvature="0"
           id="path1400"
           style="fill:#70706e;fill-opacity:1;fill-rule:nonzero;stroke:none"
           d="m 254.00275,557.67753 -2.19133,0 0,-12.40313 -3.08981,0.18399 0,-1.29604 5.28114,-0.90372 0,14.4189 z" />
        <path
           inkscape:connector-curvature="0"
           id="path1404"
           style="fill:#70706e;fill-opacity:1;fill-rule:nonzero;stroke:none"
           d="m 287.9121,557.66194 -8.85132,0 0,-1.33123 4.32929,-5.20315 c 0.6998,-0.8983 1.18907,-1.64779 1.4678,-2.24035 0.27875,-0.59526 0.42108,-1.16618 0.42108,-1.72626 0,-0.76032 -0.17792,-1.37723 -0.52486,-1.85344 -0.35286,-0.48162 -0.8362,-0.72514 -1.45001,-0.72514 -0.77097,0 -1.34623,0.26787 -1.73468,0.7955 -0.38845,0.53302 -0.58416,1.25816 -0.58416,2.17271 l -2.11127,0 -0.0207,-0.0514 c -0.0296,-1.24464 0.35583,-2.29718 1.15942,-3.16031 0.80359,-0.84419 1.90073,-1.27711 3.29145,-1.27711 1.28395,0 2.304,0.37339 3.05125,1.11206 0.74724,0.73867 1.12088,1.72356 1.12088,2.94384 0,0.81444 -0.23131,1.62887 -0.68795,2.43518 -0.46258,0.8036 -1.12384,1.69109 -1.99859,2.68139 l -2.98009,3.90438 6.10251,0 0,1.52334 z" />
        <path
           inkscape:connector-curvature="0"
           id="path1408"
           style="fill:#70706e;fill-opacity:1;fill-rule:nonzero;stroke:none"
           d="m 298.71634,557.66194 -8.84835,0 0,-1.33123 4.33521,-5.20315 c 0.69981,-0.8983 1.18612,-1.64779 1.46485,-2.24035 0.27873,-0.59526 0.4181,-1.16618 0.4181,-1.72626 0,-0.76032 -0.17199,-1.37723 -0.52485,-1.85344 -0.35287,-0.48162 -0.83621,-0.72514 -1.44706,-0.72514 -0.77689,0 -1.35215,0.26787 -1.73764,0.7955 -0.38548,0.53302 -0.58119,1.25816 -0.58119,2.17271 l -2.11127,0 -0.0237,-0.0514 c -0.0267,-1.24464 0.35583,-2.29718 1.15941,-3.16031 0.80359,-0.84419 1.90371,-1.27711 3.29441,-1.27711 1.28693,0 2.30402,0.37339 3.05126,1.11206 0.74131,0.73867 1.11791,1.72356 1.11791,2.94384 0,0.81444 -0.22833,1.62887 -0.69091,2.43518 -0.45961,0.8036 -1.11791,1.69109 -1.99563,2.68139 l -2.97712,3.90438 6.09658,0 0,1.52334 z" />
        <path
           inkscape:connector-curvature="0"
           id="path1412"
           style="fill:#70706e;fill-opacity:1;fill-rule:nonzero;stroke:none"
           d="m 325.80606,557.66194 -8.85132,0 0,-1.33123 4.33818,-5.20315 c 0.69387,-0.8983 1.18908,-1.64779 1.46781,-2.24035 0.27281,-0.59526 0.41514,-1.16618 0.41514,-1.72626 0,-0.76032 -0.17792,-1.37723 -0.52189,-1.85344 -0.35879,-0.48162 -0.8362,-0.72514 -1.44704,-0.72514 -0.77987,0 -1.35809,0.26787 -1.74358,0.7955 -0.38549,0.53302 -0.57526,1.25816 -0.57526,2.17271 l -2.11128,0 -0.0266,-0.0514 c -0.0267,-1.24464 0.35879,-2.29718 1.15941,-3.16031 0.80359,-0.84419 1.90073,-1.27711 3.29738,-1.27711 1.27802,0 2.30105,0.37339 3.04532,1.11206 0.75021,0.73867 1.12088,1.72356 1.12088,2.94384 0,0.81444 -0.22833,1.62887 -0.68794,2.43518 -0.45962,0.8036 -1.12681,1.69109 -1.99563,2.68139 l -2.98009,3.90438 6.09658,0 0,1.52334 z" />
        <path
           inkscape:connector-curvature="0"
           id="path1416"
           style="fill:#70706e;fill-opacity:1;fill-rule:nonzero;stroke:none"
           d="m 330.35548,549.5735 1.50635,0 c 0.73242,0 1.26321,-0.21916 1.59828,-0.6629 0.33804,-0.45457 0.50409,-1.05795 0.50409,-1.82097 0,-0.77925 -0.17495,-1.38804 -0.52485,-1.8345 -0.35287,-0.44915 -0.85993,-0.67372 -1.53304,-0.67372 -0.61381,0 -1.12087,0.22998 -1.51229,0.67372 -0.39141,0.44646 -0.58712,1.04171 -0.58712,1.76956 l -2.09644,0 -0.0296,-0.0595 c -0.0266,-1.11206 0.3499,-2.04554 1.15349,-2.78962 0.79173,-0.74137 1.79991,-1.11477 3.02753,-1.11477 1.30176,0 2.3396,0.35986 3.11947,1.06336 0.78283,0.71702 1.17424,1.70732 1.17424,3.00608 0,0.63314 -0.18682,1.25276 -0.5545,1.82637 -0.36769,0.59527 -0.89255,1.0363 -1.5716,1.33394 0.79173,0.27328 1.38181,0.70349 1.7673,1.30687 0.37955,0.60068 0.57526,1.30146 0.57526,2.09695 0,1.30147 -0.42403,2.32153 -1.26617,3.06561 -0.84213,0.73596 -1.91556,1.10665 -3.23213,1.10665 -1.22762,0 -2.26546,-0.35175 -3.11649,-1.06065 -0.84807,-0.7062 -1.25432,-1.6938 -1.22466,-2.96008 l 0.0327,-0.065 2.0994,0 c 0,0.76572 0.20461,1.37722 0.61974,1.85613 0.41514,0.47081 0.95185,0.70891 1.622,0.70891 0.7087,0 1.26024,-0.22458 1.66351,-0.68185 0.39735,-0.45997 0.60195,-1.10665 0.60195,-1.95355 0,-0.8929 -0.19274,-1.5531 -0.5723,-1.97789 -0.38844,-0.42481 -0.9637,-0.63585 -1.73764,-0.63585 l -1.50635,0 0,-1.52334 z" />
        <path
           inkscape:connector-curvature="0"
           id="path1420"
           style="fill:#70706e;fill-opacity:1;fill-rule:nonzero;stroke:none"
           d="m 364.63111,557.66194 -8.84834,0 0,-1.33123 4.33224,-5.20315 c 0.69387,-0.8983 1.18611,-1.64779 1.46485,-2.24035 0.27577,-0.59526 0.41513,-1.16618 0.41513,-1.72626 0,-0.76032 -0.17199,-1.37723 -0.51892,-1.85344 -0.3588,-0.48162 -0.83621,-0.72514 -1.45001,-0.72514 -0.77394,0 -1.35513,0.26787 -1.73765,0.7955 -0.39142,0.53302 -0.57526,1.25816 -0.57526,2.17271 l -2.12017,0 -0.0178,-0.0514 c -0.0267,-1.24464 0.35879,-2.29718 1.15645,-3.16031 0.80359,-0.84419 1.90073,-1.27711 3.29441,-1.27711 1.28395,0 2.30401,0.37339 3.05422,1.11206 0.74429,0.73867 1.11495,1.72356 1.11495,2.94384 0,0.81444 -0.22833,1.62887 -0.68498,2.43518 -0.46258,0.8036 -1.12384,1.69109 -2.00156,2.68139 l -2.97713,3.90438 6.09955,0 0,1.52334 z" />
        <path
           inkscape:connector-curvature="0"
           id="path1424"
           style="fill:#70706e;fill-opacity:1;fill-rule:nonzero;stroke:none"
           d="m 368.27245,552.74961 3.62948,0 0,-6.58036 -0.0682,-0.005 -0.21646,0.41398 -3.34482,6.1718 z m 5.81488,0 1.6902,0 0,1.52064 -1.6902,0 0,3.39029 -2.1854,0 0,-3.39029 -5.73185,0 -0.0652,-1.11748 5.72889,-9.88408 2.2536,0 0,9.48092 z" />
        <path
           inkscape:connector-curvature="0"
           id="path1428"
           style="fill:#70706e;fill-opacity:1;fill-rule:nonzero;stroke:none"
           d="m 404.37703,557.66194 -8.84834,0 0,-1.33123 4.33224,-5.20315 c 0.69981,-0.8983 1.18908,-1.64779 1.47077,-2.24035 0.27281,-0.59526 0.41218,-1.16618 0.41218,-1.72626 0,-0.76032 -0.17198,-1.37723 -0.52782,-1.85344 -0.34397,-0.48162 -0.83028,-0.72514 -1.44408,-0.72514 -0.76801,0 -1.3492,0.26787 -1.74062,0.7955 -0.38548,0.53302 -0.57822,1.25816 -0.57822,2.17271 l -2.11126,0 -0.0237,-0.0514 c -0.0267,-1.24464 0.36177,-2.29718 1.15942,-3.16031 0.80359,-0.84419 1.90074,-1.27711 3.29441,-1.27711 1.28693,0 2.30401,0.37339 3.05125,1.11206 0.74726,0.73867 1.11792,1.72356 1.11792,2.94384 0,0.81444 -0.22833,1.62887 -0.68202,2.43518 -0.46258,0.8036 -1.12977,1.69109 -2.00155,2.68139 l -2.9801,3.90438 6.09956,0 0,1.52334 z" />
        <path
           inkscape:connector-curvature="0"
           id="path1432"
           style="fill:#70706e;fill-opacity:1;fill-rule:nonzero;stroke:none"
           d="m 406.75874,551.19088 0.75613,-7.92242 7.07513,0 0,1.65321 -5.24555,0 -0.40921,4.26426 c 0.26688,-0.24623 0.57823,-0.44916 0.93109,-0.61692 0.35287,-0.15422 0.75911,-0.24893 1.2128,-0.25704 1.23948,-0.0136 2.21801,0.40586 2.92375,1.26088 0.71167,0.8523 1.06453,2.01306 1.06453,3.49582 0,1.42593 -0.37066,2.58669 -1.11494,3.47146 -0.73835,0.88479 -1.81474,1.32853 -3.244,1.32853 -1.18017,0 -2.1765,-0.34093 -2.98899,-1.02549 -0.80358,-0.68725 -1.19499,-1.66673 -1.17425,-2.95737 l 0.0267,-0.0514 2.06679,-0.0379 c 0,0.81984 0.19571,1.44487 0.57526,1.8832 0.37363,0.44374 0.87178,0.66561 1.49449,0.66561 0.71759,0 1.25431,-0.2814 1.61014,-0.86043 0.37066,-0.57902 0.54858,-1.37723 0.54858,-2.4027 0,-0.95513 -0.18681,-1.72897 -0.56637,-2.31612 -0.37066,-0.58444 -0.91033,-0.87395 -1.61607,-0.87395 -0.61381,0 -1.07639,0.12446 -1.38774,0.36528 -0.31135,0.24892 -0.51892,0.61961 -0.64347,1.10935 l -1.8948,-0.17587 z" />
        <path
           inkscape:connector-curvature="0"
           id="path1436"
           style="fill:#70706e;fill-opacity:1;fill-rule:nonzero;stroke:none"
           d="m 449.20637,557.66194 -8.84834,0 0,-1.33123 4.33521,-5.20315 c 0.69684,-0.8983 1.18907,-1.64779 1.4678,-2.24035 0.26985,-0.59526 0.41514,-1.16618 0.41514,-1.72626 0,-0.76032 -0.17494,-1.37723 -0.52782,-1.85344 -0.34693,-0.48162 -0.8362,-0.72514 -1.44704,-0.72514 -0.77097,0 -1.3492,0.26787 -1.73765,0.7955 -0.38844,0.53302 -0.57823,1.25816 -0.57823,2.17271 l -2.11422,0 -0.0178,-0.0514 c -0.0326,-1.24464 0.35584,-2.29718 1.15645,-3.16031 0.80063,-0.84419 1.90371,-1.27711 3.29145,-1.27711 1.28693,0 2.30401,0.37339 3.05423,1.11206 0.74724,0.73867 1.1179,1.72356 1.1179,2.94384 0,0.81444 -0.22833,1.62887 -0.68498,2.43518 -0.45962,0.8036 -1.12977,1.69109 -2.00156,2.68139 l -2.98009,3.90438 6.09956,0 0,1.52334 z" />
        <path
           inkscape:connector-curvature="0"
           id="path1440"
           style="fill:#70706e;fill-opacity:1;fill-rule:nonzero;stroke:none"
           d="m 455.77384,549.5735 c -0.55747,0 -1.03784,0.12718 -1.43519,0.37069 -0.40328,0.24623 -0.70573,0.57633 -0.91627,0.99301 l 0,1.3204 c 0,1.30147 0.22833,2.29988 0.68201,3.00879 0.45369,0.72784 1.03784,1.07959 1.75545,1.07959 0.64939,0 1.16238,-0.33281 1.54489,-1.00383 0.38845,-0.66562 0.5723,-1.48275 0.5723,-2.45682 0,-0.97136 -0.19274,-1.76414 -0.58712,-2.37835 -0.39438,-0.62503 -0.9311,-0.93348 -1.61607,-0.93348 m 0.59306,-6.51272 c 0.4774,0 0.93405,0.0568 1.37884,0.16234 0.43589,0.11364 0.83917,0.27058 1.20389,0.45727 l -0.42403,1.47734 c -0.3321,-0.18129 -0.65532,-0.31117 -0.9904,-0.40045 -0.3321,-0.0974 -0.71463,-0.1407 -1.15645,-0.1407 -0.88364,0 -1.59531,0.38962 -2.13796,1.16348 -0.54856,0.77113 -0.81841,1.81014 -0.81841,3.09807 l 0,0.40857 c 0.3588,-0.3734 0.78284,-0.66833 1.27803,-0.87396 0.48928,-0.20564 1.02895,-0.31116 1.6131,-0.31116 1.18908,0 2.12906,0.44916 2.81997,1.34475 0.69091,0.8956 1.04082,2.04284 1.04082,3.44712 0,1.45298 -0.40032,2.64081 -1.19501,3.57429 -0.79766,0.93619 -1.83847,1.39887 -3.11945,1.39887 -1.35513,0 -2.46118,-0.50328 -3.32704,-1.51251 -0.86585,-1.01195 -1.30175,-2.40811 -1.30175,-4.21284 l 0,-3.11973 c 0,-1.78038 0.48927,-3.22525 1.46188,-4.32378 0.9815,-1.085 2.19725,-1.63697 3.67397,-1.63697" />
        <path
           inkscape:connector-curvature="0"
           id="path1444"
           style="fill:#70706e;fill-opacity:1;fill-rule:nonzero;stroke:none"
           d="m 206.56871,585.49344 -8.84835,0 0,-1.33664 4.32929,-5.20044 c 0.69979,-0.89559 1.18906,-1.64509 1.4678,-2.23764 0.27873,-0.59256 0.4181,-1.16348 0.4181,-1.72086 0,-0.76572 -0.17495,-1.37993 -0.52485,-1.86155 -0.35287,-0.47622 -0.83324,-0.71702 -1.44409,-0.71702 -0.77392,0 -1.35809,0.25975 -1.73764,0.79549 -0.39141,0.53303 -0.58119,1.25817 -0.58119,2.16459 l -2.11127,0 -0.0237,-0.046 c -0.0266,-1.24193 0.3588,-2.29718 1.15349,-3.15219 0.80358,-0.85772 1.90074,-1.28252 3.30033,-1.28252 1.28397,0 2.30105,0.36528 3.0483,1.11206 0.74725,0.73867 1.11791,1.71544 1.11791,2.93573 0,0.82525 -0.2313,1.63698 -0.68498,2.43788 -0.46258,0.80089 -1.12977,1.6965 -1.99859,2.68409 l -2.98009,3.90439 6.09955,0 0,1.52063 z" />
        <path
           inkscape:connector-curvature="0"
           id="path1448"
           style="fill:#70706e;fill-opacity:1;fill-rule:nonzero;stroke:none"
           d="m 217.35824,572.64895 c -1.51228,1.82909 -2.54716,3.58782 -3.10463,5.25997 -0.55746,1.67485 -0.95482,3.74745 -1.18907,6.20968 l -0.1364,1.37452 -2.19134,0 0.13048,-1.37452 c 0.23722,-2.31612 0.71463,-4.40495 1.42333,-6.2665 0.70869,-1.86696 1.68427,-3.60406 2.92968,-5.2275 l -7.07216,0 0,-1.52334 9.21011,0 0,1.54769 z" />
        <path
           inkscape:connector-curvature="0"
           id="path1452"
           style="fill:#70706e;fill-opacity:1;fill-rule:nonzero;stroke:none"
           d="m 246.31752,585.49344 -8.85132,0 0,-1.33664 4.32633,-5.20044 c 0.70276,-0.89559 1.19203,-1.64509 1.47076,-2.23764 0.27875,-0.59256 0.42404,-1.16348 0.42404,-1.72086 0,-0.76572 -0.18088,-1.37993 -0.53078,-1.86155 -0.3499,-0.47622 -0.8362,-0.71702 -1.45002,-0.71702 -0.768,0 -1.34326,0.25975 -1.73171,0.79549 -0.39142,0.53303 -0.58119,1.25817 -0.58119,2.16459 l -2.11424,0 -0.0207,-0.046 c -0.0296,-1.24193 0.35583,-2.29718 1.15646,-3.15219 0.80358,-0.85772 1.90369,-1.28252 3.29143,-1.28252 1.28693,0 2.30995,0.36528 3.05127,1.11206 0.74724,0.73867 1.1268,1.71544 1.1268,2.93573 0,0.82525 -0.23427,1.63698 -0.69091,2.43788 -0.45961,0.80089 -1.12384,1.6965 -1.99859,2.68409 l -2.98009,3.90439 6.10251,0 0,1.52063 z" />
        <path
           inkscape:connector-curvature="0"
           id="path1456"
           style="fill:#70706e;fill-opacity:1;fill-rule:nonzero;stroke:none"
           d="m 254.49642,574.89774 c 0,-0.72785 -0.17198,-1.32311 -0.52782,-1.78309 -0.3499,-0.46539 -0.81248,-0.69537 -1.38774,-0.69537 -0.57526,0 -1.03784,0.22187 -1.38181,0.67643 -0.33805,0.44374 -0.51596,1.03901 -0.51596,1.80203 0,0.74407 0.17791,1.34205 0.52485,1.78849 0.34693,0.44374 0.81249,0.6629 1.39664,0.6629 0.5723,0 1.02895,-0.21916 1.37885,-0.6629 0.34397,-0.44644 0.51299,-1.04442 0.51299,-1.78849 m 0.3499,6.65342 c 0,-0.79549 -0.20757,-1.43675 -0.63754,-1.9319 -0.42995,-0.50056 -0.96666,-0.74679 -1.62792,-0.74679 -0.66126,0 -1.20093,0.24623 -1.61903,0.73867 -0.41218,0.49786 -0.61974,1.14453 -0.61974,1.94002 0,0.82525 0.20164,1.4638 0.61083,1.93732 0.40625,0.46268 0.95483,0.69807 1.65166,0.69807 0.65828,0 1.195,-0.23539 1.61607,-0.7089 0.4181,-0.4681 0.62567,-1.10935 0.62567,-1.92649 m 1.86515,-6.69672 c 0,0.76573 -0.1957,1.42864 -0.60195,1.99954 -0.39437,0.56821 -0.92812,0.9849 -1.6131,1.2663 0.7769,0.29492 1.39367,0.7549 1.85329,1.37181 0.45665,0.61691 0.68201,1.32311 0.68201,2.12941 0,1.31771 -0.40624,2.32966 -1.22465,3.02503 -0.82138,0.7035 -1.88888,1.05524 -3.20249,1.05524 -1.33437,0 -2.41373,-0.35174 -3.2351,-1.05524 -0.81545,-0.69537 -1.22763,-1.70732 -1.22763,-3.02503 0,-0.8063 0.22833,-1.52603 0.68202,-2.14294 0.45665,-0.6142 1.07045,-1.07148 1.85328,-1.36911 -0.67607,-0.27328 -1.21575,-0.69808 -1.60716,-1.26899 -0.38549,-0.5655 -0.58119,-1.23111 -0.58119,-1.98602 0,-1.25275 0.37658,-2.22953 1.12679,-2.9222 0.75022,-0.69538 1.73765,-1.03359 2.96527,-1.03359 1.22169,0 2.22098,0.33821 2.98305,1.03359 0.76504,0.69267 1.14756,1.66945 1.14756,2.9222" />
        <path
           inkscape:connector-curvature="0"
           id="path1460"
           style="fill:#70706e;fill-opacity:1;fill-rule:nonzero;stroke:none"
           d="m 287.9121,585.49344 -8.85132,0 0,-1.33664 4.32929,-5.20044 c 0.6998,-0.89559 1.18907,-1.64509 1.4678,-2.23764 0.27875,-0.59256 0.42108,-1.16348 0.42108,-1.72086 0,-0.76572 -0.17792,-1.37993 -0.52486,-1.86155 -0.35286,-0.47622 -0.8362,-0.71702 -1.45001,-0.71702 -0.77097,0 -1.34623,0.25975 -1.73468,0.79549 -0.38845,0.53303 -0.58416,1.25817 -0.58416,2.16459 l -2.11127,0 -0.0207,-0.046 c -0.0296,-1.24193 0.35583,-2.29718 1.15942,-3.15219 0.80359,-0.85772 1.90073,-1.28252 3.29145,-1.28252 1.28395,0 2.304,0.36528 3.05125,1.11206 0.74724,0.73867 1.12088,1.71544 1.12088,2.93573 0,0.82525 -0.23131,1.63698 -0.68795,2.43788 -0.46258,0.80089 -1.12384,1.6965 -1.99859,2.68409 l -2.98009,3.90439 6.10251,0 0,1.52063 z" />
        <path
           inkscape:connector-curvature="0"
           id="path1464"
           style="fill:#70706e;fill-opacity:1;fill-rule:nonzero;stroke:none"
           d="m 293.92945,579.44491 c 0.5634,0 1.04081,-0.14611 1.43222,-0.44104 0.39735,-0.29222 0.69684,-0.66831 0.89551,-1.131 l 0,-1.66944 c 0,-1.23382 -0.19867,-2.17813 -0.60788,-2.8248 -0.40031,-0.64126 -0.96371,-0.96055 -1.68724,-0.96055 -0.61084,0 -1.12382,0.34364 -1.53303,1.03631 -0.40625,0.69267 -0.61382,1.54769 -0.61382,2.55693 0,1.01736 0.18681,1.84261 0.56341,2.47575 0.36768,0.64397 0.88661,0.95784 1.55083,0.95784 m -0.36177,4.74046 c 0.80656,0 1.45298,-0.34092 1.94819,-1.02547 0.49519,-0.67644 0.74131,-1.64781 0.74131,-2.93032 l 0,-0.7008 c -0.29949,0.47351 -0.67608,0.83337 -1.11791,1.07418 -0.43293,0.25163 -0.91627,0.35986 -1.43815,0.35986 -1.25727,0 -2.24766,-0.43561 -2.98305,-1.32581 -0.73242,-0.88748 -1.10308,-2.08612 -1.10308,-3.60134 0,-1.46922 0.42107,-2.69492 1.24541,-3.67441 0.83028,-0.97676 1.84736,-1.46109 3.06905,-1.46109 1.36106,0 2.46116,0.46809 3.28551,1.41781 0.83324,0.947 1.24245,2.31881 1.24245,4.09919 l 0,3.76099 c 0,1.75062 -0.45072,3.1089 -1.36106,4.07486 -0.91331,0.96594 -2.08458,1.45027 -3.52867,1.45027 -0.44182,0 -0.91033,-0.0568 -1.40257,-0.15693 -0.49223,-0.0974 -0.94888,-0.24622 -1.36698,-0.43563 l 0.29356,-1.46651 c 0.38549,0.19752 0.77393,0.3301 1.16535,0.41127 0.39141,0.0838 0.83323,0.12988 1.31064,0.12988" />
        <path
           inkscape:connector-curvature="0"
           id="path1468"
           style="fill:#70706e;fill-opacity:1;fill-rule:nonzero;stroke:none"
           d="m 319.54697,577.41062 1.50635,0 c 0.72649,0 1.26023,-0.22457 1.59828,-0.66831 0.33804,-0.44916 0.50113,-1.05525 0.50113,-1.81286 0,-0.78195 -0.17496,-1.39074 -0.52486,-1.8345 -0.35286,-0.45455 -0.85992,-0.67642 -1.53007,-0.67642 -0.61678,0 -1.12087,0.22998 -1.51229,0.67642 -0.39734,0.44376 -0.59008,1.0309 -0.59008,1.76145 l -2.09052,0 -0.0326,-0.0568 c -0.0326,-1.10936 0.3499,-2.04554 1.14756,-2.78151 0.79469,-0.75219 1.80584,-1.11747 3.03346,-1.11747 1.30176,0 2.33664,0.35445 3.11947,1.05525 0.77985,0.7089 1.17127,1.71543 1.17127,3.00337 0,0.64126 -0.18681,1.25817 -0.55153,1.8372 -0.37067,0.58174 -0.89551,1.02548 -1.57456,1.33122 0.79173,0.26787 1.38181,0.7035 1.7673,1.30958 0.38251,0.60339 0.57526,1.30146 0.57526,2.08613 0,1.30958 -0.42404,2.32153 -1.26321,3.06561 -0.84214,0.74408 -1.92148,1.11206 -3.23213,1.11206 -1.23356,0 -2.26843,-0.34904 -3.11649,-1.06065 -0.84807,-0.71161 -1.25728,-1.6938 -1.22762,-2.96549 l 0.0296,-0.0514 2.10238,0 c 0,0.75219 0.20459,1.3664 0.61973,1.8399 0.41217,0.47891 0.95186,0.72243 1.62497,0.72243 0.70869,0 1.25727,-0.22998 1.66055,-0.69267 0.40031,-0.45185 0.59898,-1.09853 0.59898,-1.95083 0,-0.89561 -0.18681,-1.5504 -0.56933,-1.97249 -0.38845,-0.43022 -0.96075,-0.63585 -1.73468,-0.63585 l -1.50635,0 0,-1.52334 z" />
        <path
           inkscape:connector-curvature="0"
           id="path1472"
           style="fill:#70706e;fill-opacity:1;fill-rule:nonzero;stroke:none"
           d="m 334.28932,576.37985 c 0,-1.30418 -0.18977,-2.29718 -0.56932,-2.9655 -0.3766,-0.6602 -0.9222,-0.99572 -1.6309,-0.99572 -0.70574,0 -1.24541,0.33552 -1.622,1.00113 -0.36769,0.67915 -0.5545,1.66133 -0.5545,2.96009 l 0,3.81509 c 0,1.31229 0.19274,2.30801 0.56932,2.97903 0.37956,0.67103 0.9222,1.01195 1.63386,1.01195 0.69684,0 1.23356,-0.34092 1.61014,-1.00654 0.37363,-0.66832 0.5634,-1.66674 0.5634,-2.98444 l 0,-3.81509 z m 2.18837,3.54994 c 0,1.86696 -0.39438,3.29288 -1.17425,4.28589 -0.78579,0.9876 -1.84736,1.48545 -3.18766,1.48545 -1.35513,0 -2.42558,-0.49785 -3.21138,-1.49086 -0.79469,-0.99843 -1.19204,-2.42435 -1.19204,-4.28048 l 0,-3.25231 c 0,-1.85073 0.39438,-3.28207 1.18314,-4.2832 0.78283,-0.99571 1.8533,-1.49356 3.1936,-1.49356 1.34622,0 2.41373,0.49785 3.20248,1.49356 0.78876,1.00113 1.18611,2.43247 1.18611,4.2832 l 0,3.25231 z" />
      </g>
      <path
         d="m 317.99139,357.7852 c 0.91925,0.14704 2.64692,0.39656 6.91071,0.39656 1.58664,0 2.33967,-0.19828 2.33967,-1.18523 0,-0.96021 -0.36267,-1.20751 -2.00723,-1.20751 l -1.75287,0 c -3.59638,0 -6.27101,-0.56587 -6.27101,-5.79025 0,-5.02832 4.3469,-5.69444 8.80461,-5.69444 2.92647,0 6.35161,0.36981 8.0818,0.5926 l 0,5.22437 c -1.86871,-0.12253 -3.90113,-0.36983 -6.46494,-0.36983 -2.31196,0 -2.95417,0.32083 -2.95417,1.23202 0,0.66614 0.39036,1.06047 2.09033,1.06047 6.01917,0 7.94077,0.66614 7.94077,5.02831 0,5.05061 -3.42765,5.71674 -8.35884,5.71674 -2.75773,0 -5.60109,-0.19828 -8.35883,-0.49459 l 0,-4.50922 z"
         style="fill:#ffffff;fill-opacity:1;fill-rule:nonzero;stroke:none"
         id="path1476"
         inkscape:connector-curvature="0" />
      <path
         d="m 340.2469,344.74854 16.2442,0 0,5.12635 -8.58298,0 0,1.87364 8.58298,0 0,4.11488 -8.58298,0 0,1.87364 8.58298,0 0,4.60726 -16.2442,0 0,-17.59577 z"
         style="fill:#ffffff;fill-opacity:1;fill-rule:nonzero;stroke:none"
         id="path1480"
         inkscape:connector-curvature="0" />
      <path
         d="m 370.33207,353.32499 2.22885,0 c 1.83849,0 2.70233,-0.56811 2.70233,-2.02069 0,-1.37905 -0.75302,-1.94716 -2.25656,-1.94716 l -2.67462,0 0,3.96785 z m -7.66122,-8.57732 12.86943,0 c 4.57104,0 7.19027,1.03596 7.19027,6.21132 0,4.09038 -2.22887,6.48311 -7.38419,6.48311 l -5.01429,0 0,4.90357 -7.66122,0 0,-17.598 z"
         style="fill:#ffffff;fill-opacity:1;fill-rule:nonzero;stroke:none"
         id="path1484"
         inkscape:connector-curvature="0" />
      <path
         d="m 393.00443,350.56421 -5.23844,0 0,-5.81475 18.13809,0 0,5.81475 -5.23843,0 0,11.78101 -7.66122,0 0,-11.78101 z"
         style="fill:#ffffff;fill-opacity:1;fill-rule:nonzero;stroke:none"
         id="path1488"
         inkscape:connector-curvature="0" />
      <path
         d="m 411.16509,344.74854 16.2442,0 0,5.12635 -8.58298,0 0,1.87364 8.58298,0 0,4.11488 -8.58298,0 0,1.87364 8.58298,0 0,4.60726 -16.2442,0 0,-17.59577 z"
         style="fill:#ffffff;fill-opacity:1;fill-rule:nonzero;stroke:none"
         id="path1492"
         inkscape:connector-curvature="0" />
      <path
         d="m 433.58802,344.74854 9.55512,0 3.03728,9.04518 0.0555,0 3.23372,-9.04518 9.3335,0 0,17.59577 -6.8276,0 0.27955,-10.59578 -0.0555,0 -4.01194,10.59578 -3.98424,0 -4.01193,-10.59578 -0.0555,0 0.27704,10.59578 -6.82508,0 0,-17.59577 z"
         style="fill:#ffffff;fill-opacity:1;fill-rule:nonzero;stroke:none"
         id="path1496"
         inkscape:connector-curvature="0" />
      <path
         d="m 472.25174,358.22897 3.45535,0 c 1.72768,0 2.47818,-0.29631 2.47818,-1.40578 0,-0.91121 -0.50117,-1.42807 -2.06011,-1.42807 l -3.87342,0 0,2.83385 z m 0,-6.26033 3.81801,0 c 1.16858,0 1.92161,-0.6149 1.92161,-1.38128 0,-1.00923 -0.69763,-1.40357 -1.97701,-1.40357 l -3.76261,0 0,2.78485 z m -7.27086,-7.22054 14.59964,0 c 3.1758,0 5.48776,0.71514 5.48776,4.43569 0,2.90961 -1.95182,3.94335 -5.32155,4.28866 l 0,0.0513 c 3.56617,0.0468 5.518,0.98473 5.518,4.23742 0,3.72278 -2.59152,4.58497 -7.55292,4.58497 l -12.73093,0 0,-17.59799 z"
         style="fill:#ffffff;fill-opacity:1;fill-rule:nonzero;stroke:none"
         id="path1500"
         inkscape:connector-curvature="0" />
      <path
         d="m 490.99648,344.74854 16.2442,0 0,5.12635 -8.58298,0 0,1.87364 8.58298,0 0,4.11488 -8.58298,0 0,1.87364 8.58298,0 0,4.60726 -16.2442,0 0,-17.59577 z"
         style="fill:#ffffff;fill-opacity:1;fill-rule:nonzero;stroke:none"
         id="path1504"
         inkscape:connector-curvature="0" />
      <path
         d="m 521.08185,353.00529 2.39507,0 c 1.50353,0 2.70233,-0.24729 2.70233,-1.9739 0,-1.13399 -0.61199,-1.67536 -2.31197,-1.67536 l -2.78543,0 0,3.64926 z m -7.66122,-8.25651 13.25979,0 c 3.90113,0 7.16005,0.73966 7.16005,5.07511 0,3.32844 -1.78308,4.98152 -5.62628,5.05504 l 6.37931,7.46562 -8.86002,0 -4.56853,-6.16008 -0.0831,0 0,6.16008 -7.66122,0 0,-17.59577 z"
         style="fill:#ffffff;fill-opacity:1;fill-rule:nonzero;stroke:none"
         id="path1508"
         inkscape:connector-curvature="0" />
      <g
         transform="matrix(1.061532,0,0,1.13492,-100.9717,-212.6462)"
         id="g4201">
        <g
           id="g2592"
           transform="matrix(1.888178,0,0,-1.7497888,571.64237,856.08744)">
          <path
             d="m 0,0 0,63.753 0,31.959 22.901,22.904 63.885,0 0,-23.658 0,-31.205 L 86.786,0 0,0 z"
             style="fill:#ffffff;fill-opacity:1;fill-rule:nonzero;stroke:none"
             id="path2594"
             inkscape:connector-curvature="0" />
        </g>
        <g
           id="g2596"
           transform="matrix(1.888178,0,0,-1.7497888,614.88411,688.61094)">
          <path
             d="M 0,0 -22.901,0 0,22.903 0,0 z"
             style="fill:#15b0bf;fill-opacity:1;fill-rule:nonzero;stroke:none"
             id="path2598"
             inkscape:connector-curvature="0" />
        </g>
        <g
           id="g2600"
           transform="matrix(1.888178,0,0,-1.7497888,571.64237,688.61094)">
          <path
             d="M 0,0 22.901,0 0,-22.901 0,0 z"
             style="fill:#d1ecfb;fill-opacity:1;fill-rule:nonzero;stroke:none"
             id="path2602"
             inkscape:connector-curvature="0" />
        </g>
        <g
           id="g2604"
           transform="matrix(1.888178,0,0,-1.7497888,-587.92948,1553.1869)">
          <g
             id="g2606" />
          <g
             id="g2612">
            <g
               clip-path="url(#clipPath2608-9)"
               id="g2614"
               style="opacity:0.10000598">
              <g
                 transform="translate(637.0234,517.0063)"
                 id="g2616">
                <path
                   d="m 0,0 -22.901,-22.903 0,-31.959 0,-41.949 43.393,0 0,63.753 0,31.205 0,1.853 L 0,0 z"
                   style="fill:#000000;fill-opacity:1;fill-rule:nonzero;stroke:none"
                   id="path2618"
                   inkscape:connector-curvature="0" />
              </g>
            </g>
          </g>
        </g>
        <g
           id="g2620"
           transform="matrix(1.888178,0,0,-1.7497888,480.7774,810.05889)">
          <path
             d="M 0,0 0,63.753 0,95.712 -0.34499601,118.92305 86.786,118.615 l 0,-23.657 0,-31.205 0,-63.753 z"
             style="fill:#ffffff;fill-opacity:1;fill-rule:nonzero;stroke:none"
             id="path2622"
             inkscape:connector-curvature="0"
             sodipodi:nodetypes="ccccccccc" />
        </g>
        <g
           id="g2632"
           transform="matrix(1.888178,0,0,-1.7497888,520.59699,765.40165)">
          <path
             d="M 0,0 0,14.951 C -7.317,14.466 -13.121,8.39 -13.121,0.942 c 0,-7.769 6.299,-14.063 14.063,-14.063 7.445,0 13.53,5.801 14.008,13.121 L 0,0 z"
             style="fill:#2c5871;fill-opacity:1;fill-rule:nonzero;stroke:none"
             id="path2634"
             inkscape:connector-curvature="0" />
        </g>
        <g
           id="g2636"
           transform="matrix(1.888178,0,0,-1.7497888,547.54602,759.22279)">
          <path
             d="M 0,0 C 0,5.806 -4.702,10.511 -10.505,10.511 L -10.505,0 0,0 z"
             style="fill:#f99b1c;fill-opacity:1;fill-rule:nonzero;stroke:none"
             id="path2638"
             inkscape:connector-curvature="0" />
        </g>
        <g
           id="g2640"
           transform="matrix(1.888178,0,0,-1.7497888,533.53215,689.44734)">
          <path
             d="m 0,0 c -0.281,-0.867 -0.732,-1.647 -1.338,-2.299 l 4.565,-6.373 c 2.307,1.987 3.964,4.704 4.592,7.805 L 0,0 z"
             style="fill:#a6dae9;fill-opacity:1;fill-rule:nonzero;stroke:none"
             id="path2642"
             inkscape:connector-curvature="0" />
        </g>
        <g
           id="g2644"
           transform="matrix(1.888178,0,0,-1.7497888,524.73664,675.30292)">
          <path
             d="m 0,0 c 2.659,-0.554 4.675,-2.798 4.939,-5.548 l 7.808,-0.862 c 0,0.088 0.011,0.173 0.011,0.264 C 12.758,1.172 7.152,7.177 0,7.824 L 0,0 z"
             style="fill:#f99b1c;fill-opacity:1;fill-rule:nonzero;stroke:none"
             id="path2646"
             inkscape:connector-curvature="0" />
        </g>
        <g
           id="g2648"
           transform="matrix(1.888178,0,0,-1.7497888,513.60111,678.69489)">
          <path
             d="m 0,0 c 0.87,0.963 2.021,1.663 3.348,1.938 l 0,7.825 C -0.82,9.388 -4.444,7.191 -6.762,3.981 L 0,0 z"
             style="fill:#15b0bf;fill-opacity:1;fill-rule:nonzero;stroke:none"
             id="path2650"
             inkscape:connector-curvature="0" />
        </g>
        <g
           id="g2652"
           transform="matrix(1.888178,0,0,-1.7497888,527.10612,696.08167)">
          <path
             d="m 0,0 c -0.776,-0.347 -1.63,-0.545 -2.532,-0.545 -3.464,0 -6.272,2.811 -6.272,6.274 0,0.709 0.143,1.375 0.358,2.008 l -6.762,3.984 c -0.859,-1.821 -1.36,-3.844 -1.36,-5.992 0,-7.752 6.283,-14.033 14.036,-14.033 2.588,0 5.005,0.708 7.086,1.936 L 0,0 z"
             style="fill:#2c5871;fill-opacity:1;fill-rule:nonzero;stroke:none"
             id="path2654"
             inkscape:connector-curvature="0" />
        </g>
        <path
           d="m 561.30252,667.69222 63.87706,0 0,-6.08051 -63.87706,0 0,6.08051 z"
           style="fill:#15b0bf;fill-opacity:1;fill-rule:nonzero;stroke:none"
           id="path2656"
           inkscape:connector-curvature="0" />
        <path
           d="m 561.30252,686.77367 63.87706,0 0,-6.07526 -63.87706,0 0,6.07526 z"
           style="fill:#a6dae9;fill-opacity:1;fill-rule:nonzero;stroke:none"
           id="path2658"
           inkscape:connector-curvature="0" />
        <path
           d="m 561.30252,705.86037 63.87706,0 0,-6.07003 -63.87706,0 0,6.07003 z"
           style="fill:#a6dae9;fill-opacity:1;fill-rule:nonzero;stroke:none"
           id="path2660"
           inkscape:connector-curvature="0" />
        <path
           d="m 561.30252,745.31635 44.44582,0 0,-6.07527 -44.44582,0 0,6.07527 z"
           style="fill:#15b0bf;fill-opacity:1;fill-rule:nonzero;stroke:none"
           id="path2662"
           inkscape:connector-curvature="0" />
        <path
           d="m 561.30252,764.41355 63.87706,0 0,-6.08051 -63.87706,0 0,6.08051 z"
           style="fill:#a6dae9;fill-opacity:1;fill-rule:nonzero;stroke:none"
           id="path2664"
           inkscape:connector-curvature="0" />
        <path
           d="m 561.30252,783.495 63.87706,0 0,-6.07528 -63.87706,0 0,6.07528 z"
           style="fill:#a6dae9;fill-opacity:1;fill-rule:nonzero;stroke:none"
           id="path2666"
           inkscape:connector-curvature="0" />
        <g
           id="g2668"
           transform="matrix(1.888178,0,0,-1.7497888,695.23685,812.36231)">
          <path
             d="m 0,0 -0.003,74.161 c -1.125,-0.27 -2.011,-1.633 -2.151,-3.347 l 0,-70.811 L 0,0 z"
             style="fill:#f9a818;fill-opacity:1;fill-rule:nonzero;stroke:none"
             id="path2670"
             inkscape:connector-curvature="0" />
        </g>
        <g
           id="g2672"
           transform="matrix(1.888178,0,0,-1.7497888,681.49223,812.35548)">
          <path
             d="m 0,0 5.125,-0.001 0,70.812 c -0.003,0.014 -0.005,0.021 -0.007,0.037 0,-0.016 0,-0.031 -0.003,-0.049 -0.155,1.92 -1.236,3.404 -2.552,3.41 -1.317,-0.006 -2.398,-1.491 -2.553,-3.41 0,0.018 0,0.033 -0.002,0.049 0,-0.016 -0.006,-0.023 -0.006,-0.037 L 0,70.811 0,0 z"
             style="fill:#f5e6b6;fill-opacity:1;fill-rule:nonzero;stroke:none"
             id="path2674"
             inkscape:connector-curvature="0" />
        </g>
        <g
           id="g2676"
           transform="matrix(1.888178,0,0,-1.7497888,681.49223,688.45206)">
          <path
             d="M 0,0 C -0.141,1.714 -1.024,3.08 -2.154,3.347 L -2.153,-70.812 0,-70.811 0,0 z"
             style="fill:#f9a818;fill-opacity:1;fill-rule:nonzero;stroke:none"
             id="path2678"
             inkscape:connector-curvature="0" />
        </g>
        <g
           id="g2680"
           transform="matrix(1.888178,0,0,-1.7497888,677.41906,682.59605)">
          <path
             d="m 0,0 c 1.128,-0.263 2.017,-1.632 2.157,-3.347 l 0.002,0 c 0,0.015 0.006,0.022 0.006,0.037 0.002,-0.015 0.002,-0.03 0.002,-0.048 0.155,1.919 1.236,3.404 2.553,3.41 1.316,-0.006 2.397,-1.49 2.552,-3.41 0.003,0.018 0.003,0.033 0.003,0.048 0.002,-0.015 0.004,-0.022 0.007,-0.037 0.141,1.715 1.027,3.082 2.16,3.346 L 4.719,9.03 0,0 z"
             style="fill:#f0b16c;fill-opacity:1;fill-rule:nonzero;stroke:none"
             id="path2682"
             inkscape:connector-curvature="0" />
        </g>
        <g
           id="g2684"
           transform="matrix(1.888178,0,0,-1.7497888,690.70824,674.5493)">
          <path
             d="M 0,0 -2.319,4.432 -4.637,0 c 0.746,-0.27 1.52,-0.42 2.318,-0.418 0.799,0 1.575,0.148 2.319,0.418"
             style="fill:#103754;fill-opacity:1;fill-rule:nonzero;stroke:none"
             id="path2686"
             inkscape:connector-curvature="0" />
        </g>
        <g
           id="g2688"
           transform="matrix(1.888178,0,0,-1.7497888,695.23685,812.45452)">
          <path
             d="m 0,0 -2.154,0 0,-4.273 2.151,0.002 L 0,0 z"
             style="fill:#c62229;fill-opacity:1;fill-rule:nonzero;stroke:none"
             id="path2690"
             inkscape:connector-curvature="0" />
        </g>
        <g
           id="g2692"
           transform="matrix(1.888178,0,0,-1.7497888,691.16914,812.45452)">
          <path
             d="M 0,0 -5.125,0 -5.126,-4.271 0,-4.273 0,0 z"
             style="fill:#f85a68;fill-opacity:1;fill-rule:nonzero;stroke:none"
             id="path2694"
             inkscape:connector-curvature="0" />
        </g>
        <g
           id="g2696"
           transform="matrix(1.888178,0,0,-1.7497888,681.49223,812.45452)">
          <path
             d="m 0,0 -2.154,0 0,-4.273 2.153,0.002 L 0,0 z"
             style="fill:#c62229;fill-opacity:1;fill-rule:nonzero;stroke:none"
             id="path2698"
             inkscape:connector-curvature="0" />
        </g>
      </g>
    </g>
  </g>
</svg>
