<svg xmlns="http://www.w3.org/2000/svg" width="1000" height="1000"><defs><clipPath id="a"><path d="M614.122 517.006h43.394v-96.81h-43.394v96.81z"/></clipPath></defs><path d="M607.72 611.153H295.355v-327.02H607.72v327.02z" fill="#fea"/><path d="M607.72 368.97H295.355v-84.84H607.72v84.837z" fill="#f95"/><path d="M295.378 422.687h312.415" fill="none" stroke="#5390c6" stroke-width="1.777" stroke-miterlimit="10"/><path d="M313.05 398.557c0-1.198-.205-2.178-.604-2.886-.414-.7-1.133-1.41-2.156-2.1-2.103-1.13-3.68-2.41-4.727-3.87-1.06-1.43-1.578-3.45-1.578-6.06 0-2.58.608-4.66 1.833-6.29 1.22-1.62 2.78-2.42 4.677-2.42 1.928 0 3.495.907 4.697 2.71 1.205 1.8 1.787 4.08 1.753 6.82l-.027.127h-3.84c0-1.434-.233-2.602-.693-3.487-.46-.885-1.11-1.345-1.955-1.345-.79 0-1.4.377-1.84 1.12-.445.756-.666 1.66-.666 2.79 0 1.034.244 1.89.738 2.557.498.66 1.342 1.41 2.563 2.224 1.91 1.01 3.35 2.29 4.32 3.823.97 1.55 1.457 3.622 1.457 6.27 0 2.71-.586 4.83-1.75 6.366-1.17 1.552-2.722 2.313-4.658 2.313-1.928 0-3.594-.875-5.005-2.62-1.42-1.74-2.11-4.244-2.06-7.52l.023-.12h3.85c0 1.936.26 3.334.8 4.178.522.842 1.32 1.27 2.382 1.27.836 0 1.456-.345 1.855-1.036.4-.695.6-1.616.6-2.813m38.586-22.22l3.625 23.05h.085L359 376.335h5.153v31.395h-3.93v-9.12l.335-12.21-.084-.01-3.86 21.343h-2.628l-3.822-21.178-.075.024.34 12.03v9.12h-3.93v-31.39h5.122zm59.345 3.93h-4.554v26.493h-3.944V380.27h-4.53v-4.902h13.03v4.902zm46.885 15.13h.084l2.19-20.037h3.83l-3.91 31.403h-3.68l-2.84-19.25h-.088l-2.82 19.25h-3.67l-3.896-31.404h3.834l2.183 20.038h.08l2.917-20.036h2.84l2.95 20.038zm45.586-14.16h-4.56v26.495h-3.94v-26.5h-4.523v-4.902h13.024v4.902zm43.12 13.444h-6.86v13.052h-3.96v-31.4h12.03v4.905h-8.07v8.55h6.86v4.89zm48.9 4.84c0-1.197-.205-2.177-.608-2.885-.42-.7-1.133-1.417-2.16-2.1-2.106-1.13-3.68-2.415-4.726-3.87-1.05-1.436-1.58-3.46-1.58-6.06 0-2.58.61-4.67 1.834-6.29 1.22-1.625 2.783-2.427 4.68-2.427 1.923 0 3.49.902 4.695 2.708 1.202 1.8 1.784 4.078 1.746 6.82l-.025.126h-3.833c0-1.435-.226-2.603-.69-3.49-.47-.882-1.122-1.343-1.96-1.343-.79 0-1.402.378-1.835 1.122-.445.753-.666 1.656-.666 2.79 0 1.03.248 1.89.74 2.554.48.66 1.344 1.41 2.56 2.226 1.914 1.01 3.355 2.29 4.32 3.823.96 1.55 1.45 3.622 1.45 6.27 0 2.71-.583 4.835-1.747 6.37-1.162 1.55-2.72 2.312-4.65 2.312-1.93 0-3.605-.872-5.016-2.62-1.41-1.74-2.09-4.242-2.042-7.516l.024-.12h3.846c0 1.936.26 3.334.795 4.178.523.844 1.32 1.27 2.39 1.27.83 0 1.445-.343 1.85-1.034.405-.69.607-1.612.607-2.81" fill="#d45500"/><path d="M404.274 457.273h-2.498v-15.216l-3.523.232v-1.59l6.02-1.12v17.683zm46.816-.027h-10.1v-1.636l4.952-6.375c.792-1.105 1.357-2.017 1.675-2.747.31-.727.474-1.434.474-2.12 0-.924-.2-1.693-.59-2.27-.41-.592-.952-.887-1.65-.887-.89 0-1.55.33-1.99.97-.44.66-.655 1.55-.655 2.67h-2.41l-.03-.06c-.03-1.526.41-2.81 1.323-3.862.918-1.05 2.17-1.58 3.765-1.58 1.46 0 2.627.45 3.476 1.374.855.9 1.28 2.104 1.28 3.598 0 1.017-.26 2.01-.787 2.995-.526.98-1.288 2.077-2.28 3.285l-3.402 4.79h6.96v1.866zm37.167-9.916h1.72c.832 0 1.445-.275 1.827-.82.38-.554.572-1.287.572-2.22 0-.956-.2-1.716-.602-2.256-.4-.555-.978-.823-1.75-.823-.697 0-1.273.28-1.723.83-.44.557-.67 1.277-.67 2.17h-2.38l-.033-.062c-.034-1.373.396-2.512 1.31-3.424.9-.913 2.057-1.374 3.458-1.374 1.487 0 2.675.437 3.565 1.306.89.873 1.34 2.094 1.34 3.684 0 .78-.218 1.533-.638 2.247-.414.718-1.017 1.265-1.79 1.633.905.33 1.58.87 2.015 1.602.44.75.657 1.595.657 2.564 0 1.603-.483 2.855-1.44 3.767-.962.915-2.194 1.36-3.687 1.36-1.405 0-2.59-.43-3.558-1.31-.978-.86-1.44-2.075-1.407-3.625l.04-.07h2.395c0 .926.24 1.683.71 2.267.466.585 1.085.87 1.847.87.81 0 1.447-.28 1.9-.84.46-.56.688-1.353.688-2.39 0-1.097-.212-1.904-.655-2.43-.436-.516-1.096-.78-1.976-.78h-1.72v-1.863zm44.33 3.892h4.143v-8.06l-.075-.017-.243.51-3.825 7.567zm6.637 0h1.936v1.865h-1.936v4.158h-2.494v-4.158h-6.543l-.067-1.37 6.535-12.12h2.57v11.625zm43.104-1.902l.863-9.724h8.08v2.025h-5.98l-.473 5.24c.305-.31.664-.56 1.063-.76.4-.19.867-.3 1.39-.32 1.413-.01 2.526.5 3.332 1.55.81 1.04 1.215 2.48 1.215 4.28 0 1.76-.422 3.18-1.27 4.27-.845 1.093-2.077 1.637-3.7 1.637-1.355 0-2.49-.424-3.413-1.267-.922-.84-1.37-2.043-1.335-3.63l.023-.057 2.36-.045c0 1 .215 1.77.645 2.32.437.536 1.006.8 1.717.8.82 0 1.425-.343 1.84-1.054.417-.712.624-1.69.624-2.945 0-1.17-.22-2.12-.643-2.84-.435-.718-1.047-1.07-1.846-1.07-.714 0-1.242.15-1.59.445-.35.3-.593.754-.74 1.358l-2.154-.206zm-272.185 32.152c-.632 0-1.177.15-1.634.45-.47.296-.82.704-1.05 1.222v1.613c0 1.586.26 2.814.78 3.697s1.19 1.324 2 1.324c.74 0 1.33-.415 1.76-1.23.44-.818.663-1.823.663-3.014 0-1.195-.23-2.167-.677-2.924-.454-.76-1.066-1.138-1.85-1.138m.683-7.992c.545 0 1.066.07 1.567.203.5.136.96.328 1.376.56l-.484 1.803c-.37-.213-.75-.375-1.123-.49-.383-.114-.82-.177-1.324-.177-1.005 0-1.82.47-2.443 1.42-.62.96-.932 2.223-.932 3.81v.497c.41-.458.892-.817 1.46-1.076.56-.254 1.172-.377 1.84-.377 1.36 0 2.43.55 3.22 1.65.78 1.097 1.18 2.507 1.18 4.226 0 1.784-.45 3.234-1.36 4.38-.91 1.15-2.097 1.714-3.56 1.714-1.546 0-2.805-.614-3.796-1.85-.99-1.24-1.48-2.965-1.48-5.165v-3.826c0-2.186.557-3.955 1.667-5.306 1.11-1.337 2.51-2.008 4.19-2.008m49.507 2.142c-1.718 2.252-2.9 4.4-3.54 6.45-.64 2.064-1.095 4.603-1.356 7.626l-.16 1.688h-2.5l.15-1.69c.274-2.84.81-5.4 1.624-7.69.814-2.284 1.927-4.415 3.345-6.41h-8.07v-1.868h10.506v1.89zm44.51 4.04c0-.805-.2-1.458-.606-1.977-.405-.51-.933-.764-1.583-.764-.655 0-1.183.245-1.576.746-.39.492-.59 1.163-.59 1.994 0 .83.205 1.492.598 1.984.397.492.93.734 1.59.734s1.183-.24 1.575-.732c.4-.492.593-1.154.593-1.985m.396 7.375c0-.87-.24-1.58-.728-2.13-.486-.56-1.1-.83-1.857-.83-.755 0-1.375.27-1.85.814-.47.55-.71 1.267-.71 2.146 0 .918.23 1.63.7 2.148.465.51 1.09.774 1.88.774.754 0 1.367-.266 1.844-.784.48-.52.716-1.234.716-2.14m2.13-7.417c0 .846-.23 1.586-.685 2.213-.45.632-1.07 1.103-1.842 1.403.88.334 1.584.838 2.112 1.524.52.68.78 1.465.78 2.353 0 1.465-.463 2.58-1.404 3.354-.93.785-2.15 1.168-3.654 1.168-1.52 0-2.75-.382-3.686-1.165-.94-.774-1.408-1.89-1.408-3.355 0-.89.26-1.683.783-2.37.516-.68 1.22-1.187 2.11-1.514-.772-.31-1.385-.776-1.825-1.41-.447-.627-.67-1.358-.67-2.198 0-1.394.43-2.477 1.29-3.235.85-.77 1.983-1.152 3.38-1.152 1.39 0 2.525.38 3.395 1.155.88.76 1.316 1.84 1.316 3.237m38.26 4.346c.648 0 1.193-.175 1.643-.536.446-.367.792-.82 1.022-1.39v-2.054c0-1.516-.23-2.668-.69-3.454-.47-.794-1.11-1.185-1.934-1.185-.7 0-1.282.423-1.75 1.27-.463.85-.7 1.897-.7 3.135 0 1.256.214 2.26.64 3.038.426.79 1.015 1.177 1.77 1.177m-.4 5.81c.908 0 1.65-.415 2.218-1.244.56-.845.846-2.033.846-3.596v-.877c-.346.584-.776 1.03-1.28 1.33-.498.3-1.046.44-1.64.44-1.434 0-2.57-.54-3.407-1.63-.838-1.087-1.258-2.554-1.258-4.42 0-1.8.47-3.304 1.417-4.502.94-1.2 2.11-1.8 3.5-1.8 1.56 0 2.814.587 3.76 1.745.94 1.17 1.416 2.847 1.416 5.03v4.61c0 2.15-.527 3.813-1.56 5-1.04 1.184-2.38 1.774-4.017 1.774-.52 0-1.05-.063-1.61-.185-.564-.123-1.085-.306-1.556-.54l.324-1.797c.44.24.88.402 1.335.505.448.104.945.157 1.504.157m46.62 1.633h-2.497v-15.22l-3.53.235v-1.586l6.02-1.117v17.688zm13.24-11.2c0-1.6-.213-2.82-.65-3.64-.43-.81-1.052-1.22-1.86-1.22-.812 0-1.432.41-1.85 1.23-.43.83-.64 2.035-.64 3.63v4.684c0 1.6.22 2.82.65 3.644.432.825 1.052 1.24 1.86 1.24.803 0 1.412-.415 1.845-1.24.43-.81.642-2.036.642-3.645V480.2zm2.495 4.352c0 2.285-.448 4.034-1.338 5.252-.9 1.215-2.11 1.82-3.645 1.82-1.545 0-2.763-.605-3.664-1.83-.903-1.214-1.353-2.96-1.353-5.243v-3.992c0-2.273.45-4.012 1.345-5.243.898-1.23 2.12-1.846 3.653-1.846 1.53 0 2.746.615 3.65 1.846.905 1.23 1.356 2.97 1.356 5.244v3.993zm29.627 6.847h-2.49v-15.22l-3.53.233v-1.586l6.02-1.116v17.69zm12.34 0h-2.5v-15.22l-3.523.233v-1.586l6.02-1.116v17.69zm38.83 0h-2.495v-15.22l-3.525.233v-1.586l6.02-1.116v17.69zm15.905-.024H594.18v-1.642l4.948-6.38c.788-1.104 1.354-2.013 1.675-2.747.31-.73.47-1.43.47-2.11 0-.94-.195-1.69-.597-2.28-.4-.587-.95-.88-1.65-.88-.882 0-1.545.326-1.99.973-.435.65-.66 1.54-.66 2.657h-2.41l-.022-.062c-.033-1.527.414-2.815 1.32-3.87.918-1.045 2.17-1.57 3.764-1.57 1.466 0 2.627.46 3.487 1.36.85.913 1.273 2.108 1.273 3.608 0 1.01-.264 2.008-.782 2.99-.523.98-1.285 2.074-2.283 3.29l-3.403 4.79h6.97v1.87zM311.43 525.54h-2.497v-15.21l-3.52.233v-1.586l6.018-1.115v17.678zm8.755-9.94h1.72c.828 0 1.438-.275 1.82-.82.383-.547.58-1.28.58-2.216 0-.956-.2-1.716-.6-2.26-.403-.544-.985-.82-1.757-.82-.7 0-1.27.276-1.72.82-.453.554-.673 1.28-.673 2.174h-2.393l-.03-.07c-.03-1.367.403-2.51 1.31-3.418.907-.92 2.058-1.367 3.462-1.367 1.48 0 2.667.424 3.56 1.3.89.873 1.334 2.095 1.334 3.684 0 .787-.21 1.53-.63 2.243-.42.72-1.015 1.265-1.79 1.64.904.325 1.578.863 2.01 1.603.437.743.657 1.593.657 2.558 0 1.61-.48 2.86-1.44 3.77-.963.91-2.19 1.368-3.69 1.368-1.398 0-2.583-.44-3.558-1.3-.968-.87-1.432-2.08-1.398-3.638l.04-.07h2.39c0 .93.23 1.683.71 2.267.46.58 1.08.873 1.84.873.81 0 1.445-.28 1.902-.843.46-.56.686-1.353.686-2.39 0-1.097-.22-1.896-.656-2.417-.436-.523-1.093-.786-1.976-.786h-1.72v-1.88zm36.612 9.94H354.3v-15.21l-3.524.233v-1.586l6.02-1.115v17.678zm7.71-6.047h4.146v-8.054l-.07-.02-.255.506-3.82 7.557zm6.64 0h1.93v1.87h-1.93v4.156h-2.494v-4.16h-6.546l-.07-1.38 6.545-12.118h2.565v11.622zm33.127 6.047h-2.498v-15.21l-3.523.233v-1.586l6.02-1.115v17.678zm6.28-7.946l.863-9.724h8.076v2.025h-5.984l-.48 5.24c.3-.312.66-.558 1.07-.764.4-.19.86-.29 1.38-.31 1.42-.01 2.53.496 3.34 1.548.81 1.05 1.21 2.48 1.21 4.28 0 1.767-.42 3.18-1.27 4.266-.84 1.088-2.08 1.636-3.707 1.636-1.35 0-2.48-.42-3.405-1.264-.927-.84-1.374-2.047-1.343-3.62l.026-.07 2.367-.046c0 1.002.212 1.782.645 2.32.432.537 1.004.81 1.71.81.817 0 1.433-.353 1.843-1.06.415-.706.622-1.68.622-2.94 0-1.178-.22-2.127-.648-2.844-.427-.716-1.043-1.074-1.84-1.074-.71 0-1.244.152-1.596.46-.35.302-.59.753-.735 1.35l-2.16-.208zm36.98 7.946h-2.495v-15.21l-3.53.233v-1.586l6.02-1.115v17.678zm11.053-9.94c-.633 0-1.184.156-1.634.452-.467.305-.813.713-1.05 1.224v1.626c0 1.58.26 2.81.78 3.694.517.873 1.183 1.314 2.006 1.314.73 0 1.32-.405 1.76-1.228.433-.82.65-1.815.65-3.006 0-1.195-.227-2.177-.67-2.927-.455-.76-1.07-1.15-1.853-1.15m.677-7.98c.545 0 1.07.06 1.574.2.5.14.955.32 1.37.56l-.487 1.81c-.364-.23-.74-.38-1.115-.5-.387-.12-.827-.17-1.328-.17-1.01 0-1.82.48-2.445 1.43-.62.95-.93 2.21-.93 3.81v.5c.41-.47.9-.83 1.463-1.08.555-.26 1.17-.39 1.84-.39 1.36 0 2.427.554 3.213 1.65.79 1.105 1.184 2.515 1.184 4.237 0 1.776-.45 3.24-1.358 4.384-.91 1.146-2.096 1.714-3.558 1.714-1.548 0-2.81-.62-3.802-1.854-.985-1.24-1.482-2.962-1.482-5.17v-3.832c0-2.18.56-3.946 1.666-5.294 1.114-1.34 2.512-2.008 4.194-2.008m32.58 17.915h-2.49v-15.21l-3.53.234v-1.586l6.02-1.115v17.68zm15.88-15.78c-1.725 2.255-2.903 4.4-3.543 6.46-.636 2.054-1.09 4.596-1.35 7.62l-.166 1.682h-2.49l.14-1.68c.275-2.84.817-5.4 1.63-7.69.81-2.29 1.925-4.42 3.35-6.408h-8.08v-1.865h10.51v1.886zm29.49 15.78h-2.492v-15.21l-3.527.234v-1.586l6.02-1.115v17.68zm12.91-13.014c0-.9-.207-1.62-.607-2.188-.4-.568-.93-.854-1.583-.854-.657 0-1.185.275-1.578.82-.388.543-.585 1.29-.585 2.22 0 .92.197 1.652.59 2.196.395.54.93.81 1.6.81.647 0 1.17-.27 1.567-.81.39-.544.596-1.278.596-2.197m.39 8.158c0-.97-.24-1.76-.724-2.36-.488-.62-1.104-.925-1.856-.925-.76 0-1.37.307-1.85.914-.475.6-.705 1.4-.705 2.372 0 1.02.23 1.8.696 2.373.466.576 1.09.855 1.887.855.747 0 1.36-.28 1.84-.856.474-.58.715-1.36.715-2.373m2.13-8.207c0 .94-.228 1.745-.68 2.44-.45.712-1.07 1.223-1.843 1.565.885.36 1.58.933 2.11 1.683.52.75.78 1.625.78 2.607 0 1.623-.465 2.864-1.4 3.717-.93.853-2.15 1.294-3.65 1.294-1.53 0-2.756-.443-3.693-1.296-.936-.85-1.406-2.092-1.406-3.715 0-.992.26-1.865.784-2.625.514-.75 1.225-1.31 2.112-1.68-.776-.338-1.38-.856-1.83-1.556-.45-.696-.676-1.506-.676-2.432 0-1.534.438-2.736 1.298-3.585.854-.847 1.984-1.27 3.385-1.27 1.397 0 2.53.42 3.4 1.267.877.85 1.314 2.05 1.314 3.586m35.74 13.067h-2.495v-15.21l-3.528.232v-1.587l6.02-1.114v17.68zm10.44-7.44c.64 0 1.184-.187 1.634-.54.45-.36.79-.816 1.022-1.38v-2.05c0-1.52-.233-2.685-.69-3.465-.467-.793-1.114-1.185-1.936-1.185-.7 0-1.282.426-1.746 1.272-.462.85-.692 1.903-.692 3.137 0 1.244.216 2.26.63 3.033.43.79 1.02 1.17 1.78 1.17m-.404 5.81c.906 0 1.65-.414 2.216-1.247.56-.84.848-2.034.848-3.597v-.87c-.348.584-.775 1.025-1.272 1.33-.507.292-1.05.44-1.644.44-1.438 0-2.57-.546-3.408-1.628-.837-1.09-1.257-2.56-1.257-4.42 0-1.797.467-3.303 1.415-4.498.94-1.208 2.11-1.8 3.506-1.8 1.554 0 2.803.58 3.75 1.744.945 1.16 1.415 2.844 1.415 5.03v4.61c0 2.147-.52 3.816-1.56 4.995-1.03 1.187-2.375 1.777-4.01 1.777-.514 0-1.052-.065-1.61-.188-.56-.12-1.086-.304-1.553-.533l.33-1.806c.436.245.873.405 1.326.508.45.097.948.15 1.506.15M315 559.646h-10.1v-1.633l4.942-6.382c.8-1.1 1.357-2.02 1.676-2.74.318-.73.477-1.43.477-2.116 0-.932-.2-1.69-.6-2.273-.402-.59-.95-.89-1.648-.89-.886 0-1.55.33-1.986.976-.442.654-.66 1.544-.66 2.665h-2.41l-.024-.06c-.03-1.526.41-2.817 1.317-3.876.92-1.034 2.17-1.565 3.768-1.565 1.466 0 2.627.457 3.48 1.363.853.906 1.276 2.114 1.276 3.61 0 1-.265 2-.783 2.987-.528.983-1.29 2.07-2.28 3.29l-3.4 4.784H315v1.87zm9.68-11.18c0-1.6-.217-2.81-.647-3.63-.432-.818-1.055-1.233-1.864-1.233-.808 0-1.43.415-1.85 1.23-.427.828-.637 2.036-.637 3.632v4.69c0 1.59.21 2.812.65 3.642.43.826 1.05 1.234 1.86 1.234.79 0 1.41-.41 1.84-1.23.423-.823.64-2.04.64-3.644v-4.687zm2.498 4.353c0 2.28-.447 4.032-1.344 5.25-.894 1.22-2.105 1.82-3.635 1.82-1.54 0-2.77-.606-3.67-1.83-.905-1.215-1.358-2.97-1.358-5.247v-3.992c0-2.265.453-4.014 1.354-5.242.893-1.23 2.11-1.845 3.64-1.845 1.54 0 2.756.614 3.653 1.845.905 1.23 1.36 2.98 1.36 5.246v3.993zm33.192 6.82h-10.11v-1.632l4.937-6.38c.802-1.1 1.36-2.02 1.68-2.748.317-.73.483-1.43.483-2.115 0-.934-.207-1.69-.606-2.275-.4-.59-.954-.89-1.655-.89-.88 0-1.54.33-1.98.976-.45.653-.67 1.543-.67 2.664h-2.414l-.024-.06c-.035-1.527.405-2.818 1.32-3.877.916-1.036 2.172-1.567 3.756-1.567 1.467 0 2.635.46 3.48 1.365.853.908 1.286 2.116 1.286 3.61 0 1-.267 2-.79 2.99-.523.985-1.28 2.073-2.28 3.29l-3.4 4.786h6.964v1.87zm8.772.02h-2.5v-15.21l-3.528.226v-1.59l6.028-1.108v17.684zm38.704-.02H397.74v-1.632l4.943-6.38c.8-1.1 1.357-2.02 1.675-2.748.318-.73.48-1.43.48-2.115 0-.934-.202-1.69-.598-2.275-.403-.59-.955-.89-1.655-.89-.88 0-1.54.33-1.98.976-.447.653-.67 1.543-.67 2.664h-2.41l-.023-.06c-.035-1.527.405-2.818 1.322-3.877.916-1.036 2.17-1.567 3.756-1.567 1.464 0 2.63.46 3.482 1.365.85.908 1.28 2.116 1.28 3.61 0 1-.266 2-.787 2.99-.527.985-1.282 2.073-2.28 3.29l-3.402 4.786h6.965v1.87zm12.332 0h-10.1v-1.632l4.95-6.38c.798-1.1 1.353-2.02 1.67-2.748.32-.73.478-1.43.478-2.115 0-.934-.196-1.69-.6-2.275-.4-.59-.953-.89-1.65-.89-.887 0-1.544.33-1.984.976-.44.653-.663 1.543-.663 2.664h-2.41l-.03-.06c-.03-1.527.406-2.818 1.323-3.877.917-1.036 2.172-1.567 3.76-1.567 1.47 0 2.63.46 3.482 1.365.846.908 1.276 2.116 1.276 3.61 0 1-.26 2-.79 2.99-.524.985-1.275 2.073-2.28 3.29l-3.395 4.786h6.958v1.87zm30.92 0h-10.1v-1.632l4.952-6.38c.792-1.1 1.357-2.02 1.675-2.748.31-.73.474-1.43.474-2.115 0-.934-.208-1.69-.6-2.275-.41-.59-.955-.89-1.65-.89-.89 0-1.55.33-1.99.976-.44.653-.657 1.543-.657 2.664h-2.41l-.03-.06c-.03-1.527.41-2.818 1.323-3.877.916-1.036 2.17-1.567 3.763-1.567 1.46 0 2.626.46 3.475 1.365.855.908 1.28 2.116 1.28 3.61 0 1-.26 2-.787 2.99-.526.985-1.288 2.073-2.28 3.29l-3.4 4.786h6.96v1.87zm5.194-9.92h1.72c.835 0 1.44-.27 1.823-.813.386-.56.576-1.3.576-2.236 0-.954-.2-1.7-.6-2.25-.4-.55-.98-.824-1.75-.824-.7 0-1.28.28-1.72.824-.447.548-.67 1.28-.67 2.17h-2.393l-.033-.072c-.03-1.362.4-2.51 1.32-3.42.903-.91 2.054-1.366 3.455-1.366 1.485 0 2.67.44 3.56 1.303.893.878 1.34 2.093 1.34 3.686 0 .777-.213 1.537-.633 2.24-.42.73-1.018 1.27-1.793 1.637.9.332 1.574.86 2.014 1.6.434.736.657 1.596.657 2.572 0 1.595-.48 2.846-1.442 3.76-.96.9-2.19 1.356-3.69 1.356-1.4 0-2.586-.433-3.56-1.3-.97-.868-1.43-2.08-1.396-3.633l.038-.08h2.396c0 .94.235 1.69.71 2.277.474.577 1.087.87 1.85.87.81 0 1.44-.277 1.9-.838.454-.565.69-1.358.69-2.397 0-1.097-.22-1.906-.65-2.427-.447-.52-1.1-.78-1.987-.78h-1.72v-1.87zm39.122 9.92h-10.1v-1.632l4.945-6.38c.79-1.1 1.35-2.02 1.67-2.748.314-.73.473-1.43.473-2.115 0-.934-.197-1.69-.593-2.275-.41-.59-.953-.89-1.654-.89-.883 0-1.547.33-1.983.976-.447.653-.657 1.543-.657 2.664h-2.42l-.02-.06c-.03-1.527.41-2.818 1.32-3.877.918-1.036 2.17-1.567 3.76-1.567 1.466 0 2.63.46 3.487 1.365.85.908 1.273 2.116 1.273 3.61 0 1-.263 2-.784 2.99-.528.985-1.283 2.073-2.285 3.29l-3.396 4.786h6.964v1.87zm4.156-6.024h4.143v-8.07l-.077-.007-.247.51-3.82 7.57zm6.638 0h1.93v1.865h-1.93v4.16h-2.495v-4.155h-6.54l-.076-1.37 6.54-12.125h2.572v11.63zm34.573 6.025h-10.1v-1.632l4.95-6.383c.8-1.1 1.357-2.02 1.68-2.745.31-.73.47-1.43.47-2.115 0-.933-.197-1.69-.603-2.274-.392-.59-.947-.89-1.65-.89-.874 0-1.54.33-1.984.977-.44.653-.66 1.543-.66 2.664h-2.41l-.027-.06c-.03-1.526.413-2.817 1.323-3.876.916-1.035 2.17-1.566 3.76-1.566 1.47 0 2.63.46 3.482 1.365.85.907 1.273 2.115 1.273 3.61 0 1-.26 2-.78 2.988-.525.986-1.29 2.074-2.282 3.29l-3.4 4.787h6.963v1.87zm2.72-7.936l.866-9.72h8.077v2.026h-5.99l-.466 5.23c.306-.3.66-.55 1.064-.756.404-.19.868-.307 1.385-.317 1.417-.018 2.534.497 3.34 1.546.81 1.045 1.215 2.47 1.215 4.287 0 1.75-.423 3.173-1.273 4.258-.842 1.086-2.07 1.63-3.702 1.63-1.35 0-2.486-.42-3.413-1.257-.917-.84-1.363-2.043-1.34-3.63l.03-.06 2.36-.043c0 1.004.223 1.77.656 2.31.428.543.997.815 1.707.815.817 0 1.43-.343 1.836-1.053.424-.71.627-1.69.627-2.95 0-1.172-.212-2.12-.645-2.84-.42-.72-1.04-1.073-1.843-1.073-.7 0-1.228.15-1.584.445-.355.307-.592.76-.734 1.363l-2.164-.217zm48.45 7.935h-10.1v-1.633l4.95-6.382c.795-1.1 1.357-2.02 1.675-2.746.31-.73.475-1.43.475-2.116 0-.934-.2-1.69-.606-2.275-.396-.59-.955-.89-1.652-.89-.88 0-1.54.33-1.982.975-.443.655-.66 1.545-.66 2.666h-2.413l-.02-.06c-.037-1.526.406-2.817 1.32-3.876.914-1.036 2.173-1.567 3.757-1.567 1.47 0 2.63.458 3.488 1.364.854.908 1.277 2.116 1.277 3.61 0 1-.26 2-.784 2.99-.523.984-1.29 2.072-2.283 3.29l-3.4 4.785h6.96v1.87zm7.5-9.92c-.637 0-1.185.155-1.64.454-.46.3-.81.706-1.05 1.217v1.62c0 1.597.26 2.82.78 3.69.518.893 1.184 1.325 2.003 1.325.74 0 1.327-.41 1.764-1.233.442-.817.652-1.82.652-3.014 0-1.19-.22-2.165-.67-2.92-.45-.765-1.065-1.144-1.847-1.144m.675-7.987c.546 0 1.067.07 1.575.2.5.14.96.33 1.375.56l-.485 1.812c-.38-.223-.75-.38-1.13-.49-.38-.12-.817-.174-1.32-.174-1.01 0-1.82.477-2.44 1.426-.628.942-.936 2.22-.936 3.8v.5c.41-.46.895-.82 1.46-1.07.56-.257 1.175-.386 1.84-.386 1.36 0 2.43.55 3.22 1.65.79 1.1 1.188 2.507 1.188 4.23 0 1.78-.457 3.24-1.364 4.383-.91 1.147-2.097 1.715-3.56 1.715-1.546 0-2.81-.62-3.797-1.858-.988-1.242-1.486-2.955-1.486-5.168v-3.828c0-2.186.56-3.958 1.67-5.306 1.12-1.33 2.507-2.006 4.192-2.006M315 593.766h-10.1v-1.64l4.94-6.38c.8-1.096 1.358-2.015 1.677-2.742.318-.726.477-1.426.477-2.11 0-.94-.2-1.692-.6-2.283-.4-.583-.95-.88-1.644-.88-.888 0-1.55.32-1.988.977-.448.656-.664 1.545-.664 2.657h-2.41l-.027-.057c-.03-1.523.41-2.817 1.317-3.865.92-1.05 2.17-1.57 3.768-1.57 1.465 0 2.626.447 3.48 1.362.852.906 1.275 2.104 1.275 3.6 0 1.013-.264 2.01-.78 2.99-.528.984-1.29 2.08-2.28 3.293l-3.4 4.79H315v1.863zm12.315-15.754c-1.727 2.243-2.908 4.4-3.544 6.45-.635 2.055-1.09 4.597-1.356 7.617l-.152 1.685h-2.5l.15-1.687c.27-2.84.818-5.403 1.627-7.686.81-2.29 1.923-4.42 3.344-6.41h-8.08v-1.87h10.514v1.9zm33.054 15.753h-10.11v-1.64l4.937-6.38c.802-1.096 1.36-2.015 1.68-2.742.317-.728.483-1.428.483-2.11 0-.94-.207-1.694-.606-2.285-.4-.584-.954-.88-1.655-.88-.88 0-1.54.32-1.98.976-.45.653-.67 1.542-.67 2.654h-2.414l-.024-.057c-.035-1.522.405-2.816 1.32-3.864.916-1.05 2.172-1.57 3.756-1.57 1.467 0 2.635.447 3.48 1.362.853.906 1.286 2.104 1.286 3.6 0 1.013-.267 2.01-.79 2.99-.523.984-1.28 2.08-2.28 3.293l-3.4 4.79h6.964v1.864zm9.334-12.997c0-.892-.192-1.622-.6-2.187-.4-.57-.925-.85-1.582-.85-.652 0-1.18.27-1.572.83-.385.54-.59 1.273-.59 2.21 0 .91.205 1.644.6 2.19.397.546.928.815 1.595.815.65 0 1.173-.27 1.572-.814.394-.55.586-1.28.586-2.195m.4 8.16c0-.974-.236-1.76-.727-2.37-.492-.61-1.104-.914-1.86-.914-.754 0-1.37.304-1.847.908-.47.61-.707 1.404-.707 2.38 0 1.012.23 1.795.697 2.376.465.563 1.09.852 1.886.852.75 0 1.365-.29 1.846-.87.476-.574.713-1.36.713-2.363m2.13-8.213c0 .937-.224 1.75-.687 2.45-.45.697-1.06 1.208-1.845 1.553.887.364 1.59.928 2.116 1.684.52.757.78 1.623.78 2.612 0 1.614-.464 2.855-1.4 3.71-.94.86-2.157 1.293-3.656 1.293-1.523 0-2.755-.43-3.692-1.295-.93-.855-1.402-2.096-1.402-3.71 0-.99.26-1.874.78-2.63.52-.754 1.22-1.314 2.114-1.68-.773-.335-1.39-.856-1.835-1.556-.44-.696-.665-1.51-.665-2.44 0-1.537.43-2.735 1.287-3.585.856-.854 1.983-1.268 3.384-1.268 1.398 0 2.54.412 3.41 1.265.873.85 1.31 2.048 1.31 3.584m35.61 13.055h-10.1v-1.64l4.94-6.378c.8-1.098 1.357-2.017 1.675-2.744.32-.727.48-1.427.48-2.11 0-.94-.2-1.693-.596-2.284-.402-.587-.954-.88-1.654-.88-.88 0-1.54.32-1.98.973-.447.655-.67 1.544-.67 2.656h-2.41l-.023-.058c-.035-1.526.405-2.82 1.32-3.868.918-1.05 2.17-1.57 3.758-1.57 1.464 0 2.63.447 3.482 1.362.85.906 1.28 2.104 1.28 3.6 0 1.01-.267 2.007-.788 2.99-.528.98-1.283 2.08-2.28 3.29l-3.403 4.79h6.966v1.865zm6.87-7.418c.643 0 1.19-.18 1.634-.54.457-.36.8-.82 1.026-1.39v-2.046c0-1.513-.227-2.672-.694-3.465-.457-.787-1.1-1.18-1.926-1.18-.696 0-1.282.423-1.75 1.27-.463.85-.7 1.9-.7 3.138 0 1.247.214 2.26.644 3.036.42.79 1.013 1.175 1.77 1.175m-.412 5.813c.92 0 1.658-.42 2.223-1.26.567-.83.848-2.02.848-3.594v-.86c-.342.58-.772 1.024-1.276 1.32-.495.308-1.046.44-1.642.44-1.436 0-2.566-.533-3.406-1.625-.836-1.088-1.26-2.56-1.26-4.417 0-1.803.48-3.306 1.423-4.508.95-1.197 2.11-1.79 3.505-1.79 1.55 0 2.81.574 3.75 1.738.95 1.163 1.416 2.845 1.416 5.03v4.612c0 2.145-.513 3.81-1.552 4.996-1.04 1.185-2.38 1.78-4.026 1.78-.504 0-1.04-.07-1.6-.19-.562-.12-1.083-.303-1.56-.535l.335-1.8c.44.242.886.405 1.33.504.45.1.95.16 1.5.16m29.65-8.31h1.72c.827 0 1.437-.275 1.822-.82.385-.55.57-1.293.57-2.223 0-.956-.2-1.702-.6-2.25-.4-.554-.98-.826-1.744-.826-.703 0-1.28.283-1.725.83-.452.545-.672 1.265-.672 2.16h-2.386l-.035-.07c-.036-1.36.4-2.51 1.31-3.41.908-.923 2.06-1.37 3.463-1.37 1.486 0 2.667.435 3.56 1.294.89.87 1.338 2.102 1.338 3.682 0 .784-.213 1.54-.63 2.25-.422.716-1.02 1.26-1.796 1.635.904.328 1.577.863 2.017 1.606.437.74.657 1.596.657 2.56 0 1.605-.483 2.846-1.44 3.76-.962.91-2.194 1.363-3.69 1.363-1.408 0-2.59-.43-3.558-1.3-.97-.875-1.437-2.08-1.4-3.64l.03-.062h2.4c0 .92.23 1.672.706 2.253.47.59 1.088.888 1.856.888.81 0 1.435-.282 1.895-.85.458-.554.685-1.347.685-2.392 0-1.1-.215-1.903-.65-2.42-.445-.528-1.1-.78-1.98-.78h-1.72v-1.87zm16.826-1.264c0-1.6-.215-2.817-.65-3.637-.43-.81-1.05-1.22-1.86-1.22-.804 0-1.42.41-1.85 1.226-.42.833-.633 2.037-.633 3.63v4.68c0 1.61.22 2.83.65 3.653.432.822 1.052 1.24 1.864 1.24.797 0 1.41-.418 1.84-1.234.428-.82.645-2.044.645-3.66v-4.68zm2.5 4.354c0 2.29-.45 4.04-1.34 5.26-.897 1.213-2.11 1.824-3.64 1.824-1.545 0-2.767-.61-3.664-1.83-.907-1.223-1.36-2.972-1.36-5.25v-3.988c0-2.27.45-4.027 1.35-5.255.894-1.22 2.116-1.83 3.645-1.83 1.54 0 2.757.61 3.658 1.834.9 1.23 1.353 2.984 1.353 5.254v3.99z" fill="#70706e"/><path d="M343.706 314.71c.92.146 2.647.395 6.91.395 1.587 0 2.34-.198 2.34-1.185 0-.96-.363-1.207-2.007-1.207h-1.76c-3.6 0-6.27-.566-6.27-5.79 0-5.03 4.343-5.695 8.8-5.695 2.926 0 6.35.37 8.08.592v5.225c-1.867-.123-3.9-.37-6.464-.37-2.31 0-2.954.32-2.954 1.232 0 .666.39 1.06 2.09 1.06 6.02 0 7.94.667 7.94 5.03 0 5.05-3.426 5.716-8.357 5.716-2.758 0-5.6-.2-8.36-.495v-4.51zm22.254-13.038h16.245v5.126h-8.583v1.874h8.583v4.115h-8.583v1.874h8.583v4.61H365.96v-17.59zm30.086 8.578h2.23c1.838 0 2.702-.57 2.702-2.022 0-1.38-.753-1.947-2.257-1.947h-2.67v3.97zm-7.66-8.58h12.87c4.57 0 7.19 1.037 7.19 6.213 0 4.09-2.23 6.483-7.385 6.483h-5.01v4.903h-7.66v-17.6zm30.334 5.818h-5.24v-5.815h18.138v5.815h-5.238v11.78h-7.66v-11.78zm18.16-5.816h16.244v5.126h-8.583v1.874h8.59v4.115h-8.58v1.874h8.584v4.61h-16.25v-17.59zm22.422 0h9.555l3.038 9.045h.055l3.234-9.045h9.333v17.596h-6.827l.28-10.596h-.056l-4.012 10.596h-3.984l-4.012-10.596h-.056l.277 10.596h-6.825v-17.596zm38.664 13.48h3.455c1.73 0 2.48-.296 2.48-1.405 0-.91-.5-1.428-2.06-1.428h-3.87v2.83zm0-6.26h3.818c1.17 0 1.922-.615 1.922-1.38 0-1.01-.698-1.404-1.977-1.404h-3.77v2.785zm-7.27-7.22h14.6c3.175 0 5.487.715 5.487 4.435 0 2.91-1.952 3.944-5.322 4.29v.05c3.57.047 5.52.985 5.52 4.238 0 3.722-2.59 4.585-7.55 4.585H490.7v-17.598zm26.014 0h16.245v5.126h-8.583v1.874h8.583v4.115h-8.583v1.874h8.583v4.61H516.71v-17.59zm30.086 8.258h2.395c1.51 0 2.71-.248 2.71-1.975 0-1.134-.61-1.675-2.31-1.675h-2.79v3.65zm-7.66-8.258h13.26c3.9 0 7.16.74 7.16 5.075 0 3.33-1.784 4.982-5.628 5.055l6.38 7.466h-8.86l-4.57-6.16h-.082v6.16h-7.66v-17.596zm-7.576 414.196V525.796l45.9-45.484h128.05v235.556H531.56z" fill="#fff"/><path d="M577.462 525.796H531.56l45.902-45.483v45.483z" fill="#15b0bf"/><path d="M531.56 525.796h45.9l-45.9 45.478v-45.478z" fill="#d1ecfb"/><g clip-path="url(#a)" opacity=".1" transform="matrix(2 0 0 -2 -699.36 1507.02)"><path d="M637.023 517.006l-22.9-22.903v-73.908h43.392v96.81h-20.492z"/></g><path d="M435.103 663.63V473.557l-.69-46.094 174.64.61V663.63z" fill="#fff"/><path d="M477.373 612.947v-29.69c-14.666.962-26.3 13.03-26.3 27.82 0 15.428 12.626 27.927 28.188 27.927 14.93 0 27.12-11.52 28.08-26.057h-29.96z" fill="#2c5871"/><path d="M505.98 605.934c0-11.53-9.424-20.873-21.056-20.873v20.88h21.056z" fill="#f99b1c"/><path d="M491.104 526.745c-.563 1.722-1.467 3.27-2.682 4.565l9.15 12.656c4.624-3.946 7.945-9.34 9.204-15.5l-15.672-1.72z" fill="#a6dae9"/><path d="M481.767 510.692c5.33 1.1 9.37 5.557 9.9 11.018l15.65 1.712c0-.175.022-.344.022-.525 0-14.532-11.24-26.457-25.58-27.742v15.537z" fill="#f99b1c"/><path d="M469.947 514.542c1.743-1.913 4.05-3.303 6.71-3.85v-15.538c-8.354.744-15.618 5.107-20.264 11.482l13.554 7.906z" fill="#15b0bf"/><path d="M484.283 534.274c-1.556.69-3.267 1.083-5.075 1.083-6.944 0-12.572-5.583-12.572-12.46 0-1.408.287-2.73.718-3.987l-13.554-7.912c-1.72 3.616-2.726 7.634-2.726 11.9 0 15.394 12.594 27.867 28.134 27.867 5.187 0 10.03-1.406 14.202-3.845l-9.127-12.646z" fill="#2c5871"/><path d="M520.583 502.055h67.808v-6.9h-67.8v6.9z" fill="#15b0bf"/><path d="M520.583 523.71h67.808v-6.894h-67.8v6.895zm0 21.662h67.808v-6.89h-67.8v6.89z" fill="#a6dae9"/><path d="M520.583 590.152h47.18v-6.895h-47.18v6.895z" fill="#15b0bf"/><path d="M520.583 611.826h67.808v-6.9h-67.8v6.9zm0 21.654h67.808v-6.893h-67.8v6.894z" fill="#a6dae9"/><path d="M662.76 666.244l-.007-147.275c-2.255.53-4.03 3.24-4.312 6.64v140.62l4.32.004z" fill="#f9a818"/><path d="M648.168 666.236l10.273.002V525.614c0-.027-.01-.04-.01-.073v.1c-.31-3.81-2.477-6.76-5.114-6.77-2.64.01-4.807 2.96-5.12 6.77 0-.03 0-.06-.002-.09 0 .032-.01.046-.01.073h-.005v140.62z" fill="#f5e6b6"/><path d="M648.168 525.615c-.282-3.403-2.052-6.116-4.317-6.646l.01 147.27 4.317-.01V525.61z" fill="#f9a818"/><path d="M643.845 518.97c2.26.522 4.042 3.24 4.323 6.646h.004c0-.03.012-.044.012-.074.004.03.004.06.004.096.31-3.81 2.477-6.76 5.117-6.772 2.638.012 4.805 2.96 5.115 6.772.006-.036.006-.066.006-.096.004.03.008.044.014.074.283-3.406 2.06-6.12 4.33-6.645l-9.467-17.93-9.458 17.93z" fill="#f0b16c"/><path d="M657.952 509.837l-4.65-8.802-4.645 8.802c1.496.536 3.047.834 4.646.83 1.602 0 3.157-.294 4.65-.83" fill="#103754"/><path d="M662.76 666.348h-4.32v8.486l4.313-.004.006-8.482z" fill="#c62229"/><path d="M658.44 666.348h-10.27l-.002 8.482 10.275.004v-8.486z" fill="#f85a68"/><path d="M648.168 666.348h-4.317v8.486l4.32-.004v-8.482z" fill="#c62229"/></svg>