<svg xmlns="http://www.w3.org/2000/svg" width="1000" height="1000"><path d="M631.133 517.268c.007 6.705-5.468 12.12-12.225 12.097-6.76-.023-12.247-5.472-12.254-12.177-.007-6.704 5.468-12.118 12.23-12.096 6.756.022 12.242 5.472 12.25 12.176" fill="#fff"/><path d="M370.303 340.018c.002 1.416-1.154 2.56-2.582 2.555-1.422-.005-2.58-1.156-2.582-2.572l-.025-24.213c0-1.42 1.154-2.563 2.58-2.558 1.43.004 2.59 1.155 2.59 2.574l.025 24.22zm-13.39 2.472c.45.717-.167 1.9-1.374 2.647-1.21.75-2.56.774-3.01.062l-7.7-12.218c-.45-.716.16-1.9 1.37-2.65 1.21-.745 2.557-.77 3.007-.058l7.7 12.21zm22.492.17c-.448.71.17 1.9 1.38 2.653 1.212.757 2.558.792 3.007.082l7.676-12.162c.448-.712-.168-1.9-1.38-2.658-1.212-.753-2.56-.788-3.007-.078l-7.67 12.162zm3.72 25.15c.01 8.34-6.802 15.083-15.217 15.055-8.415-.028-15.243-6.814-15.25-15.156-.01-8.348 6.804-15.09 15.22-15.06 8.414.022 15.24 6.812 15.247 15.16" fill="#a02c2c"/><path d="M698.633 517.49l-295.622-.967-.22-215.76 295.62.967.228 215.76z" fill="#fff"/><path d="M616.69 393.914c.037 36.008-29.37 65.108-65.687 64.99-36.314-.12-65.777-29.412-65.814-65.42-.04-36.012 29.36-65.112 65.673-64.993 36.316.12 65.785 29.418 65.822 65.43" fill="#c83737"/><path d="M559.394 429.087l-16.34-.053-.074-70.723 16.34.06.074 70.722z" fill="#fffeff"/><path d="M515.27 385.477l71.318.234.017 16.21-71.32-.23-.016-16.21z" fill="#fffeff"/><path d="M296.453 516.17l107.615.354-.154-148.9-70.012-.23s-28.276 52.19-33.09 72.066c-4.474 18.465-4.36 76.71-4.36 76.71" fill="#fff"/><path d="M311.734 437.398l79.527.26-.053-57.218-53.162-.174-26.305 57.132z" fill="#2ad4ff"/><path d="M698.608 492.668l-401.774-1.94.29-9.02 401.473 1.316z" fill="#c83737"/><path d="M382.615 519.264c.02 18.11-14.77 32.74-33.03 32.68-18.26-.06-33.08-14.785-33.1-32.897-.017-18.108 14.772-32.74 33.033-32.68 18.258.06 33.078 14.788 33.097 32.897m270.21.184c.02 18.112-14.77 32.74-33.03 32.68-18.26-.06-33.077-14.785-33.095-32.896-.02-18.11 14.768-32.74 33.03-32.68 18.256.06 33.077 14.787 33.095 32.896" fill="#005975"/><path d="M373.103 519.635c.254 12.976-10.08 23.266-23.074 22.99-13-.276-23.75-11.013-24-23.99-.255-12.975 10.08-23.265 23.08-22.99 12.993.277 23.735 11.014 23.99 23.99m270.3.422c.25 12.977-10.08 23.266-23.08 22.99-13-.276-23.742-11.012-23.995-23.99-.255-12.975 10.08-23.264 23.08-22.988 12.992.27 23.735 11.01 23.99 23.982" fill="#ccc"/><path d="M433.36 578.29h40.764v-42.51H433.36v42.507z" fill="#d89e81"/><path d="M475.28 558.045l5.185.354c12.952 3.17 27.123 5.42 36.556 15.81 5.88 6.47 16.09 60.56 16.09 60.56h-79.98v-61.24c11.258 0 22.33-7.04 22.33-15.4" fill="#216778"/><path d="M433.098 558.4h-6.938c-12.95 3.173-27.136 5.423-36.57 15.81-5.877 6.47-16.085 60.563-16.085 60.563h79.977v-61.24c-11.257 0-20.384-6.776-20.384-15.134" fill="#216778"/><path d="M452.886 413.898c19.793 0 51.093 10.7 51.093 60.84 0 28.95-9.93 47.916-14.25 53.163-3.98 4.83-26.35 15.118-36.85 15.118v-129.12" fill="#e9b89d"/><path d="M514.68 486.943c.872-8.01-3.142-15.12-8.964-15.88-5.825-.76-11.253 5.12-12.127 13.132-.88 8.01 3.14 15.117 8.962 15.877 5.82.758 11.25-5.12 12.122-13.13m-60.938-72.794c-19.794 0-51.095 10.7-51.095 60.84 0 28.95 9.925 47.916 14.25 53.163 3.98 4.83 26.35 15.118 36.845 15.118v-129.12" fill="#e9b89d"/><path d="M392.8 486.943c-.872-8.01 3.14-15.12 8.963-15.88 5.826-.76 11.253 5.12 12.126 13.132.87 8.01-3.147 15.117-8.97 15.877-5.82.758-11.25-5.12-12.125-13.13" fill="#e9b89d"/><path d="M453.74 524.348c9.226 0 16.704-2.9 16.704-6.473h-33.407c0 3.574 7.478 6.473 16.703 6.473" fill="#fff"/><path d="M494.915 478.964c2.13-5.172 6.346-8.483 10.8-7.902.01 0 .024.006.035.008 2.02-5.948 2.745-13.018-.028-20.522-14.74-39.903 2.003-47.028 2.003-47.028s-16.3-.693-28.944 9.26c8.72-12.855 12.65-16.173 12.65-16.173s-18.312-3.732-37.93 15.34c4.36-10.365 9.59-15.636 9.59-15.636s-40.986.3-55.812 28.497c-8.45 16.072-9.102 33.482-7.056 46.643.5-.174 1.01-.314 1.547-.384 1.933-.25 3.82.24 5.51 1.286v-12.3c7.85-3.32 16.134-7.466 15.696-24.05h57.555s-1.31 18.66 14.39 23.22v19.746" fill="#4e3024"/><path d="M453.58 577.558c14.846 0 26.62-8.452 26.62-19.424l-6.093-.972c0 8.27-9.48 15.506-20.528 15.528-11.06-.022-20.09-6.817-20.09-15.086l-6.628.707c0 10.978 11.862 19.25 26.712 19.25" fill="#35988c"/><path d="M431.773 438.14c20.067 0 51.8 6.54 51.8 37.184 0 17.694-10.06 29.284-14.446 32.49-4.033 2.95-26.714 9.237-37.354 9.237v-78.91" fill="#e9b89d"/><path fill="#216778" fill-rule="evenodd" d="M394.904 578.423h121.622v55.86H394.904z"/><path fill="#fff6d5" fill-rule="evenodd" d="M593.382 487.672h105.53v78.308H593.38z"/><path d="M692.636 475.973v-78.697c2.485-2.35 4.156-5.637 4.156-9.444-.004-7.04-5.544-12.79-12.382-12.79-6.88 0-12.378 5.75-12.378 12.79 0 3.81 1.67 7.093 4.156 9.477v77.54h-24.154v-28.29c0-4.7-3.704-8.5-8.226-8.5-4.573 0-8.237 3.8-8.237 8.496v28.29H617.18V459.22c0-7.046-5.548-12.745-12.34-12.745-6.797 0-12.35 5.7-12.35 12.746v18.048c-4.915 2.965-8.418 8.272-8.418 14.56v68.817c0 9.37 2.523 21.232 5.63 26.384 3.106 5.172 5.63 17.013 5.63 26.41v68.76c-.02 9.35 7.4 17.034 16.432 17.034h64.096c9.04 0 16.452-7.684 16.452-17.055v-68.77c0-9.39 2.524-21.235 5.62-26.387 3.093-5.19 5.62-17.013 5.62-26.404v-68.79c0-7.345-4.6-13.455-10.91-15.86zm-.326 82.568h-97v-8.52h96.996v8.526zm0-17.9h-97v-8.51h96.996v8.514zm0-17.94h-97v-8.51h96.996v8.515zm0-17.893h-97v-8.54h96.996v8.54z" fill="#666"/></svg>