<?xml version="1.0" encoding="UTF-8" standalone="no"?>
<!-- Created with Inkscape (http://www.inkscape.org/) -->

<svg
   xmlns:dc="http://purl.org/dc/elements/1.1/"
   xmlns:cc="http://creativecommons.org/ns#"
   xmlns:rdf="http://www.w3.org/1999/02/22-rdf-syntax-ns#"
   xmlns:svg="http://www.w3.org/2000/svg"
   xmlns="http://www.w3.org/2000/svg"
   xmlns:sodipodi="http://sodipodi.sourceforge.net/DTD/sodipodi-0.dtd"
   xmlns:inkscape="http://www.inkscape.org/namespaces/inkscape"
   width="1000.01"
   height="1000"
   id="svg2"
   version="1.1"
   inkscape:version="0.48.4 r9939"
   sodipodi:docname="fuel(Min).svg">
  <defs
     id="defs4" />
  <sodipodi:namedview
     id="base"
     pagecolor="#ffffff"
     bordercolor="#666666"
     borderopacity="1.0"
     inkscape:pageopacity="0.0"
     inkscape:pageshadow="2"
     inkscape:zoom="0.3535534"
     inkscape:cx="-232.88808"
     inkscape:cy="611.55455"
     inkscape:document-units="px"
     inkscape:current-layer="layer1"
     showgrid="false"
     inkscape:window-width="1615"
     inkscape:window-height="1026"
     inkscape:window-x="65"
     inkscape:window-y="24"
     inkscape:window-maximized="1">
    <inkscape:grid
       type="xygrid"
       id="grid3823"
       empspacing="5"
       visible="true"
       enabled="true"
       snapvisiblegridlinesonly="true" />
  </sodipodi:namedview>
  <metadata
     id="metadata7">
    <rdf:RDF>
      <cc:Work
         rdf:about="">
        <dc:format>image/svg+xml</dc:format>
        <dc:type
           rdf:resource="http://purl.org/dc/dcmitype/StillImage" />
        <dc:title />
      </cc:Work>
    </rdf:RDF>
  </metadata>
  <g
     inkscape:label="Layer 1"
     inkscape:groupmode="layer"
     id="layer1"
     transform="translate(0,-52.362183)">
    <g
       id="g3817"
       transform="translate(11.31369,12.727877)">
      <g
         transform="translate(574.87779,-218.60454)"
         id="g3806">
        <path
           inkscape:connector-curvature="0"
           id="path1340"
           style="fill:#006680;fill-opacity:1;fill-rule:nonzero;stroke:none"
           d="m 83.296952,880.5812 c 0,13.08072 -11.053258,23.69041 -24.681954,23.69041 l -361.440028,0 c -13.62869,0 -24.69151,-10.60969 -24.69151,-23.69041 l 0,-207.93606 c 0,-13.08529 11.06282,-23.69035 24.69151,-23.69035 l 361.440028,0 c 13.628696,0 24.681954,10.60506 24.681954,23.69035 l 0,207.93606 z" />
        <path
           d="m 83.298363,684.8132 -410.813493,0 0,43.43085 410.813493,0 0,-43.43085 z"
           style="fill:#b3b3b3;fill-opacity:1;fill-rule:nonzero;stroke:none"
           id="path1342"
           inkscape:connector-curvature="0" />
        <path
           inkscape:connector-curvature="0"
           id="path1346"
           style="fill:#ffe680;fill-opacity:1;fill-rule:nonzero;stroke:none"
           d="m 52.442545,806.07229 c 0,29.98271 -25.342517,54.28393 -56.5874993,54.28393 -31.2497447,0 -56.5826857,-24.30122 -56.5826857,-54.28393 0,-29.9827 25.332941,-54.28392 56.5826857,-54.28392 31.2449823,0 56.5874993,24.30122 56.5874993,54.28392" />
        <path
           d="m -101.36614,771.50494 -197.00079,0 0,-16.45651 197.00079,0 0,16.45651 z"
           style="fill:#c83737;fill-opacity:1;fill-rule:nonzero;stroke:none"
           id="path1348"
           inkscape:connector-curvature="0" />
        <path
           d="m -101.36614,803.03086 -197.00079,0 0,-16.4519 197.00079,0 0,16.4519 z"
           style="fill:#37abc8;fill-opacity:1;fill-rule:nonzero;stroke:none"
           id="path1350"
           inkscape:connector-curvature="0" />
        <path
           d="m -101.36614,835.93925 -197.00079,0 0,-16.4519 197.00079,0 0,16.4519 z"
           style="fill:#37abc8;fill-opacity:1;fill-rule:nonzero;stroke:none"
           id="path1352"
           inkscape:connector-curvature="0" />
        <path
           d="m -101.36614,867.47896 -197.00079,0 0,-16.45647 197.00079,0 0,16.45647 z"
           style="fill:#37abc8;fill-opacity:1;fill-rule:nonzero;stroke:none"
           id="path1354"
           inkscape:connector-curvature="0" />
      </g>
      <g
         transform="translate(-186.67618,-342.23968)"
         id="g3812">
        <path
           d="m 521.30779,793.47809 c 0,11.2012 10.52507,20.27931 23.51104,20.27931 12.98248,0 23.50578,-9.0789 23.50578,-20.27931 0,-11.20039 -23.50578,-34.5757 -23.50578,-34.5757 0,0 -23.51104,23.37541 -23.51104,34.5757 z"
           id="path7"
           inkscape:connector-curvature="0"
           style="fill:#ff7f2a" />
        <path
           style="fill:#87aade"
           d="m 913.66861,844.4444 c -6.50236,-11.645 -16.19121,-21.6391 -21.2533,-28.66061 -6.58616,-3.2617 -13.17234,-6.52329 -19.7585,-9.7849 6.98762,-6.1721 -3.86121,-7.2174 -8.33483,-10.0951 -38.32596,-17.8587 -76.64744,-35.72119 -114.97234,-53.5634 -29.26401,-2.14599 -58.52808,-4.292 -87.7921,-6.4379 -2.01525,8.3211 -7.8393,4.2198 -13.2732,1.391 -10.2619,-4.4108 -18.37194,-15.6857 -30.6852,-13.7661 -17.36712,-0.1968 -38.52806,3.28 -57.79209,4.92 -4.9712,7.2087 1.43898,12.5806 2.15848,18.8708 17.61629,-1.1799 35.47783,-3.662 52.94066,-4.0273 10.84403,5.0529 21.68805,10.1058 32.53206,15.1587 -6.28544,5.8616 -2.57542,8.8497 4.4602,10.8818 19.8922,9.269 39.78445,18.5381 59.67667,27.8072 3.96877,13.3954 7.93755,26.7908 11.90631,40.1862 9.22245,3.9175 18.19914,9.2303 27.57205,12.2937 12.51917,-1.0948 25.12902,-3.1977 37.59298,-3.6783 16.70669,4.7271 33.41337,9.4542 50.12006,14.1813 6.00185,-9.587 12.00548,-19.1731 18.00643,-28.7557 7.77341,3.8497 15.54683,7.6995 23.32024,11.5492 10.94553,-3.5619 16.8878,24.6357 5.77189,32.16 -18.38626,20.9348 -48.02323,26.8712 -74.42097,33.0415 -37.6047,9.3617 -80.7978,2.691 -113.57116,26.3514 -20.74677,14.4025 -30.97317,43.23129 -18.22376,65.73811 13.66791,26.0992 44.66365,40.4055 74.10536,40.2309 -0.0505,-7.0789 -0.1007,-14.1577 -0.15122,-21.2365 -24.8953,0.4782 -54.14426,-15.7373 -54.89883,-42.01692 1.18442,-23.59949 26.3081,-36.25539 47.85128,-38.82669 35.28399,-4.2232 71.10815,-7.0215 104.92784,-18.4737 27.58779,-8.7895 59.04341,-24.5739 64.72613,-54.9142 1.15882,-6.9014 0.23,-14.0764 -2.54118,-20.5245 z m -83.3881,-2.6881 c -14.65156,-3.5728 -28.88032,-9.3725 -43.82433,-11.4053 -7.68111,-0.5915 -15.36226,-1.1831 -23.04337,-1.7746 5.33253,-8.5109 10.66071,-17.0243 15.99114,-25.5363 19.38429,9.0326 38.7686,18.0653 58.15291,27.0979 -2.42544,3.8728 -4.85091,7.7456 -7.27635,11.6183 z"
           id="path9"
           inkscape:connector-curvature="0"
           sodipodi:nodetypes="ccccccccccccccccccccccccccccccccccccc" />
        <path
           d="m 895.69933,822.0409 2.48711,-3.7409 -24.31781,-12.0523 3.04229,-4.8613 -101.32977,-47.2555 -0.002,0 -26.2862,-12.2533 -88.69516,-6.5093 c -7.26397,12.8175 -11.99565,19.57449 -18.57613,29.6876 l 69.10819,32.2276 12.0288,40.6319 26.8831,12.5347 38.01298,-4.0898 51.57489,14.6046 14.40756,-23.0288 0.002,0 3.78221,-6.0476 23.56015,11.6773 1.64152,-2.46861 c 10.29012,-16.0257 0.65728,-0.6448 12.67632,-19.0641 z m -64.64293,20.3608 -39.39778,-11.1559 -28.15778,-2.1703 3.56723,-5.6987 12.58839,-20.1208 58.75115,27.3985 z"
           id="path9-5"
           inkscape:connector-curvature="0"
           style="fill:#2ca02c"
           sodipodi:nodetypes="ccccccccccccccccccccccccccc" />
      </g>
    </g>
  </g>
</svg>
