<svg xmlns="http://www.w3.org/2000/svg" width="1000.01" height="1000"><path d="M669.488 622.342c0 13.08-11.053 23.69-24.682 23.69h-361.44c-13.628 0-24.69-10.61-24.69-23.69V414.406c0-13.085 11.062-23.69 24.69-23.69h361.44c13.63 0 24.682 10.605 24.682 23.69v207.936z" fill="#006680"/><path d="M669.49 426.574H258.676v43.43H669.49v-43.43z" fill="#b3b3b3"/><path d="M638.634 547.833c0 29.983-25.342 54.284-56.587 54.284-31.25 0-56.583-24.3-56.583-54.284 0-29.982 25.333-54.283 56.583-54.283 31.245 0 56.587 24.3 56.587 54.283" fill="#ffe680"/><path d="M484.825 513.266h-197V496.81h197v16.456z" fill="#c83737"/><path d="M484.825 544.792h-197V528.34h197v16.452zm0 32.908h-197v-16.45h197v16.45zm0 31.54h-197v-16.456h197v16.456z" fill="#37abc8"/><path d="M345.945 411.604c0 11.2 10.525 20.28 23.51 20.28 12.984 0 23.507-9.08 23.507-20.28 0-11.2-23.506-34.576-23.506-34.576s-23.51 23.376-23.51 34.576z" fill="#ff7f2a"/><path d="M738.306 462.57c-6.502-11.645-16.19-21.64-21.253-28.66l-19.76-9.785c6.99-6.172-3.86-7.217-8.334-10.095-38.33-17.86-76.65-35.72-114.98-53.564l-87.79-6.437c-2.018 8.32-7.84 4.21-13.276 1.39-10.26-4.41-18.37-15.69-30.685-13.77-17.367-.2-38.528 3.28-57.79 4.92-4.97 7.21 1.44 12.58 2.16 18.87 17.615-1.18 35.48-3.66 52.94-4.03l32.532 15.16c-6.286 5.86-2.576 8.85 4.46 10.88l59.677 27.81 11.91 40.183c9.22 3.917 18.196 9.23 27.57 12.294 12.52-1.094 25.13-3.197 37.592-3.68l50.12 14.184 18.008-28.755 23.32 11.55c10.95-3.565 16.89 24.633 5.776 32.16-18.384 20.932-48.02 26.87-74.42 33.04-37.603 9.36-80.8 2.69-113.57 26.35-20.746 14.402-30.973 43.23-18.223 65.74 13.67 26.1 44.664 40.405 74.106 40.23l-.15-21.237c-24.896.48-54.145-15.737-54.9-42.017 1.184-23.6 26.31-36.256 47.85-38.827 35.285-4.224 71.11-7.023 104.93-18.475 27.59-8.79 59.043-24.574 64.725-54.914 1.16-6.9.23-14.075-2.54-20.524zm-83.388-2.688c-14.652-3.572-28.88-9.372-43.824-11.405-7.68-.59-15.363-1.183-23.044-1.775 5.333-8.51 10.66-17.024 15.99-25.536l58.154 27.098-7.276 11.618z" fill="#87aade"/><path d="M720.337 440.167l2.487-3.74-24.318-12.053 3.042-4.862-101.33-47.255-26.288-12.253-88.695-6.51c-7.264 12.818-11.995 19.575-18.576 29.688l69.1 32.228 12.03 40.63 26.88 12.536 38.012-4.09 51.574 14.605 14.41-23.02 3.782-6.046 23.56 11.677 1.64-2.47c10.29-16.024.657-.644 12.676-19.063zm-64.643 20.36l-39.398-11.155-28.158-2.17 3.568-5.7 12.588-20.12 58.75 27.4z" fill="#2ca02c"/></svg>