<svg xmlns="http://www.w3.org/2000/svg" width="1000" height="1000"><path d="M332.04 530.283l18.356-1.437 3.95 36.29-18.357 1.436c-9.65.755-18.29-5.503-19.207-13.906l-.624-5.732c-.915-8.405 6.23-15.896 15.875-16.65" fill="#d35f8d" fill-rule="evenodd"/><g fill-rule="evenodd"><path d="M336.738 535.86l14.3-1.118 2.666 24.497-14.3 1.113c-6.51.51-12.344-3.715-12.96-9.387l-.422-3.87c-.618-5.672 4.205-10.73 10.716-11.24" fill="#87deaa"/><path d="M376.952 633.133l.818-19.574-35.15.3-.817 19.57 35.15-.3z" fill="#bcbdbf"/><path d="M359.62 643.338l-47.955.412c-7.584.066-13.493-6.955-13.132-15.604l.247-5.9c.36-8.646 6.86-15.776 14.445-15.84l47.955-.413-1.56 37.345z" fill="#d35f8d"/><path d="M359.874 637.27l-44.765.385c-5.12.044-9.11-4.696-8.87-10.534l.167-3.98c.244-5.833 4.63-10.65 9.75-10.69l44.764-.384-1.05 25.21z" fill="#87deaa"/><path d="M373.128 629.14c-.77.007-1.363-.7-1.327-1.577.04-.877.69-1.594 1.46-1.6.77-.007 1.37.7 1.33 1.576-.034.872-.69 1.59-1.46 1.6m.35-8.346c-.77.007-1.363-.7-1.33-1.576.04-.878.69-1.596 1.46-1.6.77-.01 1.367.7 1.33 1.576-.037.877-.69 1.594-1.46 1.6" fill="#54585c"/><path d="M325.466 620.978c1.984 2.748 1.286 6.632-1.56 8.676-2.846 2.044-6.76 1.473-8.746-1.275-1.985-2.75-1.286-6.638 1.56-8.68 2.83-2.03 6.72-1.48 8.716 1.232" color="#000" fill="#c83737" fill-opacity=".38" overflow="visible"/></g><path d="M478.698 473.652c.355-.483-.572-.12.15-.4.088.206.118.395-.15.4m-.5.512c-.304-.124-.736.03-.766-.47.225.174.614.254.765.47" fill="#c8c7c5"/><path d="M666.83 672.65l-268.452.058-1.224-343.002 268.45-.063 1.226 343.005" fill="#fff"/><path d="M667.084 671.81l-266.1.056-1.224-342.5 266.1-.055 1.224 342.5m33.04-362.153c-.033-9.227-7.877-16.708-17.527-16.706l-298.607.063c-9.653.004-17.445 7.486-17.41 16.716l1.358 380.62c.033 9.23 7.88 16.71 17.53 16.71l298.607-.065c9.65 0 17.444-7.48 17.407-16.715l-1.357-380.624" fill="#53676c"/><path d="M666.243 671.834l-265.844-.027-.66-342.058 265.844.02.653 341.286" fill="#afe9dd" fill-rule="evenodd"/><path d="M663.45 347.237l-260.068.046-.422-15.084 260.07-.05.42 15.082" fill="#f03d5c"/><path d="M666.83 672.496l-.1-.162-.696-195.13.097-.037.7 195.3m-1.13-315.994l-.08.062-.095-26.615-204.2.045-.126-.213 204.43-.045.094 26.83" fill="#46464e"/><path d="M535.213 698.396c-4.3.967-8.565-1.912-9.522-6.43-.95-4.52 1.76-8.967 6.06-9.934 4.3-.967 8.56 1.913 9.52 6.432.96 4.52-1.75 8.966-6.052 9.932" fill="#003380" fill-rule="evenodd"/><g transform="translate(-558.63 -76.81)"><rect width="120.5" height="118.57" x="1043.428" y="484.711" rx="60.25" ry="59.285" transform="rotate(2)" fill="#4d4d4d" fill-rule="evenodd"/><g transform="translate(245 366.43)" fill="#006680" fill-rule="evenodd"><rect transform="rotate(8)" ry="23.542" rx="0" y="-10.436" x="858.47" height="23.542" width="12.034"/><rect transform="rotate(23) skewX(-1)" ry="23.568" rx="0" y="-225.172" x="853.496" height="23.568" width="12.021"/><rect transform="rotate(35) skewX(-1)" ry="23.643" rx="0" y="-413.251" x="802.832" height="23.643" width="11.984"/><rect transform="rotate(51) skewX(-1)" ry="23.776" rx="0" y="-622.019" x="680.062" height="23.776" width="11.918"/><rect transform="rotate(67) skewX(-1)" ry="23.916" rx="0" y="-790.564" x="507.215" height="23.916" width="11.848"/><rect transform="rotate(81) skewX(-1)" ry="24.017" rx="0" y="-902.234" x="315.955" height="24.017" width="11.796"/><rect transform="rotate(92)" ry="24.058" rx="0" y="-949.973" x="173.328" height="24.058" width="11.776"/><rect transform="rotate(-75)" ry="24.063" rx="0" y="944.666" x="8.366" height="24.063" width="11.773"/><rect transform="rotate(-61) skewX(1)" ry="24.016" rx="0" y="916.718" x="200.237" height="24.016" width="11.797"/><rect transform="rotate(-47) skewX(1)" ry="23.913" rx="0" y="831.843" x="406.195" height="23.913" width="11.849"/><rect transform="rotate(-34) skewX(1)" ry="23.804" rx="0" y="722.314" x="558.536" height="23.804" width="11.904"/><rect transform="rotate(-20) skewX(1)" ry="23.675" rx="0" y="555.253" x="707.931" height="23.675" width="11.968"/><rect transform="rotate(-4) skewX(1)" ry="23.573" rx="0" y="339.416" x="819.978" height="23.573" width="12.018"/></g><rect width="11.939" height="23.576" x="-1034.884" y="576.324" rx="0" ry="23.576" transform="rotate(174)" fill="gray" fill-rule="evenodd"/><g transform="translate(245 366.4)" fill="gray" fill-rule="evenodd"><rect transform="rotate(162) scale(.9)" ry="23.65" rx="0" y="383.853" x="-726.292" height="23.65" width="11.902"/><rect transform="matrix(-.8 .5 .6 .8 0 0)" ry="23.734" rx="0" y="533.665" x="-593.727" height="23.734" width="11.86"/><rect transform="matrix(-.7 .8 .8 .7 0 0)" ry="23.833" rx="0" y="673.312" x="-398.602" height="23.833" width="11.811"/><rect transform="rotate(114)" ry="23.899" rx="0" y="754.534" x="-180.795" height="23.899" width="11.777"/><rect transform="rotate(102)" ry="23.916" rx="0" y="772.032" x="32.901" height="23.916" width="11.769"/><rect transform="matrix(0 1 1 0 0 0)" ry="23.899" rx="0" y="749.96" x="188.033" height="23.899" width="11.777"/><rect transform="rotate(-101)" ry="23.847" rx="0" y="-705.857" x="-387.448" height="23.847" width="11.804"/><rect transform="rotate(-114)" ry="23.77" rx="0" y="-597.717" x="-553.002" height="23.77" width="11.842"/><rect transform="matrix(-.7 -.8 -.8 .6 0 0)" ry="23.674" rx="0" y="-436.383" x="-705.31" height="23.674" width="11.89"/><rect transform="rotate(-143)" ry="23.603" rx="0" y="-276.181" x="-801.139" height="23.603" width="11.925"/><rect transform="rotate(-157)" ry="23.548" rx="0" y="-66.017" x="-866.565" height="23.548" width="11.953"/><rect transform="rotate(-174)" ry="23.541" rx="0" y="171.802" x="-870.389" height="23.541" width="11.956"/></g><text style="text-indent:0;text-align:center;line-height:125%;text-transform:none;block-progression:tb;-inkscape-font-specification:Roboto Medium" x="1227.532" y="510.237" transform="scale(.9 1.1)" font-size="59.299" font-weight="500" letter-spacing="0" word-spacing="0" text-anchor="middle" color="#000" fill="#fff" overflow="visible" font-family="Roboto"><tspan x="1227.532" y="510.237">50%</tspan></text></g></svg>