<svg xmlns="http://www.w3.org/2000/svg" width="1000" height="1000">
  <path fill="#d35f8d" fill-rule="evenodd" d="M332.04 530.282l18.356-1.437 3.95 36.29-18.357 1.436c-9.65.76-18.29-5.5-19.2-13.9l-.63-5.73c-.92-8.4 6.22-15.89 15.87-16.65"/>
  <g fill-rule="evenodd">
    <path fill="#87deaa" d="M336.738 535.86l14.3-1.12 2.667 24.498-14.3 1.12c-6.51.51-12.344-3.715-12.962-9.388l-.42-3.87c-.618-5.67 4.204-10.73 10.715-11.24"/>
    <path fill="#bcbdbf" d="M376.953 633.132l.817-19.574-35.15.302-.816 19.574 35.15-.302z"/>
    <path fill="#d35f8d" d="M359.62 643.337l-47.955.413c-7.583.065-13.493-6.956-13.13-15.605l.245-5.9c.36-8.646 6.862-15.775 14.445-15.84l47.955-.413-1.56 37.345z"/>
    <path fill="#87deaa" d="M359.874 637.27l-44.765.384c-5.12.044-9.11-4.696-8.87-10.533l.16-3.98c.243-5.84 4.63-10.65 9.75-10.69l44.764-.38-1.053 25.21z"/>
    <path fill="#54585c" d="M373.13 629.14c-.77.006-1.365-.7-1.328-1.578.037-.877.69-1.593 1.46-1.6.767-.007 1.363.7 1.326 1.576-.037.878-.69 1.594-1.46 1.6m.35-8.34c-.77.006-1.364-.7-1.328-1.577.037-.87.69-1.59 1.46-1.6.768 0 1.363.7 1.326 1.58-.036.88-.69 1.6-1.46 1.6"/>
    <path fill="#c83737" fill-opacity="0.38039216" d="M325.617 621.014c1.987 2.748 1.29 6.632-1.553 8.675-2.844 2.04-6.76 1.47-8.747-1.28-1.986-2.75-1.29-6.64 1.554-8.68 2.83-2.03 6.72-1.48 8.72 1.23" color="#000" overflow="visible"/>
  </g>
  <path fill="#c8c7c5" d="M478.7 473.652c.354-.483-.573-.12.148-.4.09.205.12.395-.15.4m-.5.51c-.304-.123-.736.03-.766-.467.226.173.615.253.766.468"/>
  <path fill="#fff" d="M666.83 672.65l-268.45.058-1.226-343.002 268.45-.063 1.227 343.004"/>
  <path fill="#53676c" d="M667.085 671.81l-266.1.056-1.225-342.5 266.1-.056 1.225 342.5m33.04-362.158c-.034-9.228-7.878-16.708-17.528-16.707l-298.606.063c-9.65.004-17.44 7.487-17.41 16.717l1.36 380.62c.04 9.23 7.88 16.71 17.53 16.71l298.61-.064c9.65 0 17.45-7.48 17.41-16.71l-1.36-380.62"/>
  <path fill="#afe9dd" fill-rule="evenodd" d="M666.243 671.834l-265.843-.027-.654-342.058 265.843.02.65 341.28"/>
  <path fill="#f03d5c" d="M663.45 347.237l-260.068.046-.422-15.084 260.07-.05.42 15.08"/>
  <path fill="#46464e" d="M666.83 672.496l-.098-.162-.698-195.13.098-.037.7 195.3M665.7 356.473l-.084.06-.095-26.613-204.2.044-.12-.212 204.43-.045.1 26.83"/>
  <path fill="#003380" fill-rule="evenodd" d="M535.214 698.395c-4.3.967-8.565-1.912-9.522-6.43-.957-4.52 1.757-8.967 6.056-9.933 4.3-.967 8.563 1.913 9.52 6.432.957 4.52-1.753 8.965-6.054 9.93"/>
  <g transform="translate(-558.627 -76.813)">
    <rect width="120.50041" height="118.57029" x="1043.4281" y="484.71078" fill="#4d4d4d" fill-rule="evenodd" rx="60.250206" ry="59.285149" transform="matrix(1 .03 -.023 1 0 0)"/>
    <g fill="#006680" fill-rule="evenodd" transform="translate(245 366.429)">
      <rect width="12.033633" height="23.541597" x="858.47028" y="-10.436289" transform="matrix(.989 .147 -.145 .989 0 0)" ry="23.541597" rx="2.7361314e-13"/>
      <rect width="12.020708" height="23.567995" x="853.4964" y="-225.17194" transform="matrix(.923 .384 -.393 .919 0 0)" ry="23.567995" rx="2.7331926e-13"/>
      <rect width="11.98385" height="23.642956" x="802.83228" y="-413.25116" transform="matrix(.815 .579 -.593 .805 0 0)" ry="23.642956" rx="2.7248123e-13"/>
      <rect width="11.917678" height="23.776373" x="680.06232" y="-622.01923" transform="matrix(.629 .778 -.791 .611 0 0)" ry="23.776373" rx="2.7097663e-13"/>
      <rect width="11.847615" height="23.916025" x="507.21524" y="-790.56366" transform="matrix(.395 .919 -.926 .377 0 0)" ry="23.916025" rx="2.6938356e-13"/>
      <rect width="11.79632" height="24.017233" x="315.95511" y="-902.23389" transform="matrix(.149 .989 -.991 .136 0 0)" ry="24.017233" rx="2.6821725e-13"/>
      <rect width="11.7756" height="24.057869" x="173.32797" y="-949.97284" transform="matrix(-.033 .999 -.999 -.039 0 0)" ry="24.057869" rx="2.6774617e-13"/>
      <rect width="11.772896" height="24.063164" x="8.3661547" y="944.66595" transform="matrix(.264 -.964 .965 .261 0 0)" ry="24.063164" rx="2.6768466e-13"/>
      <rect width="11.796882" height="24.016129" x="200.23744" y="916.71838" transform="matrix(.479 -.878 .884 .467 0 0)" ry="24.016129" rx="2.6823002e-13"/>
      <rect width="11.849109" height="23.913063" x="406.19516" y="831.84332" transform="matrix(.688 -.726 .74 .673 0 0)" ry="23.913063" rx="2.6941754e-13"/>
      <rect width="11.90403" height="23.803707" x="558.53595" y="722.31372" transform="matrix(.827 -.562 .581 .814 0 0)" ry="23.803707" rx="2.706663e-13"/>
      <rect width="11.968086" height="23.674877" x="707.93079" y="555.25299" transform="matrix(.942 -.337 .355 .935 0 0)" ry="23.674877" rx="2.7212276e-13"/>
      <rect width="12.018305" height="23.572899" x="819.97815" y="339.41614" transform="matrix(.998 -.068 .079 .997 0 0)" ry="23.572899" rx="2.7326462e-13"/>
    </g>
    <rect width="11.93904" height="23.575603" x="-1034.8843" y="576.32446" fill="gray" fill-rule="evenodd" rx="2.7146232e-13" ry="23.575603" transform="matrix(-.996 .088 .098 .995 0 0)"/>
    <g fill="gray" fill-rule="evenodd" transform="translate(245 366.429)">
      <rect width="11.901984" height="23.650431" x="-726.29242" y="383.853" transform="matrix(-.943 .332 .346 .938 0 0)" ry="23.650431" rx="2.7061979e-13"/>
      <rect width="11.860128" height="23.734388" x="-593.72705" y="533.66492" transform="matrix(-.845 .535 .548 .836 0 0)" ry="23.734388" rx="2.696681e-13"/>
      <rect width="11.810743" height="23.832687" x="-398.60233" y="673.31238" transform="matrix(-.666 .746 .755 .656 0 0)" ry="23.832687" rx="2.6854522e-13"/>
      <rect width="11.777289" height="23.898819" x="-180.79459" y="754.53448" transform="matrix(-.438 .899 .902 .431 0 0)" ry="23.898819" rx="2.6778457e-13"/>
      <rect width="11.768577" height="23.915979" x="32.900726" y="772.03241" transform="matrix(-.195 .981 .981 .196 0 0)" ry="23.915979" rx="2.6758646e-13"/>
      <rect width="11.776951" height="23.899487" x="188.03337" y="749.96002" transform="matrix(-.014 1 1 .021 0 0)" ry="23.899487" rx="2.6777685e-13"/>
      <rect width="11.803575" height="23.846889" x="-387.44843" y="-705.85748" transform="matrix(-.217 -.976 -.979 .205 0 0)" ry="23.846889" rx="2.6838221e-13"/>
      <rect width="11.842072" height="23.770424" x="-553.00183" y="-597.7168" transform="matrix(-.432 -.902 -.908 .418 0 0)" ry="23.770424" rx="2.6925752e-13"/>
      <rect width="11.890017" height="23.674496" x="-705.31" y="-436.38309" transform="matrix(-.646 -.763 -.773 .634 0 0)" ry="23.674496" rx="2.7034765e-13"/>
      <rect width="11.925406" height="23.603188" x="-801.13922" y="-276.1814" transform="matrix(-.793 -.61 -.619 .785 0 0)" ry="23.603188" rx="2.7115235e-13"/>
      <rect width="11.952531" height="23.548244" x="-866.565" y="-66.017151" transform="matrix(-.92 -.393 -.398 .918 0 0)" ry="23.548244" rx="2.717691e-13"/>
      <rect width="11.956167" height="23.540857" x="-870.3891" y="171.80246" transform="matrix(-.992 -.128 -.125 .992 0 0)" ry="23.540857" rx="2.7185177e-13"/>
    </g>
    <text x="1227.5316" y="510.23672" fill="#fff" stroke-width="1px" word-spacing="0px" font-weight="500" letter-spacing="0px" font-family="Roboto" text-anchor="middle" color="#000" transform="matrix(.899 .027 -.026 1.112 0 0)" font-size="59.29882812px" overflow="visible" style="text-indent:0;text-align:center;line-height:125%;text-transform:none;block-progression:tb;-inkscape-font-specification:Roboto Medium">
      <tspan x="1227.5316" y="510.23672">50%</tspan>
    </text>
  </g>
</svg>
