<?xml version="1.0" encoding="UTF-8" standalone="no"?>
<!-- Created with Inkscape (http://www.inkscape.org/) -->

<svg
   xmlns:dc="http://purl.org/dc/elements/1.1/"
   xmlns:cc="http://creativecommons.org/ns#"
   xmlns:rdf="http://www.w3.org/1999/02/22-rdf-syntax-ns#"
   xmlns:svg="http://www.w3.org/2000/svg"
   xmlns="http://www.w3.org/2000/svg"
   xmlns:xlink="http://www.w3.org/1999/xlink"
   xmlns:sodipodi="http://sodipodi.sourceforge.net/DTD/sodipodi-0.dtd"
   xmlns:inkscape="http://www.inkscape.org/namespaces/inkscape"
   width="1000"
   height="1000"
   id="svg2"
   version="1.1"
   inkscape:version="0.48.4 r9939"
   sodipodi:docname="maintanance(Min).svg">
  <defs
     id="defs4">
    <linearGradient
       x1="0"
       y1="0"
       x2="1"
       y2="0"
       gradientUnits="userSpaceOnUse"
       gradientTransform="matrix(153.654,-71.6499,-71.6499,-153.654,292.424,478.48)"
       spreadMethod="pad"
       id="linearGradient3946">
      <stop
         style="stop-opacity:1;stop-color:#398086"
         offset="0"
         id="stop3948" />
      <stop
         style="stop-opacity:1;stop-color:#4aa6a7"
         offset="0.682796"
         id="stop3950" />
      <stop
         style="stop-opacity:1;stop-color:#4aa6a7"
         offset="1"
         id="stop3952" />
    </linearGradient>
    <linearGradient
       inkscape:collect="always"
       xlink:href="#linearGradient3946"
       id="linearGradient10852"
       gradientUnits="userSpaceOnUse"
       gradientTransform="matrix(15.3654,-7.16499,-7.16499,-15.3654,237.31616,0.558509)"
       spreadMethod="pad"
       x1="0"
       y1="0"
       x2="1"
       y2="0" />
    <linearGradient
       inkscape:collect="always"
       xlink:href="#linearGradient3946"
       id="linearGradient4428"
       gradientUnits="userSpaceOnUse"
       gradientTransform="matrix(19.20675,8.9562375,-8.9562375,19.20675,652.93955,1378.717)"
       spreadMethod="pad"
       x1="0"
       y1="0"
       x2="1"
       y2="0" />
    <linearGradient
       inkscape:collect="always"
       xlink:href="#linearGradient3946"
       id="linearGradient4479"
       gradientUnits="userSpaceOnUse"
       gradientTransform="matrix(19.20675,8.9562375,-8.9562375,19.20675,652.93955,1378.717)"
       spreadMethod="pad"
       x1="0"
       y1="0"
       x2="1"
       y2="0" />
    <linearGradient
       inkscape:collect="always"
       xlink:href="#linearGradient3946"
       id="linearGradient4509"
       gradientUnits="userSpaceOnUse"
       gradientTransform="matrix(19.20675,8.9562375,-8.9562375,19.20675,652.93955,1378.717)"
       spreadMethod="pad"
       x1="0"
       y1="0"
       x2="1"
       y2="0" />
    <linearGradient
       inkscape:collect="always"
       xlink:href="#linearGradient3946"
       id="linearGradient3160"
       gradientUnits="userSpaceOnUse"
       gradientTransform="matrix(19.20675,8.9562375,-8.9562375,19.20675,652.93955,1378.717)"
       spreadMethod="pad"
       x1="0"
       y1="0"
       x2="1"
       y2="0" />
    <linearGradient
       inkscape:collect="always"
       xlink:href="#linearGradient3946"
       id="linearGradient4107"
       gradientUnits="userSpaceOnUse"
       gradientTransform="matrix(23.20141,10.254028,-10.818975,21.989875,5.5869065,1185.2812)"
       spreadMethod="pad"
       x1="0"
       y1="0"
       x2="1"
       y2="0" />
    <linearGradient
       inkscape:collect="always"
       xlink:href="#linearGradient3946"
       id="linearGradient4120"
       gradientUnits="userSpaceOnUse"
       gradientTransform="matrix(23.20141,10.254028,-10.818975,21.989875,5.5869065,1185.2812)"
       spreadMethod="pad"
       x1="0"
       y1="0"
       x2="1"
       y2="0" />
    <linearGradient
       inkscape:collect="always"
       xlink:href="#linearGradient3946"
       id="linearGradient4125"
       gradientUnits="userSpaceOnUse"
       gradientTransform="matrix(23.20141,10.254028,-10.818975,21.989875,56.094533,1387.3117)"
       spreadMethod="pad"
       x1="0"
       y1="0"
       x2="1"
       y2="0" />
    <linearGradient
       inkscape:collect="always"
       xlink:href="#linearGradient3946"
       id="linearGradient4138"
       gradientUnits="userSpaceOnUse"
       gradientTransform="matrix(23.20141,10.254028,-10.818975,21.989875,56.094533,1387.3117)"
       spreadMethod="pad"
       x1="0"
       y1="0"
       x2="1"
       y2="0" />
    <linearGradient
       inkscape:collect="always"
       xlink:href="#linearGradient3946"
       id="linearGradient3286"
       gradientUnits="userSpaceOnUse"
       gradientTransform="matrix(24.320795,10.709442,-11.340952,22.966516,102.60958,1422.9895)"
       spreadMethod="pad"
       x1="0"
       y1="0"
       x2="1"
       y2="0" />
    <linearGradient
       inkscape:collect="always"
       xlink:href="#linearGradient3946"
       id="linearGradient3399"
       gradientUnits="userSpaceOnUse"
       gradientTransform="matrix(24.320795,10.709442,-11.340952,22.966516,102.60958,1422.9895)"
       spreadMethod="pad"
       x1="0"
       y1="0"
       x2="1"
       y2="0" />
  </defs>
  <sodipodi:namedview
     id="base"
     pagecolor="#ffffff"
     bordercolor="#666666"
     borderopacity="1.0"
     inkscape:pageopacity="0.0"
     inkscape:pageshadow="2"
     inkscape:zoom="0.7"
     inkscape:cx="536.81764"
     inkscape:cy="544.1979"
     inkscape:document-units="px"
     inkscape:current-layer="layer1"
     showgrid="false"
     inkscape:window-width="1615"
     inkscape:window-height="1026"
     inkscape:window-x="65"
     inkscape:window-y="24"
     inkscape:window-maximized="1">
    <inkscape:grid
       type="xygrid"
       id="grid6804"
       empspacing="5"
       visible="true"
       enabled="true"
       snapvisiblegridlinesonly="true" />
  </sodipodi:namedview>
  <metadata
     id="metadata7">
    <rdf:RDF>
      <cc:Work
         rdf:about="">
        <dc:format>image/svg+xml</dc:format>
        <dc:type
           rdf:resource="http://purl.org/dc/dcmitype/StillImage" />
        <dc:title></dc:title>
      </cc:Work>
    </rdf:RDF>
  </metadata>
  <g
     inkscape:label="Layer 1"
     inkscape:groupmode="layer"
     id="layer1"
     transform="translate(0,-52.362183)">
    <g
       id="g3374"
       transform="translate(-26.582126,-0.71428448)">
      <g
         transform="translate(14.285714,98.571428)"
         id="g3359">
        <path
           inkscape:connector-curvature="0"
           id="path228"
           style="fill:#ffffff;fill-opacity:1;fill-rule:nonzero;stroke:none"
           d="m 658.10047,491.55651 c 0.008,7.34576 -5.96767,13.27735 -13.34328,13.25312 -7.37889,-0.0242 -13.36641,-5.99513 -13.37399,-13.34089 -0.008,-7.34576 5.96767,-13.27735 13.34656,-13.25311 7.37562,0.0242 13.36313,5.99512 13.37071,13.34088" />
        <path
           inkscape:connector-curvature="0"
           id="path244"
           style="fill:#a02c2c;fill-opacity:1;fill-rule:nonzero;stroke:none"
           d="m 387.96414,327.52801 c 0.009,9.13964 -7.42431,16.52643 -16.60847,16.49625 -9.18416,-0.0302 -16.63647,-7.46585 -16.6459,-16.60549 -0.009,-9.13965 7.42759,-16.52969 16.61176,-16.49952 9.18416,0.0302 16.63318,7.46912 16.64261,16.60876" />
        <path
           d="m 731.77144,491.79952 -322.64929,-1.05993 -0.24381,-236.39659 322.64924,1.05993 0.24386,236.39659 z"
           style="fill:#ffffff;fill-opacity:1;fill-rule:nonzero;stroke:none"
           id="path246-6"
           inkscape:connector-curvature="0" />
        <path
           inkscape:connector-curvature="0"
           id="path250-9"
           style="fill:#c83737;fill-opacity:1;fill-rule:nonzero;stroke:none"
           d="m 642.33687,356.40413 c 0.0407,39.45235 -32.05609,71.33555 -71.69301,71.20534 -39.63363,-0.1302 -71.78983,-32.22448 -71.83052,-71.67683 -0.0407,-39.45563 32.04952,-71.33885 71.68315,-71.20865 39.63692,0.13021 71.79969,32.22451 71.84038,71.68014" />
        <path
           d="m 579.80284,394.94154 -17.83564,-0.0586 -0.0799,-77.4873 17.83565,0.0586 0.0799,77.48727 z"
           style="fill:#fffeff;fill-opacity:1;fill-rule:nonzero;stroke:none"
           id="path252"
           inkscape:connector-curvature="0" />
        <path
           d="m 531.6429,347.16045 77.84015,0.25573 0.0183,17.75879 -77.84015,-0.25572 -0.0183,-17.75879 z"
           style="fill:#fffeff;fill-opacity:1;fill-rule:nonzero;stroke:none"
           id="path254-5"
           inkscape:connector-curvature="0" />
        <path
           inkscape:connector-curvature="0"
           id="path258-1"
           style="fill:#ffffff;fill-opacity:1;fill-rule:nonzero;stroke:none"
           d="m 292.82168,490.35456 117.45405,0.38585 -0.16827,-163.14196 -76.41303,-0.25103 c 0,0 -30.86061,57.18159 -36.11582,78.95929 -4.88194,20.23056 -4.75693,84.04785 -4.75693,84.04785" />
        <path
           inkscape:connector-curvature="0"
           id="path262-2"
           style="fill:#2ad4ff;fill-opacity:1;fill-rule:nonzero;stroke:none"
           d="m 309.50014,404.04723 86.79742,0.28514 -0.0647,-62.69101 -58.02169,-0.19061 -28.71107,62.59648 z" />
        <path
           d="m 731.74394,464.6032 -438.50612,-2.12638 0.31674,-9.88328 438.17789,1.44276 z"
           style="fill:#c83737;fill-opacity:1;fill-rule:nonzero;stroke:none"
           id="path264"
           inkscape:connector-curvature="0"
           sodipodi:nodetypes="ccccc" />
        <path
           inkscape:connector-curvature="0"
           id="path272"
           style="fill:#005975;fill-opacity:1;fill-rule:nonzero;stroke:none"
           d="m 386.86129,493.74268 c 0.0205,19.84402 -16.12155,35.87043 -36.04853,35.80496 -19.93026,-0.0655 -36.10545,-16.19804 -36.12591,-36.04206 -0.0205,-19.84075 16.12155,-35.87043 36.05181,-35.80495 19.92697,0.0655 36.10217,16.2013 36.12263,36.04205" />
        <path
           inkscape:connector-curvature="0"
           id="path268"
           style="fill:#005975;fill-opacity:1;fill-rule:nonzero;stroke:none"
           d="m 681.77571,493.94448 c 0.0205,19.84402 -16.12155,35.87043 -36.04853,35.80496 -19.93026,-0.0655 -36.10216,-16.19803 -36.12262,-36.04205 -0.0205,-19.84075 16.11826,-35.87044 36.04852,-35.80496 19.92697,0.0655 36.10217,16.2013 36.12263,36.04205" />
        <path
           inkscape:connector-curvature="0"
           id="path224"
           style="fill:#cccccc;fill-opacity:1;fill-rule:nonzero;stroke:none"
           d="m 376.48022,494.14948 c 0.27615,14.21745 -11.00153,25.49081 -25.18386,25.18864 -14.18866,-0.30231 -25.9138,-12.06578 -26.18995,-26.28323 -0.27616,-14.21746 11.00153,-25.49082 25.19018,-25.18851 14.18234,0.30218 25.90748,12.06565 26.18363,26.2831" />
        <path
           inkscape:connector-curvature="0"
           id="path224-3"
           style="fill:#cccccc;fill-opacity:1;fill-rule:nonzero;stroke:none"
           d="m 671.48782,494.61237 c 0.27615,14.21745 -11.00153,25.49081 -25.18386,25.18864 -14.18866,-0.30231 -25.9138,-12.06578 -26.18995,-26.28323 -0.27616,-14.21746 11.00153,-25.49082 25.19018,-25.18851 14.18234,0.30218 25.90748,12.06565 26.18363,26.2831" />
      </g>
      <g
         transform="translate(37.909178,72.476677)"
         id="g3096">
        <g
           id="g3085"
           transform="matrix(-0.22998507,0.97319415,-0.97319415,-0.22998507,1256.6465,301.10429)">
          <path
             inkscape:transform-center-y="-3.2125596"
             inkscape:transform-center-x="-1.3382307"
             d="m 438.70206,735.58369 -25.27561,-20.93668 c -2.99953,2.99655 -5.77568,5.72707 -8.21058,8.21755 l 25.95459,20.21941 c 2.53987,-2.46482 5.09709,-5.0693 7.5316,-7.50028"
             style="fill:#666666;fill-opacity:1;fill-rule:nonzero;stroke:none"
             id="path4274"
             inkscape:connector-curvature="0" />
          <path
             d="m 433.46948,723.11802 c -0.45357,-0.32388 -0.93096,-0.60168 -1.41796,-0.85934 l 0.0317,-0.0705 -15.81778,16.54462 c 0.57475,0.64773 1.21827,1.25228 1.9736,1.78919 l 36.01872,25.62875 0.0227,0.0259 15.57503,-17.165 -36.38594,-25.8936"
             style="fill:#ffdd55;fill-opacity:1;fill-rule:nonzero;stroke:none"
             id="path4278"
             inkscape:connector-curvature="0" />
          <path
             d="m 578.81713,818.09194 -76.06936,-54.13057 c -0.71227,-0.50956 -1.45949,-0.94715 -2.22279,-1.35162 l -30.64233,-13.5794 -0.0279,-0.0187 -15.57504,17.165 22.85014,24.60966 c 0.40557,0.34545 0.80952,0.68659 1.2503,1.00182 l 76.06454,54.12917 c 8.52207,6.06712 20.8908,4.75586 27.62125,-2.93055 6.72562,-7.67649 5.26943,-18.83051 -3.24948,-24.89477"
             style="fill:#c83771;fill-opacity:1;fill-rule:nonzero;stroke:none"
             id="path4280"
             inkscape:connector-curvature="0" />
        </g>
      </g>
      <path
         d="m 563.37828,703.59659 c -0.0456,-11.81703 4.90043,-23.69534 4.90043,-23.69534 l 26.90809,22.42036 -26.90809,-22.42036 c 0,0 -4.85611,11.66008 -4.90043,23.368 l 0,0.32734"
         style="fill:url(#linearGradient3399);fill-opacity:1;fill-rule:nonzero;stroke:none"
         id="path3954"
         inkscape:connector-curvature="0" />
      <g
         transform="translate(252.19491,201.04811)"
         id="g3092">
        <path
           inkscape:connector-curvature="0"
           id="path4282"
           style="fill:#216778;fill-opacity:1;fill-rule:nonzero;stroke:none"
           d="m 313.80378,516.94505 1.63838,-1.50074 c 2.69541,-2.98957 4.66774,-6.41058 6.13255,-9.98935 l 92.95546,-2.1454 c 1.62552,3.51378 3.75195,6.83538 6.58696,9.70061 l 1.7057,1.41557 c 12.85646,11.34497 31.88757,10.50828 43.57886,-2.46074 3.40242,-3.77384 5.72405,-8.18934 7.15345,-12.8501 l -30.09207,0.69452 c -1.57947,0.0365 -3.06536,-0.34243 -4.43442,-0.9711 -3.70384,-1.70511 -6.38289,-5.52073 -6.49868,-10.08566 -0.0698,-3.10954 1.05661,-5.97741 2.94005,-8.06644 0.87174,-0.96691 1.9355,-1.7119 3.08659,-2.30046 1.35077,-0.68195 2.80531,-1.14299 4.39379,-1.178 l 30.08459,-0.69435 c -1.64562,-4.57879 -4.16714,-8.88885 -7.73853,-12.50007 -12.27869,-12.41744 -31.33108,-12.37353 -43.6415,-0.44783 l -1.64759,1.48993 c -2.69688,2.99126 -4.66772,6.41059 -6.13549,9.99094 l -92.94948,2.14527 c -1.6284,-3.5089 -3.75633,-6.83046 -6.58683,-9.69415 l -1.71465,-1.4155 c -12.84742,-11.34189 -31.88167,-10.51158 -43.57595,2.45764 -3.39948,3.77211 -5.72551,8.19088 -7.15194,12.85006 l 30.09056,-0.69449 c 1.57648,-0.0364 3.07305,0.35174 4.43889,0.97099 3.70372,1.70044 6.38711,5.50948 6.49424,10.08577 0.0789,3.11566 -1.05962,5.97747 -2.9416,8.06496 -0.87025,0.96686 -1.93074,1.72432 -3.073,2.30646 -1.34636,0.67856 -2.81256,1.15255 -4.39819,1.1813 l -30.09057,0.69448 c 1.64897,4.59453 4.16877,8.89512 7.7402,12.508 12.27866,12.4158 31.3339,12.36548 43.65061,0.45383" />
        <path
           inkscape:connector-curvature="0"
           id="path4284"
           style="fill:#d7f4ee;fill-opacity:1;fill-rule:nonzero;stroke:none"
           d="m 330.49041,494.77289 c -1.91121,0.0441 -3.49717,-1.56119 -3.54385,-3.5835 -0.0467,-2.02232 1.46354,-3.69894 3.37476,-3.74305 l 71.78132,-1.65671 c 1.90821,-0.044 3.49566,1.56109 3.54234,3.58341 0.0467,2.02231 -1.46502,3.6991 -3.37324,3.74314 l -71.78133,1.65671" />
      </g>
    </g>
  </g>
</svg>
