<svg xmlns="http://www.w3.org/2000/svg" xmlns:xlink="http://www.w3.org/1999/xlink" width="1000" height="1000"><defs><linearGradient x2="1" gradientUnits="userSpaceOnUse" gradientTransform="rotate(-25 1220.4 -423.8) scale(169.5)" id="a"><stop offset="0" stop-color="#398086"/><stop offset=".683" stop-color="#4aa6a7"/><stop offset="1" stop-color="#4aa6a7"/></linearGradient><linearGradient xlink:href="#a" id="b" gradientUnits="userSpaceOnUse" gradientTransform="matrix(24.3 10.7 -11.3 23 102.6 1423)" x2="1"/></defs><path d="M645.804 537.05c.008 7.347-5.968 13.28-13.343 13.255-7.37-.025-13.36-5.996-13.37-13.34-.01-7.347 5.97-13.28 13.35-13.254 7.378.03 13.365 6 13.37 13.34" fill="#fff"/><path d="M375.668 373.023c.01 9.14-7.425 16.526-16.61 16.496-9.183-.03-16.635-7.47-16.645-16.61-.01-9.14 7.428-16.53 16.612-16.5 9.184.03 16.633 7.47 16.643 16.61" fill="#a02c2c"/><path d="M719.475 537.294l-322.65-1.06-.243-236.396 322.65 1.06.243 236.396z" fill="#fff"/><path d="M630.04 401.9c.04 39.45-32.056 71.335-71.693 71.204-39.633-.13-71.79-32.224-71.83-71.676-.04-39.456 32.05-71.34 71.683-71.21 39.637.13 71.8 32.225 71.84 71.68" fill="#c83737"/><path d="M567.506 440.437l-17.835-.06-.08-77.486 17.84.06.08 77.49z" fill="#fffeff"/><path d="M519.346 392.655l77.84.256.02 17.76-77.84-.25-.02-17.76z" fill="#fffeff"/><path d="M280.525 535.85l117.454.385-.17-163.142-76.42-.25s-30.86 57.18-36.117 78.96c-4.88 20.23-4.757 84.047-4.757 84.047" fill="#fff"/><path d="M297.204 449.542l86.797.285-.06-62.69-58.02-.19-28.71 62.595z" fill="#2ad4ff"/><path d="M719.448 510.098l-438.507-2.126.32-9.883 438.18 1.44z" fill="#c83737"/><path d="M374.565 539.238c.02 19.844-16.122 35.87-36.05 35.805-19.93-.066-36.104-16.198-36.125-36.042-.02-19.84 16.122-35.87 36.052-35.8 19.927.07 36.102 16.2 36.123 36.04m294.915.2c.02 19.85-16.122 35.87-36.05 35.81-19.93-.064-36.1-16.2-36.122-36.04-.02-19.84 16.118-35.87 36.05-35.806 19.926.066 36.1 16.2 36.12 36.04" fill="#005975"/><path d="M364.184 539.644c.276 14.218-11.002 25.49-25.184 25.19-14.19-.303-25.914-12.067-26.19-26.284-.276-14.218 11.002-25.49 25.19-25.19 14.183.304 25.908 12.067 26.184 26.284m295.006.463c.278 14.218-11 25.49-25.182 25.19-14.19-.303-25.914-12.067-26.19-26.284-.277-14.218 11-25.49 25.19-25.19 14.182.303 25.907 12.067 26.183 26.284" fill="#ccc"/><path d="M451.213 578.274L477.4 558.49c-2.225-3.608-4.244-6.937-6.108-9.88l-25.646 20.61c1.814 3.038 3.76 6.125 5.567 9.054" fill="#666"/><path d="M464.548 576.048c.42-.367.8-.768 1.162-1.182l.062.047-12.464-19.2c-.762.41-1.5.9-2.195 1.51l-33.225 29.16-.03.015 13.122 19.106 33.568-29.456" fill="#fd5"/><path d="M338.692 695.657l70.174-61.58c.66-.577 1.258-1.204 1.827-1.853l20.263-26.698.024-.023-13.123-19.105-29.205 16.577c-.43.316-.854.63-1.262.987l-70.172 61.576c-7.865 6.9-9.433 19.238-3.5 27.555 5.923 8.31 17.113 9.46 24.974 2.563" fill="#c83771"/><path d="M563.378 703.597c-.045-11.817 4.9-23.696 4.9-23.696l26.91 22.43-26.91-22.42s-4.855 11.66-4.9 23.368v.328" fill="url(#b)" transform="translate(-26.6 -53.1)"/><path d="M539.417 664.917l1.638-1.5c2.695-2.99 4.668-6.412 6.132-9.99l92.956-2.146c1.625 3.52 3.752 6.84 6.587 9.71l1.706 1.416c12.856 11.345 31.887 10.51 43.578-2.46 3.403-3.774 5.725-8.19 7.154-12.85l-30.092.694c-1.58.037-3.066-.34-4.435-.97-3.7-1.706-6.38-5.52-6.49-10.087-.07-3.11 1.058-5.976 2.94-8.065.87-.965 1.937-1.71 3.088-2.3 1.35-.68 2.806-1.142 4.394-1.18l30.085-.69c-1.646-4.58-4.167-8.89-7.74-12.5-12.277-12.418-31.33-12.375-43.64-.45l-1.65 1.49c-2.695 2.99-4.666 6.41-6.133 9.99l-92.95 2.146c-1.63-3.51-3.755-6.83-6.586-9.693l-1.715-1.412c-12.85-11.342-31.882-10.512-43.576 2.457-3.4 3.772-5.726 8.19-7.152 12.85l30.09-.694c1.578-.04 3.074.35 4.44.97 3.704 1.7 6.387 5.51 6.495 10.086.08 3.115-1.06 5.977-2.94 8.065-.87.968-1.93 1.726-3.073 2.308-1.346.68-2.813 1.153-4.4 1.18l-30.09.696c1.65 4.595 4.17 8.896 7.74 12.51 12.28 12.415 31.334 12.364 43.65.453" fill="#216778"/><path d="M556.103 642.745c-1.91.044-3.497-1.562-3.544-3.584-.05-2.02 1.46-3.69 3.37-3.74l71.78-1.65c1.91-.043 3.492 1.56 3.54 3.585.045 2.02-1.466 3.7-3.374 3.743l-71.78 1.658" fill="#d7f4ee"/></svg>