<svg xmlns="http://www.w3.org/2000/svg" width="1000" height="1000"><path d="M-599.61 199.535l-.11-.16.118-.067c-.005.077 0 .15-.003.228" fill="#4d4d55"/><path d="M617.042 654.162l-235.416-.372 1.332-307.952 235.416.372-1.332 307.952" fill="#f9f9f9"/><path d="M409.948 439.013l190.435.45-.014-1.045-190.44-.45.013 1.045m-.167 17.502l190.432.453-.014-1.047-190.434-.45.015 1.05m-.31 17.777l190.433.452-.012-1.048-190.433-.45.015 1.046m.105 17.582l190.434.45-.01-1.046-190.436-.45.014 1.047m.11 17.645l190.435.453-.016-1.047-190.435-.45.012 1.047m-.17 17.694l190.434.45-.015-1.044-190.433-.452.014 1.047m-.17 17.89l190.434.454-.014-1.047-190.434-.455.012 1.048m-.028 17.73l190.433.45-.013-1.046-190.433-.45.014 1.045" fill="#131112"/><path d="M404.65 494.212c-1.207-.49-1.983-1.593-1.976-2.81.012-1.653 1.473-2.97 3.253-2.933.428.01.842.09 1.232.25 1.203.49 1.98 1.59 1.97 2.81-.007.8-.35 1.55-.96 2.1-.618.552-1.43.85-2.29.83-.428-.01-.84-.095-1.23-.25" fill="#a88c74"/><path d="M407.253 488.28c-.452-.185-.932-.282-1.43-.29-2.062-.042-3.754 1.483-3.77 3.4-.007 1.41.89 2.69 2.29 3.257.452.185.935.283 1.43.293 1 .02 1.942-.323 2.654-.965.712-.642 1.108-1.507 1.114-2.435.017-1.412-.88-2.692-2.282-3.26zm-.4.875c.982.4 1.67 1.314 1.66 2.364-.01 1.39-1.233 2.49-2.732 2.46-.362-.01-.713-.082-1.03-.212-.982-.398-1.67-1.313-1.662-2.364.01-1.394 1.236-2.497 2.735-2.467.367.01.717.082 1.036.21" fill="#efe2a8"/><path d="M404.375 512.127c-1.208-.49-1.984-1.593-1.976-2.81.01-1.653 1.47-2.97 3.25-2.934.43.01.84.09 1.23.252 1.21.49 1.983 1.593 1.972 2.812-.005.802-.347 1.547-.96 2.1-.616.554-1.43.85-2.292.832-.424-.01-.84-.1-1.23-.258m.224 17.204c-1.208-.49-1.983-1.595-1.976-2.81.013-1.656 1.474-2.97 3.253-2.936.43.01.845.093 1.235.253 1.208.49 1.984 1.593 1.974 2.81-.004.803-.346 1.55-.96 2.103-.615.552-1.43.85-2.29.83-.426-.01-.84-.095-1.23-.25m-.38 18.23c-1.205-.49-1.98-1.594-1.974-2.81.012-1.654 1.472-2.97 3.25-2.934.43.01.843.09 1.234.25 1.21.492 1.985 1.595 1.975 2.813-.005.8-.347 1.546-.96 2.1-.61.556-1.428.85-2.292.832-.425-.01-.84-.096-1.23-.252m-.274 17.598c-1.21-.49-1.986-1.593-1.98-2.81.013-1.653 1.474-2.97 3.253-2.934.428.01.842.09 1.233.25 1.208.49 1.984 1.593 1.973 2.81-.003.803-.345 1.55-.96 2.103-.61.552-1.426.85-2.29.83-.43-.01-.84-.097-1.23-.254" fill="#a88c74"/><path d="M407.176 506.116c-.452-.185-.932-.283-1.43-.29-2.062-.043-3.754 1.482-3.77 3.398-.007 1.412.89 2.69 2.29 3.26.452.184.934.282 1.43.29 1 .022 1.942-.32 2.654-.963.712-.64 1.107-1.502 1.114-2.43.01-1.41-.887-2.69-2.288-3.26zm-.4.874c.982.4 1.67 1.315 1.66 2.365-.01 1.393-1.233 2.497-2.732 2.467-.368-.01-.72-.083-1.036-.214-.982-.398-1.668-1.312-1.662-2.363.01-1.393 1.236-2.497 2.735-2.467.37.01.72.083 1.04.212m.127 16.565c-.452-.185-.933-.282-1.43-.29-2.062-.043-3.754 1.483-3.77 3.398-.007 1.412.89 2.69 2.29 3.26.452.184.934.282 1.43.292 1 .02 1.942-.323 2.654-.964.71-.64 1.107-1.503 1.114-2.43.013-1.41-.885-2.69-2.286-3.26zm-.4.875c.982.398 1.67 1.313 1.66 2.364-.01 1.393-1.233 2.497-2.732 2.467-.367-.01-.717-.08-1.034-.21-.982-.4-1.67-1.31-1.662-2.36.01-1.394 1.236-2.498 2.735-2.468.367.01.717.083 1.036.21m.32 17.04c-.45-.183-.933-.28-1.43-.29-2.063-.04-3.754 1.484-3.77 3.4-.008 1.41.89 2.69 2.29 3.26.45.184.934.282 1.43.29 1 .02 1.94-.323 2.653-.965.71-.643 1.105-1.508 1.113-2.435.01-1.415-.888-2.695-2.288-3.26zm-.4.876c.98.4 1.67 1.314 1.66 2.365-.01 1.39-1.234 2.496-2.733 2.466-.368-.013-.72-.084-1.036-.214-.982-.4-1.667-1.313-1.66-2.364.01-1.395 1.234-2.5 2.734-2.47.367.013.718.084 1.037.213m.325 16.805c-.46-.178-.932-.282-1.43-.29-2.06-.043-3.753 1.482-3.766 3.4-.01 1.41.89 2.69 2.29 3.258.46.18.932.282 1.427.293 1.003.02 1.944-.323 2.656-.964.71-.644 1.108-1.51 1.115-2.436.01-1.41-.887-2.693-2.287-3.26zm-.4.874c.98.4 1.67 1.32 1.66 2.37-.01 1.392-1.234 2.496-2.734 2.465-.37-.01-.72-.085-1.035-.214-.984-.4-1.67-1.312-1.664-2.364.013-1.393 1.236-2.497 2.736-2.466.37.01.717.08 1.038.21" fill="#efe2a8"/><path d="M404.726 476.456c-1.206-.49-1.983-1.593-1.975-2.81.018-1.653 1.478-2.97 3.257-2.934.43.01.843.09 1.233.252 1.207.49 1.983 1.593 1.973 2.81-.005.803-.347 1.55-.96 2.103-.616.553-1.43.85-2.29.83-.427-.01-.843-.094-1.233-.25" fill="#a88c74"/><path d="M407.047 470.808c-.45-.184-.934-.283-1.43-.292-2.063-.04-3.754 1.485-3.77 3.4-.007 1.412.89 2.69 2.29 3.26.45.185.933.282 1.43.292 1 .02 1.94-.323 2.653-.965.714-.642 1.107-1.508 1.115-2.437.01-1.41-.887-2.69-2.288-3.258zm-.4.875c.983.398 1.67 1.313 1.66 2.364-.01 1.393-1.233 2.497-2.733 2.467-.368-.01-.718-.082-1.037-.212-.98-.4-1.668-1.313-1.66-2.364.01-1.393 1.235-2.496 2.734-2.467.37.01.72.088 1.04.218" fill="#efe2a8"/><path d="M404.607 458.462c-1.207-.49-1.984-1.593-1.976-2.81.018-1.654 1.478-2.97 3.26-2.934.426.01.84.092 1.23.252 1.21.49 1.984 1.593 1.974 2.812-.004.802-.346 1.547-.96 2.1-.615.554-1.43.85-2.29.832-.426-.01-.84-.095-1.23-.252" fill="#a88c74"/><path d="M407.308 452.836c-.45-.185-.934-.283-1.43-.292-.998-.02-1.942.32-2.654.963-.712.642-1.108 1.507-1.115 2.436-.01 1.41.883 2.69 2.282 3.257.453.187.936.284 1.432.293.997.02 1.94-.322 2.65-.965.713-.64 1.108-1.505 1.115-2.434.01-1.412-.887-2.69-2.287-3.26zm-.4.873c.982.393 1.668 1.31 1.66 2.36-.012 1.392-1.234 2.495-2.734 2.465-.366-.013-.718-.084-1.038-.214-.98-.397-1.667-1.31-1.66-2.362.012-1.393 1.235-2.497 2.736-2.467.367.013.717.084 1.036.213" fill="#efe2a8"/><path d="M404.58 441.736c-1.207-.49-1.983-1.593-1.975-2.81.01-1.654 1.472-2.97 3.252-2.934.428.012.842.092 1.233.252 1.208.49 1.984 1.593 1.973 2.812-.004.802-.346 1.547-.96 2.1-.616.554-1.428.85-2.29.832-.427-.01-.842-.094-1.233-.252" fill="#a88c74"/><path d="M407.12 435.503c-.45-.185-.934-.283-1.428-.293-2.063-.037-3.755 1.485-3.77 3.4-.008 1.412.89 2.69 2.29 3.26.45.185.933.282 1.43.29.998.022 1.94-.322 2.653-.963.713-.642 1.107-1.507 1.114-2.437.01-1.41-.89-2.69-2.29-3.257zm-.397.874c.98.4 1.667 1.313 1.66 2.364-.01 1.4-1.235 2.5-2.735 2.47-.367-.01-.72-.08-1.036-.21-.983-.4-1.668-1.313-1.662-2.363.012-1.394 1.236-2.497 2.736-2.467.368.01.717.08 1.036.212" fill="#efe2a8"/><text transform="matrix(1.1 0 0 1.2 -160 -64.5)" y="558.536" x="544.916" style="text-indent:0;text-align:center;line-height:125%;text-transform:none;block-progression:tb;-inkscape-font-specification:Roboto Light" font-size="10.527" font-weight="300" letter-spacing="0" word-spacing="0" text-anchor="middle" color="#000" overflow="visible" font-family="Roboto"><tspan y="558.536" x="544.916">15.03.2015</tspan></text><path d="M529.803 611.44c-.108-1.43.007-2.844.248-4.244.197-1.124.57-2.187 1.03-3.206.39-.827.9-1.558 1.6-2.08.61-.388 1.198-.286 1.8.03.73.462 1.26 1.186 1.77 1.898.586.883 1.134 1.794 1.77 2.636.59.775 1.34 1.26 2.224 1.512.97.203 1.898-.075 2.797-.463 1.1-.516 2.026-1.345 2.9-2.223 1-1.033 1.836-2.23 2.606-3.474.778-1.272 1.405-2.64 1.95-4.045.437-1.13.725-2.32.86-3.54.008-.157.022-.627.027-.47.07 2.354.047.58-.287.083-.43-.32-.896.243-1.196.54-.81.897-1.475 1.935-2.125 2.97-.916 1.484-1.734 3.034-2.53 4.598-.853 1.704-1.615 3.46-2.36 5.22-.67 1.615-1.346 3.226-2.02 4.837-.356.908-.794 1.784-1.07 2.727-.01.056-.032.226-.03.17.033-.59.002-1.194.116-1.773.02-.09 1.168-1.054 1.3-1.17.72-.64 1.52-1.107 2.408-1.39.88-.244 1.764-.114 2.64.07.907.24 1.82.375 2.752.35 1.276-.085 2.45-.636 3.59-1.224 1.587-.875 3.082-1.935 4.605-2.94 1.297-.87 2.66-1.606 4.115-2.096.95-.297 1.94-.265 2.916-.23.694.056 1.38.004 2.056-.167.57-.182 1.104-.46 1.687-.582.57-.076.88.268 1.11.798.26.888.26 1.834.31 2.756.055.885.06 1.796.342 2.636.295.617.727.2 1.076-.13.72-.798 1.29-1.733 1.88-2.643.48-.727.923-1.488 1.48-2.15.97-.6.454 1.607.31 2.357-.16.797-.374 1.58-.553 2.374-.042-.282-.043.5-.043.374.007-2.498-.052-1.68.666-3.522.52-1.34.923-2.73 1.25-4.143.13-.608.24-1.22.29-1.844.014-.17.02-.673.02-.505.015 1.483.02 1.396-.06.743-.14-.724-.57-.78-1.145-.582-1.105.553-2.002 1.484-2.9 2.36-1.61 1.62-3.173 3.3-4.738 4.976-1.884 2.044-3.793 4.06-5.748 6.023-1.936 1.958-4.01 3.733-6.16 5.392-2.046 1.582-4.287 2.79-6.607 3.797-2.21.933-4.53 1.416-6.882 1.623-2.223.144-4.43-.21-6.6-.71-.98-.23-1.93-.57-2.88-.914l.047-1.556c.943.346 1.89.686 2.864.916 2.156.5 4.347.854 6.56.71 2.337-.207 4.643-.69 6.84-1.62 2.31-1.007 4.537-2.215 6.57-3.795 2.145-1.66 4.213-3.43 6.142-5.39 1.952-1.963 3.86-3.98 5.742-6.024 1.568-1.68 3.13-3.365 4.745-4.99.912-.89 1.827-1.835 2.962-2.373.617-.196 1.18-.178 1.39.6.26 1.56.06 3.18-.264 4.71-.34 1.41-.748 2.803-1.27 4.146-.197.49-.255.65-.46 1.12-.07.155-.11.59-.215.46-.48-.585-.424-.99-.31-1.55.186-.79.392-1.573.548-2.37.22-1.24.373.964.006.768-.544.666-.99 1.418-1.467 2.14-.596.917-1.173 1.864-1.915 2.65-.425.373-.955.758-1.346.126-.34-.827-.33-1.756-.393-2.647-.044-.917-.05-1.85-.262-2.743-.165-.49-.384-.86-.915-.784-.58.126-1.11.41-1.68.58-.69.17-1.386.223-2.093.166-.963-.037-1.934-.072-2.87.222-1.445.49-2.795 1.226-4.08 2.092-1.528 1.003-3.028 2.066-4.62 2.942-1.16.594-2.354 1.147-3.65 1.232-.944.026-1.867-.107-2.784-.352-.853-.176-1.715-.31-2.572-.065-.865.284-1.645.755-2.35 1.385-.53.47-2.31 2.6-1.66-.352.307-.93.725-1.813 1.088-2.72.676-1.61 1.352-3.217 2.022-4.83.747-1.763 1.51-3.52 2.37-5.222.8-1.565 1.622-3.118 2.543-4.602.658-1.042 1.327-2.09 2.157-2.98.392-.372.883-.868 1.424-.544.774.87.313 2.455.34 3.506-.156 1.222-.455 2.41-.9 3.547-.556 1.407-1.192 2.775-1.978 4.048-.783 1.248-1.628 2.447-2.64 3.48-.89.884-1.835 1.715-2.954 2.23-.928.39-1.885.67-2.886.464-.91-.25-1.693-.73-2.313-1.518-.643-.838-1.195-1.748-1.774-2.638-.495-.7-1.005-1.418-1.7-1.89-.56-.31-1.087-.414-1.65-.033-.675.53-1.156 1.26-1.526 2.07-.45 1.02-.81 2.08-.99 3.2-.083.505-.156 1.01-.197 1.52-.01.15-.02.61-.03.456-.02-.28-.026-1.736-.008-.844l-.213 1.557z" opacity=".412" color="#000" fill="#003380" fill-rule="evenodd" overflow="visible"/><path d="M433.46 407.102h2.173V374.99h-2.174v32.11zm-1.23-5.027c-2.285-.74-3.853-2.436-4.705-5.135l-2.89.698c1.38 4.15 3.91 6.633 7.594 7.46v-3.023zm-6.216-16.652c.544 2.796 2.958 5.11 6.214 6.106v-3.2c-2.18-.66-3.734-2.28-3.734-4.19 0-1.87 1.493-3.47 3.6-4.15.043-.02.093-.047.134-.07v-2.932c-.298.055-.603.14-.893.232-2.71 1.076-4.7 3.104-5.29 5.537-.072.472-.12.952-.12 1.466 0 .41.032.804.09 1.195m12.42-4.59c1.257.82 2.057 2.038 2.387 3.62l2.908-.92c-1.23-3.782-3.62-5.953-7.13-6.537v2.956c.618.21 1.24.493 1.834.88m3.32 16.53c0 1.444-.85 2.75-2.18 3.66-.61.483-1.37.82-2.305 1.013-.2.06-.41.115-.627.152v2.91c.122-.016.232-.035.358-.056 4.405-1.425 7.445-4.408 7.445-7.876 0-3.577-3.208-6.364-7.81-7.742l.007 3.097c2.933.543 5.107 2.5 5.107 4.846" fill="gray" fill-rule="evenodd"/><path d="M434.54 427.103c-20.215 0-36.667-15.957-36.667-35.565 0-17.98 13.618-32.953 31.854-35.245v-6.873l1.806 1.01 18.92 10.587 1.798 1-1.79 1.014-18.922 10.61-1.806 1.01v-6.092c-11.147 2.18-19.393 11.823-19.393 22.985 0 12.945 10.862 23.48 24.206 23.48 13.358 0 24.215-10.535 24.215-23.48 0-3.846-.99-7.68-2.887-11.072l-.556-1.002 1.02-.56 8.742-4.855 1.065-.595.595 1.034c2.94 5.21 4.48 11.104 4.48 17.047 0 19.607-16.445 35.564-36.67 35.564" fill="#006680"/></svg>