<svg xmlns="http://www.w3.org/2000/svg" width="1000" height="1000"><path d="M-599.61 199.535l-.11-.16.118-.067c-.005.077 0 .15-.003.228" fill="#4d4d55"/><path d="M617.042 654.162l-235.416-.372 1.332-307.952 235.416.372-1.332 307.952" fill="#f9f9f9"/><path d="M409.948 439.013l190.435.45-.014-1.045-190.44-.45.01 1.045m-.168 17.502l190.432.453-.014-1.047-190.433-.45.014 1.05m-.31 17.78l190.435.45-.012-1.045-190.433-.45.014 1.046m.105 17.58l190.432.45-.01-1.044-190.436-.45.014 1.047m.11 17.646l190.436.452-.017-1.046-190.437-.45.012 1.047m-.17 17.694l190.434.45-.015-1.044-190.434-.454.015 1.046m-.17 17.89l190.434.454-.015-1.047-190.434-.454.013 1.047m-.028 17.73l190.433.45-.015-1.046-190.433-.45.014 1.046" fill="#131112"/><path d="M404.65 494.212c-1.207-.49-1.983-1.593-1.976-2.81.012-1.653 1.473-2.97 3.253-2.933.428.01.842.09 1.232.25 1.2.49 1.98 1.59 1.97 2.81-.01.8-.35 1.55-.96 2.1-.62.55-1.43.85-2.29.83-.43-.01-.84-.1-1.23-.25" fill="#a88c74"/><path d="M407.253 488.28c-.452-.185-.932-.282-1.43-.29-2.062-.042-3.754 1.483-3.77 3.4-.007 1.41.89 2.69 2.29 3.257.452.185.935.283 1.43.293 1 .02 1.942-.323 2.654-.965.712-.642 1.108-1.507 1.114-2.435.02-1.412-.88-2.692-2.28-3.26zm-.4.875c.982.4 1.67 1.314 1.66 2.364-.01 1.39-1.233 2.49-2.732 2.46-.36-.01-.71-.086-1.03-.216-.98-.398-1.67-1.313-1.66-2.364.01-1.393 1.238-2.496 2.737-2.466.367.01.717.082 1.036.21" fill="#efe2a8"/><path d="M404.375 512.127c-1.208-.49-1.984-1.593-1.976-2.81.01-1.653 1.47-2.97 3.25-2.934.43.01.84.09 1.23.252 1.21.49 1.98 1.593 1.97 2.812-.007.802-.35 1.547-.96 2.1-.618.554-1.43.85-2.29.832-.428-.01-.84-.1-1.23-.26m.22 17.202c-1.208-.49-1.983-1.595-1.976-2.81.013-1.656 1.474-2.97 3.253-2.936.43.01.844.092 1.234.252 1.21.49 1.985 1.592 1.975 2.81-.005.802-.347 1.55-.96 2.102-.616.552-1.43.85-2.29.83-.427-.01-.84-.095-1.23-.25m-.38 18.23c-1.206-.49-1.98-1.594-1.975-2.81.013-1.654 1.473-2.97 3.25-2.934.43.01.844.09 1.235.25 1.21.492 1.984 1.595 1.974 2.813-.006.8-.348 1.546-.96 2.1-.61.556-1.43.85-2.29.832-.428-.01-.84-.096-1.23-.252m-.277 17.6c-1.21-.49-1.986-1.593-1.98-2.81.013-1.653 1.474-2.97 3.253-2.934.43.01.843.09 1.234.25 1.21.49 1.985 1.593 1.974 2.81-.003.803-.345 1.55-.96 2.103-.61.55-1.426.85-2.29.83-.43-.01-.84-.098-1.23-.255" fill="#a88c74"/><path d="M407.176 506.116c-.452-.185-.932-.283-1.43-.29-2.062-.043-3.754 1.482-3.77 3.398-.007 1.412.89 2.69 2.29 3.26.452.184.934.282 1.43.29 1 .022 1.942-.32 2.654-.963.712-.64 1.107-1.5 1.114-2.43.01-1.41-.887-2.69-2.288-3.26zm-.4.874c.982.4 1.67 1.315 1.66 2.365-.01 1.393-1.233 2.497-2.732 2.467-.368-.01-.72-.083-1.036-.214-.982-.398-1.668-1.312-1.662-2.363.01-1.393 1.236-2.497 2.735-2.467.37.01.72.083 1.04.212m.13 16.565c-.45-.185-.932-.282-1.43-.29-2.06-.043-3.753 1.483-3.77 3.398-.006 1.412.89 2.69 2.29 3.26.45.184.935.282 1.43.292 1 .02 1.94-.323 2.655-.964.71-.64 1.107-1.5 1.114-2.43.012-1.41-.886-2.69-2.287-3.26zm-.4.875c.98.398 1.67 1.313 1.66 2.364-.01 1.393-1.232 2.497-2.73 2.467-.368-.01-.718-.08-1.035-.21-.982-.4-1.67-1.31-1.662-2.36.01-1.39 1.237-2.494 2.736-2.464.366.01.716.083 1.035.21m.32 17.04c-.45-.183-.932-.28-1.43-.29-2.062-.04-3.753 1.484-3.77 3.4-.007 1.41.89 2.69 2.29 3.26.45.184.935.282 1.43.29 1 .02 1.94-.323 2.654-.965.71-.643 1.104-1.51 1.112-2.435.01-1.415-.89-2.695-2.29-3.26zm-.4.876c.98.4 1.67 1.314 1.66 2.365-.01 1.39-1.233 2.496-2.732 2.466-.368-.012-.72-.083-1.036-.213-.982-.4-1.667-1.313-1.66-2.364.01-1.395 1.234-2.5 2.734-2.47.368.013.72.084 1.038.213m.325 16.804c-.46-.177-.932-.28-1.43-.29-2.06-.042-3.753 1.483-3.766 3.4-.01 1.41.89 2.69 2.29 3.26.46.18.932.28 1.427.292 1.003.02 1.944-.32 2.656-.962.71-.644 1.107-1.51 1.114-2.436.01-1.41-.886-2.692-2.286-3.26zm-.4.875c.98.4 1.67 1.32 1.66 2.37-.01 1.39-1.234 2.495-2.734 2.464-.37-.01-.72-.087-1.036-.216-.984-.4-1.67-1.312-1.664-2.364.012-1.392 1.235-2.496 2.735-2.465.37.01.718.08 1.04.21" fill="#efe2a8"/><path d="M404.726 476.456c-1.206-.49-1.983-1.593-1.975-2.81.02-1.653 1.48-2.97 3.26-2.934.43.01.844.09 1.234.252 1.208.49 1.984 1.593 1.974 2.81-.005.803-.347 1.55-.96 2.103-.616.553-1.43.85-2.29.83-.427-.01-.843-.094-1.233-.25" fill="#a88c74"/><path d="M407.047 470.808c-.45-.184-.934-.283-1.43-.292-2.063-.04-3.754 1.485-3.77 3.4-.007 1.412.89 2.69 2.29 3.26.45.185.933.282 1.43.292 1 .02 1.94-.323 2.653-.965.714-.642 1.107-1.508 1.115-2.437.01-1.41-.887-2.69-2.288-3.258zm-.4.875c.983.398 1.67 1.313 1.66 2.364-.01 1.393-1.233 2.497-2.733 2.467-.368-.01-.718-.082-1.037-.212-.98-.4-1.668-1.313-1.66-2.364.01-1.393 1.235-2.496 2.734-2.467.37.01.72.09 1.04.22" fill="#efe2a8"/><path d="M404.607 458.462c-1.207-.49-1.984-1.593-1.976-2.81.02-1.654 1.48-2.97 3.26-2.934.43.01.84.092 1.23.252 1.21.49 1.988 1.593 1.978 2.812-.004.802-.346 1.547-.96 2.1-.615.554-1.43.85-2.29.832-.426-.01-.84-.095-1.23-.252" fill="#a88c74"/><path d="M407.308 452.836c-.45-.185-.934-.283-1.43-.292-.998-.02-1.942.32-2.654.963-.712.642-1.108 1.507-1.115 2.436-.01 1.41.88 2.69 2.28 3.257.45.187.934.284 1.43.293.997.02 1.94-.322 2.65-.965.713-.64 1.11-1.505 1.115-2.434.01-1.412-.887-2.69-2.287-3.26zm-.4.873c.982.39 1.668 1.31 1.66 2.36-.012 1.39-1.234 2.49-2.734 2.46-.366-.012-.718-.083-1.038-.213-.98-.398-1.667-1.31-1.66-2.363.012-1.393 1.235-2.497 2.736-2.467.367.014.717.085 1.036.214" fill="#efe2a8"/><path d="M404.58 441.736c-1.207-.49-1.983-1.593-1.975-2.81.01-1.654 1.472-2.97 3.252-2.934.428.012.842.092 1.233.252 1.208.49 1.984 1.593 1.973 2.812-.004.802-.346 1.547-.96 2.1-.616.554-1.428.85-2.29.832-.427-.01-.842-.094-1.233-.252" fill="#a88c74"/><path d="M407.12 435.503c-.45-.185-.934-.283-1.428-.293-2.063-.037-3.755 1.485-3.77 3.4-.008 1.412.89 2.69 2.29 3.26.45.185.933.282 1.43.29.998.022 1.94-.322 2.653-.963.713-.642 1.107-1.507 1.114-2.437.01-1.41-.89-2.69-2.29-3.257zm-.397.874c.98.4 1.667 1.313 1.66 2.364-.01 1.4-1.235 2.5-2.735 2.47-.367-.01-.72-.08-1.036-.21-.983-.4-1.668-1.31-1.662-2.36.012-1.393 1.236-2.496 2.736-2.466.368.01.717.08 1.036.213" fill="#efe2a8"/><text transform="matrix(1.1 0 0 1.2 -160 -64.5)" y="558.536" x="544.916" style="text-indent:0;text-align:center;line-height:125%;text-transform:none;block-progression:tb;-inkscape-font-specification:Roboto Light" font-size="10.527" font-weight="300" letter-spacing="0" word-spacing="0" text-anchor="middle" color="#000" overflow="visible" font-family="Roboto"><tspan y="558.536" x="544.916">15.03.2015</tspan></text><path d="M529.803 611.44c-.108-1.43.007-2.844.248-4.244.2-1.124.57-2.187 1.03-3.206.39-.827.9-1.558 1.6-2.08.61-.388 1.2-.286 1.8.03.73.462 1.26 1.186 1.77 1.898.59.883 1.138 1.794 1.77 2.636.59.775 1.34 1.26 2.228 1.512.97.203 1.898-.075 2.797-.463 1.1-.516 2.026-1.345 2.9-2.223 1-1.033 1.836-2.23 2.606-3.474.778-1.272 1.405-2.64 1.95-4.045.437-1.13.725-2.32.86-3.54.008-.153.02-.623.027-.47.07 2.358.047.58-.287.087-.43-.32-.898.243-1.198.54-.81.897-1.475 1.935-2.125 2.97-.916 1.484-1.734 3.034-2.53 4.598-.853 1.704-1.615 3.46-2.36 5.22-.67 1.615-1.346 3.226-2.02 4.837-.356.908-.794 1.784-1.07 2.727-.01.055-.032.225-.03.17.033-.59.002-1.195.116-1.774.02-.09 1.168-1.054 1.3-1.17.72-.64 1.52-1.107 2.408-1.39.88-.244 1.767-.114 2.64.07.91.24 1.82.375 2.755.35 1.276-.085 2.45-.636 3.59-1.224 1.587-.877 3.082-1.937 4.605-2.94 1.296-.87 2.66-1.608 4.114-2.098.95-.297 1.94-.265 2.916-.23.694.056 1.38.004 2.056-.167.57-.182 1.104-.46 1.687-.582.57-.076.88.268 1.11.798.26.89.26 1.836.31 2.758.055.886.06 1.797.342 2.637.295.617.727.2 1.076-.13.72-.798 1.29-1.733 1.88-2.643.48-.725.926-1.486 1.48-2.15.97-.6.457 1.61.31 2.36-.16.796-.37 1.58-.55 2.373-.042-.282-.043.5-.043.374.007-2.497-.052-1.68.666-3.52.52-1.34.924-2.73 1.25-4.144.13-.606.24-1.22.29-1.842.015-.17.02-.673.02-.505.016 1.482.02 1.395-.06.742-.14-.724-.57-.78-1.144-.582-1.106.553-2.003 1.484-2.9 2.36-1.61 1.62-3.174 3.3-4.74 4.976-1.883 2.043-3.792 4.06-5.747 6.022-1.937 1.958-4.01 3.733-6.16 5.392-2.047 1.582-4.288 2.79-6.608 3.797-2.21.935-4.53 1.418-6.882 1.625-2.223.144-4.43-.21-6.6-.71-.98-.23-1.93-.57-2.88-.914l.047-1.555c.942.345 1.89.685 2.863.915 2.158.5 4.35.855 6.56.71 2.34-.206 4.645-.69 6.84-1.62 2.31-1.006 4.54-2.214 6.57-3.794 2.147-1.66 4.215-3.43 6.144-5.39 1.952-1.962 3.86-3.98 5.742-6.023 1.566-1.68 3.13-3.363 4.743-4.99.913-.89 1.828-1.833 2.963-2.37.617-.197 1.18-.18 1.39.6.26 1.56.06 3.18-.264 4.71-.34 1.41-.75 2.802-1.27 4.145-.198.49-.256.65-.46 1.12-.07.156-.11.59-.216.46-.48-.584-.424-.99-.31-1.55.186-.79.392-1.572.548-2.37.22-1.24.374.965.007.77-.544.665-.99 1.417-1.467 2.14-.596.916-1.173 1.863-1.915 2.65-.426.372-.956.757-1.347.125-.34-.827-.33-1.756-.392-2.647-.044-.916-.05-1.85-.262-2.742-.165-.49-.384-.86-.915-.782-.58.126-1.11.41-1.68.58-.69.17-1.386.223-2.093.166-.964-.038-1.935-.073-2.87.22-1.446.49-2.796 1.227-4.08 2.093-1.53 1.003-3.03 2.066-4.62 2.942-1.16.592-2.355 1.145-3.65 1.23-.945.026-1.868-.107-2.785-.35-.853-.178-1.715-.31-2.572-.067-.865.284-1.645.755-2.35 1.385-.53.47-2.31 2.6-1.66-.352.307-.93.725-1.813 1.088-2.72.677-1.61 1.353-3.217 2.023-4.83.748-1.763 1.51-3.52 2.37-5.222.8-1.564 1.623-3.117 2.544-4.6.658-1.043 1.327-2.09 2.157-2.98.393-.373.884-.87 1.425-.545.774.87.313 2.454.34 3.505-.156 1.223-.455 2.41-.9 3.548-.556 1.406-1.192 2.774-1.978 4.047-.784 1.248-1.63 2.447-2.64 3.48-.89.884-1.836 1.715-2.955 2.23-.928.39-1.885.67-2.886.464-.91-.25-1.694-.73-2.314-1.518-.643-.838-1.195-1.748-1.774-2.638-.497-.7-1.007-1.42-1.7-1.89-.56-.31-1.09-.415-1.65-.034-.677.53-1.158 1.26-1.528 2.07-.45 1.02-.81 2.08-.99 3.2-.083.505-.156 1.01-.197 1.52-.01.15-.02.61-.03.456-.02-.28-.026-1.736-.008-.844l-.214 1.557z" opacity=".412" color="#000" fill="#003380" fill-rule="evenodd" overflow="visible"/><path d="M433.46 407.102h2.173V374.99h-2.174v32.11zm-1.23-5.027c-2.285-.74-3.853-2.436-4.705-5.135l-2.89.698c1.38 4.15 3.91 6.633 7.594 7.46v-3.023zm-6.216-16.652c.544 2.796 2.958 5.11 6.214 6.106v-3.2c-2.18-.66-3.734-2.28-3.734-4.19 0-1.87 1.493-3.47 3.6-4.15.043-.02.093-.05.134-.07v-2.936c-.298.055-.603.14-.893.232-2.71 1.075-4.7 3.103-5.29 5.536-.072.472-.12.952-.12 1.466 0 .41.032.803.09 1.194m12.42-4.59c1.257.82 2.057 2.038 2.387 3.62l2.908-.92c-1.23-3.782-3.62-5.953-7.13-6.537v2.956c.618.21 1.24.494 1.834.88m3.32 16.53c0 1.445-.85 2.75-2.18 3.66-.61.484-1.37.82-2.305 1.014-.2.06-.41.114-.63.15v2.91c.12-.015.23-.034.36-.055 4.402-1.425 7.442-4.408 7.442-7.876 0-3.578-3.208-6.365-7.81-7.743l.007 3.098c2.933.542 5.107 2.5 5.107 4.845" fill="gray" fill-rule="evenodd"/><path d="M434.54 427.103c-20.215 0-36.667-15.957-36.667-35.565 0-17.98 13.618-32.953 31.854-35.245v-6.873l1.806 1.01 18.92 10.587 1.798 1-1.79 1.014-18.92 10.61-1.804 1.01v-6.09c-11.147 2.18-19.393 11.825-19.393 22.987 0 12.945 10.863 23.48 24.207 23.48 13.357 0 24.214-10.535 24.214-23.48 0-3.846-.99-7.68-2.886-11.072l-.556-1.002 1.02-.56 8.742-4.854 1.065-.596.593 1.035c2.94 5.21 4.48 11.103 4.48 17.046 0 19.608-16.445 35.565-36.67 35.565" fill="#006680"/></svg>