<svg xmlns="http://www.w3.org/2000/svg" width="1000" height="1000"><path d="M572.596 715.962c-25.206-15.358-50.403-23.775-73.2-41.613-9-6.94-1.792-26.25-10.79-27.25-41.404-3.96-83.99-7.92-125.994-11.388-7.19-.5-22.198 1.98-25.797-.5-18.598-13.864-39.596-23.775-56.385-38.14-9-7.926-15.607-20.807-15.607-33.684-16.798.497-39.595 4.96-44.386-11.886-5.4-21.295-26.997-24.27-49.794-26.253l16.19-241.218 395.362 25.755c9.59-9.42 26.396-11.895 37.795-12.39 68.384-2.97 68.384 43.1 88.19 39.632 15.006 4.45 37.187-27.245 56.985-31.207 20.397-3.97 41.412 14.36 59.993-1.487.6 6.93 2.408 13.865 4.2 20.8-7.19 1.484-7.8 9.91-11.39 13.376-12 13.867-10.208 36.158-19.79 50.52-4.216 6.443-8.416 17.833-10.807 22.79-15 30.21-33 65.383-68.98 87.675-5.41 3.47-6.61 12.874-11.41 16.838-10.18 7.43-22.2 14.86-32.39 23.275-2.41 1.984-10.2-.49-12.005 1.49-3.6 3.96 7.8 8.918 3.008 14.366-4.2 4.95-13.2 5.45-16.806 8.916-4.2 3.965.6 12.882-2.39 17.832-1.81 3.466-10.21 3.964-12.6 8.416-4.8 8.424-6.607 18.826-12 25.76C599.6 645.616 572 671.376 576.2 706.05c0 3.466-1.207 6.933-3.6 9.91" fill="#2ca05a"/><path d="M188.87 410.568l51.892-115.07 95.547 93.12 99.87-83.958 115.86 5.24-1.7 68.987 56.57 71.435 81.267-81.084-21.01 116.116-61.54 67.792-49.026 84.888-88.166-18.464-28.6-66.938 1.113-102.557-128.26 31.555-125.72-69.994 147.15-19.024 216.226-13.723 55.287 174.26-164.406-104.48 109.12-69.78-82.453 242.433 137.74-68.178-165.79-.515-62.7-81.302-39.423-80.43" fill="none" stroke="#fff" stroke-width="5.198" stroke-linecap="round" stroke-linejoin="round" stroke-miterlimit="1"/><path d="M242.832 297.916l195.31 9.324 105.656 72.06" fill="none" stroke="#fff" stroke-width="5.198" stroke-linecap="round" stroke-linejoin="round" stroke-miterlimit="1"/><path d="M239.092 306.112c-3.816-1.997-5.326-6.563-3.37-10.187 1.953-3.62 6.644-4.945 10.46-2.948 3.815 1.997 5.324 6.568 3.37 10.187-1.955 3.624-6.644 4.945-10.46 2.948" fill="#0069a3" fill-rule="evenodd"/><path d="M248.594 288.505c-6.42-3.36-14.294-1.142-17.585 4.956-3.3 6.1-.76 13.77 5.66 17.13 6.42 3.36 14.29 1.14 17.583-4.95 3.29-6.097.753-13.765-5.668-17.125m-4.83 8.947c1.216.636 1.7 2.093 1.075 3.247s-2.12 1.574-3.336.94c-1.215-.638-1.697-2.095-1.074-3.25.624-1.155 2.12-1.576 3.335-.94" fill="#fff"/><path d="M333.07 400.148c-3.815-1.997-5.326-6.563-3.37-10.187 1.953-3.61 6.644-4.94 10.46-2.94 3.816 2 5.324 6.57 3.37 10.19-1.955 3.623-6.644 4.945-10.46 2.95" fill="#0069a3" fill-rule="evenodd"/><path d="M342.573 382.54c-6.42-3.36-14.295-1.14-17.586 4.956-3.29 6.098-.753 13.766 5.667 17.126 6.42 3.36 14.295 1.142 17.586-4.956 3.29-6.098.754-13.765-5.667-17.126m-4.83 8.948c1.216.636 1.698 2.093 1.075 3.247s-2.12 1.576-3.334.94c-1.216-.636-1.698-2.093-1.075-3.248.62-1.154 2.11-1.576 3.33-.94" fill="#fff"/><path d="M182.23 417.45c-3.705-1.94-5.175-6.38-3.275-9.898 1.898-3.516 6.46-4.8 10.166-2.863 3.71 1.93 5.18 6.37 3.28 9.89-1.9 3.52-6.46 4.8-10.16 2.86" fill="#0069a3" fill-rule="evenodd"/><path d="M189.997 403.068c-4.656-2.436-10.364-.827-12.75 3.592-2.386 4.418-.546 9.975 4.11 12.41 4.655 2.436 10.364.828 12.75-3.59 2.385-4.42.545-9.977-4.11-12.412m-1.75 3.242c2.764 1.447 3.86 4.758 2.443 7.383-1.416 2.623-4.818 3.582-7.583 2.135-2.765-1.446-3.86-4.758-2.445-7.38 1.417-2.626 4.82-3.584 7.584-2.138" fill="#fff"/><path d="M307.482 491.256c-3.815-1.997-5.326-6.563-3.37-10.186 1.953-3.62 6.644-4.945 10.46-2.948 3.81 1.994 5.324 6.567 3.37 10.186-1.955 3.624-6.648 4.943-10.46 2.948" fill="#0069a3" fill-rule="evenodd"/><path d="M316.985 473.65c-6.42-3.36-14.294-1.142-17.585 4.956-3.29 6.098-.754 13.765 5.667 17.126 6.42 3.36 14.294 1.14 17.585-4.956 3.29-6.098.754-13.766-5.667-17.126m-4.83 8.947c1.217.636 1.7 2.093 1.076 3.248-.62 1.154-2.12 1.576-3.33.94-1.21-.637-1.7-2.094-1.07-3.248.624-1.154 2.12-1.576 3.336-.94" fill="#fff"/><path d="M428.773 314.114c-4.366-2.36-6.095-7.764-3.858-12.045 2.237-4.28 7.608-5.85 11.973-3.49 4.365 2.36 6.097 7.76 3.86 12.04-2.237 4.28-7.61 5.845-11.975 3.485" fill="#0069a3" fill-rule="evenodd"/><path d="M437.92 296.61c-5.485-2.965-12.21-1.007-15.02 4.372-2.81 5.377-.642 12.14 4.84 15.105 5.485 2.964 12.21 1.007 15.02-4.37 2.81-5.38.642-12.143-4.84-15.107m-2.063 3.946c3.257 1.76 4.548 5.79 2.88 8.986-1.67 3.193-5.677 4.36-8.933 2.6-3.257-1.762-4.55-5.793-2.88-8.985 1.67-3.195 5.676-4.36 8.933-2.6" fill="#fff"/><path d="M545.637 646.565c-8.814-4.68-12.31-15.405-7.793-23.9 4.518-8.495 15.365-11.594 24.18-6.913 8.814 4.682 12.308 15.4 7.79 23.894-4.517 8.496-15.363 11.6-24.177 6.92" fill="#0069a3" fill-rule="evenodd"/><path d="M563.206 609.136c-11.072-5.88-24.65-1.997-30.325 8.674-5.67 10.668-1.29 24.088 9.78 29.97 11.077 5.88 24.65 1.994 30.32-8.673 5.68-10.672 1.308-24.09-9.77-29.97m-4.16 7.83c6.577 3.492 9.18 11.487 5.81 17.825-3.37 6.334-11.456 8.65-18.032 5.157-6.576-3.5-9.183-11.49-5.815-17.83 3.37-6.34 11.46-8.65 18.038-5.16" fill="#fff"/><path d="M590.148 571.718c-10.222-5.35-14.273-17.602-9.033-27.31 5.237-9.703 17.816-13.252 28.038-7.902 10.223 5.35 14.278 17.605 9.04 27.308-5.24 9.708-17.822 13.254-28.045 7.904" fill="#0069a3" fill-rule="evenodd"/><path d="M611.568 532.033c-12.84-6.72-28.588-2.283-35.17 9.912-6.58 12.19-1.506 27.526 11.336 34.247 12.842 6.72 28.584 2.28 35.164-9.91 6.582-12.195 1.512-27.528-11.33-34.25m-4.83 8.948c7.628 3.992 10.648 13.128 6.738 20.37-3.906 7.24-13.286 9.886-20.913 5.895-7.627-3.992-10.65-13.13-6.744-20.37 3.9-7.242 13.29-9.886 20.92-5.895" fill="#fff"/><path d="M464.7 623.47c-3.817-1.997-5.328-6.563-3.372-10.186 1.954-3.62 6.645-4.945 10.46-2.948 3.816 1.997 5.325 6.567 3.37 10.186-1.955 3.624-6.643 4.945-10.46 2.948" fill="#0069a3" fill-rule="evenodd"/><path d="M474.202 605.866c-6.42-3.36-14.295-1.142-17.586 4.956-3.29 6.097-.753 13.765 5.667 17.125 6.42 3.36 14.295 1.142 17.586-4.956 3.29-6.09.75-13.76-5.67-17.12m-4.83 8.95c1.21.638 1.7 2.095 1.07 3.25-.625 1.155-2.12 1.576-3.336.94-1.216-.636-1.698-2.093-1.075-3.247.623-1.155 2.12-1.576 3.335-.94" fill="#fff"/><path d="M654.19 506.12c-7.698-3.938-10.75-12.955-6.805-20.102 3.946-7.148 13.416-9.757 21.113-5.818 7.697 3.94 10.75 12.956 6.804 20.103-3.946 7.148-13.415 9.757-21.113 5.818" fill="#0069a3" fill-rule="evenodd"/><path d="M670.913 475.823c-10.312-5.277-22.953-1.793-28.238 7.782-5.286 9.575-1.212 21.61 9.1 26.888 10.312 5.277 22.952 1.794 28.238-7.78 5.285-9.576 1.212-21.613-9.1-26.89m-4.83 8.75c5.098 2.607 7.12 8.585 4.508 13.317-2.61 4.738-8.89 6.463-13.98 3.855-5.094-2.608-7.12-8.582-4.51-13.32 2.617-4.732 8.89-6.462 13.99-3.853" fill="#fff"/><path d="M434.634 560.828c-3.816-1.997-5.327-6.563-3.37-10.187 1.953-3.61 6.643-4.94 10.46-2.94 3.815 2 5.323 6.57 3.37 10.19-1.956 3.624-6.644 4.945-10.46 2.95" fill="#0069a3" fill-rule="evenodd"/><path d="M444.136 543.22c-6.42-3.36-14.295-1.14-17.586 4.958-3.29 6.097-.754 13.765 5.667 17.125 6.42 3.36 14.295 1.142 17.586-4.956 3.29-6.097.754-13.765-5.667-17.126m-4.83 8.95c1.216.64 1.698 2.1 1.075 3.25-.62 1.16-2.11 1.58-3.33.94-1.21-.63-1.692-2.09-1.07-3.242.624-1.155 2.12-1.576 3.336-.94" fill="#fff"/><path d="M438.043 460.154c-4.753-2.488-6.643-8.187-4.204-12.706 2.43-4.514 8.29-6.164 13.04-3.677 4.76 2.5 6.64 8.2 4.2 12.71-2.44 4.52-8.29 6.17-13.047 3.68" fill="#0069a3" fill-rule="evenodd"/><path d="M449.3 439.3c-7.363-3.853-16.398-1.307-20.172 5.685-3.774 6.993-.863 15.79 6.5 19.645 7.363 3.853 16.398 1.307 20.172-5.685 3.774-6.993.863-15.79-6.5-19.645m-4.83 8.947c2.158 1.13 3.015 3.718 1.91 5.767-1.107 2.05-3.765 2.798-5.922 1.67-2.158-1.13-3.015-3.72-1.91-5.768 1.107-2.05 3.765-2.798 5.923-1.67" fill="#fff"/><path d="M371.416 477.933c-5.717-2.954-7.983-9.717-5.053-15.077 2.93-5.36 9.963-7.317 15.68-4.363 5.716 2.954 7.982 9.716 5.052 15.077-2.93 5.36-9.963 7.317-15.68 4.363" fill="#0069a3" fill-rule="evenodd"/><path d="M383.837 455.212c-7.658-3.958-17.046-1.346-20.97 5.835-3.927 7.182-.9 16.208 6.757 20.166 7.658 3.958 17.046 1.345 20.97-5.836 3.926-7.18.9-16.208-6.757-20.165m-3.587 6.56c3.786 1.957 5.288 6.44 3.348 9.99-1.942 3.552-6.602 4.846-10.388 2.89-3.79-1.958-5.29-6.436-3.347-9.99 1.94-3.548 6.6-4.847 10.387-2.89" fill="#fff"/><path d="M601.707 454.22c-3.816-1.998-5.327-6.564-3.37-10.188 1.952-3.62 6.643-4.945 10.46-2.948 3.815 1.997 5.323 6.568 3.37 10.187-1.956 3.63-6.645 4.95-10.46 2.95" fill="#0069a3" fill-rule="evenodd"/><path d="M611.21 436.613c-6.422-3.36-14.295-1.14-17.586 4.956-3.29 6.09-.754 13.76 5.667 17.12 6.43 3.36 14.3 1.14 17.59-4.96 3.29-6.1.76-13.766-5.662-17.127m-4.83 8.947c1.216.638 1.698 2.095 1.076 3.25-.623 1.154-2.12 1.576-3.335.94-1.216-.636-1.698-2.094-1.075-3.248s2.12-1.576 3.335-.94" fill="#fff"/><path d="M545.99 388.394c-5.135-2.724-7.17-8.963-4.538-13.906 2.632-4.943 8.95-6.748 14.084-4.024 5.135 2.725 7.173 8.962 4.54 13.906-2.63 4.943-8.95 6.75-14.086 4.024" fill="#0069a3" fill-rule="evenodd"/><path d="M556.75 368.186c-6.45-3.422-14.36-1.162-17.667 5.048-3.305 6.207-.756 14.016 5.694 17.438 6.45 3.423 14.36 1.163 17.665-5.045 3.306-6.21.757-14.018-5.693-17.44m-2.43 4.555c3.83 2.033 5.35 6.686 3.38 10.374-1.963 3.686-6.676 5.033-10.507 3-3.83-2.032-5.35-6.686-3.39-10.37 1.965-3.69 6.678-5.036 10.51-3.004" fill="#fff"/><path d="M683.306 376.534c-3.816-1.997-5.327-6.563-3.37-10.187 1.952-3.62 6.643-4.945 10.46-2.948 3.815 1.99 5.323 6.56 3.37 10.18-1.956 3.62-6.645 4.942-10.46 2.95" fill="#0069a3" fill-rule="evenodd"/><path d="M692.808 358.928c-6.42-3.36-14.294-1.14-17.586 4.956-3.29 6.098-.753 13.766 5.668 17.126 6.42 3.36 14.294 1.142 17.585-4.956 3.29-6.098.754-13.765-5.667-17.126m-4.83 8.948c1.216.636 1.698 2.093 1.075 3.247s-2.12 1.576-3.334.94c-1.22-.636-1.7-2.093-1.08-3.248.62-1.154 2.12-1.576 3.33-.94" fill="#fff"/><path d="M551.338 319.897c-3.816-1.997-5.327-6.563-3.37-10.187 1.953-3.62 6.644-4.945 10.46-2.948 3.815 1.998 5.324 6.568 3.37 10.187-1.956 3.62-6.644 4.94-10.46 2.94" fill="#0069a3" fill-rule="evenodd"/><path d="M560.84 302.29c-6.42-3.36-14.294-1.14-17.585 4.957-3.29 6.097-.754 13.765 5.667 17.125 6.42 3.36 14.294 1.142 17.586-4.956 3.29-6.097.753-13.765-5.668-17.126m-4.83 8.948c1.217.636 1.7 2.093 1.076 3.247-.623 1.154-2.12 1.576-3.335.94-1.21-.636-1.69-2.093-1.07-3.248.63-1.154 2.12-1.575 3.34-.94" fill="#fff"/></svg>