<svg xmlns="http://www.w3.org/2000/svg" width="1000" height="1000"><path d="M572.596 715.962c-25.206-15.358-50.403-23.775-73.2-41.613-9-6.94-1.792-26.25-10.79-27.248-41.404-3.96-83.99-7.92-125.994-11.386-7.19-.5-22.198 1.98-25.797-.5-18.598-13.864-39.596-23.775-56.385-38.14-9-7.926-15.607-20.807-15.607-33.684-16.798.497-39.595 4.958-44.386-11.886-5.4-21.295-26.997-24.27-49.794-26.253l16.19-241.218 395.362 25.755c9.59-9.417 26.396-11.893 37.795-12.39 68.384-2.97 68.384 43.1 88.19 39.634 15.006 4.452 37.187-27.244 56.985-31.206 20.397-3.97 41.412 14.36 59.993-1.487.6 6.93 2.408 13.866 4.2 20.8-7.19 1.485-7.8 9.91-11.39 13.377-12 13.867-10.208 36.158-19.79 50.52-4.216 6.443-8.416 17.833-10.807 22.79-15 30.21-33 65.383-68.98 87.675-5.41 3.468-6.614 12.873-11.413 16.837-10.182 7.43-22.198 14.86-32.388 23.276-2.41 1.983-10.2-.49-12.008 1.49-3.6 3.96 7.8 8.917 3.008 14.365-4.2 4.95-13.2 5.45-16.807 8.916-4.2 3.965.6 12.882-2.39 17.832-1.81 3.466-10.21 3.964-12.6 8.416-4.8 8.424-6.607 18.826-12 25.76C599.598 645.616 572 671.376 576.2 706.05c0 3.466-1.208 6.933-3.6 9.91" fill="#2ca05a"/><path d="M188.87 410.568l51.892-115.07 95.547 93.12 99.87-83.958 115.87 5.24-1.7 68.987 56.57 71.433 81.264-81.083-21.01 116.116-61.542 67.792-49.024 84.888-88.166-18.464-28.602-66.94 1.114-102.56-128.262 31.556-125.72-70 147.15-19.024 216.224-13.722 55.285 174.26-164.41-104.48 109.128-69.77-82.454 242.438 137.74-68.178-165.792-.513-62.703-81.304-39.423-80.426" fill="none" stroke="#fff" stroke-width="5.198" stroke-linecap="round" stroke-linejoin="round" stroke-miterlimit="1"/><path d="M242.83 297.915l195.312 9.324 105.656 72.06" fill="none" stroke="#fff" stroke-width="5.198" stroke-linecap="round" stroke-linejoin="round" stroke-miterlimit="1"/><path d="M244.645 311.59c-3.943-2.04-5.504-6.708-3.483-10.412 2.02-3.7 6.866-5.055 10.81-3.013 3.942 2.04 5.5 6.713 3.482 10.413-2.02 3.704-6.866 5.055-10.81 3.013" fill="#0069a3" fill-rule="evenodd"/><path d="M254.464 293.592c-6.635-3.435-14.77-1.166-18.17 5.067-3.402 6.23-.78 14.07 5.855 17.5 6.63 3.435 14.77 1.167 18.17-5.066 3.4-6.234.78-14.072-5.86-17.508m-4.99 9.146c1.255.65 1.753 2.138 1.11 3.318-.644 1.18-2.19 1.61-3.446.96-1.257-.65-1.756-2.14-1.112-3.32.644-1.18 2.19-1.61 3.446-.96" fill="#fff"/><path d="M341.756 407.716c-3.943-2.04-5.504-6.708-3.483-10.413 2.02-3.7 6.866-5.054 10.81-3.013 3.942 2.04 5.5 6.713 3.482 10.413-2.02 3.704-6.866 5.055-10.81 3.013" fill="#0069a3" fill-rule="evenodd"/><path d="M351.575 389.718c-6.635-3.435-14.77-1.167-18.17 5.066-3.402 6.233-.78 14.07 5.855 17.506 6.634 3.435 14.77 1.167 18.17-5.066 3.402-6.233.78-14.07-5.855-17.506m-4.99 9.146c1.256.65 1.754 2.14 1.11 3.32-.643 1.18-2.19 1.61-3.445.96-1.256-.65-1.754-2.14-1.11-3.32.643-1.18 2.19-1.61 3.445-.96" fill="#fff"/><path d="M185.89 425.403c-3.83-1.982-5.35-6.522-3.387-10.118 1.962-3.594 6.676-4.908 10.506-2.926 3.823 1.98 5.34 6.52 3.38 10.11-1.96 3.595-6.677 4.91-10.506 2.93" fill="#0069a3" fill-rule="evenodd"/><path d="M193.913 410.702c-4.81-2.49-10.71-.846-13.175 3.672-2.465 4.515-.564 10.196 4.247 12.686 4.81 2.49 10.71.845 13.174-3.67 2.46-4.518.56-10.2-4.25-12.688m-1.81 3.314c2.86 1.48 3.99 4.864 2.525 7.547-1.465 2.68-4.98 3.66-7.837 2.182-2.857-1.478-3.99-4.864-2.527-7.545 1.466-2.683 4.98-3.663 7.838-2.184" fill="#fff"/><path d="M315.315 500.85c-3.943-2.042-5.504-6.71-3.483-10.413 2.018-3.7 6.866-5.055 10.81-3.014 3.937 2.04 5.5 6.714 3.482 10.413-2.02 3.704-6.87 5.053-10.81 3.014" fill="#0069a3" fill-rule="evenodd"/><path d="M325.135 482.852c-6.635-3.435-14.77-1.167-18.172 5.066-3.4 6.233-.78 14.072 5.856 17.507 6.63 3.435 14.77 1.166 18.17-5.067 3.4-6.233.78-14.07-5.86-17.506m-4.99 9.146c1.256.65 1.754 2.14 1.11 3.32-.644 1.18-2.19 1.61-3.446.96-1.257-.65-1.755-2.14-1.11-3.32.643-1.18 2.19-1.61 3.445-.96" fill="#fff"/><path d="M440.648 319.77c-4.51-2.41-6.298-7.935-3.986-12.312 2.31-4.375 7.862-5.975 12.372-3.563 4.51 2.412 6.3 7.937 3.99 12.312-2.313 4.377-7.865 5.976-12.376 3.564" fill="#0069a3" fill-rule="evenodd"/><path d="M450.1 301.878c-5.667-3.03-12.615-1.03-15.52 4.47-2.903 5.495-.663 12.41 5.003 15.44 5.666 3.03 12.614 1.03 15.518-4.467 2.91-5.493.67-12.41-5-15.44m-2.13 4.037c3.37 1.8 4.7 5.92 2.978 9.185-1.723 3.264-5.864 4.456-9.23 2.657-3.365-1.8-4.7-5.92-2.975-9.185 1.725-3.264 5.865-4.457 9.23-2.657" fill="#fff"/><path d="M561.408 659.61c-9.108-4.786-12.72-15.747-8.053-24.43 4.67-8.685 15.878-11.853 24.986-7.068 9.11 4.786 12.72 15.742 8.057 24.426-4.67 8.683-15.876 11.858-24.984 7.072" fill="#0069a3" fill-rule="evenodd"/><path d="M579.563 621.35c-11.442-6.013-25.472-2.043-31.336 8.866-5.863 10.905-1.34 24.623 10.1 30.635 11.442 6.018 25.468 2.04 31.33-8.86 5.865-10.91 1.348-24.624-10.094-30.636m-4.303 8.004c6.796 3.57 9.486 11.743 6.003 18.222-3.48 6.474-11.838 8.842-18.633 5.27-6.795-3.57-9.49-11.744-6.01-18.22 3.484-6.48 11.845-8.844 18.64-5.273" fill="#fff"/><path d="M607.403 583.1c-10.563-5.47-14.748-17.993-9.334-27.917 5.41-9.92 18.41-13.547 28.97-8.078 10.56 5.47 14.75 17.996 9.34 27.915-5.416 9.923-18.42 13.55-28.98 8.08" fill="#0069a3" fill-rule="evenodd"/><path d="M629.537 542.532c-13.27-6.87-29.54-2.333-36.343 10.133-6.8 12.462-1.555 28.138 11.715 35.008 13.263 6.87 29.53 2.33 36.33-10.13 6.8-12.467 1.562-28.14-11.708-35.01m-4.99 9.146c7.88 4.08 11 13.413 6.962 20.82-4.038 7.4-13.73 10.102-21.61 6.022-7.882-4.08-11.007-13.422-6.97-20.82 4.04-7.405 13.736-10.11 21.617-6.028" fill="#fff"/><path d="M477.772 636.002c-3.942-2.04-5.504-6.71-3.483-10.413 2.013-3.7 6.86-5.06 10.803-3.02 3.943 2.042 5.502 6.714 3.483 10.413-2.02 3.705-6.866 5.055-10.81 3.014" fill="#0069a3" fill-rule="evenodd"/><path d="M487.592 618.006c-6.635-3.435-14.77-1.167-18.172 5.066-3.4 6.233-.78 14.07 5.856 17.506 6.635 3.436 14.77 1.167 18.172-5.066 3.4-6.233.78-14.07-5.856-17.506m-4.99 9.146c1.256.65 1.754 2.14 1.11 3.32-.644 1.18-2.19 1.61-3.446.96-1.256-.65-1.754-2.14-1.11-3.32.644-1.18 2.19-1.61 3.446-.96" fill="#fff"/><path d="M673.58 516.045c-7.955-4.026-11.11-13.244-7.032-20.55 4.077-7.307 13.863-9.974 21.817-5.948 7.954 4.027 11.107 13.245 7.03 20.55-4.077 7.307-13.862 9.975-21.816 5.948" fill="#0069a3" fill-rule="evenodd"/><path d="M690.86 485.074c-10.656-5.394-23.718-1.834-29.18 7.954-5.46 9.788-1.252 22.092 9.404 27.486 10.656 5.394 23.717 1.834 29.18-7.954 5.46-9.788 1.25-22.092-9.404-27.486m-4.99 8.943c5.267 2.666 7.357 8.776 4.657 13.614-2.702 4.85-9.186 6.61-14.453 3.94-5.267-2.66-7.36-8.77-4.658-13.61 2.7-4.84 9.187-6.605 14.454-3.94" fill="#fff"/><path d="M446.705 571.967c-3.943-2.04-5.504-6.708-3.483-10.413 2.018-3.7 6.866-5.054 10.81-3.013 3.942 2.047 5.5 6.72 3.482 10.42-2.02 3.703-6.866 5.054-10.81 3.012" fill="#0069a3" fill-rule="evenodd"/><path d="M456.524 553.97c-6.635-3.435-14.77-1.167-18.172 5.066-3.4 6.233-.78 14.07 5.856 17.506 6.635 3.435 14.77 1.167 18.172-5.066 3.4-6.233.778-14.07-5.856-17.506m-4.99 9.146c1.255.65 1.754 2.14 1.11 3.32-.644 1.18-2.19 1.61-3.446.96-1.256-.65-1.754-2.14-1.11-3.32.643-1.18 2.19-1.61 3.445-.96" fill="#fff"/><path d="M450.228 469.056c-4.912-2.543-6.865-8.37-4.345-12.988 2.518-4.614 8.57-6.3 13.482-3.758 4.916 2.545 6.862 8.373 4.344 12.987-2.52 4.62-8.57 6.305-13.487 3.76" fill="#0069a3" fill-rule="evenodd"/><path d="M461.86 447.74c-7.61-3.94-16.945-1.337-20.845 5.81-3.9 7.148-.89 16.142 6.718 20.082 7.608 3.94 16.944 1.336 20.844-5.812 3.9-7.148.89-16.142-6.717-20.08m-4.99 9.145c2.23 1.154 3.114 3.8 1.97 5.895-1.14 2.094-3.888 2.86-6.117 1.705-2.23-1.154-3.115-3.8-1.972-5.894 1.15-2.09 3.89-2.86 6.12-1.7" fill="#fff"/><path d="M381.38 487.23c-5.907-3.02-8.25-9.932-5.22-15.412 3.026-5.48 10.293-7.48 16.2-4.46 5.908 3.02 8.25 9.933 5.222 15.412-3.028 5.48-10.295 7.48-16.202 4.46" fill="#0069a3" fill-rule="evenodd"/><path d="M394.215 464.004c-7.914-4.045-17.614-1.375-21.67 5.966-4.057 7.34-.93 16.568 6.983 20.613 7.914 4.046 17.614 1.375 21.67-5.965 4.056-7.34.93-16.568-6.983-20.614m-3.706 6.707c3.91 2 5.46 6.588 3.453 10.21-2.007 3.638-6.822 4.96-10.734 2.96-3.915-2-5.466-6.58-3.46-10.21 2.006-3.63 6.82-4.956 10.735-2.954" fill="#fff"/><path d="M619.347 462.99c-3.943-2.042-5.504-6.71-3.483-10.414 2.018-3.7 6.865-5.055 10.808-3.013 3.943 2.04 5.502 6.713 3.484 10.413-2.02 3.704-6.866 5.055-10.81 3.013" fill="#0069a3" fill-rule="evenodd"/><path d="M629.166 444.992c-6.635-3.435-14.77-1.166-18.172 5.067-3.4 6.23-.778 14.07 5.856 17.5 6.635 3.435 14.77 1.167 18.172-5.066 3.4-6.234.78-14.073-5.856-17.508m-4.99 9.145c1.256.65 1.754 2.14 1.11 3.32-.643 1.18-2.19 1.61-3.445.96-1.25-.65-1.75-2.14-1.11-3.32.65-1.18 2.19-1.61 3.45-.96" fill="#fff"/><path d="M561.773 395.702c-5.306-2.785-7.408-9.162-4.69-14.215 2.72-5.053 9.248-6.898 14.554-4.113 5.306 2.784 7.412 9.16 4.693 14.214-2.72 5.053-9.25 6.9-14.557 4.114" fill="#0069a3" fill-rule="evenodd"/><path d="M572.89 375.045c-6.665-3.498-14.838-1.188-18.255 5.16-3.415 6.345-.78 14.327 5.885 17.826 6.665 3.5 14.838 1.19 18.254-5.152 3.416-6.347.782-14.33-5.883-17.828m-2.5 4.656c3.96 2.078 5.527 6.835 3.5 10.605-2.03 3.768-6.9 5.145-10.86 3.067-3.96-2.077-5.53-6.834-3.5-10.602 2.03-3.77 6.9-5.145 10.858-3.068" fill="#fff"/><path d="M703.666 383.578c-3.943-2.04-5.504-6.71-3.483-10.413 2.018-3.7 6.865-5.055 10.808-3.014 3.95 2.048 5.508 6.72 3.49 10.42-2.02 3.704-6.866 5.054-10.81 3.013" fill="#0069a3" fill-rule="evenodd"/><path d="M713.485 365.58c-6.635-3.434-14.77-1.166-18.172 5.067-3.4 6.234-.78 14.072 5.856 17.507 6.63 3.435 14.77 1.167 18.17-5.067 3.4-6.233.78-14.07-5.86-17.506m-4.99 9.15c1.256.65 1.754 2.14 1.11 3.32-.644 1.18-2.19 1.61-3.446.96-1.257-.65-1.755-2.14-1.11-3.32.643-1.18 2.19-1.61 3.445-.96" fill="#fff"/><path d="M567.3 325.683c-3.944-2.042-5.505-6.71-3.484-10.413 2.02-3.7 6.866-5.055 10.81-3.014 3.942 2.04 5.5 6.713 3.482 10.413-2.02 3.7-6.866 5.05-10.81 3.01" fill="#0069a3" fill-rule="evenodd"/><path d="M577.118 307.685c-6.634-3.436-14.77-1.167-18.17 5.066-3.402 6.24-.78 14.077 5.855 17.51 6.635 3.437 14.77 1.17 18.17-5.064 3.402-6.232.78-14.07-5.855-17.505m-4.99 9.146c1.256.65 1.754 2.14 1.11 3.32-.643 1.18-2.19 1.61-3.445.96-1.256-.65-1.754-2.14-1.11-3.32.643-1.178 2.19-1.61 3.445-.96" fill="#fff"/></svg>