<?xml version="1.0" encoding="UTF-8" standalone="no"?>
<!-- Created with Inkscape (http://www.inkscape.org/) -->

<svg
   xmlns:osb="http://www.openswatchbook.org/uri/2009/osb"
   xmlns:dc="http://purl.org/dc/elements/1.1/"
   xmlns:cc="http://creativecommons.org/ns#"
   xmlns:rdf="http://www.w3.org/1999/02/22-rdf-syntax-ns#"
   xmlns:svg="http://www.w3.org/2000/svg"
   xmlns="http://www.w3.org/2000/svg"
   xmlns:xlink="http://www.w3.org/1999/xlink"
   xmlns:sodipodi="http://sodipodi.sourceforge.net/DTD/sodipodi-0.dtd"
   xmlns:inkscape="http://www.inkscape.org/namespaces/inkscape"
   width="1000"
   height="1000"
   id="svg7741"
   version="1.1"
   inkscape:version="0.48.4 r9939"
   sodipodi:docname="preventiveMaintenence(Min).svg">
  <defs
     id="defs7743">
    <inkscape:path-effect
       effect="spiro"
       id="path-effect23572"
       is_visible="true" />
    <inkscape:path-effect
       effect="spiro"
       id="path-effect8391"
       is_visible="true" />
    <linearGradient
       id="linearGradient8267"
       osb:paint="gradient">
      <stop
         style="stop-color:#80d8ff;stop-opacity:1;"
         offset="0"
         id="stop8269" />
      <stop
         style="stop-color:#80d8ff;stop-opacity:0;"
         offset="1"
         id="stop8271" />
    </linearGradient>
    <linearGradient
       y2="406.64789"
       x2="531.92859"
       y1="406.64789"
       x1="250.92857"
       gradientTransform="matrix(0.26194455,0,0,0.24390024,526.31295,309.91806)"
       gradientUnits="userSpaceOnUse"
       id="linearGradient5300"
       xlink:href="#linearGradient3786-0"
       inkscape:collect="always" />
    <linearGradient
       id="linearGradient3786-0"
       osb:paint="solid">
      <stop
         style="stop-color:#004455;stop-opacity:1;"
         offset="0"
         id="stop3788-7" />
    </linearGradient>
    <linearGradient
       y2="406.64789"
       x2="531.92859"
       y1="406.64789"
       x1="250.92857"
       gradientTransform="matrix(0.1017593,0,0,0.07471921,17.035502,957.92791)"
       gradientUnits="userSpaceOnUse"
       id="linearGradient11324"
       xlink:href="#linearGradient3786-0"
       inkscape:collect="always" />
    <linearGradient
       inkscape:collect="always"
       xlink:href="#linearGradient3786-0"
       id="linearGradient3567"
       gradientUnits="userSpaceOnUse"
       gradientTransform="matrix(0.14699534,0,0,0.13702971,-40.030333,869.48835)"
       x1="250.92857"
       y1="406.64789"
       x2="531.92859"
       y2="406.64789" />
    <linearGradient
       inkscape:collect="always"
       xlink:href="#linearGradient3786-0"
       id="linearGradient11374"
       gradientUnits="userSpaceOnUse"
       gradientTransform="matrix(0.1577691,0,0,0.15797688,-116.848,757.95637)"
       x1="250.92857"
       y1="406.64789"
       x2="531.92859"
       y2="406.64789" />
    <inkscape:path-effect
       effect="spiro"
       id="path-effect23572-5"
       is_visible="true" />
    <inkscape:path-effect
       effect="spiro"
       id="path-effect23572-3"
       is_visible="true" />
    <inkscape:path-effect
       effect="spiro"
       id="path-effect23572-9"
       is_visible="true" />
    <inkscape:path-effect
       effect="spiro"
       id="path-effect23572-8"
       is_visible="true" />
    <inkscape:path-effect
       effect="spiro"
       id="path-effect23572-35"
       is_visible="true" />
  </defs>
  <sodipodi:namedview
     id="base"
     pagecolor="#ffffff"
     bordercolor="#666666"
     borderopacity="1.0"
     inkscape:pageopacity="0.0"
     inkscape:pageshadow="2"
     inkscape:zoom="0.402428"
     inkscape:cx="398.45099"
     inkscape:cy="538.07906"
     inkscape:document-units="px"
     inkscape:current-layer="layer1"
     showgrid="false"
     inkscape:window-width="1320"
     inkscape:window-height="747"
     inkscape:window-x="46"
     inkscape:window-y="21"
     inkscape:window-maximized="1"
     showguides="true"
     inkscape:guide-bbox="true">
    <inkscape:grid
       type="xygrid"
       id="grid8299"
       empspacing="5"
       visible="true"
       enabled="true"
       snapvisiblegridlinesonly="true" />
  </sodipodi:namedview>
  <metadata
     id="metadata7746">
    <rdf:RDF>
      <cc:Work
         rdf:about="">
        <dc:format>image/svg+xml</dc:format>
        <dc:type
           rdf:resource="http://purl.org/dc/dcmitype/StillImage" />
        <dc:title></dc:title>
      </cc:Work>
    </rdf:RDF>
  </metadata>
  <g
     inkscape:label="Layer 1"
     inkscape:groupmode="layer"
     id="layer1"
     transform="translate(0,-52.36218)">
    <text
       xml:space="preserve"
       style="font-size:40px;font-style:normal;font-variant:normal;font-weight:300;font-stretch:normal;text-indent:0;text-align:center;text-decoration:none;line-height:125%;letter-spacing:0px;word-spacing:0px;text-transform:none;direction:ltr;block-progression:tb;writing-mode:lr-tb;text-anchor:middle;baseline-shift:baseline;color:#000000;fill:#000000;fill-opacity:1;fill-rule:nonzero;stroke:none;stroke-width:1px;marker:none;visibility:visible;display:inline;overflow:visible;enable-background:accumulate;font-family:Roboto;-inkscape-font-specification:Roboto Light"
       x="454.42911"
       y="451.01236"
       id="text8901"
       sodipodi:linespacing="125%"><tspan
         sodipodi:role="line"
         id="tspan8903"
         x="454.42911"
         y="451.01236" /></text>
    <path
       d="m 376.42774,1555.5929 -0.0803,1.524 -1.09767,-1.1026 c 0.17392,-0.1012 0.36478,-0.1904 0.56839,-0.2633 0.20485,-0.069 0.40984,-0.1268 0.6089,-0.1603"
       style="fill:#1e1e1e;fill-opacity:1;fill-rule:evenodd;stroke:none"
       id="path13409"
       inkscape:connector-curvature="0" />
    <g
       id="g14875"
       transform="matrix(1.4968186,0,0,-2.5890861,154.87018,765.64156)" />
    <g
       id="g3061">
      <path
         style="fill:#ffffff;fill-opacity:1;fill-rule:nonzero;stroke:none"
         d="m 358.79529,585.52793 c -22.83524,9.18813 -28.1353,28.67298 -23.75763,55.99475 2.25422,28.19703 51.436,48.51735 82.29762,37.60093 89.0486,0 171.59671,-0.0339 260.64531,-0.0339 0,-32.39542 -0.79885,-82.12163 -40.74081,-85.13015 -113.05225,0.36972 -165.39236,-8.87208 -278.44449,-8.4311 z"
         id="path14825"
         inkscape:connector-curvature="0"
         sodipodi:nodetypes="ccccccc" />
      <path
         style="fill:#ffffff;fill-opacity:1;fill-rule:nonzero;stroke:none"
         d="m 358.76616,519.39559 c -36.68431,-0.12762 -23.72855,49.35107 -23.72855,73.60973 0,72.77603 66.26186,4.78892 90.62448,11.92955 40.18439,0 80.36879,0 120.55317,0 0,-30.27279 46.00241,-60.44688 -5.43359,-84.70557 -64.08084,0.16836 -117.93481,-1.07309 -182.01551,-0.83371 z"
         id="path14827"
         inkscape:connector-curvature="0"
         sodipodi:nodetypes="cccccc" />
      <path
         d="m 534.03202,534.5998 c 0,0 71.67804,-19.30111 100.24915,60.67799 l -98.59383,0 -1.65532,-60.67799 z"
         style="fill:#ffffff;fill-opacity:1;fill-rule:nonzero;stroke:none"
         id="path14831"
         inkscape:connector-curvature="0" />
      <path
         d="m 457.66985,672.58853 c 0,18.38435 -14.26629,33.28646 -31.85092,33.28646 -17.58459,0 -31.85092,-14.90211 -31.85092,-33.28646 0,-18.37627 14.26633,-33.27034 31.85092,-33.27034 17.58463,0 31.85092,14.89407 31.85092,33.27034"
         style="fill:#280b0b;fill-opacity:1;fill-rule:nonzero;stroke:none"
         id="path14835"
         inkscape:connector-curvature="0" />
      <path
         d="m 447.33933,672.58853 c 0,12.4171 -9.63148,22.48586 -21.5188,22.48586 -11.88739,0 -21.51883,-10.06876 -21.51883,-22.48586 0,-12.40904 9.6315,-22.46974 21.51883,-22.46974 11.88732,0 21.5188,10.0607 21.5188,22.46974"
         style="fill:#707571;fill-opacity:1;fill-rule:nonzero;stroke:none"
         id="path14839"
         inkscape:connector-curvature="0" />
      <path
         d="m 434.7906,672.58853 c 0,5.16308 -4.01891,9.35303 -8.96937,9.35303 -4.95818,0 -8.96936,-4.18995 -8.96936,-9.35303 0,-5.16307 4.01124,-9.36103 8.96936,-9.36103 4.95046,0 8.96937,4.19796 8.96937,9.36103"
         style="fill:#d3ceba;fill-opacity:1;fill-rule:nonzero;stroke:none"
         id="path14843"
         inkscape:connector-curvature="0" />
      <path
         d="m 647.86003,672.58853 c 0,18.38435 -14.25863,33.28646 -31.8587,33.28646 -17.5846,0 -31.85083,-14.90211 -31.85083,-33.28646 0,-18.37627 14.26623,-33.27034 31.85083,-33.27034 17.60007,0 31.8587,14.89407 31.8587,33.27034"
         style="fill:#280b0b;fill-opacity:1;fill-rule:nonzero;stroke:none"
         id="path14847"
         inkscape:connector-curvature="0" />
      <path
         d="m 637.52936,672.58853 c 0,12.4171 -9.63921,22.48586 -21.52649,22.48586 -11.87966,0 -21.52654,-10.06876 -21.52654,-22.48586 0,-12.40904 9.64688,-22.46974 21.52654,-22.46974 11.88728,0 21.52649,10.0607 21.52649,22.46974"
         style="fill:#707571;fill-opacity:1;fill-rule:nonzero;stroke:none"
         id="path14851"
         inkscape:connector-curvature="0" />
      <path
         d="m 624.98458,672.58853 c 0,5.16308 -4.01119,9.35303 -8.97708,9.35303 -4.95046,0 -8.96937,-4.18995 -8.96937,-9.35303 0,-5.16307 4.01891,-9.36103 8.96937,-9.36103 4.96589,0 8.97708,4.19796 8.97708,9.36103"
         style="fill:#d3ceba;fill-opacity:1;fill-rule:nonzero;stroke:none"
         id="path14855"
         inkscape:connector-curvature="0" />
      <path
         d="m 540.35135,544.65654 0,46.24232 78.00673,0 c 0,0 -20.38714,-57.25203 -78.00673,-46.24232"
         style="fill:#afdde9;fill-opacity:1;fill-rule:nonzero;stroke:none"
         id="path14859"
         inkscape:connector-curvature="0" />
      <path
         sodipodi:nodetypes="ccccc"
         inkscape:connector-curvature="0"
         id="path14861"
         style="fill:#a02c2c;fill-opacity:1;fill-rule:nonzero;stroke:none"
         d="m 674.18199,631.72703 -339.47605,-1.25586 0,-8.80616 336.60134,0 z" />
      <g
         transform="matrix(1.4386102,0,0,1.4689691,-228.86371,-210.33743)"
         id="g3091">
        <path
           inkscape:connector-curvature="0"
           id="path5948-9"
           style="fill:#a02c2c;fill-opacity:1;fill-rule:nonzero;stroke:none"
           d="m 444.72115,532.49414 c 0,13.84074 11.91201,25.06188 26.60882,25.06188 14.69673,0 26.60759,-11.22114 26.60759,-25.06188 0,-13.84302 -11.91086,-25.06417 -26.60759,-25.06417 -14.69681,0 -26.60882,11.22115 -26.60882,25.06417" />
        <path
           inkscape:connector-curvature="0"
           id="path5950-4"
           style="fill:#ffffff;fill-opacity:1;fill-rule:nonzero;stroke:none"
           d="m 474.53655,546.08564 -6.61437,0 0,-27.18428 6.61437,0 0,27.18428 z" />
        <path
           inkscape:connector-curvature="0"
           id="path5952-7"
           style="fill:#ffffff;fill-opacity:1;fill-rule:nonzero;stroke:none"
           d="m 485.76088,535.60979 -28.86183,0 0,-6.23152 28.86183,0 0,6.23152 z" />
      </g>
      <g
         transform="matrix(1.3494948,0,0,1.3840652,-572.51491,-173.03701)"
         id="g3118">
        <rect
           style="fill:#008066;fill-rule:evenodd;stroke:#000000;stroke-width:0;stroke-linecap:butt;stroke-linejoin:miter;stroke-miterlimit:0;stroke-opacity:1;stroke-dasharray:none"
           id="rect9839"
           width="68.937035"
           height="78.12204"
           x="832.60437"
           y="415.49777"
           rx="5.1615987" />
        <rect
           style="fill:#ffffff;fill-rule:evenodd;stroke:#000000;stroke-width:0;stroke-linecap:butt;stroke-linejoin:miter;stroke-miterlimit:0;stroke-opacity:1;stroke-dasharray:none"
           id="rect9843"
           width="57.89386"
           height="55.300529"
           x="838.13782"
           y="431.86346"
           rx="0" />
        <path
           style="fill:#f4d7d7;stroke:#e4ebeb;stroke-width:1.98960412px;stroke-linecap:round;stroke-linejoin:round;stroke-opacity:1"
           d="m 845.4261,424.74997 -0.0249,-10.30194"
           id="path9845"
           inkscape:connector-curvature="0" />
        <path
           style="fill:#f4d7d7;stroke:#e4ebeb;stroke-width:1.98960412px;stroke-linecap:round;stroke-linejoin:round;stroke-opacity:1"
           d="m 888.39918,424.47743 -0.0249,-10.30189"
           id="path9845-4"
           inkscape:connector-curvature="0" />
        <text
           xml:space="preserve"
           style="font-size:94.41671753px;font-style:normal;font-variant:normal;font-weight:300;font-stretch:normal;text-indent:0;text-align:center;text-decoration:none;line-height:125%;letter-spacing:0px;word-spacing:0px;text-transform:none;direction:ltr;block-progression:tb;writing-mode:lr-tb;text-anchor:middle;baseline-shift:baseline;color:#000000;fill:#000000;fill-opacity:1;fill-rule:nonzero;stroke:none;stroke-width:1px;marker:none;visibility:visible;display:inline;overflow:visible;enable-background:accumulate;font-family:Roboto;-inkscape-font-specification:Roboto Light"
           x="897.84204"
           y="454.41119"
           id="text8500-475-9"
           sodipodi:linespacing="125%"
           transform="scale(0.96564571,1.0355765)"><tspan
             sodipodi:role="line"
             id="tspan8502-15-9"
             x="897.84204"
             y="454.41119"
             style="font-size:33.04584122px;font-style:italic;font-weight:bold;fill:#a02c2c;-inkscape-font-specification:Roboto Bold Italic">22</tspan></text>
      </g>
      <g
         transform="matrix(1.3494948,0,0,1.3840652,-171.14577,-154.90217)"
         style="fill:#006680"
         id="g5174">
        <path
           inkscape:connector-curvature="0"
           id="path584"
           style="fill:#006680;fill-opacity:1;fill-rule:evenodd;stroke:none"
           d="m 336.70262,440.27231 79.46872,0 c 1.48848,0 2.70447,1.0667 2.70447,2.36943 l 0,33.4171 c 0,1.30572 -1.21599,2.37242 -2.70447,2.37242 l -79.46872,0 c -1.48848,0 -2.70448,-1.0667 -2.70448,-2.37242 l 0,-33.4171 c 0,-1.30273 1.216,-2.36943 2.70448,-2.36943" />
        <path
           inkscape:connector-curvature="0"
           id="path588"
           style="fill:#006680;fill-opacity:1;fill-rule:evenodd;stroke:none"
           d="m 383.56877,477.76167 35.92117,39.54236 -22.7939,-57.25485 -13.12727,17.71249 z" />
      </g>
      <g
         style="fill:#37abc8"
         transform="matrix(0.7655984,0,0,0.76729798,498.99747,410.8225)"
         id="g4673">
        <path
           inkscape:connector-curvature="0"
           id="path592"
           style="fill:#37abc8;fill-opacity:1;fill-rule:evenodd;stroke:none"
           d="m 269.51421,158.32479 -101.91246,0 c -1.90886,0 -3.46829,1.38217 -3.46829,3.07795 l 0,43.30034 c 0,1.68417 1.55943,3.06634 3.46829,3.06634 l 101.91246,0 c 1.90886,0 3.46828,-1.38217 3.46828,-3.06634 l 0,-43.30034 c 0,-1.69578 -1.55942,-3.07795 -3.46828,-3.07795" />
        <path
           inkscape:connector-curvature="0"
           id="path596"
           style="fill:#37abc8;fill-opacity:1;fill-rule:evenodd;stroke:none"
           d="m 209.41246,206.90951 -46.06612,51.22948 29.23141,-74.18827 16.83471,22.95879 z" />
      </g>
    </g>
  </g>
</svg>
