<svg xmlns="http://www.w3.org/2000/svg" width="1000" height="1000"><path d="M376.428 1503.233l-.08 1.524-1.098-1.103c.174-.1.365-.19.568-.263.205-.063.41-.12.61-.16" fill="#1e1e1e" fill-rule="evenodd"/><path d="M358.795 533.168c-22.835 9.188-28.135 28.673-23.757 55.995 2.254 28.197 51.436 48.517 82.297 37.6 89.05 0 171.597-.033 260.646-.033 0-32.396-.793-82.122-40.74-85.13-113.05.37-165.39-8.873-278.44-8.432z" fill="#fff"/><path d="M358.766 467.036c-36.684-.128-23.728 49.35-23.728 73.61 0 72.775 66.26 4.788 90.624 11.93h120.553c0-30.274 46.003-60.448-5.433-84.707-64.08.163-117.935-1.08-182.016-.84z" fill="#fff"/><path d="M534.032 482.24s71.678-19.3 100.25 60.678h-98.595l-1.655-60.678z" fill="#fff"/><path d="M457.67 620.23c0 18.383-14.266 33.285-31.85 33.285-17.586 0-31.852-14.902-31.852-33.286 0-18.38 14.266-33.277 31.85-33.277 17.586 0 31.852 14.894 31.852 33.27" fill="#280b0b"/><path d="M447.34 620.23c0 12.416-9.632 22.484-21.52 22.484-11.887 0-21.518-10.068-21.518-22.485 0-12.41 9.63-22.47 21.52-22.47 11.886 0 21.517 10.06 21.517 22.47" fill="#707571"/><path d="M434.79 620.23c0 5.162-4.018 9.352-8.97 9.352-4.957 0-8.968-4.19-8.968-9.353 0-5.17 4.01-9.368 8.97-9.368 4.95 0 8.97 4.198 8.97 9.362" fill="#d3ceba"/><path d="M647.86 620.23c0 18.383-14.26 33.285-31.86 33.285-17.583 0-31.85-14.902-31.85-33.286 0-18.38 14.267-33.277 31.85-33.277 17.6 0 31.86 14.894 31.86 33.27" fill="#280b0b"/><path d="M637.53 620.23c0 12.416-9.64 22.484-21.527 22.484-11.88 0-21.527-10.068-21.527-22.485 0-12.41 9.647-22.47 21.527-22.47 11.887 0 21.526 10.06 21.526 22.47" fill="#707571"/><path d="M624.985 620.23c0 5.162-4.012 9.352-8.977 9.352-4.95 0-8.97-4.19-8.97-9.353 0-5.17 4.02-9.368 8.97-9.368 4.965 0 8.977 4.198 8.977 9.362" fill="#d3ceba"/><path d="M540.35 492.297v46.242h78.008S597.97 481.28 540.35 492.29" fill="#afdde9"/><path d="M674.182 579.367l-339.476-1.256v-8.8h336.6zm-263.265-59.85c0 20.33 17.136 36.816 38.28 36.816 21.142 0 38.277-16.484 38.277-36.815 0-20.335-17.135-36.82-38.278-36.82-21.143 0-38.28 16.485-38.28 36.82" fill="#a02c2c"/><path d="M453.81 539.483h-9.516V499.55h9.515v39.933z" fill="#fff"/><path d="M469.957 524.095h-41.52v-9.154h41.52v9.16z" fill="#fff"/><g transform="matrix(1.4 0 0 1.4 -572.5 -225.4)"><rect width="68.937" height="78.122" x="832.604" y="415.498" rx="5.162" fill="#008066" fill-rule="evenodd"/><rect width="57.894" height="55.301" x="838.138" y="431.863" rx="0" fill="#fff" fill-rule="evenodd"/><path d="M845.426 424.75l-.025-10.302m43 10.03l-.022-10.3" fill="#f4d7d7" stroke="#e4ebeb" stroke-width="1.99" stroke-linecap="round" stroke-linejoin="round"/><text style="text-indent:0;text-align:center;line-height:125%;text-transform:none;block-progression:tb;-inkscape-font-specification:Roboto Light" x="897.842" y="454.411" font-size="94.417" font-weight="300" letter-spacing="0" word-spacing="0" text-anchor="middle" color="#000" overflow="visible" font-family="Roboto"><tspan x="897.842" y="454.411" style="-inkscape-font-specification:Roboto Bold Italic" font-size="33.046" font-style="italic" font-weight="bold" fill="#a02c2c">22</tspan></text></g><g fill="#006680" fill-rule="evenodd"><path d="M283.233 402.1h107.242c2.01 0 3.65 1.478 3.65 3.28v46.252c0 1.807-1.64 3.284-3.65 3.284H283.233c-2.01 0-3.65-1.477-3.65-3.284v-46.25c0-1.804 1.64-3.28 3.65-3.28"/><path d="M346.478 453.99l48.476 54.728-30.76-79.244-17.716 24.515z"/></g><g fill="#37abc8" fill-rule="evenodd"><path d="M705.337 479.943h-78.024c-1.46 0-2.655 1.06-2.655 2.36v33.226c0 1.29 1.194 2.35 2.655 2.35h78.024c1.462 0 2.655-1.06 2.655-2.35V482.3c0-1.3-1.193-2.36-2.655-2.36"/><path d="M659.323 517.222l-35.268 39.308 22.38-56.925 12.888 17.617z"/></g></svg>