<svg xmlns="http://www.w3.org/2000/svg" height="1000" width="1000"><path d="M376.428 1503.23l-.08 1.525-1.098-1.103c.174-.1.365-.19.568-.263.205-.07.41-.13.61-.17" fill="#1e1e1e"/><path d="M194.79 448.68c-22.834 9.187-28.135 28.672-23.757 55.993 2.254 28.197 51.436 48.518 82.298 37.6 89.05 0 171.6-.033 260.65-.033 0-32.395-.8-82.12-40.74-85.13-113.05.37-165.39-8.872-278.44-8.43z" fill="#fff"/><path d="M194.762 382.546c-36.685-.127-23.73 49.35-23.73 73.61 0 72.776 66.263 4.79 90.626 11.93H382.21c0-30.273 46.003-60.447-5.433-84.706-64.08.168-117.935-1.073-182.015-.834z" fill="#fff"/><path d="M370.028 397.75s71.678-19.3 100.25 60.678h-98.595l-1.655-60.678z" fill="#fff"/><path d="M293.665 535.74c0 18.384-14.266 33.286-31.85 33.286-17.585 0-31.85-14.902-31.85-33.287 0-18.38 14.265-33.27 31.85-33.27 17.584 0 31.85 14.89 31.85 33.27" fill="#280b0b"/><path d="M283.335 535.74c0 12.416-9.632 22.485-21.52 22.485-11.886 0-21.518-10.07-21.518-22.486 0-12.41 9.632-22.47 21.52-22.47 11.886 0 21.518 10.06 21.518 22.47" fill="#707571"/><path d="M270.786 535.74c0 5.162-4.02 9.352-8.97 9.352-4.957 0-8.97-4.19-8.97-9.353 0-5.17 4.013-9.37 8.97-9.37 4.95 0 8.97 4.2 8.97 9.36" fill="#d3ceba"/><path d="M483.856 535.74c0 18.384-14.26 33.286-31.86 33.286-17.584 0-31.85-14.902-31.85-33.287 0-18.38 14.266-33.27 31.85-33.27 17.6 0 31.86 14.89 31.86 33.27" fill="#280b0b"/><path d="M473.525 535.74c0 12.416-9.64 22.485-21.527 22.485-11.88 0-21.526-10.07-21.526-22.486 0-12.41 9.647-22.47 21.526-22.47 11.888 0 21.527 10.06 21.527 22.47" fill="#707571"/><path d="M460.98 535.74c0 5.162-4.01 9.352-8.977 9.352-4.95 0-8.97-4.19-8.97-9.353 0-5.17 4.02-9.37 8.97-9.37 4.966 0 8.977 4.2 8.977 9.36" fill="#d3ceba"/><path d="M376.347 407.807v46.243h78.007s-20.388-57.253-78.007-46.243" fill="#afdde9"/><path d="M510.178 494.878L170.7 493.622v-8.806h336.603zM246.912 435.03c0 20.332 17.137 36.816 38.28 36.816s38.278-16.484 38.278-36.815c0-20.33-17.135-36.81-38.278-36.81-21.143 0-38.28 16.485-38.28 36.82" fill="#a02c2c"/><path d="M289.805 454.996h-9.516v-39.933h9.51v39.933z" fill="#fff"/><path d="M305.952 439.607h-41.52v-9.153h41.52v9.153z" fill="#fff"/><g transform="matrix(1.3495 0 0 1.38407 -736.52 -309.886)"><rect rx="5.162" y="415.498" x="832.604" height="78.122" width="68.937" fill="#008066"/><rect rx="0" y="431.863" x="838.138" height="55.301" width="57.894" fill="#fff"/><path d="M845.426 424.75l-.025-10.302m43 10.03l-.02-10.3" fill="#f4d7d7" stroke-linecap="round" stroke-linejoin="round" stroke-width="1.99" stroke="#e4ebeb"/><text transform="scale(.96565 1.03558)" y="454.411" x="897.842" style="-inkscape-font-specification:'Roboto Light';block-progression:tb;line-height:125%;text-align:center;text-decoration-line:none;text-indent:0;text-transform:none" font-family="Roboto" font-size="94.417" font-weight="300" letter-spacing="0" text-anchor="middle" word-spacing="0"><tspan y="454.411" x="897.842" style="-inkscape-font-specification:'Roboto Bold Italic'" fill="#a02c2c" font-size="33.046" font-style="italic" font-weight="bold">22</tspan></text></g><g fill="#006680"><path d="M119.228 317.614H226.47c2.01 0 3.65 1.476 3.65 3.28v46.25c0 1.808-1.64 3.285-3.65 3.285H119.23c-2.01 0-3.65-1.48-3.65-3.29v-46.25c0-1.81 1.64-3.28 3.65-3.28"/><path d="M182.474 369.502l48.475 54.73-30.76-79.245-17.72 24.515z"/></g><g fill="#37abc8"><path d="M541.333 395.455H463.31c-1.463 0-2.657 1.06-2.657 2.362v33.224c0 1.3 1.194 2.36 2.656 2.36h78.02c1.46 0 2.65-1.06 2.65-2.35v-33.23c0-1.3-1.195-2.362-2.656-2.362"/><path d="M495.32 432.734l-35.27 39.31 22.38-56.926 12.89 17.616z"/></g></svg>