<svg xmlns="http://www.w3.org/2000/svg" width="1000" height="1000"><path d="M499.998 658.926c-91.843 0-166.293-71.155-166.293-158.928s74.45-158.924 166.293-158.924c91.842 0 166.296 71.15 166.296 158.924 0 87.773-74.454 158.928-166.296 158.928" fill="#37c8ab" fill-rule="evenodd"/><path d="M437.28 572.544c-16.332 10.134-23.125 31.87-32.688 57.626 27.01 18.116 59.906 28.754 95.405 28.754 35.108 0 67.66-10.406 94.5-28.152-9.642-26.104-16.305-48.273-32.937-58.228-28.38-16.984-45.454-21.05-62.202-21.268-17.122-.218-33.903 3.79-62.077 21.268" fill="#d4aa00" fill-rule="evenodd"/><path d="M471.374 555.627c6.098 33.026 14.96 39.527 25.018 44.538h6.056c11.808-8.175 23.126-21.388 25.386-44.056 4.632-46.51-64.42-43.61-56.46-.49" fill="#997122" fill-rule="evenodd"/><path d="M475.918 491.604h47v64.97c0 21.933-47 24.45-47 0v-64.97z" fill="#e6e6e6" fill-rule="evenodd"/><path d="M475.918 554.242c0 23.186 20.474 14.413 20.474 45.925h6.056c0-31.512 20.47-22.74 20.47-45.925h-47z" fill="#e6e6e6" fill-rule="evenodd"/><path d="M499.42 429.516c99.536 0 59.185 125.657 0 125.657-59.188 0-99.538-125.657 0-125.657" fill="#fff" fill-rule="evenodd"/><path d="M532.055 450.22c-8.955 3.72-40.117 22.708-52.97 23.078-12.86.375 2.333-2.23 5.84-5.957 3.506-3.72-24.54 8.57-31.162 8.94-6.62.378 0-.74 3.114-4.84 3.12-4.09-11.295 2.24-8.955 13.4 2.334 11.17-9.642 6.99-10.422-3.43-.78-10.424.294-12.2 4.576-21.88 4.28-9.68 60.764-23.08 78.685-23.08 17.92 0 32.72 17.127 37.01 24.57 4.29 7.448 5.24 15.516 3.29 22.214-1.943 6.697-7.96 9.8-7.96 1.24s-14.414-18.613-21.035-34.25" fill="#784421" fill-rule="evenodd"/><path d="M563.93 472.753c3.623.772 5.047 7.898 3.18 15.912-1.868 8.02-6.318 13.896-9.94 13.124-3.625-.78-5.044-7.9-3.18-15.92 1.867-8.017 6.316-13.89 9.94-13.126m-127.862 0c-3.623.773-5.047 7.9-3.18 15.913 1.868 8.02 6.318 13.896 9.94 13.124 3.625-.773 5.05-7.9 3.18-15.914-1.867-8.015-6.316-13.89-9.94-13.124" fill="#fff" fill-rule="evenodd"/><path d="M438.047 468.972c5.83-66.154 76.985-78.933 98.388-45.556 25.64 6.252 26.694 40.603 27.44 46.475-.387-.86-24.6-22.34-29.667-28.97l-32.81 9.12s-37.564 10.27-63.35 18.94" fill="#784421" fill-rule="evenodd"/><path d="M499.998 658.926c-3.255-16.657-4.357-35.38-.58-58.76 2.905 23.38 2.947 42.103.58 58.76m-51.935-8.314c1.04-23.342-9.876-51.16-19.75-60.598 12.9 7.702 24.694 35.016 19.75 60.598m102.617 0c-1.042-23.342 9.874-51.16 19.745-60.598-12.896 7.702-24.69 35.016-19.746 60.598" fill="#997122" fill-rule="evenodd"/><path d="M615.92 407.71l-18.036 13.243-18.036-13.242 18.036-13.24 18.035 13.24z" fill="#015a78" fill-rule="evenodd"/><path d="M584.775 429.362h26.218v-32.566h-26.218v32.566z" fill="#fffdfa" fill-rule="evenodd"/><path d="M588.865 402.785h7.49v-1.536h-7.49v1.53zm-.073 2.982h18.183v-1.536h-18.183v1.54zm0 2.863h18.183v-1.537h-18.183v1.536zm0 2.86h18.183v-1.537h-18.183v1.536zm0 2.86h18.183v-1.535h-18.183v1.536zm0 2.862h18.183v-1.536h-18.183v1.536zm0 2.86h18.183v-1.535h-18.183v1.536z" fill="#00bec6" fill-rule="evenodd"/><path d="M579.848 429.362h36.07v-21.65l-18.035 13.24-18.035-13.24v21.65z" fill="#003c50" fill-rule="evenodd"/><path d="M579.848 429.362h36.07l-14.744-10.825h-6.58l-14.746 10.825z" fill="#015a78" fill-rule="evenodd"/><path d="M376.99 405.627l-2.58-5.08 10.2-5.72 2.584 5.08c3.056-1.023 6.277-1.56 9.56-1.556v8.71c-10.03-.002-19.305 6.827-22.374 17.43-3.757 12.985 3.216 26.71 15.57 30.657 2.266.72 4.553 1.066 6.805 1.067v8.703c-1.17 0-2.347-.07-3.526-.21l-1.6 5.51-11.068-3.534 1.594-5.512c-4.013-2.18-7.445-5.192-10.158-8.77l-4.84 2.714-5.44-10.72 4.832-2.713c-1.318-4.355-1.787-9.03-1.28-13.747l-5.244-1.678 3.364-11.62 5.246 1.676c2.078-4.214 4.944-7.82 8.347-10.672m19.764-7.277c1.17.003 2.344.07 3.525.213l1.594-5.512 11.062 3.535-1.594 5.51c4.01 2.182 7.443 5.195 10.16 8.77l4.832-2.71 5.445 10.72-4.834 2.71c1.315 4.357 1.785 9.03 1.28 13.75l5.242 1.673-3.364 11.626-5.244-1.674c-2.08 4.215-4.944 7.82-8.346 10.67l2.58 5.083-10.2 5.72-2.58-5.08c-3.06 1.02-6.283 1.554-9.56 1.552v-8.7c10.026.002 19.302-6.826 22.37-17.43 3.757-12.984-3.217-26.71-15.574-30.655-2.262-.722-4.55-1.066-6.8-1.067v-8.7z" fill="#f95"/><path d="M366.22 444.566l-2.057-3.897 8.133-4.39 2.06 3.89c2.44-.785 5.007-1.197 7.625-1.19v6.672c-7.99-.004-15.39 5.234-17.84 13.37-2.99 9.96 2.57 20.486 12.42 23.515 1.81.554 3.63.82 5.43.82v6.676c-.93 0-1.87-.054-2.81-.16l-1.272 4.226-8.82-2.71 1.27-4.23c-3.2-1.673-5.937-3.984-8.1-6.726l-3.86 2.08-4.34-8.222 3.856-2.082c-1.05-3.34-1.425-6.926-1.02-10.545l-4.183-1.286 2.683-8.917 4.18 1.284c1.657-3.236 3.942-6 6.656-8.19m15.76-5.58c.93 0 1.87.052 2.81.16l1.27-4.228 8.823 2.71-1.27 4.23c3.2 1.673 5.936 3.983 8.1 6.725l3.856-2.08 4.343 8.22-3.857 2.08c1.05 3.343 1.424 6.926 1.02 10.547l4.182 1.284-2.682 8.92-4.182-1.285c-1.654 3.237-3.94 6.003-6.652 8.19l2.058 3.9-8.133 4.386-2.06-3.895c-2.44.78-5.01 1.19-7.623 1.19v-6.675c8 0 15.396-5.236 17.843-13.37 2.993-9.96-2.568-20.49-12.42-23.516-1.807-.557-3.63-.82-5.425-.82v-6.676z" fill="#f06"/></svg>