<svg xmlns="http://www.w3.org/2000/svg" width="1000" height="1000" id="user"><defs><clipPath id="a"><path d="M-32768 32767h65535v-65535h-65535v65535z"/></clipPath><linearGradient x2="1" gradientUnits="userSpaceOnUse" gradientTransform="scale(156.02) rotate(-90 2.55 -.7)" id="b"><stop offset="0" stop-color="#fff"/><stop offset="1" stop-opacity="0" stop-color="#fff"/></linearGradient><clipPath id="c"><path d="M-32768 32767h65535v-65535h-65535v65535z"/></clipPath><linearGradient x2="1" gradientUnits="userSpaceOnUse" gradientTransform="matrix(0 -156.02 -156.02 0 489.58 289.07)" id="d"><stop offset="0" stop-color="#fff"/><stop offset="1" stop-opacity="0" stop-color="#fff"/></linearGradient><clipPath id="e"><path d="M487.5 698.1h240.96V593.94H487.5V698.1z"/></clipPath><clipPath id="f"><path d="M486.5 699.1h242.96V592.94H486.5V699.1z"/></clipPath><clipPath id="g"><path d="M647.002 692.227h64.32v-64.32h-64.32v64.32z"/></clipPath><clipPath id="h"><path d="M648.061 689.129h61.919v-61.92h-61.919v61.92z"/></clipPath><clipPath id="i"><path d="M647.061 690.129h63.919v-63.92h-63.919v63.92z"/></clipPath><clipPath id="j"><path d="M324.389 507.156h167.52v-104.16h-167.52v104.16z"/></clipPath><clipPath id="k"><path d="M323.389 508.156h169.52v-106.16h-169.52v106.16z"/></clipPath><clipPath id="l"><path d="M179.503 686.837h167.52v-104.16h-167.52v104.16z"/></clipPath><clipPath id="m"><path d="M178.503 687.837h169.52v-106.16h-169.52v106.16z"/></clipPath><clipPath id="n"><path d="M373.615 617.712h118.079v-73.92H373.615v73.92z"/></clipPath><clipPath id="o"><path d="M372.615 618.712h120.079v-75.92H372.615v75.92z"/></clipPath><clipPath id="p"><path d="M16.3931 635.006H183.913v-104.16H16.3931v104.16z"/></clipPath><clipPath id="q"><path d="M15.3931 636.006H184.913v-106.16H15.3931v106.16z"/></clipPath><clipPath id="r"><path d="M487.5 630.81h296.16V447.45H487.5v183.36z"/></clipPath><clipPath id="s"><path d="M486.5 631.81h298.16V446.45H486.5v185.36z"/></clipPath><clipPath id="t"><path d="M673.764 614.32h97.44v-97.44h-97.44v97.44z"/></clipPath><clipPath id="u"><path d="M676.416 608.566h92.16v-92.16h-92.16v92.16z"/></clipPath><clipPath id="v"><path d="M675.416 609.566h94.16v-94.16h-94.16v94.16z"/></clipPath><clipPath id="w"><path d="M324.389 439.713h296.16v-183.36h-296.16v183.36z"/></clipPath><clipPath id="x"><path d="M323.389 440.713h298.16v-185.36h-298.16v185.36z"/></clipPath><clipPath id="y"><path d="M510.652 423.223h97.44v-97.44h-97.44v97.44z"/></clipPath><clipPath id="z"><path d="M513.305 417.469h92.16v-92.16h-92.16v92.16z"/></clipPath><clipPath id="A"><path d="M512.305 418.469h94.16v-94.16h-94.16v94.16z"/></clipPath><clipPath id="B"><path d="M140.202 461.544h188.64v-117.12h-188.64v117.12z"/></clipPath><clipPath id="C"><path d="M139.202 462.544h190.64v-119.12h-190.64v119.12z"/></clipPath><clipPath id="D"><path d="M151.977 451.2h62.4v-62.4h-62.4v62.4z"/></clipPath><clipPath id="E"><path d="M152.959 448.229h60.48v-60.481h-60.48v60.481z"/></clipPath><clipPath id="F"><path d="M151.959 449.229h62.48v-62.481h-62.48v62.481z"/></clipPath><clipPath id="G"><path d="M152.959 387.748h60.48v60.48h-60.48v-60.48z"/></clipPath><clipPath id="H"><path d="M179.503 618.81h149.28V435.45h-149.28v183.36z"/></clipPath><clipPath id="I"><path d="M178.503 619.81h151.28V434.45h-151.28v185.36z"/></clipPath><clipPath id="J"><path d="M205.354 602.319h97.44v-97.44h-97.44v97.44z"/></clipPath><clipPath id="K"><path d="M208.006 596.565h92.16v-92.16h-92.16v92.16z"/></clipPath><clipPath id="L"><path d="M207.006 597.565h94.16v-94.16h-94.16v94.16z"/></clipPath></defs><path d="M499.99767 658.926205c-91.8424 0-166.29217-71.15545-166.29217-158.92845 0-87.77296 74.44977-158.92396 166.29217-158.92396 91.84239 0 166.29683 71.151 166.29683 158.92396 0 87.773-74.45444 158.92845-166.29683 158.92845" fill="#37c8ab" fill-rule="evenodd"/><path d="M437.28104 572.543685c-16.33271 10.13384-23.12636 31.86958-32.68879 57.62584 27.01109 18.11684 59.90534 28.75492 95.40496 28.75492 35.10744 0 67.66082-10.40603 94.49916-28.15252-9.64182-26.10431-16.30473-48.27289-32.93626-58.22824-28.37917-16.98341-45.4543-21.04856-62.20258-21.26723-17.1218-.21863-33.90279 3.78848-62.07649 21.26723" fill="#d4aa00" fill-rule="evenodd"/><path d="M471.37431 555.627205c6.09792 33.0253 14.95999 39.52684 25.01735 44.53797h6.05591c11.80831-8.17488 23.12635-21.38768 25.38623-44.05605 4.63182-46.50138-64.42041-43.60536-56.45949-.48192" fill="#997122" fill-rule="evenodd"/><path d="M475.91788 491.604245h46.99977v64.97074c0 21.93208-46.99977 24.4488-46.99977 0v-64.97074z" fill="#e6e6e6" fill-rule="evenodd"/><path d="M475.91788 554.241645c0 23.186 20.47427 14.41315 20.47427 45.92575h6.05591c0-31.5126 20.46959-22.73975 20.46959-45.92575h-46.99977z" fill="#e6e6e6" fill-rule="evenodd"/><path d="M499.41868 429.515695c99.53716 0 59.18627 125.65769 0 125.65769s-99.53717-125.65769 0-125.65769" fill="#fff" fill-rule="evenodd"/><path d="M532.0552 450.219305c-8.95546 3.72154-40.11743 22.70851-52.97163 23.0789-12.85885.37482 2.33458-2.23114 5.84111-5.95713 3.50656-3.72155-24.5411 8.5631-31.16197 8.93346-6.62088.37482 0-.74072 3.11433-4.83711 3.11899-4.09635-11.29469 2.2356-8.95546 13.40023 2.33461 11.16906-9.64179 6.98791-10.42155-3.43595-.77975-10.42389.29416-12.19987 4.57576-21.87856 4.28163-9.67868 60.76448-23.07887 78.68472-23.07887 17.91555 0 32.71681 17.12621 37.00309 24.56929 4.2863 7.44753 5.2388 15.51533 3.29178 22.21321-1.94706 6.69786-7.9656 9.80361-7.9656 1.24051 0-8.56311-14.41372-18.61216-21.03458-34.24798" fill="#784421" fill-rule="evenodd"/><path d="M563.92968 472.752905c3.62329.77197 5.04737 7.89824 3.17971 15.91249-1.86767 8.0187-6.31739 13.89552-9.94064 13.12356-3.62328-.772-5.04272-7.89824-3.1797-15.9125 1.86766-8.01424 6.31736-13.89106 9.94063-13.12355M436.06846 472.752905c-3.62328.77197-5.04737 7.89824-3.17971 15.91249 1.86768 8.0187 6.31738 13.89552 9.94065 13.12356 3.62327-.772 5.04737-7.89824 3.1797-15.9125-1.86767-8.01424-6.31736-13.89106-9.94064-13.12355" fill="#fff" fill-rule="evenodd"/><path d="M438.04671 468.971715c5.83179-66.15324 76.98514-78.9332 98.38855-45.55536 25.63837 6.25164 26.6936 40.60224 27.44067 46.47459-.38755-.86567-24.60182-22.34263-29.66785-28.97356l-32.81019 9.11644s-37.56339 10.27216-63.35118 18.93789" fill="#784421" fill-rule="evenodd"/><path d="M499.99767 658.926205c-3.2544-16.65768-4.35633-35.38138-.57896-58.75926 2.90422 23.37788 2.94623 42.10158.57896 58.75926M448.0626 650.612115c1.04123-23.34217-9.8753-51.16001-19.75056-60.59772 12.90089 7.70189 24.69518 35.01547 19.75056 60.59772M550.67908 650.612115c-1.04124-23.34217 9.87529-51.16001 19.74588-60.59772-12.89622 7.70189-24.69052 35.01547-19.74588 60.59772" fill="#997122" fill-rule="evenodd"/><path d="M615.91946967 407.71135135l-18.0359175 13.2413567-18.0359175-13.2413567 18.0359175-13.2413567 18.0359175 13.2413567z" fill="#015a78" fill-rule="evenodd"/><path d="M584.7745206 429.36213526h26.21834502V396.7962138H584.7745206v32.56592146z" fill="#fffdfa" fill-rule="evenodd"/><path d="M588.86549945 402.7848271h7.49041882v-1.53597062h-7.49041882v1.53597062zM588.79221136 405.76742884h18.1824937v-1.53597062h-18.1824937v1.53597062zM588.79221136 408.62868174h18.1824937v-1.53597062h-18.1824937v1.53597062zM588.79221136 411.48945688h18.1824937v-1.53597062h-18.1824937v1.53597062zM588.79221136 414.35070978h18.1824937v-1.53597063h-18.1824937v1.53597063zM588.79221136 417.21244042h18.1824937v-1.53597062h-18.1824937v1.53597062zM588.79221136 420.07321557h18.1824937v-1.53597063h-18.1824937v1.53597063z" fill="#00bec6" fill-rule="evenodd"/><path d="M579.8475407 429.3622308h36.071835V407.7114947l-18.0359175 13.24087894-18.0359175-13.24087894v21.65073613z" fill="#003c50" fill-rule="evenodd"/><path d="M579.8475407 429.3622308h36.071835l-14.7450003-10.8248903h-6.580425v-.0009555l-14.7464097 10.8258458z" fill="#015a78" fill-rule="evenodd"/><g fill="#f95"><path d="M376.99086 405.626795l-2.5806078-5.07982562 10.19880144-5.72112796 2.58451188 5.07982562c3.05690756-1.02143465 6.27778717-1.55744856 9.56113233-1.5547138v8.7020216c-10.03092528-.00410214-19.3057572 6.82460556-22.37437704 17.43002346-3.7570422 12.98329588 3.21567416 26.70771303 15.5708382 30.65534602 2.26437598.7219779 4.55217653 1.0651909 6.80353885 1.06655827v8.70338897c-1.1699276 0-2.346362-.0697365-3.52539914-.2105769l-1.5954741 5.51191846-11.0629081-3.53331612 1.59417273-5.51191844c-4.0134112-2.18097493-7.44511203-5.19331836-10.1584591-8.76902333l-4.83847692 2.7115193-5.44231052-10.71891064 4.83457284-2.7128867c-1.3169819-4.35648032-1.78677483-9.03019336-1.2792423-13.74766264l-5.24450295-1.67641082 3.3640298-11.62548517 5.24450298 1.67504344c2.07697934-4.21563992 4.94258617-7.8227947 8.34565695-10.673787m19.76383785-7.27584175c1.16732485.00136738 2.34375926.0697365 3.52409777.2105769l1.59287137-5.51191847 11.06420948 3.5346835-1.59417274 5.51055108c4.01210983 2.1823423 7.44511202 5.19468574 10.15976046 8.76902333l4.83457283-2.71015192 5.44491325 10.71891063-4.83457283 2.71015193c1.31568052 4.3592151 1.78547346 9.03019337 1.27924228 13.7503974l5.2432016 1.67504345-3.36272845 11.62411778-5.24450296-1.67367606c-2.0782807 4.21700733-4.94388754 7.82279472-8.34565695 10.67378702l2.57930642 5.08256038-10.2001028 5.71976058-2.5806078-5.07982562c-3.0582089 1.0186999-6.2803899 1.5547138-9.55983095 1.5533464v-8.70338897c10.02832254.00273476 19.30445583-6.82460556 22.37307567-17.42865608 3.7570422-12.98466327-3.2169755-26.70908042-15.57344093-30.65534602-2.26307462-.7233453-4.55087517-1.06655827-6.79963475-1.06792566v-8.7020216z"/></g><g fill="#f06"><path d="M366.22055 444.565825l-2.05793856-3.89668542 8.13316415-4.38862228 2.06105192 3.8966854c2.43776988-.7835327 5.00630137-1.1947038 7.6246468-1.192606v6.67523715c-7.99928917-.0031467-15.39562206 5.23508935-17.84273206 13.3704035-2.99610118 9.95936153 2.56438032 20.48723005 12.41716333 23.51542138 1.80575546.55382232 3.63019116.8170977 5.42556872.8181466v6.67628606c-.93297366 0-1.87113627-.0534942-2.81137446-.16153152l-1.27233115 4.22813968-8.82225703-2.71037284 1.27129336-4.2281397c-3.2005459-1.6730049-5.93719945-3.9837446-8.10099264-6.72663352l-3.8585051 2.0799804-4.34003986-8.22237335 3.8553917-2.0810293c-1.05024398-3.3418142-1.42488635-6.92697457-1.02014806-10.54569993l-4.1822957-1.28595863 2.68268843-8.91779797 4.18229572 1.28490973c1.65631364-3.2337769 3.94152832-6.00079066 6.65535048-8.18775946m15.76092432-5.5812283c.93089808.0010489 1.8690607.0534942 2.81033668.1615315l1.27025557-4.22813967 8.82329483 2.71142175-1.27129336 4.22709078c3.1995081 1.67405382 5.93719945 3.9847935 8.10203043 6.72663354l3.8553917-2.0789315 4.34211546 8.22237335-3.8553917 2.0789315c1.0492062 3.343912 1.42384856 6.92697456 1.02014806 10.54779773l4.1812579 1.28490973-2.68165064 8.91674906-4.18229572-1.28386082c-1.65735143 3.2348258-3.9425661 6.00079065-6.65535047 8.18775945l2.05690077 3.89878323-8.13420194 4.38757337-2.05793856-3.8966854c-2.43880768.78143488-5.00837696 1.192606-7.62360902 1.1915571v-6.67628606c7.9972136.0020978 15.39458428-5.23508935 17.84169428-13.3693546 2.99610117-9.96041043-2.56541812-20.48827895-12.4192389-23.51542138-1.8047177-.55487122-3.6291534-.8181466-5.42245538-.8191955v-6.67523715z"/></g></svg>