<svg xmlns="http://www.w3.org/2000/svg" width="1000" height="1000" id="fleet"><defs><radialGradient fx="0" fy="0" cx="0" cy="0" r="1" gradientUnits="userSpaceOnUse" gradientTransform="matrix(400 0 0 -400 400 400)" spreadMethod="pad" id="a"><stop offset="0" stop-color="#fff"/><stop offset="1" stop-color="#fff"/></radialGradient></defs><path d="M631.1332402 517.26839857c.00694175 6.70451033-5.4677719 12.1183051-12.22554938 12.09619056-6.7607903-.0221244-12.2467518-5.47178753-12.25369356-12.17629786-.00694174-6.70451032 5.46777192-12.1183051 12.2285622-12.0961807 6.75777748.02211455 12.243739 5.47177768 12.25068074 12.176288" fill="#fff"/><path d="M370.3030802 340.01777857c.0014663 1.41619336-1.15427248 2.55970325-2.58235386 2.55502992-1.42808137-.00467335-2.58619594-1.15575523-2.58766225-2.5719486l-.02507568-24.21869906c-.0014694-1.4191811 1.1542694-2.562691 2.58235077-2.55801766 1.42808136.00467334 2.58619593 1.15575522 2.58766533 2.57493633l.02507567 24.21869907zM356.9131502 342.49139857c.449651.71554123-.16675103 1.8996567-1.37411936 2.64562826-1.21037806.74894946-2.5570821.77441982-3.00673.06186635l-7.70136016-12.2121921c-.449651-.71554123.1637382-1.89966656 1.37411626-2.64861602 1.21038116-.7459617 2.5570852-.77143207 3.0067331-.0588786l7.70136016 12.2121921zM379.4051802 342.65878857c-.44817232.71260314.17068592 1.90076094 1.37960717 2.6546397 1.21193718.7568764 2.55870308.79116103 3.0068785.08154565l7.67612363-12.16186994c.4481723-.71260313-.1676731-1.90075107-1.37961027-2.65762746-1.21193408-.75388864-2.55869998-.78817327-3.0068754-.0785579l-7.67612363 12.16186995zM383.1254402 367.80876857c.00863697 8.34179717-6.80239348 15.08375075-15.2172274 15.05621356-8.4148339-.0275372-15.2428844-6.8141241-15.25152138-15.15592126-.00863697-8.34179717 6.80540322-15.08672865 15.22023713-15.05919145 8.4148339.0275372 15.23987468 6.817102 15.24851165 15.15889915" fill="#a02c2c"/><path d="M698.6330202 517.49018857l-295.62192-.96741-.22338-215.76034 295.62187.9674.22343 215.76035z" fill="#fff"/><path d="M616.6901202 393.91413857c.0372825 36.0083594-29.37084906 65.10831365-65.68750068 64.98946892-36.31363878-.11883487-65.77620346-29.41144103-65.81348597-65.4198004-.0372856-36.01134715 29.36482032-65.11132113 65.6784591-64.99248626 36.3166516.11884472 65.78524196 29.4114706 65.82252755 65.42281773" fill="#c83737"/><path d="M559.3943802 429.08742857l-16.3416-.0535-.0732-70.72304 16.34161.0535.0732 70.72302z" fill="#fffeff"/><path d="M515.2686602 385.47738857l71.31971.23341.0168 16.20853-71.31971-.23339-.0168-16.20854z" fill="#fffeff"/><path d="M296.4527902 516.17135857l107.6152712.35216648-.15416927-148.9004818-70.0121412-.2291118s-28.27550693 52.18992443-33.0905026 72.06653766c-4.47299627 18.4645316-4.35845813 76.71088947-4.35845813 76.71088947" fill="#fff"/><path d="M311.7341402 437.39823857l79.52665804.26024767-.05924304-57.2183945-53.1613836-.1739684-26.3060314 57.13211523z" fill="#2ad4ff"/><path d="M698.6078202 492.66796857l-401.77376-1.94076.29021-9.02052 401.47302 1.31682z" fill="#c83737"/><path d="M382.6149702 519.26371857c.01875262 18.11173868-14.7710984 32.73911632-33.02884758 32.6793686-18.26076203-.0597576-33.08100328-14.784033-33.0997559-32.8957717-.01874952-18.10875092 14.7710984-32.7391163 33.03186042-32.67935872 18.2577492.05974772 33.07799354 14.7870109 33.09674306 32.89576182M652.8252902 519.44789857c.01875262 18.11173868-14.7710984 32.73911632-33.02884758 32.6793686-18.26076203-.0597576-33.07799045-14.78402315-33.09674307-32.89576183-.01874952-18.10875093 14.76808556-32.73912617 33.0288476-32.6793686 18.25774918.05974773 33.07799353 14.7870109 33.09674305 32.89576183" fill="#005975"/><path d="M373.1034902 519.63500857c.2530206 12.97633774-10.0799639 23.26559056-23.07428532 22.9897934-13.0001147-.2759201-23.74307376-11.01249794-23.99609437-23.98883568-.2530206-12.97633774 10.0799639-23.26559056 23.0800786-22.98967045 12.99432144.27579715 23.7372805 11.012375 23.9903011 23.98871272M643.3991802 520.05748857c.2530206 12.97633774-10.0799639 23.26559056-23.07428532 22.9897934-13.0001147-.2759201-23.74307376-11.01249794-23.99609437-23.98883568-.2530206-12.97633774 10.0799639-23.26559056 23.0800786-22.98967045 12.99432144.27579715 23.7372805 11.012375 23.9903011 23.98871272" fill="#ccc"/><path d="M433.3587902 578.28938857h40.76508v-42.50753h-40.76508v42.50753z" fill="#d89e81"/><path d="M475.2806502 558.04545857l5.18412.35355c12.95227 3.17387 27.123 5.42423 36.55592 15.8103 5.87595 6.47078 16.08515 60.56355 16.08515 60.56355h-79.97697v-61.2413c11.25732 0 22.32856-7.03945 22.32856-15.39771" fill="#216778"/><path d="M433.0984302 558.39900857h-6.93877c-12.95066 3.17387-27.1361 5.42423-36.56906 15.8103-5.87757 6.47078-16.08512 60.56355-16.08512 60.56355h79.97695v-61.2413c-11.25729 0-20.384-6.77429-20.384-15.13255" fill="#216778"/><path d="M452.8859802 413.89848857c19.79282 0 51.09348 10.7005 51.09348 60.83919 0 28.95103-9.92423 47.91635-14.24932 53.16305-3.97788 4.8262-26.35 15.11246-36.84416 15.11246v-129.1147" fill="#e9b89d"/><path d="M514.6786502 486.94338857c.87288-8.01096-3.14103-15.12023-8.96293-15.88178-5.82518-.75843-11.25239 5.1221-12.1269 13.13308-.87289 8.00943 3.14103 15.11714 8.96784 15.87712 5.82026.75843 11.24912-5.12054 12.12199-13.12842M453.7395302 414.14848857c-19.7928 0-51.09348 10.7005-51.09348 60.83919 0 28.95103 9.92426 47.91635 14.24932 53.16305 3.97953 4.8262 26.34837 15.11246 36.84416 15.11246v-129.1147" fill="#e9b89d"/><path d="M392.8004302 486.94338857c-.87287-8.01096 3.14102-15.12023 8.96293-15.88178 5.82517-.75843 11.25238 5.1221 12.12525 13.13308.87453 8.00943-3.14102 15.11714-8.96456 15.87712-5.82188.75843-11.2524-5.12054-12.12362-13.12842" fill="#e9b89d"/><path d="M453.7395302 524.34768857c9.22661 0 16.70417-2.89821 16.70417-6.47233h-33.4067c0 3.57412 7.47757 6.47233 16.70253 6.47233" fill="#fff"/><path d="M494.9153202 478.96357857c2.13059-5.17195 6.34595-8.48284 10.8004-7.90197.009.001.0229.006.0344.008 2.01923-5.94749 2.74472-13.01783-.0277-20.52113-14.73898-39.90382 2.00287-47.02866 2.00287-47.02866s-16.29967-.69303-28.94409 9.25997c8.71892-12.85431 12.64442-16.17301 12.64442-16.17301s-18.31236-3.7314-37.93158 15.34138c4.35946-10.36568 9.59179-15.63728 9.59179-15.63728s-40.98581.2959-55.81158 28.49159c-8.45034 16.0718-9.10214 33.48134-7.05669 46.64245.49949-.17286 1.01208-.31301 1.54595-.38309 1.93408-.25074 3.81903.23983 5.51074 1.28635v-12.30146c7.84932-3.3187 16.13427-7.46435 15.69699-24.05005h57.55408s-1.3085 18.66009 14.39016 23.22v19.74712" fill="#4e3024"/><path d="M453.5789602 577.55812857c14.84705 0 26.62064-8.45231 26.62064-19.42428l-6.0923-.97227c0 8.26911-9.48046 15.50656-20.52834 15.52819-11.05269-.0217-20.08797-6.81714-20.08797-15.08625l-6.62423.70711c0 10.97197 11.86195 19.2475 26.7122 19.2475" fill="#35988c"/><path d="M431.7732802 438.14112857c20.06674 0 51.80059 6.53975 51.80059 37.18266 0 17.6938-10.06158 29.2847-14.44653 32.49128-4.03293 2.9496-26.71467 9.23618-37.35406 9.23618v-78.91012" fill="#e9b89d"/><path fill="#216778" fill-rule="evenodd" d="M394.9041702 578.42335857h121.62236v55.861443h-121.62236z"/><g><path fill="#fff6d5" fill-rule="evenodd" d="M593.38233158 487.67277857h105.5289832v78.307869H593.3823316z"/><path d="M692.63611172 475.9725033v-78.6960927c2.48503992-2.35187474 4.15615063-5.6371625 4.15615063-9.4441833-.00393202-7.03932167-5.54415553-12.79061326-12.38194734-12.79061326-6.8810441 0-12.3780153 5.7512916-12.3780153 12.79061327 0 3.81109684 1.6711107 7.09230856 4.15615062 9.4767916v77.54257356h-24.15443078v-28.29178948c0-4.6955974-3.70396774-8.4944661-8.2257967-8.4944661-4.57294532 0-8.2375928 3.7988687-8.2375928 8.4944661v28.29178948h-18.3979459V459.2240574c0-7.04747213-5.54808755-12.7457752-12.33869506-12.7457752-6.79847157 0-12.35049114 5.69830307-12.35049114 12.7457752v18.04462642c-4.9150315 2.96735668-8.41846595 8.27435998-8.41846595 14.56368878v68.8157732c0 9.37081457 2.52436017 21.23208922 5.63066007 26.38420302 3.1062999 5.172494 5.63066008 17.01338846 5.63066008 26.40865928v68.76278467c-.01966012 9.3504344 7.40007142 17.03376866 16.4319333 17.03376866h64.09594273c9.03972593 0 16.45159342-7.68333427 16.45159342-17.05414885v-68.77093676c0-9.39119478 2.52436018-21.23208923 5.618864-26.38420304 3.09450384-5.18879815 5.62279604-17.01338845 5.62279604-26.40458323V491.8323726c0-7.345023-4.60046948-13.45500606-10.91136992-15.8598693zm-.3263581 82.56833012h-96.99912957V550.013759h96.99519755v8.52707442zm0-17.90196505h-96.99912957v-8.5148463h96.99519755v8.5148463zm0-17.9386494h-96.99912957v-8.5148463h96.99519755v8.5148463zm0-17.897889h-96.99912957v-8.53930255h96.99519755v8.53930255z" fill="#666"/></g></svg>