<svg xmlns="http://www.w3.org/2000/svg" width="1000.01" height="1000" id="fuel"><path d="M667.3671098 615.27128387c0 13.08072-11.05326 23.69041-24.68195 23.69041h-361.44003c-13.62869 0-24.69151-10.60969-24.69151-23.69041v-207.93606c0-13.08529 11.06282-23.69035 24.69151-23.69035h361.44003c13.62869 0 24.68195 10.60506 24.68195 23.69035v207.93606z" fill="#006680"/><path d="M667.3685198 419.50329387h-410.81349v43.43084h410.81349v-43.43084z" fill="#b3b3b3"/><path d="M636.5126998 540.76237387c0 29.98271-25.34251 54.28393-56.58749 54.28393-31.24975 0-56.58269-24.30122-56.58269-54.28393 0-29.9827 25.33294-54.28392 56.58269-54.28392 31.24498 0 56.58749 24.30122 56.58749 54.28392" fill="#afc"/><path d="M482.7040198 506.19502387h-197.00079v-16.4565h197.00079v16.4565z" fill="#c83737"/><path d="M482.7040198 537.72094387h-197.00079v-16.4519h197.00079v16.4519zM482.7040198 570.62933387h-197.00079v-16.4519h197.00079v16.4519zM482.7040198 602.16904387h-197.00079v-16.45646h197.00079v16.45646z" fill="#37abc8"/><g><path d="M348.0666198 411.60410387c0 11.2012 10.52507 20.27931 23.51104 20.27931 12.98248 0 23.50578-9.0789 23.50578-20.27931 0-11.20039-23.50578-34.5757-23.50578-34.5757s-23.51104 23.37541-23.51104 34.5757z" fill="#ff7f2a"/><path d="M740.4274398 462.57041387c-6.50236-11.645-16.19121-21.6391-21.2533-28.66061-6.58616-3.2617-13.17234-6.52329-19.7585-9.7849 6.98762-6.1721-3.86121-7.2174-8.33483-10.0951-38.32596-17.8587-76.64744-35.72119-114.97234-53.5634-29.26401-2.14599-58.52808-4.292-87.7921-6.4379-2.01525 8.3211-7.8393 4.2198-13.2732 1.391-10.2619-4.4108-18.37194-15.6857-30.6852-13.7661-17.36712-.1968-38.52806 3.28-57.79209 4.92-4.9712 7.2087 1.43898 12.5806 2.15848 18.8708 17.61629-1.1799 35.47783-3.662 52.94066-4.0273 10.84403 5.0529 21.68805 10.1058 32.53206 15.1587-6.28544 5.8616-2.57542 8.8497 4.4602 10.8818 19.8922 9.269 39.78445 18.5381 59.67667 27.8072 3.96877 13.3954 7.93755 26.7908 11.90631 40.1862 9.22245 3.9175 18.19914 9.2303 27.57205 12.2937 12.51917-1.0948 25.12902-3.1977 37.59298-3.6783 16.70669 4.7271 33.41337 9.4542 50.12006 14.1813 6.00185-9.587 12.00548-19.1731 18.00643-28.7557 7.77341 3.8497 15.54683 7.6995 23.32024 11.5492 10.94553-3.5619 16.8878 24.6357 5.77189 32.16-18.38626 20.9348-48.02323 26.8712-74.42097 33.0415-37.6047 9.3617-80.7978 2.691-113.57116 26.3514-20.74677 14.4025-30.97317 43.23129-18.22376 65.73811 13.66791 26.0992 44.66365 40.4055 74.10536 40.2309-.0505-7.0789-.1007-14.1577-.15122-21.2365-24.8953.4782-54.14426-15.7373-54.89883-42.01692 1.18442-23.59949 26.3081-36.25539 47.85128-38.82669 35.28399-4.2232 71.10815-7.0215 104.92784-18.4737 27.58779-8.7895 59.04341-24.5739 64.72613-54.9142 1.15882-6.9014.23-14.0764-2.54118-20.5245zm-83.3881-2.6881c-14.65156-3.5728-28.88032-9.3725-43.82433-11.4053-7.68111-.5915-15.36226-1.1831-23.04337-1.7746 5.33253-8.5109 10.66071-17.0243 15.99114-25.5363 19.38429 9.0326 38.7686 18.0653 58.15291 27.0979-2.42544 3.8728-4.85091 7.7456-7.27635 11.6183z" fill="#87aade"/><path d="M722.4581598 440.16691387l2.48711-3.7409-24.31781-12.0523 3.04229-4.8613-101.32977-47.2555h-.002l-26.2862-12.2533-88.69516-6.5093c-7.26397 12.8175-11.99565 19.57449-18.57613 29.6876l69.10819 32.2276 12.0288 40.6319 26.8831 12.5347 38.01298-4.0898 51.57489 14.6046 14.40756-23.0288h.002l3.78221-6.0476 23.56015 11.6773 1.64152-2.46861c10.29012-16.0257.65728-.6448 12.67632-19.0641zm-64.64293 20.3608l-39.39778-11.1559-28.15778-2.1703 3.56723-5.6987 12.58839-20.1208 58.75115 27.3985z" fill="#2ca02c"/></g></svg>