<svg xmlns="http://www.w3.org/2000/svg" xmlns:xlink="http://www.w3.org/1999/xlink" width="1000" height="1000" id="maintenance"><defs><linearGradient x2="1" gradientUnits="userSpaceOnUse" gradientTransform="scale(169.54) rotate(-25 7.23 -2.48)" id="a"><stop offset="0" stop-color="#398086"/><stop offset=".682796" stop-color="#4aa6a7"/><stop offset="1" stop-color="#4aa6a7"/></linearGradient><linearGradient xlink:href="#a" id="b" gradientUnits="userSpaceOnUse" gradientTransform="matrix(24.32 10.7 -11.34 22.97 102.61 1422.99)" x2="1"/></defs><path d="M645.804058 537.05147052c.008 7.34576-5.96767 13.27735-13.34328 13.25312-7.37889-.0242-13.36641-5.99513-13.37399-13.34089-.008-7.34576 5.96767-13.27735 13.34656-13.25311 7.37562.0242 13.36313 5.99512 13.37071 13.34088" fill="#fff"/><path d="M375.667728 373.02297052c.009 9.13964-7.42431 16.52643-16.60847 16.49625-9.18416-.0302-16.63647-7.46585-16.6459-16.60549-.009-9.13965 7.42759-16.52969 16.61176-16.49952 9.18416.0302 16.63318 7.46912 16.64261 16.60876" fill="#a02c2c"/><path d="M719.475028 537.29448052l-322.64929-1.05993-.24381-236.39659 322.64924 1.05993.24386 236.39659z" fill="#fff"/><path d="M630.040458 401.89909052c.0407 39.45235-32.05609 71.33555-71.69301 71.20534-39.63363-.1302-71.78983-32.22448-71.83052-71.67683-.0407-39.45563 32.04952-71.33885 71.68315-71.20865 39.63692.13021 71.79969 32.22451 71.84038 71.68014" fill="#c83737"/><path d="M567.506428 440.43650052l-17.83564-.0586-.0799-77.4873 17.83565.0586.0799 77.48727z" fill="#fffeff"/><path d="M519.346488 392.65541052l77.84015.25573.0183 17.75879-77.84015-.25572-.0183-17.75879z" fill="#fffeff"/><path d="M280.525268 535.84952052l117.45405.38585-.16827-163.14196-76.41303-.25103s-30.86061 57.18159-36.11582 78.95929c-4.88194 20.23056-4.75693 84.04785-4.75693 84.04785" fill="#fff"/><path d="M297.203728 449.54219052l86.79742.28514-.0647-62.69101-58.02169-.19061-28.71107 62.59648z" fill="#2ad4ff"/><path d="M719.447528 510.09816052l-438.50612-2.12638.31674-9.88328 438.17789 1.44276z" fill="#c83737"/><path d="M374.564878 539.23764052c.0205 19.84402-16.12155 35.87043-36.04853 35.80496-19.93026-.0655-36.10545-16.19804-36.12591-36.04206-.0205-19.84075 16.12155-35.87043 36.05181-35.80495 19.92697.0655 36.10217 16.2013 36.12263 36.04205M669.479298 539.43944052c.0205 19.84402-16.12155 35.87043-36.04853 35.80496-19.93026-.0655-36.10216-16.19803-36.12262-36.04205-.0205-19.84075 16.11826-35.87044 36.04852-35.80496 19.92697.0655 36.10217 16.2013 36.12263 36.04205" fill="#005975"/><path d="M364.183808 539.64444052c.27615 14.21745-11.00153 25.49081-25.18386 25.18864-14.18866-.30231-25.9138-12.06578-26.18995-26.28323-.27616-14.21746 11.00153-25.49082 25.19018-25.18851 14.18234.30218 25.90748 12.06565 26.18363 26.2831M659.191408 540.10733052c.27615 14.21745-11.00153 25.49081-25.18386 25.18864-14.18866-.30231-25.9138-12.06578-26.18995-26.28323-.27616-14.21746 11.00153-25.49082 25.19018-25.18851 14.18234.30218 25.90748 12.06565 26.18363 26.2831" fill="#ccc"/><g><path d="M451.21288408 578.27351147l26.18846743-19.78295197c-2.2263778-3.60828682-4.24523084-6.9379986-6.10896076-9.88040224L445.645811 569.21885c1.81461624 3.0386584 3.76115852 6.12632147 5.56707308 9.05466147" fill="#666"/><path d="M464.54781648 576.0481132c.41951245-.3669241.79965835-.7676274 1.1624143-1.182315l.06131965.0470642-12.46327416-19.19878654c-.76255097.4103751-1.49889548.89760753-2.19512778 1.50920898l-33.22551742 29.15897773-.0304264.0161349 13.12285323 19.1052218 33.567723-29.45544253" fill="#fd5"/><path d="M338.69196367 695.65701227l70.17437114-61.58103322c.6597123-.5759858 1.25742176-1.20253677 1.8265972-1.8523538l20.26267106-26.69787704.0246153-.0228514-13.1228509-19.10523153-29.2051682 16.5777682c-.42946497.31525-.8543629.62991468-1.2625157.986381l-70.17190014 61.5766644c-7.86443456 6.89828165-9.43294724 19.23702756-3.500481 27.55482166 5.92392297 8.31081213 17.11385194 9.4589146 24.9747764 2.5630505" fill="#c83771"/></g><path d="M563.37828 703.59659c-.0456-11.81703 4.90043-23.69534 4.90043-23.69534l26.90809 22.42036-26.90809-22.42036s-4.85611 11.66008-4.90043 23.368v.32734" fill="url(#b)" transform="translate(-26.58 -53.08)"/><g><path d="M539.416564 664.91669252l1.63838-1.50074c2.69541-2.98957 4.66774-6.41058 6.13255-9.98935l92.95546-2.1454c1.62552 3.51378 3.75195 6.83538 6.58696 9.70061l1.7057 1.41557c12.85646 11.34497 31.88757 10.50828 43.57886-2.46074 3.40242-3.77384 5.72405-8.18934 7.15345-12.8501l-30.09207.69452c-1.57947.0365-3.06536-.34243-4.43442-.9711-3.70384-1.70511-6.38289-5.52073-6.49868-10.08566-.0698-3.10954 1.05661-5.97741 2.94005-8.06644.87174-.96691 1.9355-1.7119 3.08659-2.30046 1.35077-.68195 2.80531-1.14299 4.39379-1.178l30.08459-.69435c-1.64562-4.57879-4.16714-8.88885-7.73853-12.50007-12.27869-12.41744-31.33108-12.37353-43.6415-.44783l-1.64759 1.48993c-2.69688 2.99126-4.66772 6.41059-6.13549 9.99094l-92.94948 2.14527c-1.6284-3.5089-3.75633-6.83046-6.58683-9.69415l-1.71465-1.4155c-12.84742-11.34189-31.88167-10.51158-43.57595 2.45764-3.39948 3.77211-5.72551 8.19088-7.15194 12.85006l30.09056-.69449c1.57648-.0364 3.07305.35174 4.43889.97099 3.70372 1.70044 6.38711 5.50948 6.49424 10.08577.0789 3.11566-1.05962 5.97747-2.9416 8.06496-.87025.96686-1.93074 1.72432-3.073 2.30646-1.34636.67856-2.81256 1.15255-4.39819 1.1813l-30.09057.69448c1.64897 4.59453 4.16877 8.89512 7.7402 12.508 12.27866 12.4158 31.3339 12.36548 43.65061.45383" fill="#216778"/><path d="M556.103194 642.74453252c-1.91121.0441-3.49717-1.56119-3.54385-3.5835-.0467-2.02232 1.46354-3.69894 3.37476-3.74305l71.78132-1.65671c1.90821-.044 3.49566 1.56109 3.54234 3.58341.0467 2.02231-1.46502 3.6991-3.37324 3.74314l-71.78133 1.65671" fill="#d7f4ee"/></g></svg>