<svg xmlns="http://www.w3.org/2000/svg" width="1000" height="1000" id="online-reports"><defs><clipPath id="a"><path d="M-32768 32767h65535v-65535h-65535v65535z"/></clipPath><linearGradient x2="1" gradientUnits="userSpaceOnUse" gradientTransform="matrix(0 -35.44 -35.44 0 514.24 576.86)" id="b"><stop offset="0" stop-color="#fff"/><stop offset="1" stop-opacity="0" stop-color="#fff"/></linearGradient><linearGradient x2="1" gradientUnits="userSpaceOnUse" gradientTransform="matrix(0 -35.44 -35.44 0 514.24 576.86)" id="c"><stop offset="0" stop-color="#58595b"/><stop offset="1" stop-color="#f0f0f1"/></linearGradient></defs><path d="M-599.60939 199.535497l-.10913-.15942.11671-.0685c-.005.0779.00022.15053-.003.22831" fill="#4d4d55"/><path d="M617.04211582 654.16208147l-235.4165941-.3721668 1.33249506-307.95208622 235.41646542.37217807-1.33248335 307.95216498" fill="#f9f9f9"/><path d="M409.9480509 439.0126503l190.4346192.45105434-.0133344-1.04601934-190.43487657-.45063795.01333443 1.04618813M409.78106646 456.51505763l190.43224476.45303497-.01333442-1.0470659-190.43261907-.45251732.01508896 1.04637945M409.4697895 474.29347002l190.4340578.45151574-.01333444-1.046537-190.43425662-.45150448.014972 1.0467283M409.57731878 491.87557514l190.43348463.4512119-.0133344-1.04713344-190.43391743-.45066047.01333443 1.0461994M409.6906965 509.5211504l190.43334425.45116687-.01508895-1.0474598-190.43301676-.45095305.01333443 1.0471897M409.51771156 527.21392312l190.4339876.45136944-.01333443-1.04600808-190.4343034-.45158326.01333442 1.04626692M409.3452764 545.10330697l190.43449056.45284365-.01333443-1.04712218-190.43459583-.45293368.01333442 1.0472122M409.31702847 562.83224867l190.4328764.45078425-.01333443-1.0471672-190.432853-.450818.01333442 1.04734724" fill="#131112"/><path d="M404.6497458 494.21248024c-1.20689413-.4904306-1.98312142-1.59323543-1.97562373-2.81023025.01169687-1.65336326 1.472565-2.96964833 3.25243-2.93341184.42877195.01125357.84266548.09149153 1.2326974.25162983 1.20827437.49059937 1.9843028 1.5935055 1.9735183 2.81185075-.00467875.80196316-.34660147 1.54744465-.9608623 2.10127784-.61489243.5530792-1.42723964.8500384-2.29057347.83147-.42535646-.00900284-.84064192-.0952052-1.23135227-.2520462" fill="#a88c74"/><path d="M407.25285948 488.28055468c-.45151064-.1853238-.93220497-.28254338-1.42900587-.2912874-2.06282383-.04152567-3.7544243 1.48343434-3.7697355 3.39954595-.0081878 1.4118729.8895348 2.68998585 2.2901407 3.2583249.45049302.1847611.93345653.2826334 1.42838594.2925478 1.00024563.02070657 1.94224087-.32259484 2.6541588-.96440844.71265484-.64213997 1.10795035-1.50765204 1.11464096-2.43541886.01052718-1.4114565-.88761652-2.69143756-2.28809375-3.25983287zm-.39878118.87434613c.98063.39863522 1.66941152 1.3137305 1.6601944 2.36409372-.0105272 1.3931132-1.23438176 2.49720095-2.73319452 2.4670639-.3677845-.00900287-.7191115-.0828263-1.0362135-.21296257-.98213887-.39833137-1.66770377-1.312909-1.6615746-2.36367734.01052717-1.39307942 1.23522392-2.49666076 2.73490225-2.46643367.36645105.01125357.71714643.08237613 1.03588597.21124076" fill="#efe2a8"/><path d="M404.37461216 512.12720712c-1.20722164-.49009297-1.9831565-1.59315665-1.97548336-2.81014022.01169686-1.65334074 1.47238954-2.96982837 3.2513656-2.93387322.42824557.01125357.8425602.09126646 1.23276758.2516861 1.20828605.49059938 1.98434958 1.59339297 1.9734481 2.8117157-.00467874.80194067-.34670674 1.5473884-.96086228 2.1014129-.6147521.55296667-1.42763735.8497233-2.2905618.83139125-.42535645-.00900286-.8403378-.0955428-1.23138735-.25205747M404.59666543 529.3288853c-1.20723334-.49007046-1.98307463-1.59320166-1.97543658-2.81020773.01169687-1.6533745 1.47235446-2.96968208 3.25189195-2.9336594.42825728.01125356.842607.09149152 1.23279098.2516861 1.20827436.49059937 1.9842443 1.5933592 1.97362356 2.81168194-.00467874.8019294-.34663656 1.54745592-.96093247 2.10135663-.61486905.55306795-1.42714607.84998215-2.2905267.83143626-.42495876-.01125358-.8406887-.0952052-1.23095457-.25238382M404.22144173 547.560614c-1.20689413-.49043057-1.98303954-1.5931904-1.97558864-2.81017397.01169686-1.653397 1.4725416-2.9697046 3.25137728-2.93391824.42825728.01125356.8421976.09182912 1.2327559.25166358 1.20827434.49057687 1.98432618 1.59341548 1.9738458 2.8119633-.00467876.8017831-.34722142 1.54709578-.96095587 2.10124408-.60971072.55558875-1.4266548.85026348-2.29057348.8314475-.42536815-.00900285-.84054834-.09576787-1.2315628-.25214748M403.94786377 565.15835033c-1.2073971-.49014924-1.98327347-1.59324668-1.97547166-2.8101177.01169687-1.6534758 1.4722609-2.9697046 3.2513773-2.93394075.42823388.01125357.84209233.09160406 1.2331185.25133723 1.20790004.4904081 1.9838583 1.59342675 1.9734715 2.81171573-.00467876.8017381-.34671845 1.54735462-.96107284 2.1013341-.60962886.5555325-1.4266431.85015096-2.2904916.83139126-.4274385-.01125358-.8403963-.09498014-1.23136397-.25204622" fill="#a88c74"/><path d="M407.17575376 506.11607895c-.45152235-.18533505-.9317371-.28284723-1.4289708-.29127616-2.06288232-.04152568-3.75450618 1.4835131-3.769677 3.39951218-.00818782 1.41198543.8895231 2.6900984 2.29016408 3.25845994.45048132.1847611.93255588.28322985 1.42836255.2925478 1.00019883.02070657 1.94227595-.32261734 2.6540769-.9644197.71273672-.64218496 1.10765794-1.5080684 1.11472285-2.43554262.01052718-1.41132147-.88762822-2.69141506-2.28814054-3.25969784zm-.39883967.87437988c.98065337.39864646 1.6690606 1.31409062 1.66021777 2.3642175-.01052717 1.39305693-1.23431157 2.4970434-2.7332413 2.4670639-.3677611-.00900287-.7187138-.08293882-1.03589767-.21333394-.982057-.3982751-1.6680196-1.3125264-1.66151613-2.36364358.01052717-1.3930907 1.2353058-2.49668328 2.73485546-2.46638867.36684875.00900285.71716983.0822636 1.03589767.21124076M406.90273725 523.55527498c-.45153404-.18513248-.93225175-.2825659-1.42902926-.2912874-2.06278877-.04163822-3.75442433 1.4835131-3.76964195 3.39948967-.0081878 1.41181663.88933596 2.68998585 2.29000034 3.25835866.450493.18476112.93297695.282926 1.42832744.29306548 1.00024563.02070657 1.94233445-.32253857 2.6541471-.96437468.7128303-.64232002 1.10763455-1.50809092 1.11471115-2.43556514.01052717-1.41136648-.88767502-2.69143756-2.28822242-3.25979912zm-.39885136.87439113c.98067676.39864648 1.6694115 1.31373052 1.6600891 2.36410498-.01052717 1.3931132-1.2341361 2.49714468-2.7332296 2.46709765-.36879042-.01125357-.7186904-.0829388-1.03583918-.21333393-.9820921-.3982976-1.66847577-1.31221127-1.66152784-2.36369984.01052718-1.39306818 1.23525902-2.4967508 2.73490226-2.46644494.36643936.01125357.71713473.08237613 1.03587428.21125202M406.82529232 541.47019318c-.45151065-.18513248-.93225176-.2825659-1.42907606-.29130992-2.06280045-.04141314-3.75429565 1.48347936-3.7697823 3.39962472-.0081878 1.4117716.8895465 2.69000836 2.290129 3.2583024.45046963.1847611.93314073.28301603 1.4282105.2925028 1.0003626.02093163 1.94222917-.3225836 2.65431086-.96426216.71071315-.64323155 1.107038-1.50825972 1.11476962-2.43546386.01052718-1.41149027-.8877101-2.69146007-2.2882692-3.2598779zm-.39930755.87409854c.98066508.3986352 1.6691074 1.31411313 1.66004234 2.36425127-.01052717 1.39314694-1.23399575 2.4972572-2.7331711 2.46701885-.36827578-.01125357-.71870212-.0829388-1.03630707-.21301882-.9821155-.39830886-1.66780905-1.312954-1.6616682-2.36367734.01052718-1.39303442 1.2353643-2.4967508 2.73499583-2.4664787.36643936.01125356.71714643.08237613 1.035769.21117324M406.74877143 559.14727842c-.45965166-.1787517-.9320295-.28247586-1.42845612-.2915575-2.0625665-.04141313-3.75464655 1.48343436-3.7671739 3.40086263-.01052716 1.41171534.88935937 2.68989582 2.28974302 3.25823487.45967506.17874045.93350332.2826559 1.42826897.29304296 1.0003626.02093164 1.94232274-.32266236 2.65434595-.96428465.71075994-.64327657 1.10715496-1.50837226 1.11434853-2.43579022.01052718-1.41123142-.88756973-2.691325-2.28795338-3.25968657zm-.39926075.8740648c.9809224.398759 1.66813656 1.31468705 1.6601593 2.36418373-.01052718 1.39314695-1.2342297 2.49720095-2.7347853 2.4663324-.36971447-.01125357-.71973142-.08372656-1.03621347-.2129738-.98174118-.39811755-1.66852255-1.31171613-1.66157462-2.3637336.01169687-1.39287688 1.23528242-2.49669455 2.73494905-2.4664562.368498.01125357.7145848.08113824 1.03587427.211207" fill="#efe2a8"/><path d="M404.72645383 476.45616985c-1.20678885-.49039682-1.98310972-1.5931679-1.97557694-2.81017398.01169686-1.65331823 1.4725416-2.96970458 3.25137728-2.93391823.42877194.01125357.84251342.09126645 1.2326974.25162982 1.20821588.49055437 1.9843379 1.59347176 1.97360017 2.811772-.00467874.80187312-.34674183 1.5473321-.96099095 2.10137912-.61475208.55296667-1.42762565.84971205-2.29057348.83141375-.42498216-.01125357-.8407004-.0952052-1.23095458-.25237256" fill="#a88c74"/><path d="M407.0465736 470.80835193c-.45046964-.1847611-.93405308-.282926-1.42872516-.2922102-2.0641339-.04152567-3.7548337 1.48444717-3.77006302 3.40048-.0081878 1.41176035.88911372 2.6907961 2.288585 3.2587863.45151066.18513247.9340648.28291474 1.4297545.29218768.9995438.0204815 1.94227595-.32261733 2.6541588-.96432966.71334494-.64268013 1.10689763-1.5081697 1.11427835-2.43681428.01052718-1.41038742-.88705508-2.69007588-2.2875323-3.25840368zm-.39881628.87434612c.98223245.39834262 1.66894364 1.31297652 1.6601593 2.36427378-.01052718 1.39338327-1.2342531 2.49715593-2.73380275 2.46686132-.3681705-.00900286-.71807048-.0822636-1.0369036-.21172467-.9817061-.39915287-1.6680313-1.3130553-1.66004234-2.3640712.01052718-1.39312446 1.23489642-2.49582802 2.73393142-2.46703013.3677845.00900285.71807048.0822636 1.03696208.21178093" fill="#efe2a8"/><path d="M404.6065142 458.461959c-1.20682396-.49040807-1.98307464-1.59320166-1.97545998-2.8102865.01169686-1.653352 1.47238954-2.96971585 3.2524534-2.9334231.42773092.00900287.8421391.09160407 1.2327091.25162983 1.20832114.49061064 1.9842794 1.59339298 1.97369374 2.81169322-.00467875.80196315-.34674184 1.54737712-.96102604 2.10134536-.61482227.55302295-1.42767244.84973457-2.2905267.8315038-.42535646-.00900286-.84026762-.09554282-1.23134057-.25204622" fill="#a88c74"/><path d="M407.3076242 452.83588298c-.45046962-.18477237-.93373726-.2827797-1.4300469-.29180507-.99721613-.02093163-1.9413753.32109812-2.65326984.96243907-.7127835.64223-1.10798544 1.50769704-1.11509713 2.4365667-.01052718 1.41128772.8884002 2.6894907 2.28804696 3.25740212.45306632.18607777.93566723.28371374 1.43211723.29231147.99782438.02070657 1.94042786-.3217058 2.65165567-.9643972.7120232-.6416673 1.10730703-1.50582894 1.11425497-2.43451855.01052717-1.41149027-.88691472-2.69007588-2.2875089-3.2585162zm-.39940112.87286065c.9821155.39879276 1.66791433 1.31191868 1.6586504 2.3647239-.01052717 1.3931132-1.23288455 2.49662703-2.732867 2.4661411-.36645104-.01125357-.71818744-.0829388-1.0376288-.21211854-.98109786-.39830886-1.66716572-1.3125939-1.65914167-2.36367734.0105272-1.39316946 1.2342414-2.49714468 2.73497245-2.4665012.36643935.01125356.71716982.08237613 1.03593276.211252" fill="#efe2a8"/><path d="M404.5800208 441.73595797c-1.20684735-.49039682-1.98303955-1.5931679-1.97547168-2.81028652.01169687-1.65328447 1.47247143-2.9696258 3.25237152-2.93337806.4282456.01125356.8425485.09126644 1.2326974.25165232 1.20833285.4905994 1.984373 1.593438 1.97361187 2.81182826-.00467873.80185062-.34663655 1.54734336-.96087397 2.10123283-.61490414.55310172-1.4277777.84979084-2.2904799.83147003-.42537986-.00900286-.8410864-.09430492-1.23141076-.25209123" fill="#a88c74"/><path d="M407.12137504 435.50319073c-.45151065-.18514373-.9350473-.2834099-1.4289474-.29336932-2.0637128-.03646155-3.75527818 1.48540373-3.77000453 3.4004575-.0081878 1.41182788.88897337 2.6909199 2.28960265 3.25928145.45100768.18495242.93262606.2827572 1.42872515.29167003.9995672.0204815 1.9421707-.32312376 2.65410032-.96434092.712725-.64220748 1.10708478-1.50699932 1.11429005-2.43680304.01052718-1.41038742-.88740598-2.68914183-2.28694745-3.25703073zm-.3987344.87426735c.98109786.39833136 1.66751663 1.31226754 1.6590598 2.36376736-.0081878 1.39257302-1.23412443 2.49724596-2.73411857 2.46579223-.36645105-.01125357-.71819915-.0829388-1.03547658-.21155586-.9835893-.39847765-1.6680664-1.3130778-1.66160973-2.36364357.01169687-1.39406974 1.2353643-2.49669453 2.73579122-2.46714265.36767922.00900285.71665515.08203852 1.03586257.21334518" fill="#efe2a8"/><text transform="matrix(1.1 0 0 1.2 -160.01 -64.48)" y="558.53558" x="544.91553" style="text-indent:0;text-align:center;line-height:125%;text-transform:none;block-progression:tb;-inkscape-font-specification:Roboto Light" font-size="10.52661037" font-weight="300" letter-spacing="0" word-spacing="0" text-anchor="middle" color="#000" overflow="visible" font-family="Roboto"><tspan y="558.53558" x="544.91553">15.03.2015</tspan></text><path d="M529.80343014 611.4396135c-.1088978-1.4289783.0070181-2.84363083.24716643-4.24332736.19159463-1.12382652.56519247-2.18685 1.02937082-3.2059958.38661643-.8276663.89394452-1.5586307 1.59990874-2.08059378.60857614-.38752794 1.1935948-.28549182 1.79945726.03083478.72602435.46122757 1.25562326 1.1852485 1.76560653 1.897622.58589592.88318016 1.1341981 1.79377403 1.7694899 2.6362613.59170925.77414433 1.3411975 1.2596796 2.22422886 1.51114063.971986.20380215 1.89830744-.07483624 2.79687223-.46239794 1.10049945-.51642632 2.02658696-1.3449029 2.90008537-2.223109 1.00247973-1.03314524 1.836162-2.23063762 2.6063888-3.47360568.77765432-1.27237364 1.404653-2.63991872 1.95125917-4.04582722.43545085-1.1360929.7235329-2.3241773.8582808-3.5454935.0081878-.15672847.0226919-.6266663.02760458-.4698253.07263753 2.35390925.04877593.57928878-.28479524.08293882-.4315558-.32070424-.89634238.24325717-1.19629676.5408128-.81003122.89576168-1.47278723 1.9335659-2.12258312 2.96923195-.91598142 1.4834456-1.7347853 3.03404125-2.5300083 4.5974097-.85396463 1.70300275-1.6153486 3.45846964-2.36013472 5.22087998-.66939983 1.61386322-1.34630905 3.22396775-2.02115962 4.8351076-.3554794.90827564-.79287192 1.78453487-1.07052038 2.72729144-.0081878.05626785-.03087972.2258029-.02783854.1687698.03251728-.59106.0011697-1.19313726.11556502-1.77190836.01801317-.09104138 1.16429414-1.0548984 1.29823493-1.1720368.71860855-.63919153 1.51941095-1.10618093 2.40597476-1.38858927.8791597-.2438086 1.76447193-.11382987 2.63974826.06729634.90759477.24037626 1.8198449.37765856 2.75310258.35242805 1.27689985-.085077 2.44878527-.63640064 3.5900249-1.22428714 1.58769722-.8773058 3.0823342-1.9375384 4.6052191-2.9392074 1.2969483-.87274813 2.65927034-1.60962064 4.1152024-2.0995223.95245224-.29557502 1.9398781-.26373867 2.9178997-.22797482.69453638.0554801 1.3788614.00337607 2.0558174-.16839842.56836233-.18118248 1.1030143-.45905563 1.68605617-.58195587.57166083-.07764963.88556957.26602314 1.11045348.79658395.2595651.88711893.26509773 1.8329027.31057513 2.75506525.05789948.8848457.05906917 1.79602476.34561894 2.63622755.29449194.61695447.7269718.1979503 1.0753278-.13227446.71824593-.7959425 1.2889827-1.7316656 1.87825903-2.64090904.48102183-.7274195.9261109-1.4878795 1.48345477-2.14982574.9686758-.6010194.45374475 1.60632333.31007217 2.35652006-.16245775.79728168-.37463887 1.58086776-.55300435 2.37372678-.041056-.28156432-.0424596.49957973-.0421087.3739899.0070181-2.4976961-.0526359-1.67959533.66557495-3.5215459.52041687-1.34211202.92259015-2.732153 1.24998537-4.14386833.1290632-.60691628.24138818-1.2211474.288316-1.84319972.01333443-.16764444.01836408-.67227702.01988467-.50411493.01508895 1.4834456.02000164 1.3964105-.05883523.74328705-.14141507-.72668803-.57156725-.77944477-1.14603533-.58443165-1.10496765.55289915-2.00233936 1.48386198-2.89946543 2.35880454-1.61105587 1.62267476-3.17351127 3.30230385-4.73901954 4.97718392-1.8835577 2.04502125-3.79264967 4.06081698-5.74723074 6.0244524-1.93345652 1.95871763-4.0081059 3.73405832-6.16077336 5.39251944-2.04300935 1.58328727-4.28362553 2.79159433-6.60361663 3.79866506-2.2098885.93256084-4.52983282 1.415384-6.88202538 1.6227423-2.22545705.14450708-4.42954393-.20901257-6.6000842-.70809714-.97972932-.22993295-1.93143296-.5689355-2.8805399-.91466767l.04596868-1.55624494c.94355092.34631736 1.88975704.6859051 2.86421108.91624316 2.1566678.49945594 4.34703424.8540109 6.55909837.70988644 2.33830838-.20702067 4.64413458-.68947247 6.8398231-1.62004143 2.30900774-1.00691316 4.53799724-2.21507393 6.57032736-3.795334 2.14621077-1.65848362 4.21454384-3.4331941 6.1426315-5.38975105 1.9526511-1.9648283 3.8600938-3.98140053 5.74266897-6.0264668 1.56734468-1.67834616 3.13094637-3.3622291 4.74498494-4.9870758.91205128-.88857064 1.82722562-1.83526596 2.9615173-2.3734792.61683413-.1941691 1.17994456-.1761071 1.3901957.59951144.25936625 1.56048753.05895218 3.18164306-.26420878 4.71020422-.3371855 1.4128632-.74548793 2.80472725-1.27160117 4.1483585-.19352462.48995792-.25148258.65146916-.45894986 1.12177836-.06842666.15484912-.10690934.58915815-.21200567.4611938-.48136104-.58605216-.42391774-.99159706-.3087855-1.54940277.18475196-.78943792.3905349-1.5733391.54669972-2.37053075.2211292-1.23954697.3719018.96411585.00467874.76725715-.54404455.66629012-.98887628 1.41871506-1.4669622 2.14094668-.59549905.91688462-1.17290304 1.86323108-1.91468307 2.64907912-.4232978.373506-.95289672.75870444-1.34450773.12662517-.3390804-.82836403-.33051828-1.75722244-.39288596-2.6480888-.04421415-.91673833-.05064742-1.84946797-.26280514-2.74296766-.16396664-.4903293-.38279157-.86128072-.9137824-.78535288-.57990714.12681648-1.11210275.41050772-1.6815061.58006526-.6895886.17084045-1.38654625.22418237-2.0931187.16708175-.96210217-.0369117-1.9335618-.0719103-2.8701648.22215673-1.443896.48975537-2.79398312 1.22564882-4.08095398 2.0916898-1.52679165 1.0046287-3.0259904 2.06698822-4.61965304 2.94304488-1.16029382.59468366-2.35228614 1.14750403-3.64910575 1.23196207-.9432936.0257707-1.86633992-.10668383-2.7836197-.35162904-.85279496-.17836908-1.71518135-.31108243-2.57166082-.06729635-.867919.28417516-1.64833376.75467567-2.3501924 1.3850894-.53384486.47084938-2.30939372 2.5999348-1.66132898-.3513252.30480858-.9318631.72277263-1.81381664 1.08625267-2.7186937.6758214-1.60946307 1.3517364-3.21885863 2.02210705-4.83106757.74773373-1.7633894 1.5121121-3.51979035 2.37066192-5.22261304.7992701-1.5654166 1.62199243-3.11811667 2.54309708-4.60254133.65801878-1.04208058 1.32723146-2.08978795 2.156621-2.97999035.39214906-.37194174.88377995-.86767276 1.42430373-.54323233.7742973.87107132.31348765 2.45611415.33910378 3.50781653-.15460915 1.2219914-.45406056 2.41077353-.89806182 3.5467539-.55705145 1.40669625-1.19288128 2.77527665-1.97878188 4.04790913-.78083585 1.24571393-1.62571203 2.44527697-2.63932718 3.47830968-.89004947.8837541-1.83409167 1.71460518-2.9525341 2.22890458-.9284152.3927271-1.8847625.66945237-2.88597896.464975-.9104254-.24942412-1.69436093-.7295802-2.31379176-1.51767895-.64370182-.83672544-1.19523235-1.7462277-1.77435578-2.63635134-.49411063-.70081607-1.0040822-1.41689198-1.70106324-1.88944064-.55788192-.31071108-1.0853403-.4139851-1.64656754-.03252283-.67649983.52963802-1.1577088 1.25861052-1.527704 2.07006044-.45007195 1.01965223-.80963355 2.08135904-.99017464 3.20081917-.08199502.5062981-.15428164 1.00883753-.19517387 1.52139263-.01169688.15183317-.01965075.60860432-.03017792.4564673-.0194168-.28058525-.02585007-1.73636957-.0081878-.8440515l-.21245015 1.55679636z" opacity=".41152266" color="#000" fill="#003380" fill-rule="evenodd" overflow="visible"/><path d="M433.45929728 407.10176837h2.17371012v-32.1124221h-2.17371012v32.1124221zM432.22852986 402.07537258c-2.28369573-.73906695-3.8511223-2.43687055-4.70356635-5.1353416l-2.891301.6984078c1.38015976 4.14994526 3.91005108 6.63253907 7.59486736 7.45922632v-3.02229252zM426.01372868 385.42321748c.54472296 2.79624206 2.95806673 5.11121394 6.2146842 6.10552312v-3.1962502c-2.1815704-.65653328-3.73457473-2.2768898-3.73457473-4.19185355 0-1.86543678 1.49277718-3.47053347 3.60100825-4.14992274.04187477-.01507977.0917034-.04310116.1335665-.06470802v-2.9333893c-.29855077.0558177-.60366347.13847516-.89304388.23237495-2.71058448 1.07559372-4.70096964 3.10357706-5.2889242 5.5366439-.07333935.47237986-.12171758.95241214-.12171758 1.46668904 0 .40890972.03275122.80383125.08901314 1.19496033M438.4344648 380.83237986c1.25707368.8190686 2.05715087 2.0368624 2.3871311 3.62039726l2.90831997-.9206658c-1.2308961-3.78292133-3.61934894-5.9544102-7.1300106-6.53852675v2.9549624c.6180623.2108019 1.24005473.49781294 1.83455954.8838329M441.75539165 397.36174727c0 1.44384428-.8511691 2.75053006-2.1815704 3.65850185-.6102137.48508513-1.37100114.82032898-2.30464482 1.0146106-.19904554.05851858-.40331957.11552916-.6206824.1524071v2.91053333c.12171757-.0169929.23176167-.03556128.35747956-.05716814 4.40370553-1.42605238 7.44428194-4.40899116 7.44428194-7.87698132 0-3.57722857-3.20688242-6.36456905-7.8096218-7.74238864l.00701812 3.09465297c2.9331758.54350243 5.10688592 2.49911406 5.10688592 4.84583227" fill="gray" fill-rule="evenodd"/><path d="M434.5405203 427.10319973c-20.21544442 0-36.66749303-15.95714588-36.66749303-35.5651862 0-17.981348 13.61836634-32.95307503 31.85390598-35.24517966v-6.8725327l1.80575017 1.01080692 18.92168938 10.58561434 1.79657982 1.0006787-1.79004128 1.0133277-18.92822792 10.60975327-1.80575017 1.00447116v-6.0915687c-11.1474272 2.18039045-19.3930964 11.82249424-19.3930964 22.98462898 0 12.94503784 10.863287 23.48111398 24.20668345 23.48111398 13.3577836 0 24.21452034-10.53607614 24.21452034-23.48111398 0-3.84643646-.98864234-7.678896-2.88735918-11.07199365l-.55782345-1.00318825 1.02138187-.5612943 8.74064538-4.85342843 1.06587674-.59302938.5944931 1.03367417c2.9384394 5.21027913 4.47836662 11.10626078 4.47836662 17.04925984 0 19.6080403-16.44287826 35.5651862-36.67010142 35.5651862" fill="#006680"/></svg>