<svg xmlns="http://www.w3.org/2000/svg" width="1000" height="1000" id="organisational"><defs><radialGradient fx="0" fy="0" cx="0" cy="0" r="1" gradientUnits="userSpaceOnUse" gradientTransform="matrix(573.74 0 0 -573.74 389.48 413.89)" spreadMethod="pad" id="L"><stop offset="0" stop-color="#acd1f0"/><stop offset="1" stop-color="#8db5d9"/></radialGradient><radialGradient fx="0" fy="0" cx="0" cy="0" r="1" gradientUnits="userSpaceOnUse" gradientTransform="matrix(573.74 0 0 -573.74 389.48 413.89)" spreadMethod="pad" id="K"><stop offset="0" stop-color="#acd1f0"/><stop offset="1" stop-color="#8db5d9"/></radialGradient><radialGradient fx="0" fy="0" cx="0" cy="0" r="1" gradientUnits="userSpaceOnUse" gradientTransform="matrix(573.74 0 0 -573.74 389.48 413.89)" spreadMethod="pad" id="J"><stop offset="0" stop-color="#acd1f0"/><stop offset="1" stop-color="#8db5d9"/></radialGradient><radialGradient fx="0" fy="0" cx="0" cy="0" r="1" gradientUnits="userSpaceOnUse" gradientTransform="matrix(573.74 0 0 -573.74 389.48 413.89)" spreadMethod="pad" id="I"><stop offset="0" stop-color="#acd1f0"/><stop offset="1" stop-color="#8db5d9"/></radialGradient><radialGradient fx="0" fy="0" cx="0" cy="0" r="1" gradientUnits="userSpaceOnUse" gradientTransform="matrix(573.74 0 0 -573.74 389.48 413.89)" spreadMethod="pad" id="H"><stop offset="0" stop-color="#acd1f0"/><stop offset="1" stop-color="#8db5d9"/></radialGradient><radialGradient fx="0" fy="0" cx="0" cy="0" r="1" gradientUnits="userSpaceOnUse" gradientTransform="matrix(573.74 0 0 -573.74 389.48 413.89)" spreadMethod="pad" id="G"><stop offset="0" stop-color="#acd1f0"/><stop offset="1" stop-color="#8db5d9"/></radialGradient><radialGradient fx="0" fy="0" cx="0" cy="0" r="1" gradientUnits="userSpaceOnUse" gradientTransform="matrix(573.74 0 0 -573.74 389.48 413.89)" spreadMethod="pad" id="F"><stop offset="0" stop-color="#acd1f0"/><stop offset="1" stop-color="#8db5d9"/></radialGradient><radialGradient fx="0" fy="0" cx="0" cy="0" r="1" gradientUnits="userSpaceOnUse" gradientTransform="matrix(573.74 0 0 -573.74 389.48 413.89)" spreadMethod="pad" id="E"><stop offset="0" stop-color="#acd1f0"/><stop offset="1" stop-color="#8db5d9"/></radialGradient><radialGradient fx="0" fy="0" cx="0" cy="0" r="1" gradientUnits="userSpaceOnUse" gradientTransform="matrix(573.74 0 0 -573.74 389.48 413.89)" spreadMethod="pad" id="D"><stop offset="0" stop-color="#acd1f0"/><stop offset="1" stop-color="#8db5d9"/></radialGradient><radialGradient fx="0" fy="0" cx="0" cy="0" r="1" gradientUnits="userSpaceOnUse" gradientTransform="matrix(573.74 0 0 -573.74 389.48 413.89)" spreadMethod="pad" id="C"><stop offset="0" stop-color="#acd1f0"/><stop offset="1" stop-color="#8db5d9"/></radialGradient><radialGradient fx="0" fy="0" cx="0" cy="0" r="1" gradientUnits="userSpaceOnUse" gradientTransform="matrix(573.74 0 0 -573.74 389.48 413.89)" spreadMethod="pad" id="B"><stop offset="0" stop-color="#cee4f6"/><stop offset="1" stop-color="#9db4ca"/></radialGradient><radialGradient fx="0" fy="0" cx="0" cy="0" r="1" gradientUnits="userSpaceOnUse" gradientTransform="matrix(573.74 0 0 -573.74 389.48 413.89)" spreadMethod="pad" id="A"><stop offset="0" stop-color="#acd1f0"/><stop offset="1" stop-color="#8db5d9"/></radialGradient><radialGradient fx="0" fy="0" cx="0" cy="0" r="1" gradientUnits="userSpaceOnUse" gradientTransform="matrix(573.74 0 0 -573.74 389.48 413.89)" spreadMethod="pad" id="z"><stop offset="0" stop-color="#c9e1f6"/><stop offset="1" stop-color="#9cb4cc"/></radialGradient><radialGradient fx="0" fy="0" cx="0" cy="0" r="1" gradientUnits="userSpaceOnUse" gradientTransform="matrix(573.74 0 0 -573.74 389.48 413.89)" spreadMethod="pad" id="y"><stop offset="0" stop-color="#acd1f0"/><stop offset="1" stop-color="#8db5d9"/></radialGradient><radialGradient fx="0" fy="0" cx="0" cy="0" r="1" gradientUnits="userSpaceOnUse" gradientTransform="matrix(573.74 0 0 -573.74 389.48 413.89)" spreadMethod="pad" id="x"><stop offset="0" stop-color="#acd1f0"/><stop offset="1" stop-color="#8db5d9"/></radialGradient><radialGradient fx="0" fy="0" cx="0" cy="0" r="1" gradientUnits="userSpaceOnUse" gradientTransform="matrix(573.74 0 0 -573.74 389.48 413.89)" spreadMethod="pad" id="w"><stop offset="0" stop-color="#acd1f0"/><stop offset="1" stop-color="#8db5d9"/></radialGradient><radialGradient fx="0" fy="0" cx="0" cy="0" r="1" gradientUnits="userSpaceOnUse" gradientTransform="matrix(573.74 0 0 -573.74 389.48 413.89)" spreadMethod="pad" id="v"><stop offset="0" stop-color="#acd1f0"/><stop offset="1" stop-color="#8db5d9"/></radialGradient><radialGradient fx="0" fy="0" cx="0" cy="0" r="1" gradientUnits="userSpaceOnUse" gradientTransform="matrix(573.74 0 0 -573.74 389.48 413.89)" spreadMethod="pad" id="u"><stop offset="0" stop-color="#c9e1f6"/><stop offset="1" stop-color="#9cb4cc"/></radialGradient><radialGradient fx="0" fy="0" cx="0" cy="0" r="1" gradientUnits="userSpaceOnUse" gradientTransform="matrix(573.74 0 0 -573.74 389.48 413.89)" spreadMethod="pad" id="t"><stop offset="0" stop-color="#acd1f0"/><stop offset="1" stop-color="#8db5d9"/></radialGradient><radialGradient fx="0" fy="0" cx="0" cy="0" r="1" gradientUnits="userSpaceOnUse" gradientTransform="matrix(573.74 0 0 -573.74 389.48 413.89)" spreadMethod="pad" id="s"><stop offset="0" stop-color="#c9e1f6"/><stop offset="1" stop-color="#9cb4cc"/></radialGradient><radialGradient fx="0" fy="0" cx="0" cy="0" r="1" gradientUnits="userSpaceOnUse" gradientTransform="matrix(573.74 0 0 -573.74 389.48 413.89)" spreadMethod="pad" id="r"><stop offset="0" stop-color="#acd1f0"/><stop offset="1" stop-color="#8db5d9"/></radialGradient><radialGradient fx="0" fy="0" cx="0" cy="0" r="1" gradientUnits="userSpaceOnUse" gradientTransform="matrix(573.74 0 0 -573.74 389.48 413.89)" spreadMethod="pad" id="q"><stop offset="0" stop-color="#acd1f0"/><stop offset="1" stop-color="#8db5d9"/></radialGradient><radialGradient fx="0" fy="0" cx="0" cy="0" r="1" gradientUnits="userSpaceOnUse" gradientTransform="matrix(573.74 0 0 -573.74 389.48 413.89)" spreadMethod="pad" id="p"><stop offset="0" stop-color="#acd1f0"/><stop offset="1" stop-color="#8db5d9"/></radialGradient><radialGradient fx="0" fy="0" cx="0" cy="0" r="1" gradientUnits="userSpaceOnUse" gradientTransform="matrix(573.74 0 0 -573.74 389.48 413.89)" spreadMethod="pad" id="o"><stop offset="0" stop-color="#acd1f0"/><stop offset="1" stop-color="#8db5d9"/></radialGradient><radialGradient fx="0" fy="0" cx="0" cy="0" r="1" gradientUnits="userSpaceOnUse" gradientTransform="matrix(573.74 0 0 -573.74 389.48 413.89)" spreadMethod="pad" id="n"><stop offset="0" stop-color="#acd1f0"/><stop offset="1" stop-color="#8db5d9"/></radialGradient><radialGradient fx="0" fy="0" cx="0" cy="0" r="1" gradientUnits="userSpaceOnUse" gradientTransform="matrix(573.74 0 0 -573.74 389.48 413.89)" spreadMethod="pad" id="m"><stop offset="0" stop-color="#acd1f0"/><stop offset="1" stop-color="#8db5d9"/></radialGradient><radialGradient fx="0" fy="0" cx="0" cy="0" r="1" gradientUnits="userSpaceOnUse" gradientTransform="matrix(573.74 0 0 -573.74 389.48 413.89)" spreadMethod="pad" id="l"><stop offset="0" stop-color="#acd1f0"/><stop offset="1" stop-color="#8db5d9"/></radialGradient><radialGradient fx="0" fy="0" cx="0" cy="0" r="1" gradientUnits="userSpaceOnUse" gradientTransform="matrix(573.74 0 0 -573.74 389.48 413.89)" spreadMethod="pad" id="k"><stop offset="0" stop-color="#acd1f0"/><stop offset="1" stop-color="#8db5d9"/></radialGradient><radialGradient fx="0" fy="0" cx="0" cy="0" r="1" gradientUnits="userSpaceOnUse" gradientTransform="matrix(573.74 0 0 -573.74 389.48 413.89)" spreadMethod="pad" id="j"><stop offset="0" stop-color="#acd1f0"/><stop offset="1" stop-color="#8db5d9"/></radialGradient><radialGradient fx="0" fy="0" cx="0" cy="0" r="1" gradientUnits="userSpaceOnUse" gradientTransform="matrix(573.74 0 0 -573.74 389.48 413.89)" spreadMethod="pad" id="i"><stop offset="0" stop-color="#acd1f0"/><stop offset="1" stop-color="#8db5d9"/></radialGradient><radialGradient fx="0" fy="0" cx="0" cy="0" r="1" gradientUnits="userSpaceOnUse" gradientTransform="matrix(573.74 0 0 -573.74 389.48 413.89)" spreadMethod="pad" id="h"><stop offset="0" stop-color="#acd1f0"/><stop offset="1" stop-color="#8db5d9"/></radialGradient><radialGradient fx="0" fy="0" cx="0" cy="0" r="1" gradientUnits="userSpaceOnUse" gradientTransform="matrix(573.74 0 0 -573.74 389.48 413.89)" spreadMethod="pad" id="g"><stop offset="0" stop-color="#acd1f0"/><stop offset="1" stop-color="#8db5d9"/></radialGradient><radialGradient fx="0" fy="0" cx="0" cy="0" r="1" gradientUnits="userSpaceOnUse" gradientTransform="matrix(573.74 0 0 -573.74 389.48 413.89)" spreadMethod="pad" id="f"><stop offset="0" stop-color="#acd1f0"/><stop offset="1" stop-color="#8db5d9"/></radialGradient><radialGradient fx="0" fy="0" cx="0" cy="0" r="1" gradientUnits="userSpaceOnUse" gradientTransform="matrix(573.74 0 0 -573.74 389.48 413.89)" spreadMethod="pad" id="e"><stop offset="0" stop-color="#acd1f0"/><stop offset="1" stop-color="#8db5d9"/></radialGradient><clipPath id="a"><path d="M643.277 321.269h66.72v-80.16h-66.72v80.16z"/></clipPath><clipPath id="b"><path d="M540.024 487.434h73.92v-69.6h-73.92v69.6z"/></clipPath><clipPath id="c"><path d="M301.396 403.211h54.72v-71.52h-54.72v71.52z"/></clipPath><clipPath id="d"><path d="M108.983 581.911h38.4v-82.56h-38.4v82.56z"/></clipPath><clipPath id="M"><path d="M52 721h260V597H52v124z"/></clipPath><clipPath id="N"><path d="M52 721h260V597H52v124z"/></clipPath><clipPath id="O"><path d="M52 721h260V597H52v124z"/></clipPath><clipPath id="P"><path d="M52 721h260V597H52v124z"/></clipPath><clipPath id="Q"><path d="M52 721h260V597H52v124z"/></clipPath></defs><path d="M572.59566092 715.9616316c-25.20539356-15.35792368-50.40245604-23.77437562-73.1997824-41.61303114-8.99894023-6.93324707-1.79145346-26.24691084-10.7903937-27.24166817-41.4035158-3.95851908-83.9902112-7.9190686-125.99366982-11.3856781-7.19079828-.50014362-22.19739233 1.97993324-25.79695262-.50014362-18.59784082-13.8636777-39.59541777-23.77506803-56.38512542-38.13888936-8.99893145-7.92730264-15.60649297-20.80788168-15.60649297-33.6850361-16.7980124.49668157-39.59537388 4.95807648-44.3864536-11.88651412-5.39942383-21.29703098-26.9968909-24.2717496-49.79421727-26.25510746l16.18977362-241.21719436 395.36222354 25.75707867c9.59052562-9.4180961 26.39688664-11.89474835 37.79558933-12.39008254 68.383648-2.97195834 68.383648 43.0990431 88.18969675 39.63244295 15.0065677 4.45312342 37.18735056-27.2423604 56.98502433-31.2049965 20.39759903-3.96947596 41.41175034 14.3610983 59.99303435-1.4859745.6000306 6.92773588 2.40793552 13.86367772 4.19951188 20.79691524-7.19079828 1.4859745-7.79908095 9.91135288-11.39039795 13.37799045-11.99859282 13.86640992-10.20701646 36.15754325-19.7893339 50.52136458-4.2161916 6.44132814-8.41570347 17.8304196-10.80704707 22.78854288-15.00663793 30.21084754-33.00453595 65.38259734-68.98364348 87.67441372-5.40772857 3.46660014-6.61590137 12.87165258-11.41535606 16.8356735-10.18211102 7.43057427-22.19739233 14.86119532-32.3878871 23.27760983-2.40804086 1.98339527-10.1988083-.4891025-12.00690634 1.49151377-3.5995954 3.95848164 7.79907217 8.9166049 3.0079661 14.3638307-4.19952064 4.95257463-13.19846087 5.4499954-16.806361 8.91659555-4.19952067 3.96397413.5998989 12.88057904-2.39142262 17.83042147-1.80809805 3.46660014-10.20713936 3.9639835-12.59852685 8.41645193-4.7994108 8.424686-6.60755274 18.82725604-11.99859282 25.76118616-22.1974011 29.2216014-49.79418216 54.9821045-45.5946615 89.6543563 0 3.46660014-1.20820792 6.9332377-3.5995954 9.90792828" fill="#2ca05a"/><path d="M127.63432 390.51993l57.65707-127.85631 106.1615 103.46768 110.96712-93.2878 128.74289 5.82386-1.88677 76.65148 62.85241 79.37338 90.29914-90.09277-23.34349 129.01707-68.37972 75.3258-54.47279 94.32107-97.96194-20.51741-31.77831-74.37469 1.2368-113.95287-142.51289 35.06111-139.69047-77.77504 163.50069-21.1381 240.25057-15.24755 61.42834 193.62348-182.67316-116.09286 121.24482-77.53062-91.61603 269.37751 153.04437-75.75403-184.21304-.57103-69.67371-90.33659-43.80183-89.36419" fill="none" stroke="#fff" stroke-width="5.7764492" stroke-linecap="round" stroke-linejoin="round" stroke-miterlimit="1" transform="matrix(.93 0 0 .92 74.05 59.09)"/><path d="M187.59145 265.35081l217.01097 10.36055 117.39517 80.06739" fill="none" stroke="#fff" stroke-width="5.7764492" stroke-linecap="round" stroke-linejoin="round" stroke-miterlimit="1" transform="matrix(.93 0 0 .92 74.05 59.09)"/><path d="M244.6453312 311.5911392c-3.9429582-2.0414064-5.5042422-6.7088056-3.4832406-10.4129832 2.0184999-3.699596 6.8657808-5.0549124 10.8087483-3.0135152 3.9429489 2.0414064 5.5017405 6.713378 3.4832406 10.412974-2.0210016 3.7041776-6.8657994 5.0549216-10.8087483 3.0135244" fill="#0069a3" fill-rule="evenodd"/><path d="M254.4641875 293.592434c-6.6348804-3.435096-14.7708924-1.1667532-18.1716606 5.0663296-3.4007682 6.2330736-.7788378 14.0711792 5.856024 17.5062844 6.6348804 3.435096 14.7708924 1.166744 18.1716699-5.0663296 3.4007682-6.2330736.7788378-14.0711792-5.8560333-17.5062844m-4.9901289 9.1461156c1.2558999.6502284 1.7541939 2.1398188 1.1104665 3.3196636-.6437274 1.179854-2.1899361 1.6109384-3.4458453.9607192-1.2559092-.6502284-1.7541846-2.1398188-1.1104572-3.3196728.6437274-1.179854 2.1899361-1.6109384 3.445836-.96071" fill="#fff"/><path d="M341.7563776 407.7164468c-3.9429582-2.041388-5.5042422-6.7087964-3.4832406-10.4129648 2.0184999-3.6996052 6.8657901-5.0549216 10.8087483-3.0135244 3.9429489 2.0414064 5.5017498 6.713378 3.4832406 10.4129832-2.0210016 3.7041776-6.8657901 5.0549124-10.8087483 3.013506" fill="#0069a3" fill-rule="evenodd"/><path d="M351.5752153 389.7177876c-6.6348804-3.435096-14.7708924-1.166744-18.1716606 5.0663296-3.4007682 6.2330736-.7788471 14.0711792 5.8560333 17.5062752 6.6348711 3.4351052 14.7708831 1.1667532 18.1716606-5.0663204 3.4007682-6.2330736.7788378-14.0711792-5.8560333-17.5062844m-4.9901289 9.1461156c1.2559092.6502192 1.7541939 2.1398188 1.1104665 3.3196728-.6437274 1.1798448-2.1899361 1.6109292-3.4458453.96071-1.2558999-.6502284-1.7541846-2.1398188-1.1104572-3.3196728.6437181-1.1798448 2.1899361-1.6109384 3.445836-.96071" fill="#fff"/><path d="M185.8890007 425.4028396c-3.8294796-1.9818548-5.3485974-6.5213464-3.385758-10.1174608 1.961928-3.5944584 6.6758562-4.9081908 10.5053265-2.926336 3.8294796 1.9818456 5.3468304 6.5204264 3.3849024 10.114894-1.9628394 3.5961144-6.6750006 4.9107576-10.5044709 2.9289028" fill="#0069a3" fill-rule="evenodd"/><path d="M193.9134685 410.7016076c-4.8106668-2.4896488-10.7097498-.8456272-13.1755053 3.6718948-2.4648534 4.515866-.5638032 10.1966544 4.2468636 12.6863032 4.8106668 2.4896396 10.7097498.845618 13.1746032-3.6702388 2.4657555-4.517522.5647053-10.1983196-4.2459615-12.6879592m-1.8090639 3.314392c2.8571088 1.478624 3.9899883 4.8639664 2.5255545 7.5469716-1.4635317 2.6813492-4.9789596 3.6610664-7.8360684 2.1824332-2.8571088-1.478624-3.9899883-4.8639664-2.5264566-7.5453064 1.4644431-2.6830052 4.9798617-3.6627224 7.8369705-2.1840984" fill="#fff"/><path d="M315.3152221 500.8497304c-3.9429489-2.0414064-5.5042515-6.7088056-3.4832499-10.4129832 2.0185092-3.699596 6.8657994-5.0549124 10.8087576-3.013506 3.9380943 2.0388764 5.5017498 6.7133688 3.4832499 10.412974-2.0210109 3.7041684-6.8706726 5.0524008-10.8087576 3.0135152" fill="#0069a3" fill-rule="evenodd"/><path d="M325.1347945 482.8520188c-6.6348804-3.4351052-14.7708831-1.1667624-18.1716606 5.0663204-3.4007682 6.2330736-.7788471 14.07117 5.856024 17.5062844 6.6348804 3.435096 14.7708924 1.166744 18.1716699-5.0663296 3.4007682-6.2330828.7788378-14.0711792-5.8560333-17.5062752m-4.9901289 9.1461064c1.2559092.6502284 1.7541939 2.1398188 1.1104665 3.3196636-.6437367 1.179854-2.1899361 1.6109476-3.445836.96071-1.2559185-.6502192-1.7542032-2.1398188-1.1104665-3.3196636.6437274-1.179854 2.1899268-1.6109292 3.445836-.96071" fill="#fff"/><path d="M440.6483461 319.7710156c-4.5106116-2.4121572-6.2978484-7.9361684-3.9858963-12.313096 2.3108919-4.3749036 7.8611784-5.974986 12.37179-3.5628288 4.5106023 2.4121572 6.299913 7.9372816 3.9890304 12.3121852-2.3119521 4.3769276-7.8643218 5.9758968-12.3749241 3.5637396" fill="#0069a3" fill-rule="evenodd"/><path d="M450.0995641 301.8777608c-5.6663133-3.030204-12.6146409-1.0292224-15.5189658 4.4691576-2.9032554 5.4963652-.6640851 12.4105884 5.0022375 15.4407924 5.6663133 3.030204 12.6146316 1.0292316 15.5178963-4.4671336 2.9043342-5.49838.6651546-12.4126032-5.001168-15.4428164m-2.1308346 4.0340252c3.3652887 1.7996764 4.6996806 5.9200528 2.9747631 9.185602-1.7238387 3.2635252-5.8645428 4.4559648-9.2298222 2.6562976-3.3652887-1.7996764-4.6996713-5.9200528-2.9758326-9.183578 1.7249082-3.2655492 5.8656123-4.4579888 9.2308917-2.6583216" fill="#fff"/><path d="M561.407944 659.6102112c-9.1080108-4.785748-12.7210701-15.7476308-8.0526747-24.4314648 4.6684047-8.6838432 15.8778249-11.8522128 24.9858357-7.066474 9.1080015 4.7857388 12.7190148 15.7414116 8.0506194 24.4252548-4.6684047 8.6838432-15.8757789 11.8584136-24.9837804 7.072684" fill="#0069a3" fill-rule="evenodd"/><path d="M579.5630878 621.349288c-11.4416598-6.0119608-25.4720118-2.0419952-31.3365453 8.866822-5.8623945 10.9048336-1.3409484 24.622696 10.1007207 30.6346568 11.4416691 6.0119332 25.4678175 2.0397596 31.3302027-8.8650372 5.8645335-10.9088264 1.347291-24.62449-10.0943781-30.6364416m-4.3026729 8.00354c6.7953333 3.5705568 9.4855815 11.7432112 6.0025734 18.2220812-3.4808598 6.4748588-11.8377282 8.8428744-18.6330615 5.2723176-6.795324-3.570566-9.4897758-11.7454284-6.008916-18.2202872 3.4830081-6.47887 11.8440894-8.8446776 18.6394041-5.2741116" fill="#fff"/><path d="M607.4031958 583.099782c-10.5632283-5.4689492-14.7486933-17.9932036-9.3344007-27.9167376 5.4117909-9.9189616 18.409815-13.5467332 28.9730433-8.077784 10.5632283 5.46894 14.7535572 17.9957152 9.3417663 27.9146768-5.4142833 9.923534-18.4171806 13.5487848-28.9804089 8.0798448" fill="#0069a3" fill-rule="evenodd"/><path d="M629.5373632 542.5324372c-13.2697515-6.8702012-29.5417755-2.3334972-36.3433212 10.13265-6.799044 12.461584-1.5551832 28.137786 11.714559 35.0079872 13.2697515 6.8702104 29.5369116 2.3309856 36.3359649-10.13058 6.8015364-12.4661564 1.5625488-28.1398468-11.7072027-35.0100572m-4.9901196 9.1461156c7.8810339 4.0802828 11.0011281 13.4196536 6.9616266 20.8234272-4.0370184 7.3992104-13.7290971 10.1052708-21.6101403 6.024988-7.8810432-4.0802828-11.005992-13.4221652-6.9689922-20.8213848 4.0395108-7.4037736 13.7364627-10.1073132 21.6175059-6.0270304" fill="#fff"/><path d="M477.7724767 636.00199c-3.9429489-2.0414064-5.5042515-6.7087964-3.4832406-10.412974 2.0184999-3.6996052 6.8657901-5.0549308 10.808739-3.0135244 3.9429675 2.0414064 5.5017591 6.7133688 3.4832592 10.4129832-2.0210109 3.7041684-6.8657994 5.0549216-10.8087576 3.0135152" fill="#0069a3" fill-rule="evenodd"/><path d="M487.5917701 618.0058608c-6.6348711-3.435096-14.7708831-1.166744-18.1716513 5.0663296-3.4007682 6.2330736-.7788471 14.0711792 5.8560333 17.5062752 6.6348618 3.4351052 14.7708831 1.1667532 18.1716513-5.0663204 3.4007682-6.2330736.7788471-14.0711792-5.8560333-17.5062844m-4.9901196 9.1461156c1.2558999.6502192 1.7541846 2.1398188 1.1104572 3.3196728-.6437181 1.1798448-2.1899361 1.6109292-3.445836.96071-1.2559092-.6502284-1.7541846-2.1398188-1.1104665-3.3196728.6437274-1.1798448 2.1899454-1.6109384 3.4458453-.96071" fill="#fff"/><path d="M673.578871 516.0451128c-7.9540575-4.026564-11.1074829-13.2440532-7.0305489-20.5503528 4.076934-7.3062996 13.8622359-9.9738488 21.8162934-5.9472756 7.9540668 4.026564 11.1074829 13.2440532 7.0305582 20.5503436-4.076934 7.3063088-13.8622359 9.973858-21.8163027 5.9472848" fill="#0069a3" fill-rule="evenodd"/><path d="M690.8597032 485.073782c-10.6557168-5.3942268-23.7175203-1.8334772-29.1792057 7.9544488-5.4616947 9.7879536-1.2523752 22.0918036 9.4033323 27.4860212 10.6557261 5.3942176 23.7175203 1.8334772 29.179215-7.954458 5.4616947-9.7879444 1.2523752-22.0917944-9.4033416-27.486012m-4.9901289 8.9428324c5.2670085 2.6663164 7.3574346 8.7766252 4.6577748 13.6147028-2.7021429 4.8425488-9.1863726 6.6064096-14.4533811 3.9400932-5.2670178-2.6663072-7.3599363-8.7721448-4.6577748-13.6146936 2.6996505-4.8380776 9.1863726-6.6064096 14.4533811-3.9401024" fill="#fff"/><path d="M446.7051571 571.9674324c-3.9429582-2.0414064-5.5042422-6.7087964-3.4832406-10.4129648 2.0184999-3.6996144 6.8657808-5.0549308 10.808739-3.0135244 3.9429675 2.0414064 5.5017591 6.7133688 3.4832499 10.412974-2.0209923 3.7041684-6.8657994 5.0549216-10.8087483 3.0135152" fill="#0069a3" fill-rule="evenodd"/><path d="M456.5235112 553.9696472c-6.6348711-3.4351052-14.7708924-1.1667532-18.1716606 5.0663204-3.4007589 6.2330828-.7788471 14.0711792 5.8560333 17.5062844 6.6348711 3.435096 14.7708831 1.1667624 18.1716513-5.0663204 3.4007682-6.2330736.7788564-14.0711884-5.856024-17.5062844m-4.9901196 9.1461064c1.2558999.6502376 1.7541846 2.139828 1.1104479 3.3196728-.6437181 1.179854-2.1899268 1.6109384-3.445836.96071-1.2558999-.6502192-1.7541846-2.1398188-1.1104665-3.3196544.6437367-1.179854 2.1899454-1.6109476 3.4458546-.9607284" fill="#fff"/><path d="M450.2277553 469.0561864c-4.9116555-2.542926-6.8645811-8.369056-4.3445694-12.9878424 2.5175193-4.6142232 8.5698291-6.3016228 13.4814846-3.7586876 4.9165287 2.545456 6.8620887 8.3736284 4.3445694 12.9878424-2.5200117 4.6187956-8.5649652 6.3041436-13.4814846 3.7586876" fill="#0069a3" fill-rule="evenodd"/><path d="M461.8597117 447.73894c-7.6084509-3.9391548-16.9446093-1.3361988-20.8443969 5.8114928-3.8997783 7.1476824-.8910888 16.1419888 6.7173528 20.0811436 7.6084416 3.9391548 16.9446186 1.3361988 20.8443969-5.8114928 3.8997783-7.1476824.8910888-16.1419888-6.7173528-20.0811436m-4.9901289 9.1461064c2.2294797 1.154278 3.1145235 3.8000784 1.971786 5.8945412-1.1427468 2.0944536-3.8891019 2.8601512-6.1185816 1.7058732-2.2294704-1.154278-3.1145235-3.8000692-1.9717767-5.894532 1.1427375-2.0944628 3.8891019-2.8601604 6.1185723-1.7058824" fill="#fff"/><path d="M381.3797809 487.2305012c-5.9071182-3.0197988-8.2490256-9.9326236-5.2212711-15.412116 3.0277545-5.4794832 10.2948489-7.48006 16.2019764-4.4602704 5.9071182 3.0197988 8.2490163 9.9326144 5.2212711 15.4121068-3.0277545 5.4795016-10.2948582 7.4800692-16.2019764 4.4602796" fill="#0069a3" fill-rule="evenodd"/><path d="M394.2147109 464.004034c-7.9135188-4.0454884-17.613921-1.3750596-21.6700788 5.9655836-4.0561392 7.3406432-.9300744 16.5681512 6.9834351 20.6136396 7.9135188 4.0454884 17.613921 1.3750504 21.6700788-5.9655928 4.0561392-7.3406432.9300744-16.568142-6.9834351-20.6136304m-3.7059477 6.7068368c3.9115707 1.9996476 5.4640383 6.5821952 3.4591257 10.2105924-2.0067726 3.6317552-6.8223033 4.9545956-10.733874 2.9549388-3.9151884-2.0014876-5.465889-6.578828-3.4591164-10.210574 2.0049126-3.6284156 6.8186856-4.9564448 10.7338647-2.9549572" fill="#fff"/><path d="M619.346944 462.989136c-3.9429489-2.0413972-5.5042515-6.7087964-3.4832406-10.412974 2.0184999-3.6996052 6.8657901-5.0549216 10.808739-3.0135152 3.9429675 2.0413972 5.5017591 6.7133688 3.4832592 10.412974-2.0210016 3.7041776-6.8657994 5.0549124-10.8087576 3.0135152" fill="#0069a3" fill-rule="evenodd"/><path d="M629.1660142 444.9923352c-6.6348711-3.4351052-14.7708831-1.1667624-18.1716513 5.0663204-3.4007775 6.2330736-.7788564 14.07117 5.856024 17.5062844 6.6348711 3.4351052 14.7708924 1.1667532 18.1716606-5.0663204 3.4007682-6.2330828.7788378-14.0711792-5.8560333-17.5062844m-4.9901196 9.1461156c1.2558999.6502192 1.7541846 2.1398188 1.1104572 3.3196544-.6437181 1.179854-2.1899361 1.6109476-3.445836.9607284-1.2559092-.6502376-1.7541939-2.1398372-1.1104665-3.3196728.6437274-1.179854 2.1899268-1.6109384 3.4458453-.96071" fill="#fff"/><path d="M561.772876 395.7020196c-5.3058918-2.7847756-7.4082498-9.1621144-4.6886601-14.2151592s9.2472318-6.897976 14.5531236-4.1132004c5.3058918 2.7847848 7.4119512 9.1610656 4.6923522 14.2141196-2.7195804 5.0530448-9.2509239 6.8990156-14.5568157 4.11424" fill="#0069a3" fill-rule="evenodd"/><path d="M572.8906075 375.0450664c-6.6653751-3.4983-14.838801-1.1882168-18.2552025 5.1595256-3.4151553 6.345424-.7811721 14.3277212 5.884203 17.8260212 6.6653751 3.4982908 14.838801 1.1882168 18.253947-5.157198 3.4164108-6.3477424.7824276-14.3300488-5.8829475-17.8283488m-2.506536 4.6571872c3.958638 2.0776728 5.5283013 6.8345512 3.4992645 10.6045456-2.0277906 3.7676576-6.898554 5.1442996-10.857192 3.0666268-3.958638-2.0776728-5.5283013-6.8345512-3.5005107-10.602218 2.0290368-3.7699852 6.8998002-5.1466272 10.8584382-3.0689544" fill="#fff"/><path d="M703.6657846 383.5779468c-3.9429489-2.0414064-5.5042515-6.7087964-3.4832406-10.412974 2.0184999-3.6996052 6.8657901-5.0549308 10.808739-3.0135244 3.9429675 2.0414064 5.5017591 6.7133688 3.4832499 10.4129832-2.0210016 3.7041776-6.8657901 5.0549216-10.8087483 3.0135152" fill="#0069a3" fill-rule="evenodd"/><path d="M713.4848548 365.5811368c-6.6348804-3.4351052-14.7708831-1.1667532-18.1716699 5.0663204-3.4007682 6.2330736-.7788378 14.0711792 5.8560333 17.5062844 6.6348804 3.4351052 14.7709017 1.1667624 18.1716699-5.0663204 3.4007682-6.2330736.7788378-14.0711792-5.8560333-17.5062844m-4.9901289 9.1461156c1.2559092.6502192 1.7541939 2.1398188 1.1104665 3.3196636-.6437367 1.1798448-2.1899361 1.6109384-3.4458453.9607192-1.2558999-.6502284-1.7541939-2.1398188-1.1104665-3.3196636.6437367-1.179854 2.1899361-1.6109476 3.4458453-.9607192" fill="#fff"/><path d="M567.2993638 325.682586c-3.9429489-2.0414064-5.5042422-6.7087964-3.4832406-10.412974 2.0184999-3.6996052 6.8657901-5.0549308 10.808739-3.0135244 3.9429675 2.0414064 5.5017591 6.7133688 3.4832592 10.412974-2.0210016 3.7041776-6.8657994 5.0549216-10.8087576 3.0135244" fill="#0069a3" fill-rule="evenodd"/><path d="M577.1184247 307.6846076c-6.6348711-3.4351144-14.7708831-1.1667624-18.1716513 5.0663112-3.4007682 6.2330828-.7788564 14.0711792 5.856024 17.5062844 6.6348711 3.4351144 14.7708924 1.1667624 18.1716606-5.0663112 3.4007682-6.2330828.7788471-14.0711884-5.8560333-17.5062844m-4.9901196 9.1461064c1.2558999.6502284 1.7541846 2.1398188 1.1104665 3.3196636-.6437274 1.179854-2.1899454 1.6109384-3.4458453.96071-1.2559092-.6502192-1.7541846-2.1398188-1.1104572-3.3196636.6437181-1.1798448 2.1899361-1.6109292 3.445836-.96071" fill="#fff"/></svg>