<svg xmlns:osb="http://www.openswatchbook.org/uri/2009/osb" xmlns="http://www.w3.org/2000/svg" width="1000" height="1000" id="preventive-maintenance"><defs><linearGradient id="a" osb:paint="solid"><stop offset="0" stop-color="#045"/></linearGradient></defs><text style="text-indent:0;text-align:center;line-height:125%;text-transform:none;block-progression:tb;-inkscape-font-specification:Roboto Light" x="454.42911" y="451.01236" font-size="40" font-weight="300" letter-spacing="0" word-spacing="0" text-anchor="middle" color="#000" overflow="visible" font-family="Roboto" transform="translate(0 -52.36)"/><path d="M376.42774 1503.2329l-.0803 1.524-1.09767-1.1026c.17392-.1012.36478-.1904.56839-.2633.20485-.069.40984-.1268.6089-.1603" fill="#1e1e1e" fill-rule="evenodd"/><path d="M358.79529 533.16793c-22.83524 9.18813-28.1353 28.67298-23.75763 55.99475 2.25422 28.19703 51.436 48.51735 82.29762 37.60093 89.0486 0 171.59671-.0339 260.64531-.0339 0-32.39542-.79885-82.12163-40.74081-85.13015-113.05225.36972-165.39236-8.87208-278.44449-8.4311z" fill="#fff"/><path d="M358.76616 467.03559c-36.68431-.12762-23.72855 49.35107-23.72855 73.60973 0 72.77603 66.26186 4.78892 90.62448 11.92955h120.55317c0-30.27279 46.00241-60.44688-5.43359-84.70557-64.08084.16836-117.93481-1.07309-182.01551-.83371z" fill="#fff"/><path d="M534.03202 482.2398s71.67804-19.30111 100.24915 60.67799h-98.59383l-1.65532-60.67799z" fill="#fff"/><path d="M457.66985 620.22853c0 18.38435-14.26629 33.28646-31.85092 33.28646-17.58459 0-31.85092-14.90211-31.85092-33.28646 0-18.37627 14.26633-33.27034 31.85092-33.27034 17.58463 0 31.85092 14.89407 31.85092 33.27034" fill="#280b0b"/><path d="M447.33933 620.22853c0 12.4171-9.63148 22.48586-21.5188 22.48586-11.88739 0-21.51883-10.06876-21.51883-22.48586 0-12.40904 9.6315-22.46974 21.51883-22.46974 11.88732 0 21.5188 10.0607 21.5188 22.46974" fill="#707571"/><path d="M434.7906 620.22853c0 5.16308-4.01891 9.35303-8.96937 9.35303-4.95818 0-8.96936-4.18995-8.96936-9.35303 0-5.16307 4.01124-9.36103 8.96936-9.36103 4.95046 0 8.96937 4.19796 8.96937 9.36103" fill="#d3ceba"/><path d="M647.86003 620.22853c0 18.38435-14.25863 33.28646-31.8587 33.28646-17.5846 0-31.85083-14.90211-31.85083-33.28646 0-18.37627 14.26623-33.27034 31.85083-33.27034 17.60007 0 31.8587 14.89407 31.8587 33.27034" fill="#280b0b"/><path d="M637.52936 620.22853c0 12.4171-9.63921 22.48586-21.52649 22.48586-11.87966 0-21.52654-10.06876-21.52654-22.48586 0-12.40904 9.64688-22.46974 21.52654-22.46974 11.88728 0 21.52649 10.0607 21.52649 22.46974" fill="#707571"/><path d="M624.98458 620.22853c0 5.16308-4.01119 9.35303-8.97708 9.35303-4.95046 0-8.96937-4.18995-8.96937-9.35303 0-5.16307 4.01891-9.36103 8.96937-9.36103 4.96589 0 8.97708 4.19796 8.97708 9.36103" fill="#d3ceba"/><path d="M540.35135 492.29654v46.24232h78.00673s-20.38714-57.25203-78.00673-46.24232" fill="#afdde9"/><path d="M674.18199 579.36703l-339.47605-1.25586v-8.80616h336.60134zM410.91667255 519.5178276c0 20.33161937 17.13673908 36.8151273 38.27971986 36.8151273 21.1428657 0 38.27795038-16.48350793 38.27795038-36.8151273 0-20.33496864-17.1350847-36.81849126-38.27795037-36.81849126-21.14298077 0-38.27971985 16.48352262-38.27971985 36.81849125" fill="#a02c2c"/><path d="M453.8094111 539.4833211h-9.51550015v-39.9328673h9.51550015v39.9328673z" fill="#fff"/><path d="M469.95684673 524.09462117H428.4359237v-9.15391033h41.52092303v9.15391033z" fill="#fff"/><g transform="matrix(1.35 0 0 1.38 -572.51 -225.4)"><rect width="68.937035" height="78.12204" x="832.60437" y="415.49777" rx="5.1615987" fill="#008066" fill-rule="evenodd"/><rect width="57.89386" height="55.300529" x="838.13782" y="431.86346" rx="0" fill="#fff" fill-rule="evenodd"/><path d="M845.4261 424.74997l-.0249-10.30194M888.39918 424.47743l-.0249-10.30189" fill="#f4d7d7" stroke="#e4ebeb" stroke-width="1.98960412" stroke-linecap="round" stroke-linejoin="round"/><text style="text-indent:0;text-align:center;line-height:125%;text-transform:none;block-progression:tb;-inkscape-font-specification:Roboto Light" x="897.84204" y="454.41119" transform="scale(.97 1.04)" font-size="94.41671753" font-weight="300" letter-spacing="0" word-spacing="0" text-anchor="middle" color="#000" overflow="visible" font-family="Roboto"><tspan x="897.84204" y="454.41119" style="-inkscape-font-specification:Roboto Bold Italic" font-size="33.04584122" font-style="italic" font-weight="bold" fill="#a02c2c">22</tspan></text></g><g fill="#006680" fill-rule="evenodd"><path d="M283.23266484 402.1012328h107.2426244c2.00869602 0 3.6496682 1.47638234 3.6496682 3.2794456v46.2514452c0 1.8072016-1.64097218 3.28358396-3.6496682 3.28358396h-107.2426244c-2.00869602 0-3.6496817-1.47638235-3.6496817-3.28358396v-46.2514452c0-1.80306326 1.64098568-3.2794456 3.6496817-3.2794456"/><path d="M346.47829056 453.98895134l48.47543212 54.7292044-30.76024952-79.2444454-17.7151826 24.515241z"/></g><g fill="#37abc8" fill-rule="evenodd"><path d="M705.33711795 479.94261155h-78.0240163c-1.46142017 0-2.6553173 1.06053625-2.6553173 2.36170482v33.2242634c0 1.29226025 1.19389713 2.3527965 2.6553173 2.3527965h78.0240163c1.46142017 0 2.65530962-1.06053625 2.65530962-2.3527965v-33.2242634c0-1.30116857-1.19388945-2.36170482-2.65530962-2.36170482"/><path d="M659.32331432 517.22156907l-35.26814777 39.30827652 22.37952073-56.92450972 12.88862704 17.6162332z"/></g></svg>