<?xml version="1.0" encoding="utf-8"?>
<svg viewBox="325.948 658.3 228.534 225.206" width="228.534" height="225.206" xmlns="http://www.w3.org/2000/svg">
  <g transform="matrix(1, 0, 0, 1, 22.081226, -147.938995)">
    <rect style="fill:#fafbe6;fill-opacity:1;fill-rule:nonzero;stroke:#99bcdf;stroke-width:1.03636742;stroke-linecap:butt;stroke-linejoin:round;stroke-miterlimit:3.0999999;stroke-opacity:1;stroke-dasharray:none" id="rect-1" width="12.107" height="122.182" x="739.501" y="-2580.521" rx="1.467" ry="3.296" transform="matrix(-0.425054, -0.905168, 0.905168, -0.425054, 2984.41333, 508.675079)"/>
    <rect style="fill:#fafbe6;fill-opacity:1;fill-rule:nonzero;stroke:#99bcdf;stroke-width:1.03636742;stroke-linecap:butt;stroke-linejoin:round;stroke-miterlimit:3.0999999;stroke-opacity:1;stroke-dasharray:none" id="rect-2" width="12.107" height="122.182" x="2512.54" y="684.255" rx="1.467" ry="3.296" transform="matrix(-0.905168, 0.425054, -0.425054, -0.905168, 2984.41333, 508.675079)"/>
    <rect style="fill:#fafbe6;fill-opacity:1;fill-rule:nonzero;stroke:#99bcdf;stroke-width:1.03636754;stroke-linecap:butt;stroke-linejoin:round;stroke-miterlimit:3.0999999;stroke-opacity:1;stroke-dasharray:none" id="rect-3" width="12.107" height="122.182" x="2296.925" y="-1325.108" rx="1.467" ry="3.296" transform="matrix(-0.939286, -0.343135, 0.343135, -0.939286, 2984.41333, 508.675079)"/>
    <rect style="fill:#fafbe6;fill-opacity:1;fill-rule:nonzero;stroke:#99bcdf;stroke-width:1.03636754;stroke-linecap:butt;stroke-linejoin:round;stroke-miterlimit:3.0999999;stroke-opacity:1;stroke-dasharray:none" id="rect-4" width="12.107" height="122.182" x="1257.126" y="2241.679" rx="1.467" ry="3.296" transform="matrix(-0.343135, 0.939286, -0.939286, -0.343135, 2984.41333, 508.675079)"/>
    <rect style="fill:#fafbe6;fill-opacity:1;fill-rule:nonzero;stroke:#99badf;stroke-width:1.0363667;stroke-linecap:butt;stroke-linejoin:round;stroke-miterlimit:3.0999999;stroke-opacity:1;stroke-dasharray:none" id="rect-5" width="12.107" height="122.182" x="1646.588" y="-2104.28" rx="1.466" ry="3.296" transform="matrix(-0.739091, -0.673605, 0.673605, -0.739091, 2984.41333, 508.675079)"/>
    <rect style="fill:#fafbe6;fill-opacity:1;fill-rule:nonzero;stroke:#99bcdf;stroke-width:1.0363667;stroke-linecap:butt;stroke-linejoin:round;stroke-miterlimit:3.0999999;stroke-opacity:1;stroke-dasharray:none" id="rect-6" width="12.107" height="122.182" x="2037.393" y="1591.796" rx="1.466" ry="3.296" transform="matrix(-0.673605, 0.739091, -0.739091, -0.673605, 2984.41333, 508.675079)"/>
    <rect style="fill:#fafbe6;fill-opacity:1;fill-rule:nonzero;stroke:#99bcdf;stroke-width:1.03636706;stroke-linecap:butt;stroke-linejoin:round;stroke-miterlimit:3.0999999;stroke-opacity:1;stroke-dasharray:none" id="rect-7" width="12.107" height="122.182" x="2606.917" y="-347.502" rx="1.467" ry="3.296" transform="matrix(-0.999099, 0.042434, -0.042434, -0.999099, 2984.41333, 508.675079)"/>
    <rect style="fill:#fafbe6;fill-opacity:1;fill-rule:nonzero;stroke:#99bcdf;stroke-width:1.03636706;stroke-linecap:butt;stroke-linejoin:round;stroke-miterlimit:3.0999999;stroke-opacity:1;stroke-dasharray:none" id="rect-8" width="12.107" height="122.182" x="279.063" y="2550.579" rx="1.467" ry="3.296" transform="matrix(0.042434, 0.999099, -0.999099, 0.042434, 2984.41333, 508.675079)"/>
    <path style="fill:#fafbe6;fill-opacity:1;fill-rule:nonzero;stroke:#99bcdf;stroke-width:0.51967603;stroke-linecap:butt;stroke-linejoin:round;stroke-miterlimit:3.0999999;stroke-opacity:1;stroke-dasharray:none" id="path-2" d="M 438.086 905.486 C 438.086 933.396 415.46 956.022 387.55 956.022 C 359.64 956.022 337.014 933.396 337.014 905.486 C 337.014 877.576 359.64 854.95 387.55 854.95 C 415.46 854.95 438.086 877.576 438.086 905.486 Z" transform="matrix(-0.425054, -0.905168, 0.905168, -0.425054, -267.337286, 1641.164268)"/>
    <rect style="fill: rgb(250, 251, 230); fill-opacity: 1; fill-rule: nonzero; stroke: none;" id="rect-13" width="11.116" height="7.992" x="690.007" y="-2571.601" rx="1.485" ry="2.138" transform="matrix(-0.425054, -0.905168, 0.905168, -0.425054, 2963.170166, 463.436981)"/>
    <rect style="fill: rgb(250, 251, 230); fill-opacity: 1; fill-rule: nonzero; stroke: none;" id="rect-14" width="11.14" height="7.992" x="691.49" y="-2475.031" rx="1.485" ry="2.138" transform="matrix(-0.425054, -0.905168, 0.905168, -0.425054, 2963.800781, 464.779846)"/>
    <rect style="fill: rgb(250, 251, 230); fill-opacity: 1; fill-rule: nonzero; stroke: none;" id="rect-15" width="11.055" height="7.992" x="2331.51" y="789.154" rx="1.485" ry="2.138" transform="matrix(-0.905168, 0.425054, -0.425054, -0.905168, 2820.074463, 585.846313)"/>
    <rect style="fill: rgb(250, 251, 230); fill-opacity: 1; fill-rule: nonzero; stroke: none;" id="rect-16" width="11.016" height="7.992" x="2323.377" y="692.362" rx="1.485" ry="2.138" transform="matrix(-0.905168, 0.425054, -0.425054, -0.905168, 2812.688721, 589.314575)"/>
    <rect style="fill: rgb(250, 251, 230); fill-opacity: 1; fill-rule: nonzero; stroke: none;" id="rect-17" width="11.078" height="7.992" x="2140.133" y="-1210.216" rx="1.485" ry="2.138" transform="matrix(-0.940609, -0.339492, 0.339492, -0.940609, 2832.047119, 453.681885)"/>
    <rect style="fill: rgb(250, 251, 230); fill-opacity: 1; fill-rule: nonzero; stroke: none;" id="rect-18" width="11.083" height="7.992" x="2141.582" y="-1307.197" rx="1.485" ry="2.138" transform="matrix(-0.940609, -0.339492, 0.339492, -0.940609, 2833.040527, 454.040436)"/>
    <rect style="fill: rgb(250, 251, 230); fill-opacity: 1; fill-rule: nonzero; stroke: none;" id="rect-19" width="11.077" height="7.992" x="1160.615" y="2352.401" rx="1.485" ry="2.138" transform="matrix(-0.339492, 0.940609, -0.940609, -0.339492, 2954.573975, 591.349365)"/>
    <rect style="fill: rgb(250, 251, 230); fill-opacity: 1; fill-rule: nonzero; stroke: none;" id="rect-21" width="11.051" height="7.992" x="1527.266" y="-2095.032" rx="1.485" ry="2.138" transform="matrix(-0.739091, -0.673605, 0.673605, -0.739091, 2895.842529, 427.951965)"/>
    <rect style="fill: rgb(250, 251, 230); fill-opacity: 1; fill-rule: nonzero; stroke: none;" id="rect-22" width="11.064" height="7.992" x="1529.107" y="-1997.995" rx="1.485" ry="2.138" transform="matrix(-0.739091, -0.673605, 0.673605, -0.739091, 2897.196045, 429.185638)"/>
    <rect style="fill: rgb(250, 251, 230); fill-opacity: 1; fill-rule: nonzero; stroke: none;" id="rect-23" width="11.105" height="7.992" x="1898.92" y="1696.462" rx="1.485" ry="2.138" transform="matrix(-0.673605, 0.739091, -0.739091, -0.673605, 2890.79834, 611.391052)"/>
    <rect style="fill: rgb(250, 251, 230); fill-opacity: 1; fill-rule: nonzero; stroke: none;" id="rect-24" width="11.107" height="7.992" x="1899.482" y="1599.67" rx="1.485" ry="2.138" transform="matrix(-0.673605, 0.739091, -0.739091, -0.673605, 2891.16626, 610.987549)"/>
    <rect style="fill: rgb(250, 251, 230); fill-opacity: 1; fill-rule: nonzero; stroke: none;" id="rect-25" width="11.063" height="7.992" x="2421.384" y="-231.605" rx="1.485" ry="2.138" transform="matrix(-0.998927, 0.046306, -0.046306, -0.998927, 2797.670654, 517.331726)"/>
    <rect style="fill: rgb(250, 251, 230); fill-opacity: 1; fill-rule: nonzero; stroke: none;" id="rect-26" width="11.092" height="7.992" x="2428.256" y="-328.449" rx="1.485" ry="2.138" transform="matrix(-0.998927, 0.046306, -0.046306, -0.998927, 2804.163574, 517.030701)"/>
    <rect style="fill: rgb(250, 251, 230); fill-opacity: 1; fill-rule: nonzero; stroke: none;" id="rect-27" width="11.105" height="7.992" x="250.677" y="2656.708" rx="1.485" ry="2.138" transform="matrix(0.046306, 0.998927, -0.998927, 0.046306, 2985.27417, 527.240356)"/>
    <rect style="fill: rgb(250, 251, 230); fill-opacity: 1; fill-rule: nonzero; stroke: none;" id="rect-28" width="11.085" height="7.992" x="250.491" y="2559.989" rx="1.485" ry="2.138" transform="matrix(0.046306, 0.998927, -0.998927, 0.046306, 2985.300049, 527.802917)"/>
    <rect style="fill: rgb(250, 251, 230); fill-opacity: 1; fill-rule: nonzero; stroke: none;" id="rect-20" width="11.055" height="7.742" x="1890.663" y="1549.584" rx="1.485" ry="2.138" transform="matrix(-0.351387, 0.93623, -0.93623, -0.351387, 2554.527832, -307.700439)"/>
    <path style="fill:none;stroke:#99badf;stroke-width:1.08200002;stroke-linecap:butt;stroke-linejoin:miter;stroke-miterlimit:3.0999999;stroke-opacity:0.41960784;stroke-dasharray:none" id="path-3" d="M 437.238 905.345 C 437.238 932.85 414.941 955.148 387.436 955.148 C 359.931 955.148 337.634 932.85 337.634 905.345 C 337.634 877.84 359.931 855.543 387.436 855.543 C 414.941 855.543 437.238 877.84 437.238 905.345 Z" transform="matrix(0.339492, -0.940609, 0.940609, 0.339492, -595.671511, 962.413732)"/>
    <g style="opacity:0.66255146;stroke:#98b9df;stroke-opacity:1" transform="matrix(-0.2403, 0.260785, 0.260785, 0.2403, 408.234772, 759.289001)" id="g-2">
      <path style="fill:#ffffff;fill-opacity:1;stroke:#98b9df;stroke-width:2.8589468;stroke-miterlimit:4;stroke-opacity:1;stroke-dasharray:none;stroke-dashoffset:0" id="path-32" d="m 690.43924,562.18567 c 0,19.38674 -15.94219,35.1028 -35.60788,35.1028 -19.66569,0 -35.60788,-15.71606 -35.60788,-35.1028 0,-19.38674 15.94219,-35.1028 35.60788,-35.1028 19.66569,0 35.60788,15.71606 35.60788,35.1028 z" transform="matrix(3.4728951,0,0,3.5228663,-1931.3035,-1745.5697)"/>
      <path style="fill:none;stroke:#98b9df;stroke-width:6;stroke-linecap:butt;stroke-linejoin:miter;stroke-miterlimit:4;stroke-opacity:1;stroke-dasharray:none" d="m 367.19078,115.68095 c 25.1351,25.3872 33.036,62.9047 5.0508,86.3681" id="path-33"/>
      <path style="fill:none;stroke:#98b9df;stroke-width:2;stroke-linecap:butt;stroke-linejoin:miter;stroke-miterlimit:4;stroke-opacity:1;stroke-dasharray:none" d="m 359.39828,115.68095 c 25.135,25.3872 33.0359,62.9047 5.0507,86.3681" id="path-34"/>
      <path style="fill:none;stroke:#98b9df;stroke-width:6;stroke-linecap:butt;stroke-linejoin:miter;stroke-miterlimit:4;stroke-opacity:1;stroke-dasharray:none" d="m 351.86268,115.68095 c 25.1351,25.3872 33.036,62.9047 5.0508,86.3681" id="path-35"/>
      <path style="fill:none;stroke:#98b9df;stroke-width:6;stroke-linecap:butt;stroke-linejoin:miter;stroke-miterlimit:4;stroke-opacity:1;stroke-dasharray:none" d="m 318.30988,115.68095 c -25.1351,25.3872 -33.036,62.9047 -5.0508,86.3681" id="path-36"/>
      <path style="fill:none;stroke:#98b9df;stroke-width:2;stroke-linecap:butt;stroke-linejoin:miter;stroke-miterlimit:4;stroke-opacity:1;stroke-dasharray:none" d="m 326.10238,115.68095 c -25.135,25.3872 -33.0359,62.9047 -5.0507,86.3681" id="path-37"/>
      <path style="fill:none;stroke:#98b9df;stroke-width:6;stroke-linecap:butt;stroke-linejoin:miter;stroke-miterlimit:4;stroke-opacity:1;stroke-dasharray:none" d="m 333.63798,115.68095 c -25.1351,25.3872 -33.036,62.9047 -5.0508,86.3681" id="path-38"/>
      <path style="fill:none;stroke:#98b9df;stroke-width:5.99999905;stroke-linecap:butt;stroke-linejoin:miter;stroke-miterlimit:4;stroke-opacity:1;stroke-dasharray:none" d="m 435.07289,314.92875 c -34.43171,9.5253 -71.02611,-1.9133 -77.82341,-37.7951" id="path-39"/>
      <path style="fill:none;stroke:#98b9df;stroke-width:1.99999976;stroke-linecap:butt;stroke-linejoin:miter;stroke-miterlimit:4;stroke-opacity:1;stroke-dasharray:none" d="m 438.88059,308.12975 c -34.43171,9.5253 -71.02611,-1.9133 -77.82341,-37.795" id="path-40"/>
      <path style="fill:none;stroke:#98b9df;stroke-width:5.99999905;stroke-linecap:butt;stroke-linejoin:miter;stroke-miterlimit:4;stroke-opacity:1;stroke-dasharray:none" d="m 442.56269,301.55505 c -34.43181,9.5253 -71.02611,-1.9133 -77.82341,-37.795" id="path-41"/>
      <path style="fill:none;stroke:#98b9df;stroke-width:5.99999905;stroke-linecap:butt;stroke-linejoin:miter;stroke-miterlimit:4;stroke-opacity:1;stroke-dasharray:none" d="m 458.95749,272.28055 c -9.8684,-34.335 -38.74161,-59.5606 -72.88751,-46.6086" id="path-42"/>
      <path style="fill:none;stroke:#98b9df;stroke-width:1.99999976;stroke-linecap:butt;stroke-linejoin:miter;stroke-miterlimit:4;stroke-opacity:1;stroke-dasharray:none" d="m 455.14979,279.07945 c -9.8684,-34.3349 -38.74151,-59.5605 -72.88751,-46.6085" id="path-43"/>
      <path style="fill:none;stroke:#98b9df;stroke-width:5.99999905;stroke-linecap:butt;stroke-linejoin:miter;stroke-miterlimit:4;stroke-opacity:1;stroke-dasharray:none" d="m 451.46769,285.65415 c -9.8683,-34.3349 -38.74151,-59.5605 -72.88751,-46.6085" id="path-44"/>
      <path style="fill:none;stroke:#98b9df;stroke-width:5.99999905;stroke-linecap:butt;stroke-linejoin:miter;stroke-miterlimit:4;stroke-opacity:1;stroke-dasharray:none" d="m 251.84628,315.56495 c 34.4318,9.5253 71.0261,-1.9133 77.8234,-37.795" id="path-45"/>
      <path style="fill:none;stroke:#98b9df;stroke-width:1.99999976;stroke-linecap:butt;stroke-linejoin:miter;stroke-miterlimit:4;stroke-opacity:1;stroke-dasharray:none" d="m 248.03868,308.76605 c 34.4317,9.5252 71.0261,-1.9134 77.8234,-37.7951" id="path-46"/>
      <path style="fill:none;stroke:#98b9df;stroke-width:5.99999905;stroke-linecap:butt;stroke-linejoin:miter;stroke-miterlimit:4;stroke-opacity:1;stroke-dasharray:none" d="m 244.35658,302.19135 c 34.4317,9.5252 71.0261,-1.9134 77.8234,-37.7951" id="path-47"/>
      <path style="fill:none;stroke:#98b9df;stroke-width:5.99999905;stroke-linecap:butt;stroke-linejoin:miter;stroke-miterlimit:4;stroke-opacity:1;stroke-dasharray:none" d="m 227.96168,272.91675 c 9.8684,-34.335 38.7416,-59.5606 72.8875,-46.6086" id="path-48"/>
      <path style="fill:none;stroke:#98b9df;stroke-width:1.99999976;stroke-linecap:butt;stroke-linejoin:miter;stroke-miterlimit:4;stroke-opacity:1;stroke-dasharray:none" d="m 231.76938,279.71565 c 9.8684,-34.3349 38.7415,-59.5605 72.8875,-46.6085" id="path-49"/>
      <path style="fill:none;stroke:#98b9df;stroke-width:5.99999905;stroke-linecap:butt;stroke-linejoin:miter;stroke-miterlimit:4;stroke-opacity:1;stroke-dasharray:none" d="m 235.45148,286.29035 c 9.8683,-34.3349 38.7415,-59.5605 72.8875,-46.6085" id="path-50"/>
      <path style="fill:#ffffff;fill-opacity:1;stroke:#98b9df;stroke-width:4.09067059;stroke-miterlimit:4;stroke-opacity:1;stroke-dasharray:none;stroke-dashoffset:0" id="path-51" d="m 690.43924,562.18567 c 0,19.38674 -15.94219,35.1028 -35.60788,35.1028 -19.66569,0 -35.60788,-15.71606 -35.60788,-35.1028 0,-19.38674 15.94219,-35.1028 35.60788,-35.1028 19.66569,0 35.60788,15.71606 35.60788,35.1028 z" transform="matrix(1.2135914,0,0,1.231058,-449.97512,-457.17732)"/>
      <path style="fill:#ffffff;fill-opacity:1;stroke:#98b9df;stroke-width:6.28215551;stroke-miterlimit:4;stroke-opacity:1;stroke-dasharray:none;stroke-dashoffset:0" id="path-52" d="m 690.43924,562.18567 c 0,19.38674 -15.94219,35.1028 -35.60788,35.1028 -19.66569,0 -35.60788,-15.71606 -35.60788,-35.1028 0,-19.38674 15.94219,-35.1028 35.60788,-35.1028 19.66569,0 35.60788,15.71606 35.60788,35.1028 z" transform="matrix(0.790239,0,0,0.801612,-172.65632,-215.75154)"/>
      <path style="fill:none;stroke:#98b9df;stroke-width:7.61539745;stroke-linecap:butt;stroke-linejoin:miter;stroke-miterlimit:4;stroke-opacity:1;stroke-dasharray:none" d="m 376.26868,206.79235 c 21.3597,-13.7958 52.5831,-31.6784 70.15231,-41.8325" id="path-53"/>
      <path style="fill:none;stroke:#98b9df;stroke-width:7.61539745;stroke-linecap:butt;stroke-linejoin:miter;stroke-miterlimit:4;stroke-opacity:1;stroke-dasharray:none" d="m 383.49218,219.48455 c 21.3597,-13.7958 52.58311,-31.6784 70.15231,-41.8325" id="path-54"/>
      <path style="fill:none;stroke:#98b9df;stroke-width:7.61539745;stroke-linecap:butt;stroke-linejoin:miter;stroke-miterlimit:4;stroke-opacity:1;stroke-dasharray:none" d="m 310.36068,208.24045 c -21.3597,-13.7958 -52.5831,-31.6784 -70.1523,-41.8325" id="path-55"/>
      <path style="fill:none;stroke:#98b9df;stroke-width:7.61539745;stroke-linecap:butt;stroke-linejoin:miter;stroke-miterlimit:4;stroke-opacity:1;stroke-dasharray:none" d="m 303.13718,220.93265 c -21.3597,-13.7958 -52.5831,-31.6784 -70.1523,-41.8326" id="path-56"/>
      <path style="fill:none;stroke:#98b9df;stroke-width:7.61539745;stroke-linecap:butt;stroke-linejoin:miter;stroke-miterlimit:4;stroke-opacity:1;stroke-dasharray:none" d="m 336.59078,360.08889 c -0.9566,-25.4096 -0.3909,-61.38684 -0.1516,-81.67794" id="path-57"/>
      <path style="fill:none;stroke:#98b9df;stroke-width:7.61539745;stroke-linecap:butt;stroke-linejoin:miter;stroke-miterlimit:4;stroke-opacity:1;stroke-dasharray:none" d="m 351.19208,360.35819 c -0.9566,-25.4096 -0.3909,-61.38694 -0.1515,-81.67794" id="path-58"/>
    </g>
  </g>
  <g transform="matrix(0.972356, -0.233516, 0.233516, 0.972356, -222.313354, -11.80513)">
    <rect style="fill:#fafbe6;fill-opacity:1;fill-rule:nonzero;stroke:#99bcdf;stroke-width:0.81757647;stroke-linecap:butt;stroke-linejoin:round;stroke-miterlimit:3.0999999;stroke-opacity:1;stroke-dasharray:none" id="rect-9" width="12.516" height="73.555" x="1129.723" y="2250.148" rx="1.516" ry="1.984" transform="matrix(-0.285136, 0.958487, -0.958487, -0.285136, 3026.787598, 512.848694)"/>
    <rect style="fill:#fafbe6;fill-opacity:1;fill-rule:nonzero;stroke:#99bcdf;stroke-width:0.81757647;stroke-linecap:butt;stroke-linejoin:round;stroke-miterlimit:3.0999999;stroke-opacity:1;stroke-dasharray:none" id="rect-10" width="12.516" height="73.555" x="2280.387" y="-1173.201" rx="1.516" ry="1.984" transform="matrix(-0.958487, -0.285136, 0.285136, -0.958487, 3026.787598, 512.848694)"/>
    <rect style="fill:#fafbe6;fill-opacity:1;fill-rule:nonzero;stroke:#99bcdf;stroke-width:0.81757635;stroke-linecap:butt;stroke-linejoin:round;stroke-miterlimit:3.0999999;stroke-opacity:1;stroke-dasharray:none" id="rect-11" width="12.516" height="73.555" x="2413.945" y="777.055" rx="1.516" ry="1.984" transform="matrix(-0.879374, 0.476131, -0.476131, -0.879374, 3026.787598, 512.848694)"/>
    <rect style="fill:#fafbe6;fill-opacity:1;fill-rule:nonzero;stroke:#99bcdf;stroke-width:0.81757635;stroke-linecap:butt;stroke-linejoin:round;stroke-miterlimit:3.0999999;stroke-opacity:1;stroke-dasharray:none" id="rect-12" width="12.516" height="73.555" x="807.783" y="-2456.54" rx="1.516" ry="1.984" transform="matrix(-0.476131, -0.879374, 0.879374, -0.476131, 3026.510742, 514.076599)"/>
    <path style="fill:#fafbe6;fill-opacity:1;fill-rule:nonzero;stroke:#99bcdf;stroke-width:1;stroke-linecap:butt;stroke-linejoin:round;stroke-miterlimit:3.0999999;stroke-opacity:1;stroke-dasharray:none" id="path-1" d="M 535.692 949.424 C 535.692 963.379 524.379 974.692 510.424 974.692 C 496.469 974.692 485.156 963.379 485.156 949.424 C 485.156 935.468 496.469 924.155 510.424 924.155 C 524.379 924.155 535.692 935.468 535.692 949.424 Z" transform="matrix(-0.47613, -0.879375, 0.879375, -0.47613, -81.446977, 1850.326642)"/>
    <rect style="fill: rgb(250, 251, 230); fill-opacity: 1; fill-rule: nonzero; stroke: none;" id="rect-29" width="11.694" height="5.756" x="-1316.098" y="-2245.536" rx="0.421" ry="1.54" transform="matrix(0.329895, -0.944018, 0.944018, 0.329895, 3036.753662, 445.589569)"/>
    <rect style="fill: rgb(250, 251, 230); fill-opacity: 1; fill-rule: nonzero; stroke: none;" id="rect-30" width="11.686" height="5.756" x="-1204.091" y="-2254.593" rx="0.421" ry="1.54" transform="matrix(0.294842, -0.955546, 0.955546, 0.294842, 3038.399658, 475.215363)"/>
    <rect style="fill: rgb(250, 251, 230); fill-opacity: 1; fill-rule: nonzero; stroke: none;" id="rect-31" width="11.721" height="5.756" x="-2334.711" y="1189.869" rx="0.421" ry="1.54" transform="matrix(0.947706, 0.319145, -0.319145, 0.947706, 3105.702148, 539.423584)"/>
    <rect style="fill: rgb(250, 251, 230); fill-opacity: 1; fill-rule: nonzero; stroke: none;" id="rect-32" width="11.695" height="5.756" x="-2432.843" y="1033.859" rx="0.421" ry="1.54" transform="matrix(0.957846, 0.287284, -0.287284, 0.957846, 3126.654541, 677.469727)"/>
    <rect style="fill: rgb(250, 251, 230); fill-opacity: 1; fill-rule: nonzero; stroke: none;" id="rect-33" width="11.711" height="5.756" x="-2526.119" y="-807.023" rx="0.421" ry="1.54" transform="matrix(0.886118, -0.463459, 0.463459, 0.886118, 3105.000732, 471.941559)"/>
    <rect style="fill: rgb(250, 251, 230); fill-opacity: 1; fill-rule: nonzero; stroke: none;" id="rect-34" width="11.684" height="5.756" x="-2519.249" y="-758.024" rx="0.421" ry="1.54" transform="matrix(0.886118, -0.463459, 0.463459, 0.886118, 3099.556641, 474.788849)"/>
    <rect style="fill: rgb(250, 251, 230); fill-opacity: 1; fill-rule: nonzero; stroke: none;" id="rect-35" width="11.656" height="5.756" x="-1006.834" y="2334.94" rx="0.421" ry="1.54" transform="matrix(0.515629, 0.856812, -0.856812, 0.515629, 3051.141357, 591.33783)"/>
    <rect style="fill: rgb(250, 251, 230); fill-opacity: 1; fill-rule: nonzero; stroke: none;" id="rect-36" width="11.716" height="5.756" x="-1015.34" y="2382.357" rx="0.421" ry="1.54" transform="matrix(0.5332120060920715, 0.8459820151329042, -0.8459820151329042, 0.5332120060920715, 3049.751926172279, 542.7251759677313)"/>
    <path style="fill:none;stroke:#9bbcdd;stroke-width:1.08200002;stroke-linecap:butt;stroke-linejoin:miter;stroke-miterlimit:3.0999999;stroke-opacity:0.41960784;stroke-dasharray:none" id="path-4" d="M 534.604 949.405 C 534.604 962.728 523.804 973.529 510.48 973.529 C 497.157 973.529 486.356 962.728 486.356 949.405 C 486.356 936.081 497.157 925.28 510.48 925.28 C 523.804 925.28 534.604 936.081 534.604 949.405 Z" transform="matrix(0.339492, -0.940609, 0.940609, 0.339492, -555.842251, 1107.251326)"/>
    <g style="opacity:0.66255146;stroke:#98b9df;stroke-opacity:1" transform="matrix(-0.102996, 0.111777, 0.111777, 0.102996, 519.217041, 886.598328)" id="g-1">
      <path style="fill:#ffffff;fill-opacity:1;stroke:#98b9df;stroke-width:2.8589468;stroke-miterlimit:4;stroke-opacity:1;stroke-dasharray:none;stroke-dashoffset:0" id="path-5" d="m 690.43924,562.18567 c 0,19.38674 -15.94219,35.1028 -35.60788,35.1028 -19.66569,0 -35.60788,-15.71606 -35.60788,-35.1028 0,-19.38674 15.94219,-35.1028 35.60788,-35.1028 19.66569,0 35.60788,15.71606 35.60788,35.1028 z" transform="matrix(3.4728951,0,0,3.5228663,-1931.3035,-1745.5697)"/>
      <path style="fill:none;stroke:#98b9df;stroke-width:6;stroke-linecap:butt;stroke-linejoin:miter;stroke-miterlimit:4;stroke-opacity:1;stroke-dasharray:none" d="m 367.19078,115.68095 c 25.1351,25.3872 33.036,62.9047 5.0508,86.3681" id="path-6"/>
      <path style="fill:none;stroke:#98b9df;stroke-width:2;stroke-linecap:butt;stroke-linejoin:miter;stroke-miterlimit:4;stroke-opacity:1;stroke-dasharray:none" d="m 359.39828,115.68095 c 25.135,25.3872 33.0359,62.9047 5.0507,86.3681" id="path-7"/>
      <path style="fill:none;stroke:#98b9df;stroke-width:6;stroke-linecap:butt;stroke-linejoin:miter;stroke-miterlimit:4;stroke-opacity:1;stroke-dasharray:none" d="m 351.86268,115.68095 c 25.1351,25.3872 33.036,62.9047 5.0508,86.3681" id="path-8"/>
      <path style="fill:none;stroke:#98b9df;stroke-width:6;stroke-linecap:butt;stroke-linejoin:miter;stroke-miterlimit:4;stroke-opacity:1;stroke-dasharray:none" d="m 318.30988,115.68095 c -25.1351,25.3872 -33.036,62.9047 -5.0508,86.3681" id="path-9"/>
      <path style="fill:none;stroke:#98b9df;stroke-width:2;stroke-linecap:butt;stroke-linejoin:miter;stroke-miterlimit:4;stroke-opacity:1;stroke-dasharray:none" d="m 326.10238,115.68095 c -25.135,25.3872 -33.0359,62.9047 -5.0507,86.3681" id="path-10"/>
      <path style="fill:none;stroke:#98b9df;stroke-width:6;stroke-linecap:butt;stroke-linejoin:miter;stroke-miterlimit:4;stroke-opacity:1;stroke-dasharray:none" d="m 333.63798,115.68095 c -25.1351,25.3872 -33.036,62.9047 -5.0508,86.3681" id="path-11"/>
      <path style="fill:none;stroke:#98b9df;stroke-width:5.99999905;stroke-linecap:butt;stroke-linejoin:miter;stroke-miterlimit:4;stroke-opacity:1;stroke-dasharray:none" d="m 435.07289,314.92875 c -34.43171,9.5253 -71.02611,-1.9133 -77.82341,-37.7951" id="path-12"/>
      <path style="fill:none;stroke:#98b9df;stroke-width:1.99999976;stroke-linecap:butt;stroke-linejoin:miter;stroke-miterlimit:4;stroke-opacity:1;stroke-dasharray:none" d="m 438.88059,308.12975 c -34.43171,9.5253 -71.02611,-1.9133 -77.82341,-37.795" id="path-13"/>
      <path style="fill:none;stroke:#98b9df;stroke-width:5.99999905;stroke-linecap:butt;stroke-linejoin:miter;stroke-miterlimit:4;stroke-opacity:1;stroke-dasharray:none" d="m 442.56269,301.55505 c -34.43181,9.5253 -71.02611,-1.9133 -77.82341,-37.795" id="path-14"/>
      <path style="fill:none;stroke:#98b9df;stroke-width:5.99999905;stroke-linecap:butt;stroke-linejoin:miter;stroke-miterlimit:4;stroke-opacity:1;stroke-dasharray:none" d="m 458.95749,272.28055 c -9.8684,-34.335 -38.74161,-59.5606 -72.88751,-46.6086" id="path-15"/>
      <path style="fill:none;stroke:#98b9df;stroke-width:1.99999976;stroke-linecap:butt;stroke-linejoin:miter;stroke-miterlimit:4;stroke-opacity:1;stroke-dasharray:none" d="m 455.14979,279.07945 c -9.8684,-34.3349 -38.74151,-59.5605 -72.88751,-46.6085" id="path-16"/>
      <path style="fill:none;stroke:#98b9df;stroke-width:5.99999905;stroke-linecap:butt;stroke-linejoin:miter;stroke-miterlimit:4;stroke-opacity:1;stroke-dasharray:none" d="m 451.46769,285.65415 c -9.8683,-34.3349 -38.74151,-59.5605 -72.88751,-46.6085" id="path-17"/>
      <path style="fill:none;stroke:#98b9df;stroke-width:5.99999905;stroke-linecap:butt;stroke-linejoin:miter;stroke-miterlimit:4;stroke-opacity:1;stroke-dasharray:none" d="m 251.84628,315.56495 c 34.4318,9.5253 71.0261,-1.9133 77.8234,-37.795" id="path-18"/>
      <path style="fill:none;stroke:#98b9df;stroke-width:1.99999976;stroke-linecap:butt;stroke-linejoin:miter;stroke-miterlimit:4;stroke-opacity:1;stroke-dasharray:none" d="m 248.03868,308.76605 c 34.4317,9.5252 71.0261,-1.9134 77.8234,-37.7951" id="path-19"/>
      <path style="fill:none;stroke:#98b9df;stroke-width:5.99999905;stroke-linecap:butt;stroke-linejoin:miter;stroke-miterlimit:4;stroke-opacity:1;stroke-dasharray:none" d="m 244.35658,302.19135 c 34.4317,9.5252 71.0261,-1.9134 77.8234,-37.7951" id="path-20"/>
      <path style="fill:none;stroke:#98b9df;stroke-width:5.99999905;stroke-linecap:butt;stroke-linejoin:miter;stroke-miterlimit:4;stroke-opacity:1;stroke-dasharray:none" d="m 227.96168,272.91675 c 9.8684,-34.335 38.7416,-59.5606 72.8875,-46.6086" id="path-21"/>
      <path style="fill:none;stroke:#98b9df;stroke-width:1.99999976;stroke-linecap:butt;stroke-linejoin:miter;stroke-miterlimit:4;stroke-opacity:1;stroke-dasharray:none" d="m 231.76938,279.71565 c 9.8684,-34.3349 38.7415,-59.5605 72.8875,-46.6085" id="path-22"/>
      <path style="fill:none;stroke:#98b9df;stroke-width:5.99999905;stroke-linecap:butt;stroke-linejoin:miter;stroke-miterlimit:4;stroke-opacity:1;stroke-dasharray:none" d="m 235.45148,286.29035 c 9.8683,-34.3349 38.7415,-59.5605 72.8875,-46.6085" id="path-23"/>
      <path style="fill:#ffffff;fill-opacity:1;stroke:#98b9df;stroke-width:4.09067059;stroke-miterlimit:4;stroke-opacity:1;stroke-dasharray:none;stroke-dashoffset:0" id="path-24" d="m 690.43924,562.18567 c 0,19.38674 -15.94219,35.1028 -35.60788,35.1028 -19.66569,0 -35.60788,-15.71606 -35.60788,-35.1028 0,-19.38674 15.94219,-35.1028 35.60788,-35.1028 19.66569,0 35.60788,15.71606 35.60788,35.1028 z" transform="matrix(1.2135914,0,0,1.231058,-449.97512,-457.17732)"/>
      <path style="fill:#ffffff;fill-opacity:1;stroke:#98b9df;stroke-width:6.28215551;stroke-miterlimit:4;stroke-opacity:1;stroke-dasharray:none;stroke-dashoffset:0" id="path-25" d="m 690.43924,562.18567 c 0,19.38674 -15.94219,35.1028 -35.60788,35.1028 -19.66569,0 -35.60788,-15.71606 -35.60788,-35.1028 0,-19.38674 15.94219,-35.1028 35.60788,-35.1028 19.66569,0 35.60788,15.71606 35.60788,35.1028 z" transform="matrix(0.790239,0,0,0.801612,-172.65632,-215.75154)"/>
      <path style="fill:none;stroke:#98b9df;stroke-width:7.61539745;stroke-linecap:butt;stroke-linejoin:miter;stroke-miterlimit:4;stroke-opacity:1;stroke-dasharray:none" d="m 376.26868,206.79235 c 21.3597,-13.7958 52.5831,-31.6784 70.15231,-41.8325" id="path-26"/>
      <path style="fill:none;stroke:#98b9df;stroke-width:7.61539745;stroke-linecap:butt;stroke-linejoin:miter;stroke-miterlimit:4;stroke-opacity:1;stroke-dasharray:none" d="m 383.49218,219.48455 c 21.3597,-13.7958 52.58311,-31.6784 70.15231,-41.8325" id="path-27"/>
      <path style="fill:none;stroke:#98b9df;stroke-width:7.61539745;stroke-linecap:butt;stroke-linejoin:miter;stroke-miterlimit:4;stroke-opacity:1;stroke-dasharray:none" d="m 310.36068,208.24045 c -21.3597,-13.7958 -52.5831,-31.6784 -70.1523,-41.8325" id="path-28"/>
      <path style="fill:none;stroke:#98b9df;stroke-width:7.61539745;stroke-linecap:butt;stroke-linejoin:miter;stroke-miterlimit:4;stroke-opacity:1;stroke-dasharray:none" d="m 303.13718,220.93265 c -21.3597,-13.7958 -52.5831,-31.6784 -70.1523,-41.8326" id="path-29"/>
      <path style="fill:none;stroke:#98b9df;stroke-width:7.61539745;stroke-linecap:butt;stroke-linejoin:miter;stroke-miterlimit:4;stroke-opacity:1;stroke-dasharray:none" d="m 336.59078,360.08889 c -0.9566,-25.4096 -0.3909,-61.38684 -0.1516,-81.67794" id="path-30"/>
      <path style="fill:none;stroke:#98b9df;stroke-width:7.61539745;stroke-linecap:butt;stroke-linejoin:miter;stroke-miterlimit:4;stroke-opacity:1;stroke-dasharray:none" d="m 351.19208,360.35819 c -0.9566,-25.4096 -0.3909,-61.38694 -0.1515,-81.67794" id="path-31"/>
    </g>
  </g>
</svg>