<?xml version="1.0" encoding="UTF-8" standalone="no"?>
<!-- Created with Inkscape (http://www.inkscape.org/) -->

<svg
   xmlns:dc="http://purl.org/dc/elements/1.1/"
   xmlns:cc="http://creativecommons.org/ns#"
   xmlns:rdf="http://www.w3.org/1999/02/22-rdf-syntax-ns#"
   xmlns:svg="http://www.w3.org/2000/svg"
   xmlns="http://www.w3.org/2000/svg"
   xmlns:sodipodi="http://sodipodi.sourceforge.net/DTD/sodipodi-0.dtd"
   xmlns:inkscape="http://www.inkscape.org/namespaces/inkscape"
   id="svg2"
   version="1.1"
   inkscape:version="0.48.4 r9939"
   width="50"
   height="50"
   xml:space="preserve"
   sodipodi:docname="05.ai"><metadata
     id="metadata8"><rdf:RDF><cc:Work
         rdf:about=""><dc:format>image/svg+xml</dc:format><dc:type
           rdf:resource="http://purl.org/dc/dcmitype/StillImage" /><dc:title></dc:title></cc:Work></rdf:RDF></metadata><defs
     id="defs6"><clipPath
       clipPathUnits="userSpaceOnUse"
       id="clipPath18"><path
         d="m 0,0 799.56,0 0,800 L 0,800 0,0 z"
         id="path20"
         inkscape:connector-curvature="0" /></clipPath><clipPath
       clipPathUnits="userSpaceOnUse"
       id="clipPath206"><path
         d="M 0,800 800,800 800,0 0,0 0,800 z"
         id="path208"
         inkscape:connector-curvature="0" /></clipPath><clipPath
       clipPathUnits="userSpaceOnUse"
       id="clipPath338"><path
         d="M 0,800 800,800 800,0 0,0 0,800 z"
         id="path340"
         inkscape:connector-curvature="0" /></clipPath></defs><sodipodi:namedview
     pagecolor="#ffffff"
     bordercolor="#666666"
     borderopacity="1"
     objecttolerance="10"
     gridtolerance="10"
     guidetolerance="10"
     inkscape:pageopacity="0"
     inkscape:pageshadow="2"
     inkscape:window-width="1615"
     inkscape:window-height="1026"
     id="namedview4"
     showgrid="false"
     inkscape:zoom="1.888"
     inkscape:cx="48.199152"
     inkscape:cy="43.077185"
     inkscape:window-x="65"
     inkscape:window-y="24"
     inkscape:window-maximized="1"
     inkscape:current-layer="g10" /><g
     id="g10"
     inkscape:groupmode="layer"
     inkscape:label="05"
     transform="matrix(1.25,0,0,-1.25,0,50)"><g
       id="g390"
       transform="matrix(0.28828311,0,0,0.41860447,33.735365,18.313301)"><path
         d="M 0,0 C 0.076,0.263 0.053,0.558 -0.137,0.85 -2.432,4.376 -4.74,7.894 -7.047,11.412 -4.021,8.269 -0.99,5.13 2.027,1.979 2.786,1.187 4.403,1.996 3.963,3.122 3.235,4.983 2.432,6.775 1.561,8.529 3.065,7.199 4.572,5.87 6.075,4.538 6.933,3.778 8.34,4.496 8.031,5.693 7.968,5.938 7.895,6.162 7.827,6.398 7.875,6.354 7.924,6.31 7.972,6.266 9.066,5.271 10.686,6.895 9.593,7.91 8.249,9.157 6.905,10.404 5.561,11.651 4.59,12.553 3.052,11.416 3.719,10.209 3.911,9.909 4.08,9.6 4.248,9.291 c -2.106,1.858 -4.214,3.714 -6.317,5.577 -0.945,0.838 -2.59,-0.242 -1.831,-1.433 1.033,-1.621 1.975,-3.258 2.851,-4.928 -3.519,3.629 -7.037,7.259 -10.55,10.894 C -2.649,15.406 6.343,11.504 15.404,7.754 10.208,5.29 5.078,2.694 0,0 m -43.119,26.486 c 9.618,-11.168 19.219,-22.35 28.867,-33.49 0.835,-0.964 2.275,0.267 1.702,1.332 -3.752,6.976 -7.918,13.661 -12.486,20.049 5.749,-6.149 11.344,-12.445 16.789,-18.88 -3.354,-1.884 -6.683,-3.814 -9.983,-5.794 -8.848,11.888 -17.525,23.905 -24.889,36.783 m 19.182,-40.268 c -6.572,8.43 -12.738,17.15 -18.557,26.119 7.394,-7.967 14.787,-15.935 22.189,-23.894 -1.213,-0.738 -2.427,-1.475 -3.632,-2.225 m -13.969,-3.522 c 0.829,-0.607 1.672,-1.201 2.533,-1.782 0.696,-0.468 1.648,0.312 1.477,1.057 0.23,-0.217 0.449,-0.443 0.679,-0.66 0.567,-0.532 1.405,0.31 0.85,0.862 -2.396,2.387 -4.709,4.848 -6.966,7.355 -4.797,6.432 -9.776,12.722 -14.9,18.889 -1.647,2.393 -3.236,4.83 -4.772,7.304 5.129,-4.069 8.959,-10.093 12.929,-15.13 4.981,-6.322 9.963,-12.642 14.951,-18.958 -1.41,-0.919 -2.823,-1.835 -4.223,-2.771 -0.818,1.313 -1.674,2.586 -2.558,3.834 m -0.51,-5.88 c -0.807,1.386 -1.614,2.772 -2.421,4.158 1.282,-1.069 2.566,-2.137 3.848,-3.206 -0.474,-0.32 -0.955,-0.63 -1.427,-0.952 m -3.294,-2.292 -0.29,1.908 c 0.626,-0.267 1.253,-0.534 1.88,-0.798 -0.532,-0.367 -1.06,-0.741 -1.59,-1.11 m -2.15,3.043 c 0.457,-1.048 0.457,-2.072 10e-4,-3.07 -0.913,0.424 -1.718,-0.934 -0.797,-1.382 0.217,-0.106 0.39,-0.191 0.547,-0.265 -0.614,-0.434 -1.237,-0.854 -1.849,-1.291 0.327,5.536 0.654,11.071 0.982,16.607 0.036,0.615 -0.549,1.159 -1.134,1.151 -0.566,-0.009 -1.132,-0.015 -1.697,-0.023 0.323,0.298 0.499,0.783 0.252,1.231 -3.685,6.696 -7.388,13.381 -11.088,20.068 1.405,-1.667 2.79,-3.35 4.171,-5.036 3.043,-4.226 6.267,-8.305 9.685,-12.222 1.791,-2.333 3.57,-4.677 5.328,-7.039 -1.34,1.053 -2.65,2.146 -3.925,3.297 -0.879,0.793 -2.092,-0.426 -1.293,-1.311 1.659,-1.839 3.204,-3.745 4.663,-5.72 -1.144,0.947 -2.29,1.893 -3.433,2.841 -0.719,0.596 -1.888,-0.148 -1.355,-1.06 1.263,-2.161 2.526,-4.323 3.789,-6.484 -0.605,0.251 -1.208,0.507 -1.814,0.755 -0.656,0.272 -1.127,-0.489 -1.033,-1.047 m -43.29,11.23 c -3.589,6.1 -7.341,12.094 -11.242,17.988 4.799,-5.543 9.594,-11.09 14.396,-16.631 0.736,-0.848 1.935,0.388 1.218,1.236 -6.023,7.121 -11.058,14.904 -15.119,23.262 5.9,-8.084 12.145,-15.875 18.899,-23.271 0.676,-0.741 1.824,0.206 1.353,1.059 -3.486,6.317 -6.996,12.619 -10.508,18.921 5.568,-7.017 11.265,-13.926 17.113,-20.709 0.647,-0.75 1.874,0.223 1.357,1.063 -3.105,5.051 -6.23,10.091 -9.353,15.13 4.551,-5.632 8.944,-11.391 13.135,-17.319 0.656,-0.927 2.165,-0.083 1.537,0.911 -4.48,7.079 -8.59,14.363 -12.325,21.856 5.904,-7.427 11.982,-14.701 18.293,-21.788 0.747,-0.84 1.94,0.228 1.478,1.157 -3.351,6.736 -6.714,13.465 -10.089,20.188 5.993,-7.492 11.953,-15.011 17.931,-22.516 0.02,-0.025 0.045,-0.033 0.066,-0.055 -12.709,-0.17 -25.427,-0.264 -38.14,-0.482 m -4.533,-0.088 c -4.876,6.475 -9.762,12.943 -14.647,19.412 6.379,-5.744 11.754,-12.464 16.946,-19.365 -0.767,-0.014 -1.533,-0.031 -2.299,-0.047 m -6.952,-0.154 c -4.181,5.417 -7.808,11.124 -10.983,17.15 5.293,-5.661 10.559,-11.35 15.824,-17.038 -1.614,-0.034 -3.228,-0.072 -4.841,-0.112 m -5.034,-0.133 c -2.221,3.089 -4.319,6.251 -6.306,9.487 3.075,-3.134 6.151,-6.267 9.218,-9.41 -0.971,-0.026 -1.941,-0.048 -2.912,-0.077 m 9.253,30.735 c 3.84,-6.937 7.672,-13.878 11.518,-20.812 -5.772,6.621 -11.223,13.504 -16.257,20.727 1.579,0.026 3.159,0.049 4.739,0.085 m 12.662,0.384 c -0.102,-0.242 -0.131,-0.516 -0.014,-0.774 2.354,-5.204 4.888,-10.294 7.605,-15.281 -3.63,4.622 -7.367,9.157 -11.226,13.596 -0.625,0.719 -1.807,-0.214 -1.307,-1.023 3.214,-5.196 6.408,-10.405 9.604,-15.612 -5.151,6.155 -10.182,12.41 -15.091,18.77 3.476,0.09 6.952,0.199 10.429,0.324 m 9.472,0.364 c -0.288,-0.285 -0.445,-0.738 -0.24,-1.152 3.542,-7.176 7.114,-14.335 10.695,-21.49 -6.326,7.258 -12.453,14.688 -18.323,22.334 2.623,0.098 5.246,0.201 7.868,0.308 m 42.863,-37.153 c -6.413,8.497 -12.561,17.198 -18.397,26.112 7.346,-7.937 14.692,-15.875 22.05,-23.801 -1.219,-0.768 -2.441,-1.53 -3.653,-2.311 m -19.856,38.052 c -0.227,-0.272 -0.32,-0.652 -0.098,-1.026 4.375,-7.367 9.056,-14.521 13.991,-21.493 -6.042,6.479 -12.081,12.961 -18.127,19.437 -0.71,0.761 -1.997,-0.227 -1.44,-1.127 1.57,-2.535 3.177,-5.042 4.791,-7.544 -3.262,4.196 -6.757,8.23 -11.448,10.716 -0.723,0.383 -1.583,-0.265 -1.434,-1.016 -0.141,0.161 -0.28,0.325 -0.422,0.487 -0.755,0.862 -2.071,-0.241 -1.54,-1.205 3.427,-6.218 6.872,-12.424 10.313,-18.633 -5.486,6.809 -10.971,13.619 -16.399,20.475 -0.027,0.034 -0.058,0.046 -0.087,0.074 7.307,0.3 14.609,0.609 21.9,0.855 m 1.382,0.051 c 0.165,0.005 0.331,0.013 0.497,0.018 0.843,0.027 1.337,0.771 1.183,1.576 -0.539,2.827 -1.047,5.66 -1.548,8.495 5.726,-11.031 12.566,-21.346 19.802,-31.392 -6.646,7.101 -13.29,14.201 -19.934,21.303 m 20.439,5.776 c -0.076,-0.243 -0.063,-0.516 0.108,-0.788 3.879,-6.175 7.783,-12.335 11.691,-18.492 -7.711,8.581 -15.707,16.887 -23.973,24.936 -0.986,0.959 -2.424,-0.507 -1.497,-1.518 7.884,-8.589 14.902,-17.849 21.029,-27.74 -9.148,10.515 -18.318,21.011 -27.465,31.527 -0.267,0.307 -0.593,0.357 -0.881,0.259 -0.117,0.666 -0.235,1.333 -0.352,1.999 7.076,-3.482 14.197,-6.857 21.34,-10.183 m 3.98,-1.841 c 2.623,-1.209 5.242,-2.429 7.875,-3.617 -0.111,-0.28 -0.115,-0.601 0.094,-0.92 2.373,-3.629 4.738,-7.263 7.101,-10.898 -5.031,5.137 -10.058,10.279 -15.07,15.435 M -6.221,-3.372 c -4.587,7.186 -9.172,14.374 -13.768,21.555 6.022,-6.244 12.032,-12.5 18.065,-18.732 0.125,-0.13 0.265,-0.208 0.411,-0.259 -1.575,-0.844 -3.144,-1.698 -4.708,-2.564 m 24.955,12.4 c -23.143,9.572 -46.007,19.883 -68.501,30.934 -0.973,0.478 -1.935,-0.304 -1.748,-1.362 0.9,-5.091 1.822,-10.178 2.672,-15.277 -17.367,-0.518 -34.821,-0.653 -52.19,-1.524 -0.046,0.067 -0.093,0.133 -0.139,0.201 -0.409,0.608 -1.456,0.377 -1.512,-0.28 -2.848,-0.151 -5.694,-0.319 -8.536,-0.517 -1.385,-0.096 -1.417,-2.201 0,-2.21 3.183,-0.02 6.368,0.001 9.553,0.039 2.036,-4.9 4.38,-9.609 7.069,-14.106 -3.96,4.534 -7.918,9.071 -11.862,13.62 -0.594,0.685 -1.799,-0.232 -1.262,-0.988 4.474,-6.297 8.749,-12.723 12.866,-19.254 -4.699,5.655 -9.769,10.948 -15.732,15.374 -0.612,0.454 -1.538,-0.462 -1.068,-1.084 3.52,-4.646 7.041,-9.29 10.561,-13.937 -3.665,3.922 -7.323,7.851 -10.957,11.802 -0.596,0.649 -1.477,-0.173 -1.142,-0.894 2.257,-4.868 4.836,-9.515 7.721,-13.974 -2.684,2.766 -5.373,5.528 -8.051,8.301 -0.657,0.68 -1.746,-0.188 -1.288,-1.008 1.675,-3.004 3.447,-5.935 5.306,-8.809 -1.213,1.218 -2.416,2.447 -3.637,3.658 -0.507,0.502 -1.557,0.002 -1.272,-0.751 1.399,-3.696 3.489,-6.34 6.763,-8.492 0.458,-0.302 0.879,0.074 0.93,0.501 0.211,-0.214 0.42,-0.43 0.631,-0.643 -2.312,-0.073 -4.623,-0.148 -6.933,-0.237 -0.988,-0.038 -0.996,-1.549 0,-1.562 2.925,-0.04 5.851,-0.052 8.777,-0.058 0.296,-0.24 0.684,-0.2 0.971,-0.007 5.178,-0.006 10.356,0.032 15.533,0.084 0.069,-0.092 0.138,-0.184 0.207,-0.275 0.481,-0.646 1.401,-0.33 1.495,0.292 4.851,0.051 9.701,0.109 14.55,0.161 l 19.612,0.209 c 5.109,0.054 4.467,-1.394 4.176,-5.913 -0.254,-3.959 -0.509,-7.917 -0.764,-11.875 -0.056,-0.869 1.063,-1.551 1.781,-1.036 5.625,4.029 11.346,7.894 17.146,11.625 0.585,-0.282 1.373,0.268 1.423,0.9 1.397,0.891 2.793,1.784 4.2,2.658 0.467,-0.108 0.912,0.216 1.074,0.68 1.417,0.874 2.852,1.717 4.279,2.575 0.297,-0.319 0.592,-0.638 0.889,-0.957 0.761,-0.818 2.27,0.296 1.573,1.231 -0.208,0.278 -0.413,0.556 -0.621,0.834 11.612,6.9 23.531,13.263 35.749,19.087 1.063,0.507 0.569,1.908 -0.292,2.264"
         style="fill:#1d71b8;fill-opacity:1;fill-rule:nonzero;stroke:none"
         id="path392"
         inkscape:connector-curvature="0" /></g></g></svg>