<svg xmlns="http://www.w3.org/2000/svg" width="1000" height="1000" id="assidents"><g><g transform="matrix(1.5 -.08 .1 1.7 340.6 -38.06)" fill="#5fbcd3" fill-rule="evenodd"><rect ry="11.636039" y="201.36218" x="109" height="68" width="113.05888"/><path d="M129.99821 288.94859c13.72733-12.02081 9.85845-9.17157 18.98959-17.65685 10.25305-9.79558 6.9896-5.88866 19.01041-16.34315h-38v34z"/></g><path fill="#ffb380" fill-rule="evenodd" d="M554.4970742 335.5754847l92.5897438-31.94570728 20.82921973 49.85322595-92.5897438 31.94570728z"/><path d="M613.04346148 361.0195504c20.8624123-6.0633191 29.9108743-8.00445373 51.4356771-4.785366 6.17811397 12.27277095 3.1762847 24.57511785 4.70265722 39.2044435-17.7172333 6.870007-33.07522267 9.94779788-53.80414568 5.55537772-2.97976-15.3208512-6.53269973-28.06903286-2.33418864-39.97445522z" fill="#fea" fill-rule="evenodd"/><path d="M640.0966386 375.89810766c-15.0333689 1.14651168-27.62199474-2.12415338-28.1214919-7.29659824-.5014187-5.1923054 11.27661068-10.31553963 26.30998304-11.46205163 15.0558901-1.14823386 27.6503912 2.11624125 28.1518132 7.3085619.49950232 5.17244437-11.2844125 10.30185395-26.34030433 11.45008796zm27.52113564.77776513c.50004364 5.17813063-11.2822211 10.32454994-26.3381095 11.47278363-15.0333791 1.14649708-27.62363293-2.14114868-28.12368515-7.3192785l-.56330222-5.83321672c-.01917002-.19846986.0858227-.38646206.0940409-.56991258 1.33298673 4.84321946 13.439513 7.8535299 27.91955322 6.749232 14.5025597-1.1060199 25.86456116-5.90615802 26.24626172-10.88017523.04326797.17953104.18275335.34888225.2019387.54736624l.5633006 5.8332013zm1.1107368 11.50190504c.49922547 5.16962514-11.283041 10.3160446-26.33893615 11.46426338-15.03337236 1.146512-27.6236295-2.141149-28.12286012-7.31077365l-.56576906-5.85868543c-.0175298-.1815214.08773587-.36663183.09429737-.56712254 1.3346383 4.86026014 13.441443 7.8734052 27.92147143 6.7690773 14.5025597-1.1060199 25.86428615-5.90899296 26.244357-10.8999907.04490432.19654206.1841252.36302624.2016415.54451782l.56577068 5.85870082zM592.24563877 361.321935l17.65021108-5.5939248 1.79712797 4.44788026c-.4290663.25545408-.81082812.5303398-1.1859217.80746568l-16.2962347 5.15073174-1.96518437-4.81215272zm-20.68007487 11.9725398l-1.94192505-4.83961068 17.64943168-5.5681696 1.9673673 4.83483395-17.67490823 5.57294953zm60.9517307-24.70506314l1.9247985 4.7295497c-6.6722061.77735395-13.07182297 2.2967028-18.11130013 4.4435731l-1.46561577-3.5990289 17.65211912-5.57409406zm9.12475042-37.6324942l3.72732798 9.19985838-27.56661265 8.71836076-3.72897462-9.21686844 27.568261-8.70135087zm13.49697095 30.496746l1.95874216 4.81264324-17.6469909 5.5936874-1.96093044-4.8352929 17.6491723-5.5710371zm11.87446515 15.57448393c.96611812-1.3049138 1.3417357-2.91898684.7092446-4.50190607l-18.81634-46.41689362c-1.09564114-2.68740382-4.45197404-4.08545204-7.47586447-3.114949l-88.81182455 28.03530548c-3.02712595.97072633-4.6433303 3.93351565-3.54767887 6.6209185l18.78655512 46.4105856c1.09717698 2.67015987 4.45033095 4.06842612 7.50884908 3.121006l31.3826627-9.909228 1.53463614 15.89165642c.85988983 8.90435043 18.02893523 12.28844133 34.5453804 11.02882454 16.54539818-1.26181298 32.84353422-7.19828197 31.98365114-16.10261748l-2.32771274-24.10408c-.28069372-2.90668553-2.33385474-5.20682536-5.47156197-6.95862205" fill="#536c67"/><g transform="matrix(-1.76 0 -.02 1.97 591.89 -67.52)" fill="#2ca089" fill-rule="evenodd"><rect width="113.05888" height="68" x="109" y="201.36218" ry="11.636039"/><path d="M129.99821 288.94859c13.72733-12.02081 9.85845-9.17157 18.98959-17.65685 10.25305-9.79558 6.9896-5.88866 19.01041-16.34315h-38v34z"/></g><path fill="#fff" fill-rule="evenodd" d="M231.52768715 353.48714317h132.1532496v79.7426415h-132.1532496z"/><path d="M273.6448994 390.49682024c-3.1717645 3.01749543-7.55231505 4.8875507-12.39005687 4.8875507-9.67375187 0-17.51743977-7.47279693-17.51743977-16.6898514 0-9.21705446 7.8436879-16.69191364 17.51743977-16.69191364v16.69191365l12.39005687 11.8023007z" fill="#14a49b"/><path d="M278.77622557 378.6944366H261.2548893v-16.69191363c9.6750507 0 17.52133627 7.47485918 17.52133627 16.69191364" fill="#d38d5f"/><path d="M278.77622557 378.6944354c0 4.60955837-1.96341142 8.7802683-5.1312794 11.8023007l-12.39005688-11.8023007z" fill="#27aae1"/><path d="M356.2048145 424.02031232H239.4885879v-68.02180224h116.7162266zm7.05964496-80.72694923c-49.5294778-.21998337-95.63776495-.47335233-130.83562664 0-4.3106004 0-7.82842812 3.30409204-7.82842812 7.28883184v80.34032146c0 4.01669 3.51782773 7.292057 7.82842812 7.292057 73.49067907.37622577 98.5358123-.0359728 130.83562664 0 4.28650078 0 7.82833635-3.275367 7.82833635-7.292057v-80.34032146c0-3.9847398-3.507439-7.28883185-7.82833634-7.28883185" fill="#784421"/><path d="M257.82244682 416.14065838c3.35296656 0 6.071157-2.53080107 6.071157-5.65279637 0-.5719851-.1891994-1.0736549-.35350994-1.57853216 7.73918797-5.83492856 21.44327805-16.0699852 27.67927787-20.56599937.98848795.65507694 2.14163518 1.10562286 3.41829064 1.10562286 1.08800668 0 2.04554875-.32910674 2.90359043-.77648068 4.0359786 3.18265287 10.841614 8.5670178 15.69450157 12.40797274-.05910187.32593475-.22284342.6231267-.22284342.95225117 0 3.12195986 2.74891607 5.65277865 6.10555355 5.65277865 3.3529482 0 6.07113864-2.5308188 6.07113864-5.65277865 0-.53363775-.18938295-1.04491213-.35350994-1.5466174l15.6912528-13.178074c.83399713.41223402 1.76063002.70939054 2.74909962.70939054 3.35643557 0 6.07809504-2.53080106 6.07809504-5.65277864 0-3.12514956-2.72165948-5.65276093-6.07809505-5.65276093-3.3222042 0-6.036944 2.52761137-6.036944 5.65276093 0 .7445659.16482448 1.46031813.44955967 2.10901566-4.3758327 3.66518445-11.16092928 9.34672362-15.34117517 12.89050432-.95756042-.5656057-2.0453652-.98421912-3.22942162-.98421912-1.441535 0-2.6837939.53365548-3.74087305 1.31013616-3.9916155-3.18265287-10.4781375-8.30181148-15.08720232-11.9350457.26436156-.62629872.41863213-1.24940772.41863213-1.9300732 0-3.12833925-2.7147398-5.65914033-6.03696236-5.65914033-3.35641722 0-6.071157 2.53080108-6.071157 5.65914034 0 .68066546.15472944 1.33570696.40846368 1.93007317l-27.833732 20.14738595c-.9575604-.5943485-2.076513-1.04491214-3.3531868-1.04491214-3.3529482 0-6.071157 2.53080108-6.071157 5.63037983 0 3.1219953 2.7182088 5.65279638 6.071157 5.65279638" fill="#214478"/><g><path d="M470.95801594 691.26949007c-1.53538393 4.93562797-6.66872416 7.72305303-11.45844177 6.22852153L173.552248 608.25266723c-4.79585437-1.49445247-7.43241115-6.7105319-5.8939646-11.64618462 1.54155223-4.94195285 6.67182985-7.72935317 11.4646056-6.23172358l285.94729226 89.24534465c4.78972444 1.49765425 7.42321845 6.71377808 5.88783468 11.6493864" fill="#5184b3"/><path d="M419.55422033 614.00479452l-39.7836436-78.70451948s-71.19491895-22.21866746-99.90886987-31.17962104c-39.47631102-12.32371018-82.77813618 8.65836674-104.6913271 78.93544352 62.8075777 19.6001699 231.50581038 72.24811208 231.50581038 72.24811208l12.8780302-41.29941508z" fill="#2ac9de"/><path d="M386.02086847 595.26839086l-25.70006688-50.81534332-89.5743954-27.95792068s-29.03735284-8.77612837-56.90758547 37.68075757C289.0440449 577.6471174 392.5933511 609.9629382 392.5933511 609.9629382l-6.57248263-14.69454734z" fill="#f4f4f6"/><path d="M300.9149965 587.1255856l-14.65349153-4.57233 18.83333313-60.41834664 14.65956684 4.57543318-18.83940843 60.41524345z" fill="#2ac9de"/><path d="M469.5533055 681.02378156l3.8490947-12.32812782c6.36508676-20.4291934-4.53666445-42.01017952-24.36198145-48.19332754L224.7116386 550.48660082c-19.81911472-6.189483-41.06084428 5.35860772-47.4258381 25.77838285l-3.84604802 12.33124566 296.11355303 92.42755223z" fill="#2ac9de"/><path d="M451.98121652 621.59420356l-10.61461906 34.05184442 32.77005875 10.22890057c4.33175338-18.51197233-5.08917327-37.3149934-22.15543968-44.280745" fill="#ffdc2e"/><path d="M444.03652865 682.86239554c5.40983962-17.36449917-3.86187398-35.70373274-20.70694622-40.95899418-16.85421235-5.2646051-34.90878257 4.55487756-40.32166886 21.9162589-5.41290898 17.36139135 3.8649365 35.70371782 20.7130555 40.96208727 16.8480916 5.26153176 34.8995449-4.5516605 40.31555958-21.919352" fill="#546670"/><path d="M433.2695561 679.5037712c3.50244852-11.23199336-2.4999608-23.10037594-13.40289397-26.50914332-10.89685138-3.40250216-22.58318043 2.950396-26.0887187 14.18554695-3.49941307 11.23510146 2.50296885 23.10664635 13.40289405 26.5091335 10.90605042 3.40243767 22.5862702-2.95355358 26.08871862-14.18553713" fill="#244065"/><path d="M254.4001444 623.67522257c5.4159602-17.36140617-3.855776-35.70063956-20.70691897-40.96213684-16.8481191-5.25835963-34.90267337 4.55798047-40.31555503 21.91621933-5.41600346 17.36770123 3.8587955 35.70689023 20.7068871 40.968422 16.85117032 5.2583448 34.90266208-4.5579804 40.3155869-21.9225045" fill="#546670"/><path d="M243.63652864 620.31653184c3.50244843-11.23198354-2.49687568-23.10039106-13.40292138-26.50598102-10.90294927-3.40560516-22.5831418 2.94724342-26.0917427 14.1824191-3.4963232 11.23193407 2.50299628 23.10348406 13.4059727 26.50595638 10.90294927 3.40560516 22.58624287-2.9504011 26.08869138-14.18239446" fill="#244065"/><path d="M326.9726129 588.83282472l-24.22984855-7.56452102-3.65366732 11.70760586 24.2298644 7.56138828 3.65365147-11.70447312z" fill="#5184b3"/></g><g><path d="M774.88682 595.356086c1.85163456 5.63061787-1.3486348 11.7921882-7.1446632 13.7649758-5.79861248 1.97366714-11.99912393-.9881701-13.8507585-6.61878797-1.85163455-5.63061787 1.34863482-11.7921882 7.14724728-13.76585534 5.7960284-1.9727876 11.99653986.98904963 13.84817442 6.6196675" fill="#fff"/><path d="M521.61304 542.515506c2.30381626 7.0056529-1.67575565 14.67683275-8.8930126 17.1333623-7.21725696 2.45652956-14.935688-1.23301432-17.23950426-8.23866722-2.30381626-7.0056529 1.67751455-14.68022147 8.8947715-17.13675102 7.21725696-2.45652955 14.9339291 1.23640304 17.23774536 8.24205594" fill="#a02c2c"/><path d="M832.78042 575.651736l-253.54975 86.30045-59.58813-181.20101 253.54974-86.30045 59.58814 181.20101z" fill="#fff"/><path d="M728.55398 495.978486c9.94469683 30.24073378-7.24071737 63.35441446-38.38887898 73.95627884-31.14557755 10.60098485-64.45253747-5.3266638-74.3972343-35.56739758-9.94552198-30.24324296 7.23472412-63.35516458 38.38030167-73.95614943 31.1481616-10.6018644 64.46028962 5.3240252 74.4058116 35.56726817" fill="#c83737"/><path d="M689.1469 542.412406l-14.0159 4.7706-19.53211-59.39501 14.01591-4.77059 19.5321 59.39499z" fill="#fffeff"/><path d="M639.33536 518.777156l61.16969-20.82024 4.47645 13.61233-61.16968 20.82025-4.47644-13.61233z" fill="#fffeff"/><path d="M487.83671 693.057316l92.29974982-31.415961-41.1229552-125.05040236-60.04819805 20.43853696s-9.8585561 52.17850902-8.51211675 70.29632968C471.70391556 644.15652748 487.83671 693.057316 487.83671 693.057316" fill="#fff"/><path d="M479.24401 622.374536l68.20863395-23.21609526-15.80243022-48.0534594-45.59559578 15.51932115L479.24401 622.374536z" fill="#2ad4ff"/><path d="M825.92552 554.805256l-344.76667 116.7633-2.23462-7.66393 344.33729-117.19887z" fill="#c83737"/><path d="M562.51019 670.265216c5.00205378 15.21069766-3.64284492 31.8578435-19.30219944 37.18780022-15.66193856 5.33083624-32.41310193-2.67228082-37.4151557-17.88297847-5.00122865-15.20818847 3.6428449-31.8578435 19.30478348-37.18867975 15.6593545-5.3299567 32.41134303 2.67566953 37.41257166 17.883858M794.07212 590.794996c5.00205378 15.21069766-3.64284492 31.8578435-19.30219944 37.18780022-15.66193856 5.33083624-32.41051788-2.67316035-37.41257166-17.883858-5.00122864-15.20818847 3.64026087-31.85696398 19.30219944-37.18780022 15.6593545-5.3299567 32.41134303 2.67566953 37.41257166 17.883858" fill="#005975"/><path d="M554.46315 673.379976c3.78904404 10.82725736-2.2315365 22.51647306-13.4407583 26.11390502-11.21421923 3.5990358-23.37426685-2.2553794-27.1633109-13.08263677-3.78904403-10.82725736 2.2315365-22.51647306 13.44575574-26.11550887 11.2092218-3.59743196 23.36926942 2.25698326 27.15831346 13.08424062M786.16382 594.084786c3.78904404 10.82725736-2.2315365 22.51647306-13.4407583 26.11390502-11.21421923 3.5990358-23.37426685-2.2553794-27.1633109-13.08263677-3.78904403-10.82725736 2.2315365-22.51647306 13.44575574-26.11550887 11.2092218-3.59743196 23.36926942 2.25698326 27.15831346 13.08424062" fill="#ccc"/></g><path d="M441.96272 351.774427c-27.9521-.20347-48.50985 32.56463-37.40387 57.91119 4.78227 12.33843 15.74831 22.35922 28.81012 25.08881-8.9201 6.56485 6.10813 29.7679-11.42074 20.41512-24.74292-4.11171-48.93347 18.28131-47.46566 43.19401.34289 21.36164 19.6621 42.57209 41.83685 39.9565 2.2159 7.0859-10.38337 16.96853-4.86951 26.7701 3.28285 13.21292 17.74596 21.13939 30.67846 20.9147.11645 12.01868 18.30733 19.16147 9.19188 32.11255.0173 14.72732 22.33471 19.45071 28.11327 5.732 8.19282-12.3998-17.4535-25.87307-5.78116-34.08849 11.28446 4.24304 24.76691-.1108 31.30865-10.4886 8.96653-12.06268 6.70836-32.47349-7.52752-39.45275-11.7362-3.50695-6.16467-18.33106-2.4362-26.32836 11.2025-1.63758 15.54071-19.4165 28.55376-14.44072 24.16332-2.16209 37.91766-34.01711 23.49229-53.37362-6.69545-9.96506-19.24669-15.9266-31.20562-13.98494 12.30253-13.28537-1.17004-32.27561-9.10309-38.96255 6.63917-14.87986-14.05928-29.66223-25.56663-17.21746-8.24317-8.647-18.29591-23.70084-34.04725-23.54765l-2.57115-.19364-2.58688-.0162zm32.21875 67.84375c6.70925 7.92444-14.2894 11.24997-2.55873 2.99396.92451-.93589 1.71614-1.98649 2.55873-2.99396zm-27.1875 50.46875c8.08824-2.08272 4.72864 11.72837 0 0zm8.6875 31.90625c2.45254.88701-2.59977 2.64765 0 0zm-10.125 22.5625c3.56839 7.90017-.27934 9.58715-7.26905 6.76924 1.52125-2.91453 6.14468-3.4241 7.26905-6.76924zm14.875 20.875c2.78528-.71899-.60001 2.93689 0 0zm2.8125 88.28125c-19.70256 5.08961 11.09069 25.18813 6.25037 3.86236-1.15641-2.29978-3.62317-3.99357-6.25037-3.86236z" fill="#f9f9f9" stroke="#c87137" stroke-width="6.9000001"/></g></svg>