<svg xmlns="http://www.w3.org/2000/svg" width="1000" height="1000"><g transform="matrix(1.5 -.08 .1 1.7 340.6 -38.06)" fill="#5fbcd3" fill-rule="evenodd"><rect ry="11.636" y="201.362" x="109" height="68" width="113.059"/><path d="M129.998 288.95c13.728-12.022 9.86-9.173 18.99-17.658 10.253-9.796 6.99-5.89 19.01-16.343h-38v34z"/></g><path fill="#ffb380" fill-rule="evenodd" d="M554.497 335.576l92.59-31.945 20.83 49.86-92.59 31.95z"/><path d="M613.043 361.02c20.863-6.064 29.91-8.005 51.436-4.786 6.17 12.273 3.17 24.575 4.7 39.205-17.72 6.87-33.08 9.94-53.81 5.55-2.98-15.32-6.534-28.07-2.336-39.98z" fill="#fea" fill-rule="evenodd"/><path d="M640.097 375.898c-15.034 1.147-27.622-2.124-28.122-7.296-.5-5.193 11.277-10.316 26.31-11.463 15.056-1.15 27.65 2.11 28.152 7.3.5 5.17-11.284 10.3-26.34 11.45zm27.52.778c.5 5.178-11.28 10.324-26.337 11.473-15.034 1.14-27.624-2.15-28.124-7.32l-.563-5.84c-.02-.2.086-.39.094-.57 1.333 4.84 13.44 7.85 27.92 6.75 14.502-1.11 25.864-5.91 26.246-10.88.043.18.182.35.2.544l.565 5.833zm1.112 11.502c.49 5.17-11.29 10.316-26.34 11.464-15.04 1.147-27.63-2.14-28.13-7.31l-.568-5.86c-.018-.18.09-.366.094-.567 1.335 4.86 13.442 7.874 27.922 6.77 14.5-1.106 25.863-5.91 26.243-10.9.048.196.187.363.205.544l.567 5.85zm-76.49-26.856l17.65-5.594 1.794 4.448c-.43.255-.81.53-1.186.807l-16.296 5.15-1.966-4.81zm-20.68 11.972l-1.94-4.84 17.65-5.567 1.962 4.835-17.675 5.572zm60.95-24.705l1.923 4.73c-6.67.77-13.07 2.29-18.11 4.44l-1.467-3.6 17.652-5.58zm9.123-37.64l3.727 9.2-27.566 8.72-3.73-9.22 27.57-8.7zm13.497 30.495l1.96 4.812-17.647 5.593-1.96-4.835 17.65-5.57zm11.874 15.574c.97-1.305 1.344-2.92.71-4.5L648.9 306.1c-1.094-2.688-4.45-4.086-7.474-3.116l-88.81 28.036c-3.03.97-4.646 3.933-3.55 6.62l18.787 46.41c1.097 2.67 4.45 4.07 7.508 3.122l31.387-9.91 1.534 15.89c.86 8.904 18.03 12.29 34.544 11.03 16.544-1.26 32.843-7.2 31.983-16.1l-2.328-24.106c-.28-2.91-2.336-5.21-5.474-6.96" fill="#536c67"/><g transform="matrix(-1.76 0 -.02 1.97 591.89 -67.52)" fill="#2ca089" fill-rule="evenodd"><rect width="113.059" height="68" x="109" y="201.362" ry="11.636"/><path d="M129.998 288.95c13.728-12.022 9.86-9.173 18.99-17.658 10.253-9.796 6.99-5.89 19.01-16.343h-38v34z"/></g><path fill="#fff" fill-rule="evenodd" d="M231.528 353.487H363.68v79.742H231.53z"/><path d="M273.645 390.497c-3.172 3.017-7.552 4.887-12.39 4.887-9.674 0-17.518-7.472-17.518-16.69 0-9.217 7.844-16.69 17.518-16.69v16.69l12.39 11.803z" fill="#14a49b"/><path d="M278.776 378.694h-17.52v-16.69c9.674 0 17.52 7.473 17.52 16.69" fill="#d38d5f"/><path d="M278.776 378.694c0 4.61-1.963 8.78-5.13 11.803l-12.39-11.803z" fill="#27aae1"/><path d="M356.205 424.02H239.49V356h116.715zm7.06-80.727c-49.53-.22-95.638-.473-130.836 0-4.32 0-7.83 3.304-7.83 7.29v80.34c0 4.016 3.51 7.292 7.83 7.292 73.49.376 98.53-.036 130.83 0 4.282 0 7.83-3.276 7.83-7.292v-80.34c0-3.986-3.51-7.29-7.83-7.29" fill="#784421"/><path d="M257.822 416.14c3.353 0 6.072-2.53 6.072-5.652 0-.572-.19-1.074-.354-1.58 7.74-5.834 21.443-16.07 27.68-20.565.988.655 2.14 1.106 3.418 1.106 1.088 0 2.045-.33 2.903-.78 4.04 3.18 10.85 8.56 15.7 12.41-.06.32-.22.62-.22.95 0 3.12 2.75 5.65 6.107 5.65 3.353 0 6.07-2.53 6.07-5.65 0-.54-.19-1.05-.352-1.55l15.69-13.18c.836.412 1.763.71 2.75.71 3.358 0 6.08-2.53 6.08-5.653 0-3.126-2.722-5.653-6.08-5.653-3.32 0-6.035 2.527-6.035 5.653 0 .746.165 1.46.45 2.11-4.376 3.666-11.16 9.347-15.34 12.89-.96-.564-2.046-.983-3.23-.983-1.44 0-2.684.53-3.74 1.31-3.993-3.186-10.48-8.305-15.09-11.938.266-.628.42-1.25.42-1.93 0-3.13-2.715-5.66-6.037-5.66-3.356 0-6.07 2.53-6.07 5.66 0 .68.154 1.334.407 1.93l-27.84 20.15c-.96-.594-2.078-1.045-3.355-1.045-3.353 0-6.07 2.53-6.07 5.63 0 3.124 2.717 5.655 6.07 5.655" fill="#214478"/><path d="M470.958 691.27c-1.535 4.935-6.67 7.723-11.458 6.228l-285.948-89.245c-4.796-1.495-7.432-6.71-5.894-11.647 1.542-4.94 6.672-7.73 11.465-6.23L465.07 679.62c4.79 1.498 7.423 6.714 5.888 11.65" fill="#5184b3"/><path d="M419.554 614.005L379.77 535.3l-99.908-31.18c-39.477-12.323-82.778 8.66-104.692 78.936l231.506 72.248 12.878-41.3z" fill="#2ac9de"/><path d="M386.02 595.268l-25.7-50.815-89.574-27.958s-29.037-8.776-56.907 37.68c75.2 23.472 178.75 55.788 178.75 55.788l-6.57-14.695z" fill="#f4f4f6"/><path d="M300.915 587.126l-14.653-4.573 18.833-60.418 14.66 4.575-18.84 60.416z" fill="#2ac9de"/><path d="M469.553 681.024l3.85-12.328c6.364-20.43-4.537-42.01-24.363-48.194l-224.328-70.015c-19.82-6.19-41.06 5.358-47.426 25.778l-3.846 12.33 296.113 92.43z" fill="#2ac9de"/><path d="M451.98 621.594l-10.613 34.052 32.77 10.23c4.33-18.513-5.09-37.316-22.156-44.282" fill="#ffdc2e"/><path d="M444.037 682.862c5.41-17.364-3.862-35.703-20.707-40.96-16.855-5.263-34.91 4.556-40.322 21.918-5.413 17.36 3.865 35.703 20.713 40.962 16.85 5.26 34.9-4.552 40.32-21.92" fill="#546670"/><path d="M433.27 679.504c3.502-11.232-2.5-23.1-13.403-26.51-10.897-3.402-22.584 2.95-26.09 14.186-3.498 11.235 2.504 23.107 13.404 26.51 10.91 3.402 22.59-2.954 26.09-14.186" fill="#244065"/><path d="M254.4 623.675c5.416-17.36-3.856-35.7-20.707-40.962-16.848-5.258-34.902 4.558-40.315 21.916-5.416 17.36 3.858 35.7 20.707 40.96 16.85 5.26 34.902-4.56 40.315-21.924" fill="#546670"/><path d="M243.637 620.317c3.502-11.232-2.497-23.1-13.403-26.506-10.903-3.4-22.584 2.95-26.092 14.19-3.496 11.23 2.503 23.105 13.406 26.508 10.903 3.406 22.586-2.95 26.09-14.182" fill="#244065"/><path d="M326.973 588.833l-24.23-7.565-3.654 11.708 24.23 7.56 3.65-11.703z" fill="#5184b3"/><path d="M774.887 595.356c1.85 5.63-1.35 11.792-7.145 13.765-5.798 1.98-12-.98-13.85-6.61-1.852-5.63 1.348-11.79 7.147-13.765 5.79-1.972 11.99.99 13.84 6.62" fill="#fff"/><path d="M521.613 542.516c2.304 7.005-1.676 14.676-8.893 17.133-7.217 2.45-14.936-1.24-17.24-8.24-2.303-7.01 1.678-14.68 8.895-17.14 7.218-2.46 14.934 1.23 17.238 8.24" fill="#a02c2c"/><path d="M832.78 575.652l-253.55 86.3-59.587-181.2 253.55-86.3 59.587 181.2z" fill="#fff"/><path d="M728.554 495.978c9.945 30.24-7.24 63.355-38.39 73.957-31.144 10.6-64.45-5.327-74.396-35.568-9.946-30.243 7.235-63.355 38.38-73.956 31.148-10.6 64.46 5.33 74.406 35.57" fill="#c83737"/><path d="M689.147 542.412l-14.016 4.77-19.53-59.394 14.02-4.77 19.53 59.394z" fill="#fffeff"/><path d="M639.335 518.777l61.17-20.82 4.476 13.612-61.16 20.82-4.476-13.62z" fill="#fffeff"/><path d="M487.837 693.057l92.3-31.416-41.123-125.05-60.05 20.44s-9.857 52.18-8.51 70.3c1.25 16.83 17.383 65.73 17.383 65.73" fill="#fff"/><path d="M479.244 622.375l68.21-23.217-15.804-48.053-45.595 15.52-6.81 55.75z" fill="#2ad4ff"/><path d="M825.926 554.805L481.16 671.57l-2.236-7.665 344.338-117.2z" fill="#c83737"/><path d="M562.51 670.265c5.002 15.21-3.643 31.858-19.302 37.188-15.662 5.33-32.413-2.672-37.415-17.883-5-15.208 3.643-31.858 19.305-37.19 15.66-5.33 32.41 2.677 37.412 17.885m231.562-79.47c5.002 15.21-3.643 31.858-19.302 37.188-15.662 5.33-32.41-2.673-37.413-17.884-5-15.21 3.64-31.86 19.303-37.19 15.66-5.33 32.41 2.67 37.412 17.88" fill="#005975"/><path d="M554.463 673.38c3.79 10.827-2.23 22.516-13.44 26.114-11.215 3.6-23.375-2.255-27.164-13.083-3.79-10.82 2.23-22.51 13.44-26.11 11.21-3.6 23.37 2.26 27.16 13.09m231.7-79.296c3.79 10.827-2.236 22.516-13.44 26.114-11.22 3.598-23.38-2.257-27.168-13.084-3.79-10.83 2.23-22.518 13.444-26.117 11.21-3.596 23.37 2.26 27.157 13.086" fill="#ccc"/><path d="M441.963 351.774c-27.952-.203-48.51 32.565-37.404 57.912 4.78 12.338 15.74 22.36 28.81 25.088-8.92 6.565 6.1 29.768-11.43 20.416-24.744-4.112-48.934 18.28-47.466 43.194.342 21.36 19.662 42.572 41.836 39.956 2.216 7.086-10.383 16.97-4.87 26.77 3.284 13.213 17.747 21.14 30.68 20.915.117 12.02 18.31 19.16 9.192 32.112.018 14.728 22.335 19.45 28.114 5.732 8.194-12.4-17.452-25.88-5.78-34.09 11.285 4.24 24.767-.11 31.31-10.49 8.966-12.06 6.707-32.48-7.53-39.45-11.735-3.51-6.163-18.33-2.435-26.33 11.205-1.64 15.54-19.42 28.556-14.44 24.16-2.17 37.92-34.02 23.49-53.38-6.695-9.967-19.246-15.93-31.205-13.987 12.305-13.285-1.17-32.276-9.1-38.963 6.64-14.88-14.06-29.662-25.57-17.217-8.24-8.648-18.294-23.7-34.045-23.55l-2.57-.192-2.588-.016zm32.218 67.844c6.71 7.925-14.28 11.25-2.55 2.994.926-.936 1.718-1.986 2.56-2.994zM447 470.088c8.088-2.084 4.73 11.727 0 0zm8.687 31.905c2.454.887-2.598 2.648 0 0zm-10.124 22.563c3.57 7.9-.28 9.587-7.27 6.77 1.523-2.916 6.146-3.425 7.27-6.77zm14.875 20.875c2.787-.71-.6 2.94 0 0zm2.814 88.29c-19.704 5.09 11.09 25.19 6.25 3.86-1.157-2.3-3.624-3.99-6.25-3.86z" fill="#f9f9f9" stroke="#c87137" stroke-width="6.9"/></svg>