<svg xmlns="http://www.w3.org/2000/svg" width="1000" height="1000"><defs><clipPath id="a"><path d="M614.122 517.006h43.394v-96.81h-43.394v96.81z"/></clipPath></defs><path d="M601.054 663.522l-.03-43.952 127.742-.087.03 43.952-127.742.087z" fill="#c83737"/><path d="M657.93 651.796l-.014-20.574 58.882-.04.015 20.573-58.883.04z" fill="#fff"/><path d="M626.995 652.75c-6.614.005-11.98-5.015-11.986-11.213-.01-6.196 5.35-11.225 11.96-11.23 6.612-.004 11.98 5.018 11.983 11.214.005 6.2-5.355 11.23-11.967 11.23" fill="#a7babc"/><path d="M626.992 649.946c-4.96.003-8.985-3.762-8.988-8.412-.004-4.647 4.015-8.418 8.976-8.422 4.96-.003 8.983 3.762 8.986 8.41.004 4.65-4.014 8.42-8.974 8.424" fill="#4d4d4d"/><path d="M601.086 707.942l-.03-43.95 127.742-.088.03 43.95-127.742.088z" fill="#2690a8"/><path d="M657.962 696.214l-.014-20.575 58.882-.04.015 20.57-58.883.04z" fill="#fff"/><path d="M627.027 697.17c-6.614.005-11.98-5.016-11.986-11.213 0-6.198 5.36-11.226 11.97-11.23 6.62-.005 11.98 5.016 11.99 11.213.008 6.198-5.352 11.226-11.964 11.23" fill="#a7babc"/><path d="M627.024 694.365c-4.96.003-8.985-3.763-8.988-8.41-.004-4.648 4.015-8.42 8.976-8.424 4.96 0 8.983 3.77 8.986 8.42.004 4.65-4.014 8.42-8.974 8.424" fill="#4d4d4d"/><path d="M793.87 574.632H507.615V292.058H793.87v282.574z" fill="#fea"/><path d="M793.87 365.364H507.615v-73.306H793.87v73.306z" fill="#f95"/><path d="M-276.05 745.05H36.365" fill="none" stroke="#5390c6" stroke-width="1.777" stroke-miterlimit="10" transform="matrix(.92 0 0 .86 760.61 -232)"/><path d="M523.832 390.93c0-1.034-.188-1.88-.554-2.493-.38-.606-1.038-1.223-1.976-1.815-1.927-.98-3.373-2.085-4.332-3.345-.972-1.24-1.446-2.987-1.446-5.236 0-2.22.558-4.03 1.68-5.43 1.118-1.4 2.547-2.09 4.286-2.09 1.767 0 3.203.78 4.304 2.34 1.105 1.556 1.638 3.524 1.607 5.895l-.02.107h-3.52c0-1.24-.21-2.25-.63-3.013-.42-.767-1.016-1.165-1.79-1.165-.725 0-1.283.324-1.69.97-.41.65-.61 1.43-.61 2.41 0 .89.225 1.63.678 2.206.458.57 1.23 1.22 2.35 1.92 1.75.87 3.07 1.98 3.96 3.305.89 1.34 1.334 3.13 1.334 5.42 0 2.34-.54 4.178-1.604 5.504-1.072 1.34-2.494 1.997-4.27 1.997-1.765 0-3.292-.753-4.584-2.263-1.295-1.506-1.93-3.668-1.88-6.497l.024-.1h3.53c0 1.67.24 2.88.73 3.61.48.73 1.21 1.097 2.186 1.097.767 0 1.335-.297 1.7-.893.366-.603.55-1.4.55-2.434m35.36-19.197l3.32 19.92h.077l3.356-19.92h4.722v27.13h-3.6v-7.884l.304-10.55-.08-.01-3.54 18.443h-2.403l-3.503-18.3-.07.02.31 10.396v7.88H554.5v-27.13h4.696zm54.384 3.4h-4.174v22.89H605.8v-22.9h-4.154v-4.23h11.945v4.237zm42.964 13.073h.076l2.01-17.313h3.51l-3.585 27.133h-3.37l-2.605-16.63h-.08l-2.582 16.63h-3.363l-3.57-27.135h3.513l2 17.314h.074l2.672-17.313h2.6l2.703 17.313zm41.775-12.235h-4.18v22.892h-3.61v-22.9h-4.147v-4.24h11.936v4.238zm39.516 11.615h-6.29v11.28h-3.63v-27.13h11.025v4.235h-7.393v7.39h6.29v4.227zm44.81 4.184c0-1.038-.19-1.884-.56-2.496-.383-.607-1.04-1.224-1.98-1.816-1.93-.98-3.37-2.085-4.33-3.345-.963-1.24-1.447-2.99-1.447-5.24 0-2.23.557-4.034 1.68-5.436 1.118-1.402 2.55-2.096 4.29-2.096 1.763 0 3.2.78 4.303 2.34 1.1 1.555 1.634 3.523 1.6 5.894l-.025.11h-3.514c0-1.24-.21-2.25-.634-3.012-.426-.765-1.026-1.163-1.792-1.163-.726 0-1.287.326-1.685.97-.408.65-.61 1.432-.61 2.41 0 .893.226 1.632.676 2.208.442.57 1.233 1.22 2.345 1.923 1.757.872 3.078 1.98 3.963 3.304.88 1.34 1.325 3.13 1.325 5.42 0 2.34-.533 4.174-1.6 5.5-1.066 1.34-2.49 1.997-4.262 1.997-1.766 0-3.302-.756-4.595-2.265-1.293-1.504-1.917-3.665-1.872-6.495l.02-.103h3.528c0 1.672.238 2.88.73 3.61.48.73 1.21 1.096 2.194 1.096.76 0 1.325-.292 1.694-.89.374-.6.56-1.394.56-2.43" fill="#d45500"/><path d="M607.43 441.666h-2.29v-13.148l-3.228.2v-1.367l5.518-.96v15.28zm42.903-.023h-9.258v-1.413l4.538-5.51c.725-.954 1.243-1.742 1.535-2.373.285-.628.434-1.24.434-1.832 0-.798-.186-1.463-.546-1.962-.375-.51-.874-.765-1.513-.765-.816 0-1.42.278-1.824.837-.41.568-.61 1.333-.61 2.305h-2.21l-.03-.057c-.027-1.32.376-2.43 1.214-3.338.84-.906 1.99-1.365 3.45-1.365 1.336 0 2.406.39 3.184 1.187.785.777 1.173 1.818 1.173 3.11 0 .876-.24 1.734-.72 2.585-.48.85-1.18 1.795-2.086 2.84l-3.116 4.14h6.38v1.61zm34.06-8.568h1.575c.763 0 1.325-.238 1.675-.708.348-.48.524-1.113.524-1.92 0-.825-.183-1.48-.552-1.95-.366-.478-.896-.71-1.603-.71-.64 0-1.166.24-1.58.71-.408.48-.616 1.102-.616 1.874h-2.184l-.034-.05c-.03-1.182.363-2.17 1.2-2.96.825-.79 1.886-1.18 3.17-1.18 1.362 0 2.45.38 3.266 1.13.813.754 1.225 1.81 1.225 3.183 0 .673-.2 1.324-.59 1.94-.38.62-.936 1.093-1.64 1.41.83.287 1.442.75 1.842 1.386.403.65.602 1.38.602 2.216 0 1.387-.445 2.468-1.323 3.257-.88.79-2.006 1.175-3.374 1.175-1.288 0-2.374-.374-3.26-1.134-.894-.745-1.32-1.794-1.288-3.133l.036-.06h2.195c0 .8.22 1.454.65 1.96.427.504.995.75 1.693.75.74 0 1.324-.24 1.74-.725.42-.485.63-1.17.63-2.065 0-.95-.196-1.647-.6-2.1-.4-.447-1.005-.674-1.81-.674h-1.577v-1.61zm40.624 3.363h3.796v-6.965l-.068-.015-.223.442-3.505 6.538zm6.082 0h1.77v1.61h-1.77v3.594h-2.29v-3.593h-6l-.06-1.19 5.99-10.47h2.353v10.04zm39.5-1.644l.79-8.402h7.39v1.75h-5.48l-.435 4.527c.28-.28.61-.49.974-.66.366-.17.794-.26 1.272-.28 1.294-.01 2.315.43 3.053 1.34.744.9 1.113 2.14 1.113 3.69 0 1.52-.39 2.744-1.165 3.685-.772.943-1.9 1.413-3.39 1.413-1.24 0-2.28-.367-3.125-1.095-.846-.727-1.256-1.766-1.225-3.136l.02-.05 2.164-.04c0 .865.2 1.53.59 2.003.4.464.922.693 1.573.693.75 0 1.306-.298 1.687-.91.383-.617.57-1.46.57-2.547 0-1.01-.2-1.83-.587-2.453-.398-.62-.96-.925-1.69-.925-.656 0-1.14.132-1.46.387-.32.26-.543.65-.677 1.17l-1.975-.18zm-249.44 27.782c-.58 0-1.08.13-1.5.39-.422.255-.745.608-.962 1.055v1.4c0 1.37.242 2.43.717 3.198.48.763 1.092 1.145 1.836 1.145.68 0 1.22-.36 1.62-1.064.403-.706.61-1.575.61-2.604 0-1.03-.21-1.872-.62-2.525-.418-.655-.98-.982-1.7-.982m.626-6.904c.5 0 .98.06 1.438.178.46.118.88.284 1.26.485l-.443 1.56c-.337-.185-.687-.325-1.03-.426-.35-.097-.75-.152-1.21-.152-.92 0-1.67.415-2.24 1.235-.57.83-.856 1.922-.856 3.293v.43c.38-.396.82-.706 1.34-.93.514-.22 1.076-.327 1.687-.327 1.244 0 2.228.475 2.953 1.424.713.95 1.082 2.17 1.082 3.655 0 1.54-.415 2.795-1.246 3.784-.834.99-1.923 1.48-3.263 1.48-1.417 0-2.57-.53-3.48-1.6-.906-1.07-1.355-2.56-1.355-4.46V462c0-1.89.507-3.417 1.525-4.584 1.02-1.157 2.3-1.736 3.843-1.736m45.36 1.847c-1.57 1.95-2.654 3.805-3.24 5.577-.584 1.785-1 3.978-1.24 6.59l-.15 1.46h-2.29l.14-1.46c.25-2.454.744-4.67 1.49-6.646.743-1.975 1.764-3.816 3.063-5.543h-7.394v-1.61h9.624v1.634zm40.79 3.493c0-.694-.18-1.26-.55-1.707-.37-.44-.854-.66-1.45-.66-.6 0-1.085.21-1.445.645-.36.425-.54 1.006-.54 1.723 0 .72.188 1.29.548 1.72.362.423.85.633 1.457.633.6 0 1.08-.21 1.44-.633.367-.427.543-1 .543-1.718m.36 6.37c0-.754-.22-1.365-.666-1.84-.442-.484-1.007-.72-1.7-.72-.69 0-1.26.236-1.692.705-.433.478-.65 1.097-.65 1.856 0 .795.21 1.41.64 1.857.427.443 1 .67 1.723.67.69 0 1.252-.227 1.69-.675.443-.45.66-1.064.66-1.85m1.95-6.406c0 .73-.21 1.37-.62 1.91-.417.545-.98.95-1.69 1.21.802.29 1.45.726 1.93 1.32.478.587.717 1.266.717 2.033 0 1.268-.425 2.23-1.287 2.9-.853.676-1.97 1.008-3.35 1.008-1.392 0-2.52-.33-3.377-1.005-.86-.67-1.29-1.632-1.29-2.9 0-.77.24-1.453.72-2.046.47-.59 1.112-1.027 1.93-1.31-.71-.266-1.27-.67-1.67-1.22-.41-.54-.618-1.173-.618-1.9 0-1.205.4-2.14 1.184-2.795.782-.668 1.82-.997 3.102-.997 1.272 0 2.312.33 3.11 1 .805.654 1.205 1.59 1.205 2.794m35.065 3.754c.59 0 1.09-.15 1.502-.465.41-.316.725-.71.936-1.202v-1.78c0-1.31-.21-2.305-.634-2.985-.43-.686-1.017-1.025-1.77-1.025-.64 0-1.176.368-1.604 1.1-.426.733-.643 1.64-.643 2.71 0 1.082.198 1.95.588 2.622.394.683.934 1.015 1.626 1.015m-.367 5.023c.83 0 1.51-.36 2.03-1.076.514-.73.775-1.76.775-3.11v-.76c-.316.505-.71.89-1.172 1.15-.455.26-.957.38-1.5.38-1.315 0-2.357-.465-3.123-1.41-.768-.936-1.15-2.204-1.15-3.816 0-1.557.43-2.856 1.297-3.89.864-1.036 1.934-1.555 3.21-1.555 1.43 0 2.576.507 3.444 1.508.86 1.01 1.3 2.46 1.3 4.347v3.983c0 1.858-.48 3.295-1.43 4.318-.95 1.024-2.18 1.534-3.68 1.534-.475 0-.962-.057-1.477-.16-.515-.11-.99-.267-1.424-.47l.296-1.55c.402.21.806.35 1.224.44.41.086.868.132 1.38.132m42.72 1.412h-2.286V458.01l-3.23.204v-1.37l5.52-.964v15.288zm12.137-9.68c0-1.383-.193-2.438-.593-3.147-.395-.7-.965-1.056-1.703-1.056-.745 0-1.31.357-1.694 1.06-.395.72-.587 1.763-.587 3.14v4.05c0 1.38.196 2.436.59 3.147.396.716.964 1.074 1.705 1.074.736 0 1.295-.357 1.69-1.07.395-.7.59-1.758.59-3.15v-4.048zm2.29 3.76c0 1.977-.41 3.488-1.225 4.54-.824 1.05-1.932 1.57-3.34 1.57-1.414 0-2.53-.52-3.356-1.58-.83-1.047-1.24-2.556-1.24-4.53v-3.45c0-1.963.41-3.465 1.23-4.53.82-1.063 1.94-1.593 3.346-1.593 1.4 0 2.517.53 3.345 1.596.83 1.064 1.246 2.566 1.246 4.53v3.45zm27.153 5.92h-2.287V458.01l-3.235.204v-1.37l5.52-.964v15.288zm11.304 0h-2.29V458.01l-3.23.204v-1.37l5.52-.964v15.288zm35.585 0h-2.287V458.01l-3.233.204v-1.37l5.517-.964v15.288zm14.573-.02h-9.258v-1.42l4.534-5.51c.724-.956 1.24-1.74 1.537-2.375.28-.63.43-1.23.43-1.82 0-.81-.18-1.46-.55-1.97-.366-.51-.872-.766-1.51-.766-.81 0-1.42.285-1.824.844-.4.56-.6 1.332-.6 2.295h-2.21l-.02-.054c-.03-1.32.377-2.434 1.21-3.346.84-.902 1.986-1.355 3.447-1.355 1.343 0 2.407.392 3.195 1.172.78.79 1.166 1.82 1.166 3.117 0 .873-.24 1.733-.715 2.582-.483.846-1.18 1.792-2.096 2.845l-3.12 4.14h6.386v1.613zm-268.373 29.51h-2.29v-13.142l-3.226.2v-1.37l5.515-.963v15.277zm8.02-8.59h1.576c.76 0 1.32-.237 1.67-.707.35-.477.53-1.11.53-1.92 0-.825-.183-1.482-.55-1.952-.37-.47-.902-.71-1.61-.71-.64 0-1.162.24-1.575.71-.413.48-.615 1.106-.615 1.877H527.6l-.028-.06c-.028-1.182.37-2.168 1.2-2.954.832-.793 1.886-1.18 3.174-1.18 1.355 0 2.444.367 3.263 1.124.81.754 1.22 1.81 1.22 3.183 0 .68-.2 1.32-.58 1.936-.39.624-.93 1.094-1.64 1.418.822.28 1.44.745 1.84 1.385.4.64.6 1.373.6 2.21 0 1.39-.44 2.464-1.32 3.25-.88.79-2.01 1.18-3.38 1.18-1.28 0-2.37-.376-3.26-1.12-.89-.75-1.31-1.797-1.28-3.145l.033-.06h2.196c0 .803.214 1.454.65 1.96.425.5.993.753 1.69.753.742 0 1.325-.24 1.744-.73.42-.484.63-1.17.63-2.064 0-.95-.204-1.64-.604-2.09-.4-.45-1-.676-1.81-.676h-1.574v-1.62zm33.55 8.59h-2.29v-13.142l-3.226.2v-1.37l5.517-.963v15.277zm7.067-5.225h3.8v-6.96l-.065-.01-.23.44-3.5 6.53zm6.086 0h1.768v1.62h-1.768v3.59h-2.286v-3.59h-5.996l-.066-1.19 5.998-10.47h2.354v10.042zm30.358 5.227h-2.29v-13.142l-3.228.2v-1.37l5.518-.963v15.275zm5.755-6.865l.79-8.403h7.4v1.75h-5.484l-.435 4.525c.28-.27.607-.482.98-.66.366-.166.787-.255 1.265-.275 1.3-.014 2.32.424 3.06 1.33.742.91 1.11 2.145 1.11 3.7 0 1.528-.387 2.75-1.16 3.687-.775.94-1.907 1.413-3.4 1.413-1.236 0-2.272-.365-3.12-1.094-.85-.725-1.26-1.77-1.23-3.128l.025-.06 2.167-.04c0 .865.197 1.54.594 2.003.398.466.92.7 1.567.7.75 0 1.314-.303 1.69-.914.38-.61.57-1.455.57-2.54 0-1.02-.2-1.84-.59-2.46-.39-.62-.957-.93-1.69-.93-.65 0-1.14.134-1.46.397-.32.265-.54.655-.673 1.168l-1.98-.175zm33.886 6.865h-2.286v-13.142l-3.23.2v-1.37l5.518-.963v15.273zm10.13-8.59c-.58 0-1.085.136-1.498.39-.43.265-.746.618-.964 1.06v1.405c0 1.363.24 2.426.715 3.19.475.753 1.086 1.135 1.84 1.135.676 0 1.216-.35 1.62-1.06.4-.71.595-1.57.595-2.6 0-1.032-.202-1.88-.61-2.528-.414-.66-.98-1-1.695-1m.62-6.89c.5 0 .98.05 1.445.172.455.126.873.287 1.255.487l-.447 1.56c-.333-.197-.68-.33-1.02-.43-.355-.1-.758-.15-1.217-.15-.925 0-1.667.41-2.24 1.235-.57.82-.854 1.912-.854 3.29v.43c.377-.4.827-.71 1.34-.925.51-.222 1.075-.34 1.69-.34 1.243 0 2.224.48 2.943 1.43.726.952 1.086 2.17 1.086 3.66 0 1.534-.414 2.8-1.245 3.79-.834.99-1.92 1.48-3.26 1.48-1.417 0-2.574-.536-3.483-1.6-.9-1.075-1.36-2.564-1.36-4.47v-3.31c0-1.887.516-3.41 1.53-4.576 1.02-1.16 2.3-1.734 3.843-1.734m29.855 15.484h-2.28v-13.14l-3.233.2v-1.37l5.52-.96v15.274zm14.55-13.634c-1.583 1.946-2.66 3.8-3.25 5.58-.58 1.775-.997 3.97-1.236 6.584l-.15 1.454h-2.283l.13-1.453c.25-2.454.745-4.67 1.49-6.646.744-1.98 1.764-3.82 3.07-5.54h-7.404v-1.61h9.63v1.63zm27.025 13.634h-2.285v-13.14l-3.234.2v-1.37l5.52-.96v15.274zm11.83-11.244c0-.778-.19-1.4-.557-1.89-.37-.49-.853-.738-1.45-.738-.603 0-1.087.238-1.447.71-.355.47-.535 1.114-.535 1.917 0 .79.18 1.422.54 1.892.362.466.852.7 1.467.7.595 0 1.076-.234 1.44-.7.355-.47.545-1.103.545-1.897m.36 7.047c0-.84-.22-1.52-.667-2.04-.447-.536-1.01-.8-1.7-.8-.698 0-1.256.264-1.697.79-.435.52-.646 1.21-.646 2.05 0 .88.21 1.556.64 2.05.424.5.998.74 1.727.74.688 0 1.25-.24 1.69-.74.434-.5.654-1.176.654-2.05m1.95-7.09c0 .81-.207 1.506-.622 2.106-.41.614-.98 1.056-1.683 1.35.81.31 1.447.807 1.93 1.455.478.647.716 1.404.716 2.25 0 1.405-.428 2.478-1.284 3.215-.854.738-1.97 1.12-3.347 1.12-1.4 0-2.525-.38-3.384-1.117-.86-.736-1.29-1.81-1.29-3.21 0-.855.24-1.61.72-2.266.47-.648 1.123-1.133 1.935-1.45-.71-.294-1.263-.74-1.676-1.346-.41-.603-.616-1.303-.616-2.103 0-1.328.4-2.366 1.19-3.1.783-.73 1.82-1.095 3.103-1.095 1.28 0 2.318.366 3.115 1.097.804.732 1.204 1.77 1.204 3.1m32.75 11.29h-2.287v-13.14l-3.23.2v-1.37l5.52-.963v15.275zm9.566-6.43c.587 0 1.086-.16 1.5-.467.413-.31.724-.7.94-1.19v-1.77c0-1.314-.216-2.32-.635-2.994-.426-.687-1.02-1.026-1.772-1.026-.64 0-1.174.37-1.6 1.103-.424.734-.635 1.643-.635 2.71 0 1.078.196 1.953.577 2.624.395.684.935 1.014 1.633 1.014m-.37 5.017c.83 0 1.513-.356 2.03-1.076.513-.723.777-1.756.777-3.106v-.752c-.32.51-.71.89-1.167 1.15-.466.257-.96.38-1.508.38-1.317 0-2.356-.47-3.12-1.402-.768-.943-1.15-2.213-1.15-3.822 0-1.55.425-2.852 1.294-3.884.86-1.043 1.93-1.553 3.212-1.553 1.425 0 2.57.5 3.438 1.505.865 1 1.296 2.46 1.296 4.35v3.982c0 1.856-.477 3.3-1.43 4.316-.945 1.025-2.176 1.536-3.674 1.536-.47 0-.964-.054-1.476-.16-.516-.106-.996-.264-1.424-.46l.308-1.56c.4.21.8.35 1.215.437.413.083.87.13 1.38.13m-259.74 30.89h-9.255v-1.41l4.53-5.515c.73-.954 1.24-1.748 1.533-2.376.29-.63.437-1.235.437-1.83 0-.805-.18-1.46-.55-1.96-.366-.51-.87-.77-1.51-.77-.81 0-1.42.282-1.815.84-.41.567-.607 1.336-.607 2.305h-2.208l-.026-.05c-.03-1.32.37-2.436 1.203-3.35.84-.895 1.988-1.354 3.452-1.354 1.34 0 2.404.393 3.185 1.176.783.784 1.17 1.828 1.17 3.12 0 .864-.24 1.727-.716 2.58-.487.854-1.185 1.794-2.09 2.844l-3.12 4.137h6.38v1.616zm8.87-9.66c0-1.384-.2-2.43-.592-3.138-.4-.707-.97-1.065-1.71-1.065s-1.31.358-1.697 1.064c-.387.713-.58 1.756-.58 3.136v4.05c0 1.375.193 2.43.596 3.15.397.71.96 1.064 1.706 1.064.726 0 1.29-.352 1.688-1.063.387-.712.586-1.76.586-3.15v-4.05zm2.29 3.76c0 1.977-.41 3.49-1.232 4.543-.82 1.056-1.93 1.575-3.336 1.575-1.414 0-2.537-.524-3.362-1.583-.828-1.05-1.244-2.568-1.244-4.535v-3.45c0-1.956.417-3.47 1.24-4.53.82-1.06 1.937-1.593 3.34-1.593 1.407 0 2.524.53 3.346 1.594.83 1.06 1.245 2.576 1.245 4.53v3.45zm30.42 5.9h-9.26v-1.41l4.526-5.515c.737-.954 1.248-1.748 1.54-2.376.29-.63.443-1.235.443-1.83 0-.805-.19-1.46-.555-1.96-.366-.51-.874-.77-1.516-.77-.805 0-1.406.282-1.813.84-.41.567-.61 1.336-.61 2.305h-2.21l-.023-.05c-.03-1.32.37-2.436 1.21-3.35.84-.895 1.99-1.354 3.442-1.354 1.345 0 2.415.393 3.19 1.176.782.784 1.18 1.828 1.18 3.12 0 .864-.246 1.727-.724 2.58-.48.854-1.175 1.794-2.09 2.844l-3.12 4.137h6.385v1.616zm8.037.017h-2.29v-13.14l-3.233.195v-1.375l5.522-.955v15.282zm35.47-.016h-9.26v-1.41l4.53-5.514c.73-.953 1.244-1.747 1.536-2.375.29-.63.44-1.234.44-1.83 0-.804-.186-1.46-.55-1.96-.368-.51-.874-.77-1.516-.77-.806 0-1.408.283-1.814.842-.406.566-.61 1.335-.61 2.304h-2.21l-.02-.052c-.032-1.32.37-2.436 1.212-3.35.84-.895 1.988-1.354 3.442-1.354 1.343 0 2.41.394 3.192 1.177s1.17 1.826 1.17 3.12c0 .862-.24 1.725-.72 2.58-.48.852-1.17 1.792-2.09 2.842l-3.113 4.135h6.384v1.612zm11.3 0h-9.254v-1.41l4.535-5.514c.732-.953 1.24-1.747 1.532-2.375.29-.63.433-1.234.433-1.83 0-.804-.18-1.46-.55-1.96-.37-.51-.874-.77-1.513-.77-.81 0-1.413.283-1.816.842-.403.566-.608 1.335-.608 2.304h-2.21l-.025-.052c-.028-1.32.372-2.436 1.213-3.35.84-.895 1.99-1.354 3.446-1.354 1.347 0 2.41.394 3.19 1.177.778.782 1.17 1.826 1.17 3.12 0 .862-.237 1.725-.72 2.58-.48.852-1.17 1.792-2.087 2.842l-3.116 4.135H622v1.612zm28.337 0h-9.26v-1.41l4.537-5.514c.725-.953 1.243-1.747 1.535-2.375.284-.63.433-1.234.433-1.83 0-.804-.185-1.46-.545-1.96-.376-.51-.875-.77-1.514-.77-.814 0-1.42.283-1.822.842-.407.566-.606 1.335-.606 2.304H640.9l-.03-.052c-.026-1.32.377-2.436 1.215-3.35.84-.895 1.99-1.354 3.45-1.354 1.336 0 2.406.394 3.184 1.177.784.782 1.172 1.826 1.172 3.12 0 .862-.24 1.725-.72 2.58-.48.852-1.18 1.792-2.087 2.842l-3.115 4.135h6.377v1.612zm4.76-8.57h1.573c.764 0 1.32-.23 1.67-.703.353-.48.53-1.12.53-1.93 0-.825-.186-1.47-.55-1.944-.37-.473-.9-.71-1.606-.71-.643 0-1.173.243-1.583.713-.41.474-.614 1.105-.614 1.877h-2.193l-.03-.065c-.028-1.18.365-2.17 1.206-2.958.83-.79 1.886-1.18 3.17-1.18 1.36 0 2.447.38 3.263 1.123.82.76 1.23 1.81 1.23 3.185 0 .67-.197 1.33-.58 1.937-.386.63-.935 1.098-1.645 1.414.828.29 1.445.745 1.85 1.385.396.637.6 1.38.6 2.223 0 1.38-.443 2.46-1.324 3.25-.88.78-2.002 1.172-3.38 1.172-1.283 0-2.37-.377-3.26-1.128-.886-.75-1.31-1.796-1.28-3.138l.034-.07h2.195c0 .81.213 1.46.648 1.967.435.5.996.75 1.697.75.74 0 1.32-.237 1.74-.72.416-.49.63-1.174.63-2.072 0-.943-.202-1.643-.6-2.093-.405-.45-1.007-.674-1.816-.674h-1.575v-1.613zm35.85 8.572h-9.26v-1.41l4.53-5.515c.723-.952 1.24-1.746 1.53-2.374.29-.63.434-1.233.434-1.83 0-.803-.18-1.46-.544-1.96-.373-.51-.873-.77-1.515-.77-.81 0-1.417.284-1.817.843-.41.566-.603 1.335-.603 2.304h-2.22l-.02-.054c-.026-1.32.377-2.437 1.21-3.35.84-.896 1.99-1.355 3.447-1.355 1.343 0 2.41.394 3.195 1.177.78.783 1.167 1.827 1.167 3.12 0 .863-.24 1.726-.718 2.58-.485.853-1.177 1.793-2.095 2.843l-3.11 4.137h6.38v1.613zm3.81-5.206h3.794v-6.975l-.076-.005-.226.438-3.5 6.54zm6.08 0h1.767v1.61h-1.768v3.593h-2.288v-3.593h-6l-.067-1.183 5.993-10.472h2.357v10.05zm31.682 5.205h-9.256v-1.41l4.53-5.515c.734-.952 1.246-1.746 1.54-2.374.286-.63.43-1.233.43-1.83 0-.803-.18-1.46-.55-1.96-.36-.51-.87-.77-1.51-.77-.8 0-1.41.284-1.82.843-.4.566-.6 1.335-.6 2.304h-2.21l-.026-.053c-.03-1.32.377-2.437 1.21-3.35.84-.896 1.99-1.355 3.446-1.355 1.35 0 2.41.392 3.194 1.175.78.783 1.17 1.827 1.17 3.12 0 .863-.24 1.726-.716 2.58-.483.853-1.18 1.793-2.093 2.843l-3.115 4.136h6.38v1.613zm2.49-6.858l.79-8.396h7.4v1.75h-5.485l-.428 4.52c.28-.26.603-.475.972-.653.37-.163.795-.264 1.27-.27 1.296-.014 2.32.43 3.058 1.34.746.9 1.115 2.13 1.115 3.702 0 1.51-.385 2.74-1.164 3.68-.772.936-1.9 1.406-3.393 1.406-1.23 0-2.273-.36-3.123-1.087-.84-.728-1.25-1.766-1.23-3.134l.026-.057 2.164-.04c0 .868.205 1.53.6 1.995.39.47.91.702 1.564.702.752 0 1.313-.3 1.685-.912.39-.613.573-1.46.573-2.546 0-1.012-.194-1.832-.59-2.454-.39-.62-.954-.924-1.69-.924-.644 0-1.128.13-1.453.386-.327.263-.544.656-.675 1.175l-1.98-.184zm44.4 6.858h-9.255v-1.41l4.535-5.514c.725-.952 1.24-1.746 1.53-2.374.283-.63.435-1.234.435-1.83 0-.804-.183-1.46-.552-1.96-.362-.51-.873-.77-1.512-.77-.806 0-1.41.283-1.817.842-.404.566-.603 1.335-.603 2.304h-2.21l-.02-.053c-.034-1.32.37-2.437 1.21-3.35.837-.896 1.99-1.355 3.443-1.355 1.345 0 2.41.393 3.193 1.176.78.783 1.17 1.827 1.17 3.12 0 .863-.24 1.726-.718 2.58-.48.853-1.18 1.793-2.095 2.843l-3.116 4.135h6.38v1.613zm6.87-8.57c-.583 0-1.085.135-1.5.393-.423.263-.74.613-.96 1.054v1.4c0 1.38.24 2.438.714 3.19.475.772 1.086 1.144 1.837 1.144.675 0 1.212-.35 1.612-1.06.405-.705.6-1.57.6-2.603 0-1.03-.204-1.87-.616-2.52-.416-.66-.977-.99-1.69-.99m.62-6.9c.5 0 .973.06 1.44.17.455.12.876.288 1.26.486l-.446 1.566c-.348-.19-.686-.33-1.037-.425-.348-.105-.748-.15-1.21-.15-.926 0-1.67.412-2.238 1.233-.575.816-.858 1.92-.858 3.282v.433c.373-.395.816-.707 1.334-.925.514-.216 1.08-.33 1.69-.33 1.243 0 2.227.478 2.95 1.427.72.95 1.088 2.166 1.088 3.654 0 1.54-.42 2.8-1.25 3.79-.833.99-1.922 1.48-3.262 1.48-1.418 0-2.575-.53-3.48-1.6-.907-1.074-1.363-2.553-1.363-4.466V521c0-1.886.51-3.417 1.53-4.58 1.025-1.15 2.297-1.735 3.84-1.735M525.61 559.64h-9.256v-1.416l4.53-5.513c.73-.95 1.242-1.74 1.534-2.37.29-.63.437-1.23.437-1.82 0-.81-.183-1.46-.55-1.97-.368-.506-.87-.76-1.51-.76-.81 0-1.42.274-1.817.84-.41.566-.608 1.334-.608 2.295h-2.208l-.025-.05c-.03-1.315.373-2.433 1.205-3.34.84-.91 1.988-1.36 3.452-1.36 1.343 0 2.407.388 3.188 1.18.782.783 1.17 1.818 1.17 3.11 0 .876-.242 1.736-.717 2.585-.485.85-1.183 1.8-2.09 2.844l-3.12 4.136h6.382v1.61zm11.285-13.612c-1.58 1.94-2.664 3.803-3.247 5.575-.583 1.775-1 3.97-1.244 6.58l-.143 1.457h-2.29l.14-1.456c.25-2.457.75-4.67 1.49-6.644.74-1.978 1.76-3.82 3.06-5.54h-7.39v-1.614h9.635v1.64zm30.293 13.613h-9.26v-1.41l4.526-5.512c.735-.95 1.246-1.743 1.538-2.37.29-.63.443-1.234.443-1.824 0-.812-.19-1.463-.555-1.973-.366-.506-.874-.76-1.516-.76-.804 0-1.405.274-1.812.84-.41.566-.608 1.334-.608 2.295h-2.21l-.023-.05c-.03-1.315.38-2.433 1.21-3.34.84-.91 1.99-1.36 3.45-1.36 1.347 0 2.417.388 3.19 1.18.784.783 1.18 1.818 1.18 3.11 0 .876-.244 1.736-.722 2.585-.48.85-1.174 1.8-2.09 2.843l-3.117 4.137h6.384v1.61zm8.554-11.23c0-.77-.18-1.4-.552-1.89-.366-.49-.85-.73-1.452-.73s-1.086.237-1.445.72c-.354.47-.54 1.1-.54 1.91 0 .787.186 1.42.55 1.894.362.47.85.7 1.46.7.598 0 1.076-.23 1.442-.7.36-.474.537-1.108.537-1.897m.366 7.054c0-.843-.217-1.523-.667-2.05-.45-.53-1.01-.79-1.7-.79s-1.25.26-1.69.78c-.43.53-.65 1.216-.65 2.06 0 .873.21 1.55.64 2.052.427.49 1 .74 1.73.74.688 0 1.25-.25 1.69-.75.438-.496.655-1.175.655-2.04m1.95-7.1c0 .81-.204 1.516-.63 2.12-.41.6-.97 1.044-1.686 1.34.81.315 1.457.8 1.937 1.457.48.652.716 1.4.716 2.255 0 1.4-.424 2.47-1.28 3.21-.86.744-1.976 1.12-3.35 1.12-1.396 0-2.525-.376-3.384-1.12-.85-.74-1.283-1.81-1.283-3.208 0-.852.24-1.615.714-2.27.48-.65 1.12-1.134 1.94-1.45-.705-.29-1.27-.74-1.68-1.345-.403-.6-.61-1.305-.61-2.105 0-1.327.397-2.362 1.18-3.096.786-.74 1.82-1.097 3.1-1.097s2.326.36 3.12 1.098c.8.736 1.2 1.77 1.2 3.1m32.638 11.273h-9.257v-1.418l4.528-5.513c.732-.95 1.244-1.743 1.536-2.37.29-.628.44-1.233.44-1.823 0-.813-.185-1.464-.55-1.974-.367-.505-.873-.76-1.515-.76-.807 0-1.41.275-1.815.843-.405.563-.61 1.33-.61 2.292h-2.21l-.02-.05c-.03-1.315.37-2.433 1.213-3.34.84-.91 1.988-1.36 3.442-1.36 1.342 0 2.41.39 3.19 1.18.78.783 1.173 1.82 1.173 3.11 0 .876-.24 1.736-.72 2.585-.48.85-1.173 1.8-2.09 2.844l-3.115 4.14h6.383v1.61zm6.295-6.41c.59 0 1.09-.156 1.5-.47.414-.31.73-.707.935-1.2v-1.77c0-1.307-.206-2.308-.635-2.993-.42-.68-1.01-1.02-1.768-1.02-.64 0-1.176.36-1.604 1.095-.424.734-.64 1.64-.64 2.71 0 1.078.194 1.952.588 2.623.385.68.928 1.014 1.623 1.014m-.376 5.024c.848 0 1.52-.363 2.04-1.088.52-.716.78-1.746.78-3.105v-.742c-.314.506-.708.888-1.17 1.14-.453.27-.958.38-1.504.38-1.316 0-2.35-.46-3.12-1.4-.768-.94-1.155-2.213-1.155-3.82 0-1.56.44-2.857 1.3-3.895.87-1.035 1.934-1.548 3.21-1.548 1.425 0 2.576.495 3.438 1.5.872 1.004 1.3 2.458 1.3 4.345V554c0 1.855-.472 3.294-1.424 4.318-.958 1.025-2.18 1.538-3.69 1.538-.466 0-.956-.06-1.47-.166-.516-.103-.99-.26-1.43-.462l.306-1.554c.403.21.81.35 1.22.436.41.09.87.137 1.37.137m27.173-7.177h1.576c.76 0 1.32-.238 1.674-.71.355-.475.526-1.117.526-1.92 0-.83-.182-1.474-.55-1.944-.367-.482-.9-.717-1.6-.717-.644 0-1.17.24-1.58.71-.416.47-.62 1.09-.62 1.864h-2.184l-.035-.06c-.038-1.176.362-2.168 1.2-2.948.83-.8 1.885-1.186 3.17-1.186 1.36 0 2.443.376 3.262 1.12.815.75 1.224 1.817 1.224 3.18 0 .68-.196 1.335-.578 1.95-.388.614-.937 1.084-1.647 1.41.83.282 1.445.744 1.85 1.386.4.64.6 1.38.6 2.21 0 1.39-.444 2.46-1.32 3.25-.88.79-2.01 1.18-3.38 1.18-1.29 0-2.37-.37-3.26-1.126-.89-.753-1.317-1.794-1.286-3.142l.03-.055h2.2c0 .8.213 1.45.65 1.95.43.51.992.765 1.696.765.743 0 1.317-.243 1.738-.733.42-.48.628-1.164.628-2.068 0-.95-.193-1.645-.594-2.09-.405-.458-1.004-.676-1.813-.676h-1.58v-1.61zm15.42-1.093c0-1.382-.2-2.434-.595-3.143-.39-.7-.96-1.055-1.702-1.055-.737 0-1.3.35-1.695 1.06-.384.72-.58 1.76-.58 3.13v4.04c0 1.39.2 2.446.596 3.158.396.71.964 1.072 1.71 1.072.727 0 1.29-.36 1.682-1.068.39-.71.59-1.767.59-3.164v-4.042zm2.29 3.762c0 1.97-.413 3.49-1.23 4.54-.82 1.04-1.93 1.57-3.333 1.57-1.417 0-2.537-.53-3.36-1.58-.83-1.06-1.246-2.57-1.246-4.54v-3.447c0-1.96.413-3.48 1.238-4.54.82-1.055 1.937-1.583 3.34-1.583 1.41 0 2.524.53 3.35 1.584.824 1.06 1.24 2.58 1.24 4.54v3.448z" fill="#70706e"/><path d="M551.105 315.88c.846.127 2.435.342 6.358.342 1.46 0 2.152-.17 2.152-1.02 0-.825-.333-1.038-1.846-1.038h-1.62c-3.31 0-5.77-.486-5.77-4.98 0-4.324 4-4.897 8.1-4.897 2.69 0 5.84.318 7.433.51v4.493c-1.72-.105-3.59-.318-5.948-.318-2.128 0-2.718.276-2.718 1.06 0 .572.36.912 1.922.912 5.534 0 7.302.572 7.302 4.324 0 4.343-3.153 4.916-7.69 4.916-2.537 0-5.153-.17-7.69-.425v-3.88zm20.475-11.21h14.945v4.408h-7.897v1.61h7.897v3.54h-7.897v1.612h7.897v3.962H571.58V304.67zm27.678 7.375h2.05c1.692 0 2.487-.488 2.487-1.738 0-1.186-.693-1.674-2.076-1.674h-2.47v3.412zm-7.048-7.376h11.84c4.205 0 6.615.89 6.615 5.34 0 3.51-2.05 5.57-6.793 5.57h-4.614v4.214h-7.048v-15.13zm27.907 5h-4.82v-5h16.688v5h-4.82v10.13h-7.048v-10.13zm16.708-5h14.944v4.4h-7.9v1.61h7.89v3.54h-7.897v1.612h7.896v3.96h-14.94v-15.13zm20.63 0h8.79l2.794 7.77h.05l2.97-7.78h8.583v15.14h-6.28l.256-9.113h-.05l-3.69 9.11h-3.667l-3.69-9.112h-.054l.256 9.112h-6.28v-15.13zm35.57 11.59h3.18c1.59 0 2.28-.26 2.28-1.21 0-.788-.463-1.23-1.897-1.23h-3.564v2.435zm0-5.39h3.512c1.075 0 1.768-.53 1.768-1.19 0-.867-.642-1.206-1.82-1.206h-3.46v2.395zm-6.69-6.21h13.432c2.922 0 5.05.614 5.05 3.814 0 2.502-1.797 3.39-4.897 3.69v.043c3.28.04 5.076.847 5.076 3.644 0 3.2-2.384 3.943-6.948 3.943h-11.713v-15.13zm23.935 0h14.944v4.41h-7.896v1.61h7.896v3.54h-7.896v1.612h7.896v3.962H710.27v-15.13zm27.678 7.1h2.204c1.383 0 2.486-.21 2.486-1.696 0-.976-.563-1.44-2.127-1.44h-2.56v3.137zm-7.048-7.1h12.2c3.588 0 6.586.637 6.586 4.365 0 2.863-1.64 4.284-5.176 4.35l5.87 6.42h-8.152l-4.203-5.3h-.077v5.3H730.9v-15.13z" fill="#fff"/><path d="M364.795 622.873c-4.397 15.958-8.796 31.923-13.18 47.89H474.64c-4.398-15.967-8.798-31.932-13.183-47.89h-96.663z" fill="#929292"/><path d="M412.41 670.763h62.23c-4.4-15.968-8.796-31.93-13.184-47.89H412.41v47.89z" fill="#969a9d"/><path d="M482.232 669.918H344.008c-3.507 0-6.35 2.96-6.35 6.627v2.488h150.927v-2.488c0-3.667-2.846-6.627-6.353-6.627m-276.96-65.675v26.392c0 5.078 4.618 9.188 10.347 9.188h395c5.71 0 10.34-4.11 10.34-9.188v-26.392H205.27z" fill="#fff"/><path d="M620.968 604.243v-223.43c0-5.076-4.637-9.194-10.346-9.194H215.62c-5.728 0-10.346 4.11-10.346 9.19v223.43h415.694z" fill="#0e303f"/><path d="M222.295 385.99H603.95v203.003H222.296V385.99z" fill="#fff"/><path d="M242.24 587.462h341.852V408.988H242.24v178.474z" fill="#b7c8b7"/><path d="M574.054 387.94H252.197c-5.368 0-9.72 3.475-9.72 7.77v14.73H583.77v-14.73c0-4.295-4.343-7.77-9.715-7.77" fill="#a05a2c"/><path d="M262.365 399.43c0 2.4-2.435 4.335-5.42 4.335-3.007 0-5.43-1.934-5.43-4.334 0-2.39 2.423-4.33 5.43-4.33 2.985 0 5.42 1.94 5.42 4.34m15.197-.002c0 2.4-2.446 4.336-5.43 4.336-3.005 0-5.432-1.934-5.432-4.334 0-2.394 2.427-4.334 5.43-4.334 2.986 0 5.432 1.94 5.432 4.335m15.178 0c0 2.4-2.447 4.335-5.432 4.335-2.985 0-5.43-1.933-5.43-4.333 0-2.392 2.445-4.332 5.43-4.332s5.43 1.94 5.43 4.336m276.86 3.9H307.926v-7.807h261.672v7.807z" fill="#fff"/><path d="M579.396 467.195c0 2.07-1.59 3.762-3.535 3.762h-44.74c-1.94 0-3.53-1.692-3.53-3.762V430.31c0-2.07 1.59-3.763 3.538-3.763h44.744c1.945 0 3.536 1.693 3.536 3.762v36.88z" fill="#afdde9"/><path d="M579.396 426.547h-51.813v4.293h51.813v-4.293z" fill="#06f"/><path d="M564.97 420.77c0 1.504-1.147 2.723-2.56 2.723h-17.064c-1.414 0-2.56-1.22-2.56-2.724 0-1.51 1.146-2.73 2.56-2.73h17.064c1.413 0 2.56 1.22 2.56 2.72" fill="#fea529"/><path d="M539.744 442.522c.383-.194.754-.387 1.117-.58.37-.194.74-.42 1.11-.682.37-.26.77-.59 1.19-.986.418-.396.87-.914 1.364-1.552h4.85v16.416h2.535v3.86H541v-3.86h2.724v-10.76L541 445.74l-1.255-3.217zm21.656 16.85c-.692 0-1.378-.095-2.06-.29-.68-.19-1.326-.453-1.933-.783-.61-.33-1.155-.71-1.636-1.13-.48-.43-.85-.86-1.13-1.31l2.98-3.28c.527.58 1.094 1.08 1.7 1.51.61.423 1.315.64 2.11.64.93 0 1.66-.27 2.198-.818.536-.54.804-1.238.804-2.09 0-.385-.074-.75-.22-1.086-.145-.34-.34-.637-.585-.9-.245-.26-.54-.463-.884-.61-.345-.143-.71-.216-1.09-.216-.64 0-1.15.14-1.54.42-.393.28-.73.588-1.023.916l-3.488-1.655 1.66-9.98h10.79v4.325h-7.33l-.46 2.81c.27-.193.66-.358 1.17-.493.505-.135 1.1-.203 1.77-.203.8 0 1.58.146 2.34.436.767.29 1.44.724 2.034 1.304.59.58 1.067 1.303 1.43 2.163.364.86.546 1.85.546 2.975 0 1.22-.24 2.288-.72 3.206-.487.92-1.11 1.68-1.88 2.29-.778.61-1.65 1.07-2.62 1.38-.975.31-1.95.463-2.93.463" fill="#152137"/><path d="M553.548 415.156h-23.863c-1.168 0-2.116 1.01-2.116 2.257v9.22h25.97v-11.477z" fill="#003380"/><path d="M577.325 415.156h-24.07v11.476h26.186v-9.22c0-1.245-.94-2.256-2.11-2.256" fill="#003380"/><path d="M454.853 484.492H425.07l29.783-28.424v28.424z" fill="#15b0bf"/><path d="M425.068 484.492h29.785l-29.785 28.422v-28.422z" fill="#d1ecfb"/><g clip-path="url(#a)" opacity=".1" transform="matrix(1.3 0 0 -1.24 -373.65 1097.71)"><path d="M637.023 517.006l-22.9-22.903v-73.908h43.392v96.81h-20.492z"/></g><path d="M362.48 570.632V451.845l-.45-28.807 113.323.38v147.21z" fill="#fff"/><path d="M389.908 538.958v-18.555c-9.517.6-17.065 8.142-17.065 17.386 0 9.64 8.192 17.45 18.29 17.45 9.683 0 17.597-7.2 18.22-16.29h-19.445z" fill="#2c5871"/><path d="M408.47 534.575c0-7.205-6.115-13.045-13.662-13.045v13.045h13.662z" fill="#f99b1c"/><path d="M398.818 485.085c-.366 1.076-.952 2.044-1.74 2.854l5.937 7.9c3-2.467 5.155-5.84 5.972-9.688l-10.17-1.076z" fill="#a6dae9"/><path d="M392.76 475.053c3.458.688 6.08 3.473 6.423 6.886l10.155 1.06c0-.11.014-.216.014-.33 0-9.08-7.29-16.534-16.593-17.337v9.71z" fill="#f99b1c"/><path d="M385.09 477.46c1.13-1.196 2.628-2.065 4.353-2.406v-9.712c-5.42.466-10.134 3.192-13.148 7.176l8.794 4.94z" fill="#15b0bf"/><path d="M394.39 489.79c-1.008.432-2.12.677-3.292.677-4.505 0-8.157-3.488-8.157-7.786 0-.88.19-1.7.47-2.49l-8.79-4.94c-1.116 2.26-1.77 4.77-1.77 7.44 0 9.62 8.174 17.417 18.257 17.417 3.366 0 6.51-.88 9.216-2.403L394.4 489.8z" fill="#2c5871"/><path d="M417.946 469.655h44v-4.313h-44v4.313z" fill="#15b0bf"/><path d="M417.946 483.19h44v-4.31h-44v4.31zm0 13.537h44v-4.306h-44v4.31z" fill="#a6dae9"/><path d="M417.946 524.712h30.615v-4.31h-30.61v4.31z" fill="#15b0bf"/><path d="M417.946 538.257h44v-4.313h-44v4.313zm0 13.533h44v-4.308h-44v4.31z" fill="#a6dae9"/></svg>