<svg xmlns="http://www.w3.org/2000/svg" width="1000" height="1000" id="divisional-daily-managment"><defs><clipPath id="a"><path d="M614.122 517.006h43.394v-96.81h-43.394v96.81z"/></clipPath></defs><path d="M601.05416592 663.52248788l-.0316593-43.9522601 127.74304783-.08710016.0316593 43.9522601-127.74304783.08710016z" fill="#c83737"/><path d="M657.9303315 651.79554097l-.01481912-20.57322397 58.88268347-.0401485.01481912 20.57322397-58.88268347.0401485z" fill="#fff"/><path d="M626.99451398 652.75082476c-6.61389622.0045096-11.98082047-5.01619257-11.9852846-11.21371618-.00446318-6.19616635 5.3552219-11.2255396 11.9691181-11.23004922 6.61247453-.00450865 11.97939976 5.0175508 11.98386292 11.21371714.00446415 6.19752362-5.3552219 11.22553962-11.96769642 11.23004826" fill="#a7babc"/><path d="M626.9924934 649.94568692c-4.96112634.00338268-8.9856109-3.7621466-8.98895974-8.41130293-.00334787-4.64780773 4.01570804-8.4188214 8.97683438-8.4222041 4.95970466-.0033817 8.98276753 3.76214853 8.9861154 8.40995625.00334883 4.64915634-4.01428538 8.42016905-8.97399003 8.42355077" fill="#4d4d4d"/><path d="M601.08616207 707.94239197l-.03165833-43.95091146 127.74304783-.08710017.03165833 43.95091147-127.74304783.08710017z" fill="#2690a8"/><path d="M657.96232667 696.2140878l-.0148201-20.5745899 58.88268346-.0401485.0148201 20.5745899-58.88268346.0401485z" fill="#fff"/><path d="M627.02650982 697.17030524c-6.61389622.0045096-11.98082047-5.01619256-11.9852846-11.21371618-.00446415-6.1975236 5.3552219-11.2255396 11.9691181-11.23004922 6.61247453-.00450864 11.97939878 5.01619353 11.98386293 11.21371715.00446414 6.1975236-5.3552219 11.2255396-11.96769643 11.23004824" fill="#a7babc"/><path d="M627.02448887 694.36464005c-4.96112635.0033827-8.9856109-3.7621466-8.98895877-8.40994566-.00334787-4.64780772 4.01570706-8.42017867 8.9768334-8.42356136 4.95970466-.0033817 8.9827685 3.7635058 8.98611638 8.41131352.00334786 4.64779907-4.01428636 8.41881177-8.973991 8.4221935" fill="#4d4d4d"/><g><path d="M793.86947762 574.6318578H507.61600885V292.0575996h286.25346877V574.6318578z" fill="#fea"/><path d="M793.86947762 365.36442208H507.61600885v-73.3068225h286.25346877v73.3068225z" fill="#f95"/><path d="M-276.05008 745.04903H36.36487" fill="none" stroke="#5390c6" stroke-width="1.77654445" stroke-miterlimit="10" transform="matrix(.92 0 0 .86 760.61 -232)"/><g fill="#d45500"><path d="M523.8321919 390.9305332c0-1.0350197-.18819106-1.88138965-.55410853-2.49324413-.3798739-.60673342-1.0385426-1.2236563-1.97601684-1.81510554-1.92721778-.9789382-3.3734933-2.08534993-4.33188603-3.34470882-.97232763-1.23897997-1.4462863-2.98780138-1.4462863-5.23631427 0-2.22810764.55761112-4.03302372 1.67979538-5.4351535 1.11868168-1.4021166 2.54755206-2.09555254 4.286568-2.09555254 1.7669073 0 3.20273972.78009898 4.3040055 2.3402838 1.10474678 1.5550901 1.63794758 3.52316913 1.60659677 5.89403448l-.0244642.1070288h-3.5198689c0-1.23896683-.21259057-2.24848657-.63427993-3.0132882-.42170013-.76480166-1.01763487-1.16249325-1.79129603-1.16249325-.72488367 0-1.28249478.32631274-1.68675744.96874875-.4077437.65262547-.60986963 1.4327113-.60986963 2.41166267 0 .89224884.22303366 1.6315505.6760846 2.2077024.45653197.57105716 1.23021468 1.21857474 2.34890714 1.92218698 1.74946982.87186993 3.070299 1.9782685 3.95898496 3.3039115.88867518 1.34095354 1.3347533 3.13058544 1.3347533 5.4198693 0 2.34027066-.53668184 4.1757946-1.603105 5.50143763-1.0733852 1.34094036-2.49527197 1.99867373-4.2691413 1.99867373-1.76691807 0-3.29334344-.7546122-4.58630284-2.26379708-1.2964189-1.50410332-1.92720702-3.66592683-1.88189977-6.49568633l.0244642-.10202623h3.52684173c0 1.672361.24047114 2.88074628.7318565 3.6098585.4809315.72909905 1.20929617 1.09619594 2.18510483 1.09619594.7666991 0 1.33476405-.29571803 1.7006923-.89224883.36592825-.60165186.5506275-1.3970482.5506275-2.4320679M559.19232303 371.73237295l3.321224 19.92040052h.0767335l3.35607736-19.92040052h4.7222138v27.12988856h-3.60004032v-7.88250558l.3066969-10.54910213-.0767335-.01053175-3.5372956 18.44181034h-2.40814928l-3.5024422-18.29903947-.06972834.02040524.31016713 10.3961418v7.8825056h-3.59653775V371.732057h4.6978035zM613.5766384 375.13189948h-4.17506734v22.89291772h-3.61396443v-22.89291772h-4.15413807v-4.23697083h11.94316984v4.23697083zM656.5405201 388.2073549h.07673348l2.00737843-17.31500653h3.50941505l-3.58260285 27.13499645h-3.37001227l-2.6067942-16.63178636h-.08018218l-2.5823839 16.63178636h-3.36306097l-3.5721382-27.13499645h3.51290683l2.00039482 17.31500653h.07317703l2.67300917-17.31500653h2.59982135l2.70437075 17.31500653zM698.3163043 375.96987037h-4.17854836v22.89290456h-3.61047263v-22.89290456h-4.147176v-4.23697083h11.936197v4.23697083zM737.8330846 387.58608768h-6.2869736v11.2782012h-3.6279101V371.7344003h11.0231223v4.23697084h-7.3952122v7.38794834h6.2869736v4.2267682zM782.64179255 391.76851727c0-1.0350197-.18819105-1.88140283-.55760032-2.49324414-.38335494-.60673342-1.0385426-1.22366947-1.97949787-1.81510554-1.9306988-.97895138-3.37001227-2.08534994-4.33187525-3.344722-.96187376-1.2389668-1.44629706-2.9878014-1.44629706-5.23631427 0-2.22809448.5576111-4.03301056 1.67979537-5.4351535 1.1186817-1.4021166 2.5510331-2.09553938 4.29004904-2.09553938 1.76342626 0 3.1992479.780099 4.30400548 2.34027065 1.10126576 1.55510326 1.63446656 3.5231823 1.59962395 5.89403447l-.0244642.10716043h-3.51289606c0-1.2389668-.20909876-2.2484997-.63427992-3.0132882-.42865142-.76480164-1.02807797-1.16249323-1.79477707-1.16249323-.72489442 0-1.28598656.32631274-1.6832656.9687356-.40775447.65263862-.60988042 1.43272445-.60988042 2.41166266 0 .892262.22652547 1.63156367.6760846 2.20771556.4425971.571044 1.2337065 1.21857473 2.34542612 1.92218697 1.75644265.87186993 3.07726105 1.9782685 3.96246598 3.3039115.88171313 1.34095354 1.32779124 3.13058544 1.32779124 5.4198693 0 2.34027066-.5332008 4.1757946-1.59962396 5.50143763-1.06642315 1.34094036-2.49179094 1.99867373-4.26216848 1.99867373-1.76691806 0-3.30380807-.7546122-4.5967567-2.26381024-1.29293784-1.50409016-1.91676392-3.66591367-1.8714459-6.49567317l.02079996-.10202622h3.52684174c0 1.672361.2369901 2.8807463.72837546 3.60984534.4809315.72911222 1.20929618 1.0962091 2.19207767 1.0962091.75972628 0 1.32431022-.29571803 1.6937195-.892262.37290107-.6016387.55760032-1.39703503.55760032-2.43205474"/></g><g fill="#70706e"><path d="M607.42973347 441.66617564h-2.28902626V428.5184848l-3.2288118.20072585v-1.36780775l5.51783807-.96349463v15.27826737zM650.33333032 441.64346415h-9.25844528v-1.41369703l4.5377189-5.50854654c.72578525-.95488906 1.24377293-1.74347454 1.5353234-2.3743196.28535816-.6279942.43423477-1.2387879.43423477-1.83235985 0-.79718044-.1861036-1.46245836-.54589484-1.9614115-.3752929-.51042016-.87466185-.76561965-1.51359804-.76561965-.8157409 0-1.4205567.27814413-1.8237777.83731502-.403221.56777646-.60171966 1.3333961-.60171966 2.3055069h-2.20839043l-.0278235-.0573351c-.02792808-1.31905704.3752929-2.42880386 1.21273823-3.33781424.84055192-.90613833 1.98815597-1.3649569 3.44904628-1.3649569 1.3368038 0 2.40688908.38998465 3.18539252 1.1871651.78471666.77710786 1.172436 1.81803136 1.172436 3.10842084 0 .87746018-.23883227 1.73486897-.7195825 2.58652306-.48076067.84879263-1.17863874 1.79508673-2.08742098 2.8388717l-3.1171622 4.14071757h6.37699826v1.61157202zM684.3927277 433.0747918h1.57563606c.76301224 0 1.32440875-.23799896 1.6749011-.70827396.34738572-.47889115.5241695-1.11261887.5241695-1.91838368 0-.8258586-.18298654-1.48253095-.5520976-1.9499445-.365994-.47886995-.89637673-.711146-1.60354325-.711146-.63893618 0-1.16622276.24087102-1.57874266.711146-.4094133.47889117-.61723178 1.10114127-.61723178 1.87251562h-2.18356894l-.03420407-.05447364c-.03096148-1.1871651.36289785-2.1707323 1.20034316-2.9593072.8250398-.78857487 1.88580527-1.1871651 3.16989088-1.1871651 1.36163575 0 2.45031884.37851764 3.26604928 1.1298194.81262383.75416323 1.2251542 1.8094152 1.2251542 3.18297767 0 .6738623-.19850913 1.32479055-.5831114 1.94132834-.38149566.61937805-.93359327 1.0925251-1.6407807 1.41081438.8281464.28676028 1.44536773.75130177 1.84549258 1.3850295.403221.64806678.60171965 1.37928536.60171965 2.21661097 0 1.38502948-.44354415 2.46608755-1.3213126 3.25466243-.88086462.78857488-2.0098604 1.17569808-3.3776989 1.17569808-1.28718175 0-2.37275824-.3727841-3.25983606-1.13268085-.89328058-.74556825-1.318206-1.79508672-1.28718176-3.13422693l.03713286-.06019656h2.19595354c0 .8000419.2171174 1.4538422.64824556 1.95852886.42803202.50469725.99564174.75130176 1.6935198.75130176.74128692 0 1.32440876-.240871 1.7400248-.72549567.42181882-.48461406.6296373-1.16995396.6296373-2.06462527 0-.94916615-.1954025-1.64597308-.60171965-2.09903694-.40012486-.44734097-1.00494067-.6738729-1.8113722-.6738729h-1.57564653v-1.61156142zM725.01695283 436.43785042h3.79642155v-6.9652608l-.06819894-.01441325-.2233097.44160744-3.50487107 6.53799244zm6.0823412 0h1.77415564v1.61157202h-1.77415564v3.5930243h-2.28591965v-3.5930243h-5.99549215l-.06202757-1.18430365 5.9892894-10.47227187h2.35416043v10.0450035zM770.5996174 434.7941877l.79090894-8.40189186h7.3974615v1.74919745h-5.480632l-.43422432 4.52785137c.2791345-.2724318.60792242-.48462466.97391642-.6595444.36600445-.1663142.79401556-.2609436 1.2716801-.27814413 1.2964911-.01144582 2.31693342.43299128 3.05513463 1.34201226.74438305.90040482 1.11349412 2.13917152 1.11349412 3.6962593 0 1.51979345-.3877089 2.74424227-1.1631371 3.68479225-.7754073.94341145-1.90440307 1.41369704-3.39320055 1.41369704-1.24065585 0-2.2797169-.36705063-3.12647157-1.09539716-.84675468-.72549567-1.25616797-1.76354712-1.22514373-3.13422694l.0247901-.04875073 2.16185407-.04016636c0 .86599317.19850912 1.5312711.5924103 2.00440754.40012484.46454148.92118774.69394547 1.5725399.69394547.75060674 0 1.30581095-.2982167 1.68729615-.91188243.38150612-.6165166.57071634-1.4595757.57071634-2.5463673 0-1.0093839-.20160526-1.82949838-.58931414-2.45175908-.39701824-.61938865-.95841475-.92622152-1.69040275-.92622152-.65445876 0-1.1383156.13191312-1.4577837.3871338-.31946808.2609436-.54277777.65091765-.67616318 1.17281543l-1.97575045-.1777812zM521.16798128 462.57607454c-.58000478 0-1.07936326.12903047-1.49809638.38998466-.4218188.25521008-.74440397.60792163-.96152136 1.05526258v1.39362445c0 1.3706798.2419284 2.4316759.71648634 3.1944447.47766453.76275818 1.09177924 1.14413727 1.8361832 1.14413727.67925935 0 1.21895144-.35843446 1.61595922-1.06384695.403221-.70542308.60792242-1.5742883.60792242-2.6037342 0-1.03231793-.21090418-1.872505-.62031747-2.5263053-.41563697-.65667235-.97703348-.9835672-1.69661597-.9835672m.6265307-6.90504305c.49936893 0 .97703347.06019655 1.43607927.17491974.4590458.11756345.877758.28388823 1.25926412.48461407l-.44353368 1.5570666c-.33807638-.18351472-.68856872-.3240228-1.0297517-.42438573-.35048187-.09750146-.75059626-.1519751-1.2127382-.1519751-.92119822 0-1.66869834.4129187-2.23940422 1.23303318-.57070587.82873064-.85606404 1.9241172-.85606404 3.2948182v.43011923c.37840997-.39570757.8219541-.7054125 1.33992087-.92908297.51487062-.2207984 1.0762776-.32689484 1.6873066-.32689484 1.243752 0 2.22698825.4760191 2.9527735 1.42516405.71337972.94916616 1.08248032 2.16787087 1.08248032 3.65325267 0 1.5427381-.4156265 2.79585447-1.2468586 3.7851552-.83434917.99217276-1.92303226 1.48253094-3.26295313 1.48253094-1.4174501 0-2.57126737-.53050334-3.48006007-1.600105-.90567563-1.06958045-1.35541207-2.56070636-1.35541207-4.46188952v-3.30627462c0-1.88970554.50866785-3.41811517 1.52600356-4.5851971 1.0204423-1.15562548 2.30144223-1.73486896 3.84294745-1.73486896M567.1613248 457.52139732c-1.57253993 1.94706183-2.65811642 3.8023663-3.2443344 5.5745084-.58620755 1.7835985-1.00183406 3.97727546-1.24065586 6.5896046l-.1488766 1.45957572h-2.28902627l.13646064-1.4595757c.25124825-2.45462055.74440398-4.66835948 1.4887975-6.64696092.74440396-1.97286793 1.76484627-3.81382273 3.06443354-5.54009674h-7.39433398v-1.61155082h9.62753543v1.63449546zM607.9493529 461.01241602c0-.694327-.182997-1.25913602-.5520976-1.7073354-.37219676-.44044168-.85606405-.6606572-1.4515705-.6606572-.60171965 0-1.08557647.2124472-1.44536772.64509935-.3598017.42490502-.5396921 1.00525068-.5396921 1.72289325 0 .71765316.18609316 1.2902199.5458844 1.71511433.36289785.42490502.84985083.63476632 1.4577837.63476632.60173012 0 1.08246988-.2098613 1.44226112-.63476632.36600446-.42489442.5427987-.99746117.5427987-1.71511433m.36289785 6.3708092c0-.75393006-.220224-1.3653596-.6668643-1.842057-.44353367-.48190097-1.00802633-.71766375-1.69970164-.71766375-.6916753 0-1.25927457.23576278-1.6934989.70469183-.43423476.47671857-.65135215 1.09591645-.65135215 1.85502893 0 .79278228.21090417 1.40940485.64203234 1.85501833.42493586.44303818.99874835.67101143 1.72142698.67101143.69166485 0 1.25307182-.22797326 1.69040275-.67619385.44353368-.4507959.65755492-1.06482196.65755492-1.84983592m1.95093943-6.40707552c0 .73060392-.20781848 1.37053146-.62343453 1.9120249-.4125199.54665468-.98012963.95341595-1.69040275 1.2124943.80642107.28757632 1.45157048.72283557 1.9354273 1.31613198.47766454.588114.71648635 1.26690434.71648635 2.03377455 0 1.26692553-.4249254 2.2307063-1.2871922 2.89912123-.852947.67620444-1.9695477 1.007826-3.34978127 1.007826-1.39263907 0-2.51854916-.33162156-3.3776989-1.007826-.85916018-.66841492-1.2871922-1.6321957-1.2871922-2.89912123 0-.76945612.2388218-1.45343948.71648633-2.0467359.47144087-.58810338 1.11659028-1.02595914 1.93233118-1.30835305-.70717698-.26685727-1.2685735-.67102203-1.67179448-1.2202732-.40631715-.54148286-.61413563-1.17364208-.61413563-1.89906357 0-1.20472595.39701824-2.14000874 1.1817349-2.79548352.7816205-.66842552 1.82068154-.99747177 3.10166054-.99747177 1.27477625 0 2.3138373.32904626 3.11095946.99747178.80643154.65547478 1.20654592 1.59075757 1.20654592 2.79548353M645.32352204 464.73247838c.5924103 0 1.09177924-.1519751 1.50429914-.46454148.40942375-.31543844.72578524-.70828455.93669988-1.20150418v-1.7721315c0-1.31048325-.21091464-2.30551748-.63273344-2.98512387-.43112817-.6853399-1.01734617-1.02371238-1.77104904-1.02371238-.6420428 0-1.17552168.36705062-1.6035537 1.0982692-.42492542.73410124-.6420428 1.64023957-.6420428 2.70983062 0 1.08393012.1954025 1.95279534.586218 2.62379617.390805.68248905.93048665 1.0151174 1.62216196 1.0151174m-.365994 5.02106043c.83124256 0 1.5105019-.35843446 2.03158572-1.07532457.5148706-.73121858.7754073-1.757803.7754073-3.10841024v-.7570353c-.3163615.50468667-.71027313.88892722-1.17242554 1.1498814-.45594965.25808214-.9584043.3813897-1.501203.3813897-1.31509938 0-2.3572461-.46742414-3.12336495-1.41083558-.7661084-.93767794-1.15071066-2.20514397-1.15071066-3.8167054 0-1.55706657.43112818-2.8560722 1.29959774-3.8912516.86225634-1.0351794 1.9323207-1.55420512 3.2071074-1.55420512 1.4298556 0 2.57748057.50468665 3.44593967 1.50546498.85914974 1.0093627 1.29648067 2.46034346 1.29648067 4.34718754v3.98301956c0 1.85816594-.48073976 3.2948076-1.4298556 4.3185094-.9491054 1.02372296-2.18046234 1.53414313-3.67855873 1.53414313-.47455792 0-.9615109-.05447364-1.4763815-.16058067-.51488108-.10608583-.9925456-.26381564-1.42367378-.46740294l.29776368-1.55135427c.403221.2093314.80643153.3498395 1.2251542.4387354.40942374.0888111.86535248.13477457 1.3771374.13477457M687.6792471 471.16494667h-2.28591964v-13.15341374l-3.2319289.2035979v-1.3706904l5.51784855-.96348404v15.28399027zM699.8158759 461.48412174c0-1.38215743-.19540252-2.4374094-.5955169-3.14569395-.39391164-.69680694-.96461752-1.05239054-1.70280827-1.05239054-.7443935 0-1.31200324.3555836-1.6934989 1.0609961-.3939221.7168795-.586218 1.76067506-.586218 3.13708838v4.04896023c0 1.38216803.19850913 2.43742.59242076 3.148566.39700777.71402866.96460704 1.07246312 1.70591486 1.07246312.73508415 0 1.29337405-.35843447 1.6903923-1.07246312.39391162-.69967898.58931413-1.757803.58931413-3.148566v-4.04896024zm2.28591964 3.76222115c0 1.97572937-.4094133 3.48692787-1.2251542 4.5393184-.8250398 1.04951846-1.93233115 1.57140564-3.34047188 1.57140564-1.4143644 0-2.53095467-.52188718-3.35600493-1.5800112-.82813595-1.04951848-1.24065586-2.55784493-1.24065586-4.53071285v-3.44965478c0-1.96427296.4125199-3.4668659 1.23135695-4.53072344.8219332-1.06385755 1.94164053-1.5943503 3.3466851-1.5943503 1.40194844 0 2.51544256.53049275 3.3435785 1.5943503.82814642 1.06385754 1.24066632 2.56645048 1.24066632 4.53072344v3.44965477zM729.25456503 471.16494667h-2.2859092v-13.15341374l-3.23192888.2035979v-1.3706904l5.51783808-.96348404v15.28399027zM740.5602232 471.16494667h-2.28902625v-13.15341374l-3.22881182.2035979v-1.3706904l5.51783808-.96348404v15.28399027zM776.14586472 471.16494667h-2.2859092v-13.15341374l-3.23192888.2035979v-1.3706904l5.51783808-.96348404v15.28399027zM790.72118086 471.14498006h-9.25844528v-1.41944114l4.53462277-5.5114186c.7226891-.95488905 1.24065585-1.74059188 1.53532338-2.3743302.2822411-.6279836.4311177-1.23303318.4311177-1.82374368 0-.80864746-.17989038-1.4595863-.54898053-1.9671344-.365994-.50755872-.8715657-.7627688-1.51051236-.7627688-.80952768 0-1.41746055.28387763-1.8237777.84305912-.40010393.56203235-.60482626 1.3334067-.60482626 2.29690133h-2.2083695l-.02165213-.05447366c-.03096148-1.31907822.37840998-2.4316759 1.209663-3.34354774.840531-.90327687 1.98815596-1.35635133 3.44902535-1.35635133 1.34301702 0 2.4068891.39571816 3.19471235 1.17568748.7785139.78857488 1.16622278 1.82089282 1.16622278 3.1170264 0 .87459873-.24193887 1.73485838-.71647588 2.583651-.48076068.8459206-1.17863875 1.7922147-2.09362374 2.8446052l-3.1202688 4.13785614h6.38630762v1.61443346zM522.34787523 500.65499556h-2.28902626v-13.14195732l-3.22572613.20072584v-1.3706798l5.5147524-.96349463v15.2754059zM530.36998462 492.066346h1.57563607c.75991608 0 1.31820598-.23799896 1.66868786-.70827396.35049234-.47315764.53038273-1.10688536.53038273-1.91552223 0-.82585858-.18298655-1.48252034-.548991-1.95280593-.3691006-.470275-.9025795-.70828454-1.60975647-.70828454-.6420428 0-1.16312662.23800955-1.57564652.70828454-.41561604.47888056-.6172213 1.10686417-.6172213 1.87823852h-2.19286786l-.0279281-.06019656c-.02782348-1.1814316.36910062-2.16787086 1.20034317-2.9535737.83125303-.79430837 1.88580528-1.18142098 3.1729975-1.18142098 1.35542252 0 2.4441056.36704002 3.26294266 1.1240647.81573044.75416322 1.22204758 1.8094258 1.22204758 3.18297767 0 .6796064-.19230636 1.32192908-.57689817 1.93846686-.38461273.6222501-.93050758 1.0925251-1.6407807 1.41655848.82813595.28101618 1.44535727.74555766 1.8423755 1.3850189.4001144.64233327.60173012 1.3764345.60173012 2.21087747 0 1.390763-.44043754 2.46608756-1.3213126 3.25179038-.88086462.78858548-2.00676425 1.17857014-3.3808055 1.17857014-1.280979 0-2.3665555-.37851764-3.25983607-1.1240859-.88707782-.75129116-1.31200324-1.79507612-1.280979-3.1428219l.03713286-.06019655h2.195964c0 .80292455.21402123 1.4538422.6482351 1.95852885.42493586.5018252.9925456.75416322 1.69040274.75416322.74129736 0 1.32440875-.240871 1.74314186-.72835713.4218188-.48460347.6296373-1.16995398.6296373-2.0646253 0-.94915554-.20160528-1.64022895-.60171966-2.09044196-.40012485-.4501918-1.0018445-.67673433-1.8113722-.67673433h-1.57563606v-1.620167zM563.9219484 500.65499556h-2.28902625v-13.14195732l-3.22882228.20072584v-1.3706798l5.51784854-.96349463v15.2754059zM570.98677273 495.42963778h3.79952815v-6.9595379l-.06516555-.00953817-.2326295.4387354-3.50176448 6.52939746zm6.0854478 0h1.7679529v1.61729492h-1.7679529v3.59015226h-2.28591965v-3.59015226h-5.99859876l-.06516555-1.19003715 5.99859876-10.4693998h2.35105382v10.04214203zM607.42973347 500.65499556h-2.28902626v-13.14195732l-3.2288118.20072584v-1.3706798l5.51783807-.96349463v15.2754059zM613.18492896 493.78870934l.79090895-8.40190247h7.40055766v1.74919745h-5.48372814l-.43422432 4.5278514c.2791345-.26953857.6079224-.48175262.9801087-.65953382.36600446-.16632478.78782327-.25521008 1.2654878-.27528267 1.29958727-.01144582 2.32002958.42725777 3.0613374 1.33627876.74129737.90901037 1.10729136 2.14204355 1.10729136 3.69912073 0 1.52553757-.38461272 2.74711433-1.16002 3.68480286-.77231116.94054998-1.904424 1.41369702-3.39631763 1.41369702-1.2375597 0-2.27351414-.36417856-3.12025836-1.0925357-.8498613-.72548506-1.25928504-1.76928062-1.23135695-3.1284934l.0247901-.06019657 2.16805683-.04016636c0 .86600375.1954025 1.53987663.59242075 2.00441812.39700778.46454148.92118776.69967898 1.5663267.69967898.75060673 0 1.31510985-.30396082 1.69041322-.9147545.38149565-.61078308.5706954-1.4538422.5706954-2.54063378 0-1.01797887-.20160526-1.83809335-.59241028-2.4574926-.3908155-.61938864-.95530814-.92908296-1.68729614-.92908296-.64825602 0-1.13830515.13191312-1.4608903.39572876-.3194681.26380505-.53968165.6537897-.6730566 1.16708192l-1.97885706-.1777812zM647.0728562 500.65499556h-2.2859092v-13.14195732l-3.23192888.20072584v-1.3706798l5.51783808-.96349463v15.2754059zM657.20310777 492.066346c-.58000478 0-1.0855765.13477457-1.4980964.38998465-.428032.26381564-.74440396.6165272-.96152135 1.05812403v1.40509147c0 1.3649569.23883227 2.42881445.7133902 3.19157264.47454745.7541738 1.08557648 1.1355529 1.83927935 1.1355529.6761632 0 1.21584483-.3498395 1.61906582-1.0609855.40011438-.70829513.5955169-1.5685442.5955169-2.59800067 0-1.03230734-.20471188-1.88109997-.61102903-2.52916677-.4156265-.65666176-.98011917-.99217277-1.6966055-.99217277m.62033838-6.89356544c.49936895 0 .9801087.0516122 1.44227158.1720371.45592874.12331815.87466185.28388822 1.25616797.48462466l-.44665075 1.5628107c-.33498022-.19500294-.67925934-.32689486-1.02353846-.43014044-.3535885-.10036292-.7568095-.14910305-1.2158553-.14910305-.9242839 0-1.66559172.4129187-2.23938328 1.23591583-.57070588.8201145-.8529679 1.91263958-.8529679 3.29193556v.43012982c.37531382-.40146227.8250398-.7111566 1.33992087-.9262215.5086783-.2236705 1.07317096-.33837248 1.6873066-.33837248 1.243752 0 2.22388162.47889116 2.9434641 1.42517465.7257957.95488907 1.08558695 2.17359378 1.08558695 3.66184764 0 1.53413254-.4125199 2.79872652-1.24377292 3.78802724-.83434916.98930072-1.9199152 1.4796589-3.25983606 1.4796589-1.41746055 0-2.57437397-.5333648-3.4831562-1.6000944-.90258995-1.0724631-1.35852915-2.56070638-1.35852915-4.46763364V491.481369c0-1.88397202.511764-3.4095202 1.52602448-4.57374066 1.02043186-1.15848695 2.3014213-1.73484778 3.84294745-1.73484778M687.6792471 500.65499556h-2.28591964v-13.14195732l-3.2319289.20072584v-1.3706798l5.51784855-.96349463v15.2754059zM702.22873762 487.0203909c-1.58183883 1.94706184-2.66121256 3.79949426-3.24743055 5.5802419-.58310093 1.77500356-.9987379 3.97154196-1.23754925 6.58388172l-.15199367 1.4538422h-2.28281305l.13026835-1.4538422c.2512273-2.45463114.7475001-4.66837007 1.49189363-6.6469715.74440397-1.97860145 1.76484628-3.81956685 3.0706363-5.5372247h-7.4036538v-1.61155082h9.63064204v1.6316234zM729.25456503 500.65499556h-2.2859092v-13.14195732l-3.23192888.20072584v-1.3706798l5.51783808-.96349463v15.2754059zM741.08253085 489.4089436c0-.77710786-.18919975-1.39935796-.55519375-1.88971613-.3691006-.49034758-.85295744-.7369521-1.4515705-.7369521-.6017301 0-1.08558693.23799896-1.44537817.70827395-.3566951.470275-.5365855 1.11546973-.5365855 1.91839428 0 .7942978.1798904 1.4280255.5396921 1.8983005.3628874.4645415.85295744.699679 1.4670826.699679.59242076 0 1.07317098-.2351375 1.43606883-.699679.35668464-.470275.5458844-1.1040027.5458844-1.8983005m.35979123 7.0484232c0-.84019768-.22021354-1.51981467-.66684337-2.04170185-.44665075-.5333648-1.0111434-.79716985-1.69971212-.79716985-.69787806 0-1.25617842.26380505-1.6966055.78856428-.43423477.51903633-.6451494 1.21010974-.6451494 2.0503074 0 .88033225.21091463 1.5570666.63894665 2.05028622.4249254.49895314.99872744.73982415 1.7276193.73982415.68547254 0 1.24686906-.240871 1.68729613-.73982415.43423478-.5018252.6544483-1.17568748.6544483-2.0502862m1.95093945-7.09144042c0 .81150892-.20780803 1.50832645-.62343454 2.1076425-.4094133.6165166-.98010872 1.05813464-1.68729615 1.3534793.80953814.3096943 1.44847434.805786 1.93233117 1.4538528.47765407.64519473.71648633 1.4022194.71648633 2.25101204 0 1.40223-.42803202 2.47469312-1.2840856 3.2116558-.85294698.7369521-1.96955816 1.1183418-3.3466851 1.1183418-1.40194845 0-2.52474147-.3813897-3.38390166-1.1183418-.85917066-.73696268-1.29029883-1.8094258-1.29029883-3.2116558 0-.8573876.23883227-1.61155082.7195825-2.26822318.47146176-.6480668 1.12280347-1.13268086 1.93544822-1.45098074-.7102836-.2924832-1.2654878-.73982415-1.6780077-1.34487372-.4094133-.60218812-.6172318-1.3018671-.6172318-2.101909 0-1.3276732.40012486-2.36572464 1.18794813-3.09981528.78161004-.73121858 1.81756448-1.09539714 3.10165008-1.09539714 1.2778724 0 2.31693344.36417856 3.1140556 1.09539714.80332494.73409064 1.20343933 1.7721421 1.20343933 3.09981528M776.14586472 500.65499556h-2.2859092v-13.14195732l-3.23192888.20072584v-1.3706798l5.51783808-.96349463v15.2754059zM785.71286836 494.22825018c.58620753 0 1.08557648-.16059127 1.49809638-.46740294.4125199-.30970492.7226891-.70255103.93669988-1.1928986V490.798668c0-1.31333412-.2140108-2.31983537-.63273344-2.99370825-.42803202-.6853505-1.02044232-1.02372298-1.7741452-1.02372298-.6420428 0-1.17552167.36991207-1.60045755 1.10114126-.4249254.73409064-.63582958 1.64310102-.63582958 2.70983062 0 1.0781966.1954025 1.95279534.57690863 2.62379617.39390117.68247845.9335828 1.01224536 1.63146088 1.01224536m-.37219676 5.01819896c.83124256 0 1.51359805-.355573 2.03158572-1.07532456.51177446-.72548508.7754073-1.7578136.7754073-3.10842084v-.75129117c-.3194681.50468665-.71027313.88606574-1.16621232 1.1498814-.46525902.25233802-.96152136.37851763-1.5074162.37851763-1.31508894 0-2.35414998-.4702856-3.12025837-1.40510207-.76610838-.94341144-1.1507211-2.21373894-1.1507211-3.8224389 0-1.55133307.428032-2.85320016 1.29650157-3.8855075.86225633-1.04378496 1.93233116-1.55421572 3.21331016-1.55421572 1.4236633 0 2.5681712.49895315 3.43664076 1.505465.8653525 1.00076773 1.29648066 2.457482 1.29648066 4.34719813v3.98300897c0 1.85530447-.4776436 3.29766906-1.4298556 4.31565852-.94600925 1.02657383-2.1773662 1.536994-3.67546258 1.536994-.47145132 0-.9646175-.05447365-1.4763815-.16058068-.51488108-.10608583-.99564176-.26380504-1.42366332-.46166942l.30395598-1.55994923c.40012485.21220344.80022877.34983948 1.21585528.43873538.4125199.0830882.86846956.12904106 1.38023356.12904106M525.61153963 530.1399786h-9.25533867v-1.41083557l4.52842-5.51429065c.73197755-.952017 1.243752-1.7463254 1.53531293-2.3743196.29155046-.63085567.43733092-1.23591584.43733092-1.8294878 0-.805786-.182997-1.4595863-.548991-1.96427295-.3691006-.51042016-.8715657-.7685023-1.51051236-.7685023-.80951722 0-1.4205567.28388823-1.81756448.84306972-.4094133.5648938-.6079224 1.3333961-.6079224 2.30263484h-2.20837998l-.0247901-.05447366c-.0278235-1.31906762.37530336-2.43454795 1.20654592-3.34929185.84054146-.89467132 1.98816642-1.3534793 3.45213196-1.3534793 1.34302748 0 2.4068891.39571818 3.1885096 1.17855955.7816205.78284137 1.16932938 1.82662633 1.16932938 3.11987726 0 .8631423-.24193887 1.72627402-.71648634 2.58080016-.48385683.8516541-1.1817349 1.79221467-2.09051714 2.84173314l-3.1171622 4.13785613h6.38010487v1.61443348zM534.48178442 520.47864338c0-1.38216803-.19850912-2.42881445-.59242075-3.137099-.39700778-.70541248-.96771366-1.06385754-1.70901102-1.06385754-.7350946 0-1.30580048.35844506-1.69350936 1.06385755-.38769842.71402864-.5800048 1.757803-.5800048 3.13709898v4.05184288c0 1.37641332.19230638 2.4316653.5955169 3.1485554.3970078.71401806.9615109 1.0667296 1.70590442 1.0667296.72578525 0 1.29029882-.35271154 1.6873066-1.06386813.38770888-.71400746.586218-1.76067507.586218-3.15141687v-4.05184288zm2.2890158 3.76222114c0 1.97572938-.40942375 3.48978934-1.23135695 4.54217986-.81883704 1.05525198-1.929235 1.5742777-3.33118345 1.5742777-1.41434348 0-2.53714696-.52475923-3.36218677-1.58288326-.82813595-1.04951847-1.24377292-2.56645048-1.24377292-4.5335743v-3.44966537c0-1.95852885.41563697-3.46972735 1.24067678-4.53071284.81883705-1.06385753 1.93542732-1.59435028 3.33737575-1.59435028 1.40814073 0 2.52475192.53049275 3.3466851 1.5943503.82813596 1.06098548 1.24376247 2.57218398 1.24376247 4.53071283v3.44966537zM567.18863575 530.1399786h-9.2584453v-1.41083557l4.52532387-5.51429065c.73508415-.952017 1.2468586-1.7463254 1.53840907-2.3743196.29157138-.63085567.44354414-1.23591584.44354414-1.8294878 0-.805786-.18919976-1.4595863-.55519376-1.96427295-.365994-.51042016-.87466185-.7685023-1.5167151-.7685023-.80332494 0-1.4050446.28388823-1.81136174.84306972-.40942375.5648938-.6079224 1.3333961-.6079224 2.30263484h-2.2114866l-.0216521-.05447366c-.0309615-1.31906762.37219675-2.43454795 1.20965253-3.34929185.84054146-.89467132 1.9912521-1.3534793 3.4428226-1.3534793 1.34612362 0 2.41619845.39571818 3.1916162 1.17855955.78161005.78284137 1.1786283 1.82662633 1.1786283 3.11987726 0 .8631423-.2450455 1.72627402-.7226891 2.58080016-.48075022.8516541-1.17553215 1.79221467-2.09051714 2.84173314l-3.1171622 4.13785613h6.38320102v1.61443348zM575.22735555 530.15650087h-2.2921224V517.0116821l-3.2319289.19499233v-1.37354127l5.5240513-.95776112v15.28112883zM610.6963999 530.1399786h-9.2584453v-1.41083557l4.52842-5.51429065c.731988-.952017 1.24376247-1.7463254 1.53531293-2.3743196.2915714-.63085567.440448-1.23591584.440448-1.8294878 0-.805786-.1861036-1.4595863-.54900146-1.96427295-.36909015-.51042016-.87466185-.7685023-1.51670465-.7685023-.80643154 0-1.4081512.28388823-1.81446834.84306972-.40631714.5648938-.61102902 1.3333961-.61102902 2.30263484h-2.20837997l-.02165212-.05447366c-.0309615-1.31906762.37219675-2.43454795 1.21274867-3.34929185.84055193-.89467132 1.98815597-1.3534793 3.44284353-1.3534793 1.34300655 0 2.40997477.39571818 3.19159528 1.17855955.78161005.78284137 1.172436 1.82662633 1.172436 3.11987726 0 .8631423-.24194934 1.72627402-.71959295 2.58080016-.48385682.8516541-1.17553214 1.79221467-2.09051713 2.84173314l-3.1171622 4.13785613h6.38320102v1.61443348zM621.99759167 530.1399786H612.742253v-1.41083557l4.5346123-5.51429065c.73199845-.952017 1.24067677-1.7463254 1.53222723-2.3743196.29155047-.63085567.43733093-1.23591584.43733093-1.8294878 0-.805786-.17990085-1.4595863-.548991-1.96427295-.3691006-.51042016-.8746723-.7685023-1.51361897-.7685023-.81262384 0-1.4143435.28388823-1.8175645.84306972-.40321053.5648938-.6079224 1.3333961-.6079224 2.30263484h-2.20837997l-.0247901-.05447366c-.0279281-1.31906762.37219675-2.43454795 1.2127382-3.34929185.84055194-.89467132 1.99127305-1.3534793 3.44593968-1.3534793 1.34612364 0 2.4099957.39571818 3.19160576 1.17855955.7754073.78284137 1.16932938 1.82662633 1.16932938 3.11987726 0 .8631423-.23883227 1.72627402-.7226891 2.58080016-.4807502.8516541-1.16932938 1.79221467-2.08742098 2.84173314l-3.1140556 4.13785613h6.37699827v1.61443348zM650.33333032 530.1399786h-9.25844528v-1.41083557l4.5377189-5.51429065c.72578525-.952017 1.24377293-1.7463254 1.5353234-2.3743196.28535816-.63085567.43423477-1.23591584.43423477-1.8294878 0-.805786-.1861036-1.4595863-.54589484-1.96427295-.3752929-.51042016-.87466185-.7685023-1.51359804-.7685023-.8157409 0-1.4205567.28388823-1.8237777.84306972-.403221.5648938-.60171966 1.3333961-.60171966 2.30263484h-2.20839043l-.0278235-.05447366c-.02792808-1.31906762.3752929-2.43454795 1.21273823-3.34929185.84055192-.89467132 1.98815597-1.3534793 3.44904628-1.3534793 1.3368038 0 2.40688908.39571818 3.18539252 1.17855955.78471666.78284137 1.172436 1.82662633 1.172436 3.11987726 0 .8631423-.23883227 1.72627402-.7195825 2.58080016-.48076067.8516541-1.17863874 1.79221467-2.08742098 2.84173314l-3.1171622 4.13785613h6.37699826v1.61443348zM655.09200543 521.5678619h1.57563607c.76610838 0 1.3213126-.23226544 1.67179448-.70254044.35358848-.4817526.52727612-1.12121384.52727612-1.9298613 0-.825848-.182997-1.47104273-.548991-1.94420038-.3691006-.4760085-.89948334-.71400745-1.6035537-.71400745-.6420428 0-1.17242553.24373246-1.5818493.71400745-.40941328.47315765-.61412516 1.1040027-.61412516 1.87537706h-2.19286784l-.03096148-.063058c-.0278235-1.17855955.365994-2.16786026 1.20654592-2.95643514.8281464-.78570283 1.88269865-1.1814316 3.16678426-1.1814316 1.36163574 0 2.44721223.3813791 3.26295313 1.12694735.81883704.75989674 1.22825033 1.8094152 1.22825033 3.18583913 0 .67100083-.19541297 1.3276732-.58000478 1.9355842-.38460226.63086628-.93360372 1.0982692-1.6438873 1.41370765.8281464.28962173 1.44536772.74555765 1.84858872 1.38501888.39700778.63659978.60171966 1.3792854.60171966 2.2223445 0 1.37929598-.44353368 2.46035406-1.32440875 3.24892894-.8808646.7799693-2.00366808 1.17282603-3.38079503 1.17282603-1.2840856 0-2.3696621-.37278413-3.25983606-1.1240753-.88707782-.7484297-1.3120137-1.79508673-1.28098945-3.1370884l.03420407-.0688869h2.195964c0 .81150893.21402123 1.45957572.64824555 1.96712383.43423478.49896373.9956313.75130176 1.6966055.75130176.74129737 0 1.318206-.23800955 1.7400248-.72262362.41562652-.48747552.6296373-1.17282602.6296373-2.0703694 0-.94629408-.20160527-1.64597306-.5986235-2.09616487-.4063067-.450213-1.00802635-.6738729-1.8175645-.6738729h-1.57563606v-1.61443346zM690.94417717 530.1399786h-9.2553282v-1.41083557l4.53150568-5.51429065c.72578525-.952017 1.2406663-1.7463254 1.53222724-2.3743196.2884543-.63085567.4342243-1.23591584.4342243-1.8294878 0-.805786-.17990084-1.4595863-.54278824-1.96427295-.37530336-.51042016-.8746723-.7685023-1.51670465-.7685023-.80953813 0-1.41746054.28388823-1.81757493.84306972-.40942376.5648938-.60171966 1.3333961-.60171966 2.30263484h-2.21768932l-.01861873-.05447366c-.0279281-1.31906762.3752929-2.43454795 1.20964207-3.34929185.84055192-.89467132 1.98815597-1.3534793 3.44593967-1.3534793 1.34300655 0 2.40998523.39571818 3.19470188 1.17855955.77852436.78284137 1.16623324 1.82662633 1.16623324 3.11987726 0 .8631423-.23883227 1.72627402-.71648634 2.58080016-.48385683.8516541-1.17553214 1.79221467-2.09362375 2.84173314l-3.11406606 4.13785613h6.38010488v1.61443348zM694.75300423 524.93389856h3.79642155v-6.97385576l-.07133693-.005299-.2264163.4387354-3.49866832 6.54086448zm6.0823412 0h1.76794243v1.61157202h-1.76794243v3.5930243h-2.28591965v-3.5930243h-5.99549215l-.06819894-1.18430365 5.992396-10.4751333h2.35725657v10.04786493zM732.51825035 530.1399786h-9.2553282v-1.41083557l4.5315057-5.51429065c.73199844-.952017 1.2437729-1.7463254 1.53841952-2.3743196.28535817-.63085567.43113863-1.23591584.43113863-1.8294878 0-.805786-.1798904-1.4595863-.5520976-1.96427295-.35979125-.51042016-.86846957-.7685023-1.5105019-.7685023-.8033354 0-1.4112578.28388823-1.82068156.84306972-.40321054.5648938-.6048158 1.3333961-.6048158 2.30263484h-2.2083695l-.02479012-.05447366c-.0279281-1.31906762.37840998-2.43454795 1.21274868-3.34929185.84055193-.89467132 1.98816643-1.3534793 3.44593967-1.3534793 1.34612363 0 2.40998524.39571818 3.1915953 1.17855955.78163095.78284137 1.16933983 1.82662633 1.16933983 3.11987726 0 .8631423-.23883227 1.72627402-.7133902 2.58080016-.48385682.8516541-1.1817349 1.79221467-2.09361328 2.84173314l-3.11717266 4.13785613h6.38011533v1.61443348zM735.00950948 523.28195882l.79090895-8.39616896h7.40055765v1.7520695h-5.4868243l-.42803202 4.51925643c.27915542-.2609542.60482627-.4760191.97391642-.6538109.3691006-.16344214.79402602-.26381566 1.26858394-.27241062 1.29649112-.01441326 2.32002958.43012982 3.0582308 1.33627875.74440396.90326628 1.1134941 2.133438 1.1134941 3.70486485 0 1.5111985-.38770886 2.74137022-1.16622276 3.67904815-.77231115.93769913-1.89821078 1.40797413-3.39321102 1.40797413-1.2344531 0-2.27661028-.3613171-3.12647157-1.08681278-.84054146-.72834653-1.24995475-1.76639798-1.2282608-3.13421634l.0279281-.05447364 2.16185406-.04016637c0 .86886522.20471188 1.53127108.60171966 1.99581257.39081547.470275.91187838.7054125 1.56323054.7054125.75059627 0 1.31200324-.2982273 1.6842-.91188245.38770887-.61364454.57381248-1.4595863.57381248-2.5463779 0-1.01224535-.1954025-1.83235983-.59242075-2.45462053-.38770888-.61938865-.95220154-.92621092-1.69040275-.92621092-.6420428 0-1.12589963.13190253-1.45157048.3871232-.32567086.26380505-.54278825.65666176-.67306705 1.1756875l-1.98195322-.18638677zM779.4095605 530.1399786h-9.2553282v-1.41083557l4.5346123-5.51429065c.72889184-.952017 1.24376245-1.7463254 1.53531292-2.3743196.28226202-.63085567.43423477-1.23591584.43423477-1.8294878 0-.805786-.18298655-1.4595863-.5520976-1.96427295-.3628874-.51042016-.87466186-.7685023-1.51359806-.7685023-.80643153 0-1.4112578.28388823-1.81757494.84306972-.4063067.5648938-.60482627 1.3333961-.60482627 2.30263484h-2.21146565l-.01861873-.05447366c-.03409947-1.31906762.37220722-2.43454795 1.20964207-3.34929185.83745577-.89467132 1.99127304-1.3534793 3.44284352-1.3534793 1.34612363 0 2.40998524.39571818 3.19471235 1.17855955.78161004.78284137 1.16931892 1.82662633 1.16931892 3.11987726 0 .8631423-.23883227 1.72627402-.71648634 2.58080016-.48076068.8516541-1.1817349 1.79221467-2.09362375 2.84173314l-3.1171622 4.13785613h6.38011533v1.61443348zM786.27910783 521.5678619c-.5831114 0-1.0855765.13478517-1.501203.3928567-.42182926.2609542-.73819075.6107937-.95841475 1.05239054v1.39935796c0 1.37929597.23883227 2.4374094.71337973 3.18871117.47455794.77136375 1.0855765 1.14414788 1.83619368 1.14414788.67925934 0 1.21584483-.35271154 1.61594876-1.06385754.40631714-.70542308.5986235-1.57141624.5986235-2.60373418 0-1.0294459-.20160526-1.86963296-.61412516-2.5205718-.4125199-.66240587-.97392687-.98930072-1.69040275-.98930072m.62033838-6.902171c.4993585 0 .97701257.06019656 1.44226113.1720477.4559392.1204355.87776846.28676028 1.25926412.48461407l-.44353368 1.56568274c-.34737527-.19213087-.6854621-.3297775-1.03595443-.4243963-.34737527-.1032244-.74750012-.14911366-1.20964207-.14911366-.9242839 0-1.66868788.4129187-2.2362976 1.23305438-.57379157.81724243-.8560536 1.91838368-.8560536 3.28333v.43300186c.37530338-.39572876.81884752-.70829514 1.33681428-.9262215.51178492-.21793697 1.07627758-.3297669 1.68729614-.3297669 1.2437729 0 2.22698822.4760191 2.94967732 1.42516404.7226891.94915555 1.08869355 2.1649988 1.08869355 3.65325266 0 1.53986605-.41873312 2.79872652-1.24997568 3.78802724-.83434917.99217277-1.92303227 1.48252035-3.26293222 1.48252035-1.41746055 0-2.57438442-.5333754-3.48007052-1.60295585-.90567563-1.0724631-1.36162528-2.5521114-1.36162528-4.46476158v-3.30628523c0-1.88684407.51177446-3.41811515 1.52912062-4.58233562 1.02664507-1.1498814 2.2983147-1.73485837 3.8429579-1.73485837M525.61153963 559.635761h-9.25533867v-1.41656908l4.52842-5.5114186c.73197755-.94914495 1.243752-1.74346394 1.53531293-2.37144755.29155046-.6279942.43733092-1.23305438.43733092-1.82376487 0-.81150892-.182997-1.46244777-.548991-1.97286793-.3691006-.50469725-.8715657-.75989673-1.51051236-.75989673-.80951722 0-1.4205567.27528266-1.81756448.84305912-.4094133.5649044-.6079224 1.3334067-.6079224 2.29402927h-2.20837998l-.0247901-.04875073c-.0278235-1.31619557.37530336-2.43454796 1.20654592-3.3406863.84054146-.90901037 1.98816642-1.35921278 3.45213196-1.35921278 1.34302748 0 2.4068891.3871232 3.1885096 1.17855954.7816205.78284137 1.16932938 1.81802077 1.16932938 3.1112823 0 .87459872-.24193887 1.73486897-.71648634 2.5836616-.48385683.84878204-1.1817349 1.7979482-2.09051714 2.8445946l-3.1171622 4.13786673h6.38010487v1.6115614zM536.8973448 546.02318957c-1.5818388 1.93846686-2.66431915 3.8023663-3.24743053 5.5745084-.58310093 1.77500354-.9987379 3.97154194-1.24376246 6.58100965l-.14267385 1.45671425h-2.29213286l.13648154-1.45671425c.24813117-2.45462054.74750012-4.66835948 1.48879748-6.6412274.7412869-1.97860144 1.76173968-3.81957745 3.06443355-5.54009675h-7.39745104V544.38295h9.63373818v1.64023957zM567.18863575 559.635761h-9.2584453v-1.41656908l4.52532387-5.5114186c.73508415-.94914495 1.2468586-1.74346394 1.53840907-2.37144755.29157138-.6279942.44354414-1.23305438.44354414-1.82376487 0-.81150892-.18919976-1.46244777-.55519376-1.97286793-.365994-.50469725-.87466185-.75989673-1.5167151-.75989673-.80332494 0-1.4050446.27528266-1.81136174.84305912-.40942375.5649044-.6079224 1.3334067-.6079224 2.29402927h-2.2114866l-.0216521-.04875073c-.0309615-1.31619557.37219675-2.43454796 1.20965253-3.3406863.84054146-.90901037 1.9912521-1.35921278 3.4428226-1.35921278 1.34612362 0 2.41619845.3871232 3.1916162 1.17855954.78161005.78284137 1.1786283 1.81802077 1.1786283 3.1112823 0 .87459872-.2450455 1.73486897-.7226891 2.5836616-.48075022.84878204-1.17553215 1.7979482-2.09051714 2.8445946l-3.1171622 4.13786673h6.38320102v1.6115614zM575.7437324 548.40645387c0-.77137435-.1798904-1.40223-.5520976-1.88971614-.365994-.49321963-.84985084-.7369521-1.4515705-.7369521-.60171965 0-1.08557648.2351375-1.44536772.71687952-.35359895.470275-.5396921 1.10114126-.5396921 1.90978872 0 .78856428.18609315 1.4223026.548991 1.89543905.3628874.470275.8498613.70254043 1.46087985.70254043.5986235 0 1.07627758-.23226544 1.44227158-.70254043.35979125-.47313645.5365855-1.10687477.5365855-1.89543905m.365994 7.05128464c0-.8430591-.2171174-1.5226655-.6668643-2.04742474-.44972597-.53049275-1.01112248-.79144693-1.7027978-.79144693-.6916753 0-1.25616796.26095418-1.6934989.78284137-.43113862.5276313-.64824555 1.2129712-.64824555 2.0560303 0 .87459874.21091463 1.55133308.63892574 2.05316887.42493586.49034758.99874834.73981355 1.72762973.73981355.68855825 0 1.24996522-.24946597 1.69040275-.75129116.43733093-.4960917.65444832-1.1756875.65444832-2.04169125m1.95093943-7.0971739c0 .8115195-.20470142 1.51407055-.6296373 2.11910952-.41250943.6021881-.9708098 1.04379556-1.68729613 1.34202286.8126343.31255578 1.45777324.8000419 1.93853392 1.4538422.47765407.6538003.71337973 1.40223002.71337973 2.25674556 0 1.3965071-.42492542 2.4689702-1.280979 3.2059223-.8591602.74556826-1.97576092 1.1183418-3.34979172 1.1183418-1.39574567 0-2.5247519-.37277354-3.38390164-1.1183418-.85295745-.7369521-1.28409608-1.8094152-1.28409608-3.2059223 0-.85451554.23883227-1.61728433.7133902-2.27108463.47765406-.65092824 1.1196864-1.1355529 1.93852345-1.45098074-.7071665-.28962174-1.27166963-.73982415-1.68108293-1.34487372-.403221-.59931606-.6079224-1.30472855-.6079224-2.10478105 0-1.3276626.39390116-2.3628526 1.17861782-3.09694323.78472712-.7369627 1.81757494-1.09539715 3.10166055-1.09539715 1.27788286 0 2.3231362.35843446 3.12025836 1.09539715.80022878.73409064 1.20034317 1.76928063 1.20034317 3.09694322M610.6963999 559.635761h-9.2584453v-1.41656908l4.52842-5.5114186c.731988-.94914495 1.24376247-1.74346394 1.53531293-2.37144755.2915714-.6279942.440448-1.23305438.440448-1.82376487 0-.81150892-.1861036-1.46244777-.54900146-1.97286793-.36909015-.50469725-.87466185-.75989673-1.51670465-.75989673-.80643154 0-1.4081512.27528266-1.81446834.84305912-.40631714.5649044-.61102902 1.3334067-.61102902 2.29402927h-2.20837997l-.02165212-.04875073c-.0309615-1.31619557.37219675-2.43454796 1.21274867-3.3406863.84055193-.90901037 1.98815597-1.35921278 3.44284353-1.35921278 1.34300655 0 2.40997477.3871232 3.19159528 1.17855954.78161005.78284137 1.172436 1.81802077 1.172436 3.1112823 0 .87459872-.24194934 1.73486897-.71959295 2.5836616-.48385682.84878204-1.17553214 1.7979482-2.09051713 2.8445946l-3.1171622 4.13786673h6.38320102v1.6115614zM616.9905239 553.2255379c.58931414 0 1.0886831-.15484717 1.49809638-.46741355.4156265-.30969432.72889185-.70827395.93669987-1.19863212v-1.76927003c0-1.3076006-.20780802-2.30837895-.63584004-2.99371885-.41872265-.6796064-1.0080368-1.01798947-1.76484628-1.01798947-.6389362 0-1.17551122.36418916-1.60354324 1.0982798-.42493587.73409064-.64205326 1.64023957-.64205326 2.70983062 0 1.07819662.1954025 1.95279535.5893246 2.62379618.3845918.68247845.9273905 1.0151174 1.62216197 1.0151174m-.37840998 5.02393248c.84365853 0 1.51981126-.3613065 2.03779894-1.08679158.51796676-.7168901.7754073-1.7463466.7754073-3.1055488v-.7427068c-.31326535.5018252-.70717698.8832043-1.1693294 1.13841438-.45284304.2666771-.95841474.3813791-1.50429913.3813791-1.3150994 0-2.35104336-.46165884-3.12025836-1.40509148-.7661084-.94054998-1.15381726-2.21086688-1.15381726-3.81669478 0-1.55707718.44043754-2.85607222 1.30269388-3.89413427.86846956-1.0351688 1.93233116-1.548461 3.210214-1.548461 1.42366332 0 2.57436352.49608107 3.43663032 1.50259292.8715657 1.0036292 1.29959772 2.4574714 1.29959772 4.34431548v3.98589162c0 1.85530448-.4714513 3.2948076-1.4236633 4.31853058-.9553186 1.02370178-2.18046234 1.536994-3.6909747 1.536994-.46214195 0-.95220153-.06019656-1.4670826-.1663142-.5148706-.10322436-.99252468-.26094358-1.4298556-.46168l.30706257-1.55420513c.403221.2093314.80952768.3498395 1.21895143.43586333.4094133.08881112.87155524.13764663 1.3709242.13764663M643.78634724 551.06960037h1.57563607c.75990564 0 1.31819555-.23799896 1.6717945-.70827395.35358848-.4760191.52417997-1.11835238.52417997-1.92126634 0-.82870945-.18300746-1.4739042-.54900146-1.94420038-.36909014-.4817314-.89947287-.7168689-1.6004471-.7168689-.6451494 0-1.17242552.24373245-1.58184927.7168689-.41561605.4702962-.61722132 1.0925463-.61722132 1.8667821h-2.18667554l-.03409947-.06019656c-.03409948-1.17569808.365994-2.16786025 1.20034316-2.94784017.83124256-.79716984 1.8889014-1.18429304 3.172987-1.18429304 1.36163576 0 2.4441161.37564558 3.26295314 1.11835238.81571998.75129118 1.22514373 1.81801018 1.22514373 3.18296708 0 .6796064-.1954025 1.3334067-.57689817 1.94706183-.38771934.6165272-.93669987 1.0868022-1.64698345 1.410825.82814642.28388822 1.44536773.74556825 1.84858873 1.38789093.40010393.63947183.60171966 1.37928538.60171966 2.21087748 0 1.38789095-.44354416 2.46035406-1.32131262 3.24892894-.88087506.78857488-2.00986038 1.17855954-3.38079504 1.17855954-1.29029882 0-2.3727687-.36991208-3.25983606-1.1240753-.88707782-.75416322-1.31510984-1.79508672-1.2840856-3.1428219l.03096148-.05447364h2.19908106c0 .79716984.21400032 1.4481087.6482351 1.9499233.43112817.5075481.99564175.76563023 1.6997121.76563023.74128692 0 1.3150994-.24373246 1.73692867-.73409064.41872264-.47886996.62653067-1.16422046.62653067-2.06748674 0-.94916616-.1954025-1.64311163-.5955169-2.09044198-.40631715-.45594652-1.00494066-.6738729-1.81446834-.6738729h-1.57563607v-1.61443346zM659.20678632 549.97719185c0-1.38216803-.19849866-2.43454796-.59550644-3.1428325-.3939221-.69967898-.9646175-1.05526258-1.70591487-1.05526258-.7382012 0-1.30269387.3555836-1.6966055 1.0609961-.38460227.71976215-.58000478 1.76067506-.58000478 3.13709898v4.04322672c0 1.390763.20160527 2.44602557.59550644 3.15717157.39701824.7111566.9646175 1.0724631 1.70901102 1.0724631.72889185 0 1.29029882-.3613065 1.6842-1.0667296.39081548-.70828453.58931414-1.76640857.58931414-3.16290507v-4.04322672zm2.28902625 3.76222114c0 1.97860143-.4125199 3.48978933-1.2282608 4.54217986-.8219332 1.046657-1.93233116 1.5742777-3.3342796 1.5742777-1.41746054 0-2.53714696-.5276207-3.3590906-1.5800112-.83124257-1.05813465-1.24686908-2.56932255-1.24686908-4.53644637v-3.44679332c0-1.9614009.4125199-3.4783329 1.2375597-4.539329.81883704-1.05525198 1.93854437-1.58287267 3.3404928-1.58287267 1.40814074 0 2.52475192.5276207 3.34978126 1.58287268.8250398 1.0609961 1.2406663 2.5779281 1.2406663 4.539329v3.4467933z"/></g><path d="M551.1049596 315.8809998c.84571.1264544 2.4351664.3410416 6.3578532.3410416 1.4597088 0 2.1524964-.1705208 2.1524964-1.0192978 0-.8257806-.3336564-1.0384586-1.8466516-1.0384586h-1.6126404c-3.3086696 0-5.7693292-.4866482-5.7693292-4.979615 0-4.3243552 3.999148-4.8972184 8.1002412-4.8972184 2.6923524 0 5.8434812.3180366 7.435256.509636v4.4929582c-1.7192132-.1053758-3.5890396-.3180538-5.9477448-.3180538-2.1270032 0-2.7178364.2759138-2.7178364 1.0595372 0 .5728804.3591312.9120042 1.9231036.9120042 5.5376364 0 7.3055084.5728804 7.3055084 4.3243466 0 4.3435246-3.153438 4.9163964-7.6901328 4.9163964-2.5371116 0-5.1530028-.1705208-7.6901236-.4253474v-3.8779292zM571.5800288 304.6694722h14.944664v4.408661h-7.8963416v1.6113304h7.8963416v3.5387968h-7.8963416v1.6113304h7.8963416v3.9622436h-14.944664v-15.1323622zM599.2583852 312.0452192h2.050542c1.6914108 0 2.4861436-.4885746 2.4861436-1.7377934 0-1.185983-.6927784-1.6745576-2.0760352-1.6745576h-2.4606504v3.412351zm-7.0483224-7.3764952h11.8398756c4.2053568 0 6.6150484.8909256 6.6150484 5.3417352 0 3.5177268-2.0505604 5.5754746-6.7934548 5.5754746h-4.6131468v4.2170702h-7.0483224v-15.13428zM620.1169564 309.6709484h-4.8193648v-5.000685h16.6870428v5.000685h-4.8193556v10.1316686h-7.0483224v-10.1316686zM636.8247636 304.6694722h14.944664v4.408661h-7.8963416v1.6113304h7.8963416v3.5387968h-7.8963416v1.6113304h7.8963416v3.9622436h-14.944664v-15.1323622zM657.4538592 304.6694722h8.7907104l2.7942976 7.7788548h.05106l2.9750224-7.7788548h8.58682v15.1323622h-6.281392l.257186-9.1123708h-.05106l-3.6909848 9.1123708h-3.6655008l-3.6909756-9.1123708h-.05106l.2548768 9.1123708h-6.2790736v-15.1323622zM693.0244816 316.262642h3.178922c1.5894656 0 2.2799256-.2548266 2.2799256-1.2089708 0-.7836406-.4610764-1.2281402-1.8953012-1.2281402h-3.5635464v2.437111zm0-5.3838838h3.5125692c1.0750936 0 1.7678812-.528814 1.7678812-1.1879008 0-.8679378-.6418196-1.2070702-1.8188492-1.2070702h-3.4616012v2.394971zm-6.6891912-6.2096644h13.4316688c2.921736 0 5.0487392.6150204 5.0487392 3.8146934 0 2.5022646-1.7956744 3.391281-4.895826 3.6882476v.044118c3.2808764.040248 5.07656.8468678 5.07656 3.6441812 0 3.2015908-2.3841984 3.9430742-6.9486864 3.9430742h-11.7124556v-15.1342714zM710.2696424 304.6694722h14.944664v4.408661h-7.8963416v1.6113304h7.8963416v3.5387968h-7.8963416v1.6113304h7.8963416v3.9622436h-14.944664v-15.1323622zM737.9481828 311.7702772h2.2034644c1.3832476 0 2.4861436-.2126694 2.4861436-1.697554 0-.9752314-.5630308-1.4408096-2.1270124-1.4408096h-2.5625956v3.1383636zm-7.0483224-7.1005986h12.1990068c3.5890396 0 6.587246.6361076 6.587246 4.3645946 0 2.8624584-1.6404336 4.2841072-5.1761776 4.3473344l5.8689652 6.4204332h-8.1512184l-4.2030476-5.2976688h-.076452v5.2976688h-7.0483224v-15.1323622z" fill="#fff"/></g><g><path d="M364.794753 622.873088c-4.39649546 15.9577628-8.79582555 31.92308135-13.18098254 47.8909185h123.02533828c-4.39649546-15.96783715-8.79582554-31.9331557-13.18098253-47.8909185H364.794753z" fill="#929292"/><path d="M412.409003 670.763298h62.23124528c-4.39933008-15.96783714-8.79582555-31.9306371-13.18381715-47.8909185H412.409003v47.8909185z" fill="#969a9d"/><path d="M482.232223 669.918258H344.00765282c-3.50642482 0-6.34954858 2.9593389-6.34954858 6.62640056v2.48836326H488.5846062v-2.48836326c0-3.66706166-2.84595838-6.62640056-6.3523832-6.62640056M205.272827 604.243008v26.39226584c0 5.07746998 4.61759582 9.18780282 10.34636263 9.18780282H610.6206381c5.70892448 0 10.34636264-4.11033284 10.34636264-9.18780282V604.243008H205.272827z" fill="#fff"/><path d="M620.968153 604.243008V380.81418015c0-5.07746998-4.63743816-9.19535858-10.34636263-9.19535858H215.62034192c-5.72876682 0-10.34636264 4.1178886-10.34636264 9.19535858V604.243008H620.968153z" fill="#0e303f"/><path d="M222.294719 385.989958h381.656054v203.00311H222.294719v-203.00311z" fill="#fff"/><path d="M242.240124 587.462268h341.851809v-178.47438H242.240124v178.47438z" fill="#b7c8b7"/><path d="M574.054333 387.939848H252.19741645c-5.3687701 0-9.71991163 3.4756491-9.71991163 7.76983874V410.440898h341.2939052v-14.73121126c0-4.29418965-4.3454723-7.76983874-9.71707702-7.76983874" fill="#a05a2c"/><path d="M262.365203 399.430888c0 2.40021274-2.4349385 4.33448702-5.41979325 4.33448702-3.0075317 0-5.43113173-1.93427428-5.43113173-4.33448702 0-2.39517557 2.42360002-4.33448702 5.43113173-4.33448702 2.98485476 0 5.41979325 1.93931145 5.41979325 4.33448702M277.562463 399.430888c0 2.40021274-2.44627697 4.33448702-5.43113173 4.33448702-3.0046971 0-5.43113173-1.93427428-5.43113173-4.33448702 0-2.39517557 2.42643464-4.33448702 5.43113173-4.33448702 2.98485476 0 5.43113173 1.93931145 5.43113173 4.33448702M292.739013 399.430888c0 2.40021274-2.44627697 4.33448702-5.43113173 4.33448702-2.98485475 0-5.43113173-1.93427428-5.43113173-4.33448702 0-2.39517557 2.44627698-4.33448702 5.43113173-4.33448702 2.98485476 0 5.43113173 1.93931145 5.43113173 4.33448702M569.598043 403.335458h-261.67227v-7.80762h261.67227v7.80762z" fill="#fff"/><path d="M579.39585724 467.19534962c0 2.06929096-1.59053973 3.76199986-3.5349288 3.76199986h-44.74260357c-1.94439054 0-3.53492808-1.6927089-3.53492808-3.76199986v-36.88604285c0-2.06929097 1.59053753-3.76199987 3.53492807-3.76199987h44.74260356c1.94438908 0 3.5349288 1.6927089 3.5349288 3.76199987v36.88604285z" fill="#afdde9"/><path d="M579.39585724 426.54680015h-51.812467v4.2927395h51.812467v-4.2927395z" fill="#06f"/><path d="M564.96966407 420.7691528c0 1.50479993-1.14659697 2.72352556-2.5598512 2.72352556h-17.06422493c-1.4139708 0-2.55840856-1.21872563-2.55840856-2.72352557 0-1.50479996 1.14443777-2.7235256 2.55840856-2.7235256h17.06422494c1.41325422 0 2.5598512 1.21872564 2.5598512 2.7235256" fill="#fea529"/><path d="M539.74390223 442.52202142c.3826801-.1940463.75455033-.3873204 1.11705182-.58060256.3646629-.1932741.73148863-.4202996 1.10480002-.68183256.37114926-.26077686.76752235-.5890404 1.1862369-.9855628.41655244-.3965224.8713-.91423124 1.36280294-1.55235432h4.85016645v16.4162897h2.53534978v3.85864496h-10.90242708v-3.85864496h2.72560586v-10.75986094l-2.72560585 1.362909-1.25398082-3.21898552zM561.39878246 459.3731859c-.69040752 0-1.37649955-.09663705-2.0575398-.2899192-.68247634-.19250995-1.32676922-.45404293-1.93430014-.7838428-.61041035-.32826355-1.15452817-.7048456-1.63593998-1.1305184-.4821335-.42413643-.85904746-.85977536-1.13074188-1.30462433l2.97135478-3.2780424c.52609768.57983035 1.09327282 1.082964 1.7022471 1.50787263.608967.42643694 1.31307186.63888723 2.11230733.63888723.92679064 0 1.6582829-.270743 2.19446225-.8129932.53546494-.54071382.80355825-1.2371296.80355825-2.087703 0-.3865482-.07350934-.74932726-.21836298-1.087565-.14486093-.33900187-.3394449-.63812307-.58519528-.89965604-.24575038-.26077688-.5412238-.46402517-.8849915-.60898075-.34520376-.14495558-.70987103-.21858764-1.09110778-.21858764-.63636168 0-1.14876202.14112678-1.53936603.42183594-.39276905.279945-.73149227.58520356-1.02336458.9134671l-3.4880852-1.65282822 1.6626057-9.97831864h10.7921609v4.32188988h-7.33074142l-.4619556 2.81326113c.27169442-.19328216.66086237-.35741392 1.17038327-.4931675.50807753-.1349814 1.09903168-.2024761 1.77142635-.2024761.79851378 0 1.58116518.14495557 2.34364597.43487477.76391685.28991116 1.43991264.72478594 2.03087407 1.3046163.59023247.58060256 1.0673215 1.30155165 1.4305454 2.16133506.3632239.86053952.54555388 1.85146747.54555388 2.97278386 0 1.21795343-.2414276 2.28711444-.72211772 3.20518253-.4821335.91883224-1.10912792 1.68197055-1.88097598 2.2909513-.77184077.60973684-1.6438639 1.06915296-2.61606207 1.3790125-.9721909.3083232-1.94871187.46325297-2.93027732.46325297" fill="#152137"/><path d="M553.5482198 415.15571762h-23.8631069c-1.16821968 0-2.11591207 1.0108683-2.11591207 2.25719992v9.21901717h25.97901897v-11.47621708z" fill="#003380"/><path d="M577.32470027 415.15571762h-24.07066362v11.4762171H579.440616v-9.21901718c0-1.24633162-.94697582-2.25719992-2.11591573-2.25719992" fill="#003380"/><path d="M454.853303 484.492158h-29.78472457l29.78472457-28.42450792V484.492158z" fill="#15b0bf"/><path d="M425.068183 484.492158h29.78472457L425.068183 512.91418375V484.492158z" fill="#d1ecfb"/><g clip-path="url(#a)" opacity=".10000598" transform="matrix(1.3 0 0 -1.24 -373.65 1097.71)"><path d="M637.0234 517.0063l-22.901-22.903v-73.908h43.393V517.0063h-20.492z"/></g><path d="M362.479943 570.632208V451.8457389l-.44869705-28.80682332 113.321371.3823154V570.632208z" fill="#fff"/><path d="M389.907873 538.957928v-18.55542147c-9.51638923.60192492-17.06499153 8.14274097-17.06499153 17.38632194 0 9.6419684 8.19239247 17.4533404 18.29014373 17.4533404 9.68286426 0 17.5969313-7.19951843 18.2186115-16.28424087H389.907873z" fill="#2c5871"/><path d="M408.470493 534.575408c0-7.20572383-6.1153563-13.04501606-13.66265803-13.04501606V534.575408H408.470493z" fill="#f99b1c"/><path d="M398.817673 485.085388c-.36546472 1.07601835-.9520291 2.04406255-1.74018434 2.8532482l5.937176 7.9094175c3.00045237-2.46603052 5.1555237-5.83805113 5.97229184-9.68664735L398.817673 485.085388z" fill="#a6dae9"/><path d="M392.759283 475.053108c3.4582587.6875596 6.08024048 3.47254828 6.42359524 6.8855246l10.15497705 1.06981294c0-.10921524.01430644-.21470723.01430644-.32764572 0-9.08224028-7.29108624-16.5349395-16.59287874-17.33791974v9.71022792z" fill="#f99b1c"/><path d="M385.089073 477.458948c1.13151-1.19516225 2.6284847-2.06391986 4.3543626-2.4052175v-9.711469c-5.42084328.46540587-10.13416767 3.19206368-13.14892648 7.17593786l8.79456388 4.94074864z" fill="#15b0bf"/><g><path d="M394.391393 489.790968c-1.0092549.43065556-2.1199555.67638985-3.29308426.67638985-4.5052306 0-8.15727664-3.48868234-8.15727664-7.78655035 0-.87992735.18598382-1.70648816.46560985-2.49209326l-8.79456388-4.94447188c-1.11720355 2.26001087-1.76879723 4.77072036-1.76879723 7.43656514 0 9.62087 8.1715831 17.41610792 18.2550279 17.41610792 3.3659171 0 6.50943393-.87868627 9.2159538-2.40273533l-5.92286954-7.9032121z" fill="#2c5871"/></g><path d="M417.946043 469.655018h43.99883v-4.31275h-43.99883v4.31275z" fill="#15b0bf"/><path d="M417.946043 483.189028h43.99883v-4.30903h-43.99883v4.30903zM417.946043 496.726758h43.99883v-4.30533h-43.99883v4.30533z" fill="#a6dae9"/><path d="M417.946043 524.711918h30.6145v-4.30905h-30.6145v4.30905z" fill="#15b0bf"/><path d="M417.946043 538.257088h43.99883v-4.31276h-43.99883v4.31276zM417.946043 551.791088h43.99883v-4.30904h-43.99883v4.30904z" fill="#a6dae9"/></g></svg>