<svg xmlns="http://www.w3.org/2000/svg" width="1000" height="1000"><defs><clipPath id="a"><path d="M614.122 517.006h43.394v-96.81h-43.394v96.81z"/></clipPath></defs><path d="M601.054 663.522l-.03-43.952 127.742-.087.03 43.952-127.742.087z" fill="#c83737"/><path d="M657.93 651.796l-.014-20.574 58.882-.04.015 20.573-58.883.04z" fill="#fff"/><path d="M626.995 652.75c-6.614.005-11.98-5.015-11.986-11.213-.01-6.196 5.35-11.225 11.96-11.23 6.61-.004 11.98 5.018 11.98 11.214.002 6.2-5.358 11.23-11.97 11.23" fill="#a7babc"/><path d="M626.992 649.946c-4.96.003-8.985-3.762-8.988-8.412-.004-4.647 4.015-8.418 8.976-8.422 4.96-.003 8.983 3.762 8.986 8.41.004 4.65-4.014 8.42-8.974 8.424" fill="#4d4d4d"/><path d="M601.086 707.942l-.03-43.95 127.742-.088.03 43.95-127.742.088z" fill="#2690a8"/><path d="M657.962 696.214l-.014-20.575 58.882-.04.015 20.57-58.883.04z" fill="#fff"/><path d="M627.027 697.17c-6.614.005-11.98-5.016-11.986-11.213 0-6.198 5.36-11.226 11.97-11.23 6.62-.005 11.98 5.016 11.99 11.213.01 6.198-5.35 11.226-11.96 11.23" fill="#a7babc"/><path d="M627.024 694.365c-4.96.003-8.985-3.763-8.988-8.41-.004-4.648 4.015-8.42 8.976-8.424 4.96 0 8.983 3.77 8.986 8.42.004 4.65-4.014 8.42-8.974 8.43" fill="#4d4d4d"/><path d="M793.87 574.632H507.615V292.058H793.87v282.574z" fill="#fea"/><path d="M793.87 365.364H507.615v-73.306H793.87v73.306z" fill="#f95"/><path d="M-276.05 745.05H36.365" fill="none" stroke="#5390c6" stroke-width="1.777" stroke-miterlimit="10" transform="matrix(.92 0 0 .86 760.61 -232)"/><path d="M523.832 390.93c0-1.034-.188-1.88-.554-2.493-.38-.606-1.038-1.223-1.976-1.815-1.927-.98-3.373-2.085-4.332-3.345-.972-1.24-1.446-2.987-1.446-5.236 0-2.22.558-4.03 1.68-5.43 1.118-1.4 2.547-2.09 4.286-2.09 1.767 0 3.203.78 4.304 2.34 1.105 1.56 1.638 3.53 1.607 5.9l-.02.108h-3.52c0-1.24-.21-2.25-.63-3.013-.42-.766-1.01-1.164-1.79-1.164-.72 0-1.28.324-1.69.97-.41.65-.61 1.43-.61 2.41 0 .89.23 1.63.68 2.206.46.57 1.23 1.22 2.35 1.92 1.75.87 3.07 1.98 3.96 3.306.89 1.34 1.338 3.13 1.338 5.42 0 2.34-.54 4.18-1.604 5.506-1.072 1.34-2.494 1.997-4.27 1.997-1.765 0-3.292-.753-4.584-2.263-1.296-1.507-1.93-3.67-1.88-6.498l.023-.1h3.53c0 1.67.24 2.88.73 3.61.48.73 1.21 1.096 2.184 1.096.767 0 1.335-.297 1.7-.893.366-.602.55-1.4.55-2.433m35.36-19.197l3.32 19.92h.077l3.358-19.92h4.723v27.13h-3.6v-7.884l.303-10.55-.08-.01-3.54 18.44h-2.403l-3.502-18.3-.07.02.31 10.398v7.88h-3.6v-27.13h4.696zm54.384 3.4h-4.173v22.89H605.8v-22.9h-4.154v-4.23h11.945v4.237zm42.965 13.073h.078l2.01-17.313h3.51l-3.585 27.133h-3.37l-2.604-16.63h-.08l-2.582 16.63h-3.362L643 370.905h3.513l2 17.316h.075l2.672-17.314h2.6l2.703 17.312zm41.777-12.235h-4.18v22.894h-3.61v-22.9h-4.146v-4.24h11.936v4.237zm39.517 11.617h-6.29v11.28h-3.63v-27.13h11.024v4.235h-7.393v7.39h6.29v4.228zm44.81 4.184c0-1.037-.19-1.883-.56-2.495-.384-.607-1.04-1.224-1.98-1.816-1.93-.98-3.37-2.086-4.33-3.346-.964-1.24-1.448-2.99-1.448-5.24 0-2.23.556-4.034 1.68-5.436 1.117-1.4 2.55-2.095 4.29-2.095 1.762 0 3.2.78 4.302 2.34 1.1 1.555 1.633 3.523 1.6 5.894l-.026.11h-3.514c0-1.24-.21-2.25-.634-3.012-.426-.765-1.026-1.163-1.792-1.163-.726 0-1.287.328-1.685.97-.41.65-.61 1.434-.61 2.41 0 .895.226 1.634.676 2.21.44.57 1.232 1.22 2.344 1.923 1.758.872 3.08 1.98 3.964 3.304.88 1.34 1.325 3.13 1.325 5.42 0 2.34-.536 4.175-1.6 5.5-1.07 1.34-2.49 1.998-4.265 1.998-1.766 0-3.302-.758-4.595-2.267-1.294-1.503-1.918-3.664-1.87-6.494l.02-.105h3.525c0 1.67.238 2.88.73 3.61.48.73 1.21 1.095 2.194 1.095.76 0 1.324-.293 1.693-.89.374-.6.56-1.395.56-2.43" fill="#d45500"/><path d="M607.43 441.666h-2.29v-13.148l-3.228.2v-1.367l5.518-.96v15.28zm42.903-.023h-9.258v-1.413l4.538-5.51c.725-.954 1.243-1.742 1.535-2.373.285-.628.434-1.24.434-1.832 0-.798-.186-1.463-.546-1.962-.375-.51-.874-.765-1.513-.765-.816 0-1.42.278-1.824.837-.41.568-.61 1.333-.61 2.305h-2.21l-.03-.057c-.03-1.32.37-2.43 1.21-3.338.84-.906 1.99-1.365 3.45-1.365 1.334 0 2.404.39 3.182 1.187.785.777 1.173 1.818 1.173 3.11 0 .876-.24 1.734-.72 2.585-.48.85-1.18 1.795-2.087 2.84l-3.116 4.14h6.38v1.61zm34.06-8.568h1.575c.763 0 1.325-.238 1.675-.708.348-.48.524-1.113.524-1.92 0-.825-.183-1.48-.552-1.95-.366-.478-.896-.71-1.603-.71-.64 0-1.166.24-1.58.71-.408.48-.616 1.102-.616 1.874h-2.184l-.034-.05c-.03-1.18.363-2.17 1.2-2.96.825-.79 1.886-1.18 3.17-1.18 1.362 0 2.45.38 3.266 1.13.813.76 1.225 1.81 1.225 3.19 0 .672-.2 1.323-.59 1.94-.38.62-.94 1.092-1.64 1.41.83.286 1.44.75 1.84 1.385.4.65.6 1.38.6 2.217 0 1.387-.447 2.468-1.325 3.257-.88.79-2.007 1.174-3.375 1.174-1.287 0-2.373-.373-3.26-1.133-.893-.745-1.32-1.794-1.287-3.133l.036-.06h2.194c0 .8.22 1.455.65 1.96.426.505.994.75 1.692.75.74 0 1.324-.24 1.74-.724.42-.486.63-1.17.63-2.066 0-.95-.196-1.646-.6-2.1-.4-.446-1.005-.673-1.81-.673h-1.577v-1.61zm40.624 3.363h3.796v-6.965l-.068-.015-.223.442-3.505 6.538zm6.082 0h1.77v1.61h-1.77v3.594h-2.29v-3.593h-6l-.06-1.19 5.99-10.47h2.35v10.04zm39.5-1.644l.79-8.402h7.39v1.75h-5.48l-.44 4.527c.28-.28.61-.49.973-.66.366-.17.794-.26 1.272-.28 1.293-.01 2.314.43 3.052 1.34.743.9 1.112 2.14 1.112 3.69 0 1.52-.39 2.74-1.166 3.68-.77.942-1.9 1.412-3.39 1.412-1.24 0-2.28-.367-3.124-1.095-.845-.727-1.255-1.766-1.224-3.136l.02-.05 2.165-.04c0 .866.2 1.53.59 2.004.4.463.924.692 1.575.692.75 0 1.305-.3 1.686-.91.384-.618.57-1.46.57-2.548 0-1.01-.2-1.83-.586-2.454-.4-.62-.96-.926-1.69-.926-.657 0-1.14.132-1.46.387-.32.26-.544.65-.678 1.17l-1.975-.18zm-249.44 27.782c-.58 0-1.08.13-1.5.39-.428.255-.75.608-.968 1.055v1.4c0 1.37.242 2.43.717 3.2.48.767 1.092 1.15 1.836 1.15.68 0 1.22-.36 1.62-1.065.402-.705.61-1.574.61-2.603 0-1.03-.21-1.872-.62-2.525-.42-.654-.98-.98-1.7-.98m.625-6.905c.5 0 .98.06 1.44.176.46.118.88.284 1.26.485l-.443 1.56c-.336-.183-.686-.323-1.03-.424-.35-.098-.75-.153-1.21-.153-.92 0-1.67.415-2.24 1.235-.57.83-.855 1.92-.855 3.29v.43c.38-.395.82-.705 1.34-.93.514-.22 1.076-.326 1.687-.326 1.243 0 2.227.476 2.952 1.425.713.95 1.082 2.17 1.082 3.655 0 1.54-.415 2.795-1.246 3.784-.835.99-1.92 1.48-3.26 1.48-1.42 0-2.57-.53-3.48-1.6-.91-1.07-1.36-2.56-1.36-4.46V462c0-1.89.508-3.417 1.526-4.584 1.02-1.157 2.3-1.736 3.842-1.736m45.36 1.847c-1.57 1.95-2.654 3.805-3.24 5.577-.584 1.785-1 3.978-1.24 6.59l-.15 1.46h-2.29l.14-1.46c.25-2.454.744-4.67 1.49-6.646.743-1.975 1.764-3.816 3.063-5.543h-7.394v-1.61h9.623v1.634zm40.79 3.493c0-.694-.18-1.26-.55-1.707-.37-.44-.854-.66-1.45-.66-.6 0-1.085.21-1.445.645-.36.425-.54 1.006-.54 1.723 0 .72.19 1.29.55 1.72.362.43.85.64 1.457.64.6 0 1.08-.21 1.44-.634.37-.426.545-1 .545-1.717m.36 6.37c0-.755-.22-1.366-.666-1.84-.44-.485-1.008-.72-1.7-.72-.69 0-1.26.235-1.69.704-.436.48-.65 1.098-.65 1.857 0 .795.21 1.41.64 1.857.424.444 1 .67 1.72.67.69 0 1.25-.226 1.69-.674.442-.45.66-1.065.66-1.85m1.95-6.407c0 .73-.21 1.37-.62 1.91-.418.545-.98.95-1.69 1.21.8.29 1.45.726 1.93 1.32.477.587.716 1.266.716 2.033 0 1.267-.425 2.23-1.287 2.9-.854.675-1.97 1.007-3.35 1.007-1.393 0-2.52-.33-3.378-1.004-.86-.67-1.29-1.632-1.29-2.9 0-.77.24-1.453.72-2.046.47-.59 1.112-1.027 1.93-1.31-.71-.266-1.27-.67-1.67-1.22-.41-.54-.618-1.173-.618-1.9 0-1.205.4-2.14 1.183-2.795.78-.67 1.82-1 3.1-1 1.272 0 2.312.33 3.11 1 .805.657 1.205 1.59 1.205 2.797m35.064 3.753c.59 0 1.09-.15 1.503-.465.41-.315.726-.71.937-1.2v-1.78c0-1.31-.21-2.306-.636-2.986-.43-.688-1.016-1.027-1.77-1.027-.64 0-1.175.367-1.603 1.1-.425.732-.642 1.64-.642 2.71 0 1.08.2 1.95.59 2.62.394.684.934 1.016 1.626 1.016m-.367 5.023c.83 0 1.51-.36 2.03-1.075.513-.73.774-1.76.774-3.11v-.76c-.315.505-.71.89-1.17 1.15-.456.26-.958.38-1.5.38-1.316 0-2.358-.465-3.124-1.41-.767-.936-1.15-2.204-1.15-3.816 0-1.557.43-2.856 1.298-3.89.866-1.036 1.936-1.555 3.21-1.555 1.43 0 2.578.507 3.446 1.508.86 1.01 1.3 2.46 1.3 4.348v3.984c0 1.86-.48 3.296-1.43 4.32-.95 1.024-2.18 1.534-3.68 1.534-.475 0-.962-.056-1.477-.16-.515-.11-.99-.266-1.424-.47l.296-1.55c.4.21.804.35 1.222.44.41.087.868.133 1.38.133m42.72 1.41h-2.286v-13.16l-3.23.205v-1.37l5.52-.964v15.29zm12.137-9.68c0-1.383-.193-2.44-.593-3.147-.393-.7-.963-1.057-1.7-1.057-.746 0-1.31.356-1.695 1.06-.394.72-.586 1.762-.586 3.14v4.05c0 1.38.195 2.435.59 3.146.395.716.963 1.074 1.704 1.074.736 0 1.295-.357 1.69-1.07.395-.7.59-1.758.59-3.15v-4.048zm2.29 3.76c0 1.977-.41 3.488-1.225 4.54-.826 1.05-1.934 1.57-3.34 1.57-1.416 0-2.53-.52-3.358-1.58-.83-1.047-1.24-2.556-1.24-4.53v-3.45c0-1.963.41-3.465 1.23-4.53.82-1.063 1.94-1.593 3.346-1.593 1.4 0 2.515.53 3.343 1.596.83 1.063 1.248 2.565 1.248 4.53v3.45zm27.153 5.92h-2.287v-13.16l-3.234.205v-1.37l5.52-.964v15.29zm11.304 0h-2.29v-13.16l-3.23.205v-1.37l5.52-.964v15.29zm35.587 0h-2.287v-13.16l-3.233.205v-1.37l5.517-.964v15.29zm14.573-.02h-9.26v-1.42l4.536-5.51c.724-.956 1.24-1.74 1.537-2.375.28-.63.43-1.23.43-1.82 0-.81-.18-1.46-.55-1.97-.366-.51-.872-.765-1.51-.765-.81 0-1.42.284-1.824.843-.4.56-.6 1.33-.6 2.294h-2.21l-.02-.054c-.03-1.32.377-2.434 1.21-3.346.84-.902 1.986-1.355 3.447-1.355 1.343 0 2.407.39 3.195 1.17.78.79 1.165 1.82 1.165 3.117 0 .87-.24 1.73-.715 2.58-.483.845-1.18 1.79-2.096 2.844l-3.12 4.14h6.386v1.613zm-268.373 29.51h-2.29v-13.14l-3.226.2v-1.37l5.516-.963v15.278zm8.02-8.59h1.576c.76 0 1.32-.237 1.67-.707.35-.478.53-1.11.53-1.92 0-.826-.183-1.483-.55-1.953-.37-.47-.902-.71-1.61-.71-.64 0-1.162.24-1.575.71-.413.48-.615 1.105-.615 1.876h-2.19l-.027-.06c-.028-1.183.37-2.17 1.2-2.955.832-.794 1.886-1.18 3.174-1.18 1.353 0 2.442.366 3.26 1.123.81.754 1.22 1.81 1.22 3.183 0 .68-.2 1.32-.58 1.936-.39.625-.93 1.095-1.64 1.42.82.28 1.44.745 1.84 1.385.4.64.6 1.373.6 2.21 0 1.39-.44 2.464-1.32 3.25-.88.79-2.01 1.18-3.38 1.18-1.28 0-2.37-.376-3.26-1.12-.89-.75-1.31-1.797-1.28-3.145l.033-.06h2.196c0 .803.213 1.454.65 1.96.424.5.992.753 1.69.753.74 0 1.324-.24 1.743-.73.42-.484.63-1.17.63-2.064 0-.95-.206-1.64-.606-2.09-.4-.45-1-.675-1.81-.675h-1.575v-1.62zm33.55 8.59h-2.29v-13.14l-3.226.2v-1.37l5.52-.963v15.278zm7.067-5.225h3.8v-6.96l-.064-.01-.23.44-3.5 6.53zm6.087 0h1.767v1.62h-1.768v3.59h-2.29v-3.59h-5.995l-.065-1.19 6-10.47h2.352v10.043zm30.357 5.228h-2.29v-13.14l-3.228.2v-1.37l5.515-.963v15.275zm5.755-6.865l.79-8.402h7.4v1.75h-5.486l-.435 4.525c.28-.27.606-.483.98-.66.365-.167.786-.256 1.264-.276 1.3-.013 2.32.425 3.06 1.33.742.91 1.11 2.146 1.11 3.7 0 1.53-.387 2.75-1.16 3.688-.775.94-1.907 1.414-3.4 1.414-1.236 0-2.272-.366-3.12-1.095-.85-.725-1.26-1.77-1.23-3.128l.025-.06 2.166-.04c0 .865.194 1.54.59 2.003.4.467.92.7 1.57.7.75 0 1.314-.302 1.69-.913.38-.61.57-1.455.57-2.54 0-1.02-.2-1.84-.59-2.46-.39-.62-.957-.93-1.69-.93-.65 0-1.14.134-1.46.397-.32.266-.54.656-.673 1.17l-1.98-.176zm33.884 6.866h-2.286v-13.14l-3.23.2v-1.37l5.52-.963v15.273zm10.13-8.59c-.58 0-1.085.136-1.498.39-.43.265-.75.618-.967 1.06v1.405c0 1.364.24 2.427.714 3.19.474.754 1.085 1.136 1.84 1.136.675 0 1.215-.35 1.62-1.06.4-.71.594-1.57.594-2.6 0-1.032-.203-1.88-.61-2.528-.415-.66-.98-1-1.696-1m.62-6.89c.5 0 .98.05 1.444.172.456.126.874.287 1.256.487l-.448 1.56c-.332-.197-.68-.33-1.02-.43-.354-.1-.757-.15-1.216-.15-.925 0-1.667.41-2.24 1.235-.57.82-.854 1.91-.854 3.29v.43c.377-.4.827-.71 1.34-.927.51-.223 1.075-.34 1.69-.34 1.243 0 2.224.48 2.943 1.43.726.95 1.086 2.17 1.086 3.66 0 1.533-.414 2.8-1.245 3.79-.833.99-1.92 1.48-3.26 1.48-1.416 0-2.573-.537-3.482-1.6-.9-1.076-1.36-2.565-1.36-4.47v-3.31c0-1.888.516-3.41 1.53-4.577 1.02-1.16 2.3-1.734 3.843-1.734m29.855 15.483h-2.28v-13.14l-3.233.2v-1.37l5.52-.96v15.274zm14.55-13.634c-1.583 1.945-2.66 3.8-3.25 5.58-.58 1.774-.997 3.97-1.236 6.583l-.15 1.454h-2.284l.13-1.453c.25-2.454.745-4.67 1.49-6.646.744-1.98 1.764-3.82 3.07-5.54h-7.404v-1.61h9.63v1.63zm27.025 13.633h-2.284v-13.14l-3.234.2v-1.37l5.52-.96v15.274zm11.83-11.244c0-.78-.19-1.4-.556-1.89-.37-.49-.854-.74-1.45-.74-.604 0-1.088.24-1.448.71-.355.47-.535 1.113-.535 1.916 0 .79.18 1.422.54 1.892.364.464.854.7 1.47.7.594 0 1.075-.236 1.44-.7.354-.47.544-1.105.544-1.9m.36 7.047c0-.84-.22-1.52-.668-2.04-.448-.537-1.01-.8-1.7-.8-.7 0-1.257.263-1.698.79-.436.52-.647 1.21-.647 2.05 0 .88.21 1.555.64 2.05.424.5.998.74 1.727.74.687 0 1.25-.24 1.69-.74.433-.5.653-1.177.653-2.05m1.95-7.09c0 .81-.208 1.505-.623 2.105-.41.615-.98 1.057-1.682 1.35.81.31 1.448.808 1.93 1.456.48.648.717 1.405.717 2.25 0 1.406-.43 2.48-1.284 3.216-.853.738-1.97 1.12-3.346 1.12-1.4 0-2.526-.38-3.385-1.117-.86-.738-1.29-1.81-1.29-3.21 0-.857.24-1.61.72-2.268.47-.65 1.123-1.135 1.935-1.45-.71-.296-1.264-.74-1.677-1.348-.41-.602-.617-1.302-.617-2.102 0-1.327.4-2.365 1.19-3.1.784-.73 1.82-1.094 3.104-1.094 1.28 0 2.318.365 3.115 1.096.804.73 1.204 1.77 1.204 3.1m32.75 11.29h-2.29v-13.14l-3.23.2v-1.37l5.52-.964v15.276zm9.566-6.43c.586 0 1.085-.16 1.5-.468.412-.31.723-.7.94-1.19v-1.77c0-1.315-.217-2.32-.636-2.995-.428-.69-1.02-1.028-1.774-1.028-.64 0-1.174.37-1.6 1.103-.424.734-.635 1.643-.635 2.71 0 1.078.198 1.953.58 2.624.393.683.933 1.013 1.63 1.013m-.37 5.02c.83 0 1.514-.357 2.03-1.077.514-.722.778-1.755.778-3.105v-.75c-.32.51-.71.89-1.167 1.15-.465.257-.96.38-1.507.38-1.317 0-2.356-.47-3.12-1.402-.768-.942-1.15-2.212-1.15-3.82 0-1.55.425-2.853 1.294-3.885.86-1.043 1.93-1.553 3.21-1.553 1.425 0 2.57.5 3.44 1.504.863 1 1.294 2.46 1.294 4.35v3.983c0 1.855-.476 3.3-1.43 4.315-.944 1.026-2.175 1.537-3.673 1.537-.47 0-.963-.054-1.475-.16-.515-.106-.995-.264-1.423-.46l.31-1.56c.4.21.8.35 1.215.437.413.084.87.13 1.38.13m-259.74 30.89h-9.255v-1.41l4.53-5.514c.73-.953 1.24-1.747 1.53-2.375.29-.63.44-1.234.44-1.83 0-.804-.18-1.46-.55-1.96-.368-.51-.87-.77-1.51-.77-.81 0-1.42.283-1.817.84-.41.568-.606 1.337-.606 2.306h-2.208l-.028-.05c-.03-1.32.37-2.435 1.203-3.35.84-.894 1.988-1.353 3.452-1.353 1.34 0 2.404.394 3.185 1.177.784.784 1.17 1.828 1.17 3.12 0 .864-.24 1.727-.715 2.58-.487.854-1.185 1.794-2.09 2.844l-3.12 4.138h6.38v1.615zm8.87-9.66c0-1.383-.2-2.43-.592-3.137-.4-.707-.97-1.065-1.71-1.065s-1.31.36-1.696 1.065c-.387.712-.58 1.755-.58 3.135v4.05c0 1.375.193 2.43.596 3.15.4.71.96 1.064 1.708 1.064.728 0 1.29-.353 1.69-1.064.387-.71.586-1.76.586-3.15v-4.05zm2.29 3.76c0 1.978-.41 3.49-1.232 4.544-.82 1.056-1.93 1.575-3.335 1.575-1.414 0-2.537-.524-3.362-1.583-.828-1.05-1.244-2.568-1.244-4.535v-3.45c0-1.955.417-3.47 1.24-4.53.82-1.06 1.937-1.592 3.34-1.592 1.407 0 2.524.53 3.346 1.594.83 1.06 1.244 2.574 1.244 4.53v3.45zm30.42 5.9h-9.26v-1.41l4.526-5.514c.738-.953 1.25-1.747 1.54-2.375.29-.63.444-1.234.444-1.83 0-.804-.19-1.46-.555-1.96-.367-.51-.875-.77-1.517-.77-.805 0-1.406.283-1.813.84-.41.568-.61 1.337-.61 2.306h-2.21l-.025-.05c-.03-1.32.37-2.435 1.21-3.35.84-.894 1.99-1.353 3.442-1.353 1.345 0 2.415.394 3.19 1.177.782.784 1.18 1.828 1.18 3.12 0 .864-.246 1.727-.724 2.58-.48.854-1.175 1.794-2.09 2.844l-3.12 4.138h6.385v1.615zm8.037.018h-2.29v-13.14l-3.23.196v-1.374l5.52-.954v15.282zm35.47-.015h-9.26v-1.41l4.53-5.515c.73-.953 1.246-1.747 1.538-2.375.29-.63.44-1.234.44-1.83 0-.804-.185-1.46-.55-1.96-.367-.51-.873-.77-1.515-.77-.805 0-1.407.283-1.813.842-.406.564-.61 1.333-.61 2.302h-2.21l-.02-.053c-.032-1.32.37-2.434 1.21-3.35.84-.893 1.99-1.352 3.44-1.352 1.346 0 2.41.394 3.195 1.177s1.17 1.826 1.17 3.12c0 .86-.24 1.725-.72 2.58-.48.85-1.17 1.79-2.09 2.84l-3.113 4.136h6.385v1.61zm11.3 0h-9.252v-1.41l4.536-5.515c.732-.953 1.24-1.747 1.532-2.375.29-.63.433-1.234.433-1.83 0-.804-.18-1.46-.55-1.96-.37-.51-.873-.77-1.512-.77-.81 0-1.413.283-1.816.842-.402.564-.61 1.333-.61 2.302h-2.21l-.022-.053c-.03-1.32.37-2.434 1.212-3.35.84-.893 1.99-1.352 3.445-1.352 1.347 0 2.41.394 3.19 1.177.778.78 1.17 1.826 1.17 3.12 0 .86-.237 1.725-.72 2.58-.48.85-1.17 1.79-2.087 2.84l-3.116 4.136H622v1.61zm28.34 0h-9.26v-1.41l4.536-5.515c.724-.953 1.242-1.747 1.534-2.375.285-.63.434-1.234.434-1.83 0-.804-.185-1.46-.545-1.96-.377-.51-.876-.77-1.515-.77-.814 0-1.42.283-1.822.842-.407.564-.606 1.333-.606 2.302h-2.2l-.03-.053c-.026-1.32.377-2.434 1.215-3.35.84-.893 1.99-1.352 3.45-1.352 1.337 0 2.407.394 3.185 1.177.78.78 1.17 1.826 1.17 3.12 0 .86-.24 1.725-.72 2.58-.48.85-1.18 1.79-2.09 2.84l-3.114 4.136h6.377v1.61zm4.76-8.57h1.572c.765 0 1.32-.23 1.67-.704.354-.48.53-1.12.53-1.93 0-.824-.185-1.47-.55-1.943-.37-.475-.9-.71-1.605-.71-.645 0-1.175.24-1.585.71-.41.475-.614 1.106-.614 1.878h-2.193l-.03-.065c-.03-1.18.363-2.17 1.204-2.96.83-.79 1.888-1.18 3.17-1.18 1.36 0 2.45.38 3.265 1.12.82.76 1.23 1.81 1.23 3.187 0 .67-.198 1.33-.58 1.937-.387.63-.936 1.097-1.646 1.413.826.29 1.443.746 1.85 1.386.394.635.6 1.38.6 2.22 0 1.38-.445 2.46-1.326 3.25-.88.78-2.003 1.173-3.38 1.173-1.284 0-2.37-.377-3.26-1.128-.887-.75-1.31-1.796-1.28-3.138l.033-.07h2.195c0 .81.214 1.46.65 1.967.434.5.995.75 1.696.75.74 0 1.32-.238 1.74-.72.415-.49.63-1.175.63-2.073 0-.942-.203-1.642-.6-2.092-.406-.45-1.008-.674-1.817-.674h-1.57v-1.612zm35.85 8.57h-9.26v-1.41l4.53-5.514c.722-.95 1.24-1.745 1.53-2.373.29-.63.433-1.235.433-1.83 0-.805-.18-1.46-.544-1.96-.373-.51-.873-.77-1.515-.77-.81 0-1.417.282-1.817.84-.41.567-.603 1.336-.603 2.305h-2.22l-.02-.055c-.026-1.32.377-2.436 1.21-3.35.84-.895 1.99-1.354 3.447-1.354 1.345 0 2.41.394 3.197 1.177.78.784 1.166 1.828 1.166 3.12 0 .864-.24 1.727-.718 2.58-.486.854-1.178 1.794-2.096 2.844l-3.11 4.14h6.38v1.612zm3.81-5.205h3.793v-6.975l-.076-.005-.228.438-3.5 6.54zm6.08 0h1.766v1.61h-1.77v3.593h-2.287v-3.593h-6l-.07-1.183 5.995-10.474h2.357v10.05zm31.68 5.205h-9.255v-1.41l4.53-5.515c.734-.952 1.246-1.746 1.54-2.374.286-.63.43-1.23.43-1.83 0-.8-.18-1.46-.55-1.96-.36-.51-.87-.77-1.51-.77-.8 0-1.41.286-1.82.845-.4.566-.6 1.335-.6 2.304h-2.21l-.026-.053c-.03-1.32.377-2.437 1.21-3.35.84-.896 1.99-1.355 3.446-1.355 1.35 0 2.41.39 3.194 1.174.78.784 1.17 1.828 1.17 3.12 0 .864-.24 1.727-.718 2.58-.483.854-1.18 1.794-2.093 2.844l-3.118 4.137h6.38v1.614zm2.49-6.858l.79-8.398h7.4v1.75h-5.484l-.43 4.52c.28-.26.604-.476.973-.654.37-.164.794-.265 1.27-.27 1.295-.015 2.32.43 3.057 1.34.745.9 1.114 2.13 1.114 3.7 0 1.51-.384 2.74-1.163 3.68-.772.937-1.9 1.407-3.393 1.407-1.23 0-2.273-.36-3.123-1.086-.84-.726-1.25-1.764-1.23-3.132l.027-.057 2.164-.04c0 .87.206 1.53.6 1.997.39.47.91.703 1.565.703.752 0 1.313-.3 1.685-.913.39-.612.574-1.46.574-2.545 0-1.012-.194-1.832-.59-2.454-.39-.62-.954-.923-1.69-.923-.644 0-1.128.13-1.453.387-.324.264-.54.657-.672 1.176l-1.98-.184zm44.4 6.856h-9.254v-1.41l4.534-5.513c.726-.952 1.24-1.746 1.53-2.374.284-.63.436-1.235.436-1.83 0-.805-.184-1.46-.553-1.96-.362-.51-.873-.77-1.512-.77-.804 0-1.41.28-1.815.84-.406.567-.605 1.336-.605 2.305h-2.21l-.02-.053c-.033-1.32.37-2.436 1.21-3.35.838-.895 1.99-1.354 3.444-1.354 1.344 0 2.41.393 3.192 1.176.78.782 1.17 1.826 1.17 3.12 0 .862-.24 1.725-.72 2.58-.48.852-1.18 1.792-2.095 2.842l-3.117 4.133h6.38v1.612zm6.87-8.57c-.582 0-1.084.136-1.5.394-.422.263-.74.613-.96 1.054v1.4c0 1.38.24 2.44.715 3.19.475.773 1.086 1.145 1.837 1.145.676 0 1.213-.35 1.613-1.06.405-.703.6-1.57.6-2.6s-.204-1.87-.616-2.52c-.416-.66-.977-.99-1.69-.99m.62-6.9c.5 0 .973.06 1.44.17.455.12.876.287 1.26.485l-.446 1.565c-.347-.19-.685-.33-1.036-.425-.348-.105-.748-.15-1.21-.15-.926 0-1.67.412-2.238 1.233-.577.816-.86 1.92-.86 3.282v.433c.373-.393.816-.705 1.334-.923.514-.215 1.08-.33 1.69-.33 1.243 0 2.227.48 2.95 1.428.72.95 1.088 2.166 1.088 3.654 0 1.54-.42 2.8-1.25 3.79-.833.99-1.922 1.48-3.262 1.48-1.416 0-2.573-.53-3.48-1.6-.905-1.076-1.36-2.555-1.36-4.468V521c0-1.886.51-3.417 1.53-4.58 1.024-1.15 2.296-1.735 3.84-1.735M525.61 559.64h-9.256v-1.416l4.53-5.513c.73-.95 1.242-1.74 1.534-2.37.29-.63.437-1.23.437-1.82 0-.81-.183-1.46-.55-1.97-.368-.5-.87-.76-1.51-.76-.81 0-1.42.28-1.817.84-.41.57-.608 1.34-.608 2.3h-2.208l-.025-.05c-.03-1.314.373-2.432 1.205-3.34.84-.91 1.988-1.36 3.452-1.36 1.343 0 2.407.39 3.188 1.18.782.784 1.17 1.82 1.17 3.11 0 .877-.242 1.737-.717 2.586-.485.85-1.183 1.8-2.09 2.845l-3.12 4.136h6.382v1.61zm11.285-13.612c-1.58 1.94-2.664 3.803-3.247 5.575-.583 1.775-1 3.97-1.244 6.58l-.143 1.457h-2.29l.14-1.456c.25-2.457.75-4.67 1.49-6.644.74-1.978 1.76-3.82 3.06-5.54h-7.39v-1.614h9.64v1.64zm30.293 13.613h-9.26v-1.41l4.526-5.51c.735-.95 1.246-1.74 1.538-2.37.29-.63.443-1.23.443-1.82 0-.812-.19-1.463-.555-1.973-.366-.506-.874-.76-1.516-.76-.804 0-1.405.274-1.812.84-.41.566-.608 1.334-.608 2.295h-2.21l-.023-.05c-.03-1.315.38-2.433 1.21-3.34.84-.91 1.99-1.36 3.45-1.36 1.35 0 2.42.388 3.19 1.18.79.783 1.18 1.818 1.18 3.11 0 .876-.24 1.736-.72 2.585-.48.85-1.17 1.8-2.09 2.843l-3.113 4.137h6.384v1.61zm8.554-11.23c0-.77-.18-1.4-.552-1.89-.366-.49-.85-.73-1.452-.73s-1.086.24-1.445.72c-.354.47-.54 1.1-.54 1.91 0 .79.186 1.42.55 1.9.362.47.85.7 1.46.7.598 0 1.076-.23 1.442-.7.36-.474.537-1.11.537-1.897m.366 7.054c0-.843-.217-1.523-.667-2.05-.45-.53-1.01-.79-1.7-.79s-1.25.26-1.69.78c-.43.53-.65 1.216-.65 2.06 0 .873.21 1.55.64 2.052.43.49 1 .74 1.73.74.69 0 1.25-.25 1.69-.75.44-.497.66-1.176.66-2.04m1.95-7.1c0 .81-.203 1.515-.63 2.12-.41.6-.97 1.043-1.685 1.34.81.314 1.458.8 1.938 1.456.48.653.717 1.4.717 2.256 0 1.4-.425 2.47-1.28 3.21-.86.744-1.977 1.12-3.35 1.12-1.397 0-2.526-.376-3.385-1.12-.85-.74-1.284-1.81-1.284-3.21 0-.85.24-1.613.715-2.27.48-.65 1.12-1.132 1.94-1.45-.705-.29-1.27-.74-1.68-1.343-.403-.6-.61-1.306-.61-2.106 0-1.326.397-2.36 1.18-3.095.786-.74 1.82-1.098 3.1-1.098s2.326.36 3.12 1.098c.8.736 1.2 1.77 1.2 3.1m32.638 11.273h-9.256v-1.42l4.53-5.51c.73-.95 1.244-1.744 1.536-2.37.29-.63.44-1.234.44-1.824 0-.814-.186-1.465-.55-1.975-.368-.504-.874-.76-1.516-.76-.806 0-1.41.276-1.814.844-.405.563-.61 1.33-.61 2.292h-2.21l-.02-.05c-.03-1.316.37-2.434 1.213-3.34.84-.91 1.987-1.36 3.44-1.36 1.343 0 2.41.39 3.19 1.18.78.782 1.174 1.82 1.174 3.11 0 .875-.24 1.735-.72 2.584-.48.85-1.174 1.8-2.09 2.846l-3.116 4.14h6.382v1.61zm6.296-6.41c.59 0 1.09-.156 1.5-.47.413-.31.73-.707.934-1.2v-1.77c0-1.307-.205-2.31-.634-2.993-.42-.68-1.01-1.02-1.77-1.02-.64 0-1.175.36-1.603 1.095-.422.735-.64 1.64-.64 2.71 0 1.08.196 1.953.59 2.624.385.68.928 1.014 1.623 1.014m-.376 5.024c.85 0 1.52-.364 2.04-1.09.52-.715.78-1.745.78-3.104v-.743c-.313.507-.707.89-1.17 1.14-.452.27-.957.38-1.503.38-1.314 0-2.35-.46-3.12-1.4-.766-.94-1.153-2.212-1.153-3.82 0-1.56.44-2.856 1.3-3.894.87-1.034 1.935-1.55 3.21-1.55 1.426 0 2.577.498 3.44 1.5.87 1.007 1.3 2.46 1.3 4.348V554c0 1.855-.473 3.294-1.425 4.318-.956 1.025-2.18 1.538-3.69 1.538-.464 0-.954-.06-1.47-.166-.514-.103-.99-.26-1.43-.462l.308-1.554c.402.21.81.35 1.22.436.41.09.87.137 1.37.137m27.172-7.177h1.576c.76 0 1.32-.238 1.674-.71.355-.475.526-1.117.526-1.92 0-.83-.182-1.474-.55-1.944-.367-.482-.9-.717-1.6-.717-.644 0-1.17.24-1.58.71-.416.47-.62 1.09-.62 1.86h-2.184l-.035-.06c-.04-1.178.36-2.17 1.2-2.95.83-.8 1.884-1.186 3.17-1.186 1.36 0 2.442.375 3.26 1.12.815.75 1.224 1.816 1.224 3.18 0 .68-.196 1.334-.578 1.95-.388.613-.937 1.083-1.647 1.41.83.28 1.443.743 1.85 1.385.4.64.6 1.38.6 2.21 0 1.39-.446 2.46-1.32 3.25-.88.79-2.01 1.18-3.38 1.18-1.29 0-2.37-.37-3.26-1.126-.89-.754-1.32-1.795-1.288-3.143l.03-.054h2.2c0 .8.213 1.45.65 1.95.43.51.992.764 1.696.764.74 0 1.315-.24 1.736-.73.42-.48.628-1.165.628-2.07 0-.95-.193-1.644-.594-2.09-.404-.457-1.003-.675-1.812-.675h-1.58v-1.61zm15.42-1.093c0-1.382-.2-2.434-.595-3.143-.39-.7-.96-1.055-1.702-1.055-.737 0-1.3.35-1.695 1.06-.384.72-.58 1.76-.58 3.13v4.04c0 1.39.2 2.44.596 3.152.395.71.963 1.072 1.71 1.072.726 0 1.29-.36 1.68-1.07.39-.71.59-1.766.59-3.163v-4.04zm2.29 3.762c0 1.97-.413 3.49-1.23 4.54-.82 1.04-1.93 1.57-3.333 1.57-1.418 0-2.538-.53-3.36-1.58-.83-1.06-1.247-2.57-1.247-4.54v-3.45c0-1.96.415-3.48 1.24-4.54.82-1.058 1.937-1.586 3.34-1.586 1.41 0 2.524.53 3.35 1.583.824 1.06 1.24 2.58 1.24 4.54v3.45z" fill="#70706e"/><path d="M551.927 318.488c.842.127 2.425.343 6.333.343 1.454 0 2.144-.17 2.144-1.02 0-.83-.333-1.04-1.84-1.04h-1.606c-3.296 0-5.747-.49-5.747-5 0-4.34 3.99-4.92 8.07-4.92 2.69 0 5.82.32 7.41.51v4.52c-1.71-.104-3.57-.32-5.92-.32-2.12 0-2.71.28-2.71 1.067 0 .576.36.917 1.92.917 5.52 0 7.28.577 7.28 4.346 0 4.364-3.14 4.94-7.66 4.94-2.524 0-5.13-.17-7.66-.428v-3.9zm20.395-11.265h14.886v4.43h-7.866v1.62h7.866v3.554h-7.866v1.62h7.866v3.98h-14.886v-15.204zm27.57 7.41h2.042c1.685 0 2.477-.49 2.477-1.745 0-1.192-.69-1.683-2.06-1.683h-2.45v3.43zm-7.02-7.41h11.793c4.188 0 6.59.894 6.59 5.366 0 3.53-2.044 5.6-6.768 5.6h-4.595v4.23h-7.02v-15.2zm27.798 5.025h-4.802v-5.024h16.622v5.024h-4.8v10.18h-7.02v-10.18zm16.64-5.025h14.887v4.43h-7.865v1.62h7.865v3.554h-7.865v1.62h7.865v3.98H637.31v-15.204zm20.55 0h8.756l2.783 7.816h.05l2.96-7.82h8.55v15.2h-6.26l.25-9.16h-.05l-3.678 9.153h-3.652l-3.673-9.156h-.05l.253 9.16h-6.257v-15.2zm35.43 11.647h3.167c1.584 0 2.27-.255 2.27-1.213 0-.788-.458-1.234-1.886-1.234h-3.55v2.448zm0-5.408h3.5c1.07 0 1.76-.53 1.76-1.194 0-.872-.64-1.212-1.81-1.212h-3.45v2.406zm-6.662-6.24h13.38c2.91 0 5.028.62 5.028 3.834 0 2.514-1.79 3.407-4.877 3.705v.05c3.26.04 5.05.85 5.05 3.66 0 3.22-2.38 3.97-6.92 3.97h-11.67v-15.21zm23.842 0h14.885v4.43h-7.866v1.62h7.86v3.555h-7.87v1.62h7.86v3.98h-14.88v-15.204zm27.57 7.136h2.194c1.378 0 2.476-.214 2.476-1.706 0-.98-.56-1.448-2.12-1.448h-2.55v3.154zm-7.022-7.135h12.15c3.576 0 6.563.64 6.563 4.386 0 2.87-1.63 4.3-5.15 4.36l5.85 6.45h-8.12l-4.18-5.32h-.076v5.32h-7.02v-15.2z" fill="#fff"/><path d="M364.795 622.873c-4.397 15.958-8.796 31.923-13.18 47.89H474.64c-4.398-15.967-8.798-31.932-13.183-47.89h-96.663z" fill="#929292"/><path d="M412.41 670.763h62.23c-4.4-15.968-8.796-31.93-13.184-47.89H412.41v47.89z" fill="#969a9d"/><path d="M482.232 669.918H344.008c-3.507 0-6.35 2.96-6.35 6.627v2.488h150.927v-2.488c0-3.667-2.846-6.627-6.353-6.627m-276.96-65.675v26.392c0 5.078 4.618 9.188 10.347 9.188h395c5.71 0 10.34-4.11 10.34-9.188v-26.392H205.27z" fill="#fff"/><path d="M620.968 604.243v-223.43c0-5.076-4.637-9.194-10.346-9.194H215.62c-5.728 0-10.346 4.11-10.346 9.19v223.43h415.694z" fill="#0e303f"/><path d="M222.295 385.99H603.95v203.003H222.296V385.99z" fill="#fff"/><path d="M242.24 587.462h341.852V408.988H242.24v178.474z" fill="#b7c8b7"/><path d="M574.054 387.94H252.197c-5.368 0-9.72 3.475-9.72 7.77v14.73H583.77v-14.73c0-4.295-4.343-7.77-9.715-7.77" fill="#a05a2c"/><path d="M262.365 399.43c0 2.4-2.435 4.335-5.42 4.335-3.007 0-5.43-1.934-5.43-4.334 0-2.39 2.423-4.33 5.43-4.33 2.985 0 5.42 1.94 5.42 4.34m15.197 0c0 2.4-2.446 4.34-5.43 4.34-3.005 0-5.432-1.934-5.432-4.334 0-2.393 2.427-4.333 5.43-4.333 2.986 0 5.432 1.94 5.432 4.335m15.178 0c0 2.4-2.447 4.335-5.432 4.335-2.985 0-5.43-1.935-5.43-4.335 0-2.392 2.445-4.332 5.43-4.332s5.43 1.94 5.43 4.336m276.86 3.9H307.926v-7.81h261.672v7.81z" fill="#fff"/><path d="M579.396 467.195c0 2.07-1.59 3.762-3.535 3.762h-44.74c-1.94 0-3.53-1.692-3.53-3.762V430.31c0-2.07 1.59-3.763 3.54-3.763h44.748c1.945 0 3.536 1.693 3.536 3.762v36.88z" fill="#afdde9"/><path d="M579.396 426.547h-51.813v4.293h51.813v-4.293z" fill="#06f"/><path d="M564.97 420.77c0 1.504-1.147 2.723-2.56 2.723h-17.064c-1.414 0-2.56-1.22-2.56-2.724 0-1.51 1.146-2.73 2.56-2.73h17.064c1.413 0 2.56 1.22 2.56 2.72" fill="#fea529"/><path d="M539.744 442.522c.383-.194.754-.387 1.117-.58.37-.194.74-.42 1.11-.682.37-.26.77-.59 1.19-.986.42-.396.87-.914 1.37-1.552h4.85v16.416h2.535v3.86H541v-3.86h2.724v-10.76L541 445.74l-1.255-3.217zm21.656 16.85c-.692 0-1.378-.095-2.06-.29-.68-.19-1.326-.453-1.933-.783-.61-.33-1.155-.71-1.636-1.13-.48-.43-.85-.86-1.13-1.31l2.98-3.28c.53.58 1.1 1.08 1.7 1.51.61.42 1.32.64 2.11.64.93 0 1.66-.27 2.2-.82.54-.54.808-1.24.808-2.09 0-.39-.074-.75-.22-1.09-.145-.34-.34-.637-.585-.9-.245-.26-.54-.463-.884-.61-.346-.143-.71-.216-1.09-.216-.64 0-1.15.14-1.54.42-.394.28-.73.587-1.024.915l-3.487-1.655 1.66-9.98h10.79v4.325h-7.33l-.46 2.81c.27-.19.66-.356 1.17-.49.504-.137 1.1-.205 1.77-.205.8 0 1.58.145 2.34.435.766.29 1.44.724 2.033 1.304.59.58 1.065 1.302 1.43 2.162.362.86.544 1.85.544 2.975 0 1.22-.24 2.29-.72 3.21-.487.92-1.11 1.68-1.88 2.29-.778.61-1.65 1.07-2.62 1.38-.975.31-1.95.46-2.93.46" fill="#152137"/><path d="M553.548 415.156h-23.863c-1.168 0-2.116 1.01-2.116 2.257v9.22h25.97v-11.477z" fill="#003380"/><path d="M577.325 415.156h-24.07v11.476h26.186v-9.22c0-1.245-.94-2.256-2.11-2.256" fill="#003380"/><path d="M454.853 484.492H425.07l29.783-28.424v28.424z" fill="#15b0bf"/><path d="M425.068 484.492h29.785l-29.785 28.422v-28.422z" fill="#d1ecfb"/><g clip-path="url(#a)" opacity=".1" transform="matrix(1.3 0 0 -1.24 -373.65 1097.71)"><path d="M637.023 517.006l-22.9-22.903v-73.908h43.392v96.81h-20.492z"/></g><path d="M362.48 570.632V451.845l-.45-28.807 113.323.38v147.21z" fill="#fff"/><path d="M389.908 538.958v-18.555c-9.517.6-17.065 8.142-17.065 17.386 0 9.64 8.192 17.45 18.29 17.45 9.683 0 17.597-7.2 18.22-16.29h-19.445z" fill="#2c5871"/><path d="M408.47 534.575c0-7.205-6.115-13.045-13.662-13.045v13.045h13.662z" fill="#f99b1c"/><path d="M398.818 485.085c-.366 1.076-.952 2.044-1.74 2.854l5.937 7.9c3-2.47 5.155-5.84 5.972-9.69l-10.17-1.08z" fill="#a6dae9"/><path d="M392.76 475.053c3.458.688 6.08 3.473 6.423 6.886l10.155 1.06c0-.11.014-.22.014-.33 0-9.08-7.29-16.54-16.593-17.34v9.71z" fill="#f99b1c"/><path d="M385.09 477.46c1.13-1.196 2.628-2.065 4.353-2.406v-9.712c-5.42.466-10.134 3.192-13.148 7.176l8.794 4.94z" fill="#15b0bf"/><path d="M394.39 489.79c-1.008.432-2.12.677-3.292.677-4.505 0-8.157-3.488-8.157-7.786 0-.88.19-1.7.47-2.49l-8.79-4.94c-1.11 2.26-1.77 4.77-1.77 7.44 0 9.62 8.18 17.42 18.26 17.42 3.37 0 6.51-.88 9.22-2.4l-5.93-7.91z" fill="#2c5871"/><path d="M417.946 469.655h44v-4.313h-44v4.313z" fill="#15b0bf"/><path d="M417.946 483.19h44v-4.31h-44v4.31zm0 13.537h44v-4.306h-44v4.31z" fill="#a6dae9"/><path d="M417.946 524.712h30.615v-4.31h-30.61v4.31z" fill="#15b0bf"/><path d="M417.946 538.257h44v-4.313h-44v4.313zm0 13.533h44v-4.308h-44v4.31z" fill="#a6dae9"/></svg>