<svg xmlns="http://www.w3.org/2000/svg" width="1000" height="1000"><path d="M523.337 471.75c.007 6.704-5.468 12.118-12.226 12.096-6.76-.022-12.24-5.472-12.25-12.176 0-6.705 5.47-12.12 12.23-12.097 6.76.023 12.25 5.472 12.25 12.177" fill="#fff"/><path d="M262.562 293.438c.002 1.417-1.154 2.56-2.582 2.555-1.428-.004-2.586-1.155-2.588-2.57l-.025-24.22c0-1.42 1.154-2.563 2.583-2.558 1.428.004 2.586 1.156 2.587 2.575l.025 24.218zm-14.695 5.035c.45.715-.167 1.9-1.374 2.645-1.21.75-2.557.775-3.007.062l-7.7-12.212c-.45-.716.162-1.9 1.373-2.65 1.21-.745 2.55-.77 3-.057l7.7 12.22zm23.608.465c-.448.713.17 1.9 1.38 2.655 1.212.757 2.558.79 3.007.08l7.676-12.16c.448-.713-.168-1.9-1.38-2.658-1.212-.754-2.56-.788-3.007-.08l-7.67 12.163zm3.295 23.102c.007 8.342-6.804 15.084-15.22 15.056-8.414-.027-15.242-6.814-15.25-15.156-.01-8.34 6.805-15.086 15.22-15.06 8.415.03 15.24 6.818 15.25 15.16" fill="#a02c2c"/><path d="M590.837 471.97l-295.622-.966-.223-215.76 295.62.967.225 215.76z" fill="#fff"/><path d="M508.894 348.395c.037 36.01-29.37 65.11-65.688 64.99-36.313-.12-65.776-29.412-65.813-65.42-.037-36.01 29.365-65.11 65.678-64.992 36.32.118 65.79 29.41 65.83 65.422" fill="#c83737"/><path d="M451.598 383.57l-16.34-.055-.075-70.723 16.342.054.073 70.723z" fill="#fffeff"/><path d="M407.472 339.96l71.32.232.017 16.21-71.32-.235-.02-16.208z" fill="#fffeff"/><path d="M188.657 470.653l107.615.352-.154-148.9-70.012-.23s-28.276 52.19-33.09 72.067c-4.474 18.464-4.36 76.71-4.36 76.71" fill="#fff"/><path d="M203.938 391.88l79.527.26-.06-57.22-53.16-.173-26.307 57.133z" fill="#2ad4ff"/><path d="M590.812 447.15l-401.774-1.94.29-9.022 401.473 1.317z" fill="#c83737"/><path d="M545.03 473.93c.018 18.11-14.772 32.738-33.03 32.68-18.26-.06-33.078-14.785-33.097-32.897-.018-18.11 14.77-32.74 33.03-32.68 18.257.06 33.077 14.787 33.096 32.896" fill="#005975"/><path d="M535.603 474.54c.253 12.975-10.08 23.264-23.074 22.99-13-.277-23.75-11.014-24-23.99-.26-12.977 10.08-23.266 23.08-22.99 12.99.276 23.73 11.012 23.99 23.99" fill="#ccc"/><g transform="translate(16.82 -24.67)"><rect width="247.535" height="74.271" x="504.064" y="322.045" rx="2.82" fill="#fff6d5" fill-rule="evenodd"/><path d="M505.903 330.782c0-1.463.628-2.814 1.678-3.895l.05-.043c.08-.083.168-.164.256-.244l.044-.04c.304-.274.637-.527.994-.756l.07-.042c.096-.06.194-.12.294-.177l.08-.045c.108-.06.218-.118.33-.174l.047-.024c.13-.065.264-.127.4-.186l.016-.007c.126-.06.25-.11.38-.16l.11-.04c.1-.038.204-.07.308-.106l.126-.04c.105-.033.212-.063.32-.09l.107-.03c.144-.036.29-.07.44-.1l.03-.01c.135-.025.27-.05.41-.07l.14-.02.315-.04.16-.016c.107-.01.214-.017.322-.024l.144-.01c.156-.003.31-.01.47-.01h39.66v6.237c0 1.37 1.41 2.495 3.135 2.495h137.91c.14 0 .28-.01.42-.025l.09-.01c.135-.02.268-.04.397-.072 1.285-.31 2.227-1.263 2.227-2.383v-6.236h39.66c4.42 0 8.03 2.877 8.03 6.39v56.12c0 .124-.006.25-.014.37l-.01.115c-.008.086-.02.17-.03.255l-.02.124c-.016.085-.032.168-.05.25l-.026.113c-.03.11-.06.217-.093.324l-.007.03c-.04.12-.08.235-.13.35l-.036.085c-.036.088-.074.173-.115.257l-.05.1-.13.245-.05.088c-.06.104-.128.205-.19.304l-.01.012c-.077.11-.15.212-.237.32l-.03.04-.218.26-.058.06c-.07.08-.146.157-.22.234l-.056.055c-.286.285-.603.55-.947.79l-.052.037c-.1.07-.2.135-.304.2l-.057.035c-1.357.836-3.055 1.335-4.894 1.335h-223.5c-4.42 0-8.035-2.877-8.035-6.39v-56.12zm248.287 60.595V326.3c0-4.478-4.606-8.144-10.236-8.144h-236.54c-1.407 0-2.75.23-3.974.643-3.67 1.24-6.26 4.14-6.26 7.5v65.07c0 4.48 4.605 8.142 10.234 8.142h236.54c2.645 0 5.064-.81 6.886-2.13 2.055-1.493 3.35-3.64 3.35-6.014" fill="#214478"/><path d="M745.314 388.128c-.028.11-.058.218-.093.326.04-.108.07-.217.1-.326m-.1.352c-.04.117-.08.233-.13.348.05-.115.09-.23.13-.348m-.33.79c-.04.082-.083.164-.13.244.047-.08.09-.162.13-.243m.167-.35c-.035.088-.073.17-.114.258.04-.084.08-.17.116-.255m-.81 1.36c-.07.09-.143.177-.218.26.075-.083.148-.17.218-.26m.464-.674c-.06.103-.124.204-.19.303.066-.1.13-.2.19-.304m-.2.315c-.074.11-.15.217-.234.32.084-.103.16-.21.236-.32m.887-2.15l-.05.25.05-.25M511.98 324.59c.136-.027.273-.05.41-.073-.137.022-.274.046-.41.074m233.465 62.8l-.03.26.03-.257m-50.38-54.287l.09-.01-.09.01m-181.594-8.69c.16-.008.31-.013.47-.013-.152 0-.31.01-.47.012m-.46.033c.108-.01.215-.018.32-.024l-.32.025m-.474.055c.105-.014.21-.03.316-.04-.105.01-.21.026-.314.04m-2.79.85c.13-.065.265-.13.4-.186-.136.06-.27.12-.4.187m234.23 65.26c-.073.08-.147.158-.223.235.075-.075.15-.153.22-.232m1.5-3.703c0 .124-.005.25-.014.37.01-.122.015-.246.015-.37m-236.488-61.14c.097-.06.195-.12.295-.175l-.3.177m1.66-.8c.105-.04.207-.07.31-.107l-.305.107m-.49.19c.125-.054.252-.105.38-.153-.128.05-.255.1-.38.152" fill="#fffa99"/><path d="M512.616 384.218c0-.737.757-1.34 1.683-1.34h221.2c.923 0 1.68.603 1.68 1.34v.3c0 .735-.757 1.34-1.682 1.34H514.29c-.925 0-1.682-.605-1.682-1.34v-.3zm25.62-44.02c0-.534.204-1.03.55-1.446l-.09.024c.55-.72 1.544-1.204 2.675-1.204h16.66c1.727 0 3.137 1.122 3.137 2.494v.848c0 1.06-.846 1.97-2.026 2.33l.034-.053c-.4.14-.842.22-1.306.22H541.54c-1.815 0-3.3-1.18-3.3-2.62v-.585zm148.076 0c0-.534.204-1.03.55-1.446l-.09.024c.55-.72 1.544-1.204 2.675-1.204H706.1c1.723 0 3.134 1.122 3.134 2.494v.848c0 1.06-.846 1.97-2.027 2.33l.035-.053c-.402.14-.844.22-1.307.22H689.61c-1.813 0-3.298-1.18-3.298-2.62v-.585zm-172.378 53.09h223.5c1.84 0 3.537-.5 4.894-1.336-.12.073-.24.144-.363.212.89-1.028 1.41-2.27 1.41-3.605v-56.12c0-3.52-3.613-6.39-8.03-6.39H697.77v4.57c0 1.12-.94 2.07-2.225 2.382-.392 1.022-1.59 1.77-2.998 1.77H554.64c-1.723 0-3.134-1.12-3.134-2.493v-6.236h-39.66c-1.68 0-3.24.416-4.532 1.124.085-.1.175-.196.267-.29-1.05 1.08-1.67 2.43-1.67 3.894v56.113c0 3.513 3.616 6.39 8.03 6.39" fill="#fff6d5"/><path d="M508.915 325.804c-.357.23-.69.482-.994.756.31-.274.64-.527 1-.756m-1.29 1.04c.08-.083.167-.164.255-.244-.09.08-.172.16-.254.244m1.737-1.304c.108-.06.218-.12.33-.175-.11.056-.22.114-.33.174m233.33 66.17c-.1.07-.2.135-.305.2.106-.065.207-.13.307-.2m-231.616-66.9c.106-.03.213-.065.32-.09-.11.03-.22.06-.323.09m231.66 66.87c.346-.24.663-.507.95-.79-.287.283-.604.55-.95.79M511.507 324.69c.145-.037.29-.07.44-.102-.15.04-.295.07-.44.11" fill="#fffa99"/><path d="M743.376 332.445v56.114c0 1.33-.522 2.57-1.41 3.6.123-.07.243-.14.362-.21l.056-.04c.104-.065.205-.13.305-.2l.05-.037c.34-.24.66-.507.95-.79l.05-.056c.07-.076.15-.155.22-.234l.054-.062c.076-.084.15-.172.22-.26l.03-.04c.08-.102.16-.21.233-.32l.01-.01c.066-.1.13-.2.19-.303l.05-.085c.045-.08.09-.162.13-.243l.05-.1c.04-.086.08-.17.116-.257l.034-.086c.05-.115.09-.23.13-.35l.007-.024c.035-.108.065-.217.093-.326l.024-.113c.02-.083.034-.166.05-.25l.02-.127.03-.258.01-.116c.01-.124.015-.248.015-.373v-56.11c0-3.514-3.614-6.39-8.03-6.39h-39.66v1.663h37.57c4.42 0 8.033 2.876 8.033 6.39m-231.53-6.39h39.66v6.236c0 1.37 1.41 2.49 3.137 2.49h137.91c1.408 0 2.606-.75 2.998-1.77-.13.03-.262.05-.396.07l-.09.01c-.14.01-.28.02-.42.02H556.73c-1.724 0-3.135-1.123-3.135-2.495v-6.235h-39.66c-.158 0-.314.008-.47.01l-.143.01c-.108.01-.215.015-.32.026l-.16.018-.316.04-.14.02c-.14.02-.275.047-.41.074l-.03.01c-.15.03-.296.062-.44.1l-.107.03c-.11.026-.22.06-.33.09l-.128.04-.308.104-.11.037c-.13.05-.255.1-.38.152l-.016.008c-.136.06-.27.12-.4.187l-.05.024c-.11.057-.22.115-.33.175l-.08.046c-.1.06-.198.117-.294.178l-.07.04c-.356.23-.69.48-.993.756l-.044.04c-.09.08-.17.16-.255.244l-.043.045c-.09.095-.18.192-.265.29 1.293-.707 2.854-1.123 4.53-1.123m29.69 17.353h16.325c.46 0 .904-.078 1.305-.217.265-.365.424-.786.424-1.237v-.85c0-1.37-1.41-2.493-3.136-2.493h-16.65c-.355 0-.697.053-1.016.14-.346.417-.55.914-.55 1.447v.585c0 1.444 1.485 2.625 3.3 2.625" fill="#fff6d5"/><path d="M556.456 338.61c1.724 0 3.135 1.123 3.135 2.495v.848c0 .45-.15.872-.42 1.238l-.03.06c1.18-.36 2.027-1.27 2.027-2.33v-.85c0-1.37-1.41-2.49-3.134-2.49h-16.66c-1.13 0-2.122.485-2.673 1.204l.09-.025c.32-.09.66-.14 1.017-.14h16.653m133.153 4.794h16.326c.46 0 .903-.08 1.305-.22.266-.364.425-.785.425-1.236v-.848c0-1.373-1.41-2.495-3.134-2.495H687.88c-.357 0-.698.054-1.018.142-.346.415-.55.912-.55 1.445v.586c0 1.444 1.485 2.625 3.3 2.625" fill="#fff6d5"/><path d="M704.532 338.61c1.724 0 3.135 1.123 3.135 2.495v.848c0 .45-.16.872-.425 1.238l-.035.06c1.18-.36 2.027-1.27 2.027-2.33v-.85c0-1.37-1.41-2.49-3.135-2.49h-16.66c-1.13 0-2.127.485-2.68 1.204l.09-.025c.32-.09.66-.14 1.02-.14h16.65" fill="#fff6d5"/><path d="M514.3 385.857h221.208c.925 0 1.683-.603 1.683-1.34v-.3c0-.736-.75-1.34-1.68-1.34H514.3c-.926 0-1.683.604-1.683 1.34v.3c0 .737.757 1.34 1.683 1.34" fill="#214478"/><text transform="matrix(.7 0 0 .93 898.25 -375.93)" y="815.6" x="-397.836" style="text-indent:0;text-align:center;line-height:125%;text-transform:none;block-progression:tb;-inkscape-font-specification:Roboto Light" font-size="64.144" font-weight="300" letter-spacing="0" word-spacing="0" text-anchor="middle" color="#000" overflow="visible" font-family="Roboto"><tspan y="815.6" x="-397.836">1BBL - 262</tspan></text></g><path d="M701.283 577.21c24.09 9.883 29.68 30.842 25.062 60.23-2.378 30.33-54.26 52.185-86.815 40.444-93.935 0-181.014-.037-274.95-.037 0-34.845.843-88.33 42.977-91.567 119.257.397 174.47-9.543 293.726-9.07z" fill="#fff"/><path d="M701.314 506.078c38.698-.138 25.03 53.082 25.03 79.175 0 78.28-69.898 5.15-95.597 12.832h-127.17c0-32.562-48.527-65.018 5.732-91.11 67.59.18 124.4-1.155 192-.897z" fill="#fff"/><path d="M516.43 522.432s-75.613-20.76-105.752 65.266h104.005l1.746-65.266z" fill="#fff"/><path d="M596.982 670.854c0 19.775 15.945 35.804 35.6 35.804 19.653 0 35.598-16.03 35.598-35.804 0-19.766-15.945-35.786-35.6-35.786-19.653 0-35.598 16.02-35.598 35.786" fill="#564d40"/><path d="M608.528 670.854c0 13.356 10.765 24.186 24.05 24.186 13.288 0 24.052-10.83 24.052-24.186 0-13.347-10.764-24.17-24.05-24.17-13.287 0-24.052 10.823-24.052 24.17" fill="#707571"/><path d="M622.554 670.854c0 5.554 4.492 10.06 10.025 10.06 5.54 0 10.02-4.506 10.02-10.06 0-5.553-4.49-10.07-10.03-10.07-5.534 0-10.026 4.517-10.026 10.07" fill="#d3ceba"/><path d="M396.354 670.854c0 19.775 16.16 35.804 36.107 35.804 19.93 0 36.1-16.03 36.1-35.804 0-19.766-16.17-35.786-36.1-35.786-19.94 0-36.1 16.02-36.1 35.786" fill="#564d40"/><path d="M408.062 670.854c0 13.356 10.925 24.186 24.398 24.186 13.464 0 24.397-10.83 24.397-24.186 0-13.347-10.933-24.17-24.397-24.17-13.473 0-24.398 10.823-24.398 24.17" fill="#707571"/><path d="M422.28 670.854c0 5.554 4.546 10.06 10.174 10.06 5.61 0 10.166-4.506 10.166-10.06 0-5.553-4.555-10.07-10.166-10.07-5.628 0-10.174 4.517-10.174 10.07" fill="#d3ceba"/><path d="M509.763 533.25v49.738h-82.288s21.506-61.582 82.288-49.74" fill="#9ddaec"/><path d="M368.587 626.903l358.707-1.35v-9.473h-355.67zm225.96-55.86c0 19.21-15.626 34.786-34.905 34.786-19.278 0-34.902-15.58-34.902-34.79s15.624-34.79 34.902-34.79c19.28 0 34.904 15.57 34.904 34.79" fill="#c83737"/><path d="M555.436 589.908h8.676v-37.733h-8.676v37.733z" fill="#fff"/><path d="M540.713 575.367h37.86v-8.65h-37.86v8.65z" fill="#fff"/><g transform="translate(23.95 -40.08)"><rect width="247.535" height="74.271" x="611.423" y="577.192" rx="2.82" fill="#fff6d5" fill-rule="evenodd"/><path d="M614.388 585.326c0-1.463.628-2.814 1.678-3.895l.043-.04c.08-.08.16-.16.25-.24l.04-.04c.3-.27.634-.524.992-.753l.07-.042c.095-.06.193-.12.293-.176l.08-.046c.11-.06.22-.12.33-.174l.047-.023c.134-.066.268-.128.405-.187l.014-.007c.125-.053.253-.104.38-.153l.11-.037c.1-.038.203-.07.307-.107l.127-.04c.105-.032.213-.063.32-.092l.107-.026c.146-.037.29-.07.44-.1l.03-.01c.137-.026.274-.05.41-.072l.14-.02.318-.04.16-.015c.106-.01.213-.02.32-.025l.146-.01c.154-.007.31-.01.467-.01h39.66v6.233c0 1.373 1.413 2.495 3.136 2.495h137.91c.14 0 .28-.01.42-.023l.09-.01c.134-.02.267-.04.396-.07 1.283-.314 2.225-1.268 2.225-2.388v-6.236h39.662c4.416 0 8.03 2.877 8.03 6.39v56.116c0 .123-.007.248-.015.37l-.01.116-.03.255-.023.124c-.014.085-.03.168-.05.25l-.024.113c-.03.11-.06.22-.094.326l-.006.025c-.04.12-.08.235-.13.35l-.034.085c-.038.09-.076.174-.116.258l-.05.1c-.04.082-.085.163-.13.243l-.05.088c-.06.104-.124.205-.19.304l-.01.013c-.073.11-.15.216-.232.32l-.03.04c-.07.09-.143.177-.22.26l-.056.067c-.072.08-.146.158-.222.235l-.054.054c-.285.286-.603.55-.95.793l-.05.037c-.1.07-.2.136-.304.2l-.056.036c-1.358.837-3.056 1.336-4.895 1.336h-223.5c-4.416 0-8.03-2.877-8.03-6.39v-56.13zm248.287 60.595v-65.07c0-4.48-4.606-8.14-10.236-8.14H615.9c-1.408 0-2.75.23-3.974.644-3.67 1.24-6.262 4.14-6.262 7.5v65.077c0 4.48 4.606 8.146 10.235 8.146h236.54c2.64 0 5.06-.81 6.88-2.132 2.052-1.49 3.35-3.637 3.35-6.012" fill="#6c5d53"/><path d="M853.8 642.672c-.03.11-.06.218-.093.326.034-.108.064-.216.092-.326m-.1.352c-.04.117-.08.234-.13.348.04-.114.09-.23.13-.348m-.33.79c-.05.08-.09.164-.13.244.04-.08.09-.162.13-.243m.16-.357l-.117.256c.04-.085.08-.17.116-.256m-.81 1.362c-.07.087-.143.175-.22.26.077-.085.15-.173.22-.26m.463-.675c-.06.102-.125.203-.19.302.065-.1.13-.2.19-.302m-.2.315c-.075.11-.15.216-.234.32.082-.104.16-.21.233-.32m.883-2.15c-.016.084-.03.167-.05.25.02-.083.034-.166.05-.25m-233.41-63.18c.136-.027.273-.052.41-.073-.137.02-.274.046-.41.073m233.465 62.797c-.007.086-.02.17-.03.256.01-.085.023-.17.03-.256m-50.38-54.287l.09-.012-.09.01m-181.592-8.69c.152-.008.31-.013.465-.013-.158 0-.313.008-.468.012m-.467.033c.107-.01.214-.017.32-.024l-.32.024m-.475.056c.106-.014.21-.028.317-.04-.107.012-.21.026-.316.04m-2.79.85c.135-.065.27-.127.406-.186-.137.06-.27.12-.403.186m234.23 65.26c-.07.08-.146.157-.22.233.074-.08.15-.16.22-.24m1.5-3.708c0 .124-.006.25-.015.37.006-.122.013-.246.013-.37M617.472 580.3c.097-.06.195-.12.295-.175-.1.055-.198.114-.295.174m1.658-.808l.31-.105-.31.105m-.483.19c.124-.052.252-.103.38-.15-.128.05-.256.1-.38.152" fill="#fffa99"/><path d="M621.1 638.762c0-.737.758-1.34 1.685-1.34h221.208c.925 0 1.684.603 1.684 1.34v.3c0 .736-.76 1.34-1.684 1.34H622.785c-.927 0-1.684-.604-1.684-1.34v-.3zm25.622-44.02c0-.534.203-1.03.55-1.446l-.09.024c.55-.72 1.544-1.204 2.674-1.204h16.653c1.72 0 3.13 1.123 3.13 2.494v.85c0 1.06-.85 1.97-2.03 2.328l.033-.053c-.4.14-.844.217-1.308.217h-16.32c-1.815 0-3.3-1.18-3.3-2.625v-.586zm148.075 0c0-.534.204-1.03.55-1.446l-.09.024c.55-.72 1.544-1.204 2.675-1.204h16.652c1.724 0 3.135 1.123 3.135 2.494v.85c0 1.06-.85 1.97-2.03 2.328l.03-.053c-.4.14-.846.217-1.31.217h-16.32c-1.813 0-3.3-1.18-3.3-2.625v-.586zM622.42 647.83h223.5c1.838 0 3.536-.5 4.893-1.336-.118.073-.24.144-.363.212.89-1.028 1.41-2.27 1.41-3.605v-56.11c0-3.51-3.613-6.39-8.03-6.39h-37.572v4.57c0 1.12-.942 2.08-2.226 2.39-.39 1.02-1.59 1.77-2.998 1.77H663.126c-1.724 0-3.135-1.12-3.135-2.49v-6.24h-39.66c-1.67 0-3.24.417-4.53 1.124l.27-.29c-1.05 1.083-1.68 2.434-1.68 3.897v56.11c0 3.515 3.62 6.39 8.03 6.39" fill="#fff6d5"/><path d="M617.4 580.348c-.357.23-.69.482-.994.756.304-.274.637-.527.995-.756m-1.29 1.04c.08-.083.17-.164.26-.244-.09.08-.172.16-.253.244m1.735-1.305c.108-.06.218-.118.33-.173-.112.055-.222.113-.33.173m233.33 66.177c-.1.07-.2.137-.305.2.1-.063.203-.13.302-.2m-231.61-66.902c.104-.033.212-.063.32-.093-.108.03-.216.06-.32.093m231.662 66.867c.342-.242.66-.507.95-.792-.29.285-.608.55-.95.792m-231.24-66.988c.144-.037.29-.07.44-.1-.15.03-.296.063-.44.1" fill="#fffa99"/><path d="M851.86 586.99v56.113c0 1.335-.52 2.577-1.41 3.605.124-.067.245-.14.363-.212l.056-.035c.1-.06.2-.13.3-.2l.05-.03c.34-.24.66-.503.95-.79l.05-.052c.075-.076.15-.154.22-.234l.06-.065c.075-.085.15-.173.22-.26l.03-.04c.08-.103.16-.21.232-.32l.008-.01c.068-.1.13-.2.19-.304l.05-.085c.048-.08.09-.164.133-.245l.05-.1c.04-.086.078-.17.115-.258l.036-.086c.045-.112.087-.23.126-.345l.006-.026c.034-.11.063-.22.09-.328l.026-.11c.02-.083.035-.166.05-.25l.02-.126c.012-.085.022-.17.03-.256l.012-.115c.005-.123.01-.247.01-.37V585.34c0-3.515-3.613-6.39-8.03-6.39h-39.66v1.662h37.57c4.42 0 8.033 2.874 8.033 6.39m-231.52-6.4h39.66v6.235c0 1.37 1.41 2.494 3.135 2.494H801.03c1.408 0 2.607-.75 2.998-1.77-.13.03-.26.05-.39.07l-.092.01c-.138.01-.278.02-.42.02h-137.91c-1.722 0-3.133-1.122-3.133-2.493v-6.235h-39.66c-.156 0-.31.008-.466.013l-.146.007c-.11.01-.213.015-.32.026l-.16.015-.314.04-.14.02c-.137.024-.274.048-.41.076l-.03.005c-.15.03-.295.064-.44.1l-.106.03-.32.09-.128.04c-.105.03-.207.068-.31.104l-.106.04c-.13.046-.257.096-.38.15l-.018.01c-.137.056-.27.12-.403.183l-.047.023c-.112.055-.222.113-.33.174l-.08.046c-.1.057-.2.116-.295.176l-.07.04c-.357.23-.69.48-.994.755l-.048.04c-.088.08-.172.16-.254.243l-.04.04c-.096.097-.186.194-.27.29 1.29-.705 2.852-1.12 4.53-1.12m29.69 17.355h16.32c.465 0 .907-.078 1.31-.217.266-.366.424-.787.424-1.238v-.848c0-1.375-1.41-2.497-3.135-2.497h-16.65c-.356 0-.697.052-1.017.14-.348.415-.55.912-.55 1.445v.588c0 1.444 1.484 2.625 3.3 2.625" fill="#fff6d5"/><path d="M664.942 593.155c1.724 0 3.134 1.122 3.134 2.494v.84c0 .45-.158.87-.424 1.24l-.035.05c1.18-.36 2.026-1.268 2.026-2.33v-.848c0-1.37-1.41-2.495-3.134-2.495h-16.66c-1.13 0-2.128.486-2.68 1.206l.09-.024c.32-.09.66-.14 1.02-.14h16.65m133.156 4.795h16.325c.464 0 .906-.08 1.308-.22.264-.366.423-.787.423-1.238v-.848c0-1.375-1.41-2.497-3.134-2.497h-16.65c-.357 0-.697.053-1.017.14-.347.416-.55.913-.55 1.446v.586c0 1.444 1.484 2.625 3.3 2.625" fill="#fff6d5"/><path d="M813.017 593.155c1.724 0 3.135 1.122 3.135 2.494v.84c0 .45-.16.87-.425 1.24l-.034.05c1.18-.36 2.026-1.268 2.026-2.33v-.848c0-1.37-1.42-2.495-3.14-2.495h-16.65c-1.13 0-2.128.486-2.68 1.206l.09-.024c.32-.09.66-.14 1.02-.14h16.652" fill="#fff6d5"/><path d="M622.785 640.4h221.208c.925 0 1.684-.602 1.684-1.34v-.298c0-.737-.76-1.34-1.684-1.34H622.785c-.927 0-1.684.603-1.684 1.34v.3c0 .736.76 1.34 1.69 1.34" fill="#6c5d53"/><text transform="matrix(.7 0 0 .93 1288.48 -225.14)" y="927.505" x="-798.175" style="text-indent:0;text-align:center;line-height:125%;text-transform:none;block-progression:tb;-inkscape-font-specification:Roboto Light" font-size="64.144" font-weight="300" letter-spacing="0" word-spacing="0" text-anchor="middle" color="#000" overflow="visible" font-family="Roboto"><tspan y="927.505" x="-798.175">S439-BBX</tspan></text></g><path d="M534.708 691.958h38.598v-39.735h-38.598v39.735z" fill="#d89e81"/><path d="M574.4 673.034l4.91.33c12.263 2.968 25.68 5.07 34.612 14.78 5.563 6.048 15.23 56.612 15.23 56.612h-75.725V687.51c10.66 0 21.14-6.58 21.14-14.393" fill="#045"/><path d="M534.46 673.365h-6.568c-12.263 2.967-25.694 5.07-34.625 14.78-5.565 6.047-15.23 56.61-15.23 56.61h75.725V687.51c-10.66 0-19.3-6.332-19.3-14.145" fill="#045"/><path d="M553.197 538.29c18.74 0 48.377 10.003 48.377 56.87 0 27.064-9.397 44.792-13.492 49.696-3.766 4.51-24.95 14.127-34.885 14.127V538.29" fill="#e9b89d"/><path d="M611.704 606.57c.827-7.488-2.974-14.133-8.486-14.845-5.515-.71-10.654 4.788-11.482 12.276-.827 7.49 2.974 14.14 8.49 14.85 5.512.71 10.652-4.785 11.478-12.27m-57.7-68.047c-18.74 0-48.376 10-48.376 56.87 0 27.06 9.397 44.79 13.492 49.695 3.768 4.51 24.947 14.127 34.885 14.127V538.53" fill="#e9b89d"/><path d="M496.306 606.57c-.827-7.488 2.974-14.133 8.486-14.845 5.516-.71 10.654 4.788 11.48 12.276.83 7.49-2.973 14.14-8.487 14.85-5.512.71-10.654-4.785-11.48-12.27" fill="#e9b89d"/><path d="M554.005 641.535c8.736 0 15.816-2.71 15.816-6.05h-31.63c0 3.34 7.08 6.05 15.82 6.05" fill="#fff"/><path d="M592.992 599.11c2.017-4.833 6.008-7.928 10.226-7.385.01 0 .022.006.033.007 1.92-5.56 2.6-12.17-.02-19.183-13.952-37.3 1.9-43.96 1.9-43.96s-15.432-.65-27.404 8.65c8.255-12.02 11.97-15.12 11.97-15.12s-17.34-3.49-35.913 14.34c4.127-9.69 9.08-14.62 9.08-14.62s-38.806.277-52.844 26.633c-8 15.022-8.62 31.296-6.68 43.6.47-.163.956-.294 1.462-.36 1.83-.234 3.616.225 5.217 1.203v-11.5c7.43-3.1 15.276-6.976 14.862-22.48h54.493S578.135 576.38 593 580.64v18.46" fill="#4e3024"/><path d="M553.853 691.274c14.058 0 25.205-7.9 25.205-18.157l-5.768-.91c0 7.73-8.976 14.496-19.437 14.516-10.465-.02-19.02-6.372-19.02-14.102l-6.272.67c0 10.257 11.24 17.99 25.3 17.99" fill="#35988c"/><path fill="#045" fill-rule="evenodd" d="M498.298 692.082h115.156V744.3H498.298z"/><path d="M315.824 472.34c.02 18.112-14.77 32.74-33.03 32.68-18.26-.06-33.08-14.785-33.1-32.896-.018-18.11 14.772-32.74 33.033-32.68 18.258.06 33.078 14.787 33.097 32.896" fill="#005975"/><path d="M306.312 472.71c.253 12.978-10.08 23.267-23.074 22.99-13-.275-23.743-11.01-23.996-23.988-.253-12.976 10.08-23.265 23.08-22.99 12.994.276 23.737 11.013 23.99 23.99" fill="#ccc"/><path d="M372.036 480.713l-19.61 45.876-20.563-45.88v-42.46h40.173v42.46" fill="#d89e81"/><path d="M331.863 463.557s-43.07 5.38-48.712 11.042c-4.91 4.93-15.12 52.16-17.48 62.53h86.28v-24.91l-20.08-48.67m40.17 0s43.07 5.38 48.71 11.04c4.91 4.932 15.124 52.164 17.485 62.53h-86.28v-24.9l20.09-48.67" fill="gray"/><path d="M350.697 316.762c19.505 0 50.35 10.688 50.35 60.77 0 28.916-9.78 47.86-14.042 53.1-3.92 4.82-25.965 15.097-36.308 15.097V316.76" fill="#e9b89d"/><path d="M412 389.474c.86-8.003-3.094-15.103-8.83-15.863-5.742-.76-11.092 5.12-11.952 13.12-.86 8 3.096 15.1 8.836 15.86 5.74.76 11.085-5.11 11.947-13.11m-57.93-72.71c-19.5 0-50.35 10.688-50.35 60.77 0 28.916 9.78 47.86 14.04 53.1 3.93 4.82 25.97 15.097 36.31 15.097V316.76" fill="#e9b89d"/><path d="M291.895 389.474c-.86-8.003 3.095-15.103 8.833-15.863 5.742-.76 11.088 5.12 11.95 13.12.86 8-3.097 15.1-8.834 15.86-5.74.76-11.09-5.11-11.95-13.11" fill="#e9b89d"/><path d="M308.3 390.35h3.48s-2.117-13.042 4.087-17.253v-8.425s-2.398-.27-2.398-10.185c0-9.92 12.26-16.984 38.47-16.984v-36.28s-51.82 1.064-51.82 37.318v35.11s3.78-.646 6.48 1.54c2.913 2.356 1.69 15.17 1.69 15.17" fill="#2c2f35"/><path d="M394.095 390.35h-3.476s2.11-13.042-4.09-17.253v-8.425s2.39-.27 2.39-10.185c0-9.92-12.265-16.984-38.48-16.984v-36.28s51.822-1.138 51.822 35.114v37.305s-3.78-.647-6.485 1.54c-2.913 2.355-1.69 15.17-1.69 15.17" fill="#2c2f35"/><path d="M351.947 512.228l-13.65-44.964-5.04 20.263 18.69 24.7" fill="#9fb2be"/><path d="M331.295 458.903l7.167 8.977-5.206 19.647-11.008-14.312 9.047-14.312" fill="#666"/><path d="M351.95 512.228l12.36-45.493 6.332 20.792-18.693 24.7" fill="#9fb2be"/><path d="M372.6 458.903l-8.454 8.445 6.496 20.18 11.962-14.313-10.004-14.312" fill="#666"/><path d="M351.946 424.158c9.092 0 16.46-2.893 16.46-6.466h-32.92c0 3.573 7.367 6.466 16.46 6.466" fill="#fff"/><g transform="translate(-496.54 78.57)"><rect width="247.535" height="74.271" x="614.506" y="446.221" rx="2.82" fill="#fff6d5" fill-rule="evenodd"/><path d="M618.63 455.225c0-1.463.63-2.814 1.68-3.894l.04-.04c.083-.08.167-.16.255-.24l.044-.04c.3-.27.63-.524.99-.753l.07-.043c.09-.06.19-.12.29-.176l.08-.045c.11-.06.22-.12.33-.174l.045-.024c.132-.063.265-.125.402-.184l.015-.006c.124-.055.25-.105.38-.154l.11-.04c.1-.035.202-.07.306-.103l.125-.04c.106-.034.213-.064.322-.093l.105-.028c.146-.038.29-.07.44-.103l.03-.007c.137-.028.274-.053.41-.074l.14-.02.317-.04.16-.014.32-.03.144-.007c.155-.01.31-.013.468-.013h39.66v6.234c0 1.374 1.41 2.496 3.135 2.496h137.91c.14 0 .28-.01.42-.024l.09-.01c.136-.017.27-.04.398-.07 1.286-.313 2.228-1.266 2.228-2.387v-6.237h39.663c4.418 0 8.03 2.875 8.03 6.39v56.114c0 .124-.004.248-.013.37l-.014.116c-.007.086-.018.17-.03.256l-.02.122c-.015.084-.03.167-.05.25l-.025.11c-.03.11-.06.22-.094.328l-.007.028c-.04.116-.08.233-.13.347l-.035.087c-.037.087-.075.173-.115.257l-.05.1c-.04.08-.085.16-.13.24l-.05.088c-.06.103-.124.204-.19.303l-.01.014c-.074.11-.15.216-.233.32l-.03.038c-.07.09-.142.177-.218.26l-.06.067c-.07.08-.146.156-.22.232l-.056.054c-.288.288-.606.55-.95.794l-.052.038c-.1.066-.2.133-.305.2l-.057.033c-1.356.837-3.054 1.336-4.892 1.336h-223.5c-4.417 0-8.03-2.877-8.03-6.392v-56.11zm248.29 60.595v-65.075c0-4.48-4.606-8.145-10.236-8.145h-236.54c-1.407 0-2.75.23-3.974.643-3.67 1.24-6.26 4.142-6.26 7.502v65.075c0 4.48 4.605 8.145 10.234 8.145h236.54c2.645 0 5.064-.81 6.886-2.132 2.055-1.492 3.35-3.638 3.35-6.013" fill="#008066"/><path d="M858.042 512.572c-.028.11-.058.218-.092.325.034-.107.064-.216.092-.325m-.1.35c-.038.12-.08.235-.127.35.046-.115.09-.23.127-.35m-.33.792c-.04.082-.084.163-.13.243.046-.08.09-.16.13-.243m.168-.357c-.038.087-.076.172-.117.256.04-.084.08-.17.116-.256m-.81 1.36c-.07.09-.15.177-.22.263.07-.086.15-.173.22-.262m.46-.674c-.06.103-.13.204-.19.303.06-.1.13-.2.19-.303m-.2.316c-.08.108-.15.216-.24.32.08-.104.16-.212.233-.32m.884-2.15c-.015.084-.03.167-.05.25.02-.083.035-.166.05-.25M624.7 449.03c.137-.028.274-.052.41-.074-.136.022-.273.046-.41.073m233.465 62.79c-.008.085-.018.17-.03.255.012-.085.022-.17.03-.256m-50.38-54.29l.092-.01-.094.01m-181.592-8.69c.16-.007.31-.01.47-.01-.15 0-.31.005-.47.01m-.46.033c.11-.01.21-.02.32-.025-.11.005-.21.012-.32.022m-.472.055l.316-.04-.317.04m-2.79.85c.133-.066.267-.128.403-.187-.138.058-.27.12-.403.185m234.23 65.26c-.07.08-.145.156-.22.233.075-.08.15-.156.22-.235m1.5-3.702c0 .124-.005.248-.014.372.004-.125.01-.25.01-.373M621.71 450.2c.097-.06.195-.12.295-.178-.1.058-.198.116-.295.177m1.658-.81c.103-.037.205-.07.31-.105-.105.033-.207.07-.31.104m-.488.193c.125-.053.252-.103.38-.152-.128.05-.255.1-.38.154" fill="#fffa99"/><path d="M625.344 508.66c0-.735.757-1.338 1.683-1.338h221.21c.924 0 1.682.603 1.682 1.34v.298c0 .737-.76 1.34-1.69 1.34H627.02c-.924 0-1.68-.603-1.68-1.34v-.3zm25.62-44.02c0-.532.204-1.03.55-1.445l-.09.025c.55-.72 1.544-1.204 2.675-1.204h16.65c1.72 0 3.13 1.122 3.13 2.494v.848c0 1.06-.85 1.97-2.03 2.33l.034-.054c-.4.14-.843.218-1.307.218h-16.32c-1.815 0-3.3-1.182-3.3-2.626v-.586zm148.076 0c0-.532.204-1.03.55-1.445l-.09.025c.55-.72 1.544-1.204 2.675-1.204h16.652c1.724 0 3.135 1.122 3.135 2.494v.848c0 1.06-.846 1.97-2.027 2.33l.035-.054c-.402.14-.844.218-1.307.218H802.34c-1.815 0-3.3-1.182-3.3-2.626v-.586zm-172.378 53.09h223.5c1.84 0 3.537-.5 4.894-1.334-.12.072-.24.144-.363.212.89-1.03 1.41-2.27 1.41-3.606v-56.114c0-3.515-3.613-6.39-8.03-6.39H810.5v4.572c0 1.12-.94 2.074-2.225 2.386-.392 1.022-1.59 1.77-2.998 1.77H667.37c-1.725 0-3.136-1.122-3.136-2.493v-6.235h-39.66c-1.68 0-3.24.415-4.532 1.122.085-.098.175-.195.267-.29-1.05 1.08-1.68 2.433-1.68 3.896v56.114c0 3.514 3.61 6.39 8.03 6.39" fill="#fff6d5"/><path d="M621.643 450.247c-.357.23-.69.482-.994.757.3-.275.63-.527.99-.757m-1.29 1.04c.08-.082.16-.163.25-.243-.09.08-.17.16-.257.244m1.736-1.305c.11-.06.22-.118.33-.174-.11.05-.22.11-.33.17m233.33 66.18c-.1.07-.2.13-.305.2.104-.07.205-.13.305-.2M623.8 449.25c.107-.033.214-.063.323-.092-.11.03-.216.06-.322.093m231.67 66.87c.343-.24.66-.504.948-.79-.288.285-.605.55-.95.79M624.23 449.136c.145-.038.29-.072.44-.102-.15.03-.295.065-.44.102" fill="#fffa99"/><path d="M856.104 456.888v56.114c0 1.335-.522 2.577-1.41 3.606.123-.068.243-.14.362-.212l.056-.035c.104-.06.205-.13.305-.2l.052-.03c.34-.24.66-.504.94-.79l.053-.052c.076-.077.15-.155.222-.234l.056-.065c.077-.086.15-.173.22-.26l.03-.04c.08-.104.16-.21.233-.32l.007-.01c.07-.1.13-.2.19-.305l.05-.087c.05-.08.09-.16.135-.244l.05-.1c.04-.086.08-.17.116-.258l.037-.083c.048-.115.09-.23.13-.35l.006-.025c.033-.107.063-.216.09-.325l.026-.113c.02-.08.033-.166.05-.25l.02-.127.03-.254.01-.117c.01-.123.014-.247.014-.372v-56.12c0-3.515-3.614-6.39-8.03-6.39H810.5v1.662h37.57c4.42 0 8.032 2.874 8.032 6.39m-231.592-6.38h39.675v6.275c0 1.38 1.41 2.51 3.135 2.51h137.956c1.408 0 2.607-.754 3-1.783-.13.032-.263.055-.398.073l-.092.01c-.137.015-.277.026-.42.026H669.41c-1.724 0-3.135-1.13-3.135-2.51v-6.275H626.6c-.157 0-.313.007-.468.012l-.145.008c-.108.008-.215.015-.32.025l-.16.015-.316.04-.14.02c-.13.022-.27.047-.41.075l-.03.007c-.15.03-.29.065-.44.102l-.1.026c-.11.03-.214.06-.32.093l-.125.04c-.104.04-.206.07-.307.11l-.107.04c-.13.05-.257.1-.382.155l-.014.007c-.138.06-.27.12-.405.188l-.048.023c-.11.057-.22.116-.33.176l-.08.047c-.1.058-.2.118-.294.18l-.07.04c-.356.23-.69.486-.993.76l-.044.043c-.087.08-.17.16-.253.243l-.044.04c-.093.095-.18.193-.267.29 1.29-.71 2.855-1.13 4.533-1.13m29.75 17.346h16.324c.466 0 .908-.08 1.31-.218.265-.368.424-.79.424-1.24v-.85c0-1.375-1.413-2.497-3.137-2.497h-16.66c-.354 0-.696.052-1.015.14-.347.416-.55.913-.55 1.445v.584c0 1.443 1.484 2.625 3.3 2.625" fill="#fff6d5"/><path d="M669.184 463.055c1.724 0 3.135 1.122 3.135 2.494v.84c0 .45-.16.87-.43 1.24l-.04.05c1.18-.36 2.026-1.27 2.026-2.33v-.848c0-1.373-1.41-2.495-3.134-2.495H654.1c-1.132 0-2.125.486-2.676 1.205l.09-.025c.32-.09.662-.14 1.018-.14h16.653m133.155 4.8h16.323c.463 0 .905-.08 1.307-.22.266-.364.425-.785.425-1.236v-.847c0-1.374-1.41-2.496-3.135-2.496h-16.653c-.356 0-.697.05-1.017.14-.346.415-.55.912-.55 1.444v.587c0 1.442 1.485 2.624 3.3 2.624" fill="#fff6d5"/><path d="M817.26 463.055c1.724 0 3.135 1.122 3.135 2.494v.84c0 .45-.16.87-.425 1.24l-.035.05c1.18-.36 2.027-1.27 2.027-2.33v-.848c0-1.373-1.41-2.495-3.135-2.495h-16.652c-1.13 0-2.125.486-2.676 1.205l.09-.025c.32-.09.66-.14 1.01-.14h16.65" fill="#fff6d5"/><path d="M627.027 510.3h221.21c.924 0 1.682-.603 1.682-1.34v-.3c0-.735-.76-1.338-1.69-1.338H627.02c-.924 0-1.68.603-1.68 1.34v.298c0 .737.757 1.34 1.683 1.34" fill="#008066"/><text transform="matrix(1 0 0 1.34 559.82 -278.75)" y="586.042" x="168.683" style="text-indent:0;text-align:center;line-height:125%;text-transform:none;block-progression:tb;-inkscape-font-specification:Roboto Light" font-size="44.486" font-weight="300" letter-spacing="0" word-spacing="0" text-anchor="middle" color="#000" overflow="visible" font-family="Roboto"><tspan y="586.042" x="168.683">SB-04-CS</tspan></text></g><path d="M537.1 558.654c19.903 0 51.378 6.107 51.378 34.724 0 16.524-9.98 27.348-14.33 30.343-4 2.76-26.495 8.63-37.047 8.63v-73.69" fill="#e9b89d"/></svg>