<svg xmlns="http://www.w3.org/2000/svg" width="1000.01" height="1000"><path d="M688.187 464.983c0 9.203-7.622 16.668-17.02 16.668h-249.22c-9.398 0-17.026-7.46-17.026-16.66V318.68c0-9.206 7.63-16.667 17.03-16.667h249.22c9.4 0 17.02 7.46 17.02 16.668v146.31z" fill="#006680"/><path d="M688.188 327.242H404.92V357.8h283.27v-30.558z" fill="#b3b3b3"/><path d="M666.912 412.56c0 21.095-17.475 38.193-39.02 38.193-21.546 0-39.014-17.098-39.014-38.194 0-21.1 17.468-38.2 39.015-38.2 21.544 0 39.02 17.1 39.02 38.19" fill="#ffe680"/><path d="M560.857 388.238H425.02v-11.58h135.837v11.58z" fill="#c83737"/><path d="M560.857 410.42H425.02v-11.576h135.837v11.575zm0 23.153H425.02v-11.575h135.837v11.575zm0 22.19H425.02v-11.577h135.837v11.578z" fill="#37abc8"/><path d="M728.96 550.58c0-33 26.365-59.756 58.885-59.756 32.52 0 58.884 26.755 58.884 59.757 0 33.01-26.37 59.76-58.89 59.76s-58.89-26.75-58.89-59.75" fill="#afdde9"/><path d="M837.6 581.073c0 4.303-3.84 7.784-8.583 7.784H762.07c-3.878 0-7.144-2.358-8.19-5.58h-.377V505.52c0-4.297 3.83-7.794 8.567-7.794h29.463l46.067 51.037zM804.302 477.51H745.36c-9.476 0-17.163 6.973-17.163 15.58v145.725h-47.4c17.504-14.57 27.904-36.242 27.853-60.063-.096-44.564-37.704-81.026-83.792-81.026h-198.33c-46.078 0-83.797 36.462-83.797 81.026 0 23.79 10.83 45.203 27.86 60.063h-27.86c-6.94 0-12.58 5.625-12.58 12.56 0 6.947 5.64 12.583 12.58 12.583h35.92c4.51-21.93 23.93-38.43 47.19-38.43 15.3 0 28.82 7.21 37.65 18.337 8.83-11.158 22.45-18.336 37.77-18.336 23.27 0 42.676 16.49 47.19 38.42h205.2c4.51-21.93 23.92-38.43 47.19-38.43 23.27 0 42.67 16.5 47.19 38.43h30.664c5.326 0 9.84-3.33 11.68-8 3.674-2.86 6.043-7.04 6.043-11.77l1.1-73.46z" fill="#045"/><path d="M458.743 669.13c0-23.117 19.386-41.866 43.287-41.866 23.894 0 43.267 18.75 43.267 41.865 0 23.11-19.373 41.86-43.267 41.86-23.9 0-43.287-18.75-43.287-41.87" fill="#483737"/><path d="M696.25 621.527c5.452-8.323 11.418-20.78 12.457-39.96 2.68-49.474-37.703-84.103-83.792-84.103h-198.33c-46.078 0-83.797 36.462-83.797 81.026 0 23.79 7.382 35.913 12.99 43.037H696.25z" fill="#ff7f2a"/><path d="M382.576 668.422c0-23.116 19.387-41.865 43.288-41.865 23.893 0 43.266 18.75 43.266 41.865 0 23.116-19.373 41.864-43.266 41.864-23.9 0-43.288-18.748-43.288-41.864" fill="#483737"/><path d="M757.63 669.13c0-23.117 19.387-41.866 43.288-41.866 23.893 0 43.266 18.75 43.266 41.865 0 23.11-19.373 41.86-43.266 41.86-23.9 0-43.288-18.75-43.288-41.87" fill="#483e37"/><path d="M765.064 669.193c0-19.247 16.062-34.858 35.865-34.858 19.79 0 35.84 15.61 35.84 34.858 0 19.247-16.05 34.858-35.85 34.858-19.81 0-35.87-15.61-35.87-34.85m-376-.25c0-19.25 16.06-34.86 35.865-34.86 19.794 0 35.845 15.61 35.845 34.86s-16.05 34.86-35.847 34.86c-19.805 0-35.867-15.61-35.867-34.852m77 1c0-19.25 16.065-34.86 35.868-34.86 19.793 0 35.844 15.61 35.844 34.86 0 19.246-16.05 34.857-35.846 34.857-19.803 0-35.865-15.61-35.865-34.856" fill="#ac9d93"/><path d="M346.078 689.982c0 6.63-4.247 12.052-9.428 12.052H111.934c-5.186 0-9.428-5.423-9.428-12.052v-8.604c0-6.623 4.242-12.052 9.428-12.052H336.65c5.18 0 9.428 5.43 9.428 12.052v8.604" fill="#165044"/><path d="M378.294 391.15l-11.592-14.818V353.7l11.592 14.817v22.633zm-72.93 10.232c0 19.97-12.658 36.155-28.285 36.155H171.49c-15.627 0-28.284-16.186-28.284-36.155V362.81c0-19.957 12.657-36.155 28.284-36.155h105.59c15.626 0 28.284 16.198 28.284 36.155v38.572zm40.116-91.852c-1.843-2.35-4.827-2.35-6.666 0-1.843 2.356-1.843 6.17 0 8.52l19.13 24.46c-.387.885-.67 1.85-.67 2.928v35.884l21.02 26.87v168.734c0 7.23-1.325 13.076-3.823 16.914-1.91 2.953-4.5 4.568-7.27 4.568-6 0-12.08-7.37-12.08-21.482v-138.57l-27.1-34.66v-82.133c0-16.643-10.55-30.13-23.58-30.13H144.15c-13.02 0-23.57 13.487-23.57 30.13v309.88c0 16.642 10.55 30.128 23.57 30.128h160.275c13.03 0 23.58-13.48 23.58-30.12V420.74l17.677 22.61v133.58c0 21.79 11.083 33.533 21.515 33.533 5.63 0 10.78-3.17 14.52-8.912 3.93-6.03 6.005-14.54 6.005-24.62v-213.4l-42.242-54" fill="#164450"/><path d="M323.09 414.404c0 32.95-3.386 59.908-7.517 59.908h-179.18c-4.135 0-7.518-26.96-7.518-59.908V371.63c0-32.92 3.383-59.91 7.518-59.91h179.18c4.13 0 7.517 26.99 7.517 59.91v42.774" fill="#dbe2e3"/><path d="M305.624 400.023c0 20.163-12.706 36.506-28.393 36.506H171.24c-15.688 0-28.394-16.35-28.394-36.51v-38.95c0-20.15 12.706-36.51 28.393-36.51h105.99c15.68 0 28.39 16.35 28.39 36.5zm22.73 2.336v-82.93c0-16.81-10.592-30.43-23.67-30.43H143.786c-13.07 0-23.66 13.61-23.66 30.42v312.89c0 16.8 10.59 30.42 23.66 30.42h160.896c13.08 0 23.67-13.62 23.67-30.426V419.56" fill="#2c89a0"/></svg>