<?xml version="1.0" encoding="UTF-8" standalone="no"?>
<!-- Created with Inkscape (http://www.inkscape.org/) -->

<svg
   xmlns:dc="http://purl.org/dc/elements/1.1/"
   xmlns:cc="http://creativecommons.org/ns#"
   xmlns:rdf="http://www.w3.org/1999/02/22-rdf-syntax-ns#"
   xmlns:svg="http://www.w3.org/2000/svg"
   xmlns="http://www.w3.org/2000/svg"
   xmlns:sodipodi="http://sodipodi.sourceforge.net/DTD/sodipodi-0.dtd"
   xmlns:inkscape="http://www.inkscape.org/namespaces/inkscape"
   width="1000.01"
   height="1000"
   id="svg2"
   version="1.1"
   inkscape:version="0.48.4 r9939"
   sodipodi:docname="fuel(Det).svg">
  <defs
     id="defs4" />
  <sodipodi:namedview
     id="base"
     pagecolor="#ffffff"
     bordercolor="#666666"
     borderopacity="1.0"
     inkscape:pageopacity="0.0"
     inkscape:pageshadow="2"
     inkscape:zoom="0.50000001"
     inkscape:cx="-35.722435"
     inkscape:cy="771.55454"
     inkscape:document-units="px"
     inkscape:current-layer="layer1"
     showgrid="false"
     inkscape:window-width="1615"
     inkscape:window-height="1026"
     inkscape:window-x="65"
     inkscape:window-y="24"
     inkscape:window-maximized="1">
    <inkscape:grid
       type="xygrid"
       id="grid3823"
       empspacing="5"
       visible="true"
       enabled="true"
       snapvisiblegridlinesonly="true" />
  </sodipodi:namedview>
  <metadata
     id="metadata7">
    <rdf:RDF>
      <cc:Work
         rdf:about="">
        <dc:format>image/svg+xml</dc:format>
        <dc:type
           rdf:resource="http://purl.org/dc/dcmitype/StillImage" />
        <dc:title />
      </cc:Work>
    </rdf:RDF>
  </metadata>
  <g
     inkscape:label="Layer 1"
     inkscape:groupmode="layer"
     id="layer1"
     transform="translate(0,-52.362183)">
    <g
       id="g3916"
       transform="translate(1.1492716,35.964586)">
      <g
         transform="matrix(0.68952697,0,0,0.70359054,629.60194,-138.18804)"
         id="g3806">
        <path
           inkscape:connector-curvature="0"
           id="path1340-9"
           style="fill:#006680;fill-opacity:1;fill-rule:nonzero;stroke:none"
           d="m 83.296952,880.5812 c 0,13.08072 -11.053258,23.69041 -24.681954,23.69041 l -361.440028,0 c -13.62869,0 -24.69151,-10.60969 -24.69151,-23.69041 l 0,-207.93606 c 0,-13.08529 11.06282,-23.69035 24.69151,-23.69035 l 361.440028,0 c 13.628696,0 24.681954,10.60506 24.681954,23.69035 l 0,207.93606 z" />
        <path
           d="m 83.298363,684.8132 -410.813493,0 0,43.43085 410.813493,0 0,-43.43085 z"
           style="fill:#b3b3b3;fill-opacity:1;fill-rule:nonzero;stroke:none"
           id="path1342-3"
           inkscape:connector-curvature="0" />
        <path
           inkscape:connector-curvature="0"
           id="path1346-4"
           style="fill:#ffe680;fill-opacity:1;fill-rule:nonzero;stroke:none"
           d="m 52.442545,806.07229 c 0,29.98271 -25.342517,54.28393 -56.5874993,54.28393 -31.2497447,0 -56.5826857,-24.30122 -56.5826857,-54.28393 0,-29.9827 25.332941,-54.28392 56.5826857,-54.28392 31.2449823,0 56.5874993,24.30122 56.5874993,54.28392" />
        <path
           d="m -101.36614,771.50494 -197.00079,0 0,-16.45651 197.00079,0 0,16.45651 z"
           style="fill:#c83737;fill-opacity:1;fill-rule:nonzero;stroke:none"
           id="path1348-6"
           inkscape:connector-curvature="0" />
        <path
           d="m -101.36614,803.03086 -197.00079,0 0,-16.4519 197.00079,0 0,16.4519 z"
           style="fill:#37abc8;fill-opacity:1;fill-rule:nonzero;stroke:none"
           id="path1350-7"
           inkscape:connector-curvature="0" />
        <path
           d="m -101.36614,835.93925 -197.00079,0 0,-16.4519 197.00079,0 0,16.4519 z"
           style="fill:#37abc8;fill-opacity:1;fill-rule:nonzero;stroke:none"
           id="path1352-0"
           inkscape:connector-curvature="0" />
        <path
           d="m -101.36614,867.47896 -197.00079,0 0,-16.45647 197.00079,0 0,16.45647 z"
           style="fill:#37abc8;fill-opacity:1;fill-rule:nonzero;stroke:none"
           id="path1354-4"
           inkscape:connector-curvature="0" />
      </g>
      <g
         transform="translate(1.4142135,-287.08535)"
         id="g3905">
        <path
           inkscape:connector-curvature="0"
           id="path722"
           style="fill:#afdde9;fill-opacity:1;fill-rule:nonzero;stroke:none"
           d="m 726.39734,854.06353 c 0,-33.00195 26.3638,-59.75635 58.884,-59.75635 32.5201,0 58.8839,26.7544 58.8839,59.75635 0,33.00196 -26.3638,59.75637 -58.8839,59.75637 -32.5202,0 -58.884,-26.75441 -58.884,-59.75637" />
        <path
           sodipodi:nodetypes="ssscccssccscssccsssscssscscsccscscccc"
           inkscape:connector-curvature="0"
           id="path742"
           style="fill:#004455;fill-opacity:1;fill-rule:nonzero;stroke:none"
           d="m 835.03684,884.55579 c 0,4.30326 -3.8407,7.78455 -8.5838,7.78455 l -66.9463,0 c -3.8783,0 -7.1442,-2.35847 -8.1917,-5.58188 l -0.376,0 0,-2.20267 0,-75.55147 c 0,-4.29788 3.83,-7.79529 8.5677,-7.79529 l 29.4632,0 46.0669,51.0374 z m -33.2986,-103.56294 -58.9426,0 c -9.4755,0 -17.1622,6.97331 -17.1622,15.57984 l 0,145.72519 -47.39903,0 c 17.50314,-14.56881 27.90333,-36.24217 27.85173,-60.06295 -0.096,-44.56362 -37.70324,-81.0259 -83.79158,-81.0259 l -198.33026,0 c -46.0776,0 -83.79698,36.46219 -83.79698,81.0259 0,23.7888 10.82915,45.20302 27.85712,60.06295 l -27.85712,0 c -6.94548,0 -12.58029,5.62487 -12.58029,12.56057 0,6.94646 5.63481,12.58202 12.58029,12.58202 l 35.91453,0 c 4.50677,-21.92992 23.93048,-38.42843 47.18952,-38.42843 15.29294,0 28.81864,7.2097 37.64417,18.33586 8.83091,-11.15839 22.44793,-18.33586 37.76773,-18.33586 23.26977,0 42.67738,16.49851 47.18952,38.42843 l 205.20055,0 c 4.5121,-21.92992 23.9197,-38.42843 47.1895,-38.42843 23.2698,0 42.672,16.49851 47.1895,38.42843 l 30.6665,0 c 5.3233,0 9.8407,-3.32544 11.6779,-7.9994 3.6742,-2.85272 6.043,-7.03778 6.043,-11.77083 l 1.1012,-73.46162 z" />
        <path
           inkscape:connector-curvature="0"
           id="path750"
           style="fill:#483737;fill-opacity:1;fill-rule:nonzero;stroke:none"
           d="m 456.17944,972.61179 c 0,-23.11597 19.38657,-41.86477 43.28726,-41.86477 23.89378,0 43.26656,18.7488 43.26656,41.86477 0,23.116 -19.37278,41.86471 -43.26656,41.86471 -23.90069,0 -43.28726,-18.74871 -43.28726,-41.86471" />
        <path
           sodipodi:nodetypes="cssssccc"
           inkscape:connector-curvature="0"
           id="path742-0"
           style="fill:#ff7f2a;fill-opacity:1;fill-rule:nonzero;stroke:none"
           d="m 693.68798,925.00977 c 5.45081,-8.32327 11.41666,-20.77833 12.45536,-39.96084 2.6788,-49.47345 -37.70329,-84.10198 -83.79164,-84.10198 l -198.33026,0 c -46.07759,0 -83.79697,36.46219 -83.79697,81.0259 0,23.7888 7.38251,35.91345 12.98944,43.03692 46.80055,0 93.60111,0 140.40168,0 93.60112,0 153.27184,0 200.07239,0 z" />
        <path
           inkscape:connector-curvature="0"
           id="path750-5"
           style="fill:#483737;fill-opacity:1;fill-rule:nonzero;stroke:none"
           d="m 380.01292,971.90468 c 0,-23.11597 19.38657,-41.86477 43.28726,-41.86477 23.89378,0 43.26656,18.7488 43.26656,41.86477 0,23.116 -19.37278,41.86472 -43.26656,41.86472 -23.90069,0 -43.28726,-18.74872 -43.28726,-41.86472" />
        <path
           inkscape:connector-curvature="0"
           id="path750-56"
           style="fill:#483e37;fill-opacity:1;fill-rule:nonzero;stroke:none"
           d="m 755.06674,972.61179 c 0,-23.11597 19.3866,-41.86477 43.2873,-41.86477 23.8937,0 43.2665,18.7488 43.2665,41.86477 0,23.116 -19.3728,41.86471 -43.2665,41.86471 -23.9007,0 -43.2873,-18.74871 -43.2873,-41.86471" />
        <path
           inkscape:connector-curvature="0"
           id="path754"
           style="fill:#ac9d93;fill-opacity:1;fill-rule:nonzero;stroke:none"
           d="m 762.50064,972.67611 c 0,-19.24712 16.0623,-34.85801 35.8645,-34.85801 19.7967,0 35.8475,15.61089 35.8475,34.85801 0,19.24718 -16.0508,34.85799 -35.8475,34.85799 -19.8022,0 -35.8645,-15.61081 -35.8645,-34.85799" />
        <path
           inkscape:connector-curvature="0"
           id="path754-3"
           style="fill:#ac9d93;fill-opacity:1;fill-rule:nonzero;stroke:none"
           d="m 386.50064,972.42611 c 0,-19.24712 16.0623,-34.85801 35.8645,-34.85801 19.7967,0 35.8475,15.61089 35.8475,34.85801 0,19.24718 -16.0508,34.85799 -35.8475,34.85799 -19.8022,0 -35.8645,-15.61081 -35.8645,-34.85799" />
        <path
           inkscape:connector-curvature="0"
           id="path754-5"
           style="fill:#ac9d93;fill-opacity:1;fill-rule:nonzero;stroke:none"
           d="m 463.50064,973.42611 c 0,-19.24712 16.0623,-34.85801 35.8645,-34.85801 19.7967,0 35.8475,15.61089 35.8475,34.85801 0,19.24718 -16.0508,34.85799 -35.8475,34.85799 -19.8022,0 -35.8645,-15.61081 -35.8645,-34.85799" />
      </g>
      <g
         transform="translate(67.88225,-70.710677)"
         id="g3890">
        <path
           inkscape:connector-curvature="0"
           id="path160-3"
           style="fill:#165044;fill-opacity:1;fill-rule:nonzero;stroke:none"
           d="m 277.04689,777.09069 c 0,6.62847 -4.24731,12.05169 -9.42801,12.05169 l -224.716797,0 c -5.18541,0 -9.42802,-5.42322 -9.42802,-12.05169 l 0,-8.60487 c 0,-6.62238 4.24261,-12.05165 9.42802,-12.05165 l 224.716797,0 c 5.1807,0 9.42801,5.42927 9.42801,12.05165 l 0,8.60487" />
        <path
           inkscape:connector-curvature="0"
           id="path162-4"
           style="fill:#164450;fill-opacity:1;fill-rule:nonzero;stroke:none"
           d="m 309.26243,478.258 -11.59176,-14.81751 0,-22.63299 11.59176,14.8175 0,22.633 z m -72.93044,10.23184 c 0,19.9696 -12.65711,36.15495 -28.28404,36.15495 l -105.58437,0 c -15.626927,0 -28.284057,-16.18535 -28.284057,-36.15495 l 0,-38.5713 c 0,-19.95754 12.65713,-36.15494 28.284057,-36.15494 l 105.58437,0 c 15.62693,0 28.28404,16.1974 28.28404,36.15494 l 0,38.5713 z m 40.11622,-91.85165 c -1.84318,-2.35006 -4.82714,-2.35006 -6.66561,0 -1.84317,2.35611 -1.84317,6.17046 0,8.52053 l 19.12945,24.45882 c -0.38655,0.88579 -0.66938,1.84993 -0.66938,2.92856 l 0,35.88377 21.01976,26.86916 0,168.73515 c 0,7.23099 -1.32464,13.07604 -3.82306,16.91448 -1.9139,2.95266 -4.50187,4.56758 -7.27372,4.56758 -6.00093,0 -12.08672,-7.36958 -12.08672,-21.48206 l 0,-138.56988 -27.10555,-34.66054 0,-82.13199 c 0,-16.64333 -10.54995,-30.12912 -23.57946,-30.12912 l -160.276297,0 c -13.02009,0 -23.57004,13.48579 -23.57004,30.12912 l 0,309.87803 c 0,16.64334 10.54995,30.12913 23.57004,30.12913 l 160.276297,0 c 13.02951,0 23.57946,-13.48579 23.57946,-30.12913 l 0,-210.70501 17.67753,22.6089 0,133.58049 c 0,21.78938 11.08264,33.53372 21.51474,33.53372 5.62853,0 10.78094,-3.16959 14.51914,-8.91221 3.93149,-6.03788 6.00565,-14.54634 6.00565,-24.62151 l 0,-213.39856 -42.24223,-53.99743" />
        <path
           inkscape:connector-curvature="0"
           id="path160-7"
           style="fill:#dbe2e3;fill-opacity:1;fill-rule:nonzero;stroke:none"
           d="m 254.05866,501.51236 c 0,32.94924 -3.3866,59.90824 -7.51753,59.90824 l -179.179847,0 c -4.13461,0 -7.51751,-26.959 -7.51751,-59.90824 l 0,-42.77507 c 0,-32.9199 3.3829,-59.90906 7.51751,-59.90906 l 179.179847,0 c 4.13093,0 7.51753,26.98916 7.51753,59.90906 l 0,42.77507" />
        <path
           sodipodi:nodetypes="ssssssssscssssssssc"
           inkscape:connector-curvature="0"
           id="path162"
           style="fill:#2c89a0;fill-opacity:1;fill-rule:nonzero;stroke:none"
           d="m 236.59275,487.13093 c 0,20.16374 -12.70598,36.50654 -28.39328,36.50654 l -105.99219,0 c -15.687267,0 -28.393287,-16.3428 -28.393287,-36.50654 l 0,-38.94632 c 0,-20.15158 12.70602,-36.50649 28.393287,-36.50649 l 105.99219,0 c 15.6873,0 28.39328,16.35491 28.39328,36.50649 z m 22.72886,2.33641 0,-82.93055 c 0,-16.80517 -10.59073,-30.42207 -23.67056,-30.42207 l -160.895337,0 c -13.07037,0 -23.66107,13.6169 -23.66107,30.42207 l 0,312.89104 c 0,16.80511 10.5907,30.422 23.66107,30.422 l 160.895337,0 c 13.07983,0 23.67056,-13.61689 23.67056,-30.422 l 0,-212.75377" />
      </g>
    </g>
  </g>
</svg>
