<svg xmlns="http://www.w3.org/2000/svg" width="1000" height="1000">
  <path fill="#ccc" fill-rule="evenodd" d="M399.092 535.96h99.254l46.524 81.156H352.566l46.526-81.157"/>
  <path fill="#e6e6e6" fill-rule="evenodd" d="M214.835 265.33h467.768c13.162 0 23.93 10.373 23.93 23.046V533.49c0 12.675-10.768 23.047-23.93 23.047H214.835c-13.164 0-23.933-10.372-23.933-23.048V288.37c0-12.673 10.77-23.046 23.933-23.046"/>
  <path fill="gray" fill-rule="evenodd" d="M206.786 515.384h483.866v-236.61H206.786v236.61z"/>
  <path fill="#d35f5f" fill-rule="evenodd" d="M677.473 539.16c1.713 0 3.11-1.345 3.11-2.99 0-1.65-1.397-2.993-3.11-2.993-1.71 0-3.107 1.343-3.107 2.992 0 1.64 1.398 2.99 3.107 2.99"/>
  <path fill="#08a" fill-rule="evenodd" d="M665.338 539.16c1.714 0 3.11-1.345 3.11-2.99 0-1.65-1.396-2.993-3.11-2.993-1.71 0-3.108 1.343-3.108 2.992 0 1.64 1.398 2.99 3.108 2.99"/>
  <path fill="#7a7e7d" fill-rule="evenodd" d="M653.204 539.16c1.712 0 3.11-1.345 3.11-2.99 0-1.65-1.398-2.993-3.11-2.993s-3.107 1.343-3.107 2.992c0 1.64 1.395 2.99 3.107 2.99"/>
  <g fill="#b3b3b3" fill-rule="evenodd">
    <path d="M332.5 612.27h233.86c2.87 0 5.218 6.212 5.218 13.802 0 7.594-2.35 13.804-5.217 13.804H332.5c-2.87 0-5.216-6.21-5.216-13.804 0-7.59 2.347-13.8 5.217-13.8"/>
    <path d="M571.578 626.072c0 7.594-2.35 13.804-5.217 13.804H332.5c-2.87 0-5.216-6.21-5.216-13.804h244.294"/>
  </g>
  <path fill="#08a" d="M222.617 282.995H675.55v59.56H222.616v-59.56z"/>
  <path fill="#87cdde" d="M675.55 342.395H222.616v61.642H675.55v-61.642z"/>
  <path fill="#87cdde" d="M222.617 397.932H675.55v60.604H222.616v-60.604z"/>
  <path fill="#87cdde" d="M675.55 453.33H222.616v56.104H675.55V453.33z"/>
  <path fill="#d35f8d" d="M353.6 348.265h190.798v28.568h-190.8v-28.568zm190.798 32.905h-190.8v28.567h190.8V381.17z"/>
  <path fill="#fea" d="M353.6 414.156h190.798v28.57h-190.8v-28.57zm190.798 32.906h-190.8v28.568h190.8v-28.568z"/>
  <path fill="#ffe49c" d="M544.332 414.01h-190.8v28.57h190.8v-28.57zm-.054 32.908h-190.8v28.567h190.8v-28.567z"/>
  <path fill="#2c89a0" d="M222.855 318.09h452.932v24.867H222.855V318.09z"/>
  <g transform="matrix(.844 0 0 .934 44.804 132.845)">
    <rect width="174.69928" height="22.990768" x="539.29022" y="187.38115" fill="#dbe3db" fill-rule="evenodd" ry="9.9626656" rx="14.857618"/>
    <rect width="166.61496" height="15.267675" x="543.22009" y="191.36961" fill="#53676c" fill-rule="evenodd" ry="6.6159925" rx="14.170073"/>
    <rect width="83.483803" height="16.437901" x="542.72546" y="190.97951" fill="#87decd" fill-rule="evenodd" ry="7.1230898" rx="7.1000333"/>
    <text x="580.90704" y="212.87416" stroke-width="1px" letter-spacing="0px" font-size="4.87331533px" font-style="italic" font-weight="bold" transform="scale(1.052 .951)" word-spacing="0px" text-anchor="middle" color="#000" style="text-indent:0;text-align:center;line-height:125%;text-transform:none;block-progression:tb;-inkscape-font-specification:Sans Italic" overflow="visible" font-family="Roboto">
      <tspan x="580.90704" y="212.87416" style="text-align:center;line-height:125%;-inkscape-font-specification:Roboto Medium" font-size="9.74663067px" font-style="normal" font-weight="500">50%</tspan>
    </text>
  </g>
  <path fill="#c8c7c5" d="M642.126 564.694c.266-.35-.428-.087.112-.29.067.148.09.286-.112.29m-.374.372c-.227-.09-.55.022-.573-.34.16.125.46.183.57.34"/>
  <path fill="#fff" d="M782.85 709.365l-200.803.042-.916-249.362L781.94 460l.917 249.364"/>
  <path fill="#53676c" d="M783.04 708.755l-199.043.04-.916-248.996 199.05-.05.917 248.997m24.714-263.29c-.025-6.707-5.892-12.146-13.11-12.145l-223.36.045c-7.22.005-13.05 5.445-13.022 12.155l1.016 276.71c.025 6.71 5.895 12.148 13.113 12.147l223.36-.046c7.217 0 13.05-5.44 13.02-12.153l-1.017-276.71"/>
  <path fill="#afe9dd" fill-rule="evenodd" d="M782.41 708.772l-198.85-.02-.49-248.676 198.85.02.49 248.114"/>
  <path fill="#f03d5c" d="M780.32 472.79l-194.53.034-.316-10.966 194.532-.034.315 10.966"/>
  <path fill="#46464e" d="M782.85 709.253l-.075-.117-.522-141.86.073-.027.523 141.98M782 479.5l-.063.044-.07-19.35-152.743.032-.095-.156 152.91-.032.07 19.505"/>
  <path fill="#003380" fill-rule="evenodd" d="M684.4 728.082c-3.216.703-6.407-1.39-7.123-4.675-.716-3.286 1.314-6.518 4.53-7.22 3.218-.704 6.405 1.39 7.12 4.675.717 3.286-1.31 6.518-4.527 7.22"/>
  <g transform="matrix(.748 0 0 .727 -133.793 164.505)">
    <rect width="120.50041" height="118.57029" x="1043.4281" y="484.71078" fill="#4d4d4d" fill-rule="evenodd" transform="matrix(1 .03 -.023 1 0 0)" ry="59.285149" rx="60.250206"/>
    <g fill="#006680" fill-rule="evenodd" transform="translate(245 366.429)">
      <rect width="12.033633" height="23.541597" x="858.47028" y="-10.436289" rx="2.7361314e-13" ry="23.541597" transform="matrix(.989 .147 -.145 .989 0 0)"/>
      <rect width="12.020708" height="23.567995" x="853.4964" y="-225.17194" rx="2.7331926e-13" ry="23.567995" transform="matrix(.923 .384 -.393 .919 0 0)"/>
      <rect width="11.98385" height="23.642956" x="802.83228" y="-413.25116" rx="2.7248123e-13" ry="23.642956" transform="matrix(.815 .579 -.593 .805 0 0)"/>
      <rect width="11.917678" height="23.776373" x="680.06232" y="-622.01923" rx="2.7097663e-13" ry="23.776373" transform="matrix(.629 .778 -.791 .611 0 0)"/>
      <rect width="11.847615" height="23.916025" x="507.21524" y="-790.56366" rx="2.6938356e-13" ry="23.916025" transform="matrix(.395 .919 -.926 .377 0 0)"/>
      <rect width="11.79632" height="24.017233" x="315.95511" y="-902.23389" rx="2.6821725e-13" ry="24.017233" transform="matrix(.149 .989 -.991 .136 0 0)"/>
      <rect width="11.7756" height="24.057869" x="173.32797" y="-949.97284" rx="2.6774617e-13" ry="24.057869" transform="matrix(-.033 .999 -.999 -.039 0 0)"/>
      <rect width="11.772896" height="24.063164" x="8.3661547" y="944.66595" rx="2.6768466e-13" ry="24.063164" transform="matrix(.264 -.964 .965 .261 0 0)"/>
      <rect width="11.796882" height="24.016129" x="200.23744" y="916.71838" rx="2.6823002e-13" ry="24.016129" transform="matrix(.479 -.878 .884 .467 0 0)"/>
      <rect width="11.849109" height="23.913063" x="406.19516" y="831.84332" rx="2.6941754e-13" ry="23.913063" transform="matrix(.688 -.726 .74 .673 0 0)"/>
      <rect width="11.90403" height="23.803707" x="558.53595" y="722.31372" rx="2.706663e-13" ry="23.803707" transform="matrix(.827 -.562 .581 .814 0 0)"/>
      <rect width="11.968086" height="23.674877" x="707.93079" y="555.25299" rx="2.7212276e-13" ry="23.674877" transform="matrix(.942 -.337 .355 .935 0 0)"/>
      <rect width="12.018305" height="23.572899" x="819.97815" y="339.41614" rx="2.7326462e-13" ry="23.572899" transform="matrix(.998 -.068 .079 .997 0 0)"/>
    </g>
    <rect width="11.93904" height="23.575603" x="-1034.8843" y="576.32446" fill="gray" fill-rule="evenodd" transform="matrix(-.996 .088 .098 .995 0 0)" ry="23.575603" rx="2.7146232e-13"/>
    <g fill="gray" fill-rule="evenodd" transform="translate(245 366.429)">
      <rect width="11.901984" height="23.650431" x="-726.29242" y="383.853" rx="2.7061979e-13" ry="23.650431" transform="matrix(-.943 .332 .346 .938 0 0)"/>
      <rect width="11.860128" height="23.734388" x="-593.72705" y="533.66492" rx="2.696681e-13" ry="23.734388" transform="matrix(-.845 .535 .548 .836 0 0)"/>
      <rect width="11.810743" height="23.832687" x="-398.60233" y="673.31238" rx="2.6854522e-13" ry="23.832687" transform="matrix(-.666 .746 .755 .656 0 0)"/>
      <rect width="11.777289" height="23.898819" x="-180.79459" y="754.53448" rx="2.6778457e-13" ry="23.898819" transform="matrix(-.438 .899 .902 .431 0 0)"/>
      <rect width="11.768577" height="23.915979" x="32.900726" y="772.03241" rx="2.6758646e-13" ry="23.915979" transform="matrix(-.195 .981 .981 .196 0 0)"/>
      <rect width="11.776951" height="23.899487" x="188.03337" y="749.96002" rx="2.6777685e-13" ry="23.899487" transform="matrix(-.014 1 1 .021 0 0)"/>
      <rect width="11.803575" height="23.846889" x="-387.44843" y="-705.85748" rx="2.6838221e-13" ry="23.846889" transform="matrix(-.217 -.976 -.979 .205 0 0)"/>
      <rect width="11.842072" height="23.770424" x="-553.00183" y="-597.7168" rx="2.6925752e-13" ry="23.770424" transform="matrix(-.432 -.902 -.908 .418 0 0)"/>
      <rect width="11.890017" height="23.674496" x="-705.31" y="-436.38309" rx="2.7034765e-13" ry="23.674496" transform="matrix(-.646 -.763 -.773 .634 0 0)"/>
      <rect width="11.925406" height="23.603188" x="-801.13922" y="-276.1814" rx="2.7115235e-13" ry="23.603188" transform="matrix(-.793 -.61 -.619 .785 0 0)"/>
      <rect width="11.952531" height="23.548244" x="-866.565" y="-66.017151" rx="2.717691e-13" ry="23.548244" transform="matrix(-.92 -.393 -.398 .918 0 0)"/>
      <rect width="11.956167" height="23.540857" x="-870.3891" y="171.80246" rx="2.7185177e-13" ry="23.540857" transform="matrix(-.992 -.128 -.125 .992 0 0)"/>
    </g>
    <text x="1227.5316" y="510.23672" fill="#fff" stroke-width="1px" word-spacing="0px" font-weight="500" letter-spacing="0px" transform="matrix(.899 .027 -.026 1.112 0 0)" text-anchor="middle" color="#000" style="text-indent:0;text-align:center;line-height:125%;text-transform:none;block-progression:tb;-inkscape-font-specification:Roboto Medium" font-size="59.29882812px" overflow="visible" font-family="Roboto">
      <tspan x="1227.5316" y="510.23672">50%</tspan>
    </text>
  </g>
</svg>
