<svg xmlns="http://www.w3.org/2000/svg" width="1000" height="1000"><path d="M398.95 535.725h99.21l46.5 81.124H352.447l46.504-81.13" fill="#ccc" fill-rule="evenodd"/><path d="M214.778 265.206h467.554c13.156 0 23.92 10.368 23.92 23.036v245.014c0 12.67-10.764 23.038-23.92 23.038H214.778c-13.16 0-23.923-10.367-23.923-23.038V288.242c0-12.668 10.764-23.036 23.923-23.036" fill="#e6e6e6" fill-rule="evenodd"/><path d="M206.732 515.158h483.645V278.644H206.732v236.514z" fill="gray" fill-rule="evenodd"/><path d="M677.204 538.926c1.712 0 3.11-1.346 3.11-2.992 0-1.648-1.398-2.99-3.11-2.99-1.71 0-3.106 1.342-3.106 2.99 0 1.646 1.397 2.992 3.106 2.992" fill="#d35f5f" fill-rule="evenodd"/><path d="M665.074 538.926c1.714 0 3.108-1.346 3.108-2.992 0-1.648-1.394-2.99-3.108-2.99-1.71 0-3.106 1.342-3.106 2.99 0 1.646 1.397 2.992 3.106 2.992" fill="#08a" fill-rule="evenodd"/><path d="M652.946 538.926c1.71 0 3.108-1.346 3.108-2.992 0-1.648-1.397-2.99-3.108-2.99-1.71 0-3.106 1.342-3.106 2.99 0 1.646 1.395 2.992 3.106 2.992" fill="#7a7e7d" fill-rule="evenodd"/><g fill="#b3b3b3" fill-rule="evenodd"><path d="M332.43 612.207h233.63c2.865 0 5.21 6.212 5.21 13.803 0 7.593-2.345 13.804-5.21 13.804H332.43c-2.866 0-5.21-6.21-5.21-13.804 0-7.59 2.344-13.803 5.21-13.803"/><path d="M571.27 626.01c0 7.593-2.345 13.804-5.21 13.804H332.43c-2.867 0-5.21-6.21-5.21-13.804h244.05"/></g><path d="M222.556 282.863H675.28v59.535H222.557v-59.535z" fill="#08a"/><path d="M675.28 342.24H222.557v61.616H675.28V342.24z" fill="#87cdde"/><path d="M222.556 397.754H675.28v60.58H222.557v-60.58z" fill="#87cdde"/><path d="M675.28 453.13H222.557v56.08H675.28v-56.08z" fill="#87cdde"/><path d="M353.478 348.106H544.19v28.557H353.478v-28.557zm190.712 32.892H353.478v28.556H544.19v-28.556z" fill="#d35f8d"/><path d="M353.478 413.972H544.19v28.558H353.478v-28.558zm190.712 32.892H353.478v28.557H544.19v-28.55z" fill="#fea"/><path d="M544.124 413.826H353.412v28.557h190.712v-28.557zm-.054 32.894H353.356v28.556H544.07V446.72z" fill="#ffe49c"/><path d="M222.794 317.944h452.724V342.8H222.794v-24.856z" fill="#2c89a0"/><g transform="matrix(.84 0 0 .93 44.82 132.77)"><rect ry="9.963" rx="14.858" y="187.381" x="539.29" height="22.991" width="174.699" fill="#dbe3db" fill-rule="evenodd"/><rect ry="6.616" rx="14.17" y="191.37" x="543.22" height="15.268" width="166.615" fill="#53676c" fill-rule="evenodd"/><rect ry="7.123" rx="7.1" y="190.98" x="542.725" height="16.438" width="83.484" fill="#87decd" fill-rule="evenodd"/><text transform="scale(1.05 .95)" y="212.874" x="580.907" style="text-indent:0;text-align:center;line-height:125%;text-transform:none;block-progression:tb;-inkscape-font-specification:Sans Italic" font-size="4.873" font-style="italic" font-weight="bold" letter-spacing="0" word-spacing="0" text-anchor="middle" color="#000" overflow="visible" font-family="Roboto"><tspan style="text-align:center;line-height:125%;-inkscape-font-specification:Roboto Medium" y="212.874" x="580.907" font-size="9.747" font-style="normal" font-weight="500">50%</tspan></text></g><path d="M642.43 565c.264-.35-.43-.086.11-.29.067.15.09.288-.11.29m-.376.373c-.227-.09-.55.023-.573-.34.17.125.46.184.58.34" fill="#c8c7c5"/><path d="M783.213 709.766l-200.89.042-.916-249.523 200.89-.046.917 249.52" fill="#fff"/><path d="M783.404 709.155l-199.13.04-.917-249.157 199.13-.04.916 249.158m24.726-263.46c-.03-6.712-5.9-12.154-13.12-12.153l-223.46.046c-7.23 0-13.06 5.44-13.03 12.16l1.01 276.89c.025 6.71 5.9 12.15 13.12 12.15l223.455-.05c7.22 0 13.054-5.45 13.027-12.16l-1.017-276.89" fill="#53676c"/><path d="M782.774 709.172l-198.938-.02-.49-248.836 198.938.02.49 248.274" fill="#afe9dd" fill-rule="evenodd"/><path d="M780.684 473.038l-194.616.034-.316-10.973 194.617-.04.31 10.97" fill="#f03d5c"/><path d="M783.213 709.654l-.074-.118-.53-141.95.07-.028.52 142.076m-.848-229.877l-.06.045-.074-19.36-152.81.03-.093-.154 152.98-.032.07 19.517" fill="#46464e"/><path d="M684.72 728.495c-3.217.704-6.41-1.39-7.125-4.678-.716-3.288 1.315-6.523 4.533-7.225 3.218-.704 6.407 1.39 7.123 4.68.72 3.286-1.31 6.52-4.53 7.223" fill="#003380" fill-rule="evenodd"/><g transform="matrix(.75 0 0 .73 -133.83 164.55)"><rect transform="rotate(1.7) skewX(.4)" ry="59.285" rx="60.25" y="484.711" x="1043.428" height="118.57" width="120.5" fill="#4d4d4d" fill-rule="evenodd"/><g transform="translate(245 366.43)" fill="#006680" fill-rule="evenodd"><rect width="12.034" height="23.542" x="858.47" y="-10.436" rx="0" ry="23.542" transform="rotate(8.4) skewX(.1)"/><rect width="12.021" height="23.568" x="853.496" y="-225.172" rx="0" ry="23.568" transform="rotate(22.6) skewX(-.6)"/><rect width="11.984" height="23.643" x="802.832" y="-413.251" rx="0" ry="23.643" transform="rotate(35.4) skewX(-1)"/><rect width="11.918" height="23.776" x="680.062" y="-622.019" rx="0" ry="23.776" transform="rotate(51.1) skewX(-1.3)"/><rect width="11.848" height="23.916" x="507.215" y="-790.564" rx="0" ry="23.916" transform="rotate(66.7) skewX(-1.1)"/><rect width="11.796" height="24.017" x="315.955" y="-902.234" rx="0" ry="24.017" transform="rotate(81.4) skewX(-.7)"/><rect width="11.776" height="24.058" x="173.328" y="-949.973" rx="0" ry="24.058" transform="rotate(91.9) skewX(-.3)"/><rect width="11.773" height="24.063" x="8.366" y="944.666" rx="0" ry="24.063" transform="rotate(-74.7) skewX(.2)"/><rect width="11.797" height="24.016" x="200.237" y="916.718" rx="0" ry="24.016" transform="rotate(-61.4) skewX(.8)"/><rect width="11.849" height="23.913" x="406.195" y="831.843" rx="0" ry="23.913" transform="rotate(-46.6) skewX(1.2)"/><rect width="11.904" height="23.804" x="558.536" y="722.314" rx="0" ry="23.804" transform="rotate(-34.2) skewX(1.3)"/><rect width="11.968" height="23.675" x="707.931" y="555.253" rx="0" ry="23.675" transform="rotate(-19.7) skewX(1.1)"/><rect width="12.018" height="23.573" x="819.978" y="339.416" rx="0" ry="23.573" transform="rotate(-3.9) skewX(.6)"/></g><rect transform="matrix(-1 .1 .1 1 0 0)" ry="23.576" rx="0" y="576.324" x="-1034.884" height="23.576" width="11.939" fill="gray" fill-rule="evenodd"/><g transform="translate(245 366.4)" fill="gray" fill-rule="evenodd"><rect width="11.902" height="23.65" x="-726.292" y="383.853" rx="0" ry="23.65" transform="matrix(-.9 .3 .3 .9 0 0)"/><rect width="11.86" height="23.734" x="-593.727" y="533.665" rx="0" ry="23.734" transform="matrix(-.8 .5 .6 .8 0 0)"/><rect width="11.811" height="23.833" x="-398.602" y="673.312" rx="0" ry="23.833" transform="matrix(-.7 .8 .8 .7 0 0)"/><rect width="11.777" height="23.899" x="-180.795" y="754.534" rx="0" ry="23.899" transform="rotate(114)"/><rect width="11.769" height="23.916" x="32.901" y="772.032" rx="0" ry="23.916" transform="matrix(-.2 1 1 .2 0 0)"/><rect width="11.777" height="23.899" x="188.033" y="749.96" rx="0" ry="23.899" transform="matrix(0 1 1 0 0 0)"/><rect width="11.804" height="23.847" x="-387.448" y="-705.857" rx="0" ry="23.847" transform="matrix(-.2 -1 -1 .2 0 0)"/><rect width="11.842" height="23.77" x="-553.002" y="-597.717" rx="0" ry="23.77" transform="rotate(-114)"/><rect width="11.89" height="23.674" x="-705.31" y="-436.383" rx="0" ry="23.674" transform="matrix(-.7 -.8 -.8 .6 0 0)"/><rect width="11.925" height="23.603" x="-801.139" y="-276.181" rx="0" ry="23.603" transform="rotate(-143.1)"/><rect width="11.953" height="23.548" x="-866.565" y="-66.017" rx="0" ry="23.548" transform="rotate(-156.5)"/><rect width="11.956" height="23.541" x="-870.389" y="171.802" rx="0" ry="23.541" transform="matrix(-1 -.1 -.1 1 0 0)"/></g><text transform="scale(.9 1.1)" y="510.237" x="1227.532" style="text-indent:0;text-align:center;line-height:125%;text-transform:none;block-progression:tb;-inkscape-font-specification:Roboto Medium" font-size="59.299" font-weight="500" letter-spacing="0" word-spacing="0" text-anchor="middle" color="#000" fill="#fff" overflow="visible" font-family="Roboto"><tspan y="510.237" x="1227.532">50%</tspan></text></g></svg>