<svg xmlns="http://www.w3.org/2000/svg" width="1000" height="1000"><path d="M-599.61 199.535l-.11-.16.118-.067c-.005.077 0 .15-.003.228" fill="#4d4d55"/><path d="M748.31 625.646l-200.306-.328 1.134-271.89 200.306.33-1.134 271.888" fill="#f9f9f9"/><path d="M572.103 435.692l162.032.398-.01-.923-162.034-.398.02.92m-.142 15.45l162.03.4-.01-.928-162.03-.4.013.923m-.266 15.696l162.03.4-.01-.924-162.033-.4.013.925m.09 15.525l162.03.4-.014-.925-162.033-.397.012.924m.097 15.58l162.03.4-.012-.925-162.03-.398.01.92m-.146 15.623l162.03.4-.01-.924-162.033-.4.01.923m-.145 15.796l162.03.4-.01-.926-162.03-.4.01.925m-.023 15.654l162.03.397-.01-.923-162.033-.4.012.925" fill="#131112"/><path d="M567.594 484.428c-1.026-.433-1.687-1.407-1.68-2.482.01-1.46 1.252-2.622 2.767-2.59.37.01.72.08 1.05.223 1.03.43 1.69 1.4 1.68 2.48 0 .71-.29 1.36-.82 1.85-.52.49-1.21.75-1.94.732-.36-.008-.714-.085-1.046-.223" fill="#a88c74"/><path d="M569.81 479.19c-.385-.163-.794-.25-1.217-.257-1.755-.037-3.194 1.31-3.207 3.002-.007 1.246.757 2.374 1.95 2.876.382.17.793.25 1.214.26.85.02 1.652-.28 2.258-.85.607-.56.943-1.33.95-2.15.008-1.24-.757-2.37-1.948-2.88zm-.34.772c.834.352 1.42 1.16 1.413 2.087-.01 1.23-1.05 2.2-2.326 2.17-.313-.01-.612-.075-.882-.19-.835-.352-1.42-1.16-1.413-2.087.01-1.23 1.05-2.206 2.327-2.18.31.01.61.074.88.188" fill="#efe2a8"/><path d="M567.36 500.244c-1.027-.432-1.687-1.406-1.68-2.48.01-1.46 1.252-2.623 2.766-2.59.364.01.717.08 1.05.22 1.027.434 1.687 1.408 1.678 2.484-.004.708-.295 1.366-.818 1.855-.523.488-1.214.75-1.95.734-.36-.008-.714-.084-1.046-.223m.19 15.188c-1.028-.433-1.688-1.407-1.682-2.48.01-1.46 1.253-2.623 2.767-2.592.365.01.717.08 1.05.223 1.027.433 1.688 1.406 1.68 2.482-.005.708-.296 1.366-.82 1.855-.522.49-1.213.75-1.948.734-.362-.01-.715-.084-1.047-.222m-.32 16.096c-1.027-.433-1.687-1.406-1.68-2.48.01-1.46 1.252-2.623 2.766-2.59.364.01.716.08 1.048.22 1.03.434 1.69 1.408 1.68 2.484-.004.708-.296 1.366-.818 1.855-.52.49-1.214.75-1.95.734-.36 0-.714-.08-1.047-.22m-.24 15.54c-1.028-.43-1.688-1.403-1.68-2.48.01-1.46 1.25-2.62 2.765-2.59.364.01.716.08 1.05.22 1.027.437 1.687 1.41 1.68 2.486-.004.708-.295 1.366-.818 1.856-.52.49-1.214.75-1.95.734-.363-.01-.714-.086-1.047-.225" fill="#a88c74"/><path d="M569.744 494.937c-.384-.163-.793-.25-1.216-.257-1.755-.037-3.195 1.31-3.208 3-.007 1.248.757 2.376 1.95 2.878.382.163.792.25 1.214.26.85.017 1.653-.286 2.26-.853.605-.567.94-1.33.947-2.15.01-1.246-.75-2.376-1.94-2.878zm-.34.772c.835.35 1.42 1.16 1.413 2.08-.01 1.23-1.05 2.202-2.326 2.18-.31-.01-.61-.078-.88-.19-.83-.35-1.42-1.16-1.41-2.09.01-1.23 1.05-2.205 2.33-2.178.31.007.61.072.88.185m.107 14.63c-.382-.164-.79-.25-1.213-.258-1.756-.038-3.195 1.31-3.21 3-.006 1.247.758 2.375 1.95 2.877.38.165.79.25 1.215.26.85.02 1.652-.284 2.257-.85.608-.57.944-1.33.95-2.15.01-1.248-.756-2.378-1.947-2.88zm-.337.77c.833.353 1.42 1.16 1.412 2.088-.01 1.23-1.05 2.203-2.327 2.18-.316-.01-.614-.077-.883-.19-.84-.35-1.42-1.16-1.417-2.09.01-1.23 1.05-2.203 2.327-2.176.314.01.61.07.883.183m.274 15.045c-.387-.16-.796-.248-1.218-.256-1.753-.038-3.192 1.31-3.205 3-.007 1.247.757 2.375 1.95 2.877.382.163.793.25 1.214.26.85.02 1.65-.286 2.258-.85.604-.57.94-1.335.95-2.15.007-1.25-.758-2.38-1.95-2.88zm-.34.773c.832.35 1.42 1.16 1.41 2.087-.01 1.23-1.05 2.204-2.328 2.177-.314-.01-.612-.073-.882-.188-.83-.35-1.414-1.16-1.41-2.088.01-1.23 1.05-2.204 2.328-2.177.31.01.61.074.88.187m.273 14.836c-.39-.158-.79-.25-1.21-.257-1.757-.038-3.197 1.31-3.207 3-.01 1.248.76 2.376 1.95 2.878.39.16.796.25 1.217.26.85.016 1.65-.287 2.26-.854.6-.57.94-1.33.945-2.15.01-1.247-.753-2.377-1.945-2.88zm-.34.772c.84.35 1.42 1.16 1.417 2.086-.01 1.23-1.05 2.205-2.327 2.178-.314-.01-.61-.073-.88-.187-.837-.352-1.42-1.16-1.415-2.087.01-1.23 1.053-2.205 2.33-2.178.313.01.607.07.88.185" fill="#efe2a8"/><path d="M567.66 468.75c-1.027-.432-1.688-1.406-1.68-2.48.01-1.46 1.252-2.622 2.765-2.59.365.01.717.08 1.05.22 1.027.434 1.687 1.408 1.678 2.484-.004.708-.295 1.366-.817 1.855-.523.48-1.215.75-1.95.73-.36-.01-.715-.09-1.047-.23" fill="#a88c74"/><path d="M569.634 463.764c-.383-.163-.795-.25-1.216-.258-1.756-.037-3.195 1.31-3.208 3.002-.007 1.247.757 2.376 1.948 2.878.384.163.794.25 1.216.258.85.018 1.653-.285 2.258-.852.607-.567.942-1.33.95-2.15.008-1.247-.756-2.376-1.948-2.878zm-.34.772c.836.352 1.42 1.16 1.413 2.087-.01 1.23-1.05 2.205-2.326 2.178-.31 0-.61-.07-.88-.18-.83-.35-1.42-1.16-1.41-2.09.01-1.23 1.05-2.2 2.33-2.18.314.01.61.08.884.19" fill="#efe2a8"/><path d="M567.558 452.864c-1.027-.433-1.688-1.407-1.68-2.482.01-1.46 1.252-2.622 2.766-2.59.364.008.717.08 1.05.223 1.027.433 1.687 1.406 1.678 2.482-.004.708-.295 1.366-.817 1.855-.523.49-1.215.75-1.95.734-.36-.008-.714-.084-1.047-.222" fill="#a88c74"/><path d="M569.856 447.896c-.383-.163-.795-.25-1.217-.257-.85-.02-1.66.28-2.26.84-.61.566-.95 1.33-.95 2.15-.01 1.246.75 2.374 1.95 2.876.38.164.79.25 1.21.26.85.02 1.65-.285 2.255-.85.606-.568.942-1.33.95-2.15.01-1.247-.755-2.376-1.947-2.878zm-.34.77c.836.353 1.42 1.16 1.41 2.09-.008 1.23-1.048 2.203-2.324 2.176-.312-.01-.61-.073-.883-.187-.84-.352-1.42-1.16-1.42-2.087.01-1.23 1.05-2.205 2.326-2.178.31.01.61.073.88.187" fill="#efe2a8"/><path d="M567.535 438.096c-1.027-.433-1.687-1.406-1.68-2.48.01-1.46 1.252-2.623 2.767-2.59.364.01.716.08 1.048.22 1.03.434 1.69 1.408 1.68 2.484-.004.708-.295 1.366-.818 1.855-.523.488-1.215.75-1.95.734-.36-.01-.714-.09-1.046-.23" fill="#a88c74"/><path d="M569.697 432.593c-.384-.163-.795-.25-1.215-.26-1.756-.03-3.196 1.313-3.208 3.004-.007 1.246.756 2.375 1.948 2.877.384.163.794.25 1.216.258.85.018 1.652-.286 2.258-.852.606-.567.942-1.33.948-2.15.01-1.246-.755-2.375-1.946-2.877zm-.34.772c.836.352 1.42 1.16 1.413 2.087-.007 1.23-1.05 2.205-2.327 2.177-.31-.01-.61-.08-.88-.19-.837-.35-1.42-1.16-1.414-2.09.01-1.23 1.05-2.208 2.32-2.18.31.01.61.07.88.19" fill="#efe2a8"/><text transform="matrix(.9 0 0 1.1 87.1 -8.8)" y="558.536" x="544.916" style="text-indent:0;text-align:center;line-height:125%;text-transform:none;block-progression:tb;-inkscape-font-specification:Roboto Light" font-size="10.527" font-weight="300" letter-spacing="0" word-spacing="0" text-anchor="middle" color="#000" overflow="visible" font-family="Roboto"><tspan y="558.536" x="544.916">15.03.2015</tspan></text><path d="M674.082 587.927c-.092-1.262.006-2.51.21-3.747.164-.992.48-1.93.876-2.83.33-.73.76-1.376 1.362-1.837.518-.342 1.015-.252 1.53.027.62.407 1.07 1.047 1.503 1.676.5.78.965 1.583 1.506 2.327.5.684 1.14 1.112 1.89 1.334.82.18 1.61-.066 2.38-.408.93-.46 1.72-1.19 2.46-1.97.852-.91 1.562-1.97 2.22-3.07.66-1.124 1.193-2.33 1.66-3.573.37-1.003.614-2.05.73-3.13.01-.138.02-.553.022-.415.06 2.08.04.51-.243.073-.367-.285-.763.213-1.018.476-.69.79-1.254 1.71-1.807 2.624-.78 1.31-1.477 2.68-2.154 4.06-.724 1.503-1.372 3.053-2.006 4.61-.57 1.426-1.146 2.847-1.72 4.27-.303.8-.675 1.576-.91 2.41-.008.05-.028.2-.025.15.026-.525 0-1.057.097-1.568.016-.08.99-.93 1.106-1.035.61-.567 1.294-.98 2.048-1.23.75-.213 1.5-.1 2.247.06.77.21 1.547.336 2.34.31 1.088-.072 2.085-.56 3.056-1.08 1.35-.772 2.623-1.71 3.918-2.593 1.106-.77 2.265-1.42 3.504-1.852.81-.26 1.65-.232 2.483-.2.59.05 1.172.004 1.75-.147.48-.16.936-.406 1.432-.514.486-.07.753.235.944.703.22.782.227 1.617.265 2.432.05.78.05 1.584.294 2.326.25.544.618.174.914-.118.61-.702 1.095-1.528 1.6-2.33.41-.643.785-1.315 1.26-1.9.823-.53.385 1.42.263 2.08-.14.705-.32 1.397-.47 2.097-.035-.25-.036.44-.036.33.005-2.206-.045-1.484.566-3.11.443-1.185.786-2.41 1.064-3.66.11-.534.207-1.077.246-1.626.01-.15.014-.598.015-.45.014 1.31.02 1.234-.05.657-.12-.64-.485-.69-.974-.518-.94.487-1.7 1.31-2.465 2.082-1.37 1.433-2.7 2.916-4.03 4.395-1.604 1.805-3.228 3.584-4.89 5.32-1.646 1.73-3.41 3.295-5.243 4.76-1.738 1.4-3.645 2.464-5.62 3.353-1.88.824-3.853 1.25-5.854 1.434-1.89.126-3.77-.186-5.613-.626-.835-.206-1.644-.505-2.45-.81l.037-1.374c.803.307 1.608.607 2.437.81 1.84.44 3.7.754 5.58.627 1.99-.183 3.955-.61 5.82-1.43 1.97-.89 3.865-1.956 5.59-3.352 1.83-1.464 3.59-3.03 5.23-4.758 1.66-1.736 3.285-3.516 4.887-5.32 1.33-1.484 2.662-2.97 4.035-4.405.777-.782 1.556-1.62 2.52-2.094.526-.17 1.005-.155 1.184.53.22 1.378.05 2.81-.227 4.158-.29 1.248-.637 2.477-1.085 3.663-.165.434-.214.576-.39.99-.06.138-.09.52-.18.41-.41-.518-.362-.876-.264-1.368.16-.696.336-1.39.47-2.092.187-1.095.315.85.003.677-.46.59-.84 1.254-1.25 1.89-.503.81-.995 1.646-1.626 2.34-.36.33-.81.67-1.144.11-.29-.73-.28-1.55-.335-2.336-.04-.81-.045-1.632-.226-2.42-.14-.433-.324-.76-.776-.693-.495.112-.947.362-1.43.512-.59.15-1.18.196-1.78.146-.82-.033-1.648-.064-2.445.196-1.226.432-2.375 1.082-3.47 1.846-1.3.886-2.575 1.824-3.93 2.6-.99.523-2.002 1.01-3.106 1.086-.803.02-1.59-.097-2.37-.313-.725-.155-1.46-.273-2.187-.06-.74.254-1.403.67-2 1.226-.454.416-1.965 2.296-1.414-.31.26-.822.614-1.6.924-2.4.577-1.42 1.15-2.842 1.72-4.265.638-1.555 1.29-3.106 2.02-4.61.68-1.38 1.38-2.752 2.164-4.063.56-.92 1.13-1.844 1.833-2.63.334-.33.752-.766 1.212-.48.66.77.266 2.17.29 3.098-.134 1.08-.39 2.13-.767 3.13-.47 1.244-1.012 2.45-1.68 3.576-.664 1.1-1.383 2.16-2.245 3.07-.757.78-1.56 1.514-2.512 1.97-.79.344-1.602.59-2.454.41-.775-.22-1.442-.646-1.97-1.34-.547-.74-1.016-1.543-1.51-2.33-.42-.62-.853-1.25-1.446-1.67-.473-.272-.922-.363-1.4-.026-.575.466-.985 1.11-1.3 1.826-.382.9-.69 1.84-.842 2.827-.07.45-.13.893-.166 1.346-.01.135-.016.538-.025.404-.017-.25-.023-1.534-.008-.747l-.18 1.375z" opacity=".412" color="#000" fill="#003380" fill-rule="evenodd" overflow="visible"/><path d="M592.107 407.518h1.85v-28.352h-1.85v28.352zm-1.047-4.438c-1.943-.652-3.277-2.15-4.002-4.534l-2.46.617c1.174 3.664 3.327 5.856 6.462 6.585v-2.668zm-5.288-14.702c.464 2.47 2.517 4.513 5.288 5.39v-2.822c-1.856-.58-3.178-2.01-3.178-3.7 0-1.647 1.27-3.065 3.064-3.664.036-.014.078-.038.114-.058v-2.59c-.254.05-.514.123-.76.206-2.306.95-4 2.74-4.5 4.888-.062.417-.104.84-.104 1.295 0 .36.028.71.076 1.055m10.568-4.053c1.07.723 1.75 1.798 2.032 3.196l2.474-.81c-1.047-3.34-3.08-5.25-6.067-5.77v2.61c.52.19 1.05.44 1.56.78m2.82 14.59c0 1.28-.726 2.43-1.858 3.23-.52.43-1.168.73-1.96.9-.17.05-.345.1-.53.136v2.57l.304-.052c3.747-1.26 6.334-3.892 6.334-6.954 0-3.16-2.73-5.62-6.646-6.836l.006 2.733c2.496.48 4.345 2.203 4.345 4.275" fill="gray" fill-rule="evenodd"/><path d="M593.027 425.177c-17.2 0-31.2-14.09-31.2-31.4 0-15.876 11.59-29.095 27.105-31.118v-6.07l1.536.89 16.1 9.34 1.528.883-1.523.894-16.105 9.367-1.536.887v-5.377c-9.485 1.924-16.5 10.437-16.5 20.292 0 11.43 9.242 20.73 20.595 20.73 11.366 0 20.603-9.3 20.603-20.73 0-3.398-.84-6.78-2.456-9.778l-.475-.886.86-.493 7.44-4.28.906-.524.506.915c2.5 4.6 3.81 9.81 3.81 15.057 0 17.31-13.99 31.4-31.2 31.4" fill="#006680"/><g transform="matrix(1.1 0 0 1.1 -76.4 -352.1)"><path d="M486.8 834.953l-186.588-.527.213-251.145 186.588.53-.212 251.15" fill="#f2f2f2"/><path d="M364.03 648.508c-.604.5-1.348.744-2.087.744-.893 0-1.78-.354-2.408-1.047l-12.248-13.463c-1.154-1.268-1.012-3.19.316-4.29 1.332-1.104 3.343-.965 4.496.302l12.24 13.463c1.15 1.27 1.01 3.19-.32 4.29zm-32.794 17.91c0 .718-.61 1.303-1.365 1.303-.75 0-1.36-.58-1.36-1.3v-36.93c0-.72.616-1.3 1.37-1.3.755 0 1.366.586 1.366 1.306v36.93zm21.848-44.318h-24.57c-2.77 0-5.016 1.944-5.016 4.344v42.146c0 2.4 2.246 4.345 5.015 4.345h39.13c2.77 0 5.017-1.946 5.017-4.345v-27.373L353.084 622.1m-16.84-2.027c0 .398-.343.724-.758.724h-5.768c-.418 0-.758-.326-.758-.724v-1.81c0-.4.34-.725.758-.725h5.768c.415 0 .758.326.758.724v1.81" fill="#373748"/><g fill="#373748"><path d="M412.404 650.232h-55.992c-1.115 0-2.022-.945-2.022-2.103v-26.84h60.036v26.83c0 1.156-.908 2.1-2.022 2.1m-55.992-41.872h55.992c1.114 0 2.022.945 2.022 2.106v1.814H354.39v-1.812c0-1.16.907-2.106 2.022-2.106m55.992-2.003h-55.992c-2.178 0-3.95 1.842-3.95 4.11v37.66c0 2.265 1.772 4.108 3.95 4.108h55.992c2.18 0 3.95-1.845 3.95-4.11v-37.66c0-2.265-1.77-4.11-3.95-4.11"/><path d="M393.053 644.35c0-1.91 3.973-5.666 3.973-5.666s4.15 3.757 4.15 5.667c0 1.91-1.858 3.46-4.15 3.46-2.292 0-3.973-1.55-3.973-3.46m2.03-8.85c0-.95 1.988-2.83 1.988-2.83s2.08 1.88 2.08 2.837c0 .954-.93 1.728-2.07 1.728s-1.986-.773-1.986-1.73m1.478-4.442l-7.052-6.842-.054.05v-.046h-21.59v2.323h20.488l7.685 4.956.53-.436z"/></g><rect width="142.207" height="132.611" x="324.06" y="688.476" rx="0" ry="0" fill="#f2f2f2" fill-rule="evenodd" stroke="#302424" stroke-width="1.7"/><rect width="142.141" height="19.216" x="324.044" y="707.268" rx="0" ry="0" fill="#f2f2f2" fill-rule="evenodd" stroke="#302424" stroke-width="1.694"/><rect width="142.319" height="19.215" x="323.943" y="742.923" rx="0" ry="0" fill="#f2f2f2" fill-rule="evenodd" stroke="#302424" stroke-width="1.695"/><rect width="142.319" height="19.215" x="323.971" y="782.597" rx="0" ry="0" fill="#f2f2f2" fill-rule="evenodd" stroke="#302424" stroke-width="1.695"/><rect width=".159" height="113.694" x="353.563" y="707.047" rx="0" ry="0" fill="#f2f2f2" fill-rule="evenodd" stroke="#302424" stroke-width="1.681"/><rect width=".159" height="113.694" x="383.615" y="707.099" rx="0" ry="0" fill="#f2f2f2" fill-rule="evenodd" stroke="#302424" stroke-width="1.681"/><rect width=".159" height="113.694" x="412.805" y="707.099" rx="0" ry="0" fill="#f2f2f2" fill-rule="evenodd" stroke="#302424" stroke-width="1.681"/><rect width=".159" height="113.694" x="439.776" y="707.25" rx="0" ry="0" fill="#f2f2f2" fill-rule="evenodd" stroke="#302424" stroke-width="1.681"/></g><path d="M454.236 557.245L324.062 557l.15-116.713 130.173.245-.15 116.713" fill="#999"/><g transform="matrix(1.1 0 0 1.1 74 200)"><path d="M419.66 475.358l-186.59-.528.213-251.144 186.588.527-.21 251.145" fill="#f4f8b7"/><path d="M250.382 332.04l150.933.04-.013-.742-150.933-.04.01.742m-.11 12.44l150.93.044-.01-.745-150.93-.05.01.742m-.227 12.637l150.932.042-.013-.745-150.93-.04.013.742m.11 12.496l150.93.042-.01-.746-150.93-.045.01.745m.113 12.542l150.932.04-.012-.744-150.93-.04.017.743m-.114 12.578l150.934.04-.012-.74-150.93-.04.01.743m-.11 12.717l150.93.04-.01-.745-150.934-.044.01.745m0 12.6l150.93.043-.01-.743-150.93-.04.012.743" fill="#131112"/><rect width="84.749" height="83.322" x="242.648" y="234.094" rx="42.374" ry="41.661" fill="#7c6f91" fill-rule="evenodd"/><path d="M314.685 269.316c4.704 2.162 5.796 6.75 4.894 13.18-.47 6.636-10.6 11.42-16.96 8.85-18.35 0-35.35-.008-53.7-.008 0-7.625.16-19.33 8.39-20.038 23.29.087 34.074-2.088 57.365-1.984z" fill="#f9f9f9"/><path d="M314.69 253.75c7.56-.03 4.89 11.616 4.89 17.326 0 17.13-13.652 1.127-18.67 2.808h-24.84c0-7.126-9.477-14.228 1.12-19.938 13.202.04 24.297-.253 37.5-.196z" fill="#f9f9f9"/><path d="M278.582 257.328s-14.767-4.543-20.653 14.283h20.31l.34-14.28z" fill="#f9f9f9"/><path d="M294.315 289.807c0 4.328 2.94 7.835 6.56 7.835 3.624 0 6.563-3.507 6.563-7.835 0-4.325-2.94-7.83-6.562-7.83-3.622 0-6.56 3.505-6.56 7.83" fill="#564d40"/><path d="M296.443 289.807c0 2.923 1.984 5.293 4.433 5.293 2.45 0 4.433-2.37 4.433-5.293 0-2.92-1.99-5.288-4.44-5.288s-4.436 2.36-4.436 5.28" fill="#707571"/><path d="M299.028 289.807c0 1.216.828 2.202 1.848 2.202 1.022 0 1.848-.99 1.848-2.21s-.827-2.205-1.848-2.205c-1.02 0-1.848.99-1.848 2.203" fill="#d3ceba"/><path d="M255.13 289.807c0 4.328 2.94 7.835 6.565 7.835 3.623 0 6.562-3.507 6.562-7.835 0-4.325-2.94-7.83-6.562-7.83-3.626 0-6.564 3.505-6.564 7.83" fill="#564d40"/><path d="M257.26 289.807c0 2.923 1.986 5.293 4.435 5.293 2.447 0 4.435-2.37 4.435-5.293 0-2.92-1.988-5.288-4.435-5.288-2.45 0-4.435 2.36-4.435 5.28" fill="#707571"/><path d="M259.844 289.807c0 1.216.827 2.202 1.85 2.202 1.02 0 1.848-.99 1.848-2.21s-.828-2.205-1.848-2.205c-1.023 0-1.85.99-1.85 2.203" fill="#d3ceba"/><path d="M277.28 259.696v10.884h-16.07s4.2-13.476 16.07-10.884" fill="#ccc"/><path d="M249.71 280.19l69.176-.296v-2.073h-68.592zm44.91-12.224c0 4.204-3.227 7.612-7.207 7.612s-7.208-3.408-7.208-7.612c0-4.205 3.227-7.613 7.208-7.613 3.98 0 7.207 3.408 7.207 7.613" fill="#e9afaf"/><path d="M286.544 272.094h1.792v-8.257h-1.792v8.257z" fill="#fff"/><path d="M283.504 268.912h7.817v-1.893h-7.81v1.89z" fill="#fff"/></g></svg>