<?xml version="1.0" encoding="UTF-8" standalone="no"?>
<!-- Created with Inkscape (http://www.inkscape.org/) -->

<svg
   xmlns:dc="http://purl.org/dc/elements/1.1/"
   xmlns:cc="http://creativecommons.org/ns#"
   xmlns:rdf="http://www.w3.org/1999/02/22-rdf-syntax-ns#"
   xmlns:svg="http://www.w3.org/2000/svg"
   xmlns="http://www.w3.org/2000/svg"
   xmlns:xlink="http://www.w3.org/1999/xlink"
   xmlns:sodipodi="http://sodipodi.sourceforge.net/DTD/sodipodi-0.dtd"
   xmlns:inkscape="http://www.inkscape.org/namespaces/inkscape"
   width="1000"
   height="1000"
   id="svg2"
   version="1.1"
   inkscape:version="0.48.4 r9939"
   sodipodi:docname="onlineReports(Det).svg">
  <defs
     id="defs4">
    <clipPath
       clipPathUnits="userSpaceOnUse"
       id="clipPath456">
      <path
         inkscape:connector-curvature="0"
         d="m 514.838,559.589 -1.195,0 -23.882,0 -1.043,-15.079 c 0,0 0.544,-2.781 -3.337,-6.562 l 0,0 c -3.882,-3.781 -6.964,-7.269 -6.964,-7.269 l 0,0 c 0,0 -0.446,-0.842 -0.446,-2.034 l 0,0 c 0,-1.195 0.643,-1.249 3.33,-1.249 l 0,0 32.342,0 1.195,0 32.336,0 c 2.689,0 3.334,0.054 3.334,1.249 l 0,0 c 0,1.192 -0.443,2.034 -0.443,2.034 l 0,0 c 0,0 -3.086,3.488 -6.969,7.269 l 0,0 c -3.878,3.781 -3.333,6.562 -3.333,6.562 l 0,0 -1.046,15.079 -23.879,0 z"
         id="path458" />
    </clipPath>
    <mask
       maskUnits="userSpaceOnUse"
       x="0"
       y="0"
       width="1"
       height="1"
       id="mask474">
      <g
         id="g476">
        <g
           clip-path="url(#clipPath464)"
           id="g478">
          <g
             id="g480">
            <g
               id="g482">
              <path
                 inkscape:connector-curvature="0"
                 d="m -32768,32767 65535,0 0,-65535 -65535,0 0,65535 z"
                 style="fill:url(#linearGradient468);stroke:none"
                 id="path484" />
            </g>
          </g>
        </g>
      </g>
    </mask>
    <clipPath
       clipPathUnits="userSpaceOnUse"
       id="clipPath464">
      <path
         inkscape:connector-curvature="0"
         d="m -32768,32767 65535,0 0,-65535 -65535,0 0,65535 z"
         id="path466" />
    </clipPath>
    <linearGradient
       x1="0"
       y1="0"
       x2="1"
       y2="0"
       gradientUnits="userSpaceOnUse"
       gradientTransform="matrix(0,-35.436775,-35.436775,0,514.23975,576.85583)"
       spreadMethod="pad"
       id="linearGradient468">
      <stop
         style="stop-opacity:1;stop-color:#ffffff"
         offset="0"
         id="stop470" />
      <stop
         style="stop-opacity:0;stop-color:#ffffff"
         offset="1"
         id="stop472" />
    </linearGradient>
    <linearGradient
       x1="0"
       y1="0"
       x2="1"
       y2="0"
       gradientUnits="userSpaceOnUse"
       gradientTransform="matrix(0,-35.436775,-35.436775,0,514.23975,576.85583)"
       spreadMethod="pad"
       id="linearGradient490">
      <stop
         style="stop-opacity:1;stop-color:#58595b"
         offset="0"
         id="stop492" />
      <stop
         style="stop-opacity:1;stop-color:#f0f0f1"
         offset="1"
         id="stop494" />
    </linearGradient>
    <clipPath
       clipPathUnits="userSpaceOnUse"
       id="clipPath444">
      <path
         inkscape:connector-curvature="0"
         d="M 0,800 800,800 800,0 0,0 0,800 z"
         id="path446" />
    </clipPath>
    <linearGradient
       inkscape:collect="always"
       xlink:href="#linearGradient490"
       id="linearGradient4210"
       gradientUnits="userSpaceOnUse"
       gradientTransform="matrix(0,-35.436775,-35.436775,0,514.23975,576.85583)"
       spreadMethod="pad"
       x1="0"
       y1="0"
       x2="1"
       y2="0" />
    <clipPath
       clipPathUnits="userSpaceOnUse"
       id="clipPath184">
      <path
         inkscape:connector-curvature="0"
         d="m 413.986,150.918 c 0,-38.107 30.89,-69 68.997,-69 l 0,0 c 38.108,0 69,30.893 69,69 l 0,0 c 0,38.107 -30.892,69 -69,69 l 0,0 c -38.107,0 -68.997,-30.893 -68.997,-69"
         id="path186" />
    </clipPath>
    <clipPath
       clipPathUnits="userSpaceOnUse"
       id="clipPath196">
      <path
         inkscape:connector-curvature="0"
         d="m 427.833,201.386 123.104,0 0,-126.011 -123.104,0 0,126.011 z"
         id="path198" />
    </clipPath>
    <linearGradient
       inkscape:collect="always"
       xlink:href="#linearGradient490"
       id="linearGradient4608"
       gradientUnits="userSpaceOnUse"
       gradientTransform="matrix(0,-35.436775,-35.436775,0,514.23975,576.85583)"
       spreadMethod="pad"
       x1="0"
       y1="0"
       x2="1"
       y2="0" />
    <linearGradient
       inkscape:collect="always"
       xlink:href="#linearGradient490"
       id="linearGradient4716"
       gradientUnits="userSpaceOnUse"
       gradientTransform="matrix(0,-35.436775,-35.436775,0,514.23975,576.85583)"
       spreadMethod="pad"
       x1="0"
       y1="0"
       x2="1"
       y2="0" />
    <linearGradient
       inkscape:collect="always"
       xlink:href="#linearGradient490"
       id="linearGradient4822"
       gradientUnits="userSpaceOnUse"
       gradientTransform="matrix(0,-35.436775,-35.436775,0,514.23975,576.85583)"
       spreadMethod="pad"
       x1="0"
       y1="0"
       x2="1"
       y2="0" />
  </defs>
  <sodipodi:namedview
     id="base"
     pagecolor="#ffffff"
     bordercolor="#666666"
     borderopacity="1.0"
     inkscape:pageopacity="0.0"
     inkscape:pageshadow="2"
     inkscape:zoom="0.49497475"
     inkscape:cx="318.81824"
     inkscape:cy="433.86518"
     inkscape:document-units="px"
     inkscape:current-layer="layer1"
     showgrid="false"
     inkscape:window-width="1615"
     inkscape:window-height="1026"
     inkscape:window-x="65"
     inkscape:window-y="24"
     inkscape:window-maximized="1">
    <inkscape:grid
       type="xygrid"
       id="grid3409" />
  </sodipodi:namedview>
  <metadata
     id="metadata7">
    <rdf:RDF>
      <cc:Work
         rdf:about="">
        <dc:format>image/svg+xml</dc:format>
        <dc:type
           rdf:resource="http://purl.org/dc/dcmitype/StillImage" />
        <dc:title></dc:title>
      </cc:Work>
    </rdf:RDF>
  </metadata>
  <g
     inkscape:label="Layer 1"
     inkscape:groupmode="layer"
     id="layer1"
     transform="translate(0,-52.362183)">
    <g
       id="g594"
       transform="matrix(2.02145,0,0,-2.3663046,931.68558,486.78376)" />
    <path
       inkscape:connector-curvature="0"
       d="m -599.60939,251.89768 -0.10913,-0.15942 0.11671,-0.0685 c -0.005,0.0779 2.2e-4,0.15053 -0.003,0.22831"
       style="fill:#4d4d55;fill-opacity:1;fill-rule:nonzero;stroke:none"
       id="path8932" />
    <g
       id="g4836"
       transform="translate(26.735942,10.560193)">
      <g
         transform="matrix(0.99523519,0,0,0.99357326,100.6735,-75.579513)"
         id="g3217">
        <g
           transform="translate(-40.456286,109.24726)"
           id="g4335">
          <g
             style="fill:#f9f9f9"
             id="g3214">
            <path
               inkscape:connector-curvature="0"
               d="m 664.32935,638.58676 -201.26471,-0.33071 1.13919,-273.64835 201.2646,0.33072 -1.13918,273.64842"
               style="fill:#f9f9f9;fill-opacity:1;fill-rule:nonzero;stroke:none"
               id="path8958-4" />
          </g>
          <path
             id="path8888-9"
             style="fill:#131112;fill-opacity:1;fill-rule:nonzero;stroke:none"
             d="m 487.27842,447.40349 162.80827,0.40081 -0.0114,-0.9295 -162.80849,-0.40044 0.0114,0.92965"
             inkscape:connector-curvature="0" />
          <path
             id="path8890-3"
             style="fill:#131112;fill-opacity:1;fill-rule:nonzero;stroke:none"
             d="m 487.13566,462.95625 162.80624,0.40257 -0.0114,-0.93043 -162.80656,-0.40211 0.0129,0.92982"
             inkscape:connector-curvature="0" />
          <path
             id="path8892-4"
             style="fill:#131112;fill-opacity:1;fill-rule:nonzero;stroke:none"
             d="m 486.86954,478.75427 162.80779,0.40122 -0.0114,-0.92996 -162.80796,-0.40121 0.0128,0.93013"
             inkscape:connector-curvature="0" />
          <path
             id="path8894-9"
             style="fill:#131112;fill-opacity:1;fill-rule:nonzero;stroke:none"
             d="m 486.96147,494.37785 162.8073,0.40095 -0.0114,-0.93049 -162.80767,-0.40046 0.0114,0.92966"
             inkscape:connector-curvature="0" />
          <path
             id="path8896-2"
             style="fill:#131112;fill-opacity:1;fill-rule:nonzero;stroke:none"
             d="m 487.0584,510.05783 162.80718,0.40091 -0.0129,-0.93078 -162.8069,-0.40072 0.0114,0.93054"
             inkscape:connector-curvature="0" />
          <path
             id="path8898-0"
             style="fill:#131112;fill-opacity:1;fill-rule:nonzero;stroke:none"
             d="m 486.91051,525.77975 162.80773,0.40109 -0.0114,-0.92949 -162.808,-0.40128 0.0114,0.92972"
             inkscape:connector-curvature="0" />
          <path
             id="path8900-0"
             style="fill:#131112;fill-opacity:1;fill-rule:nonzero;stroke:none"
             d="m 486.76309,541.67638 162.80816,0.4024 -0.0114,-0.93048 -162.80825,-0.40248 0.0114,0.93056"
             inkscape:connector-curvature="0" />
          <path
             id="path8902-7"
             style="fill:#131112;fill-opacity:1;fill-rule:nonzero;stroke:none"
             d="m 486.73894,557.43044 162.80678,0.40057 -0.0114,-0.93052 -162.80676,-0.4006 0.0114,0.93068"
             inkscape:connector-curvature="0" />
          <path
             id="path8976"
             style="fill:#a88c74;fill-opacity:1;fill-rule:nonzero;stroke:none"
             d="m 482.74874,496.45444 c -1.03181,-0.4358 -1.69543,-1.41576 -1.68902,-2.49719 0.01,-1.46919 1.25894,-2.63885 2.7806,-2.60665 0.36657,0.01 0.72042,0.0813 1.05387,0.2236 1.03299,0.43595 1.69644,1.416 1.68722,2.49863 -0.004,0.71263 -0.29632,1.37507 -0.82147,1.86721 -0.52569,0.49147 -1.22019,0.75535 -1.95828,0.73885 -0.36365,-0.008 -0.71869,-0.0846 -1.05272,-0.22397"
             inkscape:connector-curvature="0" />
          <path
             id="path8978"
             style="fill:#efe2a8;fill-opacity:1;fill-rule:nonzero;stroke:none"
             d="m 484.97422,491.18329 0,0 c -0.38601,-0.16468 -0.79697,-0.25107 -1.2217,-0.25884 -1.76357,-0.0369 -3.20977,1.31819 -3.22286,3.02086 -0.007,1.2546 0.76049,2.39034 1.95791,2.89537 0.38514,0.16418 0.79804,0.25115 1.22117,0.25996 0.85514,0.0184 1.66048,-0.28666 2.26912,-0.85698 0.60927,-0.57061 0.94722,-1.33971 0.95294,-2.16413 0.009,-1.25423 -0.75885,-2.39163 -1.95616,-2.89671 z m -0.34093,0.77695 c 0.83837,0.35423 1.42723,1.16739 1.41935,2.10075 -0.009,1.23793 -1.05531,2.21903 -2.33669,2.19225 -0.31443,-0.008 -0.61479,-0.0736 -0.88589,-0.18924 -0.83966,-0.35396 -1.42577,-1.16666 -1.42053,-2.10038 0.009,-1.2379 1.05603,-2.21855 2.33815,-2.19169 0.31329,0.01 0.61311,0.0732 0.88561,0.18771"
             inkscape:connector-curvature="0" />
          <path
             id="path8976-7"
             style="fill:#a88c74;fill-opacity:1;fill-rule:nonzero;stroke:none"
             d="m 482.51352,512.37359 c -1.03209,-0.4355 -1.69546,-1.41569 -1.6889,-2.49711 0.01,-1.46917 1.25879,-2.63901 2.77969,-2.60706 0.36612,0.01 0.72033,0.0811 1.05393,0.22365 1.033,0.43595 1.69648,1.4159 1.68716,2.49851 -0.004,0.71261 -0.29641,1.37502 -0.82147,1.86733 -0.52557,0.49137 -1.22053,0.75507 -1.95827,0.73878 -0.36365,-0.008 -0.71843,-0.0849 -1.05275,-0.22398"
             inkscape:connector-curvature="0" />
          <path
             id="path8976-3"
             style="fill:#a88c74;fill-opacity:1;fill-rule:nonzero;stroke:none"
             d="m 482.70336,527.65912 c -1.0321,-0.43548 -1.69539,-1.41573 -1.68886,-2.49717 0.01,-1.4692 1.25876,-2.63888 2.78014,-2.60687 0.36613,0.01 0.72037,0.0813 1.05395,0.22365 1.03299,0.43595 1.69639,1.41587 1.68731,2.49848 -0.004,0.7126 -0.29635,1.37508 -0.82153,1.86728 -0.52567,0.49146 -1.22011,0.7553 -1.95824,0.73882 -0.36331,-0.01 -0.71873,-0.0846 -1.05238,-0.22427"
             inkscape:connector-curvature="0" />
          <path
             id="path8976-36"
             style="fill:#a88c74;fill-opacity:1;fill-rule:nonzero;stroke:none"
             d="m 482.38257,543.85996 c -1.03181,-0.4358 -1.69536,-1.41572 -1.68899,-2.49714 0.01,-1.46922 1.25892,-2.6389 2.7797,-2.6071 0.36613,0.01 0.72002,0.0816 1.05392,0.22363 1.03299,0.43593 1.69646,1.41592 1.6875,2.49873 -0.004,0.71247 -0.29685,1.37476 -0.82155,1.86718 -0.52126,0.4937 -1.21969,0.75555 -1.95828,0.73883 -0.36366,-0.008 -0.71861,-0.0851 -1.0529,-0.22406"
             inkscape:connector-curvature="0" />
          <path
             id="path8976-0"
             style="fill:#a88c74;fill-opacity:1;fill-rule:nonzero;stroke:none"
             d="m 482.14868,559.49743 c -1.03224,-0.43555 -1.69556,-1.41577 -1.68889,-2.49709 0.01,-1.46929 1.25868,-2.6389 2.7797,-2.60712 0.36611,0.01 0.71993,0.0814 1.05423,0.22334 1.03267,0.43578 1.69606,1.41593 1.68718,2.49851 -0.004,0.71243 -0.29642,1.37499 -0.82165,1.86726 -0.52119,0.49365 -1.21968,0.75545 -1.95821,0.73878 -0.36543,-0.01 -0.71848,-0.0844 -1.05273,-0.22397"
             inkscape:connector-curvature="0" />
          <path
             id="path8978-3"
             style="fill:#efe2a8;fill-opacity:1;fill-rule:nonzero;stroke:none"
             d="m 484.9083,507.03206 0,0 c -0.38602,-0.16469 -0.79657,-0.25134 -1.22167,-0.25883 -1.76362,-0.0369 -3.20984,1.31826 -3.22281,3.02083 -0.007,1.2547 0.76048,2.39044 1.95793,2.89549 0.38513,0.16418 0.79727,0.25168 1.22115,0.25996 0.8551,0.0184 1.66051,-0.28668 2.26905,-0.85699 0.60934,-0.57065 0.94697,-1.34008 0.95301,-2.16424 0.009,-1.25411 -0.75886,-2.39161 -1.9562,-2.89659 z m -0.34098,0.77698 c 0.83839,0.35424 1.42693,1.16771 1.41937,2.10086 -0.009,1.23788 -1.05525,2.21889 -2.33673,2.19225 -0.31441,-0.008 -0.61445,-0.0737 -0.88562,-0.18957 -0.83959,-0.35391 -1.42604,-1.16632 -1.42048,-2.10035 0.009,-1.23791 1.0561,-2.21857 2.33811,-2.19165 0.31363,0.008 0.61313,0.0731 0.88562,0.18771"
             inkscape:connector-curvature="0" />
          <path
             id="path8978-3-7"
             style="fill:#efe2a8;fill-opacity:1;fill-rule:nonzero;stroke:none"
             d="m 484.67489,522.52865 0,0 c -0.38603,-0.16451 -0.79701,-0.25109 -1.22172,-0.25884 -1.76354,-0.037 -3.20977,1.31826 -3.22278,3.02081 -0.007,1.25455 0.76032,2.39034 1.95779,2.8954 0.38514,0.16418 0.79763,0.25141 1.22112,0.26042 0.85514,0.0184 1.66056,-0.28661 2.26911,-0.85695 0.60942,-0.57077 0.94695,-1.3401 0.953,-2.16426 0.009,-1.25415 -0.7589,-2.39163 -1.95627,-2.89668 z m -0.34099,0.77699 c 0.83841,0.35424 1.42723,1.16739 1.41926,2.10076 -0.009,1.23793 -1.0551,2.21898 -2.33672,2.19228 -0.31529,-0.01 -0.61443,-0.0737 -0.88557,-0.18957 -0.83962,-0.35393 -1.42643,-1.16604 -1.42049,-2.1004 0.009,-1.23789 1.05606,-2.21863 2.33815,-2.1917 0.31328,0.01 0.6131,0.0732 0.8856,0.18772"
             inkscape:connector-curvature="0" />
          <path
             id="path8978-3-5"
             style="fill:#efe2a8;fill-opacity:1;fill-rule:nonzero;stroke:none"
             d="m 484.60868,538.44797 0,0 c -0.38601,-0.16451 -0.79701,-0.25109 -1.22176,-0.25886 -1.76355,-0.0368 -3.20966,1.31823 -3.2229,3.02093 -0.007,1.25451 0.7605,2.39036 1.9579,2.89535 0.38512,0.16418 0.79777,0.25149 1.22102,0.25992 0.85524,0.0186 1.66047,-0.28665 2.26925,-0.85685 0.60761,-0.57158 0.94644,-1.34025 0.95305,-2.16417 0.009,-1.25426 -0.75893,-2.39165 -1.95631,-2.89675 z m -0.34138,0.77673 c 0.8384,0.35423 1.42697,1.16773 1.41922,2.10089 -0.009,1.23796 -1.05498,2.21908 -2.33667,2.19221 -0.31485,-0.01 -0.61444,-0.0737 -0.88597,-0.18929 -0.83964,-0.35394 -1.42586,-1.1667 -1.42061,-2.10038 0.009,-1.23786 1.05615,-2.21863 2.33823,-2.19173 0.31328,0.01 0.61311,0.0732 0.88551,0.18765"
             inkscape:connector-curvature="0" />
          <path
             id="path8978-3-4"
             style="fill:#efe2a8;fill-opacity:1;fill-rule:nonzero;stroke:none"
             d="m 484.54326,554.15595 0,0 c -0.39297,-0.15884 -0.79682,-0.25101 -1.22123,-0.25908 -1.76335,-0.0368 -3.20996,1.31819 -3.22067,3.02203 -0.009,1.25446 0.76034,2.39026 1.95757,2.89529 0.39299,0.15883 0.79808,0.25117 1.22107,0.2604 0.85524,0.0186 1.66055,-0.28672 2.26928,-0.85687 0.60765,-0.57162 0.94654,-1.34035 0.95269,-2.16446 0.009,-1.25403 -0.75881,-2.39153 -1.95604,-2.89658 z m -0.34134,0.7767 c 0.83862,0.35434 1.42614,1.16824 1.41932,2.10083 -0.009,1.23796 -1.05518,2.21903 -2.33805,2.1916 -0.31608,-0.01 -0.61532,-0.0744 -0.88589,-0.18925 -0.83932,-0.35377 -1.42647,-1.1656 -1.42053,-2.10043 0.01,-1.23772 1.05608,-2.21858 2.33819,-2.19171 0.31504,0.01 0.61092,0.0721 0.8856,0.18768"
             inkscape:connector-curvature="0" />
          <path
             id="path8976-05"
             style="fill:#a88c74;fill-opacity:1;fill-rule:nonzero;stroke:none"
             d="m 482.81432,480.67606 c -1.03172,-0.43577 -1.69542,-1.4157 -1.68898,-2.49714 0.01,-1.46915 1.25892,-2.6389 2.7797,-2.6071 0.36657,0.01 0.72029,0.0811 1.05387,0.2236 1.03294,0.43591 1.69647,1.41597 1.68729,2.49856 -0.004,0.71255 -0.29644,1.37497 -0.82158,1.8673 -0.52557,0.49137 -1.22052,0.75506 -1.95828,0.7388 -0.36333,-0.01 -0.71874,-0.0846 -1.05238,-0.22426"
             inkscape:connector-curvature="0" />
          <path
             id="path8998"
             style="fill:#efe2a8;fill-opacity:1;fill-rule:nonzero;stroke:none"
             d="m 484.79786,475.65737 0,0 c -0.38512,-0.16418 -0.79855,-0.25141 -1.22146,-0.25966 -1.76469,-0.0369 -3.21012,1.31909 -3.22314,3.02169 -0.007,1.2545 0.76013,2.39106 1.95658,2.89578 0.38601,0.16451 0.79856,0.2514 1.22234,0.25964 0.85454,0.0182 1.66051,-0.28668 2.26912,-0.85691 0.60986,-0.57109 0.94632,-1.34017 0.95263,-2.16537 0.009,-1.25328 -0.75837,-2.39042 -1.95568,-2.89544 z m -0.34096,0.77695 c 0.83974,0.35397 1.42683,1.16672 1.41932,2.10091 -0.009,1.23817 -1.0552,2.21899 -2.33721,2.19207 -0.31476,-0.008 -0.6139,-0.0731 -0.88648,-0.18814 -0.83929,-0.35469 -1.42605,-1.16679 -1.41922,-2.10073 0.009,-1.23794 1.05575,-2.21781 2.33732,-2.19222 0.31443,0.008 0.6139,0.0731 0.88653,0.18819"
             inkscape:connector-curvature="0" />
          <path
             id="path8976-9"
             style="fill:#a88c74;fill-opacity:1;fill-rule:nonzero;stroke:none"
             d="m 482.71178,464.68628 c -1.03175,-0.43578 -1.69539,-1.41573 -1.68888,-2.49724 0.01,-1.46918 1.25879,-2.63891 2.78062,-2.60666 0.36568,0.008 0.71997,0.0814 1.05388,0.2236 1.03303,0.43596 1.69642,1.4159 1.68737,2.49849 -0.004,0.71263 -0.29644,1.37501 -0.82161,1.86727 -0.52563,0.49142 -1.22056,0.75508 -1.95824,0.73888 -0.36365,-0.008 -0.71837,-0.0849 -1.05271,-0.22397"
             inkscape:connector-curvature="0" />
          <path
             id="path9002"
             style="fill:#efe2a8;fill-opacity:1;fill-rule:nonzero;stroke:none"
             d="m 485.02104,459.68691 0,0 c -0.38512,-0.16419 -0.79828,-0.25128 -1.22259,-0.2593 -0.85255,-0.0186 -1.65974,0.28533 -2.26836,0.85523 -0.60938,0.57069 -0.94725,1.33975 -0.95333,2.16515 -0.009,1.25408 0.75952,2.3899 1.95612,2.89455 0.38734,0.16535 0.79993,0.25211 1.22436,0.25975 0.85307,0.0184 1.65893,-0.28587 2.26698,-0.85697 0.60873,-0.57019 0.94667,-1.33809 0.95261,-2.16333 0.009,-1.25426 -0.75825,-2.39042 -1.95566,-2.89554 z m -0.34146,0.77563 c 0.83964,0.35437 1.42595,1.16578 1.41803,2.10131 -0.009,1.23793 -1.05403,2.21852 -2.33641,2.19143 -0.31329,-0.01 -0.614,-0.0737 -0.8871,-0.18849 -0.83877,-0.35394 -1.42531,-1.16638 -1.41845,-2.10038 0.009,-1.23798 1.05519,-2.21898 2.33821,-2.19175 0.31328,0.01 0.61313,0.0732 0.88565,0.18772"
             inkscape:connector-curvature="0" />
          <path
             id="path8976-33"
             style="fill:#a88c74;fill-opacity:1;fill-rule:nonzero;stroke:none"
             d="m 482.68913,449.82344 c -1.03177,-0.43577 -1.69536,-1.4157 -1.68889,-2.49724 0.01,-1.46912 1.25886,-2.63883 2.78055,-2.60662 0.36612,0.01 0.72032,0.0811 1.05387,0.22362 1.03304,0.43595 1.6965,1.41594 1.6873,2.49861 -0.004,0.71253 -0.29635,1.37498 -0.82148,1.86717 -0.5257,0.49149 -1.22065,0.75513 -1.9582,0.73885 -0.36367,-0.008 -0.71907,-0.0838 -1.05277,-0.22401"
             inkscape:connector-curvature="0" />
          <path
             id="path8986"
             style="fill:#efe2a8;fill-opacity:1;fill-rule:nonzero;stroke:none"
             d="m 484.86181,444.28496 0,0 c -0.38601,-0.16452 -0.7994,-0.25184 -1.22165,-0.26069 -1.76433,-0.0324 -3.2105,1.31994 -3.22309,3.02167 -0.007,1.25456 0.76001,2.39117 1.95745,2.89622 0.38558,0.16435 0.79733,0.25126 1.22146,0.25918 0.85456,0.0182 1.66042,-0.28713 2.26907,-0.85692 0.60933,-0.57067 0.94648,-1.33913 0.95264,-2.16536 0.009,-1.25328 -0.75867,-2.38959 -1.95518,-2.89422 z m -0.34089,0.77688 c 0.83877,0.35396 1.42561,1.16609 1.41838,2.10046 -0.007,1.23745 -1.05509,2.21907 -2.33748,2.19112 -0.31329,-0.01 -0.61401,-0.0737 -0.88526,-0.18799 -0.8409,-0.35409 -1.42608,-1.16681 -1.42056,-2.10035 0.01,-1.23878 1.05615,-2.21858 2.33891,-2.19232 0.31434,0.008 0.61269,0.0729 0.88559,0.18958"
             inkscape:connector-curvature="0" />
          <text
             transform="scale(0.93771336,1.066424)"
             sodipodi:linespacing="125%"
             id="text4396"
             y="558.53558"
             x="544.91553"
             style="font-size:10.52661037px;font-style:normal;font-variant:normal;font-weight:300;font-stretch:normal;text-indent:0;text-align:center;text-decoration:none;line-height:125%;letter-spacing:0px;word-spacing:0px;text-transform:none;direction:ltr;block-progression:tb;writing-mode:lr-tb;text-anchor:middle;baseline-shift:baseline;color:#000000;fill:#000000;fill-opacity:1;fill-rule:nonzero;stroke:none;stroke-width:1px;marker:none;visibility:visible;display:inline;overflow:visible;enable-background:accumulate;font-family:Roboto;-inkscape-font-specification:Roboto Light"
             xml:space="preserve"><tspan
               y="558.53558"
               x="544.91553"
               id="tspan4398"
               sodipodi:role="line">15.03.2015</tspan></text>
          <path
             inkscape:connector-curvature="0"
             d="m 589.74638,600.62328 c -0.0931,-1.2698 0.006,-2.52687 0.21131,-3.77065 0.1638,-0.99864 0.4832,-1.94325 0.88004,-2.84887 0.33053,-0.73547 0.76426,-1.38501 1.36781,-1.84883 0.52029,-0.34436 1.02044,-0.25369 1.53841,0.0274 0.6207,0.40985 1.07347,1.05322 1.50947,1.68624 0.5009,0.7848 0.96966,1.59396 1.51279,2.3426 0.50587,0.68791 1.14663,1.11936 1.90156,1.34281 0.83098,0.1811 1.62292,-0.0665 2.39113,-0.41089 0.94085,-0.4589 1.73259,-1.19509 2.47937,-1.97547 0.85705,-0.91806 1.56979,-1.98216 2.22828,-3.08667 0.66484,-1.13064 1.20088,-2.34585 1.66819,-3.59515 0.37228,-1.00954 0.61857,-2.06528 0.73377,-3.15055 0.007,-0.13927 0.0194,-0.55686 0.0236,-0.41749 0.0621,2.0917 0.0417,0.51476 -0.24348,0.0737 -0.36895,-0.28498 -0.76631,0.21616 -1.02275,0.48057 -0.69252,0.79598 -1.25913,1.71818 -1.81466,2.63848 -0.7831,1.3182 -1.48312,2.69607 -2.16298,4.08529 -0.73008,1.5133 -1.38101,3.07322 -2.01775,4.63931 -0.57229,1.43409 -1.151,2.86484 -1.72795,4.29651 -0.30391,0.8071 -0.67785,1.58575 -0.91522,2.42349 -0.007,0.05 -0.0264,0.20065 -0.0238,0.14997 0.0278,-0.52522 10e-4,-1.06023 0.0988,-1.57453 0.0154,-0.0809 0.99539,-0.93739 1.1099,-1.04148 0.61436,-0.56799 1.29899,-0.98296 2.05694,-1.23391 0.75162,-0.21665 1.5085,-0.10115 2.2568,0.0598 0.77593,0.2136 1.55584,0.33559 2.35371,0.31317 1.09166,-0.0756 2.09354,-0.56551 3.06922,-1.08791 1.35737,-0.77958 2.63518,-1.72171 3.93714,-2.6118 1.1088,-0.77553 2.27349,-1.43032 3.51821,-1.86565 0.81428,-0.26265 1.65846,-0.23436 2.4946,-0.20258 0.59378,0.0493 1.17883,0.003 1.75758,-0.14964 0.48591,-0.161 0.943,-0.40792 1.44146,-0.51713 0.48873,-0.069 0.7571,0.23639 0.94936,0.70785 0.22191,0.7883 0.22664,1.62873 0.26552,2.44817 0.0495,0.78628 0.0505,1.59596 0.29548,2.34257 0.25177,0.54823 0.62151,0.1759 0.91933,-0.11754 0.61405,-0.70728 1.10199,-1.53877 1.60578,-2.34673 0.41124,-0.64639 0.79176,-1.32214 1.26825,-1.91035 0.82815,-0.53407 0.38792,1.42739 0.26509,2.09402 -0.13889,0.70847 -0.32029,1.40477 -0.47278,2.10931 -0.0351,-0.2502 -0.0363,0.44393 -0.036,0.33233 0.006,-2.21947 -0.045,-1.4925 0.56902,-3.12927 0.44492,-1.19261 0.78875,-2.42781 1.06865,-3.68227 0.11034,-0.53931 0.20637,-1.08512 0.24649,-1.63788 0.0114,-0.14897 0.0157,-0.59739 0.017,-0.44796 0.0129,1.3182 0.0171,1.24086 -0.0503,0.66049 -0.1209,-0.64574 -0.48865,-0.69262 -0.97978,-0.51933 -0.94467,0.49131 -1.71186,1.31857 -2.47884,2.09605 -1.37734,1.44192 -2.71313,2.93445 -4.05153,4.42276 -1.61031,1.81722 -3.24245,3.60847 -4.91348,5.35337 -1.65297,1.74053 -3.42665,3.31811 -5.26703,4.79183 -1.74663,1.40692 -3.6622,2.48063 -5.64563,3.37552 -1.8893,0.82868 -3.87269,1.25772 -5.88365,1.44198 -1.90261,0.12841 -3.78695,-0.18573 -5.64261,-0.62922 -0.8376,-0.20432 -1.65124,-0.50556 -2.46266,-0.81278 0,0 0.0393,-1.38289 0.0393,-1.38289 l 0,0 c 0.80667,0.30774 1.61561,0.6095 2.4487,0.81418 1.8438,0.44382 3.71641,0.75888 5.60757,0.63081 1.99909,-0.18396 3.97041,-0.61267 5.84757,-1.43958 1.97404,-0.89475 3.87967,-1.96833 5.61717,-3.37256 1.83486,-1.47374 3.60314,-3.05076 5.25152,-4.78937 1.66938,-1.74596 3.30011,-3.5379 4.90958,-5.35516 1.33997,-1.49139 2.67674,-2.9877 4.05663,-4.43155 0.77974,-0.78959 1.56215,-1.63083 2.53189,-2.10909 0.52735,-0.17254 1.00877,-0.15649 1.18852,0.53273 0.22174,1.38666 0.0504,2.82723 -0.22588,4.18552 -0.28827,1.25548 -0.63734,2.4923 -1.08713,3.68626 -0.16545,0.43538 -0.215,0.5789 -0.39237,0.99682 -0.0585,0.1376 -0.0914,0.52353 -0.18125,0.40982 -0.41153,-0.52077 -0.36242,-0.88114 -0.26399,-1.37681 0.15795,-0.7015 0.33388,-1.39808 0.46739,-2.10647 0.18905,-1.10147 0.31795,0.85672 0.004,0.68179 -0.46512,0.59207 -0.84542,1.26068 -1.25415,1.90246 -0.50911,0.81475 -1.00275,1.65568 -1.63692,2.35399 -0.36189,0.3319 -0.81466,0.67419 -1.14946,0.11252 -0.28989,-0.73609 -0.28257,-1.56148 -0.33589,-2.35311 -0.0378,-0.81462 -0.0433,-1.64345 -0.22468,-2.43742 -0.14018,-0.43571 -0.32726,-0.76534 -0.78122,-0.69787 -0.49578,0.11269 -0.95077,0.36478 -1.43757,0.51545 -0.58955,0.15181 -1.1854,0.19921 -1.78947,0.14847 -0.82253,-0.0328 -1.65306,-0.0639 -2.45379,0.19741 -1.23443,0.4352 -2.38866,1.08912 -3.48893,1.85869 -1.3053,0.89272 -2.58701,1.83674 -3.94948,2.61521 -0.99197,0.52844 -2.01104,1.01968 -3.11973,1.09473 -0.80645,0.0229 -1.59559,-0.0948 -2.3798,-0.31246 -0.72908,-0.1585 -1.46636,-0.27643 -2.19859,-0.0598 -0.74201,0.25252 -1.40921,0.67061 -2.00925,1.2308 -0.4564,0.4184 -1.97437,2.31032 -1.42032,-0.31219 0.26059,-0.82806 0.61792,-1.61177 0.92867,-2.41585 0.57778,-1.43018 1.15564,-2.8603 1.72876,-4.29292 0.63926,-1.56696 1.29275,-3.12771 2.02675,-4.64085 0.68332,-1.39104 1.38669,-2.77078 2.17417,-4.08985 0.56256,-0.926 1.13469,-1.857 1.84376,-2.64804 0.33526,-0.33051 0.75557,-0.77102 1.21768,-0.48272 0.66197,0.77404 0.26801,2.18252 0.28991,3.11707 -0.13218,1.08587 -0.38819,2.14223 -0.76778,3.15167 -0.47624,1.25 -1.01983,2.46613 -1.69172,3.597 -0.66756,1.10695 -1.38987,2.17289 -2.25644,3.09085 -0.76093,0.78531 -1.56802,1.52361 -2.52421,1.98062 -0.79373,0.34898 -1.61134,0.59488 -2.46731,0.41318 -0.77835,-0.22164 -1.44856,-0.64831 -1.97813,-1.34862 -0.55032,-0.74352 -1.02184,-1.55171 -1.51695,-2.34268 -0.42243,-0.62275 -0.85842,-1.25906 -1.45429,-1.67897 -0.47695,-0.2761 -0.92789,-0.36787 -1.4077,-0.0289 -0.57836,0.47064 -0.98976,1.11841 -1.30608,1.83947 -0.38478,0.90607 -0.69218,1.84951 -0.84653,2.84427 -0.0701,0.4499 -0.1319,0.89646 -0.16686,1.35192 -0.01,0.13492 -0.0168,0.54081 -0.0258,0.40562 -0.0166,-0.24933 -0.0221,-1.54295 -0.007,-0.75003 0,0 -0.18163,1.38338 -0.18163,1.38338 z"
             id="path4404"
             style="opacity:0.41152266;color:#000000;fill:#003380;fill-opacity:1;fill-rule:evenodd;stroke:none;stroke-width:0;marker:none;visibility:visible;display:inline;overflow:visible;enable-background:accumulate" />
          <path
             inkscape:connector-curvature="0"
             id="path1420-26"
             style="fill:#808080;fill-opacity:1;fill-rule:evenodd;stroke:none"
             d="m 507.37889,419.04726 1.85837,0 0,-28.53532 -1.85837,0 0,28.53532 z" />
          <path
             d="m 506.32667,414.58077 c -1.9524,-0.65674 -3.29244,-2.16542 -4.02122,-4.5633 l -2.47186,0.62061 c 1.17994,3.68767 3.34282,5.89372 6.49308,6.62832 l 0,-2.68563 z"
             style="fill:#808080;fill-opacity:1;fill-rule:evenodd;stroke:none"
             id="path1424-2"
             inkscape:connector-curvature="0" />
          <path
             d="m 501.01345,399.78355 c 0.4657,2.48476 2.52894,4.54186 5.31312,5.42541 l 0,-2.84021 c -1.86509,-0.5834 -3.1928,-2.02326 -3.1928,-3.72491 0,-1.65764 1.27622,-3.08394 3.07861,-3.68765 0.0358,-0.0134 0.0784,-0.0383 0.11419,-0.0575 l 0,-2.60663 c -0.25524,0.0496 -0.51609,0.12305 -0.76349,0.20649 -2.31736,0.95578 -4.019,2.75786 -4.52166,4.9199 -0.0627,0.41976 -0.10406,0.84632 -0.10406,1.30331 0,0.36336 0.028,0.71429 0.0761,1.06185"
             style="fill:#808080;fill-opacity:1;fill-rule:evenodd;stroke:none"
             id="path1428-5"
             inkscape:connector-curvature="0" />
          <path
             d="m 511.63231,395.7041 c 1.07471,0.72783 1.75872,1.80997 2.04083,3.21711 l 2.48641,-0.81811 c -1.05233,-3.36153 -3.09429,-5.29113 -6.09566,-5.81018 l 0,2.6258 c 0.5284,0.18732 1.06016,0.44236 1.56842,0.78538"
             style="fill:#808080;fill-opacity:1;fill-rule:evenodd;stroke:none"
             id="path1432-6"
             inkscape:connector-curvature="0" />
          <path
             d="m 514.47147,410.39221 c 0,1.28301 -0.72769,2.44414 -1.86509,3.25097 -0.52169,0.43105 -1.17211,0.72895 -1.97031,0.90159 -0.17017,0.052 -0.34481,0.10266 -0.53064,0.13543 l 0,2.58632 c 0.10406,-0.0151 0.19814,-0.0316 0.30562,-0.0508 3.76486,-1.2672 6.36434,-3.91786 6.36434,-6.99954 0,-3.17875 -2.74166,-5.6556 -6.67668,-6.87994 l 0.006,2.74993 c 2.50766,0.48296 4.36603,2.22073 4.36603,4.30604"
             style="fill:#808080;fill-opacity:1;fill-rule:evenodd;stroke:none"
             id="path1436-8"
             inkscape:connector-curvature="0" />
          <path
             d="m 508.30326,436.82067 c -17.28279,0 -31.34814,-14.17963 -31.34814,-31.60347 0,-15.97835 11.64275,-29.28233 27.23286,-31.31911 l 0,-6.10698 1.54379,0.89821 16.17672,9.40645 1.53595,0.88921 -1.53036,0.90045 -16.18231,9.4279 -1.54379,0.89258 0,-5.41301 c -9.53027,1.93751 -16.57974,10.50555 -16.57974,20.4243 0,11.50305 9.28735,20.86548 20.69502,20.86548 11.41997,0 20.70172,-9.36243 20.70172,-20.86548 0,-3.41797 -0.84522,-6.82352 -2.46849,-9.83865 l -0.4769,-0.89144 0.87321,-0.49877 7.47264,-4.31279 0.91125,-0.52697 0.50825,0.91853 c 2.51216,4.62989 3.82869,9.8691 3.82869,15.15009 0,17.42384 -14.05751,31.60347 -31.35037,31.60347"
             style="fill:#006680;fill-opacity:1;fill-rule:nonzero;stroke:none"
             id="path1440-2"
             inkscape:connector-curvature="0" />
        </g>
      </g>
      <g
         transform="matrix(1.0891224,0,0,1.0882441,-103.14735,-310.29409)"
         id="g4458">
        <path
           inkscape:connector-curvature="0"
           d="m 486.80077,834.95287 -186.58852,-0.52729 0.21279,-251.14456 186.58844,0.5273 -0.21281,251.14464"
           style="fill:#f2f2f2;fill-opacity:1;fill-rule:nonzero;stroke:none"
           id="path8958-43" />
        <g
           id="g60272"
           transform="matrix(0.75866644,0,0,-0.72414629,222.78341,869.24113)"
           style="fill:#373748">
          <path
             d="m 186.17601,304.81885 c -0.795,-0.69 -1.776,-1.028 -2.75,-1.028 -1.176,0 -2.344,0.489 -3.174,1.446 l -16.143,18.591 c -1.521,1.752 -1.334,4.405 0.416,5.926 1.756,1.524 4.407,1.332 5.926,-0.418 l 16.143,-18.592 c 1.521,-1.752 1.334,-4.404 -0.418,-5.925 z m -43.225,-24.733 c 0,-0.992 -0.805,-1.799 -1.799,-1.799 -0.994,0 -1.801,0.807 -1.801,1.799 l 0,51 c 0,0.994 0.807,1.801 1.801,1.801 0.994,0 1.799,-0.807 1.799,-1.801 l 0,-51 z m 28.799,61.201 -32.387,0 c -3.65,0 -6.611,-2.685 -6.611,-6 l 0,-58.201 c 0,-3.312 2.961,-6 6.611,-6 l 51.576,0 c 3.653,0 6.614,2.688 6.614,6 l 0,37.801 -25.803,26.4"
             style="fill:#373748;fill-opacity:1;fill-rule:nonzero;stroke:none"
             id="path59786"
             inkscape:connector-curvature="0" />
          <path
             d="m 149.55301,344.08585 c 0,-0.55 -0.452,-1 -1,-1 l -7.602,0 c -0.551,0 -1,0.45 -1,1 l 0,2.5 c 0,0.55 0.449,1 1,1 l 7.602,0 c 0.548,0 1,-0.45 1,-1 l 0,-2.5"
             style="fill:#373748;fill-opacity:1;fill-rule:nonzero;stroke:none"
             id="path59788"
             inkscape:connector-curvature="0" />
        </g>
        <g
           id="g4723"
           transform="matrix(0.58694559,0,0,0.5956977,284.50404,172.09852)"
           style="fill:#373748">
          <g
             transform="matrix(1.8512711,0,0,-1.8968161,217.90778,802.64425)"
             id="g1372"
             style="fill:#373748">
            <path
               inkscape:connector-curvature="0"
               id="path1374"
               style="fill:#373748;fill-opacity:1;fill-rule:nonzero;stroke:none"
               d="m 0,0 -51.53,0 c -1.026,0 -1.861,0.836 -1.861,1.861 l 0,23.748 55.252,0 0,-23.748 C 1.861,0.836 1.025,0 0,0 m -51.53,37.057 51.53,0 c 1.025,0 1.861,-0.836 1.861,-1.864 l 0,-1.604 -55.252,0 0,1.604 c 0,1.028 0.835,1.864 1.861,1.864 M 0,38.831 l -51.53,0 c -2.004,0 -3.635,-1.632 -3.635,-3.638 l 0,-33.332 c 0,-2.004 1.631,-3.635 3.635,-3.635 l 51.53,0 c 2.005,0 3.636,1.631 3.636,3.635 l 0,33.332 c 0,2.006 -1.631,3.638 -3.636,3.638" />
          </g>
          <g
             style="fill:#373748"
             transform="matrix(0.42182226,0,0,0.34639117,190.35028,596.13867)"
             id="g4715">
            <g
               style="fill:#373748"
               transform="matrix(1.25,0,0,-1.25,-12.830294,567.66403)"
               id="g208">
              <path
                 inkscape:connector-curvature="0"
                 id="path210"
                 style="fill:#373748;fill-opacity:1;fill-rule:nonzero;stroke:none"
                 d="m 0,0 c 0,7.406 12.84,21.971 12.84,21.971 0,0 13.41,-14.565 13.41,-21.971 0,-7.406 -6.004,-13.41 -13.41,-13.41 C 5.434,-13.41 0,-7.406 0,0" />
            </g>
            <g
               style="fill:#373748"
               transform="matrix(1.25,0,0,-1.25,-4.627169,524.76253)"
               id="g212">
              <path
                 inkscape:connector-curvature="0"
                 id="path214"
                 style="fill:#373748;fill-opacity:1;fill-rule:nonzero;stroke:none"
                 d="m 0,0 c 0,3.703 6.42,10.985 6.42,10.985 0,0 6.705,-7.282 6.705,-10.985 0,-3.703 -3.002,-6.705 -6.705,-6.705 C 2.717,-6.705 0,-3.703 0,0" />
            </g>
            <g
               style="fill:#373748"
               transform="matrix(1.25,0,0,-1.25,1.351831,503.22077)"
               id="g216">
              <path
                 inkscape:connector-curvature="0"
                 id="path218"
                 style="fill:#373748;fill-opacity:1;fill-rule:nonzero;stroke:none"
                 d="m 0,0 -22.791,26.529 -0.18,-0.178 0,0.178 -69.748,0 0,-9 66.201,0 L -1.689,-1.689 0,0 z" />
            </g>
          </g>
        </g>
        <rect
           style="fill:#f2f2f2;fill-rule:evenodd;stroke:#302424;stroke-width:1.70000005;stroke-linecap:butt;stroke-linejoin:miter;stroke-miterlimit:4;stroke-opacity:1;stroke-dasharray:none"
           id="rect4197"
           width="142.20729"
           height="132.61084"
           x="324.06033"
           y="688.47632"
           rx="0"
           ry="0" />
        <rect
           style="fill:#f2f2f2;fill-rule:evenodd;stroke:#302424;stroke-width:1.69393229;stroke-linecap:butt;stroke-linejoin:miter;stroke-miterlimit:4;stroke-opacity:1;stroke-dasharray:none"
           id="rect4197-6"
           width="142.14102"
           height="19.216209"
           x="324.04373"
           y="707.26843"
           rx="0"
           ry="0" />
        <rect
           style="fill:#f2f2f2;fill-rule:evenodd;stroke:#302424;stroke-width:1.69494522;stroke-linecap:butt;stroke-linejoin:miter;stroke-miterlimit:4;stroke-opacity:1;stroke-dasharray:none"
           id="rect4197-6-2"
           width="142.31857"
           height="19.215197"
           x="323.94324"
           y="742.92322"
           rx="0"
           ry="0" />
        <rect
           style="fill:#f2f2f2;fill-rule:evenodd;stroke:#302424;stroke-width:1.69494522;stroke-linecap:butt;stroke-linejoin:miter;stroke-miterlimit:4;stroke-opacity:1;stroke-dasharray:none"
           id="rect4197-6-8"
           width="142.31857"
           height="19.215197"
           x="323.97079"
           y="782.59674"
           rx="0"
           ry="0" />
        <rect
           style="fill:#f2f2f2;fill-rule:evenodd;stroke:#302424;stroke-width:1.68120158;stroke-linecap:butt;stroke-linejoin:miter;stroke-miterlimit:4;stroke-opacity:1;stroke-dasharray:none"
           id="rect4197-6-27"
           width="0.15882011"
           height="113.69414"
           x="353.56259"
           y="707.04736"
           rx="0"
           ry="0" />
        <rect
           style="fill:#f2f2f2;fill-rule:evenodd;stroke:#302424;stroke-width:1.68120158;stroke-linecap:butt;stroke-linejoin:miter;stroke-miterlimit:4;stroke-opacity:1;stroke-dasharray:none"
           id="rect4197-6-27-8"
           width="0.15882011"
           height="113.69414"
           x="383.61465"
           y="707.09943"
           rx="0"
           ry="0" />
        <rect
           style="fill:#f2f2f2;fill-rule:evenodd;stroke:#302424;stroke-width:1.68120158;stroke-linecap:butt;stroke-linejoin:miter;stroke-miterlimit:4;stroke-opacity:1;stroke-dasharray:none"
           id="rect4197-6-27-1"
           width="0.15882011"
           height="113.69414"
           x="412.80499"
           y="707.09943"
           rx="0"
           ry="0" />
        <rect
           style="fill:#f2f2f2;fill-rule:evenodd;stroke:#302424;stroke-width:1.68120158;stroke-linecap:butt;stroke-linejoin:miter;stroke-miterlimit:4;stroke-opacity:1;stroke-dasharray:none"
           id="rect4197-6-27-7"
           width="0.15882011"
           height="113.69414"
           x="439.77582"
           y="707.25043"
           rx="0"
           ry="0" />
      </g>
      <path
         id="path8958-43-9"
         style="fill:#999999;fill-opacity:1;fill-rule:nonzero;stroke:none"
         d="m 427.50032,599.04732 -130.17422,-0.24504 0.14846,-116.71334 130.17415,0.24505 -0.14847,116.71339"
         inkscape:connector-curvature="0" />
      <g
         transform="matrix(1.0891224,0,0,1.0882441,47.246098,241.84063)"
         id="g4308">
        <path
           inkscape:connector-curvature="0"
           d="m 419.65858,475.3577 -186.58852,-0.52729 0.21279,-251.14456 186.58844,0.5273 -0.21281,251.14464"
           style="fill:#f4f8b7;fill-opacity:1;fill-rule:nonzero;stroke:none"
           id="path8958" />
        <path
           inkscape:connector-curvature="0"
           d="m 250.38164,332.03996 150.93293,0.0414 -0.0121,-0.74348 -150.93314,-0.0411 0.0121,0.74361"
           style="fill:#131112;fill-opacity:1;fill-rule:nonzero;stroke:none"
           id="path8888" />
        <path
           inkscape:connector-curvature="0"
           d="m 250.27302,344.48086 150.93102,0.0428 -0.0121,-0.74423 -150.93133,-0.0424 0.0132,0.74373"
           style="fill:#131112;fill-opacity:1;fill-rule:nonzero;stroke:none"
           id="path8890" />
        <path
           inkscape:connector-curvature="0"
           d="m 250.05038,357.11816 150.93247,0.0417 -0.0121,-0.74385 -150.93261,-0.0417 0.0132,0.74398"
           style="fill:#131112;fill-opacity:1;fill-rule:nonzero;stroke:none"
           id="path8892" />
        <path
           inkscape:connector-curvature="0"
           d="m 250.15942,369.61532 150.93203,0.0415 -0.0121,-0.74429 -150.93234,-0.0411 0.0121,0.74363"
           style="fill:#131112;fill-opacity:1;fill-rule:nonzero;stroke:none"
           id="path8894" />
        <path
           inkscape:connector-curvature="0"
           d="m 250.27319,382.1576 150.9319,0.0414 -0.0121,-0.74452 -150.93165,-0.0413 0.0121,0.7443"
           style="fill:#131112;fill-opacity:1;fill-rule:nonzero;stroke:none"
           id="path8896" />
        <path
           inkscape:connector-curvature="0"
           d="m 250.16003,394.73381 150.93242,0.0416 -0.0121,-0.74349 -150.93269,-0.0417 0.0121,0.74365"
           style="fill:#131112;fill-opacity:1;fill-rule:nonzero;stroke:none"
           id="path8898" />
        <path
           inkscape:connector-curvature="0"
           d="m 250.04761,407.4498 150.93283,0.0426 -0.0121,-0.74426 -150.93292,-0.0427 0.0121,0.74435"
           style="fill:#131112;fill-opacity:1;fill-rule:nonzero;stroke:none"
           id="path8900" />
        <path
           inkscape:connector-curvature="0"
           d="m 250.04925,420.0515 150.93151,0.0412 -0.0121,-0.74432 -150.93151,-0.0412 0.0121,0.74442"
           style="fill:#131112;fill-opacity:1;fill-rule:nonzero;stroke:none"
           id="path8902" />
        <rect
           style="fill:#7c6f91;fill-rule:evenodd;stroke:#000000;stroke-width:0;stroke-linecap:butt;stroke-linejoin:miter;stroke-miterlimit:4;stroke-opacity:1;stroke-dasharray:none"
           id="rect3334"
           width="84.748787"
           height="83.322037"
           x="242.64819"
           y="234.09364"
           rx="42.374393"
           ry="41.661018" />
        <g
           id="g3318"
           transform="matrix(0.39950161,0,0,0.41207244,247.6701,65.150709)">
          <path
             style="fill:#f9f9f9;fill-opacity:1;fill-rule:nonzero;stroke:none"
             d="m 167.74569,495.45884 c 11.77601,5.24822 14.50923,16.37789 12.25168,31.98398 -1.16249,16.10602 -26.52528,27.71292 -42.44046,21.47751 -45.921904,0 -88.491545,-0.0194 -134.4134513,-0.0194 0,-18.50414 0.4119643,-46.90755 21.0098323,-48.626 58.300464,0.21117 85.291989,-5.0677 143.592399,-4.81581 z"
             id="path14825"
             inkscape:connector-curvature="0"
             sodipodi:nodetypes="ccccccc" />
          <path
             style="fill:#f9f9f9;fill-opacity:1;fill-rule:nonzero;stroke:none"
             d="m 167.7607,457.6843 c 18.91792,-0.0729 12.2367,28.18914 12.2367,42.0456 0,41.56938 -34.17091,2.7354 -46.73459,6.81411 -20.72288,0 -41.445761,0 -62.168643,0 0,-17.2917 -23.723211,-34.52703 2.802078,-48.38349 33.046165,0.0962 60.818375,-0.61295 93.864455,-0.47622 z"
             id="path14827"
             inkscape:connector-curvature="0"
             sodipodi:nodetypes="cccccc" />
          <path
             d="m 77.377,466.36889 c 0,0 -36.963998,-11.02472 -51.697974,34.65903 l 50.844337,0 0.853637,-34.65903 z"
             style="fill:#f9f9f9;fill-opacity:1;fill-rule:nonzero;stroke:none"
             id="path14831"
             inkscape:connector-curvature="0" />
          <path
             d="m 116.75658,545.18751 c 0,10.50106 7.35705,19.01308 16.42536,19.01308 9.06828,0 16.42536,-8.51202 16.42536,-19.01308 0,-10.49646 -7.35708,-19.00388 -16.42536,-19.00388 -9.06831,0 -16.42536,8.50742 -16.42536,19.00388"
             style="fill:#564d40;fill-opacity:1;fill-rule:nonzero;stroke:none"
             id="path14835"
             inkscape:connector-curvature="0" />
          <path
             d="m 122.08397,545.18751 c 0,7.09259 4.96691,12.84383 11.09715,12.84383 6.13025,0 11.09714,-5.75124 11.09714,-12.84383 0,-7.088 -4.96691,-12.83463 -11.09714,-12.83463 -6.13024,0 -11.09715,5.74663 -11.09715,12.83463"
             style="fill:#707571;fill-opacity:1;fill-rule:nonzero;stroke:none"
             id="path14839"
             inkscape:connector-curvature="0" />
          <path
             d="m 128.55529,545.18751 c 0,2.94913 2.07253,5.34241 4.62545,5.34241 2.55691,0 4.62546,-2.39328 4.62546,-5.34241 0,-2.94913 -2.06858,-5.34699 -4.62546,-5.34699 -2.55292,0 -4.62545,2.39786 -4.62545,5.34699"
             style="fill:#d3ceba;fill-opacity:1;fill-rule:nonzero;stroke:none"
             id="path14843"
             inkscape:connector-curvature="0" />
          <path
             d="m 18.676482,545.18751 c 0,10.50106 7.353102,19.01308 16.429366,19.01308 9.068281,0 16.425308,-8.51202 16.425308,-19.01308 0,-10.49646 -7.357027,-19.00388 -16.425308,-19.00388 -9.076264,0 -16.429366,8.50742 -16.429366,19.00388"
             style="fill:#564d40;fill-opacity:1;fill-rule:nonzero;stroke:none"
             id="path14847"
             inkscape:connector-curvature="0" />
          <path
             d="m 24.003954,545.18751 c 0,7.09259 4.970892,12.84383 11.101099,12.84383 6.12628,0 11.101125,-5.75124 11.101125,-12.84383 0,-7.088 -4.974845,-12.83463 -11.101125,-12.83463 -6.130207,0 -11.101099,5.74663 -11.101099,12.83463"
             style="fill:#707571;fill-opacity:1;fill-rule:nonzero;stroke:none"
             id="path14851"
             inkscape:connector-curvature="0" />
          <path
             d="m 30.473233,545.18751 c 0,2.94913 2.068548,5.34241 4.629432,5.34241 2.552927,0 4.625454,-2.39328 4.625454,-5.34241 0,-2.94913 -2.072527,-5.34699 -4.625454,-5.34699 -2.560884,0 -4.629432,2.39786 -4.629432,5.34699"
             style="fill:#d3ceba;fill-opacity:1;fill-rule:nonzero;stroke:none"
             id="path14855"
             inkscape:connector-curvature="0" />
          <path
             d="m 74.118156,472.11326 0,26.41343 -40.22767,0 c 0,0 10.513537,-32.70213 40.22767,-26.41343"
             style="fill:#cccccc;fill-opacity:1;fill-rule:nonzero;stroke:none"
             id="path14859"
             inkscape:connector-curvature="0" />
          <path
             sodipodi:nodetypes="ccccc"
             inkscape:connector-curvature="0"
             id="path14861"
             style="fill:#e9afaf;fill-opacity:1;fill-rule:nonzero;stroke:none"
             d="m 5.1023778,521.84758 173.1590222,-0.71735 0,-5.03003 -171.6927042,0 z" />
          <path
             d="m 117.52111,492.18315 c 0,10.20206 -8.07644,18.47323 -18.041038,18.47323 -9.964516,0 -18.040194,-8.27117 -18.040194,-18.47323 0,-10.20376 8.075678,-18.47493 18.040194,-18.47493 9.964598,0 18.041038,8.27117 18.041038,18.47493"
             style="fill:#e9afaf;fill-opacity:1;fill-rule:nonzero;stroke:none"
             id="path5948-9"
             inkscape:connector-curvature="0" />
          <path
             d="m 97.30598,502.2015 4.4846,0 0,-20.03766 -4.4846,0 0,20.03766 z"
             style="fill:#ffffff;fill-opacity:1;fill-rule:nonzero;stroke:none"
             id="path5950-4"
             inkscape:connector-curvature="0" />
          <path
             d="m 89.695769,494.47971 19.568611,0 0,-4.59327 -19.568611,0 0,4.59327 z"
             style="fill:#ffffff;fill-opacity:1;fill-rule:nonzero;stroke:none"
             id="path5952-7"
             inkscape:connector-curvature="0" />
        </g>
      </g>
    </g>
  </g>
</svg>
