<svg xmlns="http://www.w3.org/2000/svg" width="1000" height="1000"><defs><clipPath id="b"><path d="M62.303 732.634c-2.77 0-5.317-.94-7.374-2.483-1.55-2.05-2.48-4.61-2.48-7.38V608.32c0-6.796 5.51-12.684 12.3-12.684h206.9l9.3-26.577 8.447 24.57.607 2h27.027c2.77 0 5.11 1.112 7.168 2.66.837 1.112 1.43 2.43 1.8 3.84v121.63c-1.395 5.117-5.828 8.865-11.42 8.865H62.303z"/></clipPath><clipPath id="d"><path d="M62.303 732.634c-2.77 0-5.317-.94-7.374-2.483-1.55-2.05-2.48-4.61-2.48-7.38V608.32c0-6.796 5.51-12.684 12.3-12.684h206.9l9.3-26.577 8.447 24.57.607 2h27.027c2.77 0 5.11 1.112 7.168 2.66.837 1.112 1.43 2.43 1.8 3.84v121.63c-1.395 5.117-5.828 8.865-11.42 8.865H62.303z"/></clipPath><clipPath id="j"><path d="M62.303 732.634c-2.77 0-5.317-.94-7.374-2.483-1.55-2.05-2.48-4.61-2.48-7.38V608.32c0-6.796 5.51-12.684 12.3-12.684h206.9l9.3-26.577 8.447 24.57.607 2h27.027c2.77 0 5.11 1.112 7.168 2.66.837 1.112 1.43 2.43 1.8 3.84v121.63c-1.395 5.117-5.828 8.865-11.42 8.865H62.303z"/></clipPath><clipPath id="f"><path d="M62.303 732.634c-2.77 0-5.317-.94-7.374-2.483-1.55-2.05-2.48-4.61-2.48-7.38V608.32c0-6.796 5.51-12.684 12.3-12.684h206.9l9.3-26.577 8.447 24.57.607 2h27.027c2.77 0 5.11 1.112 7.168 2.66.837 1.112 1.43 2.43 1.8 3.84v121.63c-1.395 5.117-5.828 8.865-11.42 8.865H62.303z"/></clipPath><clipPath id="h"><path d="M62.303 732.634c-2.77 0-5.317-.94-7.374-2.483-1.55-2.05-2.48-4.61-2.48-7.38V608.32c0-6.796 5.51-12.684 12.3-12.684h206.9l9.3-26.577 8.447 24.57.607 2h27.027c2.77 0 5.11 1.112 7.168 2.66.837 1.112 1.43 2.43 1.8 3.84v121.63c-1.395 5.117-5.828 8.865-11.42 8.865H62.303z"/></clipPath><filter id="a" x="-.094" width="1.188" y="-.166" height="1.332"><feGaussianBlur stdDeviation="6.753"/></filter><filter color-interpolation-filters="sRGB" id="c" x="-.094" width="1.188" y="-.166" height="1.332"><feGaussianBlur stdDeviation="6.753"/></filter><filter color-interpolation-filters="sRGB" id="e" x="-.094" width="1.188" y="-.166" height="1.332"><feGaussianBlur stdDeviation="6.753"/></filter><filter color-interpolation-filters="sRGB" id="g" x="-.094" width="1.188" y="-.166" height="1.332"><feGaussianBlur stdDeviation="6.753"/></filter><filter color-interpolation-filters="sRGB" id="i" x="-.094" width="1.188" y="-.166" height="1.332"><feGaussianBlur stdDeviation="6.753"/></filter></defs><g transform="translate(0 -52.4)"><path d="M554.355 792.663c-27.425-16.78-54.84-25.976-79.645-45.467-9.79-7.575-1.95-28.677-11.74-29.764-45.05-4.325-91.386-8.653-137.088-12.44-7.824-.547-24.152 2.163-28.068-.547-20.236-15.147-43.082-25.977-61.35-41.67-9.79-8.662-16.98-22.735-16.98-36.805-18.278.543-43.083 5.417-48.295-12.987-5.88-23.27-29.38-26.52-54.18-28.687l17.61-263.556 430.18 28.142c10.43-10.29 28.72-12.996 41.12-13.537 74.4-3.247 74.4 47.09 95.95 43.303 16.33 4.865 40.46-29.766 62-34.095 22.193-4.337 45.057 15.69 65.274-1.624.653 7.56 2.62 15.14 4.57 22.72-7.824 1.62-8.486 10.83-12.394 14.61-13.05 15.15-11.1 39.5-21.53 55.2-4.583 7.032-9.152 19.48-11.76 24.9-16.322 33.01-35.91 71.44-75.052 95.79-5.884 3.784-7.198 14.06-12.42 18.392-11.08 8.12-24.15 16.236-35.24 25.432-2.62 2.166-11.097-.535-13.064 1.63-3.916 4.324 8.486 9.74 3.273 15.693-4.57 5.41-14.36 5.954-18.287 9.742-4.57 4.33.65 14.07-2.603 19.48-1.966 3.787-11.104 4.33-13.706 9.196-5.223 9.204-7.19 20.57-13.056 28.146-24.15 31.927-54.18 60.073-49.61 97.957 0 3.786-1.315 7.574-3.917 10.824" fill="#2ca05a"/><path d="M145.71 471.848l57.657-127.856 106.16 103.468 110.97-93.288 128.74 5.824-1.885 76.65 62.852 79.375 90.3-90.09-23.344 129.02-68.38 75.33-54.473 94.32-97.962-20.52-31.778-74.37 1.237-113.95-142.513 35.06-139.69-77.78 163.5-21.14 240.26-15.244 61.426 193.62L426.11 514.18l121.245-77.53-91.616 269.376 153.04-75.756-184.22-.57-69.678-90.337L311.09 450" fill="none" stroke="#fff" stroke-width="5.776" stroke-linecap="round" stroke-linejoin="round" stroke-miterlimit="1"/><path d="M0 0l33.16 16.19 23.927-2.92" fill="none" stroke="#fff" stroke-linecap="round" stroke-linejoin="round" stroke-miterlimit="1" transform="matrix(5.2 2.7 2.7 -5 205.7 346.7)"/><path d="M201.51 355.786c-4.238-2.22-5.917-7.292-3.744-11.318 2.17-4.022 7.382-5.495 11.622-3.276 4.24 2.22 5.916 7.297 3.746 11.318-2.173 4.027-7.383 5.495-11.623 3.276" fill="#0069a3" fill-rule="evenodd"/><path d="M212.07 336.222c-7.135-3.734-15.883-1.268-19.54 5.507-3.657 6.77-.838 15.29 6.297 19.02 7.134 3.73 15.882 1.27 19.54-5.51 3.656-6.778.837-15.298-6.298-19.03m-5.37 9.94c1.35.706 1.88 2.326 1.19 3.61-.7 1.28-2.36 1.75-3.71 1.043s-1.888-2.326-1.196-3.608c.692-1.284 2.355-1.75 3.706-1.045" fill="#fff"/><path d="M305.932 460.27c-4.24-2.22-5.92-7.292-3.746-11.318 2.17-4.022 7.383-5.495 11.623-3.276 4.23 2.22 5.91 7.297 3.74 11.32-2.18 4.025-7.38 5.493-11.62 3.274" fill="#0069a3" fill-rule="evenodd"/><path d="M316.49 440.706c-7.135-3.733-15.883-1.268-19.54 5.507-3.656 6.775-.837 15.295 6.297 19.03 7.134 3.733 15.883 1.267 19.54-5.508 3.656-6.775.837-15.295-6.297-19.03m-5.366 9.943c1.35.707 1.886 2.326 1.194 3.608-.692 1.283-2.355 1.75-3.705 1.044s-1.886-2.326-1.194-3.608c.69-1.282 2.35-1.75 3.7-1.044" fill="#fff"/><path d="M138.332 479.494c-4.117-2.154-5.75-7.088-3.64-10.997 2.11-3.907 7.178-5.335 11.296-3.18 4.118 2.154 5.75 7.087 3.64 10.994-2.11 3.91-7.178 5.34-11.296 3.19" fill="#0069a3" fill-rule="evenodd"/><path d="M146.96 463.515c-5.172-2.706-11.515-.92-14.166 3.99-2.65 4.91-.606 11.084 4.566 13.79 5.173 2.707 11.516.92 14.166-3.99 2.652-4.91.608-11.084-4.565-13.79m-1.94 3.602c3.07 1.608 4.29 5.287 2.72 8.204-1.57 2.92-5.35 3.98-8.42 2.38-3.072-1.6-4.29-5.28-2.716-8.2 1.575-2.91 5.355-3.98 8.427-2.37" fill="#fff"/><path d="M277.5 561.502c-4.24-2.22-5.918-7.292-3.745-11.32 2.17-4.02 7.383-5.493 11.622-3.274 4.235 2.216 5.916 7.297 3.746 11.318-2.173 4.027-7.388 5.492-11.623 3.276" fill="#0069a3" fill-rule="evenodd"/><path d="M288.06 541.94c-7.135-3.735-15.884-1.27-19.54 5.506-3.657 6.775-.838 15.295 6.297 19.03 7.134 3.732 15.882 1.267 19.54-5.508 3.656-6.775.836-15.295-6.298-19.03m-5.37 9.943c1.35.71 1.88 2.33 1.19 3.61-.69 1.28-2.36 1.75-3.71 1.05s-1.888-2.32-1.196-3.61 2.355-1.75 3.705-1.04" fill="#fff"/><path d="M412.267 364.677c-4.85-2.622-6.772-8.626-4.286-13.384 2.49-4.755 8.46-6.494 13.31-3.872 4.85 2.63 6.78 8.63 4.29 13.39-2.48 4.76-8.45 6.5-13.3 3.88" fill="#0069a3" fill-rule="evenodd"/><path d="M422.43 345.228c-6.093-3.294-13.564-1.12-16.687 4.858-3.122 5.974-.714 13.49 5.38 16.783 6.09 3.29 13.563 1.11 16.684-4.86 3.123-5.98.716-13.49-5.377-16.79m-2.29 4.38c3.617 1.955 5.052 6.434 3.197 9.983-1.853 3.55-6.306 4.844-9.924 2.887-3.62-1.955-5.054-6.433-3.2-9.98 1.855-3.55 6.307-4.845 9.926-2.89" fill="#fff"/><path d="M542.116 734.068c-9.793-5.202-13.678-17.117-8.658-26.556 5.02-9.44 17.072-12.883 26.866-7.68 9.794 5.2 13.676 17.11 8.657 26.548-5.02 9.44-17.07 12.89-26.86 7.688" fill="#0069a3" fill-rule="evenodd"/><path d="M561.638 692.48c-12.303-6.535-27.39-2.22-33.695 9.638-6.304 11.853-1.442 26.763 10.86 33.298 12.304 6.535 27.385 2.217 33.69-9.636 6.305-11.857 1.448-26.766-10.855-33.3m-4.627 8.7c7.31 3.88 10.2 12.764 6.46 19.806-3.74 7.038-12.73 9.612-20.03 5.73-7.302-3.88-10.2-12.766-6.46-19.804 3.75-7.042 12.74-9.614 20.04-5.733" fill="#fff"/><path d="M591.574 650.904c-11.36-5.944-15.86-19.558-10.037-30.344 5.82-10.782 19.795-14.725 31.153-8.78 11.36 5.944 15.864 19.56 10.045 30.342-5.822 10.786-19.803 14.727-31.16 8.782" fill="#0069a3" fill-rule="evenodd"/><path d="M615.374 606.81c-14.27-7.468-31.766-2.537-39.08 11.013-7.31 13.545-1.67 30.585 12.597 38.052 14.27 7.468 31.76 2.534 39.08-11.01 7.32-13.552 1.68-30.588-12.59-38.056m-5.36 9.94c8.475 4.43 11.83 14.58 7.487 22.63-4.34 8.04-14.764 10.98-23.24 6.55-8.472-4.44-11.832-14.59-7.492-22.64 4.345-8.05 14.77-10.988 23.246-6.55" fill="#fff"/><path d="M452.186 708.407c-4.24-2.22-5.92-7.293-3.746-11.32 2.17-4.02 7.383-5.493 11.623-3.274 4.24 2.218 5.915 7.297 3.745 11.318-2.173 4.03-7.383 5.5-11.622 3.28" fill="#0069a3" fill-rule="evenodd"/><path d="M462.744 688.846c-7.134-3.734-15.883-1.27-19.54 5.506-3.656 6.775-.837 15.295 6.297 19.03 7.14 3.733 15.89 1.267 19.54-5.508 3.66-6.775.84-15.295-6.29-19.028m-5.36 9.94c1.35.708 1.89 2.327 1.196 3.61-.692 1.282-2.354 1.75-3.705 1.044-1.35-.707-1.886-2.326-1.194-3.61.69-1.28 2.355-1.75 3.705-1.043" fill="#fff"/><path d="M662.73 578.02c-8.553-4.378-11.943-14.397-7.56-22.34 4.384-7.94 14.906-10.84 23.46-6.463 8.552 4.377 11.942 14.396 7.56 22.337-4.385 7.942-14.907 10.84-23.46 6.465" fill="#0069a3" fill-rule="evenodd"/><path d="M681.312 544.354c-11.458-5.863-25.503-1.993-31.376 8.646-5.873 10.64-1.346 24.013 10.11 29.876 11.46 5.864 25.504 1.993 31.377-8.646 5.873-10.64 1.346-24.013-10.11-29.876m-5.367 9.72c5.663 2.9 7.91 9.54 5.008 14.8-2.905 5.263-9.877 7.18-15.54 4.282-5.664-2.898-7.915-9.535-5.01-14.8 2.904-5.257 9.88-7.18 15.542-4.28" fill="#fff"/><path d="M418.78 638.804c-4.24-2.22-5.92-7.292-3.745-11.32 2.17-4.02 7.382-5.493 11.622-3.274 4.24 2.22 5.916 7.297 3.745 11.318-2.173 4.026-7.382 5.495-11.622 3.276" fill="#0069a3" fill-rule="evenodd"/><path d="M429.337 619.24c-7.134-3.733-15.882-1.267-19.54 5.508-3.656 6.775-.837 15.295 6.298 19.028 7.134 3.734 15.882 1.27 19.54-5.506 3.656-6.776.837-15.295-6.298-19.03m-5.365 9.942c1.35.707 1.886 2.326 1.194 3.61-.693 1.28-2.355 1.75-3.706 1.043-1.35-.707-1.886-2.326-1.194-3.608.693-1.283 2.355-1.75 3.706-1.045" fill="#fff"/><path d="M422.568 526.944c-5.282-2.764-7.382-9.097-4.672-14.117 2.707-5.016 9.215-6.85 14.496-4.086 5.287 2.77 7.38 9.11 4.672 14.12-2.71 5.02-9.21 6.86-14.496 4.09" fill="#0069a3" fill-rule="evenodd"/><path d="M435.075 503.773c-8.18-4.282-18.22-1.453-22.413 6.317-4.193 7.77-.958 17.545 7.223 21.827 8.18 4.282 18.22 1.452 22.413-6.317 4.193-7.77.958-17.546-7.223-21.827m-5.366 9.94c2.39 1.256 3.34 4.132 2.12 6.408-1.23 2.28-4.19 3.11-6.58 1.86-2.4-1.25-3.35-4.13-2.12-6.41 1.23-2.27 4.18-3.11 6.58-1.85" fill="#fff"/><path d="M348.538 546.698c-6.352-3.282-8.87-10.796-5.615-16.752 3.256-5.956 11.07-8.13 17.422-4.848 6.352 3.282 8.87 10.796 5.614 16.752-3.26 5.956-11.07 8.13-17.43 4.848" fill="#0069a3" fill-rule="evenodd"/><path d="M362.34 521.452c-8.51-4.397-18.94-1.494-23.303 6.485-4.36 7.98-1 18.008 7.51 22.406 8.51 4.397 18.94 1.494 23.3-6.485 4.362-7.98 1-18.008-7.508-22.406m-3.99 7.29c4.2 2.174 5.87 7.155 3.72 11.1-2.16 3.946-7.34 5.384-11.55 3.21-4.21-2.175-5.88-7.15-3.72-11.098 2.154-3.944 7.33-5.387 11.54-3.212" fill="#fff"/><path d="M604.416 520.35c-4.24-2.22-5.918-7.293-3.745-11.32 2.17-4.02 7.39-5.494 11.63-3.275 4.24 2.22 5.92 7.297 3.75 11.32-2.17 4.025-7.38 5.493-11.62 3.274" fill="#0069a3" fill-rule="evenodd"/><path d="M614.974 500.787c-7.134-3.733-15.882-1.268-19.54 5.507-3.656 6.775-.836 15.295 6.298 19.03 7.134 3.733 15.883 1.267 19.54-5.508 3.656-6.775.837-15.295-6.298-19.03m-5.365 9.943c1.35.7 1.88 2.32 1.19 3.6-.69 1.28-2.36 1.75-3.71 1.04s-1.89-2.33-1.2-3.61c.692-1.284 2.354-1.75 3.705-1.046" fill="#fff"/><path d="M542.51 447.21c-5.707-3.026-7.967-9.958-5.043-15.45 2.924-5.493 9.943-7.498 15.65-4.47 5.704 3.026 7.968 9.956 5.044 15.45-2.92 5.49-9.94 7.498-15.65 4.47" fill="#0069a3" fill-rule="evenodd"/><path d="M554.463 424.758c-7.167-3.803-15.955-1.292-19.63 5.608-3.67 6.897-.84 15.574 6.328 19.376 7.17 3.802 15.96 1.292 19.63-5.606 3.68-6.9.84-15.576-6.32-19.378m-2.69 5.062c4.26 2.258 5.946 7.43 3.765 11.527-2.18 4.095-7.417 5.59-11.674 3.333-4.256-2.258-5.944-7.43-3.764-11.524 2.18-4.098 7.42-5.594 11.677-3.336" fill="#fff"/><path d="M695.082 434.033c-4.24-2.22-5.92-7.293-3.746-11.32 2.17-4.02 7.383-5.493 11.623-3.274 4.23 2.21 5.91 7.29 3.74 11.31-2.18 4.02-7.39 5.49-11.62 3.27" fill="#0069a3" fill-rule="evenodd"/><path d="M705.64 414.47c-7.134-3.733-15.883-1.267-19.54 5.508-3.656 6.775-.837 15.294 6.297 19.028 7.135 3.734 15.883 1.268 19.54-5.507 3.656-6.78.837-15.3-6.297-19.03m-5.366 9.94c1.35.7 1.886 2.32 1.194 3.61-.692 1.28-2.355 1.75-3.705 1.04s-1.886-2.33-1.194-3.61c.69-1.29 2.35-1.75 3.7-1.05" fill="#fff"/><path d="M548.45 371.103c-4.24-2.22-5.917-7.292-3.744-11.32 2.17-4.02 7.382-5.493 11.622-3.274 4.24 2.21 5.916 7.29 3.745 11.31-2.173 4.02-7.382 5.49-11.622 3.27" fill="#0069a3" fill-rule="evenodd"/><path d="M559.01 351.54c-7.135-3.734-15.883-1.268-19.54 5.507-3.657 6.775-.838 15.294 6.297 19.028 7.134 3.734 15.882 1.268 19.54-5.507 3.656-6.775.837-15.294-6.298-19.028m-5.37 9.94c1.35.708 1.88 2.327 1.19 3.61-.7 1.282-2.36 1.75-3.71 1.044-1.35-.707-1.888-2.326-1.196-3.608.693-1.283 2.355-1.752 3.706-1.045m33.823 366.5l-7.48 8.06-8.45-6.91 7.48-8.053zm16.9 13.83l-7.48 8.055-8.45-6.91 7.48-8.06zm16.896 13.82l-7.478 8.057-8.45-6.91 7.48-8.057zm20.17-104.772l-6.094 9.327-8.714-7.16 6.094-9.327zm17.426 14.32l-6.095 9.328-8.712-7.16 6.092-9.327zm11.01 23.38l.373.188 6.043-9.25-8.714-7.16-6.096 9.33zm-431.01 1.06l9.677 6.296-6.993 9.837-9.677-6.295zm13.987-19.673l9.68 6.295-6.995 9.833-9.678-6.295zm23.407-13.016l.18-.417-9.596-6.24-6.993 9.84 9.68 6.293zm4.87-25.636l9.918 5.797c-8.39 11.85-4.9 10.735-16.816 3.77zm13.805-19.126l9.92 5.795-6.9 9.564-9.92-5.796zm13.806-19.127l9.915 5.8-6.904 9.564-9.91-5.797zm13.8-19.122l9.92 5.797-6.9 9.564-9.918-5.8zM346 560.93l.173-.403-9.832-5.747-6.9 9.563 9.92 5.8zm216.234-152.77l9.917 5.795c-8.39 11.847-4.9 10.733-16.81 3.767zm13.804-19.128l9.916 5.797-6.902 9.56-9.916-5.8zm13.804-19.126l9.916 5.797-6.902 9.563-9.916-5.797zm13.803-19.126l9.917 5.796-6.902 9.562-9.916-5.795zm23.464-12.977l.17-.402-9.83-5.74-6.91 9.57 9.91 5.796zm70.24 193.847l10.29 5.105c-7.56 12.394-4.16 11.042-16.52 4.91zm12.46-20.026l10.29 5.103-6.23 10.014-10.29-5.1zm12.46-20.027l10.29 5.103-6.23 10.014-10.29-5.104zm12.46-20.028l10.29 5.1-6.23 10.01-10.29-5.1zm22.52-14.56l.14-.42-10.21-5.06-6.23 10.01 10.29 5.104z" fill="#fff"/><rect transform="matrix(1 0 0 .9 -6.4 -50.3)" rx="1.978" y="782.247" x="98.995" height="97.581" width="172.534" opacity=".798" fill="gray" fill-rule="evenodd" filter="url(#a)"/><g clip-path="url(#b)" transform="matrix(.6 0 0 -.6 61.6 1136.9)" fill="#fca"><path d="M62.303 732.634c-2.77 0-5.317-.94-7.374-2.483-1.55-2.05-2.48-4.61-2.48-7.38V608.32c0-6.796 5.51-12.684 12.3-12.684 84.784-5.76 245.43 3.126 252.277 0 2.77 0 5.104 1.116 7.16 2.66.84 1.116 1.43 2.432 1.8 3.845v121.63c-1.395 5.12-5.828 8.87-11.42 8.87z"/></g><text style="text-align:start;line-height:125%;-inkscape-font-specification:Roboto" x="145.615" y="881.477" transform="translate(-14.3 -162.1)" font-size="19.626" letter-spacing="0" word-spacing="0" fill="#535d6c" font-family="Roboto"><tspan x="145.615" y="881.477" style="text-align:start;line-height:125%;-inkscape-font-specification:Roboto Medium" font-size="32" font-weight="500">Griffith</tspan></text><rect transform="matrix(1 0 0 .9 515.5 -463.9)" rx="1.978" y="782.247" x="98.995" height="97.581" width="172.534" opacity=".798" fill="gray" fill-rule="evenodd" filter="url(#c)"/><g clip-path="url(#d)" transform="matrix(.6 0 0 -.6 583.8 722.1)" fill="#fca"><path d="M62.303 732.634c-2.77 0-5.317-.94-7.374-2.483-1.55-2.05-2.48-4.61-2.48-7.38V608.32c0-6.796 5.51-12.684 12.3-12.684 84.784-5.76 245.43 3.126 252.277 0 2.77 0 5.104 1.116 7.16 2.66.84 1.116 1.43 2.432 1.8 3.845v121.63c-1.395 5.12-5.828 8.87-11.42 8.87z"/></g><text style="text-align:start;line-height:125%;-inkscape-font-specification:Roboto" x="655.179" y="309.439" font-size="19.626" letter-spacing="0" word-spacing="0" fill="#535d6c" font-family="Roboto"><tspan x="655.179" y="309.439" style="text-align:start;line-height:125%;-inkscape-font-specification:Roboto Medium" font-size="32" font-weight="500">Dubbo</tspan></text><g transform="translate(.1 -4.7)"><rect width="172.534" height="97.581" x="98.995" y="782.247" rx="1.978" transform="matrix(1 0 0 .9 651.1 -344)" opacity=".798" fill="gray" fill-rule="evenodd" filter="url(#e)"/><g transform="matrix(.6 0 0 -.6 717.9 844.5)" clip-path="url(#f)" fill="#fca"><path d="M62.303 732.634c-2.77 0-5.317-.94-7.374-2.483-1.55-2.05-2.48-4.61-2.48-7.38V608.32c0-6.796 5.51-12.684 12.3-12.684 84.784-5.76 245.43 3.126 252.277 0 2.77 0 5.104 1.116 7.16 2.66.84 1.116 1.43 2.432 1.8 3.845v121.63c-1.395 5.12-5.828 8.87-11.42 8.87z"/></g><text y="427.759" x="761.134" style="text-align:start;line-height:125%;-inkscape-font-specification:Roboto Light" font-size="22" font-weight="300" letter-spacing="0" word-spacing="0" fill="#535d6c" font-family="Roboto"><tspan style="text-align:start;line-height:125%;-inkscape-font-specification:Roboto Medium" y="427.759" x="761.134" font-size="32" font-weight="500">Newcastle</tspan></text></g><g transform="translate(-91.1 37)"><rect transform="matrix(1 0 0 .9 662.5 -120.6)" rx="1.978" y="782.247" x="98.995" height="97.581" width="172.534" opacity=".798" fill="gray" fill-rule="evenodd" filter="url(#g)"/><g clip-path="url(#h)" transform="matrix(.6 0 0 -.6 730.6 1067.6)" fill="#fca"><path d="M62.303 732.634c-2.77 0-5.317-.94-7.374-2.483-1.55-2.05-2.48-4.61-2.48-7.38V608.32c0-6.796 5.51-12.684 12.3-12.684 84.784-5.76 245.43 3.126 252.277 0 2.77 0 5.104 1.116 7.16 2.66.84 1.116 1.43 2.432 1.8 3.845v121.63c-1.395 5.12-5.828 8.87-11.42 8.87z"/></g><text transform="rotate(3.7 -14897.7 31149.8)" y="583.77" x="830.22" style="text-align:start;line-height:125%;-inkscape-font-specification:Roboto" font-size="19.626" letter-spacing="0" word-spacing="0" fill="#535d6c" font-family="Roboto"><tspan style="text-align:start;line-height:125%;-inkscape-font-specification:Roboto Medium" y="583.77" x="830.22" font-size="32" font-weight="500">Sydney</tspan></text></g><g transform="translate(-93.3 -41.4)"><rect width="172.534" height="97.581" x="98.995" y="782.247" rx="1.978" transform="matrix(1 0 0 .9 603.8 74.6)" opacity=".798" fill="gray" fill-rule="evenodd" filter="url(#i)"/><g clip-path="url(#j)" transform="matrix(.6 0 0 -.6 672.7 1260.1)" fill="#fca"><path d="M62.303 732.634c-2.77 0-5.317-.94-7.374-2.483-1.55-2.05-2.48-4.61-2.48-7.38V608.32c0-6.796 5.51-12.684 12.3-12.684 84.784-5.76 245.43 3.126 252.277 0 2.77 0 5.104 1.116 7.16 2.66.84 1.116 1.43 2.432 1.8 3.845v121.63c-1.395 5.12-5.828 8.87-11.42 8.87z"/></g><text transform="translate(-33.9 12.7)" y="828.718" x="763.707" style="text-align:start;line-height:125%;-inkscape-font-specification:Roboto" font-size="19.626" letter-spacing="0" word-spacing="0" fill="#535d6c" font-family="Roboto"><tspan style="text-align:start;line-height:125%;-inkscape-font-specification:Roboto Medium" y="828.718" x="763.707" font-size="32" font-weight="500">Canberra</tspan></text></g></g></svg>