<svg xmlns="http://www.w3.org/2000/svg" width="1000" height="1000">
  <defs>
    <clipPath id="b">
      <path d="M62.303 732.634c-2.77 0-5.317-.94-7.374-2.483-1.55-2.05-2.48-4.61-2.48-7.38V608.32c0-6.796 5.51-12.684 12.3-12.684h206.9l9.3-26.577 8.44 24.57.6 2h27.02c2.77 0 5.11 1.11 7.16 2.66.83 1.11 1.43 2.43 1.8 3.84v121.63c-1.4 5.11-5.83 8.86-11.42 8.86H62.3z"/>
    </clipPath>
    <clipPath id="d">
      <path d="M62.303 732.634c-2.77 0-5.317-.94-7.374-2.483-1.55-2.05-2.48-4.61-2.48-7.38V608.32c0-6.796 5.51-12.684 12.3-12.684h206.9l9.3-26.577 8.44 24.57.6 2h27.02c2.77 0 5.11 1.11 7.16 2.66.83 1.11 1.43 2.43 1.8 3.84v121.63c-1.4 5.11-5.83 8.86-11.42 8.86H62.3z"/>
    </clipPath>
    <clipPath id="j">
      <path d="M62.303 732.634c-2.77 0-5.317-.94-7.374-2.483-1.55-2.05-2.48-4.61-2.48-7.38V608.32c0-6.796 5.51-12.684 12.3-12.684h206.9l9.3-26.577 8.44 24.57.6 2h27.02c2.77 0 5.11 1.11 7.16 2.66.83 1.11 1.43 2.43 1.8 3.84v121.63c-1.4 5.11-5.83 8.86-11.42 8.86H62.3z"/>
    </clipPath>
    <clipPath id="f">
      <path d="M62.303 732.634c-2.77 0-5.317-.94-7.374-2.483-1.55-2.05-2.48-4.61-2.48-7.38V608.32c0-6.796 5.51-12.684 12.3-12.684h206.9l9.3-26.577 8.44 24.57.6 2h27.02c2.77 0 5.11 1.11 7.16 2.66.83 1.11 1.43 2.43 1.8 3.84v121.63c-1.4 5.11-5.83 8.86-11.42 8.86H62.3z"/>
    </clipPath>
    <clipPath id="h">
      <path d="M62.303 732.634c-2.77 0-5.317-.94-7.374-2.483-1.55-2.05-2.48-4.61-2.48-7.38V608.32c0-6.796 5.51-12.684 12.3-12.684h206.9l9.3-26.577 8.44 24.57.6 2h27.02c2.77 0 5.11 1.11 7.16 2.66.83 1.11 1.43 2.43 1.8 3.84v121.63c-1.4 5.11-5.83 8.86-11.42 8.86H62.3z"/>
    </clipPath>
    <filter id="a" width="1.1878689" height="1.3321739" x="-0.093934425" y="-0.16608696">
      <feGaussianBlur stdDeviation="6.7528698"/>
    </filter>
    <filter id="c" width="1.187869" height="1.3321739" x="-0.093934424" y="-0.16608696" color-interpolation-filters="sRGB">
      <feGaussianBlur stdDeviation="6.7528698"/>
    </filter>
    <filter id="e" width="1.187869" height="1.3321739" x="-0.093934424" y="-0.16608696" color-interpolation-filters="sRGB">
      <feGaussianBlur stdDeviation="6.7528698"/>
    </filter>
    <filter id="g" width="1.187869" height="1.3321739" x="-0.093934424" y="-0.16608696" color-interpolation-filters="sRGB">
      <feGaussianBlur stdDeviation="6.7528698"/>
    </filter>
    <filter id="i" width="1.187869" height="1.3321739" x="-0.093934424" y="-0.16608696" color-interpolation-filters="sRGB">
      <feGaussianBlur stdDeviation="6.7528698"/>
    </filter>
  </defs>
  <g transform="translate(0 -52.362)">
    <path fill="#2ca05a" d="M554.355 792.663c-27.425-16.78-54.84-25.976-79.645-45.467-9.79-7.575-1.95-28.677-11.74-29.764-45.05-4.325-91.386-8.653-137.088-12.44-7.824-.547-24.152 2.163-28.068-.547-20.236-15.147-43.082-25.977-61.35-41.67-9.79-8.662-16.98-22.735-16.98-36.805-18.278.543-43.083 5.417-48.295-12.987-5.88-23.27-29.38-26.52-54.18-28.687l17.61-263.556 430.18 28.142c10.43-10.29 28.72-12.996 41.12-13.537 74.4-3.247 74.4 47.09 95.95 43.303 16.33 4.865 40.46-29.766 62-34.095 22.19-4.337 45.05 15.69 65.27-1.624.65 7.56 2.62 15.14 4.57 22.72-7.83 1.62-8.49 10.83-12.4 14.61-13.05 15.15-11.1 39.5-21.53 55.2-4.59 7.03-9.16 19.48-11.76 24.9-16.33 33.01-35.91 71.44-75.06 95.79-5.89 3.78-7.2 14.06-12.42 18.39-11.08 8.12-24.15 16.23-35.24 25.43-2.62 2.16-11.1-.54-13.07 1.63-3.92 4.32 8.48 9.74 3.27 15.69-4.57 5.41-14.36 5.95-18.29 9.74-4.57 4.33.65 14.07-2.61 19.48-1.97 3.78-11.11 4.33-13.71 9.19-5.23 9.2-7.19 20.57-13.06 28.14-24.15 31.92-54.18 60.07-49.61 97.95 0 3.78-1.31 7.57-3.92 10.82"/>
    <path fill="none" stroke="#fff" stroke-width="5.7764492" stroke-miterlimit="1" d="M145.71 471.848l57.657-127.856 106.16 103.468 110.97-93.288 128.74 5.824-1.885 76.65 62.852 79.375 90.3-90.09-23.344 129.02-68.38 75.33-54.473 94.32-97.962-20.52-31.778-74.37 1.237-113.95-142.513 35.06-139.69-77.78 163.5-21.14 240.26-15.24 61.43 193.62-182.68-116.1 121.25-77.53-91.62 269.38 153.04-75.75-184.22-.57-69.68-90.33L311.09 450" stroke-linecap="round" stroke-linejoin="round"/>
    <path fill="none" stroke="#fff" stroke-miterlimit="1" d="M0 0l33.16 16.19 23.927-2.92" stroke-linecap="round" stroke-linejoin="round" transform="matrix(5.234 2.739 2.683 -4.971 205.667 346.679)"/>
    <path fill="#0069a3" fill-rule="evenodd" d="M201.51 355.786c-4.238-2.22-5.917-7.292-3.744-11.318 2.17-4.022 7.382-5.495 11.622-3.276 4.24 2.22 5.916 7.297 3.746 11.318-2.173 4.027-7.383 5.495-11.623 3.276"/>
    <path fill="#fff" d="M212.07 336.222c-7.135-3.734-15.883-1.268-19.54 5.507-3.657 6.77-.838 15.29 6.297 19.02 7.134 3.73 15.882 1.27 19.54-5.51 3.656-6.78.837-15.3-6.298-19.03m-5.37 9.94c1.35.7 1.88 2.32 1.19 3.61-.7 1.28-2.36 1.75-3.71 1.04s-1.89-2.33-1.2-3.61c.69-1.29 2.35-1.75 3.7-1.05"/>
    <path fill="#0069a3" fill-rule="evenodd" d="M305.932 460.27c-4.24-2.22-5.92-7.292-3.746-11.318 2.17-4.022 7.383-5.495 11.623-3.276 4.23 2.22 5.91 7.297 3.74 11.32-2.18 4.025-7.38 5.493-11.62 3.274"/>
    <path fill="#fff" d="M316.49 440.706c-7.135-3.733-15.883-1.268-19.54 5.507-3.656 6.775-.837 15.295 6.297 19.03 7.134 3.733 15.883 1.267 19.54-5.508 3.656-6.775.837-15.295-6.297-19.03m-5.366 9.943c1.35.707 1.886 2.326 1.194 3.608-.692 1.283-2.355 1.75-3.705 1.044s-1.886-2.326-1.194-3.608c.69-1.282 2.35-1.75 3.7-1.044"/>
    <path fill="#0069a3" fill-rule="evenodd" d="M138.332 479.494c-4.117-2.154-5.75-7.088-3.64-10.997 2.11-3.907 7.178-5.335 11.296-3.18 4.118 2.154 5.75 7.087 3.64 10.994-2.11 3.91-7.178 5.34-11.296 3.19"/>
    <path fill="#fff" d="M146.96 463.515c-5.172-2.706-11.515-.92-14.166 3.99-2.65 4.91-.606 11.084 4.566 13.79 5.173 2.707 11.516.92 14.166-3.99 2.652-4.91.608-11.084-4.565-13.79m-1.94 3.602c3.07 1.608 4.29 5.287 2.72 8.204-1.57 2.92-5.35 3.98-8.42 2.38-3.07-1.6-4.29-5.28-2.71-8.2 1.58-2.91 5.36-3.98 8.43-2.37"/>
    <path fill="#0069a3" fill-rule="evenodd" d="M277.5 561.502c-4.24-2.22-5.918-7.292-3.745-11.32 2.17-4.02 7.383-5.493 11.622-3.274 4.235 2.216 5.916 7.297 3.746 11.318-2.173 4.027-7.388 5.492-11.623 3.276"/>
    <path fill="#fff" d="M288.06 541.94c-7.135-3.735-15.884-1.27-19.54 5.506-3.657 6.775-.838 15.295 6.297 19.03 7.134 3.732 15.882 1.267 19.54-5.508 3.656-6.775.836-15.295-6.298-19.03m-5.37 9.943c1.35.71 1.88 2.33 1.19 3.61-.69 1.28-2.36 1.75-3.71 1.05s-1.89-2.32-1.2-3.61 2.35-1.75 3.7-1.04"/>
    <path fill="#0069a3" fill-rule="evenodd" d="M412.267 364.677c-4.85-2.622-6.772-8.626-4.286-13.384 2.49-4.755 8.46-6.494 13.31-3.872 4.85 2.63 6.78 8.63 4.29 13.39-2.48 4.76-8.45 6.5-13.3 3.88"/>
    <path fill="#fff" d="M422.43 345.228c-6.093-3.294-13.564-1.12-16.687 4.858-3.122 5.974-.714 13.49 5.38 16.783 6.09 3.29 13.563 1.11 16.684-4.86 3.123-5.98.716-13.49-5.377-16.79m-2.29 4.38c3.617 1.95 5.052 6.43 3.197 9.98-1.853 3.55-6.306 4.84-9.924 2.88-3.62-1.96-5.054-6.44-3.2-9.98 1.855-3.55 6.307-4.85 9.926-2.89"/>
    <path fill="#0069a3" fill-rule="evenodd" d="M542.116 734.068c-9.793-5.202-13.678-17.117-8.658-26.556 5.02-9.44 17.072-12.883 26.866-7.68 9.794 5.2 13.676 17.11 8.657 26.548-5.02 9.44-17.07 12.89-26.86 7.688"/>
    <path fill="#fff" d="M561.638 692.48c-12.303-6.535-27.39-2.22-33.695 9.638-6.304 11.853-1.442 26.763 10.86 33.298 12.304 6.535 27.385 2.217 33.69-9.636 6.305-11.857 1.448-26.766-10.855-33.3m-4.627 8.7c7.31 3.88 10.2 12.764 6.46 19.806-3.74 7.038-12.73 9.612-20.03 5.73-7.3-3.88-10.2-12.766-6.46-19.804 3.75-7.042 12.74-9.614 20.04-5.733"/>
    <path fill="#0069a3" fill-rule="evenodd" d="M591.574 650.904c-11.36-5.944-15.86-19.558-10.037-30.344 5.82-10.782 19.795-14.725 31.153-8.78 11.36 5.944 15.864 19.56 10.045 30.342-5.822 10.786-19.803 14.727-31.16 8.782"/>
    <path fill="#fff" d="M615.374 606.81c-14.27-7.468-31.766-2.537-39.08 11.013-7.31 13.545-1.67 30.585 12.597 38.052 14.27 7.468 31.76 2.534 39.08-11.01 7.32-13.552 1.68-30.588-12.59-38.056m-5.36 9.94c8.48 4.43 11.83 14.58 7.49 22.63-4.34 8.04-14.76 10.98-23.24 6.55-8.47-4.44-11.83-14.59-7.49-22.64 4.35-8.05 14.77-10.99 23.25-6.55"/>
    <path fill="#0069a3" fill-rule="evenodd" d="M452.186 708.407c-4.24-2.22-5.92-7.293-3.746-11.32 2.17-4.02 7.383-5.493 11.623-3.274 4.24 2.218 5.915 7.297 3.745 11.318-2.173 4.03-7.383 5.5-11.622 3.28"/>
    <path fill="#fff" d="M462.744 688.846c-7.134-3.734-15.883-1.27-19.54 5.506-3.656 6.775-.837 15.295 6.297 19.03 7.14 3.733 15.89 1.267 19.54-5.508 3.66-6.775.84-15.295-6.29-19.028m-5.36 9.94c1.35.708 1.89 2.327 1.2 3.61-.69 1.282-2.35 1.75-3.7 1.044-1.35-.707-1.88-2.326-1.19-3.61.69-1.28 2.36-1.75 3.71-1.043"/>
    <path fill="#0069a3" fill-rule="evenodd" d="M662.73 578.02c-8.553-4.378-11.943-14.397-7.56-22.34 4.384-7.94 14.906-10.84 23.46-6.463 8.552 4.377 11.942 14.396 7.56 22.337-4.385 7.942-14.907 10.84-23.46 6.465"/>
    <path fill="#fff" d="M681.312 544.354c-11.458-5.863-25.503-1.993-31.376 8.646-5.873 10.64-1.346 24.013 10.11 29.876 11.46 5.864 25.504 1.993 31.377-8.646 5.873-10.64 1.346-24.013-10.11-29.876m-5.367 9.72c5.663 2.9 7.91 9.54 5.008 14.8-2.905 5.263-9.877 7.18-15.54 4.282-5.664-2.898-7.915-9.535-5.01-14.8 2.904-5.257 9.88-7.18 15.542-4.28"/>
    <path fill="#0069a3" fill-rule="evenodd" d="M418.78 638.804c-4.24-2.22-5.92-7.292-3.745-11.32 2.17-4.02 7.382-5.493 11.622-3.274 4.24 2.22 5.916 7.297 3.745 11.318-2.173 4.026-7.382 5.495-11.622 3.276"/>
    <path fill="#fff" d="M429.337 619.24c-7.134-3.733-15.882-1.267-19.54 5.508-3.656 6.775-.837 15.295 6.298 19.028 7.134 3.734 15.882 1.27 19.54-5.506 3.656-6.776.837-15.295-6.298-19.03m-5.365 9.942c1.35.707 1.886 2.326 1.194 3.61-.693 1.28-2.355 1.75-3.706 1.043-1.35-.707-1.886-2.326-1.194-3.608.693-1.283 2.355-1.75 3.706-1.045"/>
    <path fill="#0069a3" fill-rule="evenodd" d="M422.568 526.944c-5.282-2.764-7.382-9.097-4.672-14.117 2.707-5.016 9.215-6.85 14.496-4.086 5.287 2.77 7.38 9.11 4.672 14.12-2.71 5.02-9.21 6.86-14.496 4.09"/>
    <path fill="#fff" d="M435.075 503.773c-8.18-4.282-18.22-1.453-22.413 6.317-4.193 7.77-.958 17.545 7.223 21.827 8.18 4.282 18.22 1.452 22.413-6.317 4.193-7.77.958-17.546-7.223-21.827m-5.366 9.94c2.39 1.256 3.34 4.132 2.12 6.408-1.23 2.28-4.19 3.11-6.58 1.86-2.4-1.25-3.35-4.13-2.12-6.41 1.23-2.27 4.18-3.11 6.58-1.85"/>
    <path fill="#0069a3" fill-rule="evenodd" d="M348.538 546.698c-6.352-3.282-8.87-10.796-5.615-16.752 3.256-5.956 11.07-8.13 17.422-4.848 6.352 3.282 8.87 10.796 5.614 16.752-3.26 5.956-11.07 8.13-17.43 4.848"/>
    <path fill="#fff" d="M362.34 521.452c-8.51-4.397-18.94-1.494-23.303 6.485-4.36 7.98-1 18.008 7.51 22.406 8.51 4.397 18.94 1.494 23.3-6.485 4.362-7.98 1-18.008-7.508-22.406m-3.99 7.29c4.2 2.174 5.87 7.155 3.72 11.1-2.16 3.946-7.34 5.384-11.55 3.21-4.21-2.175-5.88-7.15-3.72-11.098 2.15-3.944 7.33-5.387 11.54-3.212"/>
    <path fill="#0069a3" fill-rule="evenodd" d="M604.416 520.35c-4.24-2.22-5.918-7.293-3.745-11.32 2.17-4.02 7.39-5.494 11.63-3.275 4.24 2.22 5.92 7.297 3.75 11.32-2.17 4.025-7.38 5.493-11.62 3.274"/>
    <path fill="#fff" d="M614.974 500.787c-7.134-3.733-15.882-1.268-19.54 5.507-3.656 6.775-.836 15.295 6.298 19.03 7.134 3.733 15.883 1.267 19.54-5.508 3.656-6.775.837-15.295-6.298-19.03m-5.365 9.943c1.35.7 1.88 2.32 1.19 3.6-.69 1.28-2.36 1.75-3.71 1.04s-1.89-2.33-1.2-3.61c.69-1.29 2.35-1.75 3.7-1.05"/>
    <path fill="#0069a3" fill-rule="evenodd" d="M542.51 447.21c-5.707-3.026-7.967-9.958-5.043-15.45 2.924-5.493 9.943-7.498 15.65-4.47 5.704 3.026 7.968 9.956 5.044 15.45-2.92 5.49-9.94 7.498-15.65 4.47"/>
    <path fill="#fff" d="M554.463 424.758c-7.167-3.803-15.955-1.292-19.63 5.608-3.67 6.897-.84 15.574 6.328 19.376 7.17 3.802 15.96 1.292 19.63-5.606 3.68-6.9.84-15.576-6.32-19.378m-2.69 5.062c4.26 2.258 5.95 7.43 3.77 11.527-2.18 4.095-7.41 5.59-11.67 3.333-4.25-2.258-5.94-7.43-3.76-11.524 2.18-4.098 7.42-5.594 11.68-3.336"/>
    <path fill="#0069a3" fill-rule="evenodd" d="M695.082 434.033c-4.24-2.22-5.92-7.293-3.746-11.32 2.17-4.02 7.383-5.493 11.623-3.274 4.23 2.21 5.91 7.29 3.74 11.31-2.18 4.02-7.39 5.49-11.62 3.27"/>
    <path fill="#fff" d="M705.64 414.47c-7.134-3.733-15.883-1.267-19.54 5.508-3.656 6.775-.837 15.294 6.297 19.028 7.135 3.734 15.883 1.268 19.54-5.507 3.656-6.78.837-15.3-6.297-19.03m-5.366 9.94c1.35.7 1.886 2.32 1.194 3.61-.692 1.28-2.355 1.75-3.705 1.04s-1.886-2.33-1.194-3.61c.69-1.29 2.35-1.75 3.7-1.05"/>
    <path fill="#0069a3" fill-rule="evenodd" d="M548.45 371.103c-4.24-2.22-5.917-7.292-3.744-11.32 2.17-4.02 7.382-5.493 11.622-3.274 4.24 2.21 5.916 7.29 3.745 11.31-2.173 4.02-7.382 5.49-11.622 3.27"/>
    <path fill="#fff" d="M559.01 351.54c-7.135-3.734-15.883-1.268-19.54 5.507-3.657 6.775-.838 15.294 6.297 19.028 7.134 3.734 15.882 1.268 19.54-5.507 3.656-6.775.837-15.294-6.298-19.028m-5.37 9.94c1.35.708 1.88 2.327 1.19 3.61-.7 1.282-2.36 1.75-3.71 1.044-1.35-.707-1.89-2.326-1.2-3.608.69-1.283 2.35-1.752 3.7-1.045m33.82 366.5l-7.48 8.06-8.45-6.91 7.48-8.05zm16.9 13.83l-7.48 8.06-8.45-6.91 7.48-8.06zm16.89 13.82l-7.48 8.06-8.45-6.91 7.48-8.05zm20.17-104.77l-6.1 9.33-8.72-7.16 6.09-9.32zm17.42 14.32l-6.1 9.33-8.72-7.16 6.09-9.32zm11.01 23.38l.37.19 6.04-9.25-8.72-7.16-6.1 9.33zm-431.01 1.06l9.67 6.3-7 9.84-9.68-6.29zm13.98-19.67l9.68 6.3-7 9.84-9.68-6.29zm23.4-13.01l.18-.41-9.6-6.24-6.99 9.84 9.68 6.3zm4.87-25.63l9.92 5.8c-8.39 11.85-4.9 10.74-16.82 3.77zm13.8-19.12l9.92 5.8-6.9 9.57-9.92-5.79zm13.803-19.13l9.914 5.8-6.9 9.57-9.91-5.79zm13.8-19.12l9.92 5.8-6.9 9.57-9.92-5.8zm23.487-13l.175-.4-9.83-5.74-6.9 9.57 9.92 5.8zM562.2 408.17l9.92 5.8c-8.39 11.85-4.9 10.74-16.81 3.77zm13.807-19.12l9.915 5.8-6.9 9.56-9.92-5.8zm13.803-19.12l9.914 5.8-6.9 9.57-9.917-5.794zm13.8-19.13l9.92 5.8-6.9 9.56-9.915-5.79zm23.47-12.98l.17-.4-9.83-5.74-6.91 9.57 9.91 5.8zm70.24 193.85l10.29 5.11c-7.56 12.394-4.16 11.04-16.52 4.91zm12.46-20.02l10.29 5.11-6.23 10.018-10.29-5.1zm12.46-20.02l10.29 5.107-6.23 10.014-10.29-5.102zm12.46-20.03l10.29 5.1-6.23 10.01-10.29-5.1zm22.52-14.56l.14-.42-10.21-5.06-6.23 10.01 10.29 5.1z"/>
    <rect width="172.53406" height="97.580734" x="98.994957" y="782.24738" fill="gray" fill-rule="evenodd" transform="matrix(.959 0 0 .924 -6.396 -50.28)" rx="1.9783514" opacity="0.79835391" filter="url(#a)"/>
    <g fill="#fca" clip-path="url(#b)" transform="matrix(.616 0 0 -.64 61.558 1136.924)">
      <path d="M62.303 732.634c-2.77 0-5.317-.94-7.374-2.483-1.55-2.05-2.48-4.61-2.48-7.38V608.32c0-6.796 5.51-12.684 12.3-12.684 84.78-5.76 245.43 3.126 252.27 0 2.77 0 5.1 1.116 7.16 2.66.84 1.116 1.43 2.432 1.8 3.845v121.63c-1.4 5.12-5.83 8.87-11.42 8.87z"/>
    </g>
    <text x="145.61497" y="881.47748" fill="#535d6c" style="text-align:start;line-height:125%;-inkscape-font-specification:Roboto" transform="translate(-14.317 -162.06) scale(.998 1.002)" font-size="19.62589073px" letter-spacing="0px" word-spacing="0px" font-family="Roboto">
      <tspan x="145.61497" y="881.47748" style="text-align:start;line-height:125%;-inkscape-font-specification:Roboto Medium" font-size="32px" font-weight="500">Griffith</tspan>
    </text>
    <rect width="172.53406" height="97.580734" x="98.994957" y="782.24738" fill="gray" fill-rule="evenodd" transform="matrix(.959 0 0 .924 515.448 -463.937)" rx="1.9783514" opacity="0.79835391" filter="url(#c)"/>
    <g fill="#fca" clip-path="url(#d)" transform="matrix(.616 0 0 -.64 583.782 722.109)">
      <path d="M62.303 732.634c-2.77 0-5.317-.94-7.374-2.483-1.55-2.05-2.48-4.61-2.48-7.38V608.32c0-6.796 5.51-12.684 12.3-12.684 84.78-5.76 245.43 3.126 252.27 0 2.77 0 5.1 1.116 7.16 2.66.84 1.116 1.43 2.432 1.8 3.845v121.63c-1.4 5.12-5.83 8.87-11.42 8.87z"/>
    </g>
    <text x="655.17926" y="309.43872" fill="#535d6c" style="text-align:start;line-height:125%;-inkscape-font-specification:Roboto" transform="scale(.998 1.002)" font-size="19.62589073px" letter-spacing="0px" word-spacing="0px" font-family="Roboto">
      <tspan x="655.17926" y="309.43872" style="text-align:start;line-height:125%;-inkscape-font-specification:Roboto Medium" font-size="32px" font-weight="500">Dubbo</tspan>
    </text>
    <g transform="translate(.075 -4.672)">
      <rect width="172.53406" height="97.580734" x="98.994957" y="782.24738" fill="gray" fill-rule="evenodd" rx="1.9783514" transform="matrix(.959 0 0 .924 651.137 -344.007)" opacity="0.79835391" filter="url(#e)"/>
      <g fill="#fca" transform="matrix(.616 0 0 -.64 717.866 844.447)" clip-path="url(#f)">
        <path d="M62.303 732.634c-2.77 0-5.317-.94-7.374-2.483-1.55-2.05-2.48-4.61-2.48-7.38V608.32c0-6.796 5.51-12.684 12.3-12.684 84.78-5.76 245.43 3.126 252.27 0 2.77 0 5.1 1.116 7.16 2.66.84 1.116 1.43 2.432 1.8 3.845v121.63c-1.4 5.12-5.83 8.87-11.42 8.87z"/>
      </g>
      <text x="761.13397" y="427.75949" fill="#535d6c" transform="scale(.998 1.002)" style="text-align:start;line-height:125%;-inkscape-font-specification:Roboto Light" font-size="22px" font-weight="300" letter-spacing="0px" word-spacing="0px" font-family="Roboto">
        <tspan x="761.13397" y="427.75949" style="text-align:start;line-height:125%;-inkscape-font-specification:Roboto Medium" font-size="32px" font-weight="500">Newcastle</tspan>
      </text>
    </g>
    <g transform="translate(-91.141 37.048)">
      <rect width="172.53406" height="97.580734" x="98.994957" y="782.24738" fill="gray" fill-rule="evenodd" transform="matrix(.959 0 0 .924 662.451 -120.562)" rx="1.9783514" opacity="0.79835391" filter="url(#g)"/>
      <g fill="#fca" clip-path="url(#h)" transform="matrix(.616 0 0 -.64 730.651 1067.577)">
        <path d="M62.303 732.634c-2.77 0-5.317-.94-7.374-2.483-1.55-2.05-2.48-4.61-2.48-7.38V608.32c0-6.796 5.51-12.684 12.3-12.684 84.78-5.76 245.43 3.126 252.27 0 2.77 0 5.1 1.116 7.16 2.66.84 1.116 1.43 2.432 1.8 3.845v121.63c-1.4 5.12-5.83 8.87-11.42 8.87z"/>
      </g>
      <text x="830.22003" y="583.76971" fill="#535d6c" transform="matrix(.998 0 0 1.002 -31.113 65.054)" style="text-align:start;line-height:125%;-inkscape-font-specification:Roboto" font-size="19.62589073px" letter-spacing="0px" word-spacing="0px" font-family="Roboto">
        <tspan x="830.22003" y="583.76971" style="text-align:start;line-height:125%;-inkscape-font-specification:Roboto Medium" font-size="32px" font-weight="500">Sydney</tspan>
      </text>
    </g>
    <g transform="translate(-93.263 -41.441)">
      <rect width="172.53406" height="97.580734" x="98.994957" y="782.24738" fill="gray" fill-rule="evenodd" rx="1.9783514" transform="matrix(.959 0 0 .924 603.761 74.6)" opacity="0.79835391" filter="url(#i)"/>
      <g fill="#fca" clip-path="url(#j)" transform="matrix(.616 0 0 -.64 672.744 1260.137)">
        <path d="M62.303 732.634c-2.77 0-5.317-.94-7.374-2.483-1.55-2.05-2.48-4.61-2.48-7.38V608.32c0-6.796 5.51-12.684 12.3-12.684 84.78-5.76 245.43 3.126 252.27 0 2.77 0 5.1 1.116 7.16 2.66.84 1.116 1.43 2.432 1.8 3.845v121.63c-1.4 5.12-5.83 8.87-11.42 8.87z"/>
      </g>
      <text x="763.70734" y="828.71832" fill="#535d6c" transform="translate(-33.941 12.728) scale(.998 1.002)" style="text-align:start;line-height:125%;-inkscape-font-specification:Roboto" font-size="19.62589073px" letter-spacing="0px" word-spacing="0px" font-family="Roboto">
        <tspan x="763.70734" y="828.71832" style="text-align:start;line-height:125%;-inkscape-font-specification:Roboto Medium" font-size="32px" font-weight="500">Canberra</tspan>
      </text>
    </g>
  </g>
</svg>
