<svg xmlns="http://www.w3.org/2000/svg" width="1000" height="1000"><path d="M376.428 1503.233l-.08 1.524-1.098-1.103c.174-.1.365-.19.568-.263.205-.06.41-.12.61-.16" fill="#1e1e1e" fill-rule="evenodd"/><g transform="matrix(2.3 0 0 2.4 -456.7 -1890.6)"><path d="M374.57 905.026l63.238 39.793-52.7-33.17m-81.91 32.43l63.586-39.27-52.99 32.72" fill="#de8787" stroke="#532900" stroke-width="1.174" stroke-linecap="round" stroke-linejoin="round" stroke-opacity=".406"/><rect width="168.318" height="94.325" x="286.6" y="936.808" rx="3.141" fill="#c87137" fill-rule="evenodd"/><path d="M289.303 953.627c-1.572 0-2.822 1.233-2.822 2.76v72.162c0 1.52 1.25 2.73 2.83 2.73h162.81c1.58 0 2.85-1.21 2.85-2.74v-72.16c0-1.53-1.27-2.76-2.84-2.76H289.31z" fill="#ffe6d5" fill-rule="evenodd"/><text style="text-indent:0;text-align:center;line-height:125%;text-transform:none;block-progression:tb;-inkscape-font-specification:Roboto Light" x="361.399" y="963.706" font-size="31.627" font-weight="300" letter-spacing="0" word-spacing="0" text-anchor="middle" color="#000" fill="#fff6d5" overflow="visible" font-family="Roboto"><tspan x="361.399" y="963.706" style="-inkscape-font-specification:Roboto Bold Italic" dy="0" rotate="0 0 0 0 0 0 0 0 0 0" font-size="14.232" font-style="italic" font-weight="bold">September</tspan></text><text style="text-indent:0;text-align:center;line-height:125%;text-transform:none;block-progression:tb;-inkscape-font-specification:Roboto Light" x="341.633" y="979.519" font-size="31.627" font-weight="300" letter-spacing="0" word-spacing="0" text-anchor="middle" color="#000" overflow="visible" font-family="Roboto"><tspan x="341.633" y="979.519" font-size="11.069" fill="#a02c2c">1</tspan></text><text style="text-indent:0;text-align:center;line-height:125%;text-transform:none;block-progression:tb;-inkscape-font-specification:Roboto Light" x="389.073" y="979.519" font-size="31.627" font-weight="300" letter-spacing="0" word-spacing="0" text-anchor="middle" color="#000" overflow="visible" font-family="Roboto"><tspan x="389.073" y="979.519" font-size="11.069" fill="#a02c2c">3</tspan></text><text style="text-indent:0;text-align:center;line-height:125%;text-transform:none;block-progression:tb;-inkscape-font-specification:Roboto Light" x="412.792" y="979.519" font-size="31.627" font-weight="300" letter-spacing="0" word-spacing="0" text-anchor="middle" color="#000" overflow="visible" font-family="Roboto"><tspan x="412.792" y="979.519" font-size="11.069" fill="#a02c2c">4</tspan></text><text style="text-indent:0;text-align:center;line-height:125%;text-transform:none;block-progression:tb;-inkscape-font-specification:Roboto Light" x="436.512" y="979.519" font-size="31.627" font-weight="300" letter-spacing="0" word-spacing="0" text-anchor="middle" color="#000" overflow="visible" font-family="Roboto"><tspan x="436.512" y="979.519" font-size="11.069" fill="#a02c2c">5</tspan></text><text style="text-indent:0;text-align:center;line-height:125%;text-transform:none;block-progression:tb;-inkscape-font-specification:Roboto Light" x="294.193" y="995.332" font-size="31.627" font-weight="300" letter-spacing="0" word-spacing="0" text-anchor="middle" color="#000" overflow="visible" font-family="Roboto"><tspan x="294.193" y="995.332" font-size="11.069" fill="#a02c2c">6</tspan></text><text style="text-indent:0;text-align:center;line-height:125%;text-transform:none;block-progression:tb;-inkscape-font-specification:Roboto Light" x="317.913" y="995.332" font-size="31.627" font-weight="300" letter-spacing="0" word-spacing="0" text-anchor="middle" color="#000" overflow="visible" font-family="Roboto"><tspan x="317.913" y="995.332" font-size="11.069" fill="#a02c2c">7</tspan></text><text style="text-indent:0;text-align:center;line-height:125%;text-transform:none;block-progression:tb;-inkscape-font-specification:Roboto Light" x="341.633" y="995.332" font-size="31.627" font-weight="300" letter-spacing="0" word-spacing="0" text-anchor="middle" color="#000" overflow="visible" font-family="Roboto"><tspan x="341.633" y="995.332" style="-inkscape-font-specification:Roboto Light" font-size="11.069" fill="#a02c2c">8</tspan></text><text style="text-indent:0;text-align:center;line-height:125%;text-transform:none;block-progression:tb;-inkscape-font-specification:Roboto Light" x="365.353" y="995.332" font-size="31.627" font-weight="300" letter-spacing="0" word-spacing="0" text-anchor="middle" color="#000" overflow="visible" font-family="Roboto"><tspan x="365.353" y="995.332" font-size="11.069" fill="#a02c2c">9</tspan></text><text style="text-indent:0;text-align:center;line-height:125%;text-transform:none;block-progression:tb;-inkscape-font-specification:Roboto Light" x="389.073" y="995.332" font-size="31.627" font-weight="300" letter-spacing="0" word-spacing="0" text-anchor="middle" color="#000" overflow="visible" font-family="Roboto"><tspan x="389.073" y="995.332" font-size="11.069" fill="#a02c2c">10</tspan></text><text style="text-indent:0;text-align:center;line-height:125%;text-transform:none;block-progression:tb;-inkscape-font-specification:Roboto Light" x="412.792" y="995.332" font-size="31.627" font-weight="300" letter-spacing="0" word-spacing="0" text-anchor="middle" color="#000" overflow="visible" font-family="Roboto"><tspan x="412.792" y="995.332" font-size="11.069" fill="#a02c2c">11</tspan></text><text style="text-indent:0;text-align:center;line-height:125%;text-transform:none;block-progression:tb;-inkscape-font-specification:Roboto Light" x="294.193" y="1011.146" font-size="31.627" font-weight="300" letter-spacing="0" word-spacing="0" text-anchor="middle" color="#000" overflow="visible" font-family="Roboto"><tspan x="294.193" y="1011.146" font-size="11.069" fill="#a02c2c">13</tspan></text><text style="text-indent:0;text-align:center;line-height:125%;text-transform:none;block-progression:tb;-inkscape-font-specification:Roboto Light" x="317.913" y="1011.146" font-size="31.627" font-weight="300" letter-spacing="0" word-spacing="0" text-anchor="middle" color="#000" overflow="visible" font-family="Roboto"><tspan x="317.913" y="1011.146" font-size="11.069" fill="#a02c2c">14</tspan></text><text style="text-indent:0;text-align:center;line-height:125%;text-transform:none;block-progression:tb;-inkscape-font-specification:Roboto Light" x="341.633" y="1011.146" font-size="31.627" font-weight="300" letter-spacing="0" word-spacing="0" text-anchor="middle" color="#000" overflow="visible" font-family="Roboto"><tspan x="341.633" y="1011.146" font-size="11.069" fill="#a02c2c">15</tspan></text><text style="text-indent:0;text-align:center;line-height:125%;text-transform:none;block-progression:tb;-inkscape-font-specification:Roboto Light" x="365.353" y="1011.146" font-size="31.627" font-weight="300" letter-spacing="0" word-spacing="0" text-anchor="middle" color="#000" overflow="visible" font-family="Roboto"><tspan x="365.353" y="1011.146" font-size="11.069" fill="#a02c2c">16</tspan></text><text style="text-indent:0;text-align:center;line-height:125%;text-transform:none;block-progression:tb;-inkscape-font-specification:Roboto Light" x="389.073" y="1011.146" font-size="31.627" font-weight="300" letter-spacing="0" word-spacing="0" text-anchor="middle" color="#000" overflow="visible" font-family="Roboto"><tspan x="389.073" y="1011.146" font-size="11.069" fill="#a02c2c">17</tspan></text><text style="text-indent:0;text-align:center;line-height:125%;text-transform:none;block-progression:tb;-inkscape-font-specification:Roboto Light" x="412.792" y="1011.146" font-size="31.627" font-weight="300" letter-spacing="0" word-spacing="0" text-anchor="middle" color="#000" overflow="visible" font-family="Roboto"><tspan x="412.792" y="1011.146" font-size="11.069" fill="#a02c2c">18</tspan></text><text style="text-indent:0;text-align:center;line-height:125%;text-transform:none;block-progression:tb;-inkscape-font-specification:Roboto Light" x="436.512" y="1011.146" font-size="31.627" font-weight="300" letter-spacing="0" word-spacing="0" text-anchor="middle" color="#000" overflow="visible" font-family="Roboto"><tspan x="436.512" y="1011.146" style="-inkscape-font-specification:Roboto Light" font-size="11.069" fill="#a02c2c">19</tspan></text><text style="text-indent:0;text-align:center;line-height:125%;text-transform:none;block-progression:tb;-inkscape-font-specification:Roboto Light" x="294.193" y="1026.959" font-size="31.627" font-weight="300" letter-spacing="0" word-spacing="0" text-anchor="middle" color="#000" overflow="visible" font-family="Roboto"><tspan x="294.193" y="1026.959" font-size="11.069" fill="#a02c2c">20</tspan></text><text style="text-indent:0;text-align:center;line-height:125%;text-transform:none;block-progression:tb;-inkscape-font-specification:Roboto Light" x="317.913" y="1026.959" font-size="31.627" font-weight="300" letter-spacing="0" word-spacing="0" text-anchor="middle" color="#000" overflow="visible" font-family="Roboto"><tspan x="317.913" y="1026.959" font-size="11.069" fill="#a02c2c">21</tspan></text><text style="text-indent:0;text-align:center;line-height:125%;text-transform:none;block-progression:tb;-inkscape-font-specification:Roboto Light" x="365.353" y="1026.959" font-size="31.627" font-weight="300" letter-spacing="0" word-spacing="0" text-anchor="middle" color="#000" overflow="visible" font-family="Roboto"><tspan x="365.353" y="1026.959" font-size="11.069" fill="#a02c2c">23</tspan></text><text style="text-indent:0;text-align:center;line-height:125%;text-transform:none;block-progression:tb;-inkscape-font-specification:Roboto Light" x="389.073" y="1026.959" font-size="31.627" font-weight="300" letter-spacing="0" word-spacing="0" text-anchor="middle" color="#000" overflow="visible" font-family="Roboto"><tspan x="389.073" y="1026.959" font-size="11.069" fill="#a02c2c">24</tspan></text><text style="text-indent:0;text-align:center;line-height:125%;text-transform:none;block-progression:tb;-inkscape-font-specification:Roboto Light" x="412.792" y="1026.959" font-size="31.627" font-weight="300" letter-spacing="0" word-spacing="0" text-anchor="middle" color="#000" overflow="visible" font-family="Roboto"><tspan x="412.792" y="1026.959" font-size="11.069" fill="#a02c2c">25</tspan></text><text style="text-indent:0;text-align:center;line-height:125%;text-transform:none;block-progression:tb;-inkscape-font-specification:Roboto Light" x="436.512" y="1026.959" font-size="31.627" font-weight="300" letter-spacing="0" word-spacing="0" text-anchor="middle" color="#000" overflow="visible" font-family="Roboto"><tspan x="436.512" y="1026.959" font-size="11.069" fill="#a02c2c">26</tspan></text><text style="text-indent:0;text-align:center;line-height:125%;text-transform:none;block-progression:tb;-inkscape-font-specification:Roboto Light" x="294.193" y="1042.773" font-size="31.627" font-weight="300" letter-spacing="0" word-spacing="0" text-anchor="middle" color="#000" overflow="visible" font-family="Roboto"><tspan x="294.193" y="1042.773" font-size="11.069" fill="#a02c2c">27</tspan></text><text style="text-indent:0;text-align:center;line-height:125%;text-transform:none;block-progression:tb;-inkscape-font-specification:Roboto Light" x="317.913" y="1042.773" font-size="31.627" font-weight="300" letter-spacing="0" word-spacing="0" text-anchor="middle" color="#000" overflow="visible" font-family="Roboto"><tspan x="317.913" y="1042.773" font-size="11.069" fill="#a02c2c">28</tspan></text><text style="text-indent:0;text-align:center;line-height:125%;text-transform:none;block-progression:tb;-inkscape-font-specification:Roboto Light" x="341.633" y="1042.773" font-size="31.627" font-weight="300" letter-spacing="0" word-spacing="0" text-anchor="middle" color="#000" overflow="visible" font-family="Roboto"><tspan x="341.633" y="1042.773" font-size="11.069" fill="#a02c2c">29</tspan></text><text style="text-indent:0;text-align:center;line-height:125%;text-transform:none;block-progression:tb;-inkscape-font-specification:Roboto Light" x="365.353" y="1042.773" font-size="31.627" font-weight="300" letter-spacing="0" word-spacing="0" text-anchor="middle" color="#000" overflow="visible" font-family="Roboto"><tspan x="365.353" y="1042.773" font-size="11.069" fill="#a02c2c">30</tspan></text><path d="M310.61 953.46v77.907m24.198-77.885v77.906m24-77.938v77.907m24.062-77.917v77.908m24.033-77.888v77.907m24.237-77.855v77.906" fill="none" stroke="#00b700" stroke-width=".316" stroke-miterlimit="1.8"/><path d="M455.157 969.153l-168.57.06m168.44 15.407l-168.57.063m168.61 15.632l-168.57.062m168.7 15.433l-168.57.063" fill="none" stroke="#00b700" stroke-width=".357" stroke-miterlimit="1.8"/><path d="M366.615 962.41c-.836-2.386.594-4.94 3.197-5.708.504-.15 1.014-.218 1.516-.218v-2.124c-.223.123-.457.205-.58.215-.262.026-.588-.28-.727-.676-.13-.4-.74-.58-1.33-.41-.59.17-.96.64-.83 1.04.14.39-.34 1.03-.55 1.17-.21.14-.65.02-.99-.26-.33-.28-.95-.16-1.37.262-.42.424-.484 1-.15 1.28.34.28.27 1.05.16 1.27-.102.215-.554.32-1 .234-.443-.088-.913.297-1.05.856-.13.56.128 1.09.57 1.18.445.09.806.782.83 1.02.027.24-.305.54-.74.667-.433.125-.63.675-.44 1.22.19.545.7.886 1.13.76.438-.13.897-.063 1.03.144.13.21.28.967-.026 1.276-.306.31-.176.876.287 1.26.463.385 1.09.447 1.395.138.305-.31 1.146-.244 1.384-.15.236.1.352.514.257.92-.094.41.327.84.937.96.61.12 1.188-.113 1.284-.52.05-.214.285-.406.534-.544v-2.126c-2.09 0-4.036-1.222-4.71-3.145" fill="#87cdde"/><path d="M372.635 968.143c.14.396.74.576 1.335.402.593-.175.966-.643.828-1.04-.14-.395.346-1.033.555-1.172.21-.138.658-.02.994.256.336.28.954.16 1.373-.27.42-.43.486-1 .15-1.28-.338-.28-.268-1.05-.16-1.27.105-.22.557-.32 1.002-.24.444.088.915-.296 1.047-.856.13-.56-.13-1.09-.57-1.177-.45-.087-.81-.783-.83-1.02-.03-.24.3-.54.74-.67.43-.127.62-.676.43-1.22-.19-.545-.7-.886-1.14-.76-.43.13-1.13-.317-1.28-.51-.15-.19-.026-.6.28-.91.305-.31.175-.875-.287-1.257-.46-.385-1.09-.445-1.395-.136-.305.307-1.146.243-1.384.144-.237-.1-.35-.51-.257-.92.096-.406-.325-.84-.936-.96-.61-.12-1.19.117-1.283.524-.05.214-.282.406-.532.544v2.125c2.092 0 4.037 1.225 4.713 3.15.84 2.386-.59 4.94-3.19 5.71-.504.148-1.014.217-1.516.217v2.123c.224-.123.46-.205.58-.216.26-.02.59.28.728.677" fill="#08a"/><text style="text-indent:0;text-align:center;line-height:125%;text-transform:none;block-progression:tb;-inkscape-font-specification:Roboto Light" x="365.353" y="979.519" font-size="31.627" font-weight="300" letter-spacing="0" word-spacing="0" text-anchor="middle" color="#000" overflow="visible" font-family="Roboto"><tspan x="365.353" y="979.519" style="-inkscape-font-specification:Roboto Bold Italic" font-size="11.069" font-style="italic" font-weight="bold" fill="#a02c2c">2</tspan></text><path d="M444.15 983.896c.14.396.74.575 1.334.4.594-.173.966-.642.828-1.037-.14-.4.346-1.04.555-1.18.21-.14.66-.02.994.25.34.28.96.16 1.38-.26.42-.43.49-1 .15-1.28-.33-.28-.27-1.056-.16-1.27.11-.22.56-.32 1-.237.45.087.92-.297 1.05-.857s-.12-1.09-.57-1.177c-.44-.09-.8-.785-.83-1.024-.02-.238.31-.538.74-.666.43-.125.63-.674.44-1.22-.19-.544-.7-.885-1.13-.76-.432.13-1.13-.315-1.28-.51-.15-.19-.024-.6.28-.91.306-.31.176-.873-.285-1.256-.463-.386-1.09-.447-1.396-.138-.305.305-1.146.24-1.383.143-.235-.1-.35-.51-.255-.92.095-.406-.326-.838-.937-.958-.61-.12-1.187.116-1.282.52-.05.218-.283.41-.533.547v2.122c2.094 0 4.04 1.225 4.714 3.15.836 2.385-.595 4.942-3.197 5.71-.502.15-1.013.216-1.515.216v2.123c.225-.12.46-.2.583-.213.26-.02.586.28.725.68" fill="#216778"/><path d="M348.213 1014.887c.14.396.74.576 1.334.402.593-.18.966-.65.828-1.04-.14-.4.346-1.04.555-1.18.21-.14.658-.02.994.25.336.28.954.16 1.373-.264.42-.424.486-1 .15-1.28-.337-.28-.268-1.05-.16-1.268.106-.22.557-.325 1.002-.236.44.086.91-.298 1.04-.858s-.13-1.09-.57-1.178c-.45-.086-.81-.78-.83-1.02-.03-.24.3-.54.74-.667.43-.128.63-.677.44-1.22-.2-.546-.7-.887-1.14-.76-.435.13-1.13-.318-1.28-.51-.15-.19-.027-.6.28-.91.303-.31.173-.876-.288-1.26-.463-.384-1.09-.444-1.396-.136-.307.31-1.148.247-1.385.148-.236-.095-.352-.51-.257-.92.095-.403-.326-.835-.937-.955-.61-.122-1.185.114-1.28.52-.05.216-.285.407-.535.546v2.124c2.093 0 4.038 1.223 4.713 3.148.836 2.384-.595 4.94-3.197 5.71-.503.147-1.014.216-1.516.216v2.124c.224-.123.458-.205.58-.217.26-.02.588.282.727.68" fill="#08a"/><path d="M438.482 978.123c-.836-2.387.594-4.942 3.196-5.71.504-.148 1.015-.217 1.517-.217v-2.124c-.223.123-.457.205-.58.215-.262.026-.588-.28-.727-.676-.14-.39-.74-.57-1.333-.4-.595.18-.967.64-.83 1.04.14.4-.345 1.04-.554 1.17-.21.14-.65.02-.99-.25-.33-.28-.95-.16-1.37.27-.42.423-.48 1-.15 1.28.34.28.27 1.05.16 1.267-.1.217-.55.323-1 .236-.44-.087-.91.298-1.04.857-.133.56.123 1.09.567 1.174.445.09.806.784.83 1.02.027.24-.305.54-.737.67-.436.13-.63.68-.44 1.225.19.542.7.883 1.13.756.433-.127.893-.062 1.025.146.13.208.28.967-.026 1.275-.31.31-.18.877.282 1.26.466.385 1.093.447 1.397.138.303-.31 1.144-.245 1.382-.15.236.1.35.513.257.92-.098.408.323.84.933.96.61.12 1.187-.113 1.28-.52.05-.215.288-.407.537-.545v-2.124c-2.09 0-4.035-1.225-4.71-3.148m-96.265 30.887c-.84-2.386.59-4.942 3.193-5.71.505-.15 1.016-.216 1.518-.216v-2.127c-.223.125-.456.206-.58.217-.26.027-.587-.28-.727-.675s-.74-.577-1.335-.4c-.6.173-.97.64-.83 1.04.14.394-.35 1.03-.558 1.17-.21.14-.656.02-.993-.257-.335-.278-.95-.16-1.37.265-.42.42-.49 1-.15 1.276.335.28.265 1.05.16 1.266-.108.22-.56.328-1.005.24-.446-.087-.916.298-1.05.857-.132.56.124 1.09.567 1.177.444.09.805.786.83 1.025.027.24-.305.54-.737.666-.436.128-.63.678-.44 1.22.19.55.7.89 1.13.76.434-.13.894-.06 1.026.148.13.208.28.966-.026 1.274-.306.307-.177.875.286 1.26.465.383 1.09.445 1.397.136.305-.31 1.146-.245 1.385-.15.238.098.354.51.26.92-.098.408.323.84.932.96.61.12 1.19-.113 1.282-.52.05-.215.286-.406.534-.545v-2.12c-2.093 0-4.038-1.224-4.714-3.15" fill="#87cdde"/><text style="text-indent:0;text-align:center;line-height:125%;text-transform:none;block-progression:tb;-inkscape-font-specification:Roboto Light" x="436.512" y="995.332" font-size="31.627" font-weight="300" letter-spacing="0" word-spacing="0" text-anchor="middle" color="#000" overflow="visible" font-family="Roboto"><tspan x="436.512" y="995.332" style="-inkscape-font-specification:Roboto Bold Italic" font-size="11.069" font-style="italic" font-weight="bold" fill="#a02c2c">12</tspan></text><text style="text-indent:0;text-align:center;line-height:125%;text-transform:none;block-progression:tb;-inkscape-font-specification:Roboto Light" x="341.633" y="1026.959" font-size="31.627" font-weight="300" letter-spacing="0" word-spacing="0" text-anchor="middle" color="#000" overflow="visible" font-family="Roboto"><tspan x="341.633" y="1026.959" style="-inkscape-font-specification:Roboto Bold Italic" font-size="11.069" font-style="italic" font-weight="bold" fill="#a02c2c">22</tspan></text><path d="M375.572 902.607c0 2.762-2.006 5-4.48 5-2.473 0-4.48-2.238-4.48-5s2.007-5 4.48-5c2.46 0 4.46 2.213 4.48 4.96" color="#000" fill="#916f6f" fill-rule="evenodd" overflow="visible"/><path d="M374.87 902.478c0 2.204-1.652 3.99-3.69 3.99-2.035 0-3.686-1.786-3.686-3.99s1.65-3.99 3.687-3.99c2.03 0 3.68 1.766 3.69 3.957" color="#000" fill="#f95" fill-rule="evenodd" overflow="visible"/></g><path d="M417.2 588.744c-24.146 9.61-29.75 29.987-25.122 58.56 2.384 29.49 54.387 50.74 87.02 39.324 94.156 0 181.44-.035 275.595-.035 0-33.88-.844-85.884-43.077-89.03-119.538.386-174.88-9.28-294.417-8.818z" fill="#fff"/><path d="M417.168 519.582c-38.79-.133-25.09 51.612-25.09 76.982 0 76.11 70.063 5.01 95.823 12.476h127.47c0-31.66 48.64-63.216-5.74-88.586-67.75.176-124.7-1.122-192.45-.872z" fill="#fff"/><path d="M602.488 535.483s75.79-20.185 106 63.458h-104.25l-1.75-63.45z" fill="#fff"/><path d="M521.745 679.794c0 19.226-15.085 34.81-33.678 34.81-18.593 0-33.678-15.584-33.678-34.81 0-19.22 15.08-34.795 33.67-34.795s33.68 15.57 33.68 34.79" fill="#280b0b"/><path d="M510.822 679.794c0 12.985-10.184 23.516-22.753 23.516-12.57 0-22.76-10.53-22.76-23.516 0-12.978 10.18-23.5 22.75-23.5s22.75 10.522 22.75 23.5" fill="#707571"/><path d="M497.553 679.794c0 5.4-4.25 9.78-9.483 9.78-5.243 0-9.484-4.38-9.484-9.78 0-5.4 4.24-9.79 9.484-9.79 5.234 0 9.483 4.39 9.483 9.79" fill="#d3ceba"/><path d="M722.845 679.794c0 19.226-15.076 34.81-33.686 34.81-18.6 0-33.68-15.584-33.68-34.81 0-19.22 15.08-34.795 33.68-34.795 18.61 0 33.68 15.57 33.68 34.79" fill="#280b0b"/><path d="M711.922 679.794c0 12.985-10.192 23.516-22.76 23.516-12.563 0-22.763-10.53-22.763-23.516 0-12.978 10.2-23.5 22.76-23.5 12.57 0 22.76 10.522 22.76 23.5" fill="#707571"/><path d="M698.657 679.794c0 5.4-4.24 9.78-9.492 9.78-5.234 0-9.483-4.38-9.483-9.78 0-5.4 4.25-9.79 9.483-9.79 5.25 0 9.492 4.39 9.492 9.79" fill="#d3ceba"/><path d="M609.17 546v48.36h82.48s-21.556-59.873-82.48-48.36" fill="#afdde9"/><path d="M750.677 637.06l-358.95-1.313v-9.21h355.91zM472.31 574.47c0 21.264 18.12 38.503 40.476 38.503 22.355 0 40.473-17.24 40.473-38.502 0-21.26-18.12-38.5-40.48-38.5-22.36 0-40.48 17.24-40.48 38.51" fill="#a02c2c"/><path d="M517.663 595.35h-10.06v-41.76h10.06v41.76z" fill="#fff"/><path d="M534.737 579.258h-43.903v-9.573h43.903v9.573z" fill="#fff"/><g fill="#006680" fill-rule="evenodd"><path d="M689.28 452.496h-109.2c-2.044 0-3.715 1.625-3.715 3.61v50.907c0 1.99 1.67 3.614 3.716 3.614h109.2c2.05 0 3.72-1.625 3.72-3.614v-50.907c0-1.985-1.67-3.61-3.71-3.61"/><path d="M624.88 509.607l-49.36 60.237 31.323-87.22 18.038 26.983z"/></g><g fill="#37abc8" fill-rule="evenodd"><path d="M794.414 542.68h-82.5c-1.545 0-2.807 1.11-2.807 2.47v34.747c0 1.352 1.262 2.46 2.807 2.46h82.5c1.545 0 2.808-1.108 2.808-2.46V545.15c0-1.36-1.263-2.47-2.808-2.47"/><path d="M745.76 581.668l-37.29 41.11 23.663-59.533 13.628 18.423z"/></g></svg>