<svg xmlns="http://www.w3.org/2000/svg" width="1000" height="1000">
  <path fill="#fff" d="M523.337 471.75c.007 6.705-5.468 12.12-12.227 12.097-6.76-.023-12.247-5.473-12.254-12.178-.006-6.71 5.47-12.12 12.23-12.1 6.758.02 12.244 5.47 12.25 12.18"/>
  <path fill="#a02c2c" d="M264.507 294.5c0 1.415-1.154 2.56-2.583 2.554-1.428-.005-2.586-1.156-2.587-2.572l-.025-24.22c0-1.42 1.155-2.564 2.583-2.56 1.428.006 2.586 1.157 2.588 2.576l.024 24.22zm-16.64 3.973c.45.716-.167 1.9-1.374 2.646-1.21.74-2.558.77-3.007.06l-7.702-12.22c-.45-.72.164-1.9 1.375-2.65 1.21-.75 2.55-.77 3-.06l7.7 12.21zm24.493-1.833c-.45.713.17 1.9 1.38 2.655 1.21.757 2.557.79 3.006.082l7.677-12.163c.448-.713-.168-1.9-1.38-2.658-1.212-.754-2.56-.788-3.007-.08l-7.677 12.164zm3.47 25.4c.008 8.342-6.803 15.085-15.22 15.057-8.414-.028-15.242-6.816-15.25-15.158-.01-8.35 6.806-15.09 15.22-15.06 8.416.02 15.242 6.81 15.25 15.16"/>
  <path fill="#fff" d="M590.837 471.972l-295.622-.968-.223-215.76 295.622.967.223 215.77z"/>
  <path fill="#c83737" d="M508.894 348.396c.036 36.01-29.375 65.112-65.693 64.992-36.31-.12-65.77-29.417-65.81-65.428-.03-36.015 29.37-65.116 65.69-64.995 36.32.12 65.79 29.417 65.83 65.43"/>
  <path fill="#fffeff" d="M451.6 383.57l-16.343-.055-.073-70.723 16.34.054.075 70.723z"/>
  <path fill="#fffeff" d="M407.473 339.96l71.32.232.016 16.21-71.32-.235-.02-16.208z"/>
  <path fill="#fff" d="M188.657 470.653l107.62.357-.148-148.913-70.02-.232s-28.28 52.193-33.1 72.07c-4.48 18.467-4.36 76.718-4.36 76.718"/>
  <path fill="#2ad4ff" d="M203.938 391.88l79.53.264-.056-57.223-53.165-.17-26.31 57.14z"/>
  <path fill="#c83737" d="M590.812 447.15l-401.774-1.94.29-9.022 401.473 1.317z"/>
  <path fill="#005975" d="M545.03 473.93c.017 18.112-14.774 32.74-33.033 32.68-18.262-.06-33.08-14.787-33.097-32.9-.02-18.11 14.77-32.742 33.03-32.68 18.26.06 33.08 14.79 33.1 32.9"/>
  <path fill="#ccc" d="M535.603 474.54c.254 12.976-10.078 23.266-23.072 22.99-13-.276-23.74-11.013-23.99-23.99-.25-12.977 10.08-23.267 23.08-22.99 13 .275 23.74 11.012 23.99 23.99"/>
  <g transform="translate(16.824 -24.668)">
    <rect width="247.5354" height="74.270668" x="504.06427" y="322.0451" fill="#fff6d5" fill-rule="evenodd" rx="2.8198514"/>
    <path fill="#214478" d="M505.903 330.782c0-1.463.628-2.814 1.678-3.895l.05-.043c.08-.083.17-.164.26-.244l.05-.04c.31-.274.64-.527 1-.756l.07-.042c.1-.06.2-.12.3-.177l.08-.045c.11-.06.22-.118.33-.174l.05-.024c.13-.065.27-.127.4-.186l.02-.007c.13-.06.25-.11.38-.16l.11-.04c.1-.04.21-.07.31-.11l.13-.04c.11-.04.22-.07.32-.09l.11-.03c.15-.04.29-.07.44-.1l.03-.01c.14-.03.27-.05.41-.07l.14-.02.32-.04.16-.02.32-.03.15-.01c.16-.01.31-.01.47-.01h39.66v6.23c0 1.37 1.41 2.49 3.14 2.49H694.7c.14 0 .28-.01.42-.03l.09-.01c.136-.02.27-.04.4-.08 1.282-.31 2.224-1.27 2.224-2.39v-6.24h39.66c4.42 0 8.03 2.87 8.03 6.39v56.12c0 .12-.01.25-.02.37l-.01.11-.03.25-.02.12-.05.25-.023.11-.09.32-.01.03c-.04.12-.08.23-.13.35l-.04.08c-.03.09-.07.17-.11.26l-.05.1-.13.24-.05.08c-.06.1-.13.2-.19.3l-.01.01c-.08.11-.15.21-.24.32l-.03.04-.22.26-.06.06c-.07.08-.14.16-.22.23l-.05.05c-.28.283-.6.55-.94.79l-.05.035c-.1.07-.2.133-.3.2l-.05.033c-1.353.832-3.05 1.33-4.89 1.33H514c-4.42 0-8.034-2.88-8.034-6.39v-56.1zm248.287 60.595V326.3c0-4.478-4.606-8.144-10.236-8.144h-236.54c-1.407 0-2.75.23-3.974.643-3.67 1.24-6.26 4.14-6.26 7.5v65.07c0 4.48 4.605 8.14 10.234 8.14h236.54c2.645 0 5.064-.81 6.886-2.13 2.055-1.5 3.35-3.64 3.35-6.02"/>
    <path fill="#fffa99" d="M745.314 388.128c-.028.11-.058.218-.093.326.04-.108.07-.217.1-.326m-.1.352c-.04.117-.08.233-.13.348.05-.115.09-.23.13-.348m-.33.79c-.04.082-.08.164-.13.244.05-.08.09-.162.13-.243m.17-.35c-.03.09-.07.17-.11.26.04-.08.08-.17.12-.25m-.81 1.36c-.07.09-.14.18-.21.26.08-.08.15-.17.22-.26m.47-.67c-.06.11-.12.21-.19.31.07-.1.13-.2.19-.3m-.2.32c-.07.11-.15.22-.23.32.09-.1.16-.21.24-.32m.89-2.15l-.05.25.05-.25M512 324.61c.137-.03.274-.05.41-.076-.136.02-.273.045-.41.07m233.466 62.8l-.03.26.03-.25m-50.38-54.285l.09-.01-.09.01m-181.595-8.69c.16-.01.31-.02.47-.02-.15 0-.31.01-.47.01m-.46.03c.11-.01.22-.02.32-.02l-.32.02m-.47.05c.11-.02.21-.03.32-.04-.1.01-.21.02-.31.04m-2.79.85c.13-.07.26-.13.4-.19-.14.06-.27.12-.4.18M744 390.62c-.075.08-.15.158-.225.235.076-.07.15-.15.22-.23m1.5-3.7c0 .122-.004.25-.013.37.01-.124.018-.248.018-.37M509 325.777c.094-.06.192-.12.292-.177l-.3.18m1.66-.8c.105-.04.207-.07.31-.102l-.305.108m-.49.19c.125-.053.25-.104.38-.152-.13.05-.255.1-.38.153"/>
    <path fill="#fff6d5" d="M512.616 384.218c0-.737.757-1.34 1.683-1.34h221.2c.92 0 1.68.603 1.68 1.34v.3c0 .735-.76 1.34-1.69 1.34h-221.2c-.93 0-1.69-.605-1.69-1.34v-.3zm25.62-44.02c0-.534.204-1.03.55-1.446l-.09.024c.55-.72 1.544-1.204 2.675-1.204h16.66c1.73 0 3.14 1.122 3.14 2.494v.848c0 1.06-.84 1.97-2.02 2.33l.04-.053c-.4.14-.84.22-1.3.22h-16.33c-1.81 0-3.3-1.18-3.3-2.62v-.58zm148.076 0c0-.534.204-1.03.55-1.446l-.09.024c.55-.72 1.544-1.204 2.675-1.204H706.1c1.723 0 3.134 1.122 3.134 2.494v.848c0 1.06-.846 1.97-2.027 2.33l.035-.053c-.402.14-.844.22-1.307.22H689.61c-1.813 0-3.298-1.18-3.298-2.62v-.58zm-172.378 53.09h223.5c1.84 0 3.537-.5 4.894-1.336-.12.073-.24.144-.363.212.89-1.028 1.41-2.27 1.41-3.605v-56.12c0-3.52-3.613-6.39-8.03-6.39H697.77v4.57c0 1.12-.94 2.07-2.225 2.38-.392 1.02-1.59 1.77-2.998 1.77H554.64c-1.723 0-3.134-1.12-3.134-2.5v-6.24h-39.66c-1.68 0-3.24.41-4.532 1.12.085-.1.175-.2.267-.29-1.05 1.08-1.67 2.43-1.67 3.89v56.11c0 3.51 3.62 6.39 8.03 6.39"/>
    <path fill="#fffa99" d="M508.915 325.804c-.357.23-.69.482-.994.756.31-.274.64-.527 1-.756m-1.29 1.04c.08-.083.17-.164.26-.244-.09.08-.17.16-.25.244m1.74-1.304c.11-.06.22-.12.33-.175-.11.056-.22.114-.33.174m233.33 66.17c-.1.07-.2.13-.3.2.11-.07.21-.13.31-.2m-231.62-66.9c.11-.03.22-.07.32-.09-.11.03-.22.06-.32.09m231.66 66.87c.35-.24.67-.51.95-.79-.28.28-.6.55-.95.79m-231.24-66.99c.15-.04.29-.07.44-.11-.15.04-.29.07-.44.11"/>
    <path fill="#fff6d5" d="M743.376 332.445v56.114c0 1.33-.522 2.57-1.41 3.6.123-.07.243-.14.362-.21l.056-.04c.104-.07.205-.13.305-.2l.05-.04c.34-.24.66-.51.95-.79l.05-.06c.07-.08.15-.16.22-.24l.05-.06c.07-.09.15-.18.22-.26l.03-.04c.08-.11.16-.21.23-.32l.01-.01c.06-.1.13-.2.19-.31l.05-.09c.04-.08.09-.16.13-.24l.05-.1c.04-.09.08-.17.11-.26l.03-.09c.05-.12.09-.23.13-.35v-.02l.09-.33.02-.12c.02-.08.03-.17.05-.25l.02-.13.03-.26.01-.12c.01-.12.01-.25.01-.37v-56.11c0-3.52-3.62-6.39-8.03-6.39h-39.66v1.66h37.57c4.42 0 8.03 2.87 8.03 6.39m-231.53-6.39h39.66v6.23c0 1.37 1.41 2.49 3.13 2.49H692.5c1.41 0 2.61-.75 3-1.77-.13.03-.26.05-.393.07l-.09.01c-.14.01-.28.02-.42.02H556.7c-1.722 0-3.133-1.12-3.133-2.5v-6.24h-39.66c-.16 0-.315.01-.47.01l-.144.01-.32.03-.16.02-.317.04-.14.02c-.14.02-.27.04-.41.07l-.03.01c-.15.03-.29.06-.44.1l-.1.03c-.11.02-.22.06-.33.09l-.13.04-.31.1-.11.03c-.13.05-.26.1-.38.15h-.02c-.134.06-.27.12-.4.19l-.05.023c-.11.05-.22.11-.33.17l-.08.045c-.1.06-.2.12-.29.18l-.07.04c-.36.23-.69.48-.996.76l-.045.04c-.09.08-.17.16-.254.24l-.04.05c-.09.095-.18.19-.26.29 1.3-.707 2.86-1.12 4.53-1.12m29.69 17.35h16.33c.46 0 .9-.08 1.31-.22.27-.37.43-.79.43-1.24v-.85c0-1.37-1.41-2.49-3.13-2.49h-16.65c-.35 0-.69.05-1.01.14-.34.41-.55.91-.55 1.44v.58c0 1.45 1.49 2.63 3.3 2.63"/>
    <path fill="#fff6d5" d="M556.456 338.61c1.724 0 3.135 1.123 3.135 2.495v.848c0 .45-.15.872-.42 1.238l-.03.06c1.18-.36 2.03-1.27 2.03-2.33v-.85c0-1.37-1.41-2.49-3.13-2.49h-16.66c-1.13 0-2.12.49-2.67 1.21l.09-.02c.32-.09.66-.14 1.02-.14h16.66m133.16 4.8h16.33c.46 0 .91-.08 1.31-.22.27-.36.43-.78.43-1.23v-.85c0-1.37-1.41-2.49-3.13-2.49H687.9c-.357 0-.698.06-1.018.14-.345.42-.55.91-.55 1.45v.59c0 1.45 1.486 2.63 3.3 2.63"/>
    <path fill="#fff6d5" d="M704.532 338.61c1.724 0 3.135 1.123 3.135 2.495v.848c0 .45-.16.872-.425 1.238l-.035.06c1.18-.36 2.027-1.27 2.027-2.33v-.85c0-1.37-1.41-2.49-3.135-2.49h-16.66c-1.13 0-2.13.49-2.68 1.21l.09-.02c.32-.09.66-.14 1.02-.14h16.65"/>
    <path fill="#214478" d="M514.3 385.857h221.208c.925 0 1.683-.603 1.683-1.34v-.3c0-.736-.75-1.34-1.68-1.34H514.3c-.926 0-1.683.604-1.683 1.34v.3c0 .737.757 1.34 1.683 1.34"/>
    <text x="-397.83621" y="815.59985" stroke-width="1px" letter-spacing="0px" font-size="64.14398956px" font-weight="300" font-family="Roboto" word-spacing="0px" text-anchor="middle" color="#000" style="text-indent:0;text-align:center;line-height:125%;text-transform:none;block-progression:tb;-inkscape-font-specification:Roboto Light" overflow="visible" transform="matrix(.703 0 0 .927 898.248 -375.932)">
      <tspan x="-397.83621" y="815.59985">1BBL - 262</tspan>
    </text>
  </g>
  <path fill="#fff" d="M701.284 577.21c24.088 9.884 29.68 30.842 25.06 60.23-2.377 30.33-54.258 52.186-86.813 40.444-93.93 0-181.01-.037-274.95-.037 0-34.845.85-88.33 42.98-91.567 119.26.398 174.47-9.543 293.73-9.07z"/>
  <path fill="#fff" d="M701.314 506.078c38.698-.137 25.03 53.083 25.03 79.176 0 78.28-69.897 5.15-95.597 12.83h-127.17c0-32.56-48.527-65.016 5.732-91.11 67.59.182 124.4-1.154 192-.896z"/>
  <path fill="#fff" d="M516.43 522.432s-75.612-20.76-105.752 65.266h104.005l1.747-65.266z"/>
  <path fill="#564d40" d="M596.983 670.854c0 19.775 15.945 35.804 35.6 35.804 19.652 0 35.598-16.03 35.598-35.804 0-19.765-15.94-35.786-35.59-35.786-19.65 0-35.6 16.02-35.6 35.786"/>
  <path fill="#707571" d="M608.53 670.854c0 13.357 10.764 24.187 24.05 24.187 13.286 0 24.05-10.83 24.05-24.18 0-13.34-10.764-24.17-24.05-24.17-13.286 0-24.05 10.82-24.05 24.17"/>
  <path fill="#d3ceba" d="M622.554 670.854c0 5.554 4.492 10.06 10.025 10.06 5.54 0 10.02-4.506 10.02-10.06 0-5.553-4.49-10.068-10.03-10.068-5.54 0-10.03 4.515-10.03 10.068"/>
  <path fill="#564d40" d="M396.354 670.854c0 19.775 16.16 35.804 36.108 35.804 19.93 0 36.098-16.03 36.098-35.804 0-19.765-16.168-35.786-36.098-35.786-19.947 0-36.108 16.02-36.108 35.786"/>
  <path fill="#707571" d="M408.063 670.854c0 13.357 10.924 24.187 24.397 24.187 13.464 0 24.397-10.83 24.397-24.18 0-13.34-10.933-24.17-24.397-24.17-13.473 0-24.397 10.82-24.397 24.17"/>
  <path fill="#d3ceba" d="M422.28 670.854c0 5.554 4.547 10.06 10.175 10.06 5.61 0 10.165-4.506 10.165-10.06 0-5.553-4.554-10.068-10.165-10.068-5.628 0-10.174 4.515-10.174 10.068"/>
  <path fill="#9ddaec" d="M509.763 533.25v49.738h-82.288s21.506-61.58 82.288-49.74"/>
  <path fill="#c83737" d="M368.588 626.903l358.706-1.35v-9.473h-355.67zm225.96-55.86c0 19.21-15.627 34.786-34.905 34.786-19.28 0-34.903-15.58-34.903-34.79s15.624-34.79 34.903-34.79c19.278 0 34.904 15.57 34.904 34.79"/>
  <path fill="#fff" d="M555.436 589.908h8.677v-37.733h-8.677v37.733z"/>
  <path fill="#fff" d="M540.713 575.367h37.86v-8.65h-37.86v8.65z"/>
  <g transform="translate(23.954 -40.082)">
    <rect width="247.5354" height="74.270668" x="611.4234" y="577.19159" fill="#fff6d5" fill-rule="evenodd" rx="2.8198514"/>
    <path fill="#6c5d53" d="M614.388 585.326c0-1.463.628-2.814 1.678-3.895l.043-.04c.08-.08.16-.16.25-.24l.04-.04c.3-.27.63-.52.99-.75l.07-.04c.09-.06.19-.12.29-.17l.08-.04c.11-.06.22-.12.33-.17l.04-.02.4-.18h.01l.38-.15.11-.03c.1-.04.2-.07.3-.11l.13-.04.32-.09.1-.02c.15-.04.29-.07.44-.1l.03-.01c.14-.03.27-.05.41-.07l.14-.02.32-.04.16-.01c.1-.01.21-.02.32-.02l.14-.01c.15-.01.31-.01.47-.01h39.66v6.23c0 1.37 1.41 2.5 3.13 2.5H803.1c.14 0 .28-.01.42-.02l.09-.01c.134-.02.267-.04.396-.07 1.282-.31 2.224-1.27 2.224-2.39V579h39.66c4.416 0 8.03 2.875 8.03 6.39v56.11c0 .12-.007.246-.015.37l-.01.114-.03.252-.024.126c-.01.087-.03.17-.05.25l-.02.11c-.03.11-.06.22-.1.33v.02c-.04.12-.08.24-.13.35l-.03.09c-.03.09-.07.17-.11.256l-.05.1c-.04.08-.08.16-.13.24l-.05.09c-.06.103-.12.204-.19.303l-.01.02c-.07.11-.15.22-.23.32l-.03.04c-.07.09-.14.18-.22.26l-.05.07c-.07.08-.14.15-.22.23l-.05.05c-.28.29-.6.55-.95.79l-.05.04c-.1.07-.2.14-.3.2l-.05.04c-1.36.84-3.05 1.34-4.89 1.34H622.4c-4.417 0-8.03-2.87-8.03-6.39v-56.13zm248.287 60.595v-65.07c0-4.48-4.606-8.14-10.236-8.14H615.9c-1.408 0-2.75.23-3.974.65-3.67 1.24-6.262 4.14-6.262 7.5v65.08c0 4.48 4.606 8.15 10.235 8.15h236.54c2.64 0 5.06-.81 6.88-2.13 2.05-1.49 3.35-3.63 3.35-6.01"/>
    <path fill="#fffa99" d="M853.8 642.672c-.03.11-.06.218-.093.326.034-.108.064-.216.092-.326m-.1.352c-.04.117-.08.234-.13.348.04-.114.09-.23.13-.348m-.33.79c-.05.08-.09.164-.13.244.04-.08.09-.162.13-.243m.16-.357l-.12.256c.04-.085.08-.17.11-.256m-.81 1.362c-.07.087-.15.175-.22.26.07-.085.15-.173.22-.26m.46-.675c-.06.102-.13.203-.19.302.06-.1.13-.2.19-.302m-.2.315c-.08.11-.15.216-.24.32.08-.104.16-.21.23-.32m.88-2.15c-.02.084-.03.167-.05.25.02-.083.03-.166.05-.25m-233.41-63.18c.13-.027.27-.052.41-.073-.14.02-.28.046-.41.073m233.47 62.797l-.03.256.03-.256m-50.38-54.287l.09-.012-.09.01m-181.59-8.69c.15-.008.31-.013.46-.013-.16 0-.31.008-.47.012m-.47.033c.11-.01.21-.017.32-.024l-.32.024m-.48.056c.1-.014.21-.028.32-.04-.11.012-.21.026-.32.04m-2.79.85c.13-.065.27-.127.4-.186-.14.06-.27.12-.41.186m234.23 65.26c-.07.08-.15.157-.22.233.07-.08.15-.16.22-.24m1.5-3.71c0 .12-.01.25-.02.37 0-.12.01-.25.01-.37M617.47 580.3c.096-.06.194-.12.294-.18-.1.056-.2.115-.297.175m1.657-.81l.31-.104-.31.11m-.482.19c.123-.05.25-.1.38-.15-.13.05-.257.1-.38.15"/>
    <path fill="#fff6d5" d="M621.1 638.762c0-.737.758-1.34 1.685-1.34h221.208c.925 0 1.684.603 1.684 1.34v.3c0 .736-.76 1.34-1.684 1.34H622.785c-.927 0-1.684-.604-1.684-1.34v-.3zm25.622-44.02c0-.534.203-1.03.55-1.446l-.09.024c.55-.72 1.544-1.204 2.674-1.204h16.653c1.72 0 3.13 1.123 3.13 2.494v.85c0 1.06-.85 1.97-2.03 2.328l.03-.053c-.4.14-.85.217-1.31.217h-16.32c-1.82 0-3.3-1.18-3.3-2.625v-.586zm148.075 0c0-.534.204-1.03.55-1.446l-.09.024c.55-.72 1.544-1.204 2.675-1.204h16.652c1.724 0 3.135 1.123 3.135 2.494v.85c0 1.06-.85 1.97-2.03 2.328l.03-.053c-.4.14-.85.217-1.31.217h-16.32c-1.82 0-3.3-1.18-3.3-2.625v-.586zM622.42 647.83h223.5c1.838 0 3.536-.5 4.893-1.336-.118.073-.24.144-.363.212.89-1.028 1.41-2.27 1.41-3.605v-56.11c0-3.51-3.613-6.39-8.03-6.39h-37.572v4.57c0 1.12-.942 2.08-2.226 2.39-.39 1.02-1.59 1.77-2.998 1.77H663.126c-1.724 0-3.135-1.12-3.135-2.49v-6.24h-39.66c-1.67 0-3.24.42-4.53 1.13l.27-.29c-1.05 1.09-1.68 2.44-1.68 3.9v56.11c0 3.52 3.62 6.39 8.03 6.39"/>
    <path fill="#fffa99" d="M617.4 580.348c-.357.23-.69.482-.994.756.304-.274.637-.527.995-.756m-1.29 1.04c.08-.083.17-.164.26-.244-.09.08-.17.16-.25.244m1.74-1.305c.11-.06.22-.118.33-.173-.11.055-.22.113-.33.173m233.33 66.177c-.1.07-.2.137-.3.2.1-.063.21-.13.3-.2m-231.61-66.902l.32-.093-.32.093m231.67 66.867c.34-.242.66-.507.95-.792-.29.285-.61.55-.95.792M620 579.237c.143-.037.29-.07.44-.1-.15.03-.297.063-.44.1"/>
    <path fill="#fff6d5" d="M851.86 586.99v56.113c0 1.335-.52 2.577-1.41 3.605.124-.067.245-.14.363-.212l.056-.035c.1-.06.2-.13.3-.2l.05-.03c.34-.24.66-.5.95-.79l.05-.05c.07-.07.15-.15.22-.23l.06-.06c.07-.08.15-.17.22-.26l.03-.04c.08-.1.16-.21.23-.32l.01-.01c.06-.1.13-.2.19-.3l.05-.08c.04-.08.09-.16.13-.24l.05-.1c.04-.08.08-.17.11-.25l.03-.08c.04-.11.08-.23.12-.34v-.03l.09-.32.02-.11c.02-.08.03-.16.05-.25l.02-.12.03-.25.01-.11c0-.12.01-.24.01-.37V585.4c0-3.513-3.62-6.39-8.03-6.39h-39.66v1.664h37.57c4.42 0 8.03 2.877 8.03 6.39m-231.52-6.4h39.66v6.238c0 1.37 1.41 2.49 3.13 2.49H801c1.41 0 2.61-.75 3-1.77-.13.03-.26.05-.39.07l-.09.01c-.14.01-.28.02-.42.02H665.2c-1.72 0-3.132-1.12-3.132-2.49V579h-39.66c-.154 0-.31.002-.464.01l-.144.003-.32.03-.16.02-.313.04-.14.02c-.137.02-.274.044-.41.07l-.03.007c-.15.03-.295.06-.44.1l-.106.03-.32.09-.13.04c-.11.03-.21.065-.31.1l-.11.04c-.13.047-.26.097-.38.15l-.02.01c-.14.057-.27.12-.4.18l-.05.027c-.11.055-.22.11-.33.17l-.08.047c-.1.06-.2.12-.29.18l-.07.04c-.35.23-.69.48-.99.758l-.05.04c-.09.08-.17.16-.25.246l-.04.04c-.09.1-.18.2-.27.29 1.29-.7 2.85-1.12 4.53-1.12m29.7 17.35h16.32c.47 0 .91-.08 1.31-.218.27-.364.43-.785.43-1.236v-.85c0-1.375-1.41-2.497-3.13-2.497H648.3c-.36 0-.7.06-1.02.14-.35.42-.55.92-.55 1.45v.59c0 1.45 1.48 2.63 3.3 2.63"/>
    <path fill="#fff6d5" d="M664.942 593.155c1.724 0 3.134 1.122 3.134 2.494v.84c0 .45-.158.87-.424 1.24l-.035.05c1.18-.36 2.026-1.27 2.026-2.33v-.85c0-1.37-1.41-2.5-3.134-2.5h-16.66c-1.13 0-2.13.48-2.68 1.2l.09-.03c.32-.09.66-.14 1.02-.14h16.65m133.15 4.79h16.32c.46 0 .9-.08 1.3-.22.26-.37.42-.79.42-1.24v-.85c0-1.38-1.41-2.5-3.14-2.5h-16.65c-.36 0-.7.05-1.02.14-.35.41-.55.91-.55 1.44v.59c0 1.44 1.48 2.62 3.3 2.62"/>
    <path fill="#fff6d5" d="M813.017 593.155c1.724 0 3.135 1.122 3.135 2.494v.84c0 .45-.16.87-.425 1.24l-.034.05c1.18-.36 2.026-1.27 2.026-2.33v-.85c0-1.37-1.42-2.5-3.14-2.5h-16.65c-1.13 0-2.13.48-2.68 1.2l.09-.03c.32-.09.66-.14 1.02-.14h16.65"/>
    <path fill="#6c5d53" d="M622.785 640.4h221.208c.925 0 1.684-.602 1.684-1.34v-.298c0-.737-.76-1.34-1.684-1.34H622.785c-.927 0-1.684.603-1.684 1.34v.3c0 .736.76 1.34 1.69 1.34"/>
    <text x="-798.17456" y="927.50525" stroke-width="1px" letter-spacing="0px" font-size="64.14398956px" font-weight="300" font-family="Roboto" word-spacing="0px" text-anchor="middle" color="#000" style="text-indent:0;text-align:center;line-height:125%;text-transform:none;block-progression:tb;-inkscape-font-specification:Roboto Light" overflow="visible" transform="matrix(.703 0 0 .927 1288.483 -225.141)">
      <tspan x="-798.17456" y="927.50525">S439-BBX</tspan>
    </text>
  </g>
  <path fill="#d89e81" d="M534.708 691.958h38.598v-39.735h-38.598v39.735z"/>
  <path fill="#045" d="M574.4 673.034l4.91.33c12.264 2.968 25.68 5.07 34.612 14.78 5.564 6.048 15.23 56.612 15.23 56.612h-75.725V687.51c10.66 0 21.142-6.58 21.142-14.393m-40.11.248h-6.57c-12.26 2.967-25.7 5.07-34.63 14.78-5.57 6.047-15.23 56.61-15.23 56.61h75.72V687.51c-10.66 0-19.3-6.332-19.3-14.145"/>
  <path fill="#e9b89d" d="M553.197 538.29c18.74 0 48.377 10.004 48.377 56.87 0 27.064-9.396 44.792-13.49 49.696-3.768 4.512-24.95 14.127-34.887 14.127V538.29"/>
  <path fill="#e9b89d" d="M611.705 606.57c.826-7.488-2.974-14.133-8.487-14.845-5.515-.71-10.654 4.788-11.482 12.276-.826 7.49 2.974 14.14 8.49 14.85 5.512.71 10.652-4.78 11.48-12.27m-57.7-68.04c-18.74 0-48.378 10-48.378 56.87 0 27.06 9.397 44.79 13.492 49.7 3.768 4.51 24.948 14.13 34.886 14.13v-120.7"/>
  <path fill="#e9b89d" d="M496.306 606.57c-.826-7.488 2.974-14.133 8.487-14.845 5.515-.71 10.654 4.788 11.48 12.276.828 7.49-2.974 14.14-8.488 14.85-5.512.71-10.654-4.78-11.48-12.27"/>
  <path fill="#fff" d="M554.006 641.535c8.736 0 15.816-2.71 15.816-6.05h-31.63c0 3.34 7.08 6.05 15.814 6.05"/>
  <path fill="#4e3024" d="M592.992 599.112c2.018-4.835 6.01-7.93 10.226-7.387.01 0 .022.006.033.007 1.92-5.56 2.6-12.17-.02-19.182-13.95-37.3 1.9-43.96 1.9-43.96s-15.43-.65-27.4 8.655c8.26-12.016 11.97-15.118 11.97-15.118s-17.34-3.488-35.91 14.34c4.13-9.69 9.08-14.617 9.08-14.617s-38.8.277-52.84 26.633c-8 15.024-8.62 31.297-6.68 43.6.47-.162.96-.293 1.47-.358 1.83-.235 3.62.224 5.22 1.202v-11.5c7.44-3.1 15.28-6.976 14.87-22.48h54.49s-1.24 17.443 13.63 21.705v18.46"/>
  <path fill="#35988c" d="M553.854 691.274c14.057 0 25.205-7.9 25.205-18.157l-5.77-.91c0 7.73-8.98 14.496-19.44 14.516-10.47-.02-19.02-6.372-19.02-14.102l-6.28.67c0 10.26 11.23 17.99 25.29 17.99"/>
  <path fill="#045" fill-rule="evenodd" d="M498.298 692.083h115.156V744.3H498.298z"/>
  <path fill="#005975" d="M315.824 472.34c.018 18.113-14.773 32.74-33.032 32.68-18.262-.06-33.082-14.786-33.1-32.9-.02-18.11 14.773-32.74 33.034-32.68 18.26.06 33.08 14.79 33.098 32.9"/>
  <path fill="#ccc" d="M306.313 472.712c.254 12.977-10.078 23.267-23.072 22.99-13-.275-23.74-11.012-23.99-23.99-.25-12.976 10.08-23.266 23.08-22.99 13 .276 23.74 11.013 23.99 23.99"/>
  <path fill="#d89e81" d="M372.037 480.713l-19.61 45.876-20.563-45.88v-42.46h40.173v42.45"/>
  <path fill="gray" d="M331.864 463.557s-43.072 5.38-48.712 11.043c-4.913 4.934-15.123 52.165-17.486 62.533h86.28V512.23l-20.082-48.673"/>
  <path fill="gray" d="M372.037 463.557s43.067 5.38 48.707 11.043c4.91 4.934 15.123 52.165 17.484 62.533h-86.282V512.23l20.09-48.673"/>
  <path fill="#e9b89d" d="M350.698 316.762c19.505 0 50.35 10.688 50.35 60.77 0 28.917-9.78 47.86-14.042 53.1-3.92 4.82-25.965 15.097-36.308 15.097V316.76"/>
  <path fill="#e9b89d" d="M412.002 389.475c.858-8.004-3.095-15.103-8.833-15.864-5.74-.75-11.09 5.12-11.95 13.12-.87 8 3.09 15.1 8.83 15.86 5.74.76 11.08-5.11 11.94-13.11m-57.93-72.71c-19.51 0-50.35 10.69-50.35 60.77 0 28.92 9.78 47.86 14.04 53.1 3.92 4.82 25.96 15.1 36.31 15.1V316.76"/>
  <path fill="#e9b89d" d="M291.896 389.475c-.86-8.004 3.095-15.103 8.832-15.864 5.742-.75 11.09 5.12 11.95 13.12.86 8-3.096 15.1-8.833 15.86-5.74.76-11.09-5.11-11.95-13.11"/>
  <path fill="#2c2f35" d="M308.302 390.352h3.478s-2.116-13.043 4.088-17.254v-8.425s-2.4-.27-2.4-10.186c0-9.92 12.265-16.983 38.48-16.983v-36.28s-51.822 1.064-51.822 37.317v35.11s3.783-.64 6.485 1.54c2.92 2.36 1.7 15.17 1.7 15.17m85.8 0h-3.47s2.11-13.04-4.08-17.25v-8.42s2.4-.27 2.4-10.18c0-9.92-12.26-16.98-38.48-16.98v-36.28s51.83-1.14 51.83 35.12v37.3s-3.78-.64-6.48 1.54c-2.91 2.36-1.69 15.17-1.69 15.17"/>
  <path fill="#9fb2be" d="M351.948 512.23l-13.65-44.966-5.04 20.264 18.69 24.7"/>
  <path fill="#666" d="M331.296 458.903l7.167 8.977-5.206 19.648-11.008-14.312 9.04-14.313"/>
  <path fill="#9fb2be" d="M351.95 512.23l12.362-45.495 6.33 20.793-18.692 24.7"/>
  <path fill="#666" d="M372.6 458.903l-8.453 8.445 6.496 20.18 11.96-14.312-10.003-14.313"/>
  <path fill="#fff" d="M351.946 424.158c9.093 0 16.46-2.893 16.46-6.466h-32.92c0 3.573 7.368 6.466 16.46 6.466"/>
  <g transform="translate(-496.535 78.57)">
    <rect width="247.5354" height="74.270668" x="614.50641" y="446.22119" fill="#fff6d5" fill-rule="evenodd" rx="2.8198514"/>
    <path fill="#008066" d="M618.63 455.225c0-1.463.63-2.814 1.68-3.894l.04-.04c.083-.08.167-.16.255-.24l.044-.04c.3-.27.63-.52.99-.75l.07-.04c.09-.06.19-.12.29-.17l.08-.04c.11-.06.22-.12.33-.17l.04-.02c.13-.06.26-.12.4-.18l.01-.01c.12-.05.25-.1.38-.15l.11-.04c.1-.03.2-.07.3-.1l.12-.04c.1-.03.21-.06.32-.09l.1-.03c.14-.03.29-.07.44-.1l.03-.01c.13-.02.27-.05.41-.07l.14-.02.31-.04.16-.01.32-.03.14-.01c.15-.01.31-.01.46-.01h39.66v6.24c0 1.38 1.41 2.5 3.13 2.5H807.3c.14 0 .28-.01.42-.02l.09-.01c.136-.01.27-.04.398-.07 1.285-.31 2.23-1.26 2.23-2.38v-6.24h39.66c4.42 0 8.03 2.88 8.03 6.39v56.11c0 .12-.005.25-.014.37l-.01.11-.03.26-.02.12c-.018.08-.03.17-.05.25l-.028.11c-.03.11-.06.22-.1.33l-.01.03c-.04.12-.08.24-.13.35l-.04.09c-.035.09-.073.18-.113.26l-.05.1c-.04.08-.085.16-.13.24l-.05.09c-.06.11-.124.21-.19.31l-.01.02c-.074.11-.15.21-.233.32l-.03.04c-.07.09-.14.18-.216.26l-.06.07c-.07.08-.15.157-.22.23l-.06.056c-.29.287-.607.55-.95.79l-.053.03-.3.2-.05.03c-1.35.84-3.05 1.34-4.89 1.34H626.6c-4.416 0-8.03-2.88-8.03-6.39V455.3zm248.29 60.595v-65.075c0-4.48-4.606-8.145-10.236-8.145h-236.54c-1.407 0-2.75.23-3.974.643-3.67 1.24-6.26 4.142-6.26 7.502v65.075c0 4.48 4.605 8.145 10.234 8.145h236.54c2.645 0 5.064-.81 6.886-2.132 2.055-1.492 3.35-3.638 3.35-6.013"/>
    <path fill="#fffa99" d="M858.042 512.572c-.028.11-.058.218-.092.325.034-.107.064-.216.092-.325m-.1.35c-.038.12-.08.235-.127.35.046-.115.09-.23.127-.35m-.33.792c-.04.082-.084.163-.13.243.046-.08.09-.16.13-.243m.168-.357c-.038.087-.076.172-.117.256.04-.084.08-.17.116-.256m-.81 1.36c-.07.09-.15.177-.22.263.07-.086.15-.173.22-.262m.46-.674c-.06.103-.13.204-.19.303.06-.1.13-.2.19-.303m-.2.316c-.08.108-.15.216-.24.32.08-.104.16-.212.23-.32m.88-2.15c-.02.084-.03.167-.05.25.02-.083.03-.166.05-.25m-233.4-63.18c.13-.028.27-.052.41-.074-.14.022-.28.046-.41.073m233.46 62.79l-.03.25.03-.26m-50.38-54.29l.09-.01-.1.01m-181.59-8.69c.16-.01.31-.01.47-.01-.15 0-.31 0-.47.01m-.46.03l.32-.03c-.11 0-.21.01-.32.02m-.47.05l.32-.04-.32.04m-2.79.85c.13-.07.27-.13.4-.19-.14.05-.27.12-.4.18M856.69 515c-.07.08-.15.16-.22.237.07-.08.15-.158.22-.237m1.5-3.703c0 .126-.01.25-.02.374.006-.12.01-.25.01-.37m-236.47-61.1c.097-.06.195-.12.295-.17l-.295.18m1.658-.81c.103-.04.205-.07.31-.11-.105.03-.207.07-.31.1m-.488.19c.125-.06.252-.11.38-.15l-.38.15"/>
    <path fill="#fff6d5" d="M625.344 508.66c0-.735.757-1.338 1.683-1.338h221.21c.924 0 1.682.603 1.682 1.34v.298c0 .737-.76 1.34-1.69 1.34H627.02c-.924 0-1.68-.603-1.68-1.34v-.3zm25.62-44.02c0-.532.204-1.03.55-1.445l-.09.025c.55-.72 1.544-1.204 2.675-1.204h16.65c1.72 0 3.13 1.122 3.13 2.494v.848c0 1.06-.85 1.97-2.03 2.33l.03-.054c-.4.14-.85.218-1.31.218h-16.32c-1.82 0-3.3-1.182-3.3-2.626v-.586zm148.076 0c0-.532.204-1.03.55-1.445l-.09.025c.55-.72 1.544-1.204 2.675-1.204h16.652c1.724 0 3.135 1.122 3.135 2.494v.848c0 1.06-.846 1.97-2.027 2.33l.035-.054c-.402.14-.844.218-1.307.218H802.34c-1.815 0-3.3-1.182-3.3-2.626v-.586zm-172.378 53.09h223.5c1.84 0 3.537-.5 4.894-1.334-.12.072-.24.144-.363.212.89-1.03 1.41-2.27 1.41-3.606v-56.114c0-3.515-3.613-6.39-8.03-6.39H810.5v4.572c0 1.12-.94 2.074-2.225 2.386-.392 1.022-1.59 1.77-2.998 1.77H667.37c-1.725 0-3.136-1.122-3.136-2.493v-6.235h-39.66c-1.68 0-3.24.415-4.532 1.122.085-.098.175-.195.267-.29-1.05 1.08-1.68 2.433-1.68 3.896v56.114c0 3.514 3.61 6.39 8.03 6.39"/>
    <path fill="#fffa99" d="M621.643 450.247c-.357.23-.69.482-.994.757.3-.275.63-.527.99-.757m-1.29 1.04c.08-.082.16-.163.25-.243-.09.08-.17.16-.26.244m1.73-1.305c.11-.06.22-.118.33-.174-.11.05-.22.11-.33.17m233.33 66.18c-.1.07-.2.13-.31.2.1-.07.2-.13.3-.2m-231.6-66.91c.1-.04.21-.07.32-.1l-.33.09m231.67 66.87c.35-.24.66-.5.95-.79-.29.29-.6.55-.95.79m-231.24-66.98c.15-.04.29-.07.44-.1-.15.03-.29.06-.44.1"/>
    <path fill="#fff6d5" d="M856.104 456.888v56.114c0 1.335-.522 2.577-1.41 3.606.123-.068.243-.14.362-.212l.056-.035c.104-.06.205-.13.305-.2l.052-.03c.34-.24.66-.5.94-.79l.05-.05c.07-.07.15-.15.22-.23l.05-.06c.07-.08.15-.17.22-.26l.03-.04c.08-.1.16-.21.23-.32v-.01c.07-.1.13-.2.19-.3l.05-.08c.05-.08.09-.16.13-.24l.05-.1c.04-.08.08-.17.11-.26l.04-.08c.05-.11.09-.23.13-.35v-.02l.09-.33.02-.11c.02-.08.03-.16.05-.25l.02-.12.03-.25.01-.11c.01-.12.01-.25.01-.37v-56.12c0-3.52-3.62-6.39-8.03-6.39H810.5v1.66h37.57c4.42 0 8.032 2.87 8.032 6.39m-231.592-6.38h39.675v6.27c0 1.38 1.41 2.51 3.135 2.51h137.956c1.408 0 2.607-.75 3-1.78-.13.04-.263.06-.398.08l-.092.01c-.137.02-.277.03-.42.03H669.41c-1.724 0-3.135-1.13-3.135-2.51v-6.27H626.6c-.157 0-.313.01-.468.01l-.145.01-.32.03-.16.02-.316.04-.14.02c-.13.02-.27.05-.41.08l-.03.01c-.15.03-.29.07-.44.1l-.1.03-.32.09-.12.04c-.1.04-.2.07-.3.11l-.1.04c-.13.05-.25.1-.38.15l-.01.01c-.13.06-.27.12-.4.19l-.04.02-.33.18-.08.05c-.1.06-.2.12-.29.18l-.07.04c-.36.23-.69.488-.99.76l-.04.045c-.08.08-.17.16-.25.243l-.04.04c-.09.096-.18.19-.27.29 1.29-.71 2.86-1.13 4.54-1.13m29.75 17.35h16.32c.47 0 .91-.08 1.31-.22.27-.367.43-.79.43-1.24v-.85c0-1.374-1.42-2.496-3.14-2.496h-16.66c-.35 0-.7.05-1.01.14-.34.414-.55.91-.55 1.443v.59c0 1.44 1.49 2.623 3.3 2.623"/>
    <path fill="#fff6d5" d="M669.184 463.055c1.724 0 3.135 1.122 3.135 2.494v.84c0 .45-.16.87-.43 1.24l-.04.05c1.18-.36 2.02-1.27 2.02-2.33v-.85c0-1.38-1.41-2.5-3.14-2.5H654.1c-1.132 0-2.125.48-2.676 1.2l.09-.03c.32-.09.662-.14 1.018-.14h16.653m133.155 4.8h16.323c.463 0 .905-.08 1.307-.22.266-.37.425-.79.425-1.24v-.85c0-1.38-1.41-2.5-3.135-2.5h-16.653c-.356 0-.697.05-1.017.14-.346.41-.55.91-.55 1.44v.59c0 1.44 1.485 2.62 3.3 2.62"/>
    <path fill="#fff6d5" d="M817.26 463.055c1.724 0 3.135 1.122 3.135 2.494v.84c0 .45-.16.87-.425 1.24l-.035.05c1.18-.36 2.027-1.27 2.027-2.33v-.85c0-1.38-1.41-2.5-3.135-2.5h-16.652c-1.13 0-2.125.48-2.676 1.2l.09-.03c.32-.09.66-.14 1.01-.14h16.65"/>
    <path fill="#008066" d="M627.027 510.3h221.21c.924 0 1.682-.603 1.682-1.34v-.3c0-.735-.76-1.338-1.69-1.338H627.02c-.924 0-1.68.603-1.68 1.34v.298c0 .737.757 1.34 1.683 1.34"/>
    <text x="168.6825" y="586.04218" stroke-width="1px" letter-spacing="0px" font-size="44.48646545px" font-weight="300" font-family="Roboto" word-spacing="0px" text-anchor="middle" color="#000" style="text-indent:0;text-align:center;line-height:125%;text-transform:none;block-progression:tb;-inkscape-font-specification:Roboto Light" overflow="visible" transform="matrix(1.015 0 0 1.338 559.816 -278.746)">
      <tspan x="168.6825" y="586.04218">SB-04-CS</tspan>
    </text>
  </g>
  <path fill="#e9b89d" d="M537.1 558.654c19.904 0 51.378 6.108 51.378 34.724 0 16.524-9.98 27.348-14.328 30.343-4 2.76-26.497 8.63-37.05 8.63v-73.69"/>
</svg>
