<svg xmlns="http://www.w3.org/2000/svg" width="1000" height="1000" id="fleet"><defs><radialGradient fx="0" fy="0" cx="0" cy="0" r="1" gradientUnits="userSpaceOnUse" gradientTransform="matrix(400 0 0 -400 400 400)" spreadMethod="pad" id="a"><stop offset="0" stop-color="#fff"/><stop offset="1" stop-color="#fff"/></radialGradient></defs><path d="M523.33702 471.749707c.00694175 6.70451033-5.4677719 12.1183051-12.22554938 12.09619056-6.7607903-.0221244-12.2467518-5.47178753-12.25369356-12.17629786-.00694174-6.70451033 5.46777192-12.1183051 12.2285622-12.0961807 6.75777748.02211454 12.243739 5.47177767 12.25068074 12.176288" fill="#fff"/><path d="M262.56231 293.438427c.0014663 1.41619336-1.15427248 2.55970325-2.58235386 2.5550299-1.42808137-.00467332-2.58619594-1.1557552-2.58766225-2.57194856l-.02507568-24.21869907c-.0014694-1.4191811 1.1542694-2.562691 2.58235077-2.55801766 1.42808136.00467335 2.58619593 1.15575522 2.58766533 2.57493633L262.56231 293.438427zM247.86693 298.472707c.449651.71554122-.16675103 1.8996567-1.37411936 2.64562826-1.21037806.74894946-2.5570821.77441982-3.00673.06186635l-7.70136016-12.2121921c-.449651-.71554123.1637382-1.89966655 1.37411626-2.648616 1.21038116-.74596172 2.5570852-.7714321 3.0067331-.0588786L247.86693 298.472707zM271.47507 298.938207c-.44817232.71260313.17068592 1.90076093 1.37960717 2.6546397 1.21193718.7568764 2.55870308.79116103 3.0068785.08154565l7.67612363-12.16186994c.4481723-.71260313-.1676731-1.90075107-1.37961027-2.65762746-1.21193408-.75388863-2.55869998-.78817326-3.0068754-.07855788L271.47507 298.938207zM274.76856 322.040077c.00863697 8.34179716-6.80239348 15.08375075-15.2172274 15.05621356-8.4148339-.0275372-15.2428844-6.8141241-15.25152138-15.15592127-.00863697-8.34179717 6.80540322-15.08672865 15.22023713-15.05919146 8.4148339.0275372 15.23987468 6.817102 15.24851165 15.15889916" fill="#a02c2c"/><path d="M590.8368 471.971497l-295.62192-.96741-.22338-215.76034 295.62187.9674.22343 215.76035z" fill="#fff"/><path d="M508.8939 348.395457c.0372825 36.00835938-29.37084906 65.10831365-65.68750068 64.98946892-36.31363878-.11883487-65.77620346-29.41144102-65.81348597-65.4198004-.0372856-36.01134714 29.36482032-65.11132112 65.6784591-64.99248625 36.3166516.11884472 65.78524196 29.4114706 65.82252755 65.42281773" fill="#c83737"/><path d="M451.59816 383.568737l-16.3416-.0535-.0732-70.72304 16.34161.0535.0732 70.72302z" fill="#fffeff"/><path d="M407.47244 339.958697l71.31971.23341.0168 16.20854-71.31971-.2334-.0168-16.20854z" fill="#fffeff"/><path d="M188.65657 470.652677l107.6152712.35216648-.15416927-148.9004818-70.0121412-.2291118s-28.27550693 52.18992443-33.0905026 72.06653766C188.54203186 412.40631914 188.65657 470.652677 188.65657 470.652677" fill="#fff"/><path d="M203.93792 391.879547l79.52665804.26024767-.05924304-57.2183945-53.1613836-.17396842L203.93792 391.879547z" fill="#2ad4ff"/><path d="M590.8116 447.149277l-401.77376-1.94075.29021-9.02053 401.47302 1.31682z" fill="#c83737"/><path d="M545.02907 473.929217c.01875262 18.11173868-14.7710984 32.7391163-33.02884758 32.6793686-18.26076203-.0597576-33.07799045-14.78402315-33.09674307-32.89576183-.01874952-18.10875093 14.76808556-32.73912618 33.0288476-32.6793686 18.25774918.05974773 33.07799353 14.7870109 33.09674305 32.89576183" fill="#005975"/><path d="M535.60296 474.538797c.2530206 12.97633773-10.0799639 23.26559055-23.07428532 22.9897934-13.0001147-.2759201-23.74307376-11.01249795-23.99609437-23.98883568-.2530206-12.97633774 10.0799639-23.26559055 23.0800786-22.98967045 12.99432144.27579715 23.7372805 11.012375 23.9903011 23.98871273" fill="#ccc"/><g transform="translate(16.82 -24.67)"><rect width="247.5354" height="74.270668" x="504.06427" y="322.0451" rx="2.8198514" fill="#fff6d5" fill-rule="evenodd"/><path d="M505.90262354 330.78179544c0-1.46301163.62835348-2.8142649 1.67823013-3.89494145l.04243847-.042984c.08170726-.0827812.16593265-.1640061.25322207-.2436747l.04402332-.04001956c.30434193-.27420815.63699965-.52714663.9948299-.75636982l.06841223-.04224288c.09676323-.06077045.19503206-.11946582.29491214-.17638254l.08021045-.0452073c.10774265-.06002934.21784494-.1179095.32951447-.17378866l.04719298-.0237153c.13212275-.06521708.26582154-.12732152.4026548-.1862392l.01576033-.00741104c.1250262-.05335943.25242965-.10405088.38140914-.15266724l.10773383-.03853736c.10150014-.03631405.20367824-.0711459.307494-.10449554l.12582743-.04001957c.1061666-.03260854.21390925-.06299377.3224267-.092045l.1061666-.02816193c.14471343-.03705515.29098527-.0711459.43961677-.1013829l.03072827-.00741104c.135266-.0274208.27209926-.0518772.41051734-.0733692l.13998533-.0200098c.10459057-.01482205.20918115-.0281619.31534776-.04001955l.1596461-.01630427c.10616662-.00963433.21312565-.01778647.3208683-.0244564l.1446958-.00889323c.15493563-.00741103.31063727-.01185765.46792374-.01185765h39.66104722v6.23482627c0 1.37141128 1.41084136 2.49403425 3.13468845 2.49403425H694.63861c.14234497 0 .28232148-.01037544.41994714-.0251975l.09203513-.01111655c.1344912-.01778647.26739758-.04001957.39635945-.0711459 1.28423914-.3119303 2.22559834-1.26535943 2.22559834-2.38590732v-6.23482627h39.66181322c4.41736036 0 8.03098718 2.87577648 8.03098718 6.39053204v56.11418495c0 .12472764-.00616326.2488624-.0141755.37203374l-.0117102.11531565c-.0079242.08589384-.0181376.17067603-.02993585.25553234l-.0204268.12680274c-.01505598.08426342-.03143265.1675634-.05027463.2508634l-.02518133.11175834c-.02747054.1091645-.05749444.2178102-.09203513.32541837l-.00704372.0259386c-.0385644.11739073-.08100288.23381803-.12740345.348689l-.03618716.08530098c-.03706762.08641262-.07475158.1717877-.1156052.25612523l-.05027462.10086414c-.0417341.08174367-.084965.16296857-.13133034.24315593l-.04957023.08685728c-.06048803.10242045-.12346777.2033587-.19032157.3026665l-.0079242.01259876c-.07395915.10864572-.15177475.21573512-.23356125.32023066l-.03064022.03779626c-.07017315.0884877-.142433.17593787-.217933.26123884l-.05749443.06521707c-.0715819.07922392-.14549703.15726208-.22178062.23389214l-.0534443.05410053c-.28782438.28502825-.6055494.54937973-.94921295.7914981l-.05185946.03557296c-.09984486.0689226-.20131858.13599242-.30512554.20069072l-.05582156.03483184c-1.35737065.83551964-3.0552616 1.3347267-4.89393028 1.3347267H513.93521316c-4.41730753-.00007412-8.03172677-2.8758506-8.03172677-6.39060616v-56.11418494zm248.2872749 60.59482018v-65.0753813c0-4.47952358-4.60608827-8.1448713-10.23611467-8.1448713H507.4141286c-1.4069145 0-2.75012725.2292232-3.97380792.6425364-3.67104202 1.24112536-6.26153195 4.14224755-6.26153195 7.5023349v65.0753813c0 4.47959768 4.6061059 8.1448713 10.23533987 8.1448713h236.53965517c2.64553667 0 5.0637898-.80913638 6.88594094-2.1319313 2.0557212-1.49198876 3.35017374-3.6378528 3.35017374-6.01294" fill="#214478"/><path d="M745.31351407 388.12828662c-.02747054.1091645-.05749444.2178102-.09203513.32541837.03469037-.10760818.06445013-.2162539.09203513-.32541838M745.2144264 388.4795695c-.0385644.11739072-.08100288.23381802-.12740344.348689.04640056-.11487098.08884784-.23129828.12740345-.348689M744.88491195 389.27054883c-.0417341.08174367-.084965.16296857-.13133914.24315592.04648863-.08018735.0896755-.16141225.13133915-.24315592M745.0508446 388.91363357c-.03706762.08641262-.07466353.1717136-.1155964.25605112.04094168-.08433754.07871367-.1696385.1155964-.25605113M744.24082454 390.27474353c-.06999706.0884136-.14234496.17586376-.21783613.26116473.07545596-.08530097.14784788-.17275113.21783614-.26116473M744.70402898 389.60063615c-.06057607.10242045-.12345896.20328458-.19030395.3026665.06682738-.09938192.1297543-.20024605.19030395-.3026665M744.50506124 389.91619785c-.07395916.1086457-.15177476.2157351-.23357006.32023065.0817953-.10449554.15965492-.21158494.23357006-.32023065M745.38900524 387.76566487c-.01505597.08433753-.03143264.16763752-.05027462.2508634.01893002-.08322588.03539474-.16652587.05027462-.2508634M511.97539235 324.58572886c.135266-.0274208.27210806-.05187722.41050854-.0733692-.1384005.02149198-.27524254.0459484-.41050855.0733692M745.4393415 387.38332978c-.0079242.08589385-.0181376.17075016-.02993586.25560646.01179825-.0848563.02201165-.1697126.02993585-.25560646M695.05852193 333.0947782l.09204393-.01111653-.09204393.01111654M513.4664618 324.40312106c.154918-.00741103.31062845-.01185765.46791493-.01185765-.15728648 0-.31299692.00741104-.46791494.01185766M513.0008889 324.43624837c.1061666-.00963434.21312563-.01778648.32086828-.0244564-.10774265.00741103-.21470168.01482206-.3208683.0244564M512.525895 324.49212754c.10459058-.01482206.20918996-.02816192.31535657-.04001957-.1061666.01185765-.210766.0251975-.31535656.04001957M509.73566253 325.3415799c.13212275-.06521706.26659635-.1272474.40264598-.1862392-.13683324.05928825-.27052322.12109625-.40264597.1862392M743.965582 390.60112533c-.0715819.0791498-.14549702.15726208-.2217806.23381803.0763364-.07655595.15021632-.15466822.2217806-.23381803M745.46528883 386.8960545c0 .12465354-.0052828.2487883-.0141755.37195964.0079242-.12317134.0141755-.2473061.0141755-.37195965M508.98384128 325.76111838c.09676323-.06077046.19503206-.11946582.29491214-.17638254-.09985367.05706494-.19818413.11590853-.29491214.17638254M510.64319422 324.95776262c.10150014-.03631405.20367824-.0711459.3074852-.10456965-.10380696.03334964-.2060379.0681815-.3074852.10456965M510.15404244 325.14911544c.125035-.05335942.25243845-.10397677.38140913-.15259313-.12897068.0489128-.25637413.09930783-.38140913.15259314" fill="#fffa99"/><path d="M512.61554407 384.2178561c0-.73673058.75733297-1.3399144 1.68374186-1.3399144h221.2082828c.92562528 0 1.68373306.60318382 1.68373306 1.3399144v.298961c0 .73665648-.7581078 1.3399144-1.68373306 1.3399144h-221.2082828c-.9264089 0-1.68374187-.60325792-1.68374187-1.3399144v-.298961zm25.62098415-44.021161c0-.53285312.20367824-1.0294663.55049386-1.4449287l-.0912163.0244564c.55128628-.7196111 1.54454016-1.20429254 2.6754197-1.20429254h16.65257345c1.72383828 0 3.13391364 1.12254887 3.13391364 2.49403426v.84841483c0 1.0610373-.8454148 1.97051904-2.02583817 2.3289906l.03451427-.0526183c-.40186237.13917915-.84383877.2172914-1.30782683.2172914h-16.323059c-1.81428856 0-3.29905386-1.18161477-3.29905386-2.62550594v-.58606432zm148.07537244 0c0-.53285312.20368704-1.0294663.55049385-1.4449287l-.09121628.0244564c.55128628-.7196111 1.54454015-1.20429254 2.6754197-1.20429254h16.65257344c1.7238559 0 3.13469726 1.12254887 3.13469726 2.49403426v.84841483c0 1.0610373-.84619842 1.97051904-2.0266218 2.3289906l.03451428-.0526183c-.40185356.13917915-.84382996.2172914-1.3070344.2172914h-16.3238426c-1.81427977 0-3.2990627-1.18161477-3.2990627-2.62550594v-.58606432zm-172.37752393 53.08989143h223.49994253c1.83865106 0 3.5365508-.49920705 4.89392147-1.33465258-.11874847.0726281-.23908178.14429278-.36332436.2121037.8886545-1.02850287 1.41084136-2.27059167 1.41084136-3.60531835v-56.11418495c0-3.51475556-3.61362682-6.39060614-8.0317708-6.39060614h-37.5714985v4.57216148c0 1.1205479-.9413592 2.07397702-2.22558953 2.38590732v-.00037055c-.39164016 1.0222035-1.5901571 1.77131052-2.9978552 1.77131052H554.6405901c-1.7238559 0-3.13470606-1.12262298-3.13470606-2.49403427v-6.23482627h-39.6610384c-1.67742892 0-3.23927904.4153883-4.53058832 1.12254887.084965-.09827027.17457883-.19498423.26659635-.2896972-1.04987665 1.08075065-1.67823013 2.43200393-1.67823013 3.89501556v56.11418494c0 3.51475557 3.61441924 6.39053204 8.0317532 6.39053204" fill="#fff6d5"/><path d="M508.91542025 325.8035836c-.35782144.22914906-.69048797.48208755-.9948299.7562957.30434193-.27413404.63700846-.52662786.9948299-.7562957M507.62332736 326.84394412c.08170726-.08278122.16593265-.16400612.25322207-.2436747-.08734225.07966858-.17143557.16089348-.25322207.2436747M509.3589639 325.5392321c.10774263-.06002934.21784492-.1179836.32951445-.17386278-.11166953.05558274-.22177182.11383344-.32951446.1738628M742.68920544 391.7164855c-.09985367.0689226-.2013186.13606653-.30513435.20076483.10381575-.06447597.20526306-.13191635.30513434-.20076483M511.07651564 324.81339573c.1061666-.03260853.21390045-.06299376.3224267-.0921191-.10852625.028903-.2162601.05928824-.3224267.0921191M742.74111772 391.68083844c.34366356-.24211838.66137977-.50654397.94921296-.79157222-.2878332.2845836-.6055494.54945384-.94921296.79157222M511.50510896 324.69281826c.14471342-.03705516.29098526-.0711459.43960795-.1013829-.14862268.03038522-.29489452.06447597-.43960794.1013829" fill="#fffa99"/><path d="M743.37575773 332.44453435v56.11418495c0 1.33472668-.52218687 2.57681548-1.41084136 3.60531836.12424258-.06744038.2445759-.13925327.36332436-.2121037l.05582155-.03483185c.10380696-.06447596.20525427-.13199046.30513435-.20076482l.0519475-.03557295c.34366356-.24211838.66137097-.50698863.94920416-.7914981l.0534443-.05410054c.0763364-.07655596.1502075-.15466823.2217718-.23381804l.05749444-.06521707c.07545595-.0853751.14784788-.17282525.21783614-.26123885l.03064022-.03779626c.08170726-.10449555.15963732-.21165906.23357006-.32030477l.0079242-.01259875c.06682738-.09930782.1297543-.20017195.19032156-.3025924l.04957025-.0869314c.0464886-.08018735.08967548-.16133814.13133033-.2430818l.05027462-.10093825c.04094167-.08426342.07862563-.1696385.1155964-.25605112l.03618716-.08537507c.04640057-.11487098.08884784-.23122417.12740345-.348689l.00704373-.02593862c.03469037-.10760816.06445012-.21625387.09203513-.32534425l.02518132-.11175835c.01884198-.08329998.03539474-.16659997.05027462-.2509375l.0204268-.12672863c.01179826-.0848563.02201167-.1697126.02993586-.25553235l.0117102-.11538976c.0079242-.12317133.0141755-.2473061.0141755-.37195964v-56.11418495c0-3.51475556-3.6136268-6.39060614-8.03097837-6.39060614H697.7716872v1.66273892h37.57150732c4.41814397 0 8.0317708 2.87577647 8.0317708 6.39053203M511.84484563 326.0539282h39.6610384v6.2349004c0 1.37141128 1.41085018 2.49403426 3.13470607 2.49403426h137.9084536c1.4076981 0 2.60621504-.74910702 2.9978552-1.77138463v.00044466c-.1289707.03112632-.26187705.0533594-.39635946.0711459l-.09203512.01111653c-.13762567.01482206-.27761098.0251975-.41994714.0251975h-137.9084712c-1.72383828 0-3.13468845-1.12262297-3.13468845-2.49403425v-6.2349004H513.9343503c-.15728646 0-.3129969.00741105-.46792373.01185766l-.1446958.00889324c-.10774265.00741103-.21470168.01408096-.3208683.0244564l-.15964612.01630427c-.1061666.01185765-.21075718.0251975-.31534776.04001957l-.13999412.02000978c-.13840928.021492-.27525134.0459484-.41050855.0733692l-.03072827.00741104c-.1486315.02964413-.29490333.06447597-.43961675.10145702l-.1061666.0281619c-.10851745.02890303-.2162601.05928826-.3224267.09204502l-.12582743.04001957c-.10381576.03334964-.2060467.06818148-.307494.10449553l-.10773384.03853736c-.12897948.0489128-.25638294.09938193-.38140913.15266724l-.01576035.00741103c-.13604963.05928826-.27053203.12102215-.40265478.18623922l-.047193.0237153c-.11167832.05558273-.2217718.11375933-.32951445.17378868l-.08021047.0452073c-.09985366.05706493-.19818412.1159085-.29491214.17638253l-.0684122.04224287c-.35783026.22974196-.69048798.48216168-.99482992.75636983l-.0440233.04001956c-.08734225.07966858-.17143557.16089348-.25322207.2436747l-.04243846.04298397c-.09203513.09463887-.18166658.19142693-.26659635.2896972 1.29130927-.70716057 2.8531594-1.12262297 4.5305883-1.12262297M541.5355733 343.4082654h16.3230678c.46398804 0 .90596445-.07811227 1.3078268-.21729143.26580394-.36573438.42466645-.78682916.42466645-1.23793862v-.84789606c0-1.37200418-1.41085017-2.49403427-3.13468845-2.49403427h-16.65257345c-.35625422 0-.69756693.05261832-1.01685037.14066137-.34681562.4154624-.55049386.91207558-.55049386 1.4449287v.58613845c0 1.44389117 1.4847653 2.62543185 3.29904507 2.62543185" fill="#fff6d5"/><path d="M556.4564459 338.61110503c1.72383828 0 3.13468845 1.1220301 3.13468845 2.49403426v.84789605c0 .45110946-.1588625.87220424-.42466644 1.23793862l-.03451426.05261832c1.18042337-.3585457 2.02582056-1.2679533 2.02582056-2.32899062v-.84841482c0-1.3714854-1.41005775-2.49410838-3.13389603-2.49410838h-16.65257345c-1.13087954 0-2.12414222.48475554-2.6754197 1.20436665l.0912163-.0244564c.31928344-.0884877.66059615-.14073548 1.01684156-.14073548h16.65258226M689.61095453 343.4082654h16.3238514c.46319565 0 .90517205-.07811227 1.30703442-.21729143.26581273-.36573438.42466643-.78682916.42466643-1.23793862v-.84789606c0-1.37200418-1.41085017-2.49403427-3.13468845-2.49403427h-16.65257345c-.35625422 0-.6967745.05261832-1.01685037.14066137-.3468068.4154624-.55049384.91207558-.55049384 1.4449287v.58613845c0 1.44389117 1.4847653 2.62543185 3.29905387 2.62543185" fill="#fff6d5"/><path d="M704.53181833 338.61110503c1.72383828 0 3.13468845 1.1220301 3.13468845 2.49403426v.84789605c0 .45110946-.1588537.87220424-.42466643 1.23793862l-.03451428.05261832c1.18042337-.3585457 2.026613-1.2679533 2.026613-2.32899062v-.84841482c0-1.3714854-1.41085018-2.49410838-3.13468847-2.49410838h-16.65257345c-1.13087954 0-2.12414222.48475554-2.6754197 1.20436665l.0912163-.0244564c.32007587-.0884877.66059615-.14073548 1.01684157-.14073548h16.65258225" fill="#fff6d5"/><path d="M514.29928593 385.8567315h221.2082828c.92562528 0 1.68373306-.6031838 1.68373306-1.3399144v-.298961c0-.73673058-.7581078-1.3399144-1.68373306-1.3399144h-221.2082828c-.9264089 0-1.68374187.60318382-1.68374187 1.3399144v.298961c0 .7367306.75733297 1.3399144 1.68374186 1.3399144" fill="#214478"/><text transform="matrix(.7 0 0 .93 898.25 -375.93)" y="815.59985" x="-397.83621" style="text-indent:0;text-align:center;line-height:125%;text-transform:none;block-progression:tb;-inkscape-font-specification:Roboto Light" font-size="64.14398956" font-weight="300" letter-spacing="0" word-spacing="0" text-anchor="middle" color="#000" overflow="visible" font-family="Roboto"><tspan y="815.59985" x="-397.83621">1BBL - 262</tspan></text></g><path d="M701.2833 577.210587c24.08848 9.88289 29.67943 30.8411 25.0615 60.22881-2.37795 30.32914-54.25895 52.186-86.81432 40.44414-93.93582 0-181.01439-.0365-274.9502-.0365 0-34.84501.84269-88.33128 42.97678-91.56729 119.25684.39767 174.46951-9.54293 293.72624-9.06861z" fill="#fff"/><path d="M701.31401 506.077627c38.69764-.13726 25.03085 53.08276 25.03085 79.17576 0 78.279-69.8985 5.15102-95.59821 12.8316H503.57724c0-32.56187-48.52716-65.01759 5.7318-91.1106 67.59776.18109 124.40737-1.15425 192.00497-.89676z" fill="#fff"/><path d="M516.42912 522.431517s-75.61192-20.76058-105.75109 65.26617h104.00493l1.74616-65.26617z" fill="#fff"/><path d="M596.98223 670.854297c0 19.77448 15.94509 35.80341 35.59899 35.80341 19.65386 0 35.59899-16.02893 35.59899-35.80341 0-19.76582-15.94513-35.78608-35.59899-35.78608-19.6539 0-35.59899 16.02026-35.59899 35.78608" fill="#564d40"/><path d="M608.52839 670.854297c0 13.35602 10.76489 24.18612 24.05105 24.18612 13.28622 0 24.05105-10.8301 24.05105-24.18612 0-13.34736-10.76487-24.1688-24.05105-24.1688-13.28616 0-24.05105 10.82144-24.05105 24.1688" fill="#707571"/><path d="M622.55381 670.854297c0 5.55348 4.49181 10.06026 10.02484 10.06026 5.54161 0 10.02482-4.50678 10.02482-10.06026 0-5.55347-4.48326-10.06887-10.02482-10.06887-5.53303 0-10.02484 4.5154-10.02484 10.06887" fill="#d3ceba"/><path d="M396.35395 670.854297c0 19.77448 16.16021 35.80341 36.10749 35.80341 19.92973 0 36.09857-16.02893 36.09857-35.80341 0-19.76582-16.16884-35.78608-36.09857-35.78608-19.94728 0-36.10749 16.02026-36.10749 35.78608" fill="#564d40"/><path d="M408.06234 670.854297c0 13.35602 10.92474 24.18612 24.39735 24.18612 13.46398 0 24.39739-10.8301 24.39739-24.18612 0-13.34736-10.93341-24.1688-24.39739-24.1688-13.47261 0-24.39735 10.82144-24.39735 24.1688" fill="#707571"/><path d="M422.28015 670.854297c0 5.55348 4.54612 10.06026 10.17429 10.06026 5.61067 0 10.16555-4.50678 10.16555-10.06026 0-5.55347-4.55488-10.06887-10.16555-10.06887-5.62817 0-10.17429 4.5154-10.17429 10.06887" fill="#d3ceba"/><path d="M509.76297 533.248677v49.73895h-82.28794s21.50603-61.58115 82.28794-49.73895" fill="#9ddaec"/><path d="M368.58736 626.903047l358.70641-1.35084v-9.47203H371.6249zM594.54614 571.042157c0 19.21143-15.62546 34.78681-34.90391 34.78681-19.2783 0-34.90227-15.57538-34.90227-34.78681 0-19.21463 15.62397-34.79001 34.90227-34.79001 19.27845 0 34.90391 15.57538 34.90391 34.79001" fill="#c83737"/><path d="M555.43603 589.907657h8.67633v-37.73279h-8.67633v37.73279z" fill="#fff"/><path d="M540.71258 575.366807h37.85929v-8.64957h-37.85929v8.64957z" fill="#fff"/><g transform="translate(23.95 -40.08)"><rect width="247.5354" height="74.270668" x="611.4234" y="577.19159" rx="2.8198514" fill="#fff6d5" fill-rule="evenodd"/><path d="M614.38789177 585.32600045c0-1.4630096.62835345-2.814261 1.67823006-3.89493604l.04243846-.0429839c.08170725-.0827811.16593264-.1640059.25322205-.24367437l.0440233-.04001952c.30434192-.27420775.63699963-.5271459.99482987-.75636876l.06841222-.04224282c.09676322-.06077037.19503205-.11946565.29491212-.1763823l.08021047-.04520722c.10774264-.06002926.21784492-.11790933.32951444-.17378843l.047193-.02371527c.13212273-.06521698.2658215-.12732133.40265475-.18623895l.01576035-.00741102c.12502618-.05335935.25242963-.10405073.3814091-.15266702l.10773385-.0385373c.10150013-.036314.20367823-.0711458.307494-.1044954l.1258274-.0400195c.1061666-.0326085.21390924-.06299368.3224267-.09204488l.1061666-.02816188c.1447134-.0370551.29098525-.0711458.43961673-.10138276l.03072827-.00741103c.135266-.02742077.27209925-.05187714.41051733-.0733691l.1399853-.02000976c.10459058-.01482205.20918115-.02816188.31534775-.04001952l.15964612-.01630424c.1061666-.00963433.21312563-.01778645.32086827-.02445637l.1446958-.00889323c.1549356-.00741102.31063724-.01185763.4679237-.01185763h39.66104542v6.23481762c0 1.37140938 1.4108413 2.4940308 3.1346883 2.4940308h137.90845614c.14234496 0 .28232146-.01037544.41994712-.02519748l.09203512-.01111653c.1344912-.01778644.26739756-.0400195.39635944-.0711458 1.28423908-.31192985 2.22559823-1.26535766 2.22559823-2.385904v-6.2348176H845.919621c4.41736015 0 8.0309868 2.87577247 8.0309868 6.39052315v56.11409955c0 .12472747-.00616326.24886207-.0141755.37203324l-.0117102.11531548c-.0079242.08589373-.0181376.1706758-.02993585.255532l-.0204268.12680256c-.01505598.0842633-.03143265.16756317-.05027463.25086305l-.02518133.1117582c-.02747055.10916432-.05749444.2178099-.09203513.3254179l-.00704373.02593858c-.0385644.11739058-.08100288.2338177-.12740345.34868853l-.03618716.08530085c-.03706763.0864125-.07475158.17178746-.1156052.25612488l-.05027462.100864c-.0417341.08174355-.08496498.16296833-.13133033.24315558l-.04957025.08685716c-.06048802.1024203-.12346776.2033584-.19032156.3026661l-.0079242.01259872c-.07395916.10864556-.15177475.2157348-.23356125.3202302l-.03064022.0377962c-.07017315.0884876-.142433.17593764-.21793297.2612385l-.05749444.06521697c-.0715819.0792238-.14549703.15726185-.2217806.2338918l-.0534443.05410046c-.28782438.28502785-.60554938.54937896-.94921292.791497l-.05185946.0355729c-.09984485.0689225-.20131857.13599224-.30512553.20069045l-.05582154.0348318c-1.3573706.83551848-3.05526146 1.33472483-4.89393005 1.33472483H622.42048104c-4.41730733-.0000741-8.0317264-2.87584658-8.0317264-6.39059726v-56.11409954zM862.6751554 645.920729v-65.07528345c0-4.47951735-4.60608808-8.14485997-10.23611422-8.14485997H615.89939676c-1.40691442 0-2.75012712.22922287-3.97380774.6425355-3.67104185 1.24112363-6.26153166 4.1422418-6.26153166 7.50232447V645.920729c0 4.47959146 4.60610568 8.14485996 10.2353394 8.14485996h236.53964442c2.64553655 0 5.06378958-.80913524 6.88594063-2.13192832 2.0557211-1.4919867 3.3501736-3.63784773 3.3501736-6.01293164" fill="#6c5d53"/><path d="M853.79877142 642.6724045c-.02747054.10916435-.05749443.2178099-.09203512.32541793.03469037-.10760802.06445012-.21625358.09203512-.32541792M853.69968377 643.0236869c-.03856442.11739056-.0810029.2338177-.12740345.34868852.04640056-.11487082.08884784-.23129796.12740345-.34868853M853.37016932 643.81466513c-.0417341.08174356-.08496498.16296835-.13133913.2431556.0464886-.08018725.08967546-.16141204.13133912-.2431556M853.53610197 643.45775038c-.03706763.0864125-.07466353.17171335-.1155964.25605076.04094167-.0843374.07871367-.16963826.1155964-.25605076M852.72608194 644.81885844c-.06999706.08841347-.14234496.17586352-.21783612.26116437.07545594-.08530084.14784787-.1727509.21783612-.26116436M853.18928636 644.144752c-.06057607.1024203-.12345896.2032843-.19030395.30266608.0668274-.0993818.1297543-.20024578.19030396-.3026661M852.99031863 644.46031326c-.07395916.10864556-.15177475.2157348-.23357005.3202302.0817953-.1044954.15965492-.21158464.23357005-.3202302M853.8742626 642.30978327c-.01505598.0843374-.03143265.1676373-.05027463.25086305.01893003-.08322576.03539474-.16652564.05027462-.25086305M620.4606603 579.12994248c.135266-.02742078.27210805-.05187715.41050852-.0733691-.13840047.02149195-.2752425.04594832-.41050852.0733691M853.92459884 641.9274487c-.0079242.08589374-.0181376.17074993-.02993585.25560612.01179823-.0848562.02201164-.16971238.02993584-.2556061M803.54378156 587.63898l.09204393-.01111652-.09204394.01111653M621.95172967 578.94733493c.15491802-.00741102.31062845-.01185763.46791492-.01185763-.15728648 0-.3129969.00741102-.46791493.01185763M621.4861568 578.9804622c.1061666-.00963434.21312563-.01778646.32086827-.02445638-.10774264.00741102-.21470167.01482204-.32086827.02445637M621.01116294 579.0363413c.10459057-.01482205.20918994-.0281619.31535655-.04001952-.10616662.01185763-.210766.02519747-.31535656.0400195M618.22093058 579.88579248c.13212275-.06521698.26659634-.12724722.40264597-.18623895-.13683324.05928817-.27052322.12109608-.40264597.18623895M852.45083943 645.1452398c-.0715819.0791497-.14549703.15726185-.2217806.2338177.0763364-.07655585.1502163-.154668.2217806-.2338177M853.95054617 641.4401741c0 .12465337-.0052828.24878797-.0141755.37195913.0079242-.12317116.0141755-.24730576.0141755-.37195913M617.46910937 580.30533036c.09676323-.06077037.19503205-.11946565.29491213-.1763823-.09985367.05706487-.19818412.11590837-.29491213.1763823M619.12846223 579.50197572c.10150014-.036314.20367823-.0711458.3074852-.1045695-.10380697.0333496-.2060379.0681814-.3074852.1045695M618.63931048 579.69332827c.125035-.05335935.25243844-.10397662.3814091-.1525929-.12897066.04891272-.2563741.09930766-.3814091.1525929" fill="#fffa99"/><path d="M621.100812 638.76197944c0-.73672957.75733293-1.33991254 1.68374177-1.33991254h221.20827277c.92562523 0 1.68373297.60318297 1.68373297 1.33991254v.29896057c0 .73665547-.75810773 1.33991256-1.68373296 1.33991256H622.78455377c-.92640884 0-1.68374177-.6032571-1.68374177-1.33991255v-.29896056zm25.62098298-44.0210924c0-.5328524.20367823-1.0294649.55049383-1.4449267l-.09121628.02445636c.55128626-.7196101 1.5445401-1.20429087 2.67541957-1.20429087h16.6525727c1.7238382 0 3.1339135 1.1225473 3.1339135 2.4940308v.84841365c0 1.06103583-.84541478 1.9705163-2.0258381 2.32898736l.03451428-.05261824c-.40186235.13917896-.84383873.21729112-1.30782677.21729112h-16.32305824c-1.81428848 0-3.29905372-1.18161314-3.29905372-2.6255023v-.58606352zm148.0753657 0c0-.5328524.20368704-1.0294649.55049384-1.4449267l-.0912163.02445636c.55128626-.7196101 1.5445401-1.20429087 2.67541958-1.20429087h16.6525727c1.7238558 0 3.1346971 1.1225473 3.1346971 2.4940308v.84841365c0 1.06103583-.84619837 1.9705163-2.0266217 2.32898736l.0345143-.05261824c-.40185356.13917896-.84382994.21729112-1.30703436.21729112h-16.32384187c-1.81427968 0-3.29906252-1.18161314-3.29906252-2.6255023v-.58606352zm-172.3775161 53.0898102H845.919577c1.83865097 0 3.53655064-.49920634 4.89392124-1.3346507-.11874847.072628-.23908177.14429257-.36332435.2121034.88865446-1.02850145 1.4108413-2.27058852 1.4108413-3.60531335v-56.11409955c0-3.51475068-3.61362666-6.39059726-8.03177043-6.39059726h-37.5714968v4.5721551c0 1.12054633-.94135916 2.07397414-2.22558943 2.385904v-.00037055c-.39164013 1.0222021-1.59015702 1.77130806-2.99785506 1.77130806H663.1258561c-1.7238558 0-3.1347059-1.1226214-3.1347059-2.49403078v-6.2348176h-39.6610366c-1.67742884 0-3.2392789.4153877-4.5305881 1.1225473.08496497-.09827014.1745788-.19498396.26659633-.2896968-1.0498766 1.08074915-1.67823006 2.43200055-1.67823006 3.89501015v56.11409954c0 3.5147507 3.61441908 6.39052316 8.03175282 6.39052316" fill="#fff6d5"/><path d="M617.40068835 580.3477955c-.35782143.22914877-.69048795.4820869-.99482987.75629467.30434192-.27413365.63700844-.52662713.99482987-.75629466M616.1085955 581.3881546c.08170727-.0827811.16593266-.1640059.25322207-.24367436-.08734224.07966847-.17143556.16089326-.25322206.24367436M617.84423196 580.0834444c.10774264-.06002927.21784493-.11798345.32951444-.17386254-.1116695.05558265-.2217718.11383327-.32951444.17386254M851.1744629 646.2605984c-.09985365.0689225-.20131857.13606634-.30513433.20076456.10381576-.06447588.20526307-.13191617.30513434-.20076456M619.56178363 579.35760904c.1061666-.0326085.21390044-.06299368.3224267-.092119-.10852626.028903-.2162601.05928817-.3224267.092119M851.2263752 646.2249514c.34366353-.24211805.66137973-.50654327.9492129-.79157113-.28783317.2845832-.60554937.54945308-.9492129.79157112M619.99037693 579.23703173c.1447134-.0370551.29098525-.0711458.43960793-.10138276-.14862268.03038518-.29489452.06447588-.43960793.10138276" fill="#fffa99"/><path d="M851.86101517 586.98873705v56.11409954c0 1.33472482-.52218684 2.5768119-1.4108413 3.60531334.12424258-.06744028.24457588-.13925307.36332435-.2121034l.05582155-.0348318c.10380695-.0644759.20525426-.13199028.30513434-.20076456l.0519475-.0355729c.34366354-.24211804.66137094-.50698792.94920412-.791497l.0534443-.05410046c.0763364-.07655584.1502075-.154668.2217718-.2338177l.05749444-.06521698c.07545594-.08537496.14784787-.172825.21783612-.26123848l.03064022-.0377962c.08170725-.1044954.1596373-.21165876.23357005-.32030432l.0079242-.01259874c.06682737-.09930767.1297543-.20017167.19032155-.30259197l.04957025-.08693128c.0464886-.08018724.08967547-.16133792.13133032-.24308147l.05027462-.1009381c.04094166-.0842633.0786256-.16963827.11559638-.25605077l.03618716-.08537495c.04640057-.11487082.08884784-.23122385.12740345-.34868852l.00704372-.02593858c.03469036-.10760802.06445012-.21625358.09203512-.3253438l.02518133-.1117582c.01884198-.08329987.03539474-.16659974.05027462-.25093716l.0204268-.12672846c.01179825-.0848562.02201166-.16971238.02993585-.255532l.0117102-.1153896c.0079242-.12317115.0141755-.24730575.0141755-.37195912v-56.11409954c0-3.51475068-3.61362665-6.39059726-8.030978-6.39059726H806.2569467v1.6627366h37.5715056c4.41814377 0 8.03177043 2.87577248 8.03177043 6.39052315M620.3301136 580.5981398h39.6610366v6.2348917c0 1.3714094 1.4108501 2.4940308 3.1347059 2.4940308h137.90844734c1.40769804 0 2.60621493-.74910597 2.99785507-1.77138217v.00044466c-.12897067.03112628-.26187703.05335934-.39635942.0711458l-.09203513.01111652c-.13762566.01482205-.27761097.02519747-.41994712.02519747H665.2153519c-1.7238382 0-3.1346883-1.12262142-3.1346883-2.4940308v-6.23489172h-39.66104542c-.15728647 0-.3129969.00741102-.46792372.01185764l-.1446958.00889322c-.10774265.00741102-.21470167.01408094-.32086827.02445637l-.15964613.01630426c-.1061666.01185763-.21075718.02519747-.31534775.0400195l-.1399941.02000976c-.13840928.02149196-.27525133.04594833-.41050853.0733691l-.03072828.00741103c-.1486315.02964408-.29490332.06447588-.43961674.10145687l-.1061666.02816188c-.10851745.02890298-.2162601.05928817-.3224267.09204488l-.1258274.0400195c-.10381577.0333496-.2060467.0681814-.307494.1044954l-.10773383.0385373c-.12897948.04891275-.25638293.0993818-.38140912.15266704l-.01576034.00741102c-.13604964.05928816-.27053203.12102196-.40265478.18623895l-.04719298.02371525c-.11167832.05558266-.2217718.11375917-.32951445.17378844l-.08021047.0452072c-.09985366.05706487-.19818412.11590838-.29491213.1763823l-.0684122.04224283c-.35783025.22974164-.69048796.482161-.99482988.75636877l-.0440233.0400195c-.08734224.07966848-.17143556.16089327-.25322206.24367437l-.04243847.04298392c-.09203513.09463872-.18166658.19142666-.26659634.2896968 1.29130922-.7071596 2.85315926-1.12262143 4.5305881-1.12262143M650.0208399 597.95245285h16.32306706c.46398803 0 .9059644-.07811215 1.30782676-.21729112.26580392-.36573388.42466642-.78682807.42466642-1.2379369v-.84789488c0-1.37200226-1.4108501-2.4940308-3.1346883-2.4940308h-16.6525727c-.3562542 0-.6975669.05261825-1.01685033.14066118-.3468156.41546182-.55049382.9120743-.55049382 1.4449267v.58613763c0 1.44388916 1.48476524 2.6254282 3.29904492 2.6254282" fill="#fff6d5"/><path d="M664.94171183 593.15529915c1.7238382 0 3.1346883 1.12202854 3.1346883 2.4940308v.84789488c0 .45110883-.1588625.87220302-.4246664 1.2379369l-.03451428.05261824c1.18042332-.35854518 2.02582047-1.26795153 2.02582047-2.32898736v-.84841364c0-1.3714835-1.4100577-2.4941049-3.1338959-2.4941049h-16.65257268c-1.1308795 0-2.12414213.48475486-2.67541957 1.20436497l.0912163-.02445637c.31928342-.0884876.6605961-.1407353 1.0168415-.1407353h16.6525815M798.0962144 597.95245285h16.32385068c.46319562 0 .905172-.07811215 1.30703435-.21729112.26581272-.36573388.42466642-.78682807.42466642-1.2379369v-.84789488c0-1.37200226-1.4108501-2.4940308-3.1346883-2.4940308h-16.6525727c-.3562542 0-.69677448.05261825-1.01685033.14066118-.3468068.41546182-.55049383.9120743-.55049383 1.4449267v.58613763c0 1.44388916 1.48476523 2.6254282 3.2990537 2.6254282" fill="#fff6d5"/><path d="M813.01707754 593.15529915c1.7238382 0 3.1346883 1.12202854 3.1346883 2.4940308v.84789488c0 .45110883-.1588537.87220302-.4246664 1.2379369l-.03451428.05261824c1.1804233-.35854518 2.0266129-1.26795153 2.0266129-2.32898736v-.84841364c0-1.3714835-1.41085012-2.4941049-3.13468832-2.4941049h-16.6525727c-1.1308795 0-2.12414212.48475486-2.67541957 1.20436497l.0912163-.02445637c.32007584-.0884876.6605961-.1407353 1.0168415-.1407353h16.6525815" fill="#fff6d5"/><path d="M622.78455377 640.40085256h221.20827277c.92562523 0 1.68373297-.60318298 1.68373297-1.33991255v-.29896056c0-.73672957-.75810773-1.33991254-1.68373296-1.33991254H622.78455377c-.92640884 0-1.68374177.60318297-1.68374177 1.33991254v.29896057c0 .73672958.75733293 1.33991256 1.68374177 1.33991256" fill="#6c5d53"/><text transform="matrix(.7 0 0 .93 1288.48 -225.14)" y="927.50525" x="-798.17456" style="text-indent:0;text-align:center;line-height:125%;text-transform:none;block-progression:tb;-inkscape-font-specification:Roboto Light" font-size="64.14398956" font-weight="300" letter-spacing="0" word-spacing="0" text-anchor="middle" color="#000" overflow="visible" font-family="Roboto"><tspan y="927.50525" x="-798.17456">S439-BBX</tspan></text></g><path d="M534.70797 691.957557h38.59777v-39.7345h-38.59777v39.7345z" fill="#d89e81"/><path d="M574.40102 673.034257l4.9085.33049c12.26365 2.96682 25.68098 5.07037 34.61239 14.7789 5.56355 6.04865 15.22997 56.61261 15.22997 56.61261h-75.72493v-57.24615c10.65882 0 21.14145-6.58022 21.14145-14.39322" fill="#045"/><path d="M534.46145 673.364747h-6.56987c-12.26212 2.96682-25.69338 5.07037-34.62483 14.7789-5.56509 6.04865-15.22995 56.61261-15.22995 56.61261h75.72492v-57.24615c-10.65879 0-19.30027-6.33236-19.30027-14.14536" fill="#045"/><path d="M553.19698 538.290887c18.74052 0 48.37705 10.00244 48.37705 56.87027 0 27.06238-9.3966 44.79048-13.49174 49.6949-3.7664 4.51136-24.94908 14.12658-34.88531 14.12658v-120.69175" fill="#e9b89d"/><path d="M611.70439 606.570617c.82647-7.48835-2.97403-14.13384-8.48641-14.84571-5.51548-.70896-10.65415 4.78795-11.48216 12.27633-.82648 7.48692 2.97403 14.13095 8.49106 14.84135 5.51082.70896 10.65105-4.78649 11.47751-12.27197M554.00515 538.524577c-18.7405 0-48.37706 10.00244-48.37706 56.87028 0 27.06237 9.39663 44.79047 13.49175 49.69489 3.76795 4.51136 24.94753 14.12658 34.88531 14.12658v-120.69175" fill="#e9b89d"/><path d="M496.30592 606.570617c-.82646-7.48835 2.97403-14.13384 8.48641-14.84571 5.51547-.70896 10.65414 4.78795 11.4806 12.27633.82804 7.48692-2.97402 14.13095-8.48795 14.84135-5.51235.70896-10.65416-4.78649-11.47906-12.27197" fill="#e9b89d"/><path d="M554.00515 641.534807c8.73607 0 15.81608-2.70914 15.81608-6.0501h-31.63061c0 3.34096 7.08002 6.0501 15.81453 6.0501" fill="#fff"/><path d="M592.99179 599.111377c2.01732-4.83455 6.00857-7.92945 10.22619-7.38647.009.00093.0217.006.0326.007 1.91188-5.5595 2.5988-12.1686-.0262-19.18241-13.95537-37.30065 1.89638-43.96069 1.89638-43.96069s-15.43308-.64782-27.40525 8.65588c8.25537-12.01574 11.97217-15.11794 11.97217-15.11794s-17.33877-3.48798-35.91492 14.34056c4.12768-9.68946 9.08183-14.61716 9.08183-14.61716s-38.80676.2766-52.84431 26.63291c-8.00107 15.02333-8.61822 31.29714-6.68151 43.59967.47293-.16158.95827-.29259 1.46375-.3581 1.83126-.23438 3.61599.22419 5.21776 1.20244v-11.49896c7.43201-3.1022 15.27648-6.97741 14.86245-22.48112h54.49417s-1.23893 17.44278 13.62509 21.70522v18.45889" fill="#4e3024"/><path d="M553.85311 691.273997c14.0577 0 25.20534-7.90091 25.20534-18.15711l-5.7684-.90885c0 7.72967-8.97643 14.49498-19.43694 14.51519-10.46506-.0203-19.01997-6.37241-19.01997-14.10208l-6.27205.66098c0 10.25621 11.2313 17.99187 25.29202 17.99187" fill="#35988c"/><path fill="#045" fill-rule="evenodd" d="M498.2978 692.082737h115.15621v52.217255H498.2978z"/><path d="M315.823797 472.340057c.01875262 18.11173868-14.7710984 32.7391163-33.02884758 32.6793686-18.26076203-.0597576-33.08100328-14.784033-33.0997559-32.8957717-.01874952-18.10875092 14.7710984-32.7391163 33.03186042-32.67935872 18.2577492.05974772 33.07799354 14.7870109 33.09674306 32.89576182" fill="#005975"/><path d="M306.31232 472.711347c.2530206 12.97633773-10.0799639 23.26559055-23.07428532 22.9897934-13.0001147-.2759201-23.74307376-11.01249795-23.99609437-23.98883568-.2530206-12.97633774 10.0799639-23.26559055 23.0800786-22.98967045 12.99432144.27579715 23.7372805 11.012375 23.9903011 23.98871273" fill="#ccc"/><path d="M372.03633 480.712817l-19.60966 45.87577-20.56345-45.87577v-42.45854h40.17311v42.45854" fill="#d89e81"/><path d="M331.86322 463.556737s-43.07154 5.38062-48.71188 11.04265c-4.9125 4.93402-15.12321 52.1654-17.48586 62.5328h86.28026v-24.9039l-20.08252-48.67155M372.03633 463.556737s43.0667 5.38062 48.70705 11.04265c4.910882 4.93402 15.123212 52.1654 17.484252 62.5328H351.94574v-24.9039l20.09059-48.67155" fill="gray"/><path d="M350.69736 316.761727c19.50476 0 50.34992 10.68813 50.34992 60.77039 0 28.91598-9.77982 47.85938-14.04195 53.10001-3.91999 4.82062-25.96493 15.09654-36.30797 15.09654v-128.96694" fill="#e9b89d"/><path d="M412.00125 389.474017c.85856-8.00327-3.09533-15.10277-8.8325-15.86343-5.7404-.7591-11.09025 5.11463-11.95042 13.11634-.86178 8.00015 3.09533 15.09965 8.83573 15.85876 5.73878.75755 11.0854-5.11307 11.94719-13.11167M354.06868 316.761727c-19.50477 0-50.34993 10.68813-50.34993 60.77039 0 28.91598 9.78144 47.85938 14.04195 53.10001 3.92161 4.82062 25.96493 15.09654 36.30798 15.09654v-128.96694" fill="#e9b89d"/><path d="M291.89508 389.474017c-.86017-8.00327 3.09533-15.10277 8.8325-15.86343 5.74201-.7591 11.08863 5.11463 11.95042 13.11634.86017 8.00015-3.09694 15.09965-8.83412 15.85876-5.73878.75755-11.08863-5.11307-11.9488-13.11167" fill="#e9b89d"/><path d="M308.30129 390.351337h3.47781s-2.11573-13.04322 4.08783-17.25408v-8.42482s-2.39815-.2691-2.39815-10.18569c0-9.9197 12.2635-16.98342 38.47858-16.98342v-36.27992s-51.82174 1.06399-51.82174 37.31747v35.10082s3.78282-.6471 6.48437 1.53999c2.91297 2.35509 1.6913 15.16965 1.6913 15.16965" fill="#2c2f35"/><path d="M394.09504 390.351337h-3.4762s2.11251-13.04322-4.08622-17.25408v-8.42482s2.39494-.2691 2.39494-10.18569c0-9.9197-12.26352-16.98342-38.4802-16.98342v-36.27992s51.82335-1.13866 51.82335 35.11327v37.30502s-3.78121-.6471-6.48437 1.53999c-2.91297 2.35509-1.6913 15.16965-1.6913 15.16965" fill="#2c2f35"/><path d="M351.94736 512.228287l-13.65141-44.96469-5.03999 20.26375 18.6914 24.70094" fill="#9fb2be"/><path d="M331.29516 458.902557l7.16703 8.97704-5.20623 19.64775-11.00794-14.31209 9.04714-14.3127" fill="#666"/><path d="M351.94898 512.228287l12.36194-45.49357 6.33106 20.79263-18.693 24.70094" fill="#9fb2be"/><path d="M372.59955 458.902557l-8.45324 8.44504 6.49567 20.17975 11.96172-14.31209-10.00415-14.3127" fill="#666"/><path d="M351.94574 424.157947c9.09233 0 16.46108-2.89331 16.46108-6.46639h-32.92215c0 3.57308 7.36875 6.46639 16.46107 6.46639" fill="#fff"/><g transform="translate(-496.54 78.57)"><rect width="247.5354" height="74.270668" x="614.50641" y="446.22119" rx="2.8198514" fill="#fff6d5" fill-rule="evenodd"/><path d="M618.63063755 455.22549904c0-1.46300986.62835327-2.81426536 1.6782296-3.89493487l.04244398-.0430056c.08171225-.0827587.1659324-.1640116.25322128-.24367436l.04402057-.039994c.30434098-.2741999.63699972-.52713794.9948298-.75636868l.0684126-.04228282c.09676868-.0607138.19503284-.11950018.294913-.17638323l.0802145-.04517396c.1077372-.059991.21784492-.11793414.32951458-.17379324l.04719626-.0237314c.1321225-.06517095.2658216-.12731827.4026547-.18623716l.01576588-.00722784c.12502673-.0533655.2524296-.1040808.38140906-.15266388l.1077372-.03854845c.10149842-.03625963.20367816-.07119416.30749416-.1044422l.1258274-.039994c.1061719-.03264572.2139091-.06300262.3224267-.0920344l.10617188-.02818856c.1447138-.03710288.29098504-.07119416.43961665-.1014306l.0307322-.00722783c.13526553-.02746577.27209864-.05191994.41051735-.0733625l.13998517-.01999702c.1045953-.01481706.20918157-.02818855.3153478-.039994l.15964634-.01626263c.1061606-.00963713.21312528-.01782867.3208681-.02445418l.1446958-.00843248c.1549357-.00722783.3106372-.0120464.46792314-.0120464H666.323498v6.23481343c0 1.3714091 1.41084156 2.4940362 3.1346886 2.4940362h137.90844453c.1423433 0 .2823217-.01084176.4199465-.02517696l.0920051-.01084174c.13449414-.01782866.26740042-.039994.39635398-.07119416 1.28424277-.3119292 2.22560037-1.2653527 2.22560037-2.3859078v-6.23481342h39.66181728c4.4173604 0 8.03098798 2.8757742 8.03098798 6.39052504v56.11410376c0 .1247283-.00563067.2488543-.01418928.37202863l-.0117118.11528395c-.00788293.08589075-.01813074.17067324-.02995514.255528l-.020383.1268003c-.0150902.08420425-.03141914.16756526-.05033818.25086604l-.0252254.11179048c-.02747766.1091403-.0574328.21781076-.0920051.32542116l-.0067568.02589973c-.03851378.11733183-.08096902.2338204-.1273995.34869478l-.0361489.08528843c-.0370498.0863726-.07477527.1717815-.1155976.25611828l-.05022557.10082828c-.04177956.08179498-.08491047.1629756-.1313297.24315636l-.04954988.08685446c-.06047337.1023943-.1234693.20336714-.19032784.30266553l-.00788293.0126487c-.07398698.10865842-.15176903.21573878-.2335601.32022915l-.03063084.03782566c-.07015813.08854097-.14243338.17593753-.21794064.261238l-.0574328.06517097c-.0716221.07926524-.14549648.15725356-.22178077.2338927l-.05349134.05408828c-.28782848.2850296-.6055558.54937557-.949218.79149594l-.05180215.03553684c-.09988805.06890534-.2013189.13599168-.3051259.20069284l-.05585622.03481406c-1.35736262.83551345-3.05525677 1.33472786-4.89392888 1.33472786H626.66363793c-4.41730747-.00007228-8.03172672-2.8758465-8.03172672-6.39059732v-56.11410376zm248.28725593 60.594722v-65.07528002c0-4.47950998-4.60608913-8.14485272-10.23611523-8.14485272H620.14214308c-1.40691475 0-2.7501275.2292187-3.9738079.6425303-3.6710424 1.2411274-6.26153143 4.14224723-6.26153143 7.50232242v65.07528002c0 4.4795943 4.6061049 8.14486476 10.23533933 8.14486476h236.53963517c2.64553557 0 5.06379487-.80913185 6.8859466-2.13193378 2.0557231-1.49198142 3.35016863-3.63784083 3.35016863-6.01293098" fill="#008066"/><path d="M858.041517 512.5719002c-.02747766.1091403-.05754543.21781076-.0920051.32542115.0346849-.10757425.06441483-.21625677.0920051-.32542115M857.9424285 512.92318495c-.03851376.11733183-.080969.2338204-.12741075.34868273.0463967-.11492255.08885194-.23129067.12741076-.34868273M857.61291055 513.7141629c-.04177955.08179498-.08502308.16296355-.13134096.24315636.0465093-.08022895.08964023-.16140957.13134095-.24315636M857.77884634 513.3572525c-.0370498.0863726-.07466266.1717092-.11559762.25604598.04099127-.08432472.07871674-.16963725.11559762-.256046M856.96881844 514.7183499c-.0700455.08842048-.1423433.17586522-.21782802.2611657.07545095-.08528844.14783882-.17274522.21782802-.2611657M857.43203097 514.044246c-.06058598.1023943-.12345802.20328282-.1903053.30266553.0667797-.0993827.1297531-.20024713.1903053-.30266553M857.23305443 514.3598132c-.07398698.10865844-.15176903.21572674-.2335601.32022917.0817573-.1044422.15965195-.21158278.2335601-.32022916M858.11700174 512.2092798c-.0150902.08432472-.03141913.16763755-.05022556.25086605.01891904-.08324055.0353606-.16652928.05022556-.25086605M624.70340646 449.02943885c.13526553-.02746576.27210766-.05191993.41050835-.0733625-.13840068.02144257-.2752428.04589674-.41050834.0733625M858.1673399 511.8269515c-.00788293.08589076-.01813074.17074552-.02995515.2556003.0118244-.0848066.0219596-.16970954.02995516-.2556003M807.7865213 457.538478l.09200512-.01084175-.0920051.01084175M626.1944749 448.84682764c.15491883-.00722783.31062932-.0120464.46791528-.0120464-.15728596 0-.31299645.00722785-.46791527.0120464M625.728902 448.8799552c.10617188-.0096371.2131264-.01782864.32086925-.02445416-.1077372.00722784-.21470188.01481706-.32086925.02445417M625.25390898 448.9358384c.1045953-.01481705.20918945-.02818854.3153557-.039994-.1061606.0120464-.2107649.02517695-.3153557.039994M622.4636765 449.78528953c.1321225-.06517096.26659637-.127246.4026457-.18623717-.13683312.05926823-.2705232.1210903-.4026457.18623717M856.69358013 515.04473475c-.0716221.07914477-.14549646.1572656-.22178075.2338204.07635185-.07649456.15021496-.15466358.22178075-.2338204M858.19328603 511.33967507c0 .124644-.00563067.24878203-.0141893.37195635.00788295-.12317432.0141893-.24731236.0141893-.37195635M621.71185507 450.20482912c.0967574-.06083426.1950317-.11950018.29491187-.17638323-.09985427.05709988-.19818375.11588626-.29491187.17638322M623.37120843 449.4014675c.10149842-.03625965.20367815-.07119417.30748514-.10456267-.103807.0333685-.20603853.06818256-.30748514.10456266M622.88205653 449.59282437c.1250346-.0533655.2524386-.10396033.38140906-.1525916-.12897046.04890833-.25637446.09926224-.38140907.1525916" fill="#fffa99"/><path d="M625.34355823 508.66147368c0-.736721.75733273-1.3399078 1.6837409-1.3399078h221.20826315c.9256255 0 1.68373865.6031868 1.68373865 1.3399078v.29896728c0 .73664874-.75811314 1.3399078-1.68373865 1.3399078H627.02729913c-.92640817 0-1.6837409-.60325906-1.6837409-1.3399078v-.29896728zm25.62098197-44.02109523c0-.53284792.20367816-1.0294603.55049352-1.44491617l-.09121682.02445417c.55128632-.71961514 1.54453953-1.20428956 2.67541866-1.20428956h16.65257335c1.7238369 0 3.13391383 1.12254275 3.13391383 2.49402414v.84841513c0 1.0610339-.845411 1.97051217-2.0258389 2.32898862l.034516-.05264273c-.4018619.13918398-.8438378.21729276-1.30782625.21729276h-16.32305765c-1.81428907 0-3.29905343-1.18161825-3.29905343-2.62549843v-.58606888zm148.07535774 0c0-.53284792.20369505-1.0294603.55049915-1.44491617l-.09121683.02445417c.55128744-.71961514 1.54453728-1.20428956 2.67542316-1.20428956h16.65256548c1.7238628 0 3.1347055 1.12254275 3.1347055 2.49402414v.84841513c0 1.0610339-.8461993 1.97051217-2.0266238 2.32898862l.0345723-.05264273c-.4018608.13918398-.84383444.21729276-1.3070357.21729276h-16.3238471c-1.81428005 0-3.29906468-1.18161825-3.29906468-2.62549843v-.58606888zm-172.37750776 53.0898096h223.49993038c1.8386496 0 3.53654375-.49920235 4.89391762-1.33464352-.1187508.07263973-.23907816.14429165-.36332448.21210077.88865454-1.0284966 1.4108427-2.27058772 1.4108427-3.60531557v-56.1140917c0-3.51475084-3.6136276-6.39059733-8.03176502-6.39059733h-37.57149936v4.5721467c0 1.12055512-.9413576 2.07397862-2.2255891 2.38590782v-.00037344c-.39164674 1.02220838-1.59015694 1.77131308-2.99785773 1.77131308H667.36860064c-1.7238549 0-3.1347055-1.12262708-3.1347055-2.4940362v-6.2348134h-39.66103573c-1.67742893 0-3.23927938.41538358-4.53058863 1.12254275.08496677-.09829852.17457885-.19498284.26659636-.28969155-1.04987634 1.08075384-1.6782296 2.4319973-1.6782296 3.89500714v56.11410375c0 3.51475082 3.61441925 6.39052504 8.03175262 6.39052504" fill="#fff6d5"/><path d="M621.64343457 450.24729264c-.3578222.2291464-.69048882.48208444-.9948298.7562964.30434098-.27413968.6370076-.526632.9948298-.7562964M620.35134154 451.28765494c.08171225-.0827587.1659324-.1640116.2532224-.24367436-.08734292.07962663-.17143583.16089157-.2532224.24367436M622.08697806 449.98294668c.1077372-.059991.2178449-.11793415.32951457-.17386553-.1116674.05553385-.22177174.11383838-.32951457.17386553M855.41720904 516.16009786c-.09988805.06890535-.2013189.13606396-.30513716.20076512.10382952-.06444818.20526037-.13192.30513716-.20076512M623.80452887 449.25710356c.10617187-.0326457.2139012-.0630026.3224267-.09215488-.1085255.02891134-.21625933.05926824-.3224267.09215488M855.46911254 516.1244526c.3436622-.24212038.66137826-.50655066.949218-.79158027-.28783974.2845839-.6055558.5494599-.949218.79158027M624.23312293 449.13653125c.14471267-.03710288.29098504-.07119416.43960765-.1014306-.1486226.0303569-.29489498.0644482-.43960765.1014306" fill="#fffa99"/><path d="M856.1037564 456.88823802v56.1140917c0 1.33472786-.52218816 2.57681898-1.4108427 3.60531558.12424632-.06745977.2445737-.13925625.36332448-.21210077l.05585623-.03481406c.10382952-.06444818.20524912-.13198024.30513717-.20076512l.05191475-.03553685c.3436622-.24210832.661367-.50698433.9491955-.79149594l.05349134-.0540883c.07635186-.07649456.15021496-.15466358.2217695-.23380835l.05754542-.06517096c.07545095-.0854089.14785008-.17282954.21783928-.261238l.03063083-.03782565c.0817573-.1044422.1596407-.21165506.23357136-.32030145l.00788294-.0126487c.06677972-.09926225.1297531-.20017485.19031658-.30259325l.04954988-.08697493c.0465093-.08022895.08964023-.1613373.1313297-.24308408l.05033817-.10094875c.04087865-.08420426.07860412-.16963725.1155976-.256046l.0361489-.0854089c.0463967-.11492255.08885194-.2312184.1273995-.34868273l.0067568-.02589973c.0346849-.10757427.06441484-.2162568.0920051-.3253489l.0252254-.11179048c.01880644-.083361.0353606-.16660156.05022556-.25093833l.020383-.12672802c.0118244-.08480658.02195962-.16970953.02995516-.25554005l.0117118-.1154044c.00788293-.12317433.01418928-.24731237.01418928-.3719684v-56.1140917c0-3.51475084-3.6136276-6.39059733-8.03097673-6.39059733h-39.66182853v1.66273898h37.57149936c4.4181487 0 8.03177627 2.8757742 8.03177627 6.39052504M624.50992882 450.50871133h39.67462255v6.276253c0 1.38050413 1.41133256 2.51057588 3.1357787 2.51057588H805.2760204c1.40817377 0 2.60710065-.75407985 2.99888253-1.78314263v.00044572c-.12902113.0313206-.26197246.05372688-.39650038.071676l-.09211773.01084175c-.13766983.01493752-.2777158.02529742-.42008162.02529742H669.4104847c-1.7244281 0-3.13576068-1.1300597-3.13576068-2.51056384v-6.27626504h-39.67463155c-.15734114 0-.31310568.00722782-.46808532.01216684l-.14474533.00843247c-.10777098.00722785-.21477394.01421475-.32097735.02457465l-.1597004.0163831c-.10620565.01216684-.2108291.0252974-.3154559.04023493l-.1400426.02011747c-.13845588.02156303-.2753453.04625813-.41064913.07384436l-.03074344.00722784c-.14868117.02987505-.2950042.06493004-.43976644.10215338l-.10621692.02842948c-.10855928.02915226-.2163325.05962963-.32253705.09263673l-.1258691.04023494c-.10385203.03360943-.20611847.06866442-.30760113.10516498l-.10777098.03878937c-.12902452.04926973-.25647018.09998503-.3815397.15367578l-.01576588.00722784c-.1360955.05962962-.27062454.12183718-.4027932.18750204l-.04720753.02385185c-.11172373.05589525-.22184833.1144407-.32962833.1749497l-.08024828.04553536c-.09988806.05746127-.1982502.11660904-.2950121.17755172l-.06843514.04252375c-.3579517.23126658-.69072418.48536106-.99517102.76137997l-.04404308.04023494c-.08736545.0801085-.17149326.16195165-.253308.24528857l-.0424665.04324654c-.09207267.09528693-.18172867.19268198-.26668757.29160693 1.2917518-.71184522 2.85413605-1.13007175 4.53214043-1.13007175M654.26358462 467.85194576h16.32306667c.46398843 0 .90596433-.0780606 1.30782736-.21729277.26580357-.36572838.4246661-.78682195.4246661-1.23793512v-.8478851c0-1.37201142-1.41084945-2.4940362-3.1346886-2.4940362h-16.65257222c-.3562535 0-.69756657.05264273-1.01685022.1406657-.34681536.41545586-.55049352.91206825-.55049352 1.44491617v.58614115c0 1.44389223 1.4847655 2.62542616 3.29904442 2.62542616" fill="#fff6d5"/><path d="M669.18445617 463.0547966c1.72383914 0 3.1346886 1.12202476 3.1346886 2.4940362v.84788508c0 .45111317-.15886254.87220674-.4246661 1.2379351l-.034516.05264273c1.18042787-.35853666 2.02581637-1.26794266 2.02581637-2.32897656v-.84841513c0-1.37149342-1.4100544-2.49410846-3.1338913-2.49410846H654.0993155c-1.1308791 0-2.12414246.48475874-2.67541977 1.20436183l.09121682-.02445417c.31928253-.08854095.6605956-.14073796 1.0168412-.14073796H669.184535M802.33895137 467.85194576h16.32385834c.46319002 0 .90516367-.0780606 1.3070357-.21729277.26581258-.36572838.424665-.78682195.424665-1.23793512v-.8478851c0-1.37201142-1.41085397-2.4940362-3.13469424-2.4940362H800.6072507c-.35625238 0-.69677265.05264273-1.0168536.1406657-.3468041.41545586-.55049916.91206825-.55049916 1.44491617v.58614115c0 1.44389223 1.48477337 2.62542616 3.29905343 2.62542616" fill="#fff6d5"/><path d="M817.25981616 463.0547966c1.72384027 0 3.13469423 1.12202476 3.13469423 2.4940362v.84788508c0 .45111317-.15885242.87220674-.424665 1.2379351l-.0345723.05264273c1.1804245-.35853666 2.02661256-1.26794266 2.02661256-2.32897656v-.84841513c0-1.37149342-1.41085396-2.49410846-3.13469423-2.49410846h-16.65256547c-1.1308859 0-2.12414698.48475874-2.67542317 1.20436183l.09121682-.02445417c.32008095-.08854095.66060123-.14073796 1.01684233-.14073796h16.65257674" fill="#fff6d5"/><path d="M627.02729913 510.30034877h221.20826315c.9256255 0 1.68373865-.6031868 1.68373865-1.3399078v-.2989673c0-.736721-.75811314-1.3399078-1.68373865-1.3399078H627.02729913c-.92640817 0-1.6837409.6031868-1.6837409 1.3399078v.2989673c0 .736721.75733273 1.3399078 1.6837409 1.3399078" fill="#008066"/><text transform="matrix(1 0 0 1.34 559.82 -278.75)" y="586.04218" x="168.6825" style="text-indent:0;text-align:center;line-height:125%;text-transform:none;block-progression:tb;-inkscape-font-specification:Roboto Light" font-size="44.48646545" font-weight="300" letter-spacing="0" word-spacing="0" text-anchor="middle" color="#000" overflow="visible" font-family="Roboto"><tspan y="586.04218" x="168.6825">SB-04-CS</tspan></text></g><path d="M537.10051 558.654137c19.90267 0 51.37705 6.10727 51.37705 34.72375 0 16.52369-9.97931 27.34809-14.3284 30.34262-3.99997 2.75454-26.49625 8.62538-37.04865 8.62538v-73.69175" fill="#e9b89d"/></svg>