<svg xmlns="http://www.w3.org/2000/svg" width="1000" height="1000" id="user"><defs><clipPath id="a"><path d="M-32768 32767h65535v-65535h-65535v65535z"/></clipPath><linearGradient x2="1" gradientUnits="userSpaceOnUse" gradientTransform="scale(156.02) rotate(-90 2.55 -.7)" id="b"><stop offset="0" stop-color="#fff"/><stop offset="1" stop-opacity="0" stop-color="#fff"/></linearGradient><clipPath id="c"><path d="M-32768 32767h65535v-65535h-65535v65535z"/></clipPath><linearGradient x2="1" gradientUnits="userSpaceOnUse" gradientTransform="matrix(0 -156.02 -156.02 0 489.58 289.07)" id="d"><stop offset="0" stop-color="#fff"/><stop offset="1" stop-opacity="0" stop-color="#fff"/></linearGradient><clipPath id="e"><path d="M487.5 698.1h240.96V593.94H487.5V698.1z"/></clipPath><clipPath id="f"><path d="M486.5 699.1h242.96V592.94H486.5V699.1z"/></clipPath><clipPath id="g"><path d="M647.002 692.227h64.32v-64.32h-64.32v64.32z"/></clipPath><clipPath id="h"><path d="M648.061 689.129h61.919v-61.92h-61.919v61.92z"/></clipPath><clipPath id="i"><path d="M647.061 690.129h63.919v-63.92h-63.919v63.92z"/></clipPath><clipPath id="j"><path d="M324.389 507.156h167.52v-104.16h-167.52v104.16z"/></clipPath><clipPath id="k"><path d="M323.389 508.156h169.52v-106.16h-169.52v106.16z"/></clipPath><clipPath id="l"><path d="M179.503 686.837h167.52v-104.16h-167.52v104.16z"/></clipPath><clipPath id="m"><path d="M178.503 687.837h169.52v-106.16h-169.52v106.16z"/></clipPath><clipPath id="n"><path d="M373.615 617.712h118.079v-73.92H373.615v73.92z"/></clipPath><clipPath id="o"><path d="M372.615 618.712h120.079v-75.92H372.615v75.92z"/></clipPath><clipPath id="p"><path d="M16.3931 635.006H183.913v-104.16H16.3931v104.16z"/></clipPath><clipPath id="q"><path d="M15.3931 636.006H184.913v-106.16H15.3931v106.16z"/></clipPath><clipPath id="r"><path d="M487.5 630.81h296.16V447.45H487.5v183.36z"/></clipPath><clipPath id="s"><path d="M486.5 631.81h298.16V446.45H486.5v185.36z"/></clipPath><clipPath id="t"><path d="M673.764 614.32h97.44v-97.44h-97.44v97.44z"/></clipPath><clipPath id="u"><path d="M676.416 608.566h92.16v-92.16h-92.16v92.16z"/></clipPath><clipPath id="v"><path d="M675.416 609.566h94.16v-94.16h-94.16v94.16z"/></clipPath><clipPath id="w"><path d="M324.389 439.713h296.16v-183.36h-296.16v183.36z"/></clipPath><clipPath id="x"><path d="M323.389 440.713h298.16v-185.36h-298.16v185.36z"/></clipPath><clipPath id="y"><path d="M510.652 423.223h97.44v-97.44h-97.44v97.44z"/></clipPath><clipPath id="z"><path d="M513.305 417.469h92.16v-92.16h-92.16v92.16z"/></clipPath><clipPath id="A"><path d="M512.305 418.469h94.16v-94.16h-94.16v94.16z"/></clipPath><clipPath id="B"><path d="M140.202 461.544h188.64v-117.12h-188.64v117.12z"/></clipPath><clipPath id="C"><path d="M139.202 462.544h190.64v-119.12h-190.64v119.12z"/></clipPath><clipPath id="D"><path d="M151.977 451.2h62.4v-62.4h-62.4v62.4z"/></clipPath><clipPath id="E"><path d="M152.959 448.229h60.48v-60.481h-60.48v60.481z"/></clipPath><clipPath id="F"><path d="M151.959 449.229h62.48v-62.481h-62.48v62.481z"/></clipPath><clipPath id="G"><path d="M152.959 387.748h60.48v60.48h-60.48v-60.48z"/></clipPath><clipPath id="H"><path d="M179.503 618.81h149.28V435.45h-149.28v183.36z"/></clipPath><clipPath id="I"><path d="M178.503 619.81h151.28V434.45h-151.28v185.36z"/></clipPath><clipPath id="J"><path d="M205.354 602.319h97.44v-97.44h-97.44v97.44z"/></clipPath><clipPath id="K"><path d="M208.006 596.565h92.16v-92.16h-92.16v92.16z"/></clipPath><clipPath id="L"><path d="M207.006 597.565h94.16v-94.16h-94.16v94.16z"/></clipPath></defs><path d="M677.47066693 254.10006937c0 10.45223574-8.60085273 18.9276832-19.2079062 18.9276832H557.4434008c-22.53976678 0-24.70483374 33.2591807-24.70483374 22.80607052v-66.47289856c0-10.45485877 8.60085273-18.92943195 19.21053267-18.92943195h106.313661c10.60705347 0 19.2079062 8.47457317 19.2079062 18.92943194v24.73914483z" fill="#1bbe9e"/><path d="M631.50217107 241.68372927c0 13.60495546-11.19268633 24.6316053-24.9985375 24.6316053-13.8076258 0-24.9994248-11.02664984-24.9994248-24.6316053 0-13.60495546 11.191799-24.6316053 24.9994248-24.6316053 13.80585117 0 24.9985375 11.02664984 24.9985375 24.6316053" fill="#f1f1f1"/><g fill="#784421"><path d="M620.47457642 234.16769475c-.99468855 0-1.81457456.79386284-1.81457456 1.7774484 0 .97047108.819886 1.7783227 1.81457456 1.7783227.98758997 0 1.79327883-.80785162 1.79327883-1.7783227 0-.98358556-.80568886-1.7774484-1.79327883-1.7774484M594.56937277 234.16769475c-.99557587 0-1.80126472.79386284-1.80126472 1.7774484 0 .97047108.80568885 1.7783227 1.80126472 1.7783227.98581533 0 1.79150418-.80785162 1.79150418-1.7783227 0-.98358556-.80568885-1.7774484-1.79150418-1.7774484M615.10867447 230.9347146c-1.47561736 0-2.68503796 1.19079424-2.68503796 2.64475227 0 1.45483233 1.2094206 2.64562658 2.68503797 2.64562658 1.477392 0 2.68415064-1.19079425 2.68415064-2.64562658 0-1.45395803-1.20675863-2.64475228-2.68415063-2.64475228M623.43166747 247.01236043h-3.05860074v-5.54130247c0-.9547337-.28216857-1.83602637-.74535092-2.61502614.26974605-.07431535.55280194-.13289334.8465057-.13289334 1.63001147 0 2.95744597 1.3236876 2.95744597 2.92452773v5.36469423zM599.92800578 230.9347146c-1.47827933 0-2.68503796 1.19079424-2.68503796 2.64475227 0 1.45483233 1.20675863 2.64562658 2.68503796 2.64562658 1.47206807 0 2.68148867-1.19079425 2.68148867-2.64562658 0-1.45395803-1.2094206-2.64475228-2.68148867-2.64475228M594.56937277 238.72313848c.28660518 0 .56877374.05861296.83674514.13289334-.46229502.77812547-.7453509 1.66029243-.7453509 2.61502614v5.54130247h-3.05771343v-5.36469422c0-1.6165775 1.33009646-2.92452772 2.9663192-2.92452772M607.5174528 225.65867422c-2.19257396 0-3.967219 1.74859655-3.967219 3.9098619 0 2.14465366 1.77464504 3.90811328 3.967219 3.90811328 2.17571483 0 3.967219-1.76345962 3.967219-3.9081133 0-2.16126533-1.79150417-3.90986188-3.967219-3.90986188M619.3897359 249.06914362h-4.68328828v-8.43522975c0-1.1610681-.31322485-2.2338321-.80568885-3.20342888.37267546-.1031672.77551988-.19147133 1.20764595-.19147133 2.35761595 0 4.28133118 1.89635295 4.28133118 4.23247794v7.59765202zM600.3114143 240.63356415v8.43522976h-4.6637672v-7.597652c0-2.336125 1.90774343-4.23247795 4.28044386-4.23247795.41526695 0 .81988602.08830412 1.20675864.2063344-.51021045.9547337-.8234353 2.0274977-.8234353 3.1885658M601.29793948 251.50887646h12.4402618v-10.87539624c0-3.38003714-2.792404-6.1279566-6.22101822-6.1279566-3.42861424 0-6.21924358 2.74791946-6.21924358 6.1279566v10.87539624z"/></g><path d="M786.6856024 366.8078981c0 18.72047468-15.40122158 33.89741843-34.40234613 33.89741843h-180.5488381c-40.3660763 0-44.2419011 59.56419288-44.2419011 40.84371822V322.50195523c0-18.71960036 15.40036975-33.89654412 34.40057148-33.89654412h190.39016772c19.00112455 0 34.40234612 15.17694377 34.40234612 33.89654413v44.30594288z" fill="#d40055"/><path d="M730.66385656 316.09017896c0 .55229792-.492907 1.00096485-1.100253 1.00096485h-15.40962082c-.6076103 0-1.1007816-.44866692-1.1007816-1.00096484v-.10074568c0-.55350015.4931713-1.00144574 1.1007816-1.00144574h15.4096208c.60734602 0 1.10025302.4479456 1.10025302 1.00144574v.10074568zm25.86373698-4.01924777h-69.33787036c-2.17936255 0-3.96307802 1.62275084-3.96307802 3.60472376v37.54856476c0 1.9824538 1.78371547 3.60520465 3.96307802 3.60520465h69.33787036c2.18041972 0 3.96175655-1.62275085 3.96175655-3.60520465v-37.54856476c0-1.98197292-1.78133684-3.60472377-3.96175656-3.60472377" fill="#d9f1fd"/><path d="M687.17782998 348.51922807h30.92971622V320.3811275h-30.92971622v28.13810057z" fill="#fff"/><path d="M754.3207445 323.37897274h-32.4623478c-.24288553 0-.43978404-.17985148-.43978404-.40081874s.1968985-.40033785.43978405-.40033785h32.4623478c.24314982 0 .43872686.1793706.43872686.40033785 0 .22096726-.19557704.40081874-.43872687.40081874M754.3207445 331.1229254h-32.4623478c-.24288553 0-.43978404-.17985147-.43978404-.40105917 0-.22096726.1968985-.40033785.43978405-.40033785h32.4623478c.24314982 0 .43872686.1793706.43872686.40033785 0 .2212077-.19557704.40105918-.43872687.40105918M754.3207445 336.06258957h-32.4623478c-.24288553 0-.43978404-.1793706-.43978404-.40033785 0-.2212077.1968985-.4005783.43978405-.4005783h32.4623478c.24314982 0 .43872686.1793706.43872686.4005783 0 .22096726-.19557704.40033785-.43872687.40033785M754.3207445 341.00273462h-32.4623478c-.24288553 0-.43978404-.17913015-.43978404-.4005783 0-.22096725.1968985-.4005783.43978405-.4005783h32.4623478c.24314982 0 .43872686.17961105.43872686.4005783 0 .22144815-.19557704.4005783-.43872687.4005783M754.3207445 345.94263923h-32.4623478c-.24288553 0-.43978404-.1793706-.43978404-.40033785 0-.22144815.1968985-.4005783.43978405-.4005783h32.4623478c.24314982 0 .43872686.17913015.43872686.4005783 0 .22096726-.19557704.40033785-.43872687.40033785M754.3207445 352.82267965h-64.73943126c-.24288554 0-.44004834-.1793706-.44004834-.4000974 0-.22096727.1971628-.40033786.44004834-.40033786h64.73943125c.24314982 0 .43872686.17937058.43872686.40033784 0 .22072682-.19557704.4000974-.43872687.4000974" fill="#231f20"/><path d="M706.02326368 341.8627998v-1.66795418l-3.20138473-1.28180245-3.20138473 1.28180245v1.66795417l3.20138473.89637207 3.20138473-.89637208" fill="#f9c58c"/><path d="M712.6726188 345.84574064c-.9030902-1.0452064-3.0919673-1.41885506-3.0919673-1.41885506-1.64284716-.4703068-2.6862771-1.0302989-3.19213448-1.34527944-.46753484.49170625-1.4472701 1.41092043-2.52664394 1.76869984 0 0-.0547087-.92113772-.54735142-1.6932007l-.4926427-.14907475-.49264272.14907476c-.4926427.77206296-.54735142 1.69320068-.54735142 1.69320068-1.07963813-.3577794-2.0591091-1.2769936-2.52664394-1.76869984-.50585738.31498053-1.54875874.87497263-3.19213447 1.34527944 0 0-2.1891414.37364867-3.091703 1.41885506 0 0-.65703315.74681644-.65703315 1.96658456v.84660034h21.0150174v-.84660034c0-1.21976812-.65676885-1.96658456-.65676885-1.96658456" fill="#15a186"/><path d="M707.9399187 333.93058012s.8597461-4.66339497-.92264792-5.82233098c0 0-1.29054418-1.27434872-4.19539183-1.04256152-2.90484765-.2317872-4.19539183 1.04256152-4.19539183 1.04256152-1.782394 1.158936-.9226479 5.82233098-.9226479 5.82233098-1.11399627-.52128075-1.05056588.6953616-1.05056588.6953616-.09567417 2.43280384 1.55959476 2.83843144 1.55959476 2.83843144.70037725 3.79395254 4.60901085 4.39842663 4.60901085 4.39842663s3.9086336-.6044741 4.60874655-4.39842664c0 0 1.65553323-.4056276 1.55985905-2.83843143 0 0 .0634304-1.21664236-1.05056586-.6953616" fill="#fcd0a4"/><path d="M702.82187895 324.95195185s-4.7522578-.04376065-5.7549866 3.51888557c0 0-1.00272877 3.74706612.9070546 5.97934036 0 0-.19029116-4.8062182 1.57624525-5.54510002 0 0 .3348596 2.99784524 3.8687253 3.04136545 0 0-.7804581-.79658816-.92370507-1.57874974 0 0 1.48057106 1.17312215 3.1519619 1.2748296 0 0-.5095575-1.6080838-.28649395-2.53451128 0 0 2.658262 1.4592495 2.37256095 5.342166 0 0 2.90881205-4.28493745.02140776-7.90553047 0 0-1.3027017-1.65857687-4.93277015-1.59269545" fill="#502d16"/><path d="M706.02326368 341.8627998l-3.20138473.89637207-3.20138473-.89637208-.65650456.89637207s.10756737.12887753.29125122.32243427c.46753484.49170625 1.4470058 1.41092043 2.52664394 1.76869984 0 0 .0547087-.92113772.54735142-1.6932007l.4926427-.14907475.49264272.14907476c.4926427.77206296.54735142 1.69320068.54735142 1.69320068 1.07937384-.3577794 2.0591091-1.2769936 2.52664394-1.76869984.18368385-.19355674.29125122-.32243427.29125122-.32243427l-.65650456-.89637208" fill="#fff"/><g><path d="M588.4472241 303.92852134c0 .54357957-.47209642.98516402-1.05436554.98516402H572.6256625c-.58226913 0-1.05436554-.44158445-1.05436554-.98516402v-.09915535c0-.5447628.4720964-.98563732 1.05436554-.98563732h14.76719606c.58226912 0 1.05436554.4408745 1.05436554.9856373v.09915536zm24.78506167-3.9558015h-66.44655702c-2.0887227 0-3.7975395 1.59713473-3.7975395 3.54782102v36.955838c0 1.95115958 1.7088168 3.54829432 3.7975395 3.54829432h66.44655702c2.08897597 0 3.79804603-1.59713474 3.79804603-3.54829432v-36.955838c0-1.9506863-1.70907006-3.54782103-3.79804603-3.54782103" fill="#d9f1fd"/><path d="M546.7748381 335.84565835h29.63924615v-27.6939237H546.7748381v27.6939237z" fill="#fff"/><path d="M611.11595657 311.10225712h-31.10669604c-.2327557 0-.4214423-.17701242-.4214423-.39449158 0-.21747915.1886866-.39401827.4214423-.39401827h31.10669604c.23376877 0 .42245537.17653912.42245537.39401827 0 .21747916-.1886866.39449158-.42245537.39449158M611.11595657 318.72396682h-31.10669604c-.2327557 0-.4214423-.1770124-.4214423-.39472822 0-.21747916.1886866-.39401828.4214423-.39401828h31.10669604c.23376877 0 .42245537.17653912.42245537.39401828 0 .2177158-.1886866.39472822-.42245537.39472822M611.11595657 323.5856554h-31.10669604c-.2327557 0-.4214423-.17653912-.4214423-.39401827 0-.2177158.1886866-.39425493.4214423-.39425493h31.10669604c.23376877 0 .42245537.17653912.42245537.39425493 0 .21747915-.1886866.39401827-.42245537.39401827M611.11595657 328.44781728h-31.10669604c-.2327557 0-.4214423-.17630247-.4214423-.39425492 0-.21747916.1886866-.39425493.4214423-.39425493h31.10669604c.23376877 0 .42245537.17677577.42245537.39425493 0 .21795245-.1886866.39425492-.42245537.39425492M611.11595657 333.3097425h-31.10669604c-.2327557 0-.4214423-.1765391-.4214423-.39401826 0-.21795246.1886866-.39425493.4214423-.39425493h31.10669604c.23376877 0 .42245537.17630248.42245537.39425494 0 .21747915-.1886866.39401827-.42245537.39401827M611.11595657 340.08117734h-62.03812882c-.23326223 0-.4222021-.17653912-.4222021-.39378163 0-.21747914.18893987-.39401826.4222021-.39401826h62.03812882c.23376877 0 .42245537.17653912.42245537.39401827 0 .21724252-.1886866.39378164-.42245537.39378164" fill="#231f20"/><path d="M568.9281649 318.9788363s-.59493266-6.44249464-7.16173298-6.2718717h-.00025327c-6.56705358-.17062294-7.16173297 6.2718717-7.16173297 6.2718717l-.73296514 13.96883536h15.78914296l-.7324586-13.96883536" fill="#764c24"/><path d="M564.83404553 329.2943058v-1.6416245l-3.06786688-1.26156843-3.06786687 1.26156843v1.6416245l3.06786687.8822223 3.06786688-.8822223" fill="#f9c58c"/><path d="M566.6712705 321.487301s.82363603-4.58978046-.88543403-5.73042196c0 0-1.23545402-1.25423236-4.01965782-1.02610406-2.7842038-.2281283-4.01991108 1.02610406-4.01991108 1.02610406-1.7088168 1.1406415-.88467423 5.73042197-.88467423 5.73042197-1.06804216-.51305202-1.00675067.6843849-1.00675067.6843849-.09117742 2.39440057 1.4950564 2.7936251 1.4950564 2.7936251.6711671 3.7340627 4.41627958 4.3289948 4.41627958 4.3289948s3.74511248-.5949321 4.41602632-4.3289948c0 0 1.58699363-.39922453 1.49530967-2.7936251 0 0 .06103822-1.19743692-1.00624413-.6843849" fill="#fcd0a4"/><path d="M564.9006557 316.24177s-2.227515 2.2808097-4.45452345 2.22354098c0 0-3.26465814.6808352-3.11218923 3.53338552 0 0-1.64701876-1.1690392-1.34233422-2.87834492 0 0-.685097-5.61541124 5.77482312-5.0734882 0 0 6.52095834-.54192304 5.51420768 5.8156151 0 0-.3662293 1.68161796-.61038217 2.45143265 0 0 .2747986-5.01716607-1.76960173-6.07214113" fill="#764c24"/><path d="M571.2055742 333.21437353c-.86542566-1.02870718-2.9625063-1.39645758-2.9625063-1.39645758-1.57458336-.46288273-2.5737359-1.01403502-3.0590024-1.3240434-.44854224.48394437-1.3864033 1.3886482-2.42202682 1.74077985 0 0-.052427-.906597-.52427015-1.6664725l-.47158988-.14672152-.47158987.14672152c-.4720964.7598755-.52452343 1.6664725-.52452343 1.6664725-1.0356235-.35213165-1.9732313-1.25683548-2.42177355-1.74077985-.48526648.31000838-1.48441903.86116067-3.05849586 1.3240434 0 0-2.09784044.3677504-2.9632661 1.39645758 0 0-.6291242.73502748-.6291242 1.93554083v.83323625h20.13729275v-.83323624c0-1.20051335-.6291242-1.93554083-.6291242-1.93554083" fill="#fcb040"/><path d="M564.83404553 329.2943058l-3.06786688.8822223-3.06786687-.8822223-.62963073.8822223s.1033344.12684312.27961075.31734445c.44854225.48394437 1.38615004 1.3886482 2.42177355 1.74077985 0 0 .05242702-.906597.52452343-1.6664725l.47158987-.14672152.47158988.14672152c.47184314.7598755.52427015 1.6664725.52427015 1.6664725 1.03562352-.35213165 1.97348458-1.25683548 2.42202683-1.74077985.17652962-.19050133.27961076-.31734445.27961076-.31734445l-.62963073-.8822223" fill="#fff"/></g><g><path d="M648.2004668 353.5410131c0 .55689165-.4860451 1.00885115-1.08493607 1.00885115h-15.19509916c-.5991516 0-1.0854573-.4519595-1.0854573-1.00885114v-.10105474c0-.55810334.4863057-1.00933582 1.0854573-1.00933582h15.19509916c.59889096 0 1.08493607.45123248 1.08493607 1.00933582v.10105475zm25.50368065-4.05067183h-68.37259843c-2.14902303 0-3.9079069 1.63529366-3.9079069 3.63288193v37.84488288c0 1.99758827 1.75888387 3.63312427 3.9079069 3.63312427h68.37259843c2.15006548 0 3.90660383-1.635536 3.90660383-3.63312427V353.1232232c0-1.99758827-1.75653835-3.63288193-3.90660383-3.63288193" fill="#d9f1fd"/><path d="M605.3198214 386.22580294h30.49913496v-28.35979192H605.3198214v28.35979192z" fill="#fff"/><path d="M671.52802056 360.88723302h-32.01043033c-.23950427 0-.4336617-.1807838-.4336617-.403492 0-.22319285.19415743-.4037343.4336617-.4037343h32.01043033c.23976488 0 .43261924.18054145.43261924.4037343 0 .2227082-.19285436.403492-.43261924.403492M671.52802056 368.6921979h-32.01043033c-.23950427 0-.4336617-.18102615-.4336617-.404219 0-.2227082.19415743-.403492.4336617-.403492h32.01043033c.23976488 0 .43261924.1807838.43261924.403492 0 .22319285-.19285436.404219-.43261924.404219M671.52802056 373.6712648h-32.01043033c-.23950427 0-.4336617-.18102613-.4336617-.40373433 0-.22319286.19415743-.40373432.4336617-.40373432h32.01043033c.23976488 0 .43261924.18054146.43261924.40373432 0 .2227082-.19285436.40373433-.43261924.40373433M671.52802056 378.65008938h-32.01043033c-.23950427 0-.4336617-.1807838-.4336617-.40397667 0-.22270818.19415743-.4037343.4336617-.4037343h32.01043033c.23976488 0 .43261924.18102612.43261924.4037343 0 .22319288-.19285436.40397668-.43261924.40397668M671.52802056 383.62867162h-32.01043033c-.23950427 0-.4336617-.18054146-.4336617-.40324966 0-.2227082.19415743-.40349198.4336617-.40349198h32.01043033c.23976488 0 .43261924.1807838.43261924.40349198 0 .2227082-.19285436.40324966-.43261924.40324966M671.52802056 390.56291773H607.6898451c-.23950427 0-.43392232-.18054146-.43392232-.40324965 0-.2227082.19441805-.403492.4339223-.403492h63.83817548c.23976488 0 .43261924.1807838.43261924.403492 0 .2227082-.19285436.40324965-.43261924.40324965" fill="#231f20"/><path d="M623.90290253 379.5166884v-1.68085313l-3.15681736-1.29190137-3.15681736 1.29190137v1.68085312l3.15681737.9034343 3.15681736-.9034343" fill="#f9c58c"/><path d="M630.4596901 383.53125193c-.89051803-1.0536836-3.04892316-1.4302761-3.04892316-1.4302761-1.6199766-.47401222-2.64888068-1.03793166-3.14769587-1.35515148-.46102616.49509557-1.42712225 1.42155195-2.49146982 1.78190786 0 0-.0539471-.92839507-.5397316-1.70654088l-.48578448-.15024927-.4857845.15024927c-.4857845.7781458-.5397316 1.7065409-.5397316 1.7065409-1.06460817-.36035592-2.03044364-1.2868123-2.4914698-1.78190787-.4988152.31721982-1.52719804.88113926-3.14769588 1.35515147 0 0-2.15866575.37659252-3.04866256 1.4302761 0 0-.6478864.75270038-.6478864 1.98183634v.85351278h20.72246145v-.85351278c0-1.22913596-.6476258-1.98183633-.6476258-1.98183633" fill="#687f9f"/><path d="M625.79287524 371.52221558s.84777734-4.70013642-.90980347-5.86796098c0 0-1.27257815-1.2848736-4.1369866-1.05077554-2.86440846-.23409805-4.1369866 1.05077554-4.1369866 1.05077554-1.7575808 1.16782456-.90980348 5.86796098-.90980348 5.86796098-1.098488-.5256301-1.03594065.70084014-1.03594065.70084014-.09434227 2.4524558 1.5378832 2.8605522 1.5378832 2.8605522.6906271 3.82408625 4.54484752 4.43308047 4.54484752 4.43308047s3.85422042-.60899423 4.5445869-4.43308047c0 0 1.63248608-.4080964 1.5381438-2.8605522 0 0 .06254737-1.22647026-1.03594063-.70084015" fill="#fcd0a4"/><path d="M626.83246448 366.67619197c-.86445663-4.0574573-6.0863793-3.75114265-6.0863793-3.75114265s-5.2219227-.30631464-6.08663994 3.75114265c0 0-.48865125 4.1454258 1.42686164 5.78047713 0 0-.43991643-3.41550517-.03127368-4.6419754 0 0 .62807974-1.7220505 2.9509323-1.10893655 0 0 .8118126.70035546 1.74011967.78808165.92804644-.0877262 1.74011966-.78808165 1.74011966-.78808165 2.3233738-.61311396 2.9509323 1.10893654 2.9509323 1.10893654.40864275 1.22647023-.03075245 4.6419754-.03075245 4.6419754 1.91473105-1.63505133 1.4260798-5.78047713 1.4260798-5.78047713" fill="#764c24"/><path d="M623.90290253 379.5166884l-3.15681736.9034343-3.15681736-.9034343-.64736516.9034343s.1060699.13061993.28719662.32570165c.46102617.49509557 1.42686164 1.42155195 2.49146982 1.78190786 0 0 .0539471-.92839507.5397316-1.70654088l.4857845-.15024927.48578448.15024927c.4857845.7781458.5397316 1.7065409.5397316 1.7065409 1.06434756-.36035592 2.03044365-1.2868123 2.4914698-1.78190787.18112674-.19508172.28719664-.32570165.28719664-.32570165l-.64736517-.9034343" fill="#fff"/></g><g><path d="M213.3143976 350.66367062c0 11.8047753 9.71085772 21.37309563 21.69148646 21.37309563h113.84433178c25.4519593 0 27.8974202 37.557231 27.8974202 25.75420428v-75.0655013c0-11.803901-9.71263237-21.37222132-21.69148646-21.37222132H235.00588406c-11.98062874 0-21.69148645 9.56832033-21.69148645 21.37222134v27.93820138z" fill="#0cf"/><path d="M289.81915277 367.2963433s-22.47468945-14.63781124-22.47468945-49.44580477l22.47468945-9.56105626v59.00686104" fill="#fff"/><path d="M289.81915277 367.2963433s22.47401676-14.63781124 22.47401676-49.44580477l-22.47401676-9.56105626v59.00686104" fill="#e9e9e9"/><path d="M289.81915277 367.2963433s-22.47468945-14.63781124-22.47468945-49.44580477l22.47468945-9.56105626v59.00686104" fill="#fff"/><path d="M289.81915277 367.2963433s22.47401676-14.63781124 22.47401676-49.44580477l-22.47401676-9.56105626v59.00686104" fill="#e9e9e9"/><path d="M293.6084352 340.72383865c-.38074452 0-.75678018-.17506052-1.0346026-.51983036-.702292-.88600498-1.7039326-1.39207512-2.75266175-1.39207512-1.06554648 0-2.0456609.4946033-2.7573706 1.38672392-.51191975.6490235-1.39718438.69565533-1.96830116.1085528-.56640792-.58863142-.6114784-1.58777595-.0948498-2.2375639 1.22833832-1.5411441 2.98406833-2.42256234 4.82052155-2.42256234 1.83241706 0 3.58747438.88676943 4.81715807 2.4271491.5166286.64978793.476267 1.6496969-.09484978 2.23832834-.26369585.27673322-.5993699.41127755-.93504395.41127755" fill="#4e4a4b"/><path d="M296.696771 336.7601322c-.35383678 0-.70700086-.15365575-.97944172-.45867386-1.57813893-1.78271233-3.67357914-2.7673322-5.89615843-2.7673322-2.2313243 0-4.32609182.97926867-5.9001946 2.76350992-.5448817.61232958-1.42812826.61232958-1.96830113-.0107024-.54488173-.61920968-.54488173-1.61911866.00470885-2.23832834 2.09947638-2.3690504 4.89384513-3.6793287 7.86378688-3.6793287 2.9665783 0 5.7555655 1.3102783 7.8604234 3.6846799.5482452.61920968.5482452 1.61911866.00470887 2.24367954-.27311356.3088404-.6303138.46249613-.98953212.46249613" fill="#4e4a4b"/><path d="M299.7857795 332.8071281c-.34980062 0-.693547-.149069-.96598785-.4433847-2.43178696-2.6496059-5.62775373-4.10742427-8.9986208-4.10742427-3.3789394 0-6.57625154 1.45781837-9.00265696 4.10742427-.55295405.6031561-1.437546.58328023-1.96830115-.0458674-.53546402-.6344988-.5166286-1.63364333.03632544-2.24215063 2.94774286-3.2160681 6.83052968-4.98425576 10.93463265-4.98425576 4.0913218 0 7.97276323 1.7727744 10.92588764 4.98960697.5583356.6031561.57582562 1.60765182.0403616 2.23679944-.27176817.32412953-.63838612.4892521-1.0016406.4892521M291.50357727 343.03861265c0 1.05647875-.75207132 1.911141-1.68240642 1.911141-.9296624 0-1.6824064-.85466225-1.6824064-1.911141 0-1.0572432.752744-1.91190547 1.6824064-1.91190547.9303351 0 1.68240642.85466226 1.68240642 1.91190547" fill="#4e4a4b"/></g><g><path d="M372.9631029 472.9627694c0 17.02184325 8.59992992 30.8258391 19.20964535 30.8258391h100.8175853c22.53887944 0 24.7039464 54.1637757 24.7039464 37.13908482V432.67133318c0-17.02326707-8.60081723-30.82299143-19.20964534-30.82299143H392.17274826c-10.60971543 0-19.20964535 13.79972436-19.20964535 30.82299143v40.29143623z" fill="#d40055"/><path d="M448.04337306 416.57836438h-9.70020274c-9.18322025 0-16.6544688 7.1280909-16.6544688 15.89009837v14.84182872H429.7417v-14.84182872c0-4.52529094 3.85833388-8.20697496 8.6014703-8.20697496h9.70020274v-7.68312342" fill="#fff"/><path d="M448.04337306 416.57836438h9.70020275c9.18322025 0 16.6544688 7.1280909 16.6544688 15.89009837v14.84182872h-8.0529985v-14.84182872c0-4.52529094-3.85833388-8.20697496-8.6014703-8.20697496h-9.70020274v-7.68312342" fill="#e9e9e9"/><path d="M448.04337306 416.57836438h-9.70020274c-9.18322025 0-16.6544688 7.1280909-16.6544688 15.89009837v14.84182872H429.7417v-14.84182872c0-4.52529094 3.85833388-8.20697496 8.6014703-8.20697496h9.70020274v-7.68312342" fill="#fff"/><path d="M448.04337306 416.57836438h9.70020275c9.18322025 0 16.6544688 7.1280909 16.6544688 15.89009837v14.84182872h-8.0529985v-14.84182872c0-4.52529094-3.85833388-8.20697496-8.6014703-8.20697496h-9.70020274v-7.68312342" fill="#e6e6e6"/><path d="M418.23385092 490.86690128h29.80940146v-44.7007445h-29.80940146v44.7007445z" fill="#fff"/><path d="M448.04337306 490.86690128h29.80940147v-44.7007445h-29.80940147v44.7007445z" fill="#e9e9e9"/><path d="M418.23385092 490.86690128h29.80940146v-44.7007445h-29.80940146v44.7007445z" fill="#efefef"/><path d="M448.04337306 490.86690128h29.80940147v-44.7007445h-29.80940147v44.7007445z" fill="#e6e6e6"/><path d="M460.12227454 468.516557c0 6.36499636-5.40748544 11.52411857-12.07890148 11.52411857s-12.07890148-5.1591222-12.07890148-11.52411857c0-6.36499636 5.40748544-11.5246851 12.07890148-11.5246851s12.07890148 5.15968874 12.07890148 11.5246851" fill="#d3d2d2"/><path d="M452.4359177 466.2306727c0-2.31423957-1.966903-4.1907984-4.39254464-4.1907984-2.42564164 0-4.39254464 1.87655883-4.39254464 4.1907984 0 1.8005858 1.19083652 3.33585358 2.8618068 3.92886562v3.37327356c0 .80334722.68871136 1.46042784 1.53073784 1.46042784.8420265 0 1.53073784-.65708062 1.53073784-1.46042784v-3.37327356c1.67097028-.59301204 2.8618068-2.1282798 2.8618068-3.92886563" fill="#666364"/></g><g><path d="M269.07509585 264.61565613c0 7.3003906 6.00628617 13.21589273 13.4127673 13.21589273h70.39040857c15.73843963 0 17.24866257 23.22223648 17.24866257 15.92534308V247.3430194c0-7.298642-6.00362422-13.2158927-13.41099266-13.2158927h-74.2280785c-7.40648112 0-13.4127673 5.9172507-13.4127673 13.2158927v17.27263673z" fill="#f95"/><g fill="#fff"><path d="M331.7566025 251.69423756c-.73115375 0-1.3238852.58490554-1.3238852 1.3096988v1.2738526h2.6513197v-1.2738526c0-.72479326-.59716096-1.3096988-1.3274345-1.3096988"/><path d="M335.54015285 257.86143267c0 .54119064-.44455568.98096267-.99380123.98096267h-5.57504742c-.55014706 0-.99912516-.43977203-.99912516-.98096267v-3.31009327c0-.54119063.4489781-.98008836.99912516-.98008836h.1339786v-1.2738526c0-1.44608934 1.1899066-2.61764902 2.6513197-2.61764902 1.4614273 0 2.65576342 1.17155968 2.65576342 2.61764903v1.2738526h.1339857c.54480894 0 .99380123.43889772.99380123.98008835v3.31009327zm-13.47133057-2.2242148l1.2289346 1.3166932-2.12867964 1.5693654-.86958318-1.5693654c-.12954908-.22556896-.32830223-.6644667-.60959057-1.3166932-.31145022.71605028-.51464707 1.1558223-.6184638 1.3166932l-.88732253 1.5693654-2.1783768-1.5693654 1.31856837-1.3166932c.37178104-.3619595.73114666-.67320968 1.08962496-.92850478-.36379514-.02972615-.8429564-.0979214-1.43213146-.2089573l-1.82877882-.28939272.84828743-2.45415526 1.64331422.73178766c.16771106.07781254.60072445.31999316 1.2839628.72129607-.15084484-.6522265-.24223906-1.13833635-.28128835-1.45308373l-.23780243-1.75646524h2.607848l-.21118987 1.75646524c-.0469926.42490896-.14728844.9110188-.29458398 1.45308373.29813327-.149505.4969006-.2474264.59273144-.3033815.32387272-.17923115.57853428-.3025072.7524495-.38294264l1.6433213-.76675958.81366767 2.45415526-1.81722943.36982817c-.33274595.06469807-.82077334.1075387-1.47916665.12852184.44099928.3453478.792379.6513522 1.05147718.92850476zm-12.02765683 0l1.22805438 1.3166932-2.1233628 1.5737369-.8740127-1.5737369c-.12954908-.22556896-.32831643-.6644667-.60959767-1.3166932-.3114431.71605028-.51375974 1.1558223-.6184638 1.3166932l-.8819986 1.5737369-2.18458094-1.5737369 1.3194415-1.3166932c.37267545-.3619595.73115375-.67320968 1.08963915-.92850478-.362922-.02972615-.84385082-.0979214-1.43125123-.2089573l-1.82877882-.28939272.84650568-2.45415526 1.64421574.73178766c.1730208.07781254.60160467.31999316 1.2839486.72129607-.14640112-.6522265-.23779534-1.13833635-.28038682-1.45308373l-.23425315-1.76083673h2.6042916l-.2129574 1.76083672c-.04259147.42490896-.1464153.9110188-.29281643 1.45308373.29724595-.149505.49689352-.2474264.59184413-.3033815.32919665-.17923115.58385822-.3025072.7524424-.38294264l1.64420864-.76675958.81190722 2.45415526-1.8154619.36982817c-.33364036.06469807-.82255507.1075387-1.47916664.12852184.4454359.3453478.79059727.6513522 1.05058987.92850476zm25.39072696-10.8579103h-31.40233705c-2.81104486 0-5.11186507 2.27142693-5.11186507 5.04120387v8.88549337c0 2.76977694 2.3008202 5.03683237 5.11186507 5.03683237h31.40233706c2.8128124 0 5.117189-2.26705543 5.117189-5.03683236v-8.88549336c0-2.76977694-2.3043766-5.04120386-5.117189-5.04120386"/></g></g><g><path d="M388.14491335 346.7840699c0 11.31344067 15.4021444 20.48582278 34.40234613 20.48582278h49.91544132c40.36522447 0 44.2428239 35.99735348 44.2428239 24.68338824V320.006664c0-11.3134345-15.4030672-20.4863482-34.4014943-20.4863482H422.5472595c-19.00020174 0-34.40234613 9.1729137-34.40234613 20.4863482v26.7774059z" fill="#f95"/><path d="M422.26659226 319.3108728c3.03996697-4.43881233 8.00187453-6.8352639 13.05606363-6.8396354v-2.59841446c-5.9006948.0052458-11.69313624 2.80300027-15.24242634 7.98496614-5.6806388 8.29359344-3.4623325 19.55630382 4.9556963 25.15356137 3.1597555 2.10093876 6.74276387 3.10550748 10.28673003 3.10201028v-2.59754017c-3.0364177.0026229-6.1056663-.8585609-8.812-2.65786676-7.21038284-4.79552604-9.11014037-14.4416589-4.24406364-21.547081m13.05606363-6.8396354c3.03641768-.0026229 6.1056663.85768662 8.812 2.65786676 7.21038283 4.79465174 9.11102768 14.4407846 4.24495095 21.5462067-3.0408543 4.43881234-8.00276185 6.8361382-13.05695096 6.8405097v2.59754017c5.89980746-.0052458 11.69313623-2.80300027 15.24242633-7.98496614 5.6806388-8.29359345 3.4623325-19.55630383-4.95480898-25.15356138-3.1597555-2.10093876-6.7436512-3.10550748-10.28761736-3.10201028v2.59841447z" fill-rule="evenodd" fill="#c87137"/><path d="M429.27936837 323.9743798c2.25202457-3.2882358 6.78446803-4.1555397 10.12168805-1.93569637 3.33722 2.21896902 4.21744396 6.6848846 1.96453207 9.97312042-2.2529119 3.28823582-6.78358072 4.1555397-10.12168806 1.9356964-3.33722-2.21984333-4.21655663-6.68401033-1.96453207-9.97312044" fill-rule="evenodd" fill="#c87137"/><path d="M448.57774597 346.47217274l12.04540328 5.09366175c1.64598328.69594142 10.22816674 2.51098464 11.07201046.9547337.84384374-1.55450232-5.26625917-5.39879184-6.92732694-6.06238423l-9.24856268-3.33544792c-5.3026394-1.91296462-8.26540932 2.7890115-6.9415241 3.3494367" fill="#e3e2e0" fill-rule="evenodd"/><path d="M438.23404983 325.80148835l13.18206343 9.10581653c-.94766045-2.51185894 2.31768644-4.94153385 4.88559783-3.57500564-1.33009648-2.44278938 1.5528144-4.97825438 4.12604973-4.18701444-.84916766-2.45065807 2.51112274-4.75093683 4.9601329-3.07228414l11.21930602 7.69120192c16.53170596 11.33265424-.8509423 26.69582353-10.58664505 20.21639902l-31.525682-21.0294964c-3.98851474-2.65524387.52085833-7.41842088 3.73917713-5.14961685" fill="#fffdfa" fill-rule="evenodd"/><path d="M456.13737895 337.74282905v.13114474c-1.30258946-.79823434-3.57590977-2.20060877-4.72055583-2.96649406.02484503.01661167.0115352-.01311447-.02661967-.07256676-.07719706-.22556895-.1215632-.4502636-.13576035-.67146107 1.47916665 1.05527803 3.64068432 2.65436957 4.88293585 3.57937715m0-6.492539c-.3194361-.149505-.64863276-.24043202-.97871674-.28327263.30435163.17835684.6344356.36982817.97871675.56741958v-.28414694zm0-.37419965v.0987957c-.01685912-.0437149-.03105628-.08742983-.04525344-.13027044l.04525345.03147474zm0 .6583466v-.28414694c.05590132.02622895.110028.0533322.165042.08218404-.06566187-.11977887-.11978855-.23780914-.165042-.357588v-.0987957c2.16950358 1.50903882 4.82259793 3.36867125 4.82259793 3.36867125s-2.67527742-1.4758155-4.82259793-2.71032465m0 6.3395368v-.13114475l.97871675.72916476s-.3904219-.23693482-.97871675-.59802m8.33462048-8.20004353s-2.1943486-1.5676168-4.15000745-2.95250528c.02218307.13988772.05590132.28152404.10559138.42403466-.22537992-.06906957-.45430913-.11278448-.68235102-.13289334 2.12513745 1.2170232 4.7267671 2.66136395 4.7267671 2.66136395" fill="#e3e2e0" fill-rule="evenodd"/></g><g><path d="M523.43576345 269.78658394c0 10.45223588-8.60170456 18.92768336-19.2078352 18.92768336H403.4085541c-22.53976677 0-24.70483373 33.25918067-24.70483373 22.8060705v-66.47377215c0-10.45485877 8.60078174-18.92855765 19.20960985-18.92855765h106.31459803c10.60613064 0 19.2078352 8.47369888 19.2078352 18.92855765v24.7400183z" fill="#0cf"/><path d="M432.62990493 278.1975526l20.2360167-14.69979144 1.6030946 1.86460734-20.2360167 14.69979145-1.6030946-1.86460734z" fill="#fff"/><path d="M473.10272614 280.06223342l-20.2360167-14.69979145 1.60230684-1.8653309 20.2360167 14.70051502-1.60230684 1.86460732z" fill="#fff"/><path d="M454.96672054 264.42941757h-2.59803447v-23.69723255h2.59803447v23.69723255z" fill="#fff"/><path d="M457.44903537 243.9995498c3.4433054 1.06362932 6.076792 3.53747196 6.90788035 6.5879898h-21.37748307c.83108836-3.05051784 3.4637872-5.52436048 6.9070926-6.5879898-1.61175998-1.32338643-2.65948274-3.47018113-2.65948274-5.8940983 0-4.0222554 2.88399476-7.2826049 6.4407378-7.2826049 3.55753082 0 6.44152557 3.2603495 6.44152557 7.2826049 0 2.42391717-1.04772276 4.57071187-2.6602705 5.8940983" fill="#003c50" fill-rule="evenodd"/><path d="M436.93336673 278.49645773c3.4433054 1.06362933 6.07600424 3.53819552 6.9070926 6.58871337h-21.37748308c.8318761-3.05051785 3.46457495-5.52508404 6.9070926-6.58871337-1.61097222-1.32266287-2.65948274-3.47018113-2.65948274-5.8940983 0-4.02153185 2.88399476-7.28188134 6.44152557-7.28188134 3.55674304 0 6.4407378 3.26034948 6.4407378 7.28188132 0 2.42391718-1.04772277 4.57143544-2.65948274 5.8940983" fill-rule="evenodd" fill="#ff8080"/><path d="M477.9654207 278.49645773c3.44330538 1.06362933 6.07600422 3.53819552 6.90788034 6.58871337H463.4950302c.83187612-3.05051785 3.4637872-5.52508404 6.9070926-6.58871337-1.61097222-1.32266287-2.65948274-3.47018113-2.65948274-5.8940983 0-4.02153185 2.88399475-7.28188134 6.4407378-7.28188134 3.55831857 0 6.44152556 3.26034948 6.44152556 7.28188132 0 2.42391718-1.04772276 4.57143544-2.65948273 5.8940983" fill="#e2b250" fill-rule="evenodd"/><path d="M453.66794347 270.49774517c3.63788247 0 6.6061677-2.72636415 6.6061677-6.06847563 0-3.34211147-2.96828523-6.0670285-6.6061677-6.0670285-3.63867024 0-6.60695547 2.72491703-6.60695547 6.0670285 0 3.34211148 2.96828523 6.06847563 6.60695547 6.06847563" fill="#fff" fill-rule="evenodd"/></g><g><path d="M686.7843721 485.95750744c0 11.12792156-6.4281477 20.1512673-14.35797873 20.1512673h-124.2941517c-16.85070196 0-18.4678508 35.4110945-18.4678508 24.2803752v-70.7719204c0-11.1288518 6.42879365-20.15126728 14.35931325-20.15126728h128.40268925c7.92983104 0 14.35797873 9.02241547 14.35797873 20.15126728v26.3402779z" fill="#1bbe9e"/><path d="M626.99474893 458.38374156c13.8126004 0 25.01046985 9.2500431 25.01046985 20.66148522 0 6.85087583-4.0372762 12.92255942-10.25324555 16.68173224l3.52270673 8.53100908-8.63175336-6.14544903c-2.96924538 1.02627065-6.228684 1.59419293-9.64817767 1.59419293-13.8126004 0-25.01046984-9.25075926-25.01046984-20.66148522 0-11.41144213 11.19786944-20.66148522 25.01046983-20.66148522" fill-rule="evenodd" fill="#ffd42a"/><path d="M601.2038892 444.02403588c-13.81334726 0-25.0104631 9.2507612-25.0104631 20.66148678 0 6.8515888 4.0372749 12.92327558 10.25323893 16.68173l-3.52345127 8.53101087 8.6324982-6.14544957c2.96925092 1.0262653 6.22793934 1.59418848 9.64817725 1.59418848 13.81260193 0 25.01047732-9.25003378 25.01047732-20.66147978 0-11.41072558-11.1978754-20.66148678-25.0104773-20.66148678" fill="#f55" fill-rule="evenodd"/><path d="M589.39374708 468.3374106c1.3870759 0 2.51852083-1.45812076 2.51852083-3.24567942 0-1.78755865-1.1314449-3.2456794-2.51852082-3.2456794-1.3870759 0-2.51852084 1.45812075-2.51852084 3.2456794 0 1.78755866 1.13144493 3.24567942 2.51852084 3.24567942M600.39984013 468.3374106c1.42397858 0 2.5855252-1.45812076 2.5855252-3.24567942 0-1.78755865-1.16154662-3.2456794-2.5855252-3.2456794-1.42397858 0-2.5855252 1.45812075-2.5855252 3.2456794 0 1.78755866 1.16154662 3.24567942 2.5855252 3.24567942M611.27193328 468.3374106c1.3870759 0 2.51852084-1.45812076 2.51852084-3.24567942 0-1.78755865-1.13144493-3.2456794-2.51852084-3.2456794-1.3870759 0-2.51852083 1.45812075-2.51852083 3.2456794 0 1.78755866 1.13144493 3.24567942 2.51852083 3.24567942" fill="#fff" fill-rule="evenodd"/></g><g><path d="M519.2166578 789.56850718c-68.3647117 0-123.78287433-52.18245693-123.78287433-116.55153606 0-64.3690498 55.41816264-116.54824328 123.78287432-116.54824328 68.36470422 0 123.78634306 52.17919348 123.78634306 116.54824328 0 64.36907913-55.42163884 116.55153606-123.78634307 116.55153606" fill="#37c8ab" fill-rule="evenodd"/><path d="M472.53229057 726.21914843c-12.15757656 7.4317381-17.21456466 23.37182866-24.33254905 42.2604019 20.10624047 13.28613932 44.59172775 21.08766613 71.01657386 21.08766613 26.13291914 0 50.36467308-7.63135096 70.34232366-20.64589096-7.1770799-19.14381867-12.1367491-35.40133613-24.51675826-42.70217707-21.12459795-12.45492876-33.83480956-15.43614123-46.3017239-15.59650475-12.74495135-.16033417-25.23621403 2.77831417-46.2078663 15.59650475" fill="#d4aa00" fill-rule="evenodd"/><path d="M497.91029217 713.81330335c4.53910767 24.2193858 11.1357652 28.98734568 18.62216057 32.66230066h4.5078367c8.7897497-5.99511806 17.2145572-15.68483777 18.8967437-32.3088805 3.44778707-34.10218414-47.95260964-31.97836315-42.02674097-.35342015" fill="#997122" fill-rule="evenodd"/><path d="M501.2923886 666.86151888h34.9852108v47.64684703c0 16.08407818-34.9852108 17.92973628-34.9852108 0V666.8615189z" fill="#e6e6e6" fill-rule="evenodd"/><path d="M501.2923886 712.7971911c0 17.0036511 15.24042888 10.57000663 15.24042888 33.68004096h4.5078367c0-23.11003433 15.23694522-16.67638986 15.23694522-33.68004097h-34.9852108z" fill="#e6e6e6" fill-rule="evenodd"/><path d="M518.7856751 621.3283505c74.09245887 0 44.05647374 92.15214008 0 92.15214008s-74.0924663-92.15214008 0-92.15214008" fill="#fff" fill-rule="evenodd"/><path d="M543.07931594 636.5115197c-6.66617424 2.72922314-29.86220455 16.65347974-39.43048322 16.9251084-9.57173998.27487746 1.73779092-1.63622556 4.34794606-4.36871215 2.61017747-2.72923047-18.26765443 6.27982252-23.1960303 6.5514292-4.92838333.27487743 0-.54321335 2.31821328-3.54733594 2.32168206-3.00409325-8.40742647 1.63949636-6.66617423 9.82717312 1.73781324 8.19092553-7.1770576 5.12464347-7.7574874-2.51978328-.58042238-7.64444875.21896382-8.94687885 3.4060577-16.04482882 3.18711618-7.09794263 45.23124563-16.9250864 58.57053164-16.9250864 13.3357949 0 24.3534063 12.55965236 27.5439838 18.01809864 3.1905924 5.46170973 3.89960468 11.37829975 2.45030173 16.29024725-1.44933272 4.91193284-5.92935232 7.18956113-5.92935232.9097386 0-6.27982983-10.7291383-13.64938647-15.65750674-25.1160486" fill="#784421" fill-rule="evenodd"/><path d="M566.8057172 653.0367277c2.69706776.5661308 3.75710995 5.79224176 2.3668802 11.66956044-1.3902372 5.88058212-4.70247453 10.19039825-7.3995125 9.6242748-2.69706033-.5661528-3.75364864-5.79224176-2.36687276-11.66956777 1.39022975-5.87731135 4.7024522-10.18712748 7.39950506-9.62426747M471.6296826 653.0367277c-2.6970603.5661308-3.75710994 5.79224176-2.3668802 11.66956044 1.39024466 5.88058212 4.7024671 10.19039825 7.39951996 9.6242748 2.69705288-.5661528 3.75710995-5.79224176 2.36687275-11.66956777-1.3902372-5.87731135-4.70245218-10.18712748-7.3995125-9.62426747" fill="#fff" fill-rule="evenodd"/><path d="M473.10223222 650.26375972c4.34100853-48.5140435 57.30541558-57.8863363 73.23746824-33.4084123 19.08442912 4.5846936 19.8699105 29.77599945 20.42600686 34.08253747-.28848052-.6348465-18.31285257-16.38515852-22.08385246-21.24800767l-24.42291555 6.68561913s-27.96105422 7.53317626-47.15670708 13.88826336" fill="#784421" fill-rule="evenodd"/><path d="M519.2166578 789.56850718c-2.4224772-12.2160519-3.24272064-25.94723718-.43096037-43.09160513 2.16181375 17.14436795 2.19308472 30.87555324.43096036 43.09160513M480.55775856 783.47129827c.7750602-17.1181797-7.35087538-37.51863024-14.701721-44.43985546 9.6030333 5.6482468 18.38234695 25.67889396 14.701721 44.43985547M556.94237033 783.47129827c-.77506764-17.1181797 7.35086794-37.51863024 14.69823734-44.43985546-9.5995571 5.6482468-18.37887817 25.67889396-14.69823734 44.43985547" fill="#997122" fill-rule="evenodd"/><path d="M605.5053481 605.33794888l-13.42539285 9.710662-13.42539284-9.710662 13.42539285-9.710662 13.42539285 9.710662z" fill="#015a78" fill-rule="evenodd"/><path d="M582.32198765 621.21573615h19.51614503v-23.8824966h-19.51614503v23.8824966z" fill="#fffdfa" fill-rule="evenodd"/><path d="M585.3671889 601.72504025h5.57564177v-1.12641718h-5.57564178v1.12641718zM585.31263544 603.9123567h13.53449974v-1.12641717h-13.53449974v1.12641718zM585.31263544 606.01068095h13.53449974v-1.12641717h-13.53449974v1.12641717zM585.31263544 608.10865483h13.53449974v-1.12641717h-13.53449974v1.12641717zM585.31263544 610.20697908h13.53449974v-1.12641717h-13.53449974v1.12641718zM585.31263544 612.3056537h13.53449974v-1.1264172h-13.53449974v1.1264172zM585.31263544 614.40362757h13.53449974v-1.12641717h-13.53449974v1.12641717z" fill="#00bec6" fill-rule="evenodd"/><path d="M578.65449246 621.21580623h26.8507857V605.338054l-13.42539285 9.71031164-13.42539284-9.71031165v15.87775223z" fill="#003c50" fill-rule="evenodd"/><path d="M578.65449246 621.21580623h26.8507857l-10.97573337-7.93852576h-4.89826986v-.00070073l-10.97678248 7.9392265z" fill="#015a78" fill-rule="evenodd"/><g fill="#f95"><path d="M427.65409954 603.80922168l-1.92092658-3.7253335 7.59168008-4.19563805 1.92383267 3.7253335c2.27546977-.74907783 4.67299538-1.1421682 7.11701846-1.14016264v6.38170184c-7.46671814-.00300834-14.3706232 5.00488277-16.65481124 12.78245655-2.79662886 9.5214109 2.39365082 19.58632943 11.5904622 22.4813598 1.68553315.52946866 3.38850285.78116683 5.06434904.78216962v6.38270463c-.8708588 0-1.74656108-.05114186-2.62420076-.15442836l-1.1876228 4.04221246-8.23489502-2.59118755 1.1866541-4.04221246c-2.98746223-1.5994366-5.54191678-3.80856437-7.56165048-6.43083815l-3.60161625 1.98851582-4.05109176-7.86080465 3.59871015-1.98951862c-.98032158-3.19486205-1.33002128-6.62236942-.95222936-10.0819658l-3.9038498-1.2294102 2.5040823-8.52564882 3.9038498 1.2284074c1.54604075-3.09157554 3.67911202-5.7369133 6.21225524-7.82771285m14.71160462-5.3358007c.8689214.0010028 1.74462368.05114187 2.62323206.15442837l1.1856854-4.04221247 8.23586372 2.59219034-1.1866541 4.04120968c2.98649353 1.60043938 5.54191678 3.80956715 7.56261918 6.43083815l3.59871015-1.98751305 4.05302916 7.86080465-3.59871016 1.98751305c.97935288 3.19686762 1.32905258 6.62236943.95222936 10.08397138l3.90288108 1.2284074-2.5031136 8.52464605-3.90384977-1.22740463c-1.54700946 3.09257834-3.68008073 5.7369133-6.21225525 7.82771287l1.91995788 3.72733906-7.59264878 4.19463526-1.92092657-3.7253335c-2.27643845.74707226-4.67493276 1.14016263-7.11604974 1.13915985v-6.38270463c7.46478074.00200556 14.3696545-5.00488277 16.65384253-12.78145377 2.79662886-9.5224137-2.39461952-19.58733222-11.5923996-22.4813598-1.68456445-.53047145-3.38753415-.78216963-5.06144294-.7831724v-6.38170186z"/></g><g fill="#f06"><path d="M419.6370057 632.36549187l-1.53186736-2.85766753 6.054082-3.21843364 1.5341849 2.85766753c1.81460234-.5746104 3.7265397-.87614625 5.67555703-.8746078v4.89534217c-5.95442952-.00230767-11.46003658 3.83919748-13.28159143 9.8052996-2.23020732 7.30378282 1.90884734 15.0244851 9.24296176 17.24523508 1.3441499.40615033 2.70220478.59922557 4.03862967.5999948v4.8961114c-.69447744 0-1.3928174-.03923044-2.09270233-.11846052l-.94708492 3.10074235-6.56702198-1.98767507.94631243-3.10074234c-2.3823898-1.22691245-4.41947215-2.92151314-6.03013452-4.93303416l-2.87215477 1.5253714-3.23059474-6.02994773 2.86983727-1.5261406c-.78176993-2.45074798-1.0606424-5.07995595-.75936743-7.7337791l-3.11317475-.94306874 1.99691234-6.5399433 3.11317475.94229953c1.2329099-2.3715179 2.93395478-4.4007311 4.9540421-6.00456333m11.73195657-4.09304144c.69293245.00076923 1.3912724.03923043 2.09192984.1184605l.94553993-3.10074233 6.56779447 1.9884443-.94631242 3.09997312c2.3816173 1.22768166 4.41947214 2.92228235 6.03090702 4.93303415l2.86983726-1.52460217 3.23213975 6.02994772-2.86983726 1.52460216c.78099743 2.45228643 1.0598699 5.07995595.75936744 7.73531755l3.11240225.94229952-1.99613984 6.53917407-3.11317476-.9415303c-1.2336824 2.37228712-2.93472727 4.40073107-4.9540421 6.00456332l1.53109487 2.85920598-6.0548545 3.2176644-1.53186738-2.85766753c-1.81537486.57307195-3.7280847.8746078-5.67478455.87383857v-4.8961114c5.95288453.00153846 11.45926408-3.83919747 13.28081894-9.80453036 2.23020733-7.30455204-1.90961984-15.02525433-9.24450675-17.24523508-1.3433774-.40691955-2.70143228-.5999948-4.03631218-.60076402v-4.89534217z"/></g></g></svg>