<svg id="collapseAll" xmlns="http://www.w3.org/2000/svg" viewBox="0 0 1000 1000"><path d="M990 919.7c0 39.4-31.9 71.4-71.3 71.4-19.8 0-37.7-8.1-50.7-21.1l-.1.1-368.5-368.7-360.9 361c-13 17.4-33.8 28.7-57.2 28.7-39.4 0-71.3-32-71.3-71.4 0-19.5 7.8-37.2 20.5-50.1l-.5-.5 368.5-368.7-.1-.1 39.7-39.7c18.4-18.4 36.5-30.3 60.6-30.3s45.1 13.4 62 30.3l39.7 39.7-.1.1 365.9 366c14.6 13.1 23.8 32.1 23.8 53.3zM81.3 569.6c23.4 0 44.1-11.3 57.2-28.7l360.9-361 368.5 368.7.1-.1c12.9 13 30.8 21.1 50.7 21.1 39.4 0 71.3-32 71.3-71.4 0-21.2-9.2-40.2-23.9-53.2L600.3 79l.1-.1-39.7-39.7c-16.9-16.9-37.9-30.3-62-30.3s-42.2 11.9-60.6 30.3l-39.7 39.7.1.1L30 447.7l.5.5C17.8 461.1 10 478.7 10 498.3c0 39.4 31.9 71.3 71.3 71.3z"/></svg>