<?xml version="1.0" encoding="UTF-8" standalone="no"?>
<!-- Created with Inkscape (http://www.inkscape.org/) -->
<svg id="collapseInverted" xmlns:rdf="http://www.w3.org/1999/02/22-rdf-syntax-ns#" xmlns="http://www.w3.org/2000/svg" height="24" width="24" version="1.1" xmlns:cc="http://creativecommons.org/ns#" xmlns:xlink="http://www.w3.org/1999/xlink" xmlns:dc="http://purl.org/dc/elements/1.1/">
 <metadata id="metadata7">
  <rdf:RDF>
   <cc:Work rdf:about="">
    <dc:format>image/svg+xml</dc:format>
    <dc:type rdf:resource="http://purl.org/dc/dcmitype/StillImage"/>
    <dc:title/>
   </cc:Work>
  </rdf:RDF>
 </metadata>
 <g id="layer1" transform="translate(0 -1028.4)">
  <path id="path3765-3" d="m12 0.5c-6.3429 0-11.5 5.1571-11.5 11.5 0 6.343 5.1571 11.5 11.5 11.5 6.343 0 11.5-5.157 11.5-11.5v-0.094c-0.052-6.3057-5.194-11.406-11.5-11.406zm6.875 4.5l-0.625 4.5312-0.594 4.4998-3.906-3.843-3.9062-3.8442 4.5002-0.6876 4.531-0.6562zm-12.594 4.9688l3.9378 3.8122 3.906 3.844-4.5 0.687-4.5 0.688 0.5938-4.531 0.5624-4.5002z" transform="translate(0 1028.4)" stroke="#000" stroke-linecap="square" stroke-width="1.177"/>
 </g>
</svg>
