<?xml version="1.0" encoding="UTF-8" standalone="no"?>
<!-- Created with Inkscape (http://www.inkscape.org/) -->
<svg id="expandInverted" xmlns:rdf="http://www.w3.org/1999/02/22-rdf-syntax-ns#" xmlns="http://www.w3.org/2000/svg" height="24" width="24" version="1.1" xmlns:cc="http://creativecommons.org/ns#" xmlns:dc="http://purl.org/dc/elements/1.1/">
 <metadata id="metadata7">
  <rdf:RDF>
   <cc:Work rdf:about="">
    <dc:format>image/svg+xml</dc:format>
    <dc:type rdf:resource="http://purl.org/dc/dcmitype/StillImage"/>
    <dc:title/>
   </cc:Work>
  </rdf:RDF>
 </metadata>
 <path id="path3853" stroke-width="0" d="m12 2.1562c-5.4339 0-9.8438 4.4099-9.8438 9.8438 0 5.434 4.4099 9.844 9.8438 9.844 5.434 0 9.844-4.41 9.844-9.844v-0.094c-0.045-5.402-4.442-9.7498-9.844-9.7498zm5.375 4.3438l-0.437 3.562-0.5 3.563-3.063-3.063-3.063-2.9995 3.563-0.5625 3.5-0.5zm-9.875 3.875l3.125 3 3.063 3.063-3.5 0.5-3.563 0.562 0.4375-3.562 0.4375-3.563z"/>
 <path id="path3015" stroke-width="0" d="m12 2.1562c-5.4339 0-9.8438 4.4099-9.8438 9.8438 0 5.434 4.4099 9.844 9.8438 9.844 5.434 0 9.844-4.41 9.844-9.844v-0.094c-0.045-5.402-4.442-9.7498-9.844-9.7498zm5.375 4.3438l-0.437 3.562-0.5 3.563-3.063-3.063-3.063-2.9995 3.563-0.5625 3.5-0.5zm-9.875 3.875l3.125 3 3.063 3.063-3.5 0.5-3.563 0.562 0.4375-3.562 0.4375-3.563z"/>
</svg>
