<?xml version="1.0" encoding="UTF-8" standalone="no"?>
<!-- Created with Inkscape (http://www.inkscape.org/) -->
<svg id="expandInverted" xmlns:rdf="http://www.w3.org/1999/02/22-rdf-syntax-ns#" xmlns="http://www.w3.org/2000/svg" height="24" width="24" version="1.1" xmlns:cc="http://creativecommons.org/ns#" xmlns:xlink="http://www.w3.org/1999/xlink" xmlns:dc="http://purl.org/dc/elements/1.1/">
 <metadata id="metadata7">
  <rdf:RDF>
   <cc:Work rdf:about="">
    <dc:format>image/svg+xml</dc:format>
    <dc:type rdf:resource="http://purl.org/dc/dcmitype/StillImage"/>
    <dc:title/>
   </cc:Work>
  </rdf:RDF>
 </metadata>
 <g id="layer1" transform="translate(0 -1028.4)">
  <path id="path3765-3" d="m12 0.5c-6.3429 0-11.5 5.1571-11.5 11.5 0 6.343 5.1571 11.5 11.5 11.5 6.343 0 11.5-5.157 11.5-11.5v-0.094c-0.052-6.3057-5.194-11.406-11.5-11.406zm1.531 1.1562l4.344 4.25 4.375 4.2498-5 0.75-5 0.813 0.625-5.0628 0.656-5zm-1.781 10.625l-0.656 5.031-0.656 5.032-4.3442-4.282-4.3438-4.281 5-0.75 5-0.75z" transform="translate(0 1028.4)" stroke="#000" stroke-linecap="square" stroke-width="1.177" fill="#000200"/>
 </g>
</svg>
