<svg id="octoDots" xmlns="http://www.w3.org/2000/svg" width="24" height="24"><path d="M10.12372 2.16902c0 1.03025-.83518 1.86543-1.86543 1.86543-1.0303 0-1.86548-.83518-1.86548-1.86543 0-1.03025.83518-1.86543 1.86543-1.86543 1.03024 0 1.86542.83513 1.86542 1.8654zm0 6.529c0 1.03026-.83518 1.86544-1.86543 1.86544-1.0303 0-1.86548-.83518-1.86548-1.86543 0-1.03025.83518-1.86543 1.86543-1.86543 1.03024 0 1.86542.83518 1.86542 1.86543zm0 6.52902c0 1.03025-.83518 1.86544-1.86543 1.86544-1.0303 0-1.86548-.8352-1.86548-1.86544 0-1.03025.83518-1.86543 1.86543-1.86543 1.03024 0 1.86542.8352 1.86542 1.86548zm0 6.52902c0 1.03024-.83518 1.86543-1.86543 1.86543-1.0303 0-1.86548-.8352-1.86548-1.86548S7.228 19.8906 8.25826 19.8906c1.03024 0 1.86542.8352 1.86542 1.86544zm7.4534-19.58704c0 1.03025-.83518 1.86543-1.86543 1.86543-1.0303 0-1.86548-.83518-1.86548-1.86543 0-1.03025.83518-1.86543 1.86543-1.86543 1.03024 0 1.86542.83513 1.86542 1.8654zm0 6.529c0 1.03026-.83518 1.86544-1.86543 1.86544-1.0303 0-1.86548-.83518-1.86548-1.86543 0-1.03025.83518-1.86543 1.86543-1.86543 1.03024 0 1.86542.83518 1.86542 1.86543zm0 6.52902c0 1.03025-.83518 1.86544-1.86543 1.86544-1.0303 0-1.86548-.8352-1.86548-1.86544 0-1.03025.83518-1.86543 1.86543-1.86543 1.03024 0 1.86542.8352 1.86542 1.86548zm0 6.52902c0 1.03024-.83518 1.86543-1.86543 1.86543-1.0303 0-1.86548-.8352-1.86548-1.86548s.83518-1.86544 1.86543-1.86544c1.03024 0 1.86542.8352 1.86542 1.86544z"/></svg>