<svg xmlns="http://www.w3.org/2000/svg" viewBox="0 0 24 24" id="qrcode-scan"><path d="M0 10.667h2.667v2.666H0v-2.666m10.667-8h2.666V8h-2.666V2.667m-2.667 8h5.333V16h-2.666v-2.667H8v-2.666m8 0h2.666v2.666h2.667v-2.666H24v2.666h-2.667V16H24v5.333h-2.667V24h-2.667v-2.667h-5.333V24h-2.666v-5.334H16V16h2.666v-2.667H16v-2.666m5.333 10.666V16h-2.667v5.333h2.667M16 0h8v8h-8V0m2.666 2.667v2.667h2.667V2.667h-2.667M0 0h8v8H0V0m2.667 2.667v2.667h2.667V2.667H2.667M0 16h8v8H0v-8m2.667 2.666v2.667h2.667v-2.667H2.667Z"/></svg>