<?xml version="1.0" encoding="UTF-8" standalone="no"?>
<!-- Generator: Adobe Illustrator 16.0.0, SVG Export Plug-In . SVG Version: 6.00 Build 0)  -->

<svg
   xmlns:dc="http://purl.org/dc/elements/1.1/"
   xmlns:cc="http://creativecommons.org/ns#"
   xmlns:rdf="http://www.w3.org/1999/02/22-rdf-syntax-ns#"
   xmlns:svg="http://www.w3.org/2000/svg"
   xmlns="http://www.w3.org/2000/svg"
   xmlns:sodipodi="http://sodipodi.sourceforge.net/DTD/sodipodi-0.dtd"
   xmlns:inkscape="http://www.inkscape.org/namespaces/inkscape"
   version="1.1"
   id="Layer_1"
   x="0px"
   y="0px"
   width="20"
   height="20"
   viewBox="0 0 20 20"
   enable-background="new 0 0 512 512"
   xml:space="preserve"
   inkscape:version="0.48.4 r9939"
   sodipodi:docname="off(2).svg"><metadata
     id="metadata17"><rdf:RDF><cc:Work
         rdf:about=""><dc:format>image/svg+xml</dc:format><dc:type
           rdf:resource="http://purl.org/dc/dcmitype/StillImage" /><dc:title></dc:title></cc:Work></rdf:RDF></metadata><defs
     id="defs15" /><sodipodi:namedview
     pagecolor="#ffffff"
     bordercolor="#666666"
     borderopacity="1"
     objecttolerance="10"
     gridtolerance="10"
     guidetolerance="10"
     inkscape:pageopacity="0"
     inkscape:pageshadow="2"
     inkscape:window-width="1615"
     inkscape:window-height="1026"
     id="namedview13"
     showgrid="false"
     inkscape:zoom="10.429825"
     inkscape:cx="45.868795"
     inkscape:cy="-0.61672438"
     inkscape:window-x="65"
     inkscape:window-y="24"
     inkscape:window-maximized="1"
     inkscape:current-layer="Layer_1" /><g
     id="g7"
     style="fill:#d35f5f"
     transform="matrix(0.04914859,0,0,0.04757171,-2.6045187,-2.2054474)"><path
       d="M 444.478,346.793 C 398.709,301.02 352.71,255.023 306.796,209.107 l 91.558,-117.72 c 6.492,5.31 16.038,5.013 22.09,-1.041 6.455,-6.453 6.455,-16.919 0,-23.372 -6.451,-6.454 -16.917,-6.454 -23.368,0 -6.057,6.056 -6.354,15.602 -1.046,22.091 L 278.316,180.627 C 236.098,138.411 194.001,96.312 152.289,54.6 c -3.143,-3.143 -6.536,-4.287 -9.842,-3.883 -1.868,0.139 -3.666,0.69 -5.441,2.007 -1.533,1.047 -2.792,2.37 -3.789,3.934 -23.207,27.188 -21.619,63.85 -12.463,96.787 14.605,52.537 50.029,99.02 87.664,137.295 36.971,37.595 82.151,69.182 132.325,86.119 34.488,11.636 75.638,13.375 103.896,-12.696 4.967,-4.589 4.475,-12.735 -0.161,-17.37 z"
       id="path9"
       style="fill:#d35f5f"
       inkscape:connector-curvature="0" /><path
       d="m 235.497,347.308 c -15.174,-11.486 -29.848,-24.341 -43.804,-38.534 -15.596,-15.86 -29.257,-31.486 -41.093,-46.979 -28.317,62.117 -56.634,125.193 -84.951,187.307 -2.52,5.531 0.391,13.398 7.135,13.398 55.086,0 110.171,0 165.258,0 1.406,0 2.614,-1.267 3.649,-1.763 2.875,-0.948 5.029,-3.903 4.614,-7.946 -3.603,-35 -7.205,-70.482 -10.808,-105.483 z"
       id="path11"
       style="fill:#d35f5f"
       inkscape:connector-curvature="0" /></g></svg>