<?xml version="1.0" encoding="UTF-8" standalone="no"?>
<!-- Created with Inkscape (http://www.inkscape.org/) -->

<svg
   xmlns:dc="http://purl.org/dc/elements/1.1/"
   xmlns:cc="http://creativecommons.org/ns#"
   xmlns:rdf="http://www.w3.org/1999/02/22-rdf-syntax-ns#"
   xmlns:svg="http://www.w3.org/2000/svg"
   xmlns="http://www.w3.org/2000/svg"
   xmlns:sodipodi="http://sodipodi.sourceforge.net/DTD/sodipodi-0.dtd"
   xmlns:inkscape="http://www.inkscape.org/namespaces/inkscape"
   id="svg2"
   version="1.1"
   inkscape:version="0.48.4 r9939"
   width="50"
   height="50"
   xml:space="preserve"
   sodipodi:docname="Arrows-collection.ai"><metadata
     id="metadata8"><rdf:RDF><cc:Work
         rdf:about=""><dc:format>image/svg+xml</dc:format><dc:type
           rdf:resource="http://purl.org/dc/dcmitype/StillImage" /><dc:title></dc:title></cc:Work></rdf:RDF></metadata><defs
     id="defs6"><clipPath
       clipPathUnits="userSpaceOnUse"
       id="clipPath18"><path
         d="M 0,800 800,800 800,0 0,0 0,800 z"
         id="path20"
         inkscape:connector-curvature="0" /></clipPath><clipPath
       clipPathUnits="userSpaceOnUse"
       id="clipPath154"><path
         d="M 0,800 800,800 800,0 0,0 0,800 z"
         id="path156"
         inkscape:connector-curvature="0" /></clipPath><clipPath
       clipPathUnits="userSpaceOnUse"
       id="clipPath206"><path
         d="m 249.84,632.895 51.176,0 0,-53.029 -51.176,0 0,53.029 z"
         id="path208"
         inkscape:connector-curvature="0" /></clipPath><clipPath
       clipPathUnits="userSpaceOnUse"
       id="clipPath234"><path
         d="m 340.632,632.482 50.443,0 0,-52.572 -50.443,0 0,52.572 z"
         id="path236"
         inkscape:connector-curvature="0" /></clipPath><clipPath
       clipPathUnits="userSpaceOnUse"
       id="clipPath262"><path
         d="m 423.317,631.236 56.891,0 0,-51.458 -56.891,0 0,51.458 z"
         id="path264"
         inkscape:connector-curvature="0" /></clipPath><clipPath
       clipPathUnits="userSpaceOnUse"
       id="clipPath290"><path
         d="m 533.58,631.237 37.606,0 0,-47.658 -37.606,0 0,47.658 z"
         id="path292"
         inkscape:connector-curvature="0" /></clipPath><clipPath
       clipPathUnits="userSpaceOnUse"
       id="clipPath362"><path
         d="m 70.896,541.319 48.097,0 0,-52.661 -48.097,0 0,52.661 z"
         id="path364"
         inkscape:connector-curvature="0" /></clipPath><clipPath
       clipPathUnits="userSpaceOnUse"
       id="clipPath462"><path
         d="m 154.979,541.319 55.926,0 0,-50.46 -55.926,0 0,50.46 z"
         id="path464"
         inkscape:connector-curvature="0" /></clipPath><clipPath
       clipPathUnits="userSpaceOnUse"
       id="clipPath590"><path
         d="m 426.813,538.051 53.711,0 0,-48.97 -53.711,0 0,48.97 z"
         id="path592"
         inkscape:connector-curvature="0" /></clipPath><clipPath
       clipPathUnits="userSpaceOnUse"
       id="clipPath614"><path
         d="m 514.746,532.306 54.366,0 0,-38.803 -54.366,0 0,38.803 z"
         id="path616"
         inkscape:connector-curvature="0" /></clipPath><clipPath
       clipPathUnits="userSpaceOnUse"
       id="clipPath638"><path
         d="m 691.367,542.842 59.946,0 0,-47.914 -59.946,0 0,47.914 z"
         id="path640"
         inkscape:connector-curvature="0" /></clipPath><clipPath
       clipPathUnits="userSpaceOnUse"
       id="clipPath666"><path
         d="m 611.84,526.695 47.073,0 0,-35.99 -47.073,0 0,35.99 z"
         id="path668"
         inkscape:connector-curvature="0" /></clipPath><clipPath
       clipPathUnits="userSpaceOnUse"
       id="clipPath706"><path
         d="m 244.461,449.061 56.429,0 0,-48.207 -56.429,0 0,48.207 z"
         id="path708"
         inkscape:connector-curvature="0" /></clipPath><clipPath
       clipPathUnits="userSpaceOnUse"
       id="clipPath734"><path
         d="m 342.411,449.061 48.687,0 0,-48.921 -48.687,0 0,48.921 z"
         id="path736"
         inkscape:connector-curvature="0" /></clipPath><clipPath
       clipPathUnits="userSpaceOnUse"
       id="clipPath762"><path
         d="m 423.888,454.561 56.42,0 0,-55.97 -56.42,0 0,55.97 z"
         id="path764"
         inkscape:connector-curvature="0" /></clipPath><clipPath
       clipPathUnits="userSpaceOnUse"
       id="clipPath814"><path
         d="m 702.179,449.892 47.597,0 0,-46.948 -47.597,0 0,46.948 z"
         id="path816"
         inkscape:connector-curvature="0" /></clipPath><clipPath
       clipPathUnits="userSpaceOnUse"
       id="clipPath842"><path
         d="m 64.4135,344.374 53.0685,0 0,-35.993 -53.0685,0 0,35.993 z"
         id="path844"
         inkscape:connector-curvature="0" /></clipPath><clipPath
       clipPathUnits="userSpaceOnUse"
       id="clipPath870"><path
         d="m 154.467,356.772 56.297,0 0,-46.2 -56.297,0 0,46.2 z"
         id="path872"
         inkscape:connector-curvature="0" /></clipPath><clipPath
       clipPathUnits="userSpaceOnUse"
       id="clipPath898"><path
         d="m 246.187,356.772 54.798,0 0,-47.901 -54.798,0 0,47.901 z"
         id="path900"
         inkscape:connector-curvature="0" /></clipPath><clipPath
       clipPathUnits="userSpaceOnUse"
       id="clipPath938"><path
         d="m 518.856,356.772 52.351,0 0,-46.94 -52.351,0 0,46.94 z"
         id="path940"
         inkscape:connector-curvature="0" /></clipPath><clipPath
       clipPathUnits="userSpaceOnUse"
       id="clipPath978"><path
         d="m 695.698,364.133 55.467,0 0,-53.746 -55.467,0 0,53.746 z"
         id="path980"
         inkscape:connector-curvature="0" /></clipPath><clipPath
       clipPathUnits="userSpaceOnUse"
       id="clipPath1002"><path
         d="m 611.92,356.772 45.745,0 0,-48.388 -45.745,0 0,48.388 z"
         id="path1004"
         inkscape:connector-curvature="0" /></clipPath><clipPath
       clipPathUnits="userSpaceOnUse"
       id="clipPath1054"><path
         d="m 333.862,259.898 54.428,0 0,-41.343 -54.428,0 0,41.343 z"
         id="path1056"
         inkscape:connector-curvature="0" /></clipPath><clipPath
       clipPathUnits="userSpaceOnUse"
       id="clipPath1086"><path
         d="m 246.187,264.245 53.017,0 0,-45.005 -53.017,0 0,45.005 z"
         id="path1088"
         inkscape:connector-curvature="0" /></clipPath><clipPath
       clipPathUnits="userSpaceOnUse"
       id="clipPath1114"><path
         d="m 427.134,272.683 52.591,0 0,-54.355 -52.591,0 0,54.355 z"
         id="path1116"
         inkscape:connector-curvature="0" /></clipPath><clipPath
       clipPathUnits="userSpaceOnUse"
       id="clipPath1154"><path
         d="m 691.74,271.456 59.559,0 0,-48.548 -59.559,0 0,48.548 z"
         id="path1156"
         inkscape:connector-curvature="0" /></clipPath><clipPath
       clipPathUnits="userSpaceOnUse"
       id="clipPath1242"><path
         d="m 68.605,183.99 50.68,0 0,-55.005 -50.68,0 0,55.005 z"
         id="path1244"
         inkscape:connector-curvature="0" /></clipPath><clipPath
       clipPathUnits="userSpaceOnUse"
       id="clipPath1266"><path
         d="m 162.403,183.99 46.945,0 0,-54.69 -46.945,0 0,54.69 z"
         id="path1268"
         inkscape:connector-curvature="0" /></clipPath><clipPath
       clipPathUnits="userSpaceOnUse"
       id="clipPath1350"><path
         d="m 334.222,92.5837 56.712,0 0,-53.0293 -56.712,0 0,53.0293 z"
         id="path1352"
         inkscape:connector-curvature="0" /></clipPath><clipPath
       clipPathUnits="userSpaceOnUse"
       id="clipPath1390"><path
         d="m 602.77,164.268 56.396,0 0,-34.819 -56.396,0 0,34.819 z"
         id="path1392"
         inkscape:connector-curvature="0" /></clipPath><clipPath
       clipPathUnits="userSpaceOnUse"
       id="clipPath1426"><path
         d="m 515.794,186.496 55.413,0 0,-56.505 -55.413,0 0,56.505 z"
         id="path1428"
         inkscape:connector-curvature="0" /></clipPath><clipPath
       clipPathUnits="userSpaceOnUse"
       id="clipPath1476"><path
         d="m 429.753,186.496 50.606,0 0,-58.221 -50.606,0 0,58.221 z"
         id="path1478"
         inkscape:connector-curvature="0" /></clipPath><clipPath
       clipPathUnits="userSpaceOnUse"
       id="clipPath1522"><path
         d="m 231.61,731.383 33.538,0 0,-44.253 -33.538,0 0,44.253 z"
         id="path1524"
         inkscape:connector-curvature="0" /></clipPath><clipPath
       clipPathUnits="userSpaceOnUse"
       id="clipPath1542"><path
         d="m 535.563,731.383 33.538,0 0,-44.253 -33.538,0 0,44.253 z"
         id="path1544"
         inkscape:connector-curvature="0" /></clipPath></defs><sodipodi:namedview
     pagecolor="#ffffff"
     bordercolor="#666666"
     borderopacity="1"
     objecttolerance="10"
     gridtolerance="10"
     guidetolerance="10"
     inkscape:pageopacity="0"
     inkscape:pageshadow="2"
     inkscape:window-width="1615"
     inkscape:window-height="1026"
     id="namedview4"
     showgrid="false"
     inkscape:zoom="5.3400704"
     inkscape:cx="56.365639"
     inkscape:cy="20.605571"
     inkscape:window-x="65"
     inkscape:window-y="24"
     inkscape:window-maximized="1"
     inkscape:current-layer="g10" /><g
     id="g10"
     inkscape:groupmode="layer"
     inkscape:label="Arrows-collection"
     transform="matrix(1.25,0,0,-1.25,0,50)"><g
       id="g7771"
       transform="matrix(0.54839921,0,0,0.55256143,9.1069212,8.8738662)"><path
         inkscape:connector-curvature="0"
         d="M 55.993,20 C 55.993,39.879 39.878,55.993 20,55.993 0.122,55.993 -15.993,39.879 -15.993,20 -15.993,0.122 0.122,-15.993 20,-15.993 39.878,-15.993 55.993,0.122 55.993,20"
         style="fill:#f8d362;fill-opacity:1;fill-rule:nonzero;stroke:none"
         id="path696" /><path
         inkscape:connector-curvature="0"
         d="M 55.993,20 C 55.993,39.879 39.878,55.993 20,55.993 0.122,55.993 -15.993,39.879 -15.993,20 -15.993,0.122 0.122,-15.993 20,-15.993 39.878,-15.993 55.993,0.122 55.993,20"
         style="fill:#0088aa;fill-opacity:1;fill-rule:nonzero;stroke:none"
         id="path700" /><g
         transform="translate(-3.4456477,0)"
         id="g7767"><path
           id="path720"
           style="fill:#ffffff;fill-opacity:1;fill-rule:nonzero;stroke:none"
           d="m 18.9955,34.6335 -10.716,0 12.725,-14.633 -12.725,-14.634 10.716,0 12.725,14.634 -12.725,14.633 z"
           inkscape:connector-curvature="0" /><path
           id="path724"
           style="fill:#ffffff;fill-opacity:1;fill-rule:nonzero;stroke:none"
           d="m 35.474684,34.6335 -10.716,0 12.725,-14.633 -12.725,-14.6339998 10.716,0 12.725,14.6339998 -12.725,14.633 z"
           inkscape:connector-curvature="0" /></g></g></g></svg>