<?xml version="1.0" encoding="UTF-8" standalone="no"?>
<svg
   xmlns:dc="http://purl.org/dc/elements/1.1/"
   xmlns:cc="http://creativecommons.org/ns#"
   xmlns:rdf="http://www.w3.org/1999/02/22-rdf-syntax-ns#"
   xmlns:svg="http://www.w3.org/2000/svg"
   xmlns="http://www.w3.org/2000/svg"
   xmlns:sodipodi="http://sodipodi.sourceforge.net/DTD/sodipodi-0.dtd"
   xmlns:inkscape="http://www.inkscape.org/namespaces/inkscape"
   width="1000.01"
   height="1000"
   id="fuel"
   version="1.1"
   inkscape:version="0.48.4 r9939"
   sodipodi:docname="fuel.svg">
  <metadata
     id="metadata43">
    <rdf:RDF>
      <cc:Work
         rdf:about="">
        <dc:format>image/svg+xml</dc:format>
        <dc:type
           rdf:resource="http://purl.org/dc/dcmitype/StillImage" />
      </cc:Work>
    </rdf:RDF>
  </metadata>
  <defs
     id="defs41" />
  <sodipodi:namedview
     pagecolor="#ffffff"
     bordercolor="#666666"
     borderopacity="1"
     objecttolerance="10"
     gridtolerance="10"
     guidetolerance="10"
     inkscape:pageopacity="0"
     inkscape:pageshadow="2"
     inkscape:window-width="1615"
     inkscape:window-height="1026"
     id="namedview39"
     showgrid="false"
     inkscape:zoom="0.6675088"
     inkscape:cx="321.7302"
     inkscape:cy="500"
     inkscape:window-x="65"
     inkscape:window-y="24"
     inkscape:window-maximized="1"
     inkscape:current-layer="fuel" />
  <g
     id="g3020">
    <path
       id="path3"
       d="m 688.18671,464.98297 c 0,9.20347 -7.62152,16.66834 -17.01888,16.66834 H 421.94519 c -9.39735,0 -17.02547,-7.46487 -17.02547,-16.66834 V 318.68112 c 0,-9.20669 7.62812,-16.66831 17.02547,-16.66831 h 249.22264 c 9.39736,0 17.01888,7.46162 17.01888,16.66831 v 146.30185 z"
       inkscape:connector-curvature="0"
       style="fill:#006680" />
    <path
       id="path5"
       d="M 688.18768,327.24245 H 404.9207 v 30.55754 h 283.26698 v -30.55754 z"
       inkscape:connector-curvature="0"
       style="fill:#b3b3b3" />
    <path
       style="fill:#93ac93"
       id="path7"
       d="m 666.91176,412.5592 c 0,21.09555 -17.47435,38.19366 -39.01861,38.19366 -21.54754,0 -39.01528,-17.09811 -39.01528,-38.19366 0,-21.09554 17.46774,-38.19365 39.01528,-38.19365 21.54426,0 39.01861,17.09811 39.01861,38.19365"
       inkscape:connector-curvature="0" />
    <path
       id="path9"
       d="M 560.85652,388.23794 H 425.01917 V 376.6593 h 135.83735 v 11.57864 z"
       inkscape:connector-curvature="0"
       style="fill:#c83737" />
    <path
       id="path11"
       d="M 560.85652,410.41928 H 425.01917 v -11.5754 h 135.83735 v 11.5754 z m 0,23.15403 H 425.01917 v -11.5754 h 135.83735 v 11.5754 z m 0,22.19104 H 425.01917 v -11.57861 h 135.83735 v 11.57861 z"
       inkscape:connector-curvature="0"
       style="fill:#37abc8" />
    <g
       id="g13">
      <path
         id="path15"
         d="m 728.96083,550.58058 c 0,-33.00195 26.3638,-59.75635 58.884,-59.75635 32.5201,0 58.8839,26.7544 58.8839,59.75635 0,33.00196 -26.3638,59.75637 -58.8839,59.75637 -32.5202,0 -58.884,-26.75441 -58.884,-59.75637"
         inkscape:connector-curvature="0"
         style="fill:#afdde9" />
      <path
         id="path17"
         d="m 837.60033,581.07284 c 0,4.30326 -3.8407,7.78455 -8.5838,7.78455 h -66.9463 c -3.8783,0 -7.1442,-2.35847 -8.1917,-5.58188 h -0.376 v -77.75414 c 0,-4.29788 3.83,-7.79529 8.5677,-7.79529 h 29.4632 l 46.0669,51.0374 z M 804.30173,477.5099 h -58.9426 c -9.4755,0 -17.1622,6.97331 -17.1622,15.57984 V 638.81493 H 680.7979 c 17.50314,-14.56881 27.90333,-36.24217 27.85173,-60.06295 -0.096,-44.56362 -37.70324,-81.0259 -83.79158,-81.0259 H 426.52779 c -46.0776,0 -83.79698,36.46219 -83.79698,81.0259 0,23.7888 10.82915,45.20302 27.85712,60.06295 h -27.85712 c -6.94548,0 -12.58029,5.62487 -12.58029,12.56057 0,6.94646 5.63481,12.58202 12.58029,12.58202 h 35.91453 c 4.50677,-21.92992 23.93048,-38.42843 47.18952,-38.42843 15.29294,0 28.81864,7.2097 37.64417,18.33586 8.83091,-11.15839 22.44793,-18.33586 37.76773,-18.33586 23.26977,0 42.67738,16.49851 47.18952,38.42843 h 205.20055 c 4.5121,-21.92992 23.9197,-38.42843 47.1895,-38.42843 23.2698,0 42.672,16.49851 47.1895,38.42843 h 30.6665 c 5.3233,0 9.8407,-3.32544 11.6779,-7.9994 3.6742,-2.85272 6.043,-7.03778 6.043,-11.77083 l 1.1012,-73.46162 z"
         inkscape:connector-curvature="0"
         style="fill:#004455" />
      <path
         id="path19"
         d="m 458.74293,669.12884 c 0,-23.11597 19.38657,-41.86477 43.28726,-41.86477 23.89378,0 43.26656,18.7488 43.26656,41.86477 0,23.116 -19.37278,41.86471 -43.26656,41.86471 -23.90069,0 -43.28726,-18.74871 -43.28726,-41.86471"
         inkscape:connector-curvature="0"
         style="fill:#483737" />
      <path
         id="path21"
         d="m 696.25147,621.52682 c 5.45081,-8.32327 11.41666,-20.77833 12.45536,-39.96084 2.6788,-49.47345 -37.70329,-84.10198 -83.79164,-84.10198 H 426.58493 c -46.07759,0 -83.79697,36.46219 -83.79697,81.0259 0,23.7888 7.38251,35.91345 12.98944,43.03692 h 340.47407 z"
         inkscape:connector-curvature="0"
         style="fill:#ff7f2a" />
      <path
         id="path23"
         d="m 382.57641,668.42173 c 0,-23.11597 19.38657,-41.86477 43.28726,-41.86477 23.89378,0 43.26656,18.7488 43.26656,41.86477 0,23.116 -19.37278,41.86472 -43.26656,41.86472 -23.90069,0 -43.28726,-18.74872 -43.28726,-41.86472"
         inkscape:connector-curvature="0"
         style="fill:#483737" />
      <path
         id="path25"
         d="m 757.63023,669.12884 c 0,-23.11597 19.3866,-41.86477 43.2873,-41.86477 23.8937,0 43.2665,18.7488 43.2665,41.86477 0,23.116 -19.3728,41.86471 -43.2665,41.86471 -23.9007,0 -43.2873,-18.74871 -43.2873,-41.86471"
         inkscape:connector-curvature="0"
         style="fill:#483e37" />
      <path
         id="path27"
         d="m 765.06413,669.19316 c 0,-19.24712 16.0623,-34.85801 35.8645,-34.85801 19.7967,0 35.8475,15.61089 35.8475,34.85801 0,19.24718 -16.0508,34.85799 -35.8475,34.85799 -19.8022,0 -35.8645,-15.61081 -35.8645,-34.85799 m -376,-0.25 c 0,-19.24712 16.0623,-34.85801 35.8645,-34.85801 19.7967,0 35.8475,15.61089 35.8475,34.85801 0,19.24718 -16.0508,34.85799 -35.8475,34.85799 -19.8022,0 -35.8645,-15.61081 -35.8645,-34.85799 m 77,1 c 0,-19.24712 16.0623,-34.85801 35.8645,-34.85801 19.7967,0 35.8475,15.61089 35.8475,34.85801 0,19.24718 -16.0508,34.85799 -35.8475,34.85799 -19.8022,0 -35.8645,-15.61081 -35.8645,-34.85799"
         inkscape:connector-curvature="0"
         style="fill:#ac9d93" />
    </g>
    <g
       id="g29">
      <path
         id="path31"
         d="m 346.07841,689.98242 c 0,6.62847 -4.24731,12.05169 -9.42801,12.05169 H 111.9336 c -5.18541,0 -9.42802,-5.42322 -9.42802,-12.05169 v -8.60487 c 0,-6.62238 4.24261,-12.05165 9.42802,-12.05165 h 224.7168 c 5.1807,0 9.42801,5.42927 9.42801,12.05165 v 8.60487"
         inkscape:connector-curvature="0"
         style="fill:#165044" />
      <path
         id="path33"
         d="m 378.29395,391.14973 -11.59176,-14.81751 v -22.63299 l 11.59176,14.8175 v 22.633 z m -72.93044,10.23184 c 0,19.9696 -12.65711,36.15495 -28.28404,36.15495 H 171.4951 c -15.62693,0 -28.28406,-16.18535 -28.28406,-36.15495 v -38.5713 c 0,-19.95754 12.65713,-36.15494 28.28406,-36.15494 h 105.58437 c 15.62693,0 28.28404,16.1974 28.28404,36.15494 v 38.5713 z m 40.11622,-91.85165 c -1.84318,-2.35006 -4.82714,-2.35006 -6.66561,0 -1.84317,2.35611 -1.84317,6.17046 0,8.52053 l 19.12945,24.45882 c -0.38655,0.88579 -0.66938,1.84993 -0.66938,2.92856 v 35.88377 l 21.01976,26.86916 v 168.73515 c 0,7.23099 -1.32464,13.07604 -3.82306,16.91448 -1.9139,2.95266 -4.50187,4.56758 -7.27372,4.56758 -6.00093,0 -12.08672,-7.36958 -12.08672,-21.48206 V 438.35603 L 328.0049,403.69549 V 321.5635 c 0,-16.64333 -10.54995,-30.12912 -23.57946,-30.12912 h -160.2763 c -13.02009,0 -23.57004,13.48579 -23.57004,30.12912 v 309.87803 c 0,16.64334 10.54995,30.12913 23.57004,30.12913 h 160.2763 c 13.02951,0 23.57946,-13.48579 23.57946,-30.12913 V 420.73652 l 17.67753,22.6089 v 133.58049 c 0,21.78938 11.08264,33.53372 21.51474,33.53372 5.62853,0 10.78094,-3.16959 14.51914,-8.91221 3.93149,-6.03788 6.00565,-14.54634 6.00565,-24.62151 V 363.52735 l -42.24223,-53.99743"
         inkscape:connector-curvature="0"
         style="fill:#164450" />
      <path
         id="path35"
         d="m 323.09018,414.40409 c 0,32.94924 -3.3866,59.90824 -7.51753,59.90824 H 136.3928 c -4.13461,0 -7.51751,-26.959 -7.51751,-59.90824 v -42.77507 c 0,-32.9199 3.3829,-59.90906 7.51751,-59.90906 h 179.17985 c 4.13093,0 7.51753,26.98916 7.51753,59.90906 v 42.77507"
         inkscape:connector-curvature="0"
         style="fill:#dbe2e3" />
      <path
         id="path37"
         d="m 305.62427,400.02266 c 0,20.16374 -12.70598,36.50654 -28.39328,36.50654 H 171.2388 c -15.68727,0 -28.39329,-16.3428 -28.39329,-36.50654 v -38.94632 c 0,-20.15158 12.70602,-36.50649 28.39329,-36.50649 h 105.99219 c 15.6873,0 28.39328,16.35491 28.39328,36.50649 z m 22.72886,2.33641 v -82.93055 c 0,-16.80517 -10.59073,-30.42207 -23.67056,-30.42207 H 143.78723 c -13.07037,0 -23.66107,13.6169 -23.66107,30.42207 v 312.89104 c 0,16.80511 10.5907,30.422 23.66107,30.422 h 160.89534 c 13.07983,0 23.67056,-13.61689 23.67056,-30.422 V 419.56579"
         inkscape:connector-curvature="0"
         style="fill:#2c89a0" />
    </g>
  </g>
</svg>
