<svg xmlns="http://www.w3.org/2000/svg" width="1000" height="1000" id="online-reports"><defs><clipPath id="a"><path d="M-32768 32767h65535v-65535h-65535v65535z"/></clipPath><linearGradient x2="1" gradientUnits="userSpaceOnUse" gradientTransform="matrix(0 -35.44 -35.44 0 514.24 576.86)" id="b"><stop offset="0" stop-color="#fff"/><stop offset="1" stop-opacity="0" stop-color="#fff"/></linearGradient><linearGradient x2="1" gradientUnits="userSpaceOnUse" gradientTransform="matrix(0 -35.44 -35.44 0 514.24 576.86)" id="c"><stop offset="0" stop-color="#58595b"/><stop offset="1" stop-color="#f0f0f1"/></linearGradient></defs><path d="M-599.60939 199.535497l-.10913-.15942.11671-.0685c-.005.0779.00022.15053-.003.22831" fill="#4d4d55"/><path d="M748.3098694 625.6463822l-200.3057219-.32858462 1.13376196-271.8896832 200.30561243.32859454-1.13375204 271.88975276" fill="#f9f9f9"/><path d="M572.10255343 435.69179736l162.03251952.3982341-.01134568-.92352635-162.03273848-.39786646.01134568.92367538M571.96047365 451.1446038l162.0304992.3999828-.01134568-.92445037-162.03081767-.39952574.01283853.92384428M571.69562166 466.84109405l162.03204182.39864146-.01134568-.92398338-162.032211-.39863153.012739.9241523M571.78711363 482.36426536l162.03155415.3983732-.01134568-.92450998-162.03192238-.39788635.01134568.92368532M571.88358178 497.9434742l162.03143472.39833346-.01283853-.92479812-162.03115606-.39814467.0113457.92455966M571.73639645 513.5643535l162.0319821.3985123-.01134568-.9235164-162.03225082-.39870107.0113457.92374493M571.58967888 529.35882l162.03241005.3998139-.01134568-.92450006-162.03249963-.39989337.0113457.92457954M571.56564395 545.01163276l162.03103662.39799564-.01134568-.9245398-162.03101673-.39802544.01134568.92469876" fill="#131112"/><path d="M567.5944565 484.42750966c-1.02689363-.43299923-1.6873516-1.40666128-1.68097215-2.4811412.00995235-1.4597479 1.2529414-2.6218908 2.76735097-2.58989775.36482336.00993574.71698734.08077752 1.0488485.222163 1.028068.43314825 1.6883568 1.40689973 1.67918073 2.48257194-.00398094.70805012-.2949081 1.3662328-.81755585 1.85520993-.5231852.48831145-1.21437603.75049556-1.94894917.7341016-.36191728-.00794858-.71526558-.0840563-1.047704-.2225306" fill="#a88c74"/><path d="M569.8093325 479.19023597c-.38417073-.16362165-.7931726-.24945644-1.21587883-.2571765-1.75516692-.03666286-3.19447605 1.30971833-3.20750368 3.0014457-.00696666 1.24653702.7568664 2.37497792 1.94858092 2.87676222.38330488.16312485.7942375.24953592 1.21535135.2582893.85106543.01828175 1.65256813-.2848177 2.25830808-.85147242.60636694-.56694283.94270668-1.33110003.94839942-2.1502217.00895712-1.24616938-.75523422-2.3762596-1.94683927-2.8780936zm-.33930553.77195674c.83437533.35195347 1.42042952 1.1598875 1.41258707 2.08724904-.00895712 1.22997414-1.05028165 2.20476887-2.32555612 2.17816098-.3129318-.0079486-.61186064-.073127-.8816689-.1880238-.83565918-.3516852-1.41897648-1.1591622-1.41376145-2.0868814.00895712-1.22994435 1.05099822-2.20429197 2.32700916-2.1776046.31179724.00993574.61018865.07272957.88139024.18650365" fill="#efe2a8"/><path d="M567.36035727 500.24435142c-1.0271723-.43270116-1.68738145-1.40659173-1.6808527-2.48106172.00995234-1.45972803 1.2527921-2.62204977 2.7664453-2.5903051.3643755.00993572.71689776.08057878 1.04890822.22221265 1.02807794.43314826 1.68839658 1.40680038 1.679121 2.48245273-.00398095.70803024-.29499767 1.3661831-.81755586 1.85532915-.52306576.4882121-1.2147144.75021736-1.94893922.73403206-.36191727-.0079486-.7150068-.08435438-1.04773384-.22254055M567.54929272 515.4316453c-1.02718224-.4326813-1.6873118-1.40663148-1.6808129-2.48112135.00995235-1.45975783 1.25276224-2.6219206 2.76689316-2.59011632.36438546.00993573.71693757.0807775 1.04892813.22221266 1.028068.43314825 1.68830703 1.40677056 1.6792703 2.4824229-.00398095.7080203-.29493795 1.36624273-.81761557 1.85527948-.52316528.48830152-1.2142964.7504459-1.94890936.7340718-.3615789-.00993573-.7153054-.0840563-1.0473656-.22282867M567.23003122 531.5283667c-1.02689362-.43299922-1.68728193-1.40662153-1.68094228-2.48109153.00995235-1.4597777 1.25292148-2.62194047 2.76645526-2.59034484.36438546.00993573.71658924.08107558 1.04889827.2221928 1.028068.43312838 1.6883767 1.40682024 1.67945938 2.4826713-.00398094.70789114-.29543556 1.36592477-.81763547 1.85518012-.5187763.49052712-1.2138784.75069427-1.94894917.73408173-.36192722-.0079486-.71518595-.08455308-1.04788312-.22262002M566.99725566 547.06533875c-1.02732157-.43275083-1.68748097-1.4066712-1.68084276-2.48104185.00995236-1.45984726 1.25268263-2.62194048 2.76645526-2.59036472.36436556.00993573.71649967.08087686 1.0492068.22190465 1.02774952.43297936 1.6879786 1.4068302 1.6791409 2.48245273-.00398094.7078514-.2950076 1.3661533-.817735 1.8552596-.51870662.49047744-1.21386845.75059492-1.9488795.73403206-.3636888-.00993573-.71505657-.0838576-1.04771393-.2225306" fill="#a88c74"/><path d="M569.7437266 494.93715004c-.3841807-.16363158-.7927745-.2497247-1.21584898-.25716656-1.75521668-.03666286-3.19454572 1.30978788-3.20745392 3.0014159-.00696664 1.24663638.75685646 2.37507727 1.94860084 2.87688145.38329493.16312485.79347116.2500625 1.21533145.2582893.8510256.01828175 1.65259798-.28483758 2.2582384-.85148235.6064366-.56698258.94245787-1.33146765.9484691-2.150331.0089571-1.24605015-.7552442-2.37623973-1.9468791-2.87797436zm-.3393553.77198655c.83439524.3519634 1.42013095 1.16020543 1.41260698 2.0873583-.00895712 1.22992448-1.05022194 2.20462978-2.32559593 2.178161-.3129119-.0079486-.61152226-.07322636-.8814002-.1883517-.8355895-.3516355-1.41924518-1.15882435-1.41371167-2.0868516.00895712-1.22995426 1.05106788-2.2043118 2.32696935-2.17756482.3121356.00794858.61020855.0726302.8814002.18650363M569.51142875 510.3341475c-.38419064-.16345275-.7932124-.24947632-1.21589873-.2571765-1.75513707-.03676223-3.19447606 1.30978787-3.20742407 3.00139603-.00696664 1.24648733.75669722 2.3749779 1.9484615 2.876792.3833049.16312487.79382945.24979427 1.2153016.25874636.85106542.01828174 1.65264775-.28476804 2.25829812-.8514426.60651623-.56710182.94243796-1.33148754.94845914-2.15035088.00895712-1.2460899-.75528398-2.3762596-1.94694874-2.8780638zm-.33936524.77199648c.83441514.3519634 1.42042953 1.15988748 1.4124975 2.08725896-.0089571 1.22997414-1.05007265 2.2047192-2.32558597 2.17819078-.3137877-.00993573-.61150236-.07322635-.88135043-.18835168-.83561937-.35165538-1.41963333-1.15854616-1.41372163-2.08690127.0089571-1.2299344 1.05102807-2.20437145 2.32700916-2.17761452.31178728.00993573.6101787.07272956.88138028.18651357M569.44553423 526.15115816c-.38417073-.16345274-.7932124-.2494763-1.21593854-.25719638-1.75514703-.0365635-3.1943666 1.30975808-3.2075435 3.00151527-.00696665 1.2464476.75687635 2.37499778 1.94857097 2.87674234.38328498.16312485.79396878.24987373 1.21520207.25824955.85116495.01848046 1.65255818-.28480777 2.25843746-.85134325.60471485-.5679066.9419304-1.33163656.9485089-2.15026144.0089571-1.2461992-.75531385-2.3762795-1.94698856-2.87813334zm-.3397534.77173816c.8344052.35195345 1.42017077 1.1602253 1.4124577 2.08738812-.00895712 1.23000395-1.04995322 2.20481855-2.3255362 2.17812124-.3133498-.00993573-.61151232-.07322635-.88174853-.18807348-.83563928-.35166532-1.41906605-1.15920193-1.41384107-2.0868814.00895712-1.2299046 1.05111765-2.20437145 2.32708878-2.17764433.3117873.00993573.61018866.07272956.88129072.18644402M569.38042595 541.75818705c-.39109758-.15781917-.7930233-.24939682-1.21541108-.25741496-1.75494797-.0365635-3.19466515 1.30971833-3.20532412 3.0026082-.0089571 1.2463979.75671713 2.3748984 1.94824256 2.87668272.39111748.15780924.7942773.2495558 1.21525184.25872647.85116494.01848046 1.6526378-.28487733 2.2584673-.85136313.60475467-.56794634.94202993-1.3317359.94815062-2.15054957.00895712-1.24597068-.7551944-2.37616026-1.94671984-2.87796444zm-.33971358.77170836c.83462413.35206275 1.4193447 1.16073203 1.4125572 2.08732852-.0089571 1.23000395-1.05015226 2.20476887-2.32690963 2.17751515-.31457394-.00993573-.61238812-.07392185-.8816689-.18803374-.8353208-.3514964-1.41967314-1.158109-1.41376145-2.08693108.00995234-1.2297655 1.05104797-2.20432176 2.32704896-2.17762445.3135389.00993573.60800908.07163663.8813803.18647383" fill="#efe2a8"/><path d="M567.65972402 468.7505332c-1.02680405-.43296942-1.68734165-1.40660166-1.68093234-2.48109153.00995236-1.45970815 1.2529215-2.62194047 2.76645526-2.59034484.36482337.00993573.71685796.0805788 1.0488485.22216298 1.02801825.43310853 1.68838665 1.40686994 1.6792504 2.4825024-.00398094.70797064-.29502752 1.36613344-.81766533 1.85529936-.52306575.4882121-1.21470445.75020743-1.94894916.73405192-.3615988-.00993573-.71531534-.0840563-1.0473656-.22281874" fill="#a88c74"/><path d="M569.63381282 463.76409702c-.38328497-.16312486-.79474506-.24979426-1.21563997-.25799123-1.7562816-.03666287-3.1948244 1.31061254-3.20778235 3.00227037-.00696665 1.24643765.75650812 2.37569328 1.94725727 2.87716957.38417073.16345274.794755.24978432 1.21651578.25797137.85046828.01808304 1.65259798-.28483758 2.25830807-.85140286.60695414-.56741975.94181097-1.33155707.9480909-2.15145373.00895712-1.24522548-.7547565-2.37505738-1.94636155-2.87683175zm-.3393354.77195674c.8357388.35169513 1.42003144 1.1592218 1.41255722 2.087408-.0089571 1.2302126-1.05017217 2.20472913-2.32607363 2.17798214-.31326022-.0079486-.61097488-.0726302-.8822561-.18693088-.83529093-.3524105-1.41925513-1.15929134-1.41245767-2.08722915.0089571-1.22998408 1.05071955-2.2035567 2.3261831-2.17813117.3129318.00794858.6109749.0726302.88230587.18698055" fill="#efe2a8"/><path d="M567.5576726 452.86351536c-1.0268339-.43297935-1.6873118-1.40663147-1.6808328-2.4811909.00995234-1.45973795 1.2527921-2.6219504 2.76737087-2.58990766.3639376.0079486.71653948.08087686 1.04885846.22216298 1.0281078.4331582 1.68833688 1.40680038 1.67933 2.48243285-.00398094.70805012-.29502752 1.36617317-.81769518 1.85526955-.52312548.48826177-1.21474427.7502273-1.94890936.7341314-.3619173-.00794858-.71494712-.08435436-1.04769405-.2225306" fill="#a88c74"/><path d="M569.8559294 447.896275c-.38328496-.16313478-.79447633-.24966508-1.21676458-.25763353-.84848776-.01848047-1.65183165.28349625-2.2575517.84973366-.6064764.56702232-.94273653 1.33113977-.94878756 2.15123514-.0089571 1.24602035.75590104 2.37454073 1.94679946 2.87594748.3854944.16428734.7961185.25048975 1.21852616.25808065.84900528.01828175 1.65102552-.28403278 2.25617827-.85146247.60582952-.56652554.9421593-1.32949045.948071-2.14942684.0089571-1.2461992-.7546371-2.3750574-1.94634165-2.87693113zm-.339833.77064524c.83563928.35209256 1.41915563 1.15828783 1.41127336 2.08780543-.0089571 1.22997414-1.04900774 2.20426215-2.32527745 2.17734625-.31179722-.00993574-.6110744-.07322635-.88287312-.18727863-.83477342-.35166533-1.41851867-1.158884-1.41169136-2.0868814.00895712-1.23002384 1.05016222-2.2047192 2.32706887-2.1776642.31178727.00993573.61020855.07272956.88143004.18651357" fill="#efe2a8"/><path d="M567.53513052 438.09619497c-1.0268538-.43296942-1.68728193-1.40660166-1.68084276-2.4811909.00995235-1.45967834 1.25286177-2.6218709 2.7673012-2.58986792.36437552.00993573.71688782.0805788 1.04884852.22218285 1.02811776.43314827 1.6884165 1.40684012 1.67926034 2.4825521-.00398094.70795074-.29493795 1.36614335-.8175658 1.85517017-.52319515.48833132-1.21483384.75027698-1.94886956.7341016-.36193718-.00794858-.71564377-.08326144-1.04775375-.22257034" fill="#a88c74"/><path d="M569.69745812 432.59330934c-.38417074-.16346267-.79559102-.2502215-1.21582907-.2590146-1.7559233-.0321918-3.19520258 1.31145708-3.2077326 3.0022505-.00696664 1.24649727.7563887 2.37580257 1.94812313 2.87760675.38374278.16329375.79353087.2496452 1.21563997.2575143.8504882.01808304 1.65250842-.2852847 2.25825832-.8514128.60642666-.56700245.9419702-1.33052375.94810085-2.1514438.00895712-1.24522548-.75505508-2.3742327-1.94586394-2.8756196zm-.33926573.7718872c.8347734.3516852 1.41881723 1.15859584 1.41162168 2.08696088-.00696665 1.22949723-1.0500627 2.20480862-2.32634235 2.17703825-.31179723-.00993574-.61108436-.07322635-.8810419-.18678184-.83689328-.35181436-1.419285-1.15931122-1.4137913-2.0868516.00995234-1.23081868 1.05111764-2.20432176 2.32776553-2.17823053.31284223.0079486.60977065.0724315.88137033.18836162" fill="#efe2a8"/><text transform="matrix(.93 0 0 1.06 87.15 -8.84)" y="558.53558" x="544.91553" style="text-indent:0;text-align:center;line-height:125%;text-transform:none;block-progression:tb;-inkscape-font-specification:Roboto Light" font-size="10.52661037" font-weight="300" letter-spacing="0" word-spacing="0" text-anchor="middle" color="#000" overflow="visible" font-family="Roboto"><tspan y="558.53558" x="544.91553">15.03.2015</tspan></text><path d="M674.08227307 587.9268836c-.0926564-1.26163932.0059714-2.51063046.21030315-3.746417.16301952-.992222.48089764-1.93076124.87584677-2.83056106.32895508-.73074333.76061844-1.3761089 1.36129264-1.83694805.5178109-.3421469 1.0155778-.2520596 1.53107977.0272239.6177425.407216 1.06835513 1.04645123 1.50227767 1.67540297.4985133.7797563.96503975 1.58371603 1.50558184 2.32754472.50345964.68348897 1.14116654 1.11216615 1.89249944 1.3341801.82702054.17993612 1.6151871-.06607262 2.37973672-.40824932.93636703-.45595077 1.72433454-1.18740947 2.46755627-1.96277417.85296632-.91215985 1.56231025-1.96942116 2.21766267-3.06683276.66167216-1.12337367 1.19515804-2.33077383 1.6602414-3.5720449.37050615-1.00305195.61562262-2.052007.73027372-3.13030224.00696664-.13837495.01930756-.5532812.02348755-.4148069.0618041 2.0782572.0415013.51145177-.24231987.07322635-.36719202-.2831485-.76265867.2147708-1.0178768.4774815-.68922026.79086444-1.25313047 1.7071377-1.80601348 2.62152318-.77936867 1.30972827-1.4760532 2.67874305-2.1526738 4.0590349-.7266013 1.5035744-1.37442976 3.0534692-2.0081358 4.60949436-.56956316 1.42487347-1.14551572 2.8464284-1.71971666 4.26889744-.30246193.80191297-.67462017 1.5755588-.91085915 2.40791486-.00696664.04967866-.0262742.19936047-.0236866.14900618.02766755-.52184455.00099525-1.05341618.09832925-1.5644109.01532662-.08038008.99064716-.93136564 1.10461154-1.0347867.61143268-.56433966 1.29280055-.97664276 2.04713906-1.22597997.74803867-.21525763 1.50131228-.10049992 2.24604678.0594157.77223284.21222724 1.5484267.33343324 2.34249502.31115733 1.08645844-.07511414 2.08356467-.5618756 3.05459574-1.08091828 1.3509024-.77456985 2.62262387-1.71064502 3.91838028-2.59501464 1.10351678-.77054586 2.26265725-1.4211277 3.5014464-1.85365995.8104001-.260962 1.65055775-.23285383 2.4827137-.20127807.59095075.04898316 1.1732131.00298072 1.74920547-.1486783.48359473-.1599653.93850678-.4052984 1.43459172-.51380654.4864013-.06855655.75349256.23487078.94483648.70330083.22085264.7832338.2255601 1.61826258.26425484 2.43243625.04926414.78122678.05025937 1.58570318.2940721 2.3275149.25057035.54470668.6185486.17476955.91494955-.1167846.61112417-.70273448 1.09673923-1.5288807 1.59812877-2.33164817.40928052-.64223582.7879874-1.31364295 1.26220703-1.89807267.82420402-.53063767.38607163 1.41821653.2638269 2.08056228-.13822822.70391684-.31876388 1.3957419-.4705273 2.095754-.03493275-.24859202-.03612704.441077-.03582847.3301942.00597142-2.20520603-.04478558-1.48290808.56630873-3.109159.44280005-1.1849454.78499177-2.41220708 1.0635581-3.658605.10981425-.535844.20538668-1.0781462.24531552-1.62735376.01134568-.1480126.0156252-.59355073.016919-.44508108.01283853 1.30972827.01701852 1.2328853-.05006033.6562452-.12032395-.64159-.4863217-.6881687-.97511155-.5159924-.94016882.48815248-1.7037033 1.3100959-2.4670288 2.08257923-1.37077723 1.43265316-2.70020245 2.91559105-4.03222522 4.39433607-1.60263718 1.8055412-3.22700035 3.5852793-4.8900682 5.31896528-1.64509392 1.72934407-3.41032267 3.29678537-5.2419336 4.76103416-1.73830765 1.3978781-3.64475032 2.46468764-5.61872965 3.3538264-1.88029785.8233543-3.85423737 1.24963697-5.85561553 1.43271278-1.89354442.12758474-3.7689059-.18453636-5.61572404-.62517617-.83360898-.2030069-1.64337214-.5023109-2.45092588-.80755647l.03911274-1.37400253c.80282638.30576224 1.60791193.6055829 2.4370324.80894748 1.83501466.44096768 3.69870203.75400288 5.580851.62675595 1.98956473-.18277774 3.95149176-.60873253 5.81970745-1.4303282 1.96463408-.88899967 3.86118412-1.95568005 5.59040526-3.35088543 1.82611724-1.46426866 3.58597172-3.03115356 5.2264975-4.75858996 1.66142573-1.73473916 3.2843856-3.51516283 4.8861868-5.32074377 1.3335853-1.48180523 2.66398583-2.96849883 4.03730092-4.40306958.7760247-.7845155 1.55470665-1.62034908 2.51982602-2.09553543.52483728-.17143113 1.0039634-.15548428 1.18285693.52930628.22068345 1.3777483.05015986 2.80906013-.22480372 4.15862075-.28689644 1.24741136-.6343032 2.47628264-1.08195002 3.66256937-.16466167.43258193-.21397557.57517956-.39050044.9904137-.05822125.13671568-.0909645.5201654-.18038637.4071862-.40956914-.51742316-.36069314-.87547715-.26273214-1.3679616.1571974-.69699165.33228912-1.3890949.46516297-2.09293228.18814922-1.09439113.31643503.8512141.00398094.67740832-.4629038.58826492-.84139173 1.25257794-1.2481742 1.89023338-.5066842.80951382-.9979721 1.64503938-1.6291204 2.33886152-.36016566.32976697-.8107783.66985716-1.14398304.11179686-.28850873-.73135934-.2812236-1.55144477-.33428955-2.33798717-.0376199-.80938465-.04309368-1.63288797-.22360944-2.42175534-.13951206-.4329098-.32570066-.76042134-.77749762-.69338496-.4934177.11196577-.94623977.36243566-1.43072026.51213734-.5867409.15083436-1.1797518.19792973-1.7809435.14751582-.8186108-.0325892-1.6451835-.06348933-2.44209817.1961413-1.22854817.43240308-2.3772785 1.0821205-3.4723059 1.84674468-1.2990805.88698272-2.5746834 1.82493575-3.9306615 2.59840273-.98724344.52504386-2.00145776 1.0131268-3.10486507 1.08769446-.80260742.02275283-1.5879873-.09419074-2.3684607-.3104519-.72560607-.15748136-1.45937308-.27465345-2.18811414-.05941568-.73847446.25089712-1.40249538.66630016-1.9996763 1.22288997-.45422534.41571105-1.9649625 2.29547217-1.41355245-.31018364.25934833-.82273826.61497572-1.60141156.92424505-2.40032395.575027-1.4209886 1.1501336-2.8419176 1.7205228-4.26533052.63621404-1.55688955 1.28659028-3.10760902 2.0170929-4.61102446.68006412-1.38210015 1.3800827-2.75297292 2.1638105-4.0635656.5598795-.92004884 1.12928342-1.84506554 1.83497484-2.63102173.33366254-.3283859.75196984-.76606486 1.21187798-.4796177.65881584.76906546.26673298 2.16849352.28852863 3.0970374-.13155018 1.0788914-.38634034 2.12846246-.76412166 3.13141505-.4739708 1.24196657-1.0149707 2.4502808-1.68365928 3.573883-.6643792 1.09983593-1.38324753 2.1589254-2.2456885 3.07098592-.7573043.780263-1.56054867 1.51381815-2.5121826 1.96789107-.78994804.34673718-1.60366228.59105685-2.45555375.4105246-.7746413-.2202156-1.44165787-.6441435-1.96870457-1.33995278-.54769783-.7387416-1.01697113-1.54173757-1.50972203-2.3276242-.4204172-.61874776-.8543298-1.25096836-1.44736058-1.6681797-.47467742-.27432558-.92346878-.3655058-1.40099258-.02871427-.57560422.46761532-.98504398 1.11122227-1.29985677 1.8276482-.3829466.90024693-.6888819 1.83762368-.84249645 2.82599062-.069766.4470086-.13127152.89069868-.16606494 1.34323156-.00995235.1340529-.01671995.53733436-.02567707.4030132-.0165209-.24772763-.0219947-1.53303387-.00696664-.74520976l-.18076456 1.37448937z" opacity=".41152266" color="#000" fill="#003380" fill-rule="evenodd" overflow="visible"/><path d="M592.1072485 407.51780548h1.84951523v-28.35193092h-1.84951522v28.35193092zM591.06004214 403.08002045c-1.9430972-.6525193-3.27675215-2.1515034-4.00205966-4.53397286l-2.46008205.6166215c1.1743178 3.6639703 3.3268921 5.85584258 6.4621417 6.5857215v-2.66837015zM585.77213862 388.37789833c.46348103 2.4687911 2.51689008 4.51267065 5.287804 5.3905423v-2.8219567c-1.8562032-.57965065-3.17758692-2.01025704-3.17758692-3.70097098 0-1.64698678 1.27013905-3.06412032 3.063941-3.66395043.03562943-.01331388.07802644-.03805386.1136459-.05713046v-2.58987787c-.25402382.04928122-.51363092.12225918-.7598521.20516293-2.30631822.94963745-3.99985023 2.74013595-4.50011515 4.88828108-.06240125.41706233-.10356418.84088094-.10356418 1.29493398 0 .36102478.0278666.70969944.0757374 1.05502577M596.34040177 384.3246659c1.0695892.72315242 1.75034003 1.7983378 2.03110583 3.19643447l2.47456273-.81285222c-1.04731585-3.33992632-3.0795463-5.2571253-6.06661534-5.7728395v2.60892468c.52588227.18611614 1.05510853.43951707 1.56094677.78033257M599.1660337 398.91837923c0 1.27476443-.72422268 2.42843215-1.8562032 3.23007686-.51920424.42827975-1.1665251.72426522-1.96092184.8957957-.16935917.05166582-.34316704.10200024-.5281116.13455964v2.5696984c.10356418-.01500297.1971959-.03139693.30416378-.05047353 3.74692116-1.25905603 6.33401513-3.89268092 6.33401513-6.95455577 0-3.158321-2.7285965-5.61925293-6.6448669-6.8357244l.00597142 2.7322569c2.49571147.47985614 4.3452267 2.20645795 4.3452267 4.2783662" fill="gray" fill-rule="evenodd"/><path d="M593.02721406 425.1769904c-17.2004408 0-31.19877207-14.0885012-31.19877207-31.40036272 0-15.8756613 11.5872745-29.09414008 27.1031006-31.11783023v-6.06773202l1.53643412.89243743 16.099641 9.3459972 1.5286315.88349527-1.52306813.89466305-16.10520438 9.36730933-1.53643413.88684363v-5.378222c-9.4848601 1.92505814-16.5007407 10.43803357-16.5007407 20.29303835 0 11.42912288 9.24309754 20.73138298 20.59641216 20.73138298 11.365556 0 20.60308024-9.3022601 20.60308024-20.73138298 0-3.3960036-.8411927-6.779667-2.45672812-9.77541956l-.47462766-.88571095.86904932-.49556453 7.4370343-4.28507282.90690806-.5235833.50582828.91262685c2.50019004 4.6001349 3.81044702 9.80567386 3.81044702 15.0527243 0 17.31186152-13.99052863 31.40036272-31.20099144 31.40036272" fill="#006680"/><g transform="matrix(1.1 0 0 1.1 -76.41 -352.1)"><path d="M486.80077 834.95287l-186.58852-.52729.21279-251.14456 186.58844.5273-.21281 251.14464" fill="#f2f2f2"/><g fill="#373748"><path d="M364.02890072 648.50769065c-.60313982.49966094-1.3473916.7444224-2.0863327.7444224-.89219174 0-1.77831415-.35410755-2.4080073-1.04711555l-12.24715233-13.46260368c-1.15393167-1.2687043-1.01206104-3.1898644.31560523-4.2912909 1.33221827-1.10359896 3.343443-.96456287 4.49585732.30269314l12.24715234 13.46332782c1.15393165 1.2687043 1.01206102 3.18914026-.31712258 4.29056677zm-32.79335687 17.9103102c0 .7183531-.61072648 1.30273917-1.36484092 1.30273917-.75411445 0-1.36635826-.58438606-1.36635826-1.30273918v-36.9314608c0-.7198014.6122438-1.30418746 1.36635826-1.30418746.75411444 0 1.36484092.58438606 1.36484092 1.30418747v36.9314608zm21.8488348-44.3184771h-24.57093c-2.7691325 0-5.01554382 1.9443328-5.01554382 4.34487774v42.1460382c0 2.39837252 2.24641133 4.34487775 5.01554383 4.34487775h39.1289803c2.77140852 0 5.01781985-1.94650523 5.01781985-4.34487774v-27.3734539l-19.57587014-19.11746205M336.2442597 620.07263828c0 .39828046-.34291724.7241463-.75866645.7241463h-5.76738228c-.4180252 0-.75866644-.32586584-.75866644-.7241463v-1.81036572c0-.39828046.34064123-.7241463.75866644-.7241463h5.76738228c.4157492 0 .75866644.32586584.75866644.7241463v1.81036572"/></g><g fill="#373748"><path d="M412.4040505 650.23185364h-55.99226138c-1.1148469 0-2.02215405-.94462063-2.02215405-2.10279784v-26.8335536h60.03656948v26.8335536c0 1.1581772-.90839376 2.10279784-2.02215405 2.10279784m-55.99226138-41.8717785h55.99226138c1.1137603 0 2.02215405.94462063 2.02215405 2.10618763v1.8124061h-60.03656948v-1.8124061c0-1.161567.90730716-2.10618764 2.02215405-2.10618764m55.99226138-2.00449402h-55.99226138c-2.1775372 0-3.9497743 1.84404412-3.9497743 4.11068167v37.66279303c0 2.2643777 1.7722371 4.10729187 3.9497743 4.10729187h55.99226138c2.1786238 0 3.9508609-1.84291418 3.9508609-4.10729187v-37.66279303c0-2.26663755-1.7722371-4.11068166-3.9508609-4.11068166"/><path d="M393.05268705 644.35126148c0-1.9102335 3.97376678-5.66699165 3.97376678-5.66699165s4.15017232 3.75675815 4.15017232 5.66699165-1.8581383 3.4588484-4.15017232 3.4588484c-2.292034 0-3.97376678-1.5486149-3.97376678-3.4588484M395.08367183 635.4987762c0-.95511674 1.9868834-2.83336686 1.9868834-2.83336686s2.07508614 1.87825012 2.07508614 2.83336687c0 .95511676-.92906914 1.7294242-2.07508615 1.7294242-1.146017 0-1.9868834-.77430744-1.9868834-1.7294242M396.5639928 631.05375416l-7.05343604-6.842639-.055707.04591163v-.04591164h-21.58584778v2.32137476h20.48811017l7.6841632 4.9569089.52271745-.43564466z"/></g><rect width="142.20729" height="132.61084" x="324.06033" y="688.47632" rx="0" ry="0" fill="#f2f2f2" fill-rule="evenodd" stroke="#302424" stroke-width="1.70000005"/><rect width="142.14102" height="19.216209" x="324.04373" y="707.26843" rx="0" ry="0" fill="#f2f2f2" fill-rule="evenodd" stroke="#302424" stroke-width="1.69393229"/><rect width="142.31857" height="19.215197" x="323.94324" y="742.92322" rx="0" ry="0" fill="#f2f2f2" fill-rule="evenodd" stroke="#302424" stroke-width="1.69494522"/><rect width="142.31857" height="19.215197" x="323.97079" y="782.59674" rx="0" ry="0" fill="#f2f2f2" fill-rule="evenodd" stroke="#302424" stroke-width="1.69494522"/><rect width=".15882011" height="113.69414" x="353.56259" y="707.04736" rx="0" ry="0" fill="#f2f2f2" fill-rule="evenodd" stroke="#302424" stroke-width="1.68120158"/><rect width=".15882011" height="113.69414" x="383.61465" y="707.09943" rx="0" ry="0" fill="#f2f2f2" fill-rule="evenodd" stroke="#302424" stroke-width="1.68120158"/><rect width=".15882011" height="113.69414" x="412.80499" y="707.09943" rx="0" ry="0" fill="#f2f2f2" fill-rule="evenodd" stroke="#302424" stroke-width="1.68120158"/><rect width=".15882011" height="113.69414" x="439.77582" y="707.25043" rx="0" ry="0" fill="#f2f2f2" fill-rule="evenodd" stroke="#302424" stroke-width="1.68120158"/></g><path d="M454.236262 557.24533l-130.17422-.24504.14846-116.71334 130.17415.24505-.14847 116.71339" fill="#999"/><g transform="matrix(1.1 0 0 1.1 73.98 200.04)"><path d="M419.65858 475.3577l-186.58852-.52729.21279-251.14456 186.58844.5273-.21281 251.14464" fill="#f4f8b7"/><path d="M250.38164 332.03996l150.93293.0414-.0121-.74348-150.93314-.0411.0121.74361M250.27302 344.48086l150.93102.0428-.0121-.74423-150.93133-.0424.0132.74373M250.05038 357.11816l150.93247.0417-.0121-.74385-150.93261-.0417.0132.74398M250.15942 369.61532l150.93203.0415-.0121-.74429-150.93234-.0411.0121.74363M250.27319 382.1576l150.9319.0414-.0121-.74452-150.93165-.0413.0121.7443M250.16003 394.73381l150.93242.0416-.0121-.74349-150.93269-.0417.0121.74365M250.04761 407.4498l150.93283.0426-.0121-.74426-150.93292-.0427.0121.74435M250.04925 420.0515l150.93151.0412-.0121-.74432-150.93151-.0412.0121.74442" fill="#131112"/><rect width="84.748787" height="83.322037" x="242.64819" y="234.09364" rx="42.374393" ry="41.661018" fill="#7c6f91" fill-rule="evenodd"/><path d="M314.68477323 269.31564212c4.70453495 2.16264682 5.79646074 6.7488771 4.89456588 13.17971668-.46441662 6.63684696-10.59689205 11.41973056-16.9550321 8.85028995-18.34587457 0-35.3525147-.0079942-53.6983902-.0079942 0-7.62504613.1645804-19.3293086 8.39346184-20.03743447 23.29112923.08701733 34.07428693-2.0882595 57.3653946-1.98446258z" fill="#f9f9f9"/><path d="M314.69076974 253.74979525c7.5577395-.03004008 4.88858136 11.6159677 4.88858136 17.32583298 0 17.12959585-13.65133356 1.12718296-18.67054395 2.80790694h-24.83647297c0-7.125433-9.477461-14.2276375 1.11943467-19.93750278 13.20199612.03964136 24.29703873-.2525798 37.4990009-.19623715z" fill="#f9f9f9"/><path d="M278.58233608 257.32847544s-14.76717672-4.54298327-20.65342385 14.28203106h20.3123945l.34102935-14.28203106z" fill="#f9f9f9"/><path d="M294.3145417 289.8074565c0 4.32719742 2.9391533 7.83476627 6.56195775 7.83476627 3.62279246 0 6.56195777-3.50756885 6.56195777-7.83476627 0-4.32530188-2.9391653-7.8309752-6.56195777-7.8309752-3.62280444 0-6.56195776 3.50567332-6.56195776 7.8309752" fill="#564d40"/><path d="M296.44284257 289.8074565c0 2.92266087 1.98428854 5.29258837 4.4333293 5.29258837 2.44904474 0 4.4333253-2.3699275 4.4333253-5.29258837 0-2.92076945-1.98428855-5.2887973-4.4333253-5.2887973-2.44904076 0-4.4333293 2.36802785-4.4333293 5.2887973" fill="#707571"/><path d="M299.02814533 289.8074565c0 1.2152552.82797907 2.20145993 1.84787472 2.20145993 1.02148966 0 1.84787872-.98620473 1.84787872-2.20145993s-.82640104-2.2033472-1.84787872-2.2033472c-1.01989565 0-1.84787472.988092-1.84787472 2.2033472" fill="#d3ceba"/><path d="M255.13138463 289.8074565c0 4.32719742 2.9375761 7.83476627 6.56355817 7.83476627 3.62279286 0 6.561937-3.50756885 6.561937-7.83476627 0-4.32530188-2.93914414-7.8309752-6.561937-7.8309752-3.62598208 0-6.56355817 3.50567332-6.56355817 7.8309752" fill="#564d40"/><path d="M257.25971827 289.8074565c0 2.92266087 1.98587936 5.29258837 4.43490692 5.29258837 2.44745872 0 4.4349173-2.3699275 4.4349173-5.29258837 0-2.92076945-1.98745858-5.2887973-4.4349173-5.2887973-2.44902757 0-4.43490693 2.36802785-4.43490693 5.2887973" fill="#707571"/><path d="M259.84420565 289.8074565c0 1.2152552.82638825 2.20145993 1.84946553 2.20145993 1.01989845 0 1.84787632-.98620473 1.84787632-2.20145993s-.82797787-2.2033472-1.84787632-2.2033472c-1.02307728 0-1.84946553.988092-1.84946553 2.2033472" fill="#d3ceba"/><path d="M277.28042265 259.695572v10.88424655h-16.07101893s4.20017496-13.4756465 16.07101893-10.88424655" fill="#ccc"/><path d="M249.70850815 280.1897146l69.17730815-.29560017v-2.07273673h-68.59151175zM294.61997265 267.96582055c0 4.20398775-3.22655078 7.61230896-7.20742372 7.61230896-3.9808402 0-7.20708655-3.4083212-7.20708655-7.61230895 0-4.20468828 3.22624636-7.6130095 7.20708655-7.6130095 3.98087294 0 7.20742372 3.40832122 7.20742372 7.6130095" fill="#e9afaf"/><path d="M286.54399567 272.09410648h1.79160492v-8.25696745h-1.79160493v8.25696745z" fill="#fff"/><path d="M283.50370413 268.91216963h7.8176916v-1.89275998h-7.8176916v1.89275998z" fill="#fff"/></g></svg>