<svg xmlns="http://www.w3.org/2000/svg" width="1000" height="1000"><path d="M470.958 662.556c-1.535 4.935-6.67 7.723-11.458 6.228L173.552 579.54c-4.796-1.496-7.432-6.712-5.894-11.647 1.542-4.942 6.672-7.73 11.465-6.232l285.947 89.25c4.79 1.5 7.423 6.72 5.888 11.65" fill="#5184b3"/><path d="M419.554 585.29l-39.783-78.704-99.9-31.18c-39.476-12.323-82.78 8.66-104.69 78.936l231.5 72.248 12.877-41.3z" fill="#2ac9de"/><path d="M386.02 566.555l-25.7-50.816-89.574-27.96S241.71 479 213.84 525.46l178.75 55.79-6.573-14.696z" fill="#f4f4f6"/><path d="M300.915 558.412l-14.653-4.573 18.833-60.42 14.66 4.57-18.84 60.413z" fill="#2ac9de"/><path d="M469.553 652.31l3.85-12.328c6.364-20.43-4.537-42.01-24.363-48.193l-224.328-70.02c-19.82-6.19-41.06 5.35-47.426 25.77l-3.846 12.333L469.553 652.3z" fill="#2ac9de"/><path d="M451.98 592.88l-10.613 34.052 32.77 10.23c4.33-18.513-5.09-37.316-22.156-44.282" fill="#ffdc2e"/><path d="M444.037 654.15c5.41-17.366-3.862-35.705-20.707-40.96-16.855-5.265-34.91 4.554-40.322 21.916-5.413 17.36 3.865 35.704 20.713 40.962 16.85 5.26 34.9-4.552 40.32-21.92" fill="#546670"/><path d="M433.27 650.79c3.502-11.232-2.5-23.1-13.403-26.51-10.897-3.402-22.584 2.95-26.09 14.186-3.498 11.235 2.504 23.107 13.404 26.51 10.91 3.402 22.59-2.954 26.09-14.186" fill="#244065"/><path d="M254.4 594.96c5.416-17.36-3.856-35.7-20.707-40.96-16.848-5.26-34.902 4.557-40.315 21.916-5.416 17.367 3.858 35.706 20.707 40.968 16.85 5.258 34.902-4.558 40.315-21.923" fill="#546670"/><path d="M243.637 591.603c3.502-11.232-2.497-23.1-13.403-26.506-10.903-3.406-22.584 2.947-26.092 14.182-3.496 11.23 2.503 23.1 13.406 26.5 10.903 3.402 22.586-2.95 26.09-14.18" fill="#244065"/><path d="M326.973 560.12l-24.23-7.565-3.654 11.707 24.23 7.562 3.65-11.705z" fill="#5184b3"/><path d="M774.887 566.642c1.85 5.63-1.35 11.792-7.145 13.765-5.798 1.974-12-.988-13.85-6.62-1.852-5.63 1.348-11.79 7.147-13.764 5.79-1.973 11.99.99 13.84 6.62" fill="#fff"/><path d="M521.613 513.802c2.304 7.005-1.676 14.677-8.893 17.133-7.217 2.457-14.936-1.233-17.24-8.24-2.303-7.004 1.678-14.68 8.895-17.135 7.218-2.457 14.934 1.236 17.238 8.242" fill="#a02c2c"/><path d="M832.78 546.938l-253.55 86.3-59.587-181.2 253.55-86.3 59.587 181.2z" fill="#fff"/><path d="M728.554 467.265c9.945 30.24-7.24 63.354-38.39 73.956-31.144 10.61-64.45-5.32-74.396-35.56-9.946-30.24 7.235-63.353 38.38-73.954 31.148-10.6 64.46 5.324 74.406 35.568" fill="#c83737"/><path d="M689.147 513.7l-14.016 4.77-19.53-59.396 14.02-4.77 19.53 59.396z" fill="#fffeff"/><path d="M639.335 490.063l61.17-20.82 4.476 13.612-61.16 20.82-4.476-13.612z" fill="#fffeff"/><path d="M487.837 664.344l92.3-31.416-41.123-125.05-60.05 20.438s-9.857 52.178-8.51 70.296c1.25 16.83 17.383 65.732 17.383 65.732" fill="#fff"/><path d="M479.244 593.66l68.21-23.215-15.804-48.054-45.595 15.52-6.81 55.75z" fill="#2ad4ff"/><path d="M825.926 526.09L481.16 642.856l-2.236-7.664 344.338-117.198z" fill="#c83737"/><path d="M562.51 641.55c5.002 15.212-3.643 31.86-19.302 37.19-15.662 5.33-32.413-2.673-37.415-17.884-5-15.208 3.643-31.858 19.305-37.188 15.66-5.33 32.41 2.675 37.412 17.883m231.562-79.47c5.002 15.22-3.643 31.86-19.302 37.19-15.662 5.33-32.41-2.67-37.413-17.88-5-15.21 3.64-31.854 19.303-37.19 15.66-5.33 32.41 2.68 37.412 17.888" fill="#005975"/><path d="M554.463 644.666c3.79 10.827-2.23 22.517-13.44 26.114-11.215 3.6-23.375-2.255-27.164-13.083-3.79-10.827 2.23-22.516 13.44-26.115 11.21-3.597 23.37 2.257 27.16 13.084m231.7-79.296c3.79 10.828-2.236 22.517-13.44 26.115-11.22 3.6-23.38-2.255-27.168-13.083-3.79-10.827 2.23-22.516 13.444-26.115 11.21-3.598 23.37 2.257 27.157 13.084" fill="#ccc"/><path d="M441.963 323.06c-27.952-.203-48.51 32.565-37.404 57.912 4.78 12.338 15.74 22.36 28.81 25.09-8.92 6.563 6.1 29.767-11.43 20.414-24.744-4.112-48.934 18.28-47.466 43.194.342 21.36 19.662 42.572 41.836 39.956 2.216 7.086-10.383 16.97-4.87 26.77 3.284 13.213 17.747 21.14 30.68 20.915.117 12.02 18.31 19.17 9.192 32.12.018 14.73 22.335 19.45 28.114 5.73 8.194-12.4-17.452-25.87-5.78-34.09 11.285 4.248 24.767-.11 31.31-10.483 8.966-12.063 6.707-32.474-7.53-39.453-11.735-3.51-6.163-18.33-2.435-26.33 11.205-1.637 15.54-19.416 28.556-14.44 24.16-2.16 37.92-34.017 23.49-53.374-6.695-9.97-19.245-15.93-31.205-13.99 12.304-13.284-1.17-32.274-9.1-38.96 6.64-14.88-14.06-29.664-25.57-17.22-8.242-8.647-18.295-23.7-34.046-23.55l-2.57-.19-2.588-.017zm32.218 67.844c6.71 7.925-14.28 11.25-2.55 2.994.926-.936 1.718-1.986 2.56-2.994zM447 441.374c8.088-2.084 4.73 11.728 0 0zm8.687 31.905c2.454.88-2.598 2.64 0 0zm-10.124 22.56c3.57 7.9-.28 9.58-7.27 6.77 1.523-2.92 6.146-3.43 7.27-6.77zm14.875 20.87c2.787-.72-.6 2.935 0 0zm2.814 88.28c-19.704 5.09 11.09 25.19 6.25 3.86-1.157-2.3-3.624-3.993-6.25-3.862z" fill="#f9f9f9" stroke="#c87137" stroke-width="6.9"/></svg>