<?xml version="1.0" encoding="UTF-8" standalone="no"?>
<!-- Created with Inkscape (http://www.inkscape.org/) -->

<svg
   xmlns:dc="http://purl.org/dc/elements/1.1/"
   xmlns:cc="http://creativecommons.org/ns#"
   xmlns:rdf="http://www.w3.org/1999/02/22-rdf-syntax-ns#"
   xmlns:svg="http://www.w3.org/2000/svg"
   xmlns="http://www.w3.org/2000/svg"
   xmlns:sodipodi="http://sodipodi.sourceforge.net/DTD/sodipodi-0.dtd"
   xmlns:inkscape="http://www.inkscape.org/namespaces/inkscape"
   width="3000"
   height="3000"
   id="svg2"
   version="1.1"
   inkscape:version="0.48.4 r9939"
   sodipodi:docname="icon.svg"
   inkscape:export-filename="/home/natalie/Pictures/2.png"
   inkscape:export-xdpi="30"
   inkscape:export-ydpi="30">
  <defs
     id="defs4">
    <filter
       inkscape:collect="always"
       id="filter4081">
      <feGaussianBlur
         inkscape:collect="always"
         stdDeviation="37.328226"
         id="feGaussianBlur4083" />
    </filter>
  </defs>
  <sodipodi:namedview
     id="base"
     pagecolor="#ffffff"
     bordercolor="#666666"
     borderopacity="1.0"
     inkscape:pageopacity="0.0"
     inkscape:pageshadow="2"
     inkscape:zoom="0.24748737"
     inkscape:cx="1523.3241"
     inkscape:cy="1570.1229"
     inkscape:document-units="px"
     inkscape:current-layer="layer1"
     showgrid="false"
     showguides="true"
     inkscape:guide-bbox="true"
     inkscape:window-width="1615"
     inkscape:window-height="1026"
     inkscape:window-x="65"
     inkscape:window-y="24"
     inkscape:window-maximized="1">
    <inkscape:grid
       type="xygrid"
       id="grid2985"
       empspacing="5"
       visible="true"
       enabled="true"
       snapvisiblegridlinesonly="true" />
  </sodipodi:namedview>
  <metadata
     id="metadata7">
    <rdf:RDF>
      <cc:Work
         rdf:about="">
        <dc:format>image/svg+xml</dc:format>
        <dc:type
           rdf:resource="http://purl.org/dc/dcmitype/StillImage" />
        <dc:title></dc:title>
      </cc:Work>
    </rdf:RDF>
  </metadata>
  <g
     inkscape:label="Layer 1"
     inkscape:groupmode="layer"
     id="layer1"
     transform="translate(0,1947.6378)">
    <path
       style="fill:#000000;filter:url(#filter4081)"
       d="m 1499.9986,-1940.7666 c -199.9528,0 -390.7673,39.5151 -565.05607,110.8182 -9.69215,3.9651 -19.34052,7.9698 -28.92933,12.1317 -0.16011,0.066 -0.30627,0.1631 -0.46638,0.2328 -10.03197,4.3583 -19.94643,8.7274 -29.86258,13.2982 -31.53499,14.5358 -62.55161,30.0364 -92.85391,46.6603 l 1434.10387,0 c -0.3628,-0.1998 -0.8033,-0.2681 -1.1666,-0.4664 -8.8351,-4.837 -17.6539,-9.569 -26.5964,-14.2314 -32.0173,-16.6932 -64.6623,-32.5065 -97.9865,-46.8936 -1.3817,-0.5963 -2.817,-1.0446 -4.1995,-1.6331 -11.2078,-4.7985 -22.4819,-9.468 -33.8286,-13.9981 -75.99,-30.3381 -155.0374,-54.7091 -236.5676,-72.3233 -2.2556,-0.4877 -4.5134,-0.9329 -6.7659,-1.3999 -6.1248,-1.2935 -12.2785,-2.5147 -18.4307,-3.7328 -94.3183,-18.6753 -191.6201,-28.4628 -291.3935,-28.4628 z m 718.5683,184.0749 c 12.2958,6.7651 24.3255,13.6707 36.3951,20.7638 -12.0251,-7.0631 -24.1579,-14.0311 -36.3951,-20.7638 z m -1481.93052,25.6631 c -9.05553,5.3975 -18.13288,10.7486 -27.06304,16.331 8.94889,-5.5886 17.98871,-10.9206 27.06304,-16.331 z m 1606.98012,51.5595 c 10.3507,7.1014 20.6352,14.344 30.7958,21.6971 -10.1876,-7.3755 -20.417,-14.5747 -30.7958,-21.6971 z m 34.5287,24.4967 c 11.6475,8.4859 23.3847,17.0963 34.7619,25.8965 -11.416,-8.8354 -23.0866,-17.388 -34.7619,-25.8965 z m -1761.42584,3.4996 c -10.10777,7.428 -20.18432,14.956 -30.09584,22.6302 9.91145,-7.678 19.99131,-15.1892 30.09584,-22.6302 z m -30.79577,23.0968 c -12.07872,9.363 -23.91551,18.7414 -35.69509,28.4628 11.77899,-9.7209 23.61865,-19.1021 35.69509,-28.4628 z m -43.39411,34.9952 c -9.6306,8.0572 -19.27383,16.2035 -28.696,24.4967 9.41835,-8.2906 19.07003,-16.4412 28.696,-24.4967 z m 1917.03792,2.0997 c 7.1723,6.0233 14.4075,12.0424 21.4637,18.1975 -7.0849,-6.181 -14.2622,-12.149 -21.4637,-18.1975 z m -1980.26257,53.8926 c -73.01807,68.416 -139.26348,144.0619 -197.37303,225.8358 l 2435.9002,0 c -14.5694,-20.5056 -29.7,-40.4728 -45.2605,-60.1917 -7.721,-9.7846 -15.605,-19.5785 -23.5634,-29.1627 -39.9564,-48.1186 -82.7145,-93.7472 -128.3158,-136.4814 l -2041.38747,0 z m 2256.72467,252.1989 c 12.0229,17.7275 23.73,35.6245 34.9953,53.8926 -11.2822,-18.265 -22.9594,-36.1623 -34.9953,-53.8926 z m 51.5597,81.6555 c 5.4398,9.2638 10.8528,18.6061 16.0978,27.9962 -5.2543,-9.3926 -10.6479,-18.7304 -16.0978,-27.9962 z m 16.0978,27.9962 c 5.2449,9.39 10.35,18.7168 15.3979,28.2295 -5.0273,-9.4598 -10.1746,-18.8924 -15.3979,-28.2295 z m 15.3979,28.2295 c 5.0478,9.5127 10.0642,19.0463 14.9312,28.696 -4.8544,-9.6341 -9.8757,-19.1831 -14.9312,-28.696 z m 14.9312,28.696 c 4.8671,9.6498 9.5846,19.4155 14.2314,29.1627 -4.6704,-9.7965 -9.3553,-19.4856 -14.2314,-29.1627 z m 14.2314,29.1627 -2696.73113,0 c -65.172325,136.69677 -110.138285,284.92527 -131.115435,440.70637 -1.19237,8.8549 -2.22977,17.693 -3.26614,26.5964 -0.33711,2.8966 -0.84593,5.7305 -1.16659,8.6321 -0.19683,1.7801 -0.27468,3.5838 -0.46637,5.3659 -0.8134,7.614 -1.63458,15.2159 -2.33303,22.8636 -0.2152,2.3381 -0.49649,4.6546 -0.69919,6.999 -0.10723,1.2412 -0.12927,2.4909 -0.23282,3.7329 -0.9846,11.708 -1.85337,23.4451 -2.56629,35.2285 -1.83258,30.28962 -2.79962,60.93692 -2.79962,91.68742 0,33.1227 1.14235,65.8675 3.26621,98.4533 0.5736,8.8069 1.1403,17.5982 1.86644,26.363 5.80393,70.0625 16.35185,138.7896 31.49569,205.7718 0.0294,0.1477 -0.0294,0.3188 0,0.4664 1.25708,5.5521 2.64738,11.0361 3.96607,16.5644 0.69845,2.9526 1.37686,5.9153 2.09977,8.8655 20.02017,81.7002 46.94169,160.7673 79.789125,236.5676 -10.16042,-23.5361 -19.7283,-47.4789 -28.69614,-71.6235 13.51646,36.212 28.39561,71.8194 44.56062,106.6188 l 2709.32943,0 c 11.0895,-23.873 21.6549,-48.0315 31.4957,-72.5568 14.7612,-36.7878 28.0393,-74.2949 39.8945,-112.4513 -3.7213,12.0124 -7.418,23.8145 -11.4317,35.6951 50.87,-150.3251 78.6225,-311.231 78.6225,-478.7345 l -0.2328,-12.365 c -0.1168,-14.1463 -0.4274,-28.1783 -0.9332,-42.2275 -7.56,-209.72802 -58.4142,-408.29662 -143.7137,-587.21969 z m 37.7949,1197.30289 c -4.9124,12.2617 -9.9371,24.5308 -15.1646,36.6284 9.9901,-23.098 19.3901,-46.5389 28.2294,-70.2238 -4.1856,11.2313 -8.6176,22.4945 -13.0648,33.5954 z m -15.1646,36.6284 c -4.7149,10.911 -9.4966,21.6555 -14.4647,32.4289 4.947,-10.7272 9.7664,-21.5663 14.4647,-32.4289 z m -16.3311,35.9284 c -19.8156,42.6582 -41.504,84.3999 -65.0911,124.8162 23.6713,-40.4483 45.2328,-82.057 65.0911,-124.8162 z m -65.0911,124.8162 c -7.667,13.1372 -15.5144,26.0878 -23.5635,38.9614 8.0448,-12.8333 15.9021,-25.8699 23.5635,-38.9614 z M 145.2172,180.40999 c 4.51403,9.7197 9.04906,19.3244 13.76477,28.9294 -4.71755,-9.6202 -9.24523,-19.1998 -13.76477,-28.9294 z m 13.76477,28.9294 c 4.72482,9.6234 9.54026,19.1906 14.4647,28.696 -4.91386,-9.5064 -9.74715,-19.0759 -14.4647,-28.696 z m -29.62925,-63.9246 c 4.60929,10.6366 9.38347,21.2224 14.23137,31.729 -4.85899,-10.535 -9.62215,-21.0519 -14.23137,-31.729 z M 211.4748,-1202.6009 c -4.49766,7.6596 -8.93399,15.3508 -13.29819,23.0969 4.34981,-7.7326 8.81573,-15.4506 13.29819,-23.0969 z M 2760.5262,352.35309 c -4.899,7.7213 -9.8915,15.4709 -14.9313,23.0969 5.05,-7.6273 10.0185,-15.3724 14.9313,-23.0969 z m -15.8646,24.2633 c -4.8828,7.3704 -9.6857,14.6563 -14.6978,21.9304 4.9892,-7.2389 9.8338,-14.5997 14.6978,-21.9304 z m -2472.29511,25.8966 c 0.50456,0.7271 1.127,1.3731 1.6331,2.0996 5.20853,7.4779 10.29021,15.0197 15.63122,22.397 0.0661,0.088 0.16892,0.1454 0.23282,0.2328 52.20757,72.0783 110.77409,139.2934 174.7428,200.8725 l 2070.55017,0 c 71.2291,-68.5682 135.7067,-144.1294 192.2404,-225.6024 l -2455.03095,0 z M 2535.157,628.11539 c -5.6197,5.4089 -11.3089,10.7677 -17.031,16.0978 5.7248,-5.3411 11.3908,-10.6683 17.031,-16.0978 z m -2070.55013,0 c 10.33963,9.9533 20.6399,19.7414 31.26236,29.396 -10.60865,-9.642 -20.93668,-19.4578 -31.26236,-29.396 z m 1964.86463,92.6207 c -6.1087,4.8679 -12.2464,9.704 -18.4308,14.4647 6.1849,-4.771 12.3233,-9.5995 18.4308,-14.4647 z m -18.4308,14.4647 c -18.5533,14.2821 -37.4562,28.0751 -56.6923,41.52761 19.1911,-13.41851 38.1759,-27.24451 56.6923,-41.52761 z m -56.6923,41.52761 c -12.8241,8.9684 -25.8475,17.7924 -38.9613,26.3631 13.1378,-8.5838 26.1149,-17.3809 38.9613,-26.3631 z m -38.9613,26.3631 c -13.1138,8.5707 -26.2668,16.7994 -39.6613,24.9632 13.3624,-8.1438 26.5792,-16.4157 39.6613,-24.9632 z M 573.55866,723.30239 c 10.88833,8.625 21.76396,17.1051 32.89547,25.4299 -11.13334,-8.3267 -22.00545,-16.8031 -32.89547,-25.4299 z m 75.58965,55.99231 c 5.83963,4.0568 11.59774,8.1566 17.49751,12.1317 -5.82875,-3.9813 -11.71605,-8.1154 -17.49751,-12.1317 z m 34.99517,23.7968 c 6.55233,4.2823 13.20749,8.4167 19.83062,12.5982 -6.66008,-4.149 -13.27366,-8.3129 -19.83062,-12.5982 z m 59.72518,36.8617 c 6.6647,3.9215 13.33359,7.8443 20.06395,11.665 -6.70907,-3.8086 -13.41203,-7.7287 -20.06395,-11.665 z m 1512.02654,0 c -6.6519,3.9363 -13.3549,7.8564 -20.0639,11.665 6.7303,-3.8207 13.3993,-7.7435 20.0639,-11.665 z M 764.63246,852.0848 c 0.84879,0.4803 1.71654,0.9202 2.56636,1.3998 12.47627,7.0408 25.09907,13.8415 37.79479,20.5305 66.21192,34.885 135.31527,65.0628 206.93839,89.8211 3.4123,1.1795 6.8419,2.344 10.2653,3.4995 98.9193,33.386 202.3787,56.5896 309.3577,68.5906 11.4619,1.2858 22.9897,2.4747 34.5286,3.4995 28.0293,2.4894 56.2352,4.2139 84.6883,5.1327 6.5114,0.2108 13.0652,0.3393 19.5975,0.4663 9.8126,0.1903 19.771,0.4664 29.6292,0.4664 167.0865,0 327.5637,-27.5283 477.568,-78.1559 4.2847,-1.4462 8.5644,-2.9489 12.8315,-4.4328 25.583,-8.896 50.8946,-18.4688 75.8231,-28.696 7.2501,-2.9745 14.5046,-6.0141 21.697,-9.0988 50.5944,-21.6993 99.6831,-46.0774 147.2132,-73.0234 l -1470.49894,0 z"
       id="path2989-3-4"
       inkscape:connector-curvature="0"
       transform="matrix(0.96251218,0,0,0.96251218,56.231737,-16.780965)" />
    <path
       style="fill:#0088aa"
       d="m 1499.9986,-1869.9389 c -190.4679,0 -372.2309,37.6409 -538.25209,105.5615 -9.23239,3.777 -18.42308,7.5919 -27.55704,11.5562 -0.15252,0.062 -0.29174,0.1554 -0.44426,0.2218 -9.55609,4.1517 -19.00025,8.3133 -28.44602,12.6674 -30.0391,13.8462 -59.58442,28.6116 -88.44931,44.447 l 1366.07582,0 c -0.3456,-0.1904 -0.7652,-0.2553 -1.1112,-0.4442 -8.4161,-4.6076 -16.8164,-9.1152 -25.3348,-13.5564 -30.4985,-15.9014 -61.595,-30.9646 -93.3384,-44.6693 -1.3162,-0.5679 -2.6834,-0.995 -4.0003,-1.5555 -10.6762,-4.571 -21.4155,-9.0189 -32.2239,-13.334 -72.3855,-28.8992 -147.6832,-52.114 -225.3459,-68.8927 -2.1485,-0.4645 -4.2992,-0.8887 -6.4449,-1.3335 -5.8343,-1.232 -11.6961,-2.3954 -17.5564,-3.5558 -89.8442,-17.7893 -182.5305,-27.1126 -277.571,-27.1126 z m 684.4824,175.3431 c 11.7126,6.4442 23.1717,13.0222 34.6687,19.7788 -11.4546,-6.728 -23.012,-13.3655 -34.6687,-19.7788 z M 772.84717,-1670.15 c -8.62597,5.1414 -17.27273,10.2387 -25.77927,15.5564 8.52439,-5.3235 17.13539,-10.4026 25.77927,-15.5564 z m 1530.75163,49.1137 c 9.8597,6.7646 19.6564,13.6638 29.335,20.668 -9.7045,-7.0255 -19.4486,-13.8833 -29.335,-20.668 z m 32.8908,23.3348 c 11.0949,8.0835 22.2754,16.2853 33.1128,24.6681 -10.8743,-8.4164 -21.9913,-16.5632 -33.1128,-24.6681 z m -1677.87109,3.3336 c -9.6283,7.0756 -19.22686,14.2465 -28.66821,21.5568 9.44129,-7.3139 19.043,-14.4687 28.66821,-21.5568 z m -29.33494,22.0012 c -11.50575,8.9187 -22.78106,17.8524 -34.00187,27.1127 11.22025,-9.2598 22.49829,-18.196 34.00187,-27.1127 z m -41.33568,33.3351 c -9.17376,7.6752 -18.35956,15.435 -27.33478,23.3347 8.97159,-7.8973 18.16543,-15.6612 27.33478,-23.3347 z m 1826.10151,2.0003 c 6.8321,5.7375 13.7241,11.471 20.4455,17.3342 -6.7487,-5.8878 -13.5856,-11.5727 -20.4455,-17.3342 z m -1886.32705,51.3361 c -69.5544,65.1707 -132.6574,137.2282 -188.01048,215.123 l 2320.35123,0 c -13.8784,-19.5329 -28.2912,-38.5529 -43.1136,-57.3364 -7.3547,-9.3204 -14.8647,-18.6497 -22.4456,-27.7794 -38.0611,-45.836 -78.7909,-89.3001 -122.2291,-130.0072 l -1944.55245,0 z m 2149.67495,240.2356 c 11.4527,16.8866 22.6045,33.9346 33.3353,51.3362 -10.747,-17.3987 -21.8703,-34.4469 -33.3353,-51.3362 z m 49.1139,77.7822 c 5.1818,8.8243 10.3381,17.7235 15.3343,26.6681 -5.005,-8.9471 -10.1429,-17.8418 -15.3343,-26.6681 z m 15.3343,26.6681 c 4.996,8.9446 9.859,17.8289 14.6675,26.8904 -4.7889,-9.011 -9.6921,-17.9962 -14.6675,-26.8904 z m 14.6675,26.8904 c 4.8083,9.0615 9.5868,18.1429 14.2229,27.3349 -4.6241,-9.1771 -9.4072,-18.2732 -14.2229,-27.3349 z m 14.2229,27.3349 c 4.6362,9.1919 9.13,18.4944 13.5563,27.7792 -4.4488,-9.3317 -8.9116,-18.5612 -13.5563,-27.7792 z m 13.5563,27.7792 -2568.8094,0 c -62.08082,130.21234 -104.91378,271.40954 -124.895869,419.80105 -1.135807,8.43484 -2.123998,16.85373 -3.111208,25.33475 -0.321119,2.75923 -0.805802,5.45866 -1.11125,8.22266 -0.187497,1.69562 -0.26165,3.41378 -0.444247,5.11137 -0.774809,7.2528 -1.557041,14.49411 -2.222365,21.77908 -0.204983,2.22712 -0.472926,4.43374 -0.666024,6.66696 -0.102141,1.18233 -0.123124,2.3727 -0.221768,3.5558 -0.937893,11.15265 -1.765453,22.33303 -2.44456,33.55741 -1.745649,28.85284 -2.666816,58.04634 -2.666816,87.33819 0,31.5515 1.088158,62.743 3.111277,93.78301 0.546387,8.38917 1.086199,16.7635 1.777903,25.11249 5.528617,66.73899 15.576187,132.20597 30.001667,196.01089 0.028,0.14062 -0.028,0.30362 0,0.44425 1.19744,5.28872 2.52179,10.5126 3.77793,15.77865 0.66533,2.81255 1.31155,5.63469 2.00017,8.44499 19.0705,77.824632 44.71497,153.141183 76.00426,225.34581 -9.67846,-22.41964 -18.79247,-45.22673 -27.33491,-68.225986 12.87528,34.494246 27.04863,68.412586 42.44684,101.561206 l 2580.81017,0 c 10.5634,-22.74055 20.6276,-45.7531 30.0016,-69.11498 14.061,-35.042727 26.7092,-70.770662 38.002,-107.117044 -3.5446,11.442588 -7.066,22.6848 -10.8893,34.001867 48.4569,-143.194353 74.893,-296.467553 74.893,-456.025363 l -0.2218,-11.77846 c -0.1114,-13.47528 -0.4071,-26.84164 -0.8889,-40.22442 -7.2014,-199.77936 -55.6434,-388.92874 -136.8966,-559.36438 z m 36.002,1140.50781 c -4.6793,11.68004 -9.4656,23.36711 -14.4452,34.89086 9.5162,-22.00226 18.4704,-44.33125 26.8903,-66.89263 -3.987,10.69856 -8.2087,21.4274 -12.4451,32.00177 z m -14.4452,34.89086 c -4.4913,10.39345 -9.0462,20.62823 -13.7786,30.89059 4.7124,-10.21835 9.3032,-20.54324 13.7786,-30.89059 z m -15.5564,34.22412 c -18.8756,40.63468 -39.5353,80.3963 -62.0034,118.89544 22.5484,-38.52964 43.0871,-78.16456 62.0034,-118.89544 z m -62.0034,118.89544 c -7.3033,12.51403 -14.7785,24.85029 -22.4458,37.11321 7.6633,-12.22452 15.1477,-24.6427 22.4458,-37.11321 z M 209.48244,150.61799 c 4.29989,9.25863 8.61981,18.4077 13.11182,27.55712 -4.49376,-9.1639 -8.80668,-18.28904 -13.11182,-27.55712 z m 13.11182,27.55712 c 4.5007,9.16691 9.08772,18.28023 13.77857,27.33479 -4.68077,-9.05546 -9.28479,-18.17102 -13.77857,-27.33479 z M 194.3705,117.28278 c 4.39065,10.13209 8.93835,20.21576 13.5563,30.22394 -4.62852,-10.03525 -9.16572,-20.05324 -13.5563,-30.22394 z m 78.22656,-1284.07148 c -4.28431,7.2964 -8.51021,14.6227 -12.66738,22.0013 4.14347,-7.3658 8.39755,-14.7177 12.66738,-22.0013 z M 2700.732,314.40485 c -4.6666,7.35507 -9.4223,14.73701 -14.223,22.00127 4.8105,-7.26545 9.5432,-14.64319 14.223,-22.00127 z m -15.112,23.11238 c -4.6512,7.02074 -9.2263,13.96103 -14.0006,20.89003 4.7525,-6.89542 9.3673,-13.90713 14.0006,-20.89003 z M 330.60031,362.18534 c 0.48062,0.6926 1.07353,1.30798 1.55563,2.00003 4.96145,7.12322 9.80208,14.30724 14.88973,21.33455 0.0629,0.084 0.16091,0.13853 0.22179,0.22178 49.73105,68.65926 105.51942,132.68589 166.45373,191.34397 l 1972.33181,0 c 67.8503,-65.31566 129.2694,-137.29251 183.1213,-214.90082 l -2338.57442,0 z M 2486.0534,577.08615 c -5.3531,5.1523 -10.7725,10.25689 -16.2232,15.33419 5.4534,-5.08772 10.8505,-10.1623 16.2232,-15.33419 z m -1972.3318,0 c 9.84917,9.48117 19.66083,18.80493 29.77941,28.00158 -10.10542,-9.18462 -19.94353,-18.53482 -29.77941,-28.00158 z m 1871.6596,88.22711 c -5.8189,4.63705 -11.6656,9.24373 -17.5565,13.77856 5.8914,-4.54463 11.7386,-9.14411 17.5565,-13.77856 z m -17.5565,13.77856 c -17.6732,13.60463 -35.6794,26.74333 -54.0031,39.55777 18.2808,-12.78197 36.365,-25.95215 54.0031,-39.55777 z m -54.0031,39.55777 c -12.2157,8.54293 -24.6214,16.94839 -37.113,25.11249 12.5145,-8.17662 24.876,-16.55641 37.113,-25.11249 z m -37.113,25.11249 c -12.4919,8.16416 -25.021,16.00252 -37.78,23.77911 12.7284,-7.75749 25.3183,-15.63706 37.78,-23.77911 z M 617.50518,667.75781 c 10.37184,8.21594 20.73157,16.29378 31.33504,24.22365 -10.60522,-7.93169 -20.96161,-16.00602 -31.33504,-24.22365 z m 72.00399,53.33634 c 5.56263,3.86432 11.0476,7.76965 16.6675,11.55619 -5.55225,-3.79248 -11.16028,-7.73048 -16.6675,-11.55619 z m 33.33515,22.66793 c 6.24151,4.07918 12.58099,8.01746 18.88994,12.00066 -6.34416,-3.95221 -12.64401,-7.91861 -18.88994,-12.00066 z m 56.89206,35.11311 c 6.34856,3.73554 12.70111,7.47226 19.1122,11.11167 -6.39081,-3.62794 -12.77581,-7.36207 -19.1122,-11.11167 z m 1440.30232,0 c -6.3365,3.7496 -12.7214,7.4838 -19.1122,11.11167 6.411,-3.63941 12.7636,-7.37613 19.1122,-11.11167 z M 799.51524,790.43133 c 0.80853,0.45754 1.63512,0.8766 2.44462,1.33344 11.88445,6.70682 23.90847,13.18494 36.00197,19.55658 63.0711,33.23029 128.89648,61.97652 197.12207,85.56039 3.2504,1.1235 6.5172,2.23278 9.7783,3.33348 94.2269,31.80228 192.7787,53.90542 294.683,65.33718 10.9183,1.2247 21.8992,2.3572 32.8907,3.3335 26.6997,2.3712 53.5678,4.014 80.6711,4.8892 6.2025,0.2008 12.4455,0.3232 18.6678,0.4442 9.3472,0.1811 18.8332,0.4441 28.2238,0.4441 159.1607,0 312.0254,-26.22251 454.9141,-74.44847 4.0815,-1.37766 8.1582,-2.80909 12.2228,-4.2226 24.3695,-8.47404 48.4804,-17.59277 72.2264,-27.33478 6.9062,-2.83344 13.8166,-5.72884 20.6678,-8.66721 48.1944,-20.66992 94.9547,-43.89167 140.2301,-69.55944 l -1400.74456,0 z"
       id="path2989-3"
       inkscape:connector-curvature="0" />
    <text
       xml:space="preserve"
       style="font-size:774.26190186px;font-style:normal;font-weight:normal;line-height:125%;letter-spacing:0px;word-spacing:0px;fill:#ffffff;fill-opacity:1;stroke:none;font-family:Sans"
       x="1557.236"
       y="-159.15955"
       id="text4783"
       sodipodi:linespacing="125%"
       transform="scale(0.96266552,1.0387824)"><tspan
         sodipodi:role="line"
         id="tspan4785"
         x="1557.236"
         y="-159.15955"
         style="font-style:normal;font-variant:normal;font-weight:600;font-stretch:normal;text-align:center;text-anchor:middle;font-family:Museo;-inkscape-font-specification:Museo Semi-Bold">fielden</tspan></text>
  </g>
</svg>
