<?xml version="1.0" encoding="utf-8"?>
<!DOCTYPE svg PUBLIC "-//W3C//DTD SVG 1.1//EN" "http://www.w3.org/Graphics/SVG/1.1/DTD/svg11.dtd">
<svg version="1.1" id="Layer_1" xmlns="http://www.w3.org/2000/svg" xmlns:xlink="http://www.w3.org/1999/xlink" x="0px" y="0px"
	 width="512px" height="512px" viewBox="0 0 512 512" enable-background="new 0 0 512 512" xml:space="preserve">
<g>
	<path d="M434.239,229.21l-170-149c-4.716-4.133-11.763-4.133-16.479,0l-170,149c-5.191,4.55-5.711,12.448-1.161,17.64
		c4.55,5.191,12.449,5.711,17.64,1.161l13.163-11.537v185.915c0,6.903,5.596,12.5,12.5,12.5h94.733h82.729h94.733
		c6.904,0,12.5-5.597,12.5-12.5V236.475l13.163,11.537c2.373,2.079,5.31,3.1,8.234,3.1c3.476,0,6.934-1.441,9.405-4.261
		C439.951,241.658,439.431,233.761,434.239,229.21z M227.135,409.889V306.917h57.729v102.973H227.135z M379.598,214.66v195.229
		h-69.733V294.417c0-6.904-5.597-12.5-12.5-12.5h-82.729c-6.903,0-12.5,5.596-12.5,12.5v115.473h-69.733V214.66
		c0-0.032-0.004-0.062-0.004-0.093L256,106.232l123.603,108.334C379.603,214.598,379.598,214.628,379.598,214.66z"/>
	<path d="M228,194.237c0,6.904,5.596,12.5,12.5,12.5h31c6.904,0,12.5-5.596,12.5-12.5s-5.596-12.5-12.5-12.5h-31
		C233.596,181.737,228,187.333,228,194.237z"/>
</g>
</svg>
